%TF.GenerationSoftware,KiCad,Pcbnew,9.0.8-1.fc43*%
%TF.CreationDate,2026-04-19T21:42:25+01:00*%
%TF.ProjectId,Scrumpi_JN,53637275-6d70-4695-9f4a-4e2e6b696361,rev?*%
%TF.SameCoordinates,Original*%
%TF.FileFunction,Drillmap*%
%TF.FilePolarity,Positive*%
%FSLAX45Y45*%
G04 Gerber Fmt 4.5, Leading zero omitted, Abs format (unit mm)*
G04 Created by KiCad (PCBNEW 9.0.8-1.fc43) date 2026-04-19 21:42:25*
%MOMM*%
%LPD*%
G01*
G04 APERTURE LIST*
%ADD10C,0.038100*%
%ADD11C,0.200000*%
%ADD12C,0.100000*%
G04 APERTURE END LIST*
D10*
X7583000Y-2614000D02*
X24093000Y-2614000D01*
X24093000Y-15314000D01*
X7583000Y-15314000D01*
X7583000Y-2614000D01*
D11*
D12*
X8298000Y-10294000D02*
X8378000Y-10374000D01*
X8378000Y-10294000D02*
X8298000Y-10374000D01*
X8298000Y-10694000D02*
X8378000Y-10774000D01*
X8378000Y-10694000D02*
X8298000Y-10774000D01*
X8298000Y-11094000D02*
X8378000Y-11174000D01*
X8378000Y-11094000D02*
X8298000Y-11174000D01*
X8298000Y-11494000D02*
X8378000Y-11574000D01*
X8378000Y-11494000D02*
X8298000Y-11574000D01*
X8302000Y-12054000D02*
X8382000Y-12134000D01*
X8382000Y-12054000D02*
X8302000Y-12134000D01*
X8302000Y-12454000D02*
X8382000Y-12534000D01*
X8382000Y-12454000D02*
X8302000Y-12534000D01*
X8302000Y-12854000D02*
X8382000Y-12934000D01*
X8382000Y-12854000D02*
X8302000Y-12934000D01*
X8302000Y-13254000D02*
X8382000Y-13334000D01*
X8382000Y-13254000D02*
X8302000Y-13334000D01*
X8303000Y-8959000D02*
X8383000Y-9039000D01*
X8383000Y-8959000D02*
X8303000Y-9039000D01*
X8303000Y-9359000D02*
X8383000Y-9439000D01*
X8383000Y-9359000D02*
X8303000Y-9439000D01*
X8303000Y-9759000D02*
X8383000Y-9839000D01*
X8383000Y-9759000D02*
X8303000Y-9839000D01*
X8307000Y-5783000D02*
X8387000Y-5863000D01*
X8387000Y-5783000D02*
X8307000Y-5863000D01*
X8307000Y-6180000D02*
X8387000Y-6260000D01*
X8387000Y-6180000D02*
X8307000Y-6260000D01*
X8307000Y-8568000D02*
X8387000Y-8648000D01*
X8387000Y-8568000D02*
X8307000Y-8648000D01*
X8310000Y-4983000D02*
X8390000Y-5063000D01*
X8390000Y-4983000D02*
X8310000Y-5063000D01*
X8311000Y-5378000D02*
X8391000Y-5458000D01*
X8391000Y-5378000D02*
X8311000Y-5458000D01*
X8313000Y-3531000D02*
X8393000Y-3611000D01*
X8393000Y-3531000D02*
X8313000Y-3611000D01*
X8313000Y-3930000D02*
X8393000Y-4010000D01*
X8393000Y-3930000D02*
X8313000Y-4010000D01*
X8313000Y-4326000D02*
X8393000Y-4406000D01*
X8393000Y-4326000D02*
X8313000Y-4406000D01*
X8315000Y-3129000D02*
X8395000Y-3209000D01*
X8395000Y-3129000D02*
X8315000Y-3209000D01*
X8392000Y-6795000D02*
X8472000Y-6875000D01*
X8472000Y-6795000D02*
X8392000Y-6875000D01*
X8392000Y-7195000D02*
X8472000Y-7275000D01*
X8472000Y-7195000D02*
X8392000Y-7275000D01*
X8392000Y-7595000D02*
X8472000Y-7675000D01*
X8472000Y-7595000D02*
X8392000Y-7675000D01*
X8392255Y-7995398D02*
X8472255Y-8075398D01*
X8472255Y-7995398D02*
X8392255Y-8075398D01*
X8559000Y-9363000D02*
X8639000Y-9443000D01*
X8639000Y-9363000D02*
X8559000Y-9443000D01*
X8559000Y-10295000D02*
X8639000Y-10375000D01*
X8639000Y-10295000D02*
X8559000Y-10375000D01*
X8559000Y-10695000D02*
X8639000Y-10775000D01*
X8639000Y-10695000D02*
X8559000Y-10775000D01*
X8559000Y-11095000D02*
X8639000Y-11175000D01*
X8639000Y-11095000D02*
X8559000Y-11175000D01*
X8559000Y-11495000D02*
X8639000Y-11575000D01*
X8639000Y-11495000D02*
X8559000Y-11575000D01*
X8560000Y-8960000D02*
X8640000Y-9040000D01*
X8640000Y-8960000D02*
X8560000Y-9040000D01*
X8561000Y-9762000D02*
X8641000Y-9842000D01*
X8641000Y-9762000D02*
X8561000Y-9842000D01*
X8563000Y-8568000D02*
X8643000Y-8648000D01*
X8643000Y-8568000D02*
X8563000Y-8648000D01*
X8563000Y-12055000D02*
X8643000Y-12135000D01*
X8643000Y-12055000D02*
X8563000Y-12135000D01*
X8563000Y-12455000D02*
X8643000Y-12535000D01*
X8643000Y-12455000D02*
X8563000Y-12535000D01*
X8563000Y-12855000D02*
X8643000Y-12935000D01*
X8643000Y-12855000D02*
X8563000Y-12935000D01*
X8563000Y-13255000D02*
X8643000Y-13335000D01*
X8643000Y-13255000D02*
X8563000Y-13335000D01*
X8565000Y-4980000D02*
X8645000Y-5060000D01*
X8645000Y-4980000D02*
X8565000Y-5060000D01*
X8565000Y-5380000D02*
X8645000Y-5460000D01*
X8645000Y-5380000D02*
X8565000Y-5460000D01*
X8565000Y-5780000D02*
X8645000Y-5860000D01*
X8645000Y-5780000D02*
X8565000Y-5860000D01*
X8565000Y-6180000D02*
X8645000Y-6260000D01*
X8645000Y-6180000D02*
X8565000Y-6260000D01*
X8570000Y-3130000D02*
X8650000Y-3210000D01*
X8650000Y-3130000D02*
X8570000Y-3210000D01*
X8570000Y-3530000D02*
X8650000Y-3610000D01*
X8650000Y-3530000D02*
X8570000Y-3610000D01*
X8570000Y-3930000D02*
X8650000Y-4010000D01*
X8650000Y-3930000D02*
X8570000Y-4010000D01*
X8570000Y-4330000D02*
X8650000Y-4410000D01*
X8650000Y-4330000D02*
X8570000Y-4410000D01*
X8650000Y-6795000D02*
X8730000Y-6875000D01*
X8730000Y-6795000D02*
X8650000Y-6875000D01*
X8650000Y-7195000D02*
X8730000Y-7275000D01*
X8730000Y-7195000D02*
X8650000Y-7275000D01*
X8650000Y-7595000D02*
X8730000Y-7675000D01*
X8730000Y-7595000D02*
X8650000Y-7675000D01*
X8650000Y-7995000D02*
X8730000Y-8075000D01*
X8730000Y-7995000D02*
X8650000Y-8075000D01*
X9389000Y-4441000D02*
X9469000Y-4521000D01*
X9469000Y-4441000D02*
X9389000Y-4521000D01*
X9389000Y-4695000D02*
X9469000Y-4775000D01*
X9469000Y-4695000D02*
X9389000Y-4775000D01*
X9389000Y-4949000D02*
X9469000Y-5029000D01*
X9469000Y-4949000D02*
X9389000Y-5029000D01*
X9389000Y-5203000D02*
X9469000Y-5283000D01*
X9469000Y-5203000D02*
X9389000Y-5283000D01*
X9389000Y-5457000D02*
X9469000Y-5537000D01*
X9469000Y-5457000D02*
X9389000Y-5537000D01*
X9389000Y-5711000D02*
X9469000Y-5791000D01*
X9469000Y-5711000D02*
X9389000Y-5791000D01*
X9389000Y-5965000D02*
X9469000Y-6045000D01*
X9469000Y-5965000D02*
X9389000Y-6045000D01*
X9391000Y-7077000D02*
X9471000Y-7157000D01*
X9471000Y-7077000D02*
X9391000Y-7157000D01*
X9391000Y-7331000D02*
X9471000Y-7411000D01*
X9471000Y-7331000D02*
X9391000Y-7411000D01*
X9391000Y-7585000D02*
X9471000Y-7665000D01*
X9471000Y-7585000D02*
X9391000Y-7665000D01*
X9391000Y-7839000D02*
X9471000Y-7919000D01*
X9471000Y-7839000D02*
X9391000Y-7919000D01*
X9391000Y-8093000D02*
X9471000Y-8173000D01*
X9471000Y-8093000D02*
X9391000Y-8173000D01*
X9391000Y-8347000D02*
X9471000Y-8427000D01*
X9471000Y-8347000D02*
X9391000Y-8427000D01*
X9391000Y-8601000D02*
X9471000Y-8681000D01*
X9471000Y-8601000D02*
X9391000Y-8681000D01*
X9395000Y-13430000D02*
X9475000Y-13510000D01*
X9475000Y-13430000D02*
X9395000Y-13510000D01*
X9401000Y-11264000D02*
X9481000Y-11344000D01*
X9481000Y-11264000D02*
X9401000Y-11344000D01*
X9401000Y-11518000D02*
X9481000Y-11598000D01*
X9481000Y-11518000D02*
X9401000Y-11598000D01*
X9401000Y-11772000D02*
X9481000Y-11852000D01*
X9481000Y-11772000D02*
X9401000Y-11852000D01*
X9401000Y-12026000D02*
X9481000Y-12106000D01*
X9481000Y-12026000D02*
X9401000Y-12106000D01*
X9401000Y-12280000D02*
X9481000Y-12360000D01*
X9481000Y-12280000D02*
X9401000Y-12360000D01*
X9401000Y-12534000D02*
X9481000Y-12614000D01*
X9481000Y-12534000D02*
X9401000Y-12614000D01*
X9401000Y-12788000D02*
X9481000Y-12868000D01*
X9481000Y-12788000D02*
X9401000Y-12868000D01*
X9402000Y-9214000D02*
X9482000Y-9294000D01*
X9482000Y-9214000D02*
X9402000Y-9294000D01*
X9402000Y-9468000D02*
X9482000Y-9548000D01*
X9482000Y-9468000D02*
X9402000Y-9548000D01*
X9402000Y-9722000D02*
X9482000Y-9802000D01*
X9482000Y-9722000D02*
X9402000Y-9802000D01*
X9402000Y-9976000D02*
X9482000Y-10056000D01*
X9482000Y-9976000D02*
X9402000Y-10056000D01*
X9402000Y-10230000D02*
X9482000Y-10310000D01*
X9482000Y-10230000D02*
X9402000Y-10310000D01*
X9402000Y-10484000D02*
X9482000Y-10564000D01*
X9482000Y-10484000D02*
X9402000Y-10564000D01*
X9402000Y-10738000D02*
X9482000Y-10818000D01*
X9482000Y-10738000D02*
X9402000Y-10818000D01*
X9415000Y-3515000D02*
X9495000Y-3595000D01*
X9495000Y-3515000D02*
X9415000Y-3595000D01*
X10151000Y-4441000D02*
X10231000Y-4521000D01*
X10231000Y-4441000D02*
X10151000Y-4521000D01*
X10151000Y-4695000D02*
X10231000Y-4775000D01*
X10231000Y-4695000D02*
X10151000Y-4775000D01*
X10151000Y-4949000D02*
X10231000Y-5029000D01*
X10231000Y-4949000D02*
X10151000Y-5029000D01*
X10151000Y-5203000D02*
X10231000Y-5283000D01*
X10231000Y-5203000D02*
X10151000Y-5283000D01*
X10151000Y-5457000D02*
X10231000Y-5537000D01*
X10231000Y-5457000D02*
X10151000Y-5537000D01*
X10151000Y-5711000D02*
X10231000Y-5791000D01*
X10231000Y-5711000D02*
X10151000Y-5791000D01*
X10151000Y-5965000D02*
X10231000Y-6045000D01*
X10231000Y-5965000D02*
X10151000Y-6045000D01*
X10153000Y-7077000D02*
X10233000Y-7157000D01*
X10233000Y-7077000D02*
X10153000Y-7157000D01*
X10153000Y-7331000D02*
X10233000Y-7411000D01*
X10233000Y-7331000D02*
X10153000Y-7411000D01*
X10153000Y-7585000D02*
X10233000Y-7665000D01*
X10233000Y-7585000D02*
X10153000Y-7665000D01*
X10153000Y-7839000D02*
X10233000Y-7919000D01*
X10233000Y-7839000D02*
X10153000Y-7919000D01*
X10153000Y-8093000D02*
X10233000Y-8173000D01*
X10233000Y-8093000D02*
X10153000Y-8173000D01*
X10153000Y-8347000D02*
X10233000Y-8427000D01*
X10233000Y-8347000D02*
X10153000Y-8427000D01*
X10153000Y-8601000D02*
X10233000Y-8681000D01*
X10233000Y-8601000D02*
X10153000Y-8681000D01*
X10155000Y-3515000D02*
X10235000Y-3595000D01*
X10235000Y-3515000D02*
X10155000Y-3595000D01*
X10163000Y-11264000D02*
X10243000Y-11344000D01*
X10243000Y-11264000D02*
X10163000Y-11344000D01*
X10163000Y-11518000D02*
X10243000Y-11598000D01*
X10243000Y-11518000D02*
X10163000Y-11598000D01*
X10163000Y-11772000D02*
X10243000Y-11852000D01*
X10243000Y-11772000D02*
X10163000Y-11852000D01*
X10163000Y-12026000D02*
X10243000Y-12106000D01*
X10243000Y-12026000D02*
X10163000Y-12106000D01*
X10163000Y-12280000D02*
X10243000Y-12360000D01*
X10243000Y-12280000D02*
X10163000Y-12360000D01*
X10163000Y-12534000D02*
X10243000Y-12614000D01*
X10243000Y-12534000D02*
X10163000Y-12614000D01*
X10163000Y-12788000D02*
X10243000Y-12868000D01*
X10243000Y-12788000D02*
X10163000Y-12868000D01*
X10164000Y-9214000D02*
X10244000Y-9294000D01*
X10244000Y-9214000D02*
X10164000Y-9294000D01*
X10164000Y-9468000D02*
X10244000Y-9548000D01*
X10244000Y-9468000D02*
X10164000Y-9548000D01*
X10164000Y-9722000D02*
X10244000Y-9802000D01*
X10244000Y-9722000D02*
X10164000Y-9802000D01*
X10164000Y-9976000D02*
X10244000Y-10056000D01*
X10244000Y-9976000D02*
X10164000Y-10056000D01*
X10164000Y-10230000D02*
X10244000Y-10310000D01*
X10244000Y-10230000D02*
X10164000Y-10310000D01*
X10164000Y-10484000D02*
X10244000Y-10564000D01*
X10244000Y-10484000D02*
X10164000Y-10564000D01*
X10164000Y-10738000D02*
X10244000Y-10818000D01*
X10244000Y-10738000D02*
X10164000Y-10818000D01*
X10175000Y-13432000D02*
X10255000Y-13512000D01*
X10255000Y-13432000D02*
X10175000Y-13512000D01*
X10410000Y-9220000D02*
X10490000Y-9300000D01*
X10490000Y-9220000D02*
X10410000Y-9300000D01*
X10414745Y-7090000D02*
X10494745Y-7170000D01*
X10494745Y-7090000D02*
X10414745Y-7170000D01*
X10415000Y-4440000D02*
X10495000Y-4520000D01*
X10495000Y-4440000D02*
X10415000Y-4520000D01*
X10416000Y-2996000D02*
X10496000Y-3076000D01*
X10496000Y-2996000D02*
X10416000Y-3076000D01*
X10664745Y-7090000D02*
X10744745Y-7170000D01*
X10744745Y-7090000D02*
X10664745Y-7170000D01*
X10670000Y-9220000D02*
X10750000Y-9300000D01*
X10750000Y-9220000D02*
X10670000Y-9300000D01*
X10670000Y-11265000D02*
X10750000Y-11345000D01*
X10750000Y-11265000D02*
X10670000Y-11345000D01*
X10680000Y-4440000D02*
X10760000Y-4520000D01*
X10760000Y-4440000D02*
X10680000Y-4520000D01*
X10975000Y-10840000D02*
X11055000Y-10920000D01*
X11055000Y-10840000D02*
X10975000Y-10920000D01*
X11120000Y-13690000D02*
X11200000Y-13770000D01*
X11200000Y-13690000D02*
X11120000Y-13770000D01*
X11285000Y-5710000D02*
X11365000Y-5790000D01*
X11365000Y-5710000D02*
X11285000Y-5790000D01*
X11285000Y-6060000D02*
X11365000Y-6140000D01*
X11365000Y-6060000D02*
X11285000Y-6140000D01*
X11285000Y-6360000D02*
X11365000Y-6440000D01*
X11365000Y-6360000D02*
X11285000Y-6440000D01*
X11285000Y-6710000D02*
X11365000Y-6790000D01*
X11365000Y-6710000D02*
X11285000Y-6790000D01*
X11320000Y-9575000D02*
X11400000Y-9655000D01*
X11400000Y-9575000D02*
X11320000Y-9655000D01*
X11320000Y-9830000D02*
X11400000Y-9910000D01*
X11400000Y-9830000D02*
X11320000Y-9910000D01*
X11320000Y-10085000D02*
X11400000Y-10165000D01*
X11400000Y-10085000D02*
X11320000Y-10165000D01*
X11320000Y-10340000D02*
X11400000Y-10420000D01*
X11400000Y-10340000D02*
X11320000Y-10420000D01*
X11574000Y-4333000D02*
X11654000Y-4413000D01*
X11654000Y-4333000D02*
X11574000Y-4413000D01*
X11580000Y-3340000D02*
X11660000Y-3420000D01*
X11660000Y-3340000D02*
X11580000Y-3420000D01*
X11730000Y-9575000D02*
X11810000Y-9655000D01*
X11810000Y-9575000D02*
X11730000Y-9655000D01*
X11730000Y-9829000D02*
X11810000Y-9909000D01*
X11810000Y-9829000D02*
X11730000Y-9909000D01*
X11730000Y-10083000D02*
X11810000Y-10163000D01*
X11810000Y-10083000D02*
X11730000Y-10163000D01*
X11730000Y-10337000D02*
X11810000Y-10417000D01*
X11810000Y-10337000D02*
X11730000Y-10417000D01*
X11730000Y-10591000D02*
X11810000Y-10671000D01*
X11810000Y-10591000D02*
X11730000Y-10671000D01*
X11730000Y-10845000D02*
X11810000Y-10925000D01*
X11810000Y-10845000D02*
X11730000Y-10925000D01*
X11730000Y-11099000D02*
X11810000Y-11179000D01*
X11810000Y-11099000D02*
X11730000Y-11179000D01*
X11730000Y-11353000D02*
X11810000Y-11433000D01*
X11810000Y-11353000D02*
X11730000Y-11433000D01*
X11738000Y-13106000D02*
X11818000Y-13186000D01*
X11818000Y-13106000D02*
X11738000Y-13186000D01*
X11744255Y-11713398D02*
X11824255Y-11793398D01*
X11824255Y-11713398D02*
X11744255Y-11793398D01*
X11745000Y-13690000D02*
X11825000Y-13770000D01*
X11825000Y-13690000D02*
X11745000Y-13770000D01*
X11768044Y-5278244D02*
X11848044Y-5358244D01*
X11848044Y-5278244D02*
X11768044Y-5358244D01*
X11937000Y-3329000D02*
X12017000Y-3409000D01*
X12017000Y-3329000D02*
X11937000Y-3409000D01*
X11937000Y-3583000D02*
X12017000Y-3663000D01*
X12017000Y-3583000D02*
X11937000Y-3663000D01*
X11937000Y-3837000D02*
X12017000Y-3917000D01*
X12017000Y-3837000D02*
X11937000Y-3917000D01*
X11937000Y-4091000D02*
X12017000Y-4171000D01*
X12017000Y-4091000D02*
X11937000Y-4171000D01*
X11937000Y-4345000D02*
X12017000Y-4425000D01*
X12017000Y-4345000D02*
X11937000Y-4425000D01*
X11937000Y-4599000D02*
X12017000Y-4679000D01*
X12017000Y-4599000D02*
X11937000Y-4679000D01*
X11937000Y-4853000D02*
X12017000Y-4933000D01*
X12017000Y-4853000D02*
X11937000Y-4933000D01*
X12380000Y-13685000D02*
X12460000Y-13765000D01*
X12460000Y-13685000D02*
X12380000Y-13765000D01*
X12492000Y-9575000D02*
X12572000Y-9655000D01*
X12572000Y-9575000D02*
X12492000Y-9655000D01*
X12492000Y-9829000D02*
X12572000Y-9909000D01*
X12572000Y-9829000D02*
X12492000Y-9909000D01*
X12492000Y-10083000D02*
X12572000Y-10163000D01*
X12572000Y-10083000D02*
X12492000Y-10163000D01*
X12492000Y-10337000D02*
X12572000Y-10417000D01*
X12572000Y-10337000D02*
X12492000Y-10417000D01*
X12492000Y-10591000D02*
X12572000Y-10671000D01*
X12572000Y-10591000D02*
X12492000Y-10671000D01*
X12492000Y-10845000D02*
X12572000Y-10925000D01*
X12572000Y-10845000D02*
X12492000Y-10925000D01*
X12492000Y-11099000D02*
X12572000Y-11179000D01*
X12572000Y-11099000D02*
X12492000Y-11179000D01*
X12492000Y-11353000D02*
X12572000Y-11433000D01*
X12572000Y-11353000D02*
X12492000Y-11433000D01*
X12699000Y-3329000D02*
X12779000Y-3409000D01*
X12779000Y-3329000D02*
X12699000Y-3409000D01*
X12699000Y-3583000D02*
X12779000Y-3663000D01*
X12779000Y-3583000D02*
X12699000Y-3663000D01*
X12699000Y-3837000D02*
X12779000Y-3917000D01*
X12779000Y-3837000D02*
X12699000Y-3917000D01*
X12699000Y-4091000D02*
X12779000Y-4171000D01*
X12779000Y-4091000D02*
X12699000Y-4171000D01*
X12699000Y-4345000D02*
X12779000Y-4425000D01*
X12779000Y-4345000D02*
X12699000Y-4425000D01*
X12699000Y-4599000D02*
X12779000Y-4679000D01*
X12779000Y-4599000D02*
X12699000Y-4679000D01*
X12699000Y-4853000D02*
X12779000Y-4933000D01*
X12779000Y-4853000D02*
X12699000Y-4933000D01*
X13050000Y-4610000D02*
X13130000Y-4690000D01*
X13130000Y-4610000D02*
X13050000Y-4690000D01*
X13050000Y-4860000D02*
X13130000Y-4940000D01*
X13130000Y-4860000D02*
X13050000Y-4940000D01*
X13060000Y-3600000D02*
X13140000Y-3680000D01*
X13140000Y-3600000D02*
X13060000Y-3680000D01*
X13110000Y-9570000D02*
X13190000Y-9650000D01*
X13190000Y-9570000D02*
X13110000Y-9650000D01*
X13110000Y-9825000D02*
X13190000Y-9905000D01*
X13190000Y-9825000D02*
X13110000Y-9905000D01*
X13110000Y-10080000D02*
X13190000Y-10160000D01*
X13190000Y-10080000D02*
X13110000Y-10160000D01*
X13110000Y-10330000D02*
X13190000Y-10410000D01*
X13190000Y-10330000D02*
X13110000Y-10410000D01*
X13125000Y-7015000D02*
X13205000Y-7095000D01*
X13205000Y-7015000D02*
X13125000Y-7095000D01*
X13125000Y-7360000D02*
X13205000Y-7440000D01*
X13205000Y-7360000D02*
X13125000Y-7440000D01*
X13125000Y-7660000D02*
X13205000Y-7740000D01*
X13205000Y-7660000D02*
X13125000Y-7740000D01*
X13125000Y-7965000D02*
X13205000Y-8045000D01*
X13205000Y-7965000D02*
X13125000Y-8045000D01*
X13519000Y-9571000D02*
X13599000Y-9651000D01*
X13599000Y-9571000D02*
X13519000Y-9651000D01*
X13519000Y-9825000D02*
X13599000Y-9905000D01*
X13599000Y-9825000D02*
X13519000Y-9905000D01*
X13519000Y-10079000D02*
X13599000Y-10159000D01*
X13599000Y-10079000D02*
X13519000Y-10159000D01*
X13519000Y-10333000D02*
X13599000Y-10413000D01*
X13599000Y-10333000D02*
X13519000Y-10413000D01*
X13519000Y-10587000D02*
X13599000Y-10667000D01*
X13599000Y-10587000D02*
X13519000Y-10667000D01*
X13519000Y-10841000D02*
X13599000Y-10921000D01*
X13599000Y-10841000D02*
X13519000Y-10921000D01*
X13519000Y-11095000D02*
X13599000Y-11175000D01*
X13599000Y-11095000D02*
X13519000Y-11175000D01*
X13519000Y-11349000D02*
X13599000Y-11429000D01*
X13599000Y-11349000D02*
X13519000Y-11429000D01*
X13520000Y-3579000D02*
X13600000Y-3659000D01*
X13600000Y-3579000D02*
X13520000Y-3659000D01*
X13520000Y-3834000D02*
X13600000Y-3914000D01*
X13600000Y-3834000D02*
X13520000Y-3914000D01*
X13520000Y-4089000D02*
X13600000Y-4169000D01*
X13600000Y-4089000D02*
X13520000Y-4169000D01*
X13520000Y-4339000D02*
X13600000Y-4419000D01*
X13600000Y-4339000D02*
X13520000Y-4419000D01*
X13520000Y-3080000D02*
X13600000Y-3160000D01*
X13600000Y-3080000D02*
X13520000Y-3160000D01*
X13520000Y-4610000D02*
X13600000Y-4690000D01*
X13600000Y-4610000D02*
X13520000Y-4690000D01*
X13679000Y-13095000D02*
X13759000Y-13175000D01*
X13759000Y-13095000D02*
X13679000Y-13175000D01*
X13865000Y-3074000D02*
X13945000Y-3154000D01*
X13945000Y-3074000D02*
X13865000Y-3154000D01*
X13865000Y-3328000D02*
X13945000Y-3408000D01*
X13945000Y-3328000D02*
X13865000Y-3408000D01*
X13865000Y-3582000D02*
X13945000Y-3662000D01*
X13945000Y-3582000D02*
X13865000Y-3662000D01*
X13865000Y-3836000D02*
X13945000Y-3916000D01*
X13945000Y-3836000D02*
X13865000Y-3916000D01*
X13865000Y-4090000D02*
X13945000Y-4170000D01*
X13945000Y-4090000D02*
X13865000Y-4170000D01*
X13865000Y-4344000D02*
X13945000Y-4424000D01*
X13945000Y-4344000D02*
X13865000Y-4424000D01*
X13865000Y-4598000D02*
X13945000Y-4678000D01*
X13945000Y-4598000D02*
X13865000Y-4678000D01*
X13865000Y-4852000D02*
X13945000Y-4932000D01*
X13945000Y-4852000D02*
X13865000Y-4932000D01*
X14281000Y-9571000D02*
X14361000Y-9651000D01*
X14361000Y-9571000D02*
X14281000Y-9651000D01*
X14281000Y-9825000D02*
X14361000Y-9905000D01*
X14361000Y-9825000D02*
X14281000Y-9905000D01*
X14281000Y-10079000D02*
X14361000Y-10159000D01*
X14361000Y-10079000D02*
X14281000Y-10159000D01*
X14281000Y-10333000D02*
X14361000Y-10413000D01*
X14361000Y-10333000D02*
X14281000Y-10413000D01*
X14281000Y-10587000D02*
X14361000Y-10667000D01*
X14361000Y-10587000D02*
X14281000Y-10667000D01*
X14281000Y-10841000D02*
X14361000Y-10921000D01*
X14361000Y-10841000D02*
X14281000Y-10921000D01*
X14281000Y-11095000D02*
X14361000Y-11175000D01*
X14361000Y-11095000D02*
X14281000Y-11175000D01*
X14281000Y-11349000D02*
X14361000Y-11429000D01*
X14361000Y-11349000D02*
X14281000Y-11429000D01*
X14452000Y-13119000D02*
X14532000Y-13199000D01*
X14532000Y-13119000D02*
X14452000Y-13199000D01*
X14627000Y-3074000D02*
X14707000Y-3154000D01*
X14707000Y-3074000D02*
X14627000Y-3154000D01*
X14627000Y-3328000D02*
X14707000Y-3408000D01*
X14707000Y-3328000D02*
X14627000Y-3408000D01*
X14627000Y-3582000D02*
X14707000Y-3662000D01*
X14707000Y-3582000D02*
X14627000Y-3662000D01*
X14627000Y-3836000D02*
X14707000Y-3916000D01*
X14707000Y-3836000D02*
X14627000Y-3916000D01*
X14627000Y-4090000D02*
X14707000Y-4170000D01*
X14707000Y-4090000D02*
X14627000Y-4170000D01*
X14627000Y-4344000D02*
X14707000Y-4424000D01*
X14707000Y-4344000D02*
X14627000Y-4424000D01*
X14627000Y-4598000D02*
X14707000Y-4678000D01*
X14707000Y-4598000D02*
X14627000Y-4678000D01*
X14627000Y-4852000D02*
X14707000Y-4932000D01*
X14707000Y-4852000D02*
X14627000Y-4932000D01*
X14777000Y-10717000D02*
X14857000Y-10797000D01*
X14857000Y-10717000D02*
X14777000Y-10797000D01*
X14778000Y-12623000D02*
X14858000Y-12703000D01*
X14858000Y-12623000D02*
X14778000Y-12703000D01*
X14825000Y-9575000D02*
X14905000Y-9655000D01*
X14905000Y-9575000D02*
X14825000Y-9655000D01*
X14826000Y-9320000D02*
X14906000Y-9400000D01*
X14906000Y-9320000D02*
X14826000Y-9400000D01*
X14940000Y-3584000D02*
X15020000Y-3664000D01*
X15020000Y-3584000D02*
X14940000Y-3664000D01*
X14940000Y-3834000D02*
X15020000Y-3914000D01*
X15020000Y-3834000D02*
X14940000Y-3914000D01*
X14940000Y-4094000D02*
X15020000Y-4174000D01*
X15020000Y-4094000D02*
X14940000Y-4174000D01*
X14940000Y-4344000D02*
X15020000Y-4424000D01*
X15020000Y-4344000D02*
X14940000Y-4424000D01*
X14941000Y-4856000D02*
X15021000Y-4936000D01*
X15021000Y-4856000D02*
X14941000Y-4936000D01*
X14947000Y-3332000D02*
X15027000Y-3412000D01*
X15027000Y-3332000D02*
X14947000Y-3412000D01*
X15080000Y-9320000D02*
X15160000Y-9400000D01*
X15160000Y-9320000D02*
X15080000Y-9400000D01*
X15086000Y-8265000D02*
X15166000Y-8345000D01*
X15166000Y-8265000D02*
X15086000Y-8345000D01*
X15337000Y-12372000D02*
X15417000Y-12452000D01*
X15417000Y-12372000D02*
X15337000Y-12452000D01*
X15338000Y-11612000D02*
X15418000Y-11692000D01*
X15418000Y-11612000D02*
X15338000Y-11692000D01*
X15338000Y-11862000D02*
X15418000Y-11942000D01*
X15418000Y-11862000D02*
X15338000Y-11942000D01*
X15338000Y-12116000D02*
X15418000Y-12196000D01*
X15418000Y-12116000D02*
X15338000Y-12196000D01*
X15340000Y-10592000D02*
X15420000Y-10672000D01*
X15420000Y-10592000D02*
X15340000Y-10672000D01*
X15340000Y-11100000D02*
X15420000Y-11180000D01*
X15420000Y-11100000D02*
X15340000Y-11180000D01*
X15340000Y-11352000D02*
X15420000Y-11432000D01*
X15420000Y-11352000D02*
X15340000Y-11432000D01*
X15340000Y-12633000D02*
X15420000Y-12713000D01*
X15420000Y-12633000D02*
X15340000Y-12713000D01*
X15341000Y-10335000D02*
X15421000Y-10415000D01*
X15421000Y-10335000D02*
X15341000Y-10415000D01*
X15341000Y-10843000D02*
X15421000Y-10923000D01*
X15421000Y-10843000D02*
X15341000Y-10923000D01*
X15344000Y-7342000D02*
X15424000Y-7422000D01*
X15424000Y-7342000D02*
X15344000Y-7422000D01*
X15344000Y-10082000D02*
X15424000Y-10162000D01*
X15424000Y-10082000D02*
X15344000Y-10162000D01*
X15345000Y-7013000D02*
X15425000Y-7093000D01*
X15425000Y-7013000D02*
X15345000Y-7093000D01*
X15345000Y-9821000D02*
X15425000Y-9901000D01*
X15425000Y-9821000D02*
X15345000Y-9901000D01*
X15346000Y-5715000D02*
X15426000Y-5795000D01*
X15426000Y-5715000D02*
X15346000Y-5795000D01*
X15346000Y-6361000D02*
X15426000Y-6441000D01*
X15426000Y-6361000D02*
X15346000Y-6441000D01*
X15347745Y-6017898D02*
X15427745Y-6097898D01*
X15427745Y-6017898D02*
X15347745Y-6097898D01*
X15349000Y-6686000D02*
X15429000Y-6766000D01*
X15429000Y-6686000D02*
X15349000Y-6766000D01*
X15349000Y-7666000D02*
X15429000Y-7746000D01*
X15429000Y-7666000D02*
X15349000Y-7746000D01*
X15349000Y-7960000D02*
X15429000Y-8040000D01*
X15429000Y-7960000D02*
X15349000Y-8040000D01*
X15367000Y-3090000D02*
X15447000Y-3170000D01*
X15447000Y-3090000D02*
X15367000Y-3170000D01*
X15370000Y-3589000D02*
X15450000Y-3669000D01*
X15450000Y-3589000D02*
X15370000Y-3669000D01*
X15370000Y-3849000D02*
X15450000Y-3929000D01*
X15450000Y-3849000D02*
X15370000Y-3929000D01*
X15370000Y-4099000D02*
X15450000Y-4179000D01*
X15450000Y-4099000D02*
X15370000Y-4179000D01*
X15370000Y-4349000D02*
X15450000Y-4429000D01*
X15450000Y-4349000D02*
X15370000Y-4429000D01*
X15370000Y-4600000D02*
X15450000Y-4680000D01*
X15450000Y-4600000D02*
X15370000Y-4680000D01*
X15606000Y-8460000D02*
X15686000Y-8540000D01*
X15686000Y-8460000D02*
X15606000Y-8540000D01*
X15689000Y-3080000D02*
X15769000Y-3160000D01*
X15769000Y-3080000D02*
X15689000Y-3160000D01*
X15689000Y-3334000D02*
X15769000Y-3414000D01*
X15769000Y-3334000D02*
X15689000Y-3414000D01*
X15689000Y-3588000D02*
X15769000Y-3668000D01*
X15769000Y-3588000D02*
X15689000Y-3668000D01*
X15689000Y-3842000D02*
X15769000Y-3922000D01*
X15769000Y-3842000D02*
X15689000Y-3922000D01*
X15689000Y-4096000D02*
X15769000Y-4176000D01*
X15769000Y-4096000D02*
X15689000Y-4176000D01*
X15689000Y-4350000D02*
X15769000Y-4430000D01*
X15769000Y-4350000D02*
X15689000Y-4430000D01*
X15689000Y-4604000D02*
X15769000Y-4684000D01*
X15769000Y-4604000D02*
X15689000Y-4684000D01*
X15689000Y-4858000D02*
X15769000Y-4938000D01*
X15769000Y-4858000D02*
X15689000Y-4938000D01*
X15850000Y-8817000D02*
X15930000Y-8897000D01*
X15930000Y-8817000D02*
X15850000Y-8897000D01*
X15850000Y-9071000D02*
X15930000Y-9151000D01*
X15930000Y-9071000D02*
X15850000Y-9151000D01*
X15850000Y-9325000D02*
X15930000Y-9405000D01*
X15930000Y-9325000D02*
X15850000Y-9405000D01*
X15850000Y-9579000D02*
X15930000Y-9659000D01*
X15930000Y-9579000D02*
X15850000Y-9659000D01*
X15850000Y-9833000D02*
X15930000Y-9913000D01*
X15930000Y-9833000D02*
X15850000Y-9913000D01*
X15850000Y-10087000D02*
X15930000Y-10167000D01*
X15930000Y-10087000D02*
X15850000Y-10167000D01*
X15850000Y-10341000D02*
X15930000Y-10421000D01*
X15930000Y-10341000D02*
X15850000Y-10421000D01*
X15850000Y-10595000D02*
X15930000Y-10675000D01*
X15930000Y-10595000D02*
X15850000Y-10675000D01*
X15850000Y-10849000D02*
X15930000Y-10929000D01*
X15930000Y-10849000D02*
X15850000Y-10929000D01*
X15850000Y-11103000D02*
X15930000Y-11183000D01*
X15930000Y-11103000D02*
X15850000Y-11183000D01*
X15850000Y-11357000D02*
X15930000Y-11437000D01*
X15930000Y-11357000D02*
X15850000Y-11437000D01*
X15850000Y-11611000D02*
X15930000Y-11691000D01*
X15930000Y-11611000D02*
X15850000Y-11691000D01*
X15850000Y-11865000D02*
X15930000Y-11945000D01*
X15930000Y-11865000D02*
X15850000Y-11945000D01*
X15850000Y-12119000D02*
X15930000Y-12199000D01*
X15930000Y-12119000D02*
X15850000Y-12199000D01*
X15850000Y-12373000D02*
X15930000Y-12453000D01*
X15930000Y-12373000D02*
X15850000Y-12453000D01*
X15850000Y-12627000D02*
X15930000Y-12707000D01*
X15930000Y-12627000D02*
X15850000Y-12707000D01*
X15850000Y-12881000D02*
X15930000Y-12961000D01*
X15930000Y-12881000D02*
X15850000Y-12961000D01*
X15850000Y-13135000D02*
X15930000Y-13215000D01*
X15930000Y-13135000D02*
X15850000Y-13215000D01*
X15850000Y-13389000D02*
X15930000Y-13469000D01*
X15930000Y-13389000D02*
X15850000Y-13469000D01*
X15850000Y-13643000D02*
X15930000Y-13723000D01*
X15930000Y-13643000D02*
X15850000Y-13723000D01*
X16451000Y-3080000D02*
X16531000Y-3160000D01*
X16531000Y-3080000D02*
X16451000Y-3160000D01*
X16451000Y-3334000D02*
X16531000Y-3414000D01*
X16531000Y-3334000D02*
X16451000Y-3414000D01*
X16451000Y-3588000D02*
X16531000Y-3668000D01*
X16531000Y-3588000D02*
X16451000Y-3668000D01*
X16451000Y-3842000D02*
X16531000Y-3922000D01*
X16531000Y-3842000D02*
X16451000Y-3922000D01*
X16451000Y-4096000D02*
X16531000Y-4176000D01*
X16531000Y-4096000D02*
X16451000Y-4176000D01*
X16451000Y-4350000D02*
X16531000Y-4430000D01*
X16531000Y-4350000D02*
X16451000Y-4430000D01*
X16451000Y-4604000D02*
X16531000Y-4684000D01*
X16531000Y-4604000D02*
X16451000Y-4684000D01*
X16451000Y-4858000D02*
X16531000Y-4938000D01*
X16531000Y-4858000D02*
X16451000Y-4938000D01*
X16760000Y-3584000D02*
X16840000Y-3664000D01*
X16840000Y-3584000D02*
X16760000Y-3664000D01*
X16760000Y-3834000D02*
X16840000Y-3914000D01*
X16840000Y-3834000D02*
X16760000Y-3914000D01*
X16760000Y-4094000D02*
X16840000Y-4174000D01*
X16840000Y-4094000D02*
X16760000Y-4174000D01*
X16760000Y-4344000D02*
X16840000Y-4424000D01*
X16840000Y-4344000D02*
X16760000Y-4424000D01*
X16760000Y-4865000D02*
X16840000Y-4945000D01*
X16840000Y-4865000D02*
X16760000Y-4945000D01*
X16770000Y-3340000D02*
X16850000Y-3420000D01*
X16850000Y-3340000D02*
X16770000Y-3420000D01*
X17374000Y-8817000D02*
X17454000Y-8897000D01*
X17454000Y-8817000D02*
X17374000Y-8897000D01*
X17374000Y-9071000D02*
X17454000Y-9151000D01*
X17454000Y-9071000D02*
X17374000Y-9151000D01*
X17374000Y-9325000D02*
X17454000Y-9405000D01*
X17454000Y-9325000D02*
X17374000Y-9405000D01*
X17374000Y-9579000D02*
X17454000Y-9659000D01*
X17454000Y-9579000D02*
X17374000Y-9659000D01*
X17374000Y-9833000D02*
X17454000Y-9913000D01*
X17454000Y-9833000D02*
X17374000Y-9913000D01*
X17374000Y-10087000D02*
X17454000Y-10167000D01*
X17454000Y-10087000D02*
X17374000Y-10167000D01*
X17374000Y-10341000D02*
X17454000Y-10421000D01*
X17454000Y-10341000D02*
X17374000Y-10421000D01*
X17374000Y-10595000D02*
X17454000Y-10675000D01*
X17454000Y-10595000D02*
X17374000Y-10675000D01*
X17374000Y-10849000D02*
X17454000Y-10929000D01*
X17454000Y-10849000D02*
X17374000Y-10929000D01*
X17374000Y-11103000D02*
X17454000Y-11183000D01*
X17454000Y-11103000D02*
X17374000Y-11183000D01*
X17374000Y-11357000D02*
X17454000Y-11437000D01*
X17454000Y-11357000D02*
X17374000Y-11437000D01*
X17374000Y-11611000D02*
X17454000Y-11691000D01*
X17454000Y-11611000D02*
X17374000Y-11691000D01*
X17374000Y-11865000D02*
X17454000Y-11945000D01*
X17454000Y-11865000D02*
X17374000Y-11945000D01*
X17374000Y-12119000D02*
X17454000Y-12199000D01*
X17454000Y-12119000D02*
X17374000Y-12199000D01*
X17374000Y-12373000D02*
X17454000Y-12453000D01*
X17454000Y-12373000D02*
X17374000Y-12453000D01*
X17374000Y-12627000D02*
X17454000Y-12707000D01*
X17454000Y-12627000D02*
X17374000Y-12707000D01*
X17374000Y-12881000D02*
X17454000Y-12961000D01*
X17454000Y-12881000D02*
X17374000Y-12961000D01*
X17374000Y-13135000D02*
X17454000Y-13215000D01*
X17454000Y-13135000D02*
X17374000Y-13215000D01*
X17374000Y-13389000D02*
X17454000Y-13469000D01*
X17454000Y-13389000D02*
X17374000Y-13469000D01*
X17374000Y-13643000D02*
X17454000Y-13723000D01*
X17454000Y-13643000D02*
X17374000Y-13723000D01*
X17539000Y-4491000D02*
X17619000Y-4571000D01*
X17619000Y-4491000D02*
X17539000Y-4571000D01*
X17539745Y-7128602D02*
X17619745Y-7208602D01*
X17619745Y-7128602D02*
X17539745Y-7208602D01*
X17540000Y-6405000D02*
X17620000Y-6485000D01*
X17620000Y-6405000D02*
X17540000Y-6485000D01*
X17545000Y-5454000D02*
X17625000Y-5534000D01*
X17625000Y-5454000D02*
X17545000Y-5534000D01*
X17639745Y-8445000D02*
X17719745Y-8525000D01*
X17719745Y-8445000D02*
X17639745Y-8525000D01*
X17719000Y-14219000D02*
X17799000Y-14299000D01*
X17799000Y-14219000D02*
X17719000Y-14299000D01*
X17748000Y-12634000D02*
X17828000Y-12714000D01*
X17828000Y-12634000D02*
X17748000Y-12714000D01*
X18030000Y-13643000D02*
X18110000Y-13723000D01*
X18110000Y-13643000D02*
X18030000Y-13723000D01*
X18035000Y-6405000D02*
X18115000Y-6485000D01*
X18115000Y-6405000D02*
X18035000Y-6485000D01*
X18035000Y-14700000D02*
X18115000Y-14780000D01*
X18115000Y-14700000D02*
X18035000Y-14780000D01*
X18037000Y-7129000D02*
X18117000Y-7209000D01*
X18117000Y-7129000D02*
X18037000Y-7209000D01*
X18116000Y-11995000D02*
X18196000Y-12075000D01*
X18196000Y-11995000D02*
X18116000Y-12075000D01*
X18410000Y-13647000D02*
X18490000Y-13727000D01*
X18490000Y-13647000D02*
X18410000Y-13727000D01*
X18415000Y-14695000D02*
X18495000Y-14775000D01*
X18495000Y-14695000D02*
X18415000Y-14775000D01*
X18753000Y-13862000D02*
X18833000Y-13942000D01*
X18833000Y-13862000D02*
X18753000Y-13942000D01*
X18756000Y-13385000D02*
X18836000Y-13465000D01*
X18836000Y-13385000D02*
X18756000Y-13465000D01*
X19208000Y-12828000D02*
X19288000Y-12908000D01*
X19288000Y-12828000D02*
X19208000Y-12908000D01*
X19208000Y-13082000D02*
X19288000Y-13162000D01*
X19288000Y-13082000D02*
X19208000Y-13162000D01*
X19208000Y-13336000D02*
X19288000Y-13416000D01*
X19288000Y-13336000D02*
X19208000Y-13416000D01*
X19208000Y-13590000D02*
X19288000Y-13670000D01*
X19288000Y-13590000D02*
X19208000Y-13670000D01*
X19208000Y-13844000D02*
X19288000Y-13924000D01*
X19288000Y-13844000D02*
X19208000Y-13924000D01*
X19208000Y-14098000D02*
X19288000Y-14178000D01*
X19288000Y-14098000D02*
X19208000Y-14178000D01*
X19208000Y-14352000D02*
X19288000Y-14432000D01*
X19288000Y-14352000D02*
X19208000Y-14432000D01*
X19970000Y-12828000D02*
X20050000Y-12908000D01*
X20050000Y-12828000D02*
X19970000Y-12908000D01*
X19970000Y-13082000D02*
X20050000Y-13162000D01*
X20050000Y-13082000D02*
X19970000Y-13162000D01*
X19970000Y-13336000D02*
X20050000Y-13416000D01*
X20050000Y-13336000D02*
X19970000Y-13416000D01*
X19970000Y-13590000D02*
X20050000Y-13670000D01*
X20050000Y-13590000D02*
X19970000Y-13670000D01*
X19970000Y-13844000D02*
X20050000Y-13924000D01*
X20050000Y-13844000D02*
X19970000Y-13924000D01*
X19970000Y-14098000D02*
X20050000Y-14178000D01*
X20050000Y-14098000D02*
X19970000Y-14178000D01*
X19970000Y-14352000D02*
X20050000Y-14432000D01*
X20050000Y-14352000D02*
X19970000Y-14432000D01*
X20727000Y-12822000D02*
X20807000Y-12902000D01*
X20807000Y-12822000D02*
X20727000Y-12902000D01*
X20727000Y-13076000D02*
X20807000Y-13156000D01*
X20807000Y-13076000D02*
X20727000Y-13156000D01*
X20727000Y-13330000D02*
X20807000Y-13410000D01*
X20807000Y-13330000D02*
X20727000Y-13410000D01*
X20727000Y-13584000D02*
X20807000Y-13664000D01*
X20807000Y-13584000D02*
X20727000Y-13664000D01*
X20727000Y-13838000D02*
X20807000Y-13918000D01*
X20807000Y-13838000D02*
X20727000Y-13918000D01*
X20727000Y-14092000D02*
X20807000Y-14172000D01*
X20807000Y-14092000D02*
X20727000Y-14172000D01*
X20727000Y-14346000D02*
X20807000Y-14426000D01*
X20807000Y-14346000D02*
X20727000Y-14426000D01*
X21250000Y-11070000D02*
X21330000Y-11150000D01*
X21330000Y-11070000D02*
X21250000Y-11150000D01*
X21489000Y-12822000D02*
X21569000Y-12902000D01*
X21569000Y-12822000D02*
X21489000Y-12902000D01*
X21489000Y-13076000D02*
X21569000Y-13156000D01*
X21569000Y-13076000D02*
X21489000Y-13156000D01*
X21489000Y-13330000D02*
X21569000Y-13410000D01*
X21569000Y-13330000D02*
X21489000Y-13410000D01*
X21489000Y-13584000D02*
X21569000Y-13664000D01*
X21569000Y-13584000D02*
X21489000Y-13664000D01*
X21489000Y-13838000D02*
X21569000Y-13918000D01*
X21569000Y-13838000D02*
X21489000Y-13918000D01*
X21489000Y-14092000D02*
X21569000Y-14172000D01*
X21569000Y-14092000D02*
X21489000Y-14172000D01*
X21489000Y-14346000D02*
X21569000Y-14426000D01*
X21569000Y-14346000D02*
X21489000Y-14426000D01*
X21880000Y-14135000D02*
X21960000Y-14215000D01*
X21960000Y-14135000D02*
X21880000Y-14215000D01*
X21882000Y-13407000D02*
X21962000Y-13487000D01*
X21962000Y-13407000D02*
X21882000Y-13487000D01*
X22030000Y-11070000D02*
X22110000Y-11150000D01*
X22110000Y-11070000D02*
X22030000Y-11150000D01*
X22065000Y-14705000D02*
X22145000Y-14785000D01*
X22145000Y-14705000D02*
X22065000Y-14785000D01*
X22073000Y-14136000D02*
X22153000Y-14216000D01*
X22153000Y-14136000D02*
X22073000Y-14216000D01*
X22299500Y-13574000D02*
X22379500Y-13654000D01*
X22379500Y-13574000D02*
X22299500Y-13654000D01*
X22299500Y-13828000D02*
X22379500Y-13908000D01*
X22379500Y-13828000D02*
X22299500Y-13908000D01*
X22299500Y-14082000D02*
X22379500Y-14162000D01*
X22379500Y-14082000D02*
X22299500Y-14162000D01*
X22299500Y-14336000D02*
X22379500Y-14416000D01*
X22379500Y-14336000D02*
X22299500Y-14416000D01*
X22370000Y-12842000D02*
X22450000Y-12922000D01*
X22450000Y-12842000D02*
X22370000Y-12922000D01*
X22569000Y-12355000D02*
X22649000Y-12435000D01*
X22649000Y-12355000D02*
X22569000Y-12435000D01*
X23061500Y-13574000D02*
X23141500Y-13654000D01*
X23141500Y-13574000D02*
X23061500Y-13654000D01*
X23061500Y-13828000D02*
X23141500Y-13908000D01*
X23141500Y-13828000D02*
X23061500Y-13908000D01*
X23061500Y-14082000D02*
X23141500Y-14162000D01*
X23141500Y-14082000D02*
X23061500Y-14162000D01*
X23061500Y-14336000D02*
X23141500Y-14416000D01*
X23141500Y-14336000D02*
X23061500Y-14416000D01*
X23344000Y-14688000D02*
X23424000Y-14768000D01*
X23424000Y-14688000D02*
X23344000Y-14768000D01*
X23346000Y-13835000D02*
X23426000Y-13915000D01*
X23426000Y-13835000D02*
X23346000Y-13915000D01*
X23594000Y-15078000D02*
X23674000Y-15158000D01*
X23674000Y-15078000D02*
X23594000Y-15158000D01*
X23595000Y-14340000D02*
X23675000Y-14420000D01*
X23675000Y-14340000D02*
X23595000Y-14420000D01*
X23808000Y-10616000D02*
X23888000Y-10696000D01*
X23888000Y-10616000D02*
X23808000Y-10696000D01*
X23808000Y-11445000D02*
X23888000Y-11525000D01*
X23888000Y-11445000D02*
X23808000Y-11525000D01*
D11*
X19245000Y-3640000D02*
G75*
G02*
X19045000Y-3640000I-100000J0D01*
G01*
X19045000Y-3640000D02*
G75*
G02*
X19245000Y-3640000I100000J0D01*
G01*
X19245000Y-4760000D02*
G75*
G02*
X19045000Y-4760000I-100000J0D01*
G01*
X19045000Y-4760000D02*
G75*
G02*
X19245000Y-4760000I100000J0D01*
G01*
X19250000Y-5860000D02*
G75*
G02*
X19050000Y-5860000I-100000J0D01*
G01*
X19050000Y-5860000D02*
G75*
G02*
X19250000Y-5860000I100000J0D01*
G01*
X19250000Y-6960000D02*
G75*
G02*
X19050000Y-6960000I-100000J0D01*
G01*
X19050000Y-6960000D02*
G75*
G02*
X19250000Y-6960000I100000J0D01*
G01*
X19270000Y-8380000D02*
G75*
G02*
X19070000Y-8380000I-100000J0D01*
G01*
X19070000Y-8380000D02*
G75*
G02*
X19270000Y-8380000I100000J0D01*
G01*
X19270000Y-9500000D02*
G75*
G02*
X19070000Y-9500000I-100000J0D01*
G01*
X19070000Y-9500000D02*
G75*
G02*
X19270000Y-9500000I100000J0D01*
G01*
X19270000Y-10580000D02*
G75*
G02*
X19070000Y-10580000I-100000J0D01*
G01*
X19070000Y-10580000D02*
G75*
G02*
X19270000Y-10580000I100000J0D01*
G01*
X19270000Y-11660000D02*
G75*
G02*
X19070000Y-11660000I-100000J0D01*
G01*
X19070000Y-11660000D02*
G75*
G02*
X19270000Y-11660000I100000J0D01*
G01*
X19715000Y-3640000D02*
G75*
G02*
X19515000Y-3640000I-100000J0D01*
G01*
X19515000Y-3640000D02*
G75*
G02*
X19715000Y-3640000I100000J0D01*
G01*
X19715000Y-4760000D02*
G75*
G02*
X19515000Y-4760000I-100000J0D01*
G01*
X19515000Y-4760000D02*
G75*
G02*
X19715000Y-4760000I100000J0D01*
G01*
X19720000Y-5860000D02*
G75*
G02*
X19520000Y-5860000I-100000J0D01*
G01*
X19520000Y-5860000D02*
G75*
G02*
X19720000Y-5860000I100000J0D01*
G01*
X19720000Y-6960000D02*
G75*
G02*
X19520000Y-6960000I-100000J0D01*
G01*
X19520000Y-6960000D02*
G75*
G02*
X19720000Y-6960000I100000J0D01*
G01*
X19740000Y-8380000D02*
G75*
G02*
X19540000Y-8380000I-100000J0D01*
G01*
X19540000Y-8380000D02*
G75*
G02*
X19740000Y-8380000I100000J0D01*
G01*
X19740000Y-9500000D02*
G75*
G02*
X19540000Y-9500000I-100000J0D01*
G01*
X19540000Y-9500000D02*
G75*
G02*
X19740000Y-9500000I100000J0D01*
G01*
X19740000Y-10580000D02*
G75*
G02*
X19540000Y-10580000I-100000J0D01*
G01*
X19540000Y-10580000D02*
G75*
G02*
X19740000Y-10580000I100000J0D01*
G01*
X19740000Y-11660000D02*
G75*
G02*
X19540000Y-11660000I-100000J0D01*
G01*
X19540000Y-11660000D02*
G75*
G02*
X19740000Y-11660000I100000J0D01*
G01*
X20185000Y-3640000D02*
G75*
G02*
X19985000Y-3640000I-100000J0D01*
G01*
X19985000Y-3640000D02*
G75*
G02*
X20185000Y-3640000I100000J0D01*
G01*
X20185000Y-4760000D02*
G75*
G02*
X19985000Y-4760000I-100000J0D01*
G01*
X19985000Y-4760000D02*
G75*
G02*
X20185000Y-4760000I100000J0D01*
G01*
X20190000Y-5860000D02*
G75*
G02*
X19990000Y-5860000I-100000J0D01*
G01*
X19990000Y-5860000D02*
G75*
G02*
X20190000Y-5860000I100000J0D01*
G01*
X20190000Y-6960000D02*
G75*
G02*
X19990000Y-6960000I-100000J0D01*
G01*
X19990000Y-6960000D02*
G75*
G02*
X20190000Y-6960000I100000J0D01*
G01*
X20210000Y-8380000D02*
G75*
G02*
X20010000Y-8380000I-100000J0D01*
G01*
X20010000Y-8380000D02*
G75*
G02*
X20210000Y-8380000I100000J0D01*
G01*
X20210000Y-9500000D02*
G75*
G02*
X20010000Y-9500000I-100000J0D01*
G01*
X20010000Y-9500000D02*
G75*
G02*
X20210000Y-9500000I100000J0D01*
G01*
X20210000Y-10580000D02*
G75*
G02*
X20010000Y-10580000I-100000J0D01*
G01*
X20010000Y-10580000D02*
G75*
G02*
X20210000Y-10580000I100000J0D01*
G01*
X20210000Y-11660000D02*
G75*
G02*
X20010000Y-11660000I-100000J0D01*
G01*
X20010000Y-11660000D02*
G75*
G02*
X20210000Y-11660000I100000J0D01*
G01*
X22219000Y-11655000D02*
G75*
G02*
X22019000Y-11655000I-100000J0D01*
G01*
X22019000Y-11655000D02*
G75*
G02*
X22219000Y-11655000I100000J0D01*
G01*
X22222000Y-8395000D02*
G75*
G02*
X22022000Y-8395000I-100000J0D01*
G01*
X22022000Y-8395000D02*
G75*
G02*
X22222000Y-8395000I100000J0D01*
G01*
X22230000Y-4754000D02*
G75*
G02*
X22030000Y-4754000I-100000J0D01*
G01*
X22030000Y-4754000D02*
G75*
G02*
X22230000Y-4754000I100000J0D01*
G01*
X22232000Y-5799000D02*
G75*
G02*
X22032000Y-5799000I-100000J0D01*
G01*
X22032000Y-5799000D02*
G75*
G02*
X22232000Y-5799000I100000J0D01*
G01*
X22233000Y-9500000D02*
G75*
G02*
X22033000Y-9500000I-100000J0D01*
G01*
X22033000Y-9500000D02*
G75*
G02*
X22233000Y-9500000I100000J0D01*
G01*
X22233000Y-10591000D02*
G75*
G02*
X22033000Y-10591000I-100000J0D01*
G01*
X22033000Y-10591000D02*
G75*
G02*
X22233000Y-10591000I100000J0D01*
G01*
X22234000Y-3641000D02*
G75*
G02*
X22034000Y-3641000I-100000J0D01*
G01*
X22034000Y-3641000D02*
G75*
G02*
X22234000Y-3641000I100000J0D01*
G01*
X22238000Y-6958000D02*
G75*
G02*
X22038000Y-6958000I-100000J0D01*
G01*
X22038000Y-6958000D02*
G75*
G02*
X22238000Y-6958000I100000J0D01*
G01*
X22689000Y-11655000D02*
G75*
G02*
X22489000Y-11655000I-100000J0D01*
G01*
X22489000Y-11655000D02*
G75*
G02*
X22689000Y-11655000I100000J0D01*
G01*
X22692000Y-8395000D02*
G75*
G02*
X22492000Y-8395000I-100000J0D01*
G01*
X22492000Y-8395000D02*
G75*
G02*
X22692000Y-8395000I100000J0D01*
G01*
X22700000Y-4754000D02*
G75*
G02*
X22500000Y-4754000I-100000J0D01*
G01*
X22500000Y-4754000D02*
G75*
G02*
X22700000Y-4754000I100000J0D01*
G01*
X22702000Y-5799000D02*
G75*
G02*
X22502000Y-5799000I-100000J0D01*
G01*
X22502000Y-5799000D02*
G75*
G02*
X22702000Y-5799000I100000J0D01*
G01*
X22703000Y-9500000D02*
G75*
G02*
X22503000Y-9500000I-100000J0D01*
G01*
X22503000Y-9500000D02*
G75*
G02*
X22703000Y-9500000I100000J0D01*
G01*
X22703000Y-10591000D02*
G75*
G02*
X22503000Y-10591000I-100000J0D01*
G01*
X22503000Y-10591000D02*
G75*
G02*
X22703000Y-10591000I100000J0D01*
G01*
X22704000Y-3641000D02*
G75*
G02*
X22504000Y-3641000I-100000J0D01*
G01*
X22504000Y-3641000D02*
G75*
G02*
X22704000Y-3641000I100000J0D01*
G01*
X22708000Y-6958000D02*
G75*
G02*
X22508000Y-6958000I-100000J0D01*
G01*
X22508000Y-6958000D02*
G75*
G02*
X22708000Y-6958000I100000J0D01*
G01*
X23159000Y-11655000D02*
G75*
G02*
X22959000Y-11655000I-100000J0D01*
G01*
X22959000Y-11655000D02*
G75*
G02*
X23159000Y-11655000I100000J0D01*
G01*
X23162000Y-8395000D02*
G75*
G02*
X22962000Y-8395000I-100000J0D01*
G01*
X22962000Y-8395000D02*
G75*
G02*
X23162000Y-8395000I100000J0D01*
G01*
X23170000Y-4754000D02*
G75*
G02*
X22970000Y-4754000I-100000J0D01*
G01*
X22970000Y-4754000D02*
G75*
G02*
X23170000Y-4754000I100000J0D01*
G01*
X23172000Y-5799000D02*
G75*
G02*
X22972000Y-5799000I-100000J0D01*
G01*
X22972000Y-5799000D02*
G75*
G02*
X23172000Y-5799000I100000J0D01*
G01*
X23173000Y-9500000D02*
G75*
G02*
X22973000Y-9500000I-100000J0D01*
G01*
X22973000Y-9500000D02*
G75*
G02*
X23173000Y-9500000I100000J0D01*
G01*
X23173000Y-10591000D02*
G75*
G02*
X22973000Y-10591000I-100000J0D01*
G01*
X22973000Y-10591000D02*
G75*
G02*
X23173000Y-10591000I100000J0D01*
G01*
X23174000Y-3641000D02*
G75*
G02*
X22974000Y-3641000I-100000J0D01*
G01*
X22974000Y-3641000D02*
G75*
G02*
X23174000Y-3641000I100000J0D01*
G01*
X23178000Y-6958000D02*
G75*
G02*
X22978000Y-6958000I-100000J0D01*
G01*
X22978000Y-6958000D02*
G75*
G02*
X23178000Y-6958000I100000J0D01*
G01*
X7841872Y-15627389D02*
X7841872Y-15427389D01*
X7841872Y-15427389D02*
X7889491Y-15427389D01*
X7889491Y-15427389D02*
X7918062Y-15436913D01*
X7918062Y-15436913D02*
X7937110Y-15455960D01*
X7937110Y-15455960D02*
X7946634Y-15475008D01*
X7946634Y-15475008D02*
X7956157Y-15513103D01*
X7956157Y-15513103D02*
X7956157Y-15541674D01*
X7956157Y-15541674D02*
X7946634Y-15579770D01*
X7946634Y-15579770D02*
X7937110Y-15598817D01*
X7937110Y-15598817D02*
X7918062Y-15617865D01*
X7918062Y-15617865D02*
X7889491Y-15627389D01*
X7889491Y-15627389D02*
X7841872Y-15627389D01*
X8041872Y-15627389D02*
X8041872Y-15494055D01*
X8041872Y-15532151D02*
X8051396Y-15513103D01*
X8051396Y-15513103D02*
X8060919Y-15503579D01*
X8060919Y-15503579D02*
X8079967Y-15494055D01*
X8079967Y-15494055D02*
X8099015Y-15494055D01*
X8165681Y-15627389D02*
X8165681Y-15494055D01*
X8165681Y-15427389D02*
X8156157Y-15436913D01*
X8156157Y-15436913D02*
X8165681Y-15446436D01*
X8165681Y-15446436D02*
X8175205Y-15436913D01*
X8175205Y-15436913D02*
X8165681Y-15427389D01*
X8165681Y-15427389D02*
X8165681Y-15446436D01*
X8289491Y-15627389D02*
X8270443Y-15617865D01*
X8270443Y-15617865D02*
X8260919Y-15598817D01*
X8260919Y-15598817D02*
X8260919Y-15427389D01*
X8394253Y-15627389D02*
X8375205Y-15617865D01*
X8375205Y-15617865D02*
X8365681Y-15598817D01*
X8365681Y-15598817D02*
X8365681Y-15427389D01*
X8622824Y-15627389D02*
X8622824Y-15427389D01*
X8622824Y-15427389D02*
X8689491Y-15570246D01*
X8689491Y-15570246D02*
X8756158Y-15427389D01*
X8756158Y-15427389D02*
X8756158Y-15627389D01*
X8937110Y-15627389D02*
X8937110Y-15522627D01*
X8937110Y-15522627D02*
X8927586Y-15503579D01*
X8927586Y-15503579D02*
X8908539Y-15494055D01*
X8908539Y-15494055D02*
X8870443Y-15494055D01*
X8870443Y-15494055D02*
X8851396Y-15503579D01*
X8937110Y-15617865D02*
X8918062Y-15627389D01*
X8918062Y-15627389D02*
X8870443Y-15627389D01*
X8870443Y-15627389D02*
X8851396Y-15617865D01*
X8851396Y-15617865D02*
X8841872Y-15598817D01*
X8841872Y-15598817D02*
X8841872Y-15579770D01*
X8841872Y-15579770D02*
X8851396Y-15560722D01*
X8851396Y-15560722D02*
X8870443Y-15551198D01*
X8870443Y-15551198D02*
X8918062Y-15551198D01*
X8918062Y-15551198D02*
X8937110Y-15541674D01*
X9032348Y-15494055D02*
X9032348Y-15694055D01*
X9032348Y-15503579D02*
X9051396Y-15494055D01*
X9051396Y-15494055D02*
X9089491Y-15494055D01*
X9089491Y-15494055D02*
X9108539Y-15503579D01*
X9108539Y-15503579D02*
X9118062Y-15513103D01*
X9118062Y-15513103D02*
X9127586Y-15532151D01*
X9127586Y-15532151D02*
X9127586Y-15589293D01*
X9127586Y-15589293D02*
X9118062Y-15608341D01*
X9118062Y-15608341D02*
X9108539Y-15617865D01*
X9108539Y-15617865D02*
X9089491Y-15627389D01*
X9089491Y-15627389D02*
X9051396Y-15627389D01*
X9051396Y-15627389D02*
X9032348Y-15617865D01*
X9213300Y-15608341D02*
X9222824Y-15617865D01*
X9222824Y-15617865D02*
X9213300Y-15627389D01*
X9213300Y-15627389D02*
X9203777Y-15617865D01*
X9203777Y-15617865D02*
X9213300Y-15608341D01*
X9213300Y-15608341D02*
X9213300Y-15627389D01*
X9213300Y-15503579D02*
X9222824Y-15513103D01*
X9222824Y-15513103D02*
X9213300Y-15522627D01*
X9213300Y-15522627D02*
X9203777Y-15513103D01*
X9203777Y-15513103D02*
X9213300Y-15503579D01*
X9213300Y-15503579D02*
X9213300Y-15522627D01*
D12*
X7501095Y-15915905D02*
X7581095Y-15995905D01*
X7581095Y-15915905D02*
X7501095Y-15995905D01*
D11*
X7879967Y-15847389D02*
X7899015Y-15847389D01*
X7899015Y-15847389D02*
X7918062Y-15856913D01*
X7918062Y-15856913D02*
X7927586Y-15866436D01*
X7927586Y-15866436D02*
X7937110Y-15885484D01*
X7937110Y-15885484D02*
X7946634Y-15923579D01*
X7946634Y-15923579D02*
X7946634Y-15971198D01*
X7946634Y-15971198D02*
X7937110Y-16009293D01*
X7937110Y-16009293D02*
X7927586Y-16028341D01*
X7927586Y-16028341D02*
X7918062Y-16037865D01*
X7918062Y-16037865D02*
X7899015Y-16047389D01*
X7899015Y-16047389D02*
X7879967Y-16047389D01*
X7879967Y-16047389D02*
X7860919Y-16037865D01*
X7860919Y-16037865D02*
X7851396Y-16028341D01*
X7851396Y-16028341D02*
X7841872Y-16009293D01*
X7841872Y-16009293D02*
X7832348Y-15971198D01*
X7832348Y-15971198D02*
X7832348Y-15923579D01*
X7832348Y-15923579D02*
X7841872Y-15885484D01*
X7841872Y-15885484D02*
X7851396Y-15866436D01*
X7851396Y-15866436D02*
X7860919Y-15856913D01*
X7860919Y-15856913D02*
X7879967Y-15847389D01*
X8032348Y-16028341D02*
X8041872Y-16037865D01*
X8041872Y-16037865D02*
X8032348Y-16047389D01*
X8032348Y-16047389D02*
X8022824Y-16037865D01*
X8022824Y-16037865D02*
X8032348Y-16028341D01*
X8032348Y-16028341D02*
X8032348Y-16047389D01*
X8156157Y-15933103D02*
X8137110Y-15923579D01*
X8137110Y-15923579D02*
X8127586Y-15914055D01*
X8127586Y-15914055D02*
X8118062Y-15895008D01*
X8118062Y-15895008D02*
X8118062Y-15885484D01*
X8118062Y-15885484D02*
X8127586Y-15866436D01*
X8127586Y-15866436D02*
X8137110Y-15856913D01*
X8137110Y-15856913D02*
X8156157Y-15847389D01*
X8156157Y-15847389D02*
X8194253Y-15847389D01*
X8194253Y-15847389D02*
X8213300Y-15856913D01*
X8213300Y-15856913D02*
X8222824Y-15866436D01*
X8222824Y-15866436D02*
X8232348Y-15885484D01*
X8232348Y-15885484D02*
X8232348Y-15895008D01*
X8232348Y-15895008D02*
X8222824Y-15914055D01*
X8222824Y-15914055D02*
X8213300Y-15923579D01*
X8213300Y-15923579D02*
X8194253Y-15933103D01*
X8194253Y-15933103D02*
X8156157Y-15933103D01*
X8156157Y-15933103D02*
X8137110Y-15942627D01*
X8137110Y-15942627D02*
X8127586Y-15952151D01*
X8127586Y-15952151D02*
X8118062Y-15971198D01*
X8118062Y-15971198D02*
X8118062Y-16009293D01*
X8118062Y-16009293D02*
X8127586Y-16028341D01*
X8127586Y-16028341D02*
X8137110Y-16037865D01*
X8137110Y-16037865D02*
X8156157Y-16047389D01*
X8156157Y-16047389D02*
X8194253Y-16047389D01*
X8194253Y-16047389D02*
X8213300Y-16037865D01*
X8213300Y-16037865D02*
X8222824Y-16028341D01*
X8222824Y-16028341D02*
X8232348Y-16009293D01*
X8232348Y-16009293D02*
X8232348Y-15971198D01*
X8232348Y-15971198D02*
X8222824Y-15952151D01*
X8222824Y-15952151D02*
X8213300Y-15942627D01*
X8213300Y-15942627D02*
X8194253Y-15933103D01*
X8356157Y-15847389D02*
X8375205Y-15847389D01*
X8375205Y-15847389D02*
X8394253Y-15856913D01*
X8394253Y-15856913D02*
X8403777Y-15866436D01*
X8403777Y-15866436D02*
X8413300Y-15885484D01*
X8413300Y-15885484D02*
X8422824Y-15923579D01*
X8422824Y-15923579D02*
X8422824Y-15971198D01*
X8422824Y-15971198D02*
X8413300Y-16009293D01*
X8413300Y-16009293D02*
X8403777Y-16028341D01*
X8403777Y-16028341D02*
X8394253Y-16037865D01*
X8394253Y-16037865D02*
X8375205Y-16047389D01*
X8375205Y-16047389D02*
X8356157Y-16047389D01*
X8356157Y-16047389D02*
X8337110Y-16037865D01*
X8337110Y-16037865D02*
X8327586Y-16028341D01*
X8327586Y-16028341D02*
X8318062Y-16009293D01*
X8318062Y-16009293D02*
X8308538Y-15971198D01*
X8308538Y-15971198D02*
X8308538Y-15923579D01*
X8308538Y-15923579D02*
X8318062Y-15885484D01*
X8318062Y-15885484D02*
X8327586Y-15866436D01*
X8327586Y-15866436D02*
X8337110Y-15856913D01*
X8337110Y-15856913D02*
X8356157Y-15847389D01*
X8546634Y-15847389D02*
X8565681Y-15847389D01*
X8565681Y-15847389D02*
X8584729Y-15856913D01*
X8584729Y-15856913D02*
X8594253Y-15866436D01*
X8594253Y-15866436D02*
X8603777Y-15885484D01*
X8603777Y-15885484D02*
X8613300Y-15923579D01*
X8613300Y-15923579D02*
X8613300Y-15971198D01*
X8613300Y-15971198D02*
X8603777Y-16009293D01*
X8603777Y-16009293D02*
X8594253Y-16028341D01*
X8594253Y-16028341D02*
X8584729Y-16037865D01*
X8584729Y-16037865D02*
X8565681Y-16047389D01*
X8565681Y-16047389D02*
X8546634Y-16047389D01*
X8546634Y-16047389D02*
X8527586Y-16037865D01*
X8527586Y-16037865D02*
X8518062Y-16028341D01*
X8518062Y-16028341D02*
X8508539Y-16009293D01*
X8508539Y-16009293D02*
X8499015Y-15971198D01*
X8499015Y-15971198D02*
X8499015Y-15923579D01*
X8499015Y-15923579D02*
X8508539Y-15885484D01*
X8508539Y-15885484D02*
X8518062Y-15866436D01*
X8518062Y-15866436D02*
X8527586Y-15856913D01*
X8527586Y-15856913D02*
X8546634Y-15847389D01*
X8699015Y-16047389D02*
X8699015Y-15914055D01*
X8699015Y-15933103D02*
X8708539Y-15923579D01*
X8708539Y-15923579D02*
X8727586Y-15914055D01*
X8727586Y-15914055D02*
X8756158Y-15914055D01*
X8756158Y-15914055D02*
X8775205Y-15923579D01*
X8775205Y-15923579D02*
X8784729Y-15942627D01*
X8784729Y-15942627D02*
X8784729Y-16047389D01*
X8784729Y-15942627D02*
X8794253Y-15923579D01*
X8794253Y-15923579D02*
X8813300Y-15914055D01*
X8813300Y-15914055D02*
X8841872Y-15914055D01*
X8841872Y-15914055D02*
X8860920Y-15923579D01*
X8860920Y-15923579D02*
X8870443Y-15942627D01*
X8870443Y-15942627D02*
X8870443Y-16047389D01*
X8965681Y-16047389D02*
X8965681Y-15914055D01*
X8965681Y-15933103D02*
X8975205Y-15923579D01*
X8975205Y-15923579D02*
X8994253Y-15914055D01*
X8994253Y-15914055D02*
X9022824Y-15914055D01*
X9022824Y-15914055D02*
X9041872Y-15923579D01*
X9041872Y-15923579D02*
X9051396Y-15942627D01*
X9051396Y-15942627D02*
X9051396Y-16047389D01*
X9051396Y-15942627D02*
X9060920Y-15923579D01*
X9060920Y-15923579D02*
X9079967Y-15914055D01*
X9079967Y-15914055D02*
X9108539Y-15914055D01*
X9108539Y-15914055D02*
X9127586Y-15923579D01*
X9127586Y-15923579D02*
X9137110Y-15942627D01*
X9137110Y-15942627D02*
X9137110Y-16047389D01*
X9527586Y-15837865D02*
X9356158Y-16095008D01*
X9784729Y-15847389D02*
X9803777Y-15847389D01*
X9803777Y-15847389D02*
X9822824Y-15856913D01*
X9822824Y-15856913D02*
X9832348Y-15866436D01*
X9832348Y-15866436D02*
X9841872Y-15885484D01*
X9841872Y-15885484D02*
X9851396Y-15923579D01*
X9851396Y-15923579D02*
X9851396Y-15971198D01*
X9851396Y-15971198D02*
X9841872Y-16009293D01*
X9841872Y-16009293D02*
X9832348Y-16028341D01*
X9832348Y-16028341D02*
X9822824Y-16037865D01*
X9822824Y-16037865D02*
X9803777Y-16047389D01*
X9803777Y-16047389D02*
X9784729Y-16047389D01*
X9784729Y-16047389D02*
X9765682Y-16037865D01*
X9765682Y-16037865D02*
X9756158Y-16028341D01*
X9756158Y-16028341D02*
X9746634Y-16009293D01*
X9746634Y-16009293D02*
X9737110Y-15971198D01*
X9737110Y-15971198D02*
X9737110Y-15923579D01*
X9737110Y-15923579D02*
X9746634Y-15885484D01*
X9746634Y-15885484D02*
X9756158Y-15866436D01*
X9756158Y-15866436D02*
X9765682Y-15856913D01*
X9765682Y-15856913D02*
X9784729Y-15847389D01*
X9937110Y-16028341D02*
X9946634Y-16037865D01*
X9946634Y-16037865D02*
X9937110Y-16047389D01*
X9937110Y-16047389D02*
X9927586Y-16037865D01*
X9927586Y-16037865D02*
X9937110Y-16028341D01*
X9937110Y-16028341D02*
X9937110Y-16047389D01*
X10070443Y-15847389D02*
X10089491Y-15847389D01*
X10089491Y-15847389D02*
X10108539Y-15856913D01*
X10108539Y-15856913D02*
X10118063Y-15866436D01*
X10118063Y-15866436D02*
X10127586Y-15885484D01*
X10127586Y-15885484D02*
X10137110Y-15923579D01*
X10137110Y-15923579D02*
X10137110Y-15971198D01*
X10137110Y-15971198D02*
X10127586Y-16009293D01*
X10127586Y-16009293D02*
X10118063Y-16028341D01*
X10118063Y-16028341D02*
X10108539Y-16037865D01*
X10108539Y-16037865D02*
X10089491Y-16047389D01*
X10089491Y-16047389D02*
X10070443Y-16047389D01*
X10070443Y-16047389D02*
X10051396Y-16037865D01*
X10051396Y-16037865D02*
X10041872Y-16028341D01*
X10041872Y-16028341D02*
X10032348Y-16009293D01*
X10032348Y-16009293D02*
X10022824Y-15971198D01*
X10022824Y-15971198D02*
X10022824Y-15923579D01*
X10022824Y-15923579D02*
X10032348Y-15885484D01*
X10032348Y-15885484D02*
X10041872Y-15866436D01*
X10041872Y-15866436D02*
X10051396Y-15856913D01*
X10051396Y-15856913D02*
X10070443Y-15847389D01*
X10203777Y-15847389D02*
X10327586Y-15847389D01*
X10327586Y-15847389D02*
X10260920Y-15923579D01*
X10260920Y-15923579D02*
X10289491Y-15923579D01*
X10289491Y-15923579D02*
X10308539Y-15933103D01*
X10308539Y-15933103D02*
X10318063Y-15942627D01*
X10318063Y-15942627D02*
X10327586Y-15961674D01*
X10327586Y-15961674D02*
X10327586Y-16009293D01*
X10327586Y-16009293D02*
X10318063Y-16028341D01*
X10318063Y-16028341D02*
X10308539Y-16037865D01*
X10308539Y-16037865D02*
X10289491Y-16047389D01*
X10289491Y-16047389D02*
X10232348Y-16047389D01*
X10232348Y-16047389D02*
X10213301Y-16037865D01*
X10213301Y-16037865D02*
X10203777Y-16028341D01*
X10518063Y-16047389D02*
X10403777Y-16047389D01*
X10460920Y-16047389D02*
X10460920Y-15847389D01*
X10460920Y-15847389D02*
X10441872Y-15875960D01*
X10441872Y-15875960D02*
X10422824Y-15895008D01*
X10422824Y-15895008D02*
X10403777Y-15904532D01*
X10699015Y-15847389D02*
X10603777Y-15847389D01*
X10603777Y-15847389D02*
X10594253Y-15942627D01*
X10594253Y-15942627D02*
X10603777Y-15933103D01*
X10603777Y-15933103D02*
X10622824Y-15923579D01*
X10622824Y-15923579D02*
X10670444Y-15923579D01*
X10670444Y-15923579D02*
X10689491Y-15933103D01*
X10689491Y-15933103D02*
X10699015Y-15942627D01*
X10699015Y-15942627D02*
X10708539Y-15961674D01*
X10708539Y-15961674D02*
X10708539Y-16009293D01*
X10708539Y-16009293D02*
X10699015Y-16028341D01*
X10699015Y-16028341D02*
X10689491Y-16037865D01*
X10689491Y-16037865D02*
X10670444Y-16047389D01*
X10670444Y-16047389D02*
X10622824Y-16047389D01*
X10622824Y-16047389D02*
X10603777Y-16037865D01*
X10603777Y-16037865D02*
X10594253Y-16028341D01*
X10784729Y-15847389D02*
X10784729Y-15885484D01*
X10860920Y-15847389D02*
X10860920Y-15885484D01*
X11156158Y-16123579D02*
X11146634Y-16114055D01*
X11146634Y-16114055D02*
X11127586Y-16085484D01*
X11127586Y-16085484D02*
X11118063Y-16066436D01*
X11118063Y-16066436D02*
X11108539Y-16037865D01*
X11108539Y-16037865D02*
X11099015Y-15990246D01*
X11099015Y-15990246D02*
X11099015Y-15952151D01*
X11099015Y-15952151D02*
X11108539Y-15904532D01*
X11108539Y-15904532D02*
X11118063Y-15875960D01*
X11118063Y-15875960D02*
X11127586Y-15856913D01*
X11127586Y-15856913D02*
X11146634Y-15828341D01*
X11146634Y-15828341D02*
X11156158Y-15818817D01*
X11213301Y-15847389D02*
X11337110Y-15847389D01*
X11337110Y-15847389D02*
X11270443Y-15923579D01*
X11270443Y-15923579D02*
X11299015Y-15923579D01*
X11299015Y-15923579D02*
X11318063Y-15933103D01*
X11318063Y-15933103D02*
X11327586Y-15942627D01*
X11327586Y-15942627D02*
X11337110Y-15961674D01*
X11337110Y-15961674D02*
X11337110Y-16009293D01*
X11337110Y-16009293D02*
X11327586Y-16028341D01*
X11327586Y-16028341D02*
X11318063Y-16037865D01*
X11318063Y-16037865D02*
X11299015Y-16047389D01*
X11299015Y-16047389D02*
X11241872Y-16047389D01*
X11241872Y-16047389D02*
X11222824Y-16037865D01*
X11222824Y-16037865D02*
X11213301Y-16028341D01*
X11451396Y-15933103D02*
X11432348Y-15923579D01*
X11432348Y-15923579D02*
X11422824Y-15914055D01*
X11422824Y-15914055D02*
X11413301Y-15895008D01*
X11413301Y-15895008D02*
X11413301Y-15885484D01*
X11413301Y-15885484D02*
X11422824Y-15866436D01*
X11422824Y-15866436D02*
X11432348Y-15856913D01*
X11432348Y-15856913D02*
X11451396Y-15847389D01*
X11451396Y-15847389D02*
X11489491Y-15847389D01*
X11489491Y-15847389D02*
X11508539Y-15856913D01*
X11508539Y-15856913D02*
X11518063Y-15866436D01*
X11518063Y-15866436D02*
X11527586Y-15885484D01*
X11527586Y-15885484D02*
X11527586Y-15895008D01*
X11527586Y-15895008D02*
X11518063Y-15914055D01*
X11518063Y-15914055D02*
X11508539Y-15923579D01*
X11508539Y-15923579D02*
X11489491Y-15933103D01*
X11489491Y-15933103D02*
X11451396Y-15933103D01*
X11451396Y-15933103D02*
X11432348Y-15942627D01*
X11432348Y-15942627D02*
X11422824Y-15952151D01*
X11422824Y-15952151D02*
X11413301Y-15971198D01*
X11413301Y-15971198D02*
X11413301Y-16009293D01*
X11413301Y-16009293D02*
X11422824Y-16028341D01*
X11422824Y-16028341D02*
X11432348Y-16037865D01*
X11432348Y-16037865D02*
X11451396Y-16047389D01*
X11451396Y-16047389D02*
X11489491Y-16047389D01*
X11489491Y-16047389D02*
X11508539Y-16037865D01*
X11508539Y-16037865D02*
X11518063Y-16028341D01*
X11518063Y-16028341D02*
X11527586Y-16009293D01*
X11527586Y-16009293D02*
X11527586Y-15971198D01*
X11527586Y-15971198D02*
X11518063Y-15952151D01*
X11518063Y-15952151D02*
X11508539Y-15942627D01*
X11508539Y-15942627D02*
X11489491Y-15933103D01*
X11718063Y-16047389D02*
X11603777Y-16047389D01*
X11660920Y-16047389D02*
X11660920Y-15847389D01*
X11660920Y-15847389D02*
X11641872Y-15875960D01*
X11641872Y-15875960D02*
X11622824Y-15895008D01*
X11622824Y-15895008D02*
X11603777Y-15904532D01*
X11956158Y-16047389D02*
X11956158Y-15847389D01*
X12041872Y-16047389D02*
X12041872Y-15942627D01*
X12041872Y-15942627D02*
X12032348Y-15923579D01*
X12032348Y-15923579D02*
X12013301Y-15914055D01*
X12013301Y-15914055D02*
X11984729Y-15914055D01*
X11984729Y-15914055D02*
X11965682Y-15923579D01*
X11965682Y-15923579D02*
X11956158Y-15933103D01*
X12165682Y-16047389D02*
X12146634Y-16037865D01*
X12146634Y-16037865D02*
X12137110Y-16028341D01*
X12137110Y-16028341D02*
X12127586Y-16009293D01*
X12127586Y-16009293D02*
X12127586Y-15952151D01*
X12127586Y-15952151D02*
X12137110Y-15933103D01*
X12137110Y-15933103D02*
X12146634Y-15923579D01*
X12146634Y-15923579D02*
X12165682Y-15914055D01*
X12165682Y-15914055D02*
X12194253Y-15914055D01*
X12194253Y-15914055D02*
X12213301Y-15923579D01*
X12213301Y-15923579D02*
X12222825Y-15933103D01*
X12222825Y-15933103D02*
X12232348Y-15952151D01*
X12232348Y-15952151D02*
X12232348Y-16009293D01*
X12232348Y-16009293D02*
X12222825Y-16028341D01*
X12222825Y-16028341D02*
X12213301Y-16037865D01*
X12213301Y-16037865D02*
X12194253Y-16047389D01*
X12194253Y-16047389D02*
X12165682Y-16047389D01*
X12346634Y-16047389D02*
X12327586Y-16037865D01*
X12327586Y-16037865D02*
X12318063Y-16018817D01*
X12318063Y-16018817D02*
X12318063Y-15847389D01*
X12499015Y-16037865D02*
X12479967Y-16047389D01*
X12479967Y-16047389D02*
X12441872Y-16047389D01*
X12441872Y-16047389D02*
X12422825Y-16037865D01*
X12422825Y-16037865D02*
X12413301Y-16018817D01*
X12413301Y-16018817D02*
X12413301Y-15942627D01*
X12413301Y-15942627D02*
X12422825Y-15923579D01*
X12422825Y-15923579D02*
X12441872Y-15914055D01*
X12441872Y-15914055D02*
X12479967Y-15914055D01*
X12479967Y-15914055D02*
X12499015Y-15923579D01*
X12499015Y-15923579D02*
X12508539Y-15942627D01*
X12508539Y-15942627D02*
X12508539Y-15961674D01*
X12508539Y-15961674D02*
X12413301Y-15980722D01*
X12584729Y-16037865D02*
X12603777Y-16047389D01*
X12603777Y-16047389D02*
X12641872Y-16047389D01*
X12641872Y-16047389D02*
X12660920Y-16037865D01*
X12660920Y-16037865D02*
X12670444Y-16018817D01*
X12670444Y-16018817D02*
X12670444Y-16009293D01*
X12670444Y-16009293D02*
X12660920Y-15990246D01*
X12660920Y-15990246D02*
X12641872Y-15980722D01*
X12641872Y-15980722D02*
X12613301Y-15980722D01*
X12613301Y-15980722D02*
X12594253Y-15971198D01*
X12594253Y-15971198D02*
X12584729Y-15952151D01*
X12584729Y-15952151D02*
X12584729Y-15942627D01*
X12584729Y-15942627D02*
X12594253Y-15923579D01*
X12594253Y-15923579D02*
X12613301Y-15914055D01*
X12613301Y-15914055D02*
X12641872Y-15914055D01*
X12641872Y-15914055D02*
X12660920Y-15923579D01*
X12737110Y-16123579D02*
X12746634Y-16114055D01*
X12746634Y-16114055D02*
X12765682Y-16085484D01*
X12765682Y-16085484D02*
X12775206Y-16066436D01*
X12775206Y-16066436D02*
X12784729Y-16037865D01*
X12784729Y-16037865D02*
X12794253Y-15990246D01*
X12794253Y-15990246D02*
X12794253Y-15952151D01*
X12794253Y-15952151D02*
X12784729Y-15904532D01*
X12784729Y-15904532D02*
X12775206Y-15875960D01*
X12775206Y-15875960D02*
X12765682Y-15856913D01*
X12765682Y-15856913D02*
X12746634Y-15828341D01*
X12746634Y-15828341D02*
X12737110Y-15818817D01*
X7581095Y-16219905D02*
G75*
G02*
X7381095Y-16219905I-100000J0D01*
G01*
X7381095Y-16219905D02*
G75*
G02*
X7581095Y-16219905I100000J0D01*
G01*
X7832348Y-16130436D02*
X7841872Y-16120913D01*
X7841872Y-16120913D02*
X7860919Y-16111389D01*
X7860919Y-16111389D02*
X7908538Y-16111389D01*
X7908538Y-16111389D02*
X7927586Y-16120913D01*
X7927586Y-16120913D02*
X7937110Y-16130436D01*
X7937110Y-16130436D02*
X7946634Y-16149484D01*
X7946634Y-16149484D02*
X7946634Y-16168532D01*
X7946634Y-16168532D02*
X7937110Y-16197103D01*
X7937110Y-16197103D02*
X7822824Y-16311389D01*
X7822824Y-16311389D02*
X7946634Y-16311389D01*
X8032348Y-16292341D02*
X8041872Y-16301865D01*
X8041872Y-16301865D02*
X8032348Y-16311389D01*
X8032348Y-16311389D02*
X8022824Y-16301865D01*
X8022824Y-16301865D02*
X8032348Y-16292341D01*
X8032348Y-16292341D02*
X8032348Y-16311389D01*
X8165681Y-16111389D02*
X8184729Y-16111389D01*
X8184729Y-16111389D02*
X8203777Y-16120913D01*
X8203777Y-16120913D02*
X8213300Y-16130436D01*
X8213300Y-16130436D02*
X8222824Y-16149484D01*
X8222824Y-16149484D02*
X8232348Y-16187579D01*
X8232348Y-16187579D02*
X8232348Y-16235198D01*
X8232348Y-16235198D02*
X8222824Y-16273293D01*
X8222824Y-16273293D02*
X8213300Y-16292341D01*
X8213300Y-16292341D02*
X8203777Y-16301865D01*
X8203777Y-16301865D02*
X8184729Y-16311389D01*
X8184729Y-16311389D02*
X8165681Y-16311389D01*
X8165681Y-16311389D02*
X8146634Y-16301865D01*
X8146634Y-16301865D02*
X8137110Y-16292341D01*
X8137110Y-16292341D02*
X8127586Y-16273293D01*
X8127586Y-16273293D02*
X8118062Y-16235198D01*
X8118062Y-16235198D02*
X8118062Y-16187579D01*
X8118062Y-16187579D02*
X8127586Y-16149484D01*
X8127586Y-16149484D02*
X8137110Y-16130436D01*
X8137110Y-16130436D02*
X8146634Y-16120913D01*
X8146634Y-16120913D02*
X8165681Y-16111389D01*
X8356157Y-16111389D02*
X8375205Y-16111389D01*
X8375205Y-16111389D02*
X8394253Y-16120913D01*
X8394253Y-16120913D02*
X8403777Y-16130436D01*
X8403777Y-16130436D02*
X8413300Y-16149484D01*
X8413300Y-16149484D02*
X8422824Y-16187579D01*
X8422824Y-16187579D02*
X8422824Y-16235198D01*
X8422824Y-16235198D02*
X8413300Y-16273293D01*
X8413300Y-16273293D02*
X8403777Y-16292341D01*
X8403777Y-16292341D02*
X8394253Y-16301865D01*
X8394253Y-16301865D02*
X8375205Y-16311389D01*
X8375205Y-16311389D02*
X8356157Y-16311389D01*
X8356157Y-16311389D02*
X8337110Y-16301865D01*
X8337110Y-16301865D02*
X8327586Y-16292341D01*
X8327586Y-16292341D02*
X8318062Y-16273293D01*
X8318062Y-16273293D02*
X8308538Y-16235198D01*
X8308538Y-16235198D02*
X8308538Y-16187579D01*
X8308538Y-16187579D02*
X8318062Y-16149484D01*
X8318062Y-16149484D02*
X8327586Y-16130436D01*
X8327586Y-16130436D02*
X8337110Y-16120913D01*
X8337110Y-16120913D02*
X8356157Y-16111389D01*
X8546634Y-16111389D02*
X8565681Y-16111389D01*
X8565681Y-16111389D02*
X8584729Y-16120913D01*
X8584729Y-16120913D02*
X8594253Y-16130436D01*
X8594253Y-16130436D02*
X8603777Y-16149484D01*
X8603777Y-16149484D02*
X8613300Y-16187579D01*
X8613300Y-16187579D02*
X8613300Y-16235198D01*
X8613300Y-16235198D02*
X8603777Y-16273293D01*
X8603777Y-16273293D02*
X8594253Y-16292341D01*
X8594253Y-16292341D02*
X8584729Y-16301865D01*
X8584729Y-16301865D02*
X8565681Y-16311389D01*
X8565681Y-16311389D02*
X8546634Y-16311389D01*
X8546634Y-16311389D02*
X8527586Y-16301865D01*
X8527586Y-16301865D02*
X8518062Y-16292341D01*
X8518062Y-16292341D02*
X8508539Y-16273293D01*
X8508539Y-16273293D02*
X8499015Y-16235198D01*
X8499015Y-16235198D02*
X8499015Y-16187579D01*
X8499015Y-16187579D02*
X8508539Y-16149484D01*
X8508539Y-16149484D02*
X8518062Y-16130436D01*
X8518062Y-16130436D02*
X8527586Y-16120913D01*
X8527586Y-16120913D02*
X8546634Y-16111389D01*
X8699015Y-16311389D02*
X8699015Y-16178055D01*
X8699015Y-16197103D02*
X8708539Y-16187579D01*
X8708539Y-16187579D02*
X8727586Y-16178055D01*
X8727586Y-16178055D02*
X8756158Y-16178055D01*
X8756158Y-16178055D02*
X8775205Y-16187579D01*
X8775205Y-16187579D02*
X8784729Y-16206627D01*
X8784729Y-16206627D02*
X8784729Y-16311389D01*
X8784729Y-16206627D02*
X8794253Y-16187579D01*
X8794253Y-16187579D02*
X8813300Y-16178055D01*
X8813300Y-16178055D02*
X8841872Y-16178055D01*
X8841872Y-16178055D02*
X8860920Y-16187579D01*
X8860920Y-16187579D02*
X8870443Y-16206627D01*
X8870443Y-16206627D02*
X8870443Y-16311389D01*
X8965681Y-16311389D02*
X8965681Y-16178055D01*
X8965681Y-16197103D02*
X8975205Y-16187579D01*
X8975205Y-16187579D02*
X8994253Y-16178055D01*
X8994253Y-16178055D02*
X9022824Y-16178055D01*
X9022824Y-16178055D02*
X9041872Y-16187579D01*
X9041872Y-16187579D02*
X9051396Y-16206627D01*
X9051396Y-16206627D02*
X9051396Y-16311389D01*
X9051396Y-16206627D02*
X9060920Y-16187579D01*
X9060920Y-16187579D02*
X9079967Y-16178055D01*
X9079967Y-16178055D02*
X9108539Y-16178055D01*
X9108539Y-16178055D02*
X9127586Y-16187579D01*
X9127586Y-16187579D02*
X9137110Y-16206627D01*
X9137110Y-16206627D02*
X9137110Y-16311389D01*
X9527586Y-16101865D02*
X9356158Y-16359008D01*
X9784729Y-16111389D02*
X9803777Y-16111389D01*
X9803777Y-16111389D02*
X9822824Y-16120913D01*
X9822824Y-16120913D02*
X9832348Y-16130436D01*
X9832348Y-16130436D02*
X9841872Y-16149484D01*
X9841872Y-16149484D02*
X9851396Y-16187579D01*
X9851396Y-16187579D02*
X9851396Y-16235198D01*
X9851396Y-16235198D02*
X9841872Y-16273293D01*
X9841872Y-16273293D02*
X9832348Y-16292341D01*
X9832348Y-16292341D02*
X9822824Y-16301865D01*
X9822824Y-16301865D02*
X9803777Y-16311389D01*
X9803777Y-16311389D02*
X9784729Y-16311389D01*
X9784729Y-16311389D02*
X9765682Y-16301865D01*
X9765682Y-16301865D02*
X9756158Y-16292341D01*
X9756158Y-16292341D02*
X9746634Y-16273293D01*
X9746634Y-16273293D02*
X9737110Y-16235198D01*
X9737110Y-16235198D02*
X9737110Y-16187579D01*
X9737110Y-16187579D02*
X9746634Y-16149484D01*
X9746634Y-16149484D02*
X9756158Y-16130436D01*
X9756158Y-16130436D02*
X9765682Y-16120913D01*
X9765682Y-16120913D02*
X9784729Y-16111389D01*
X9937110Y-16292341D02*
X9946634Y-16301865D01*
X9946634Y-16301865D02*
X9937110Y-16311389D01*
X9937110Y-16311389D02*
X9927586Y-16301865D01*
X9927586Y-16301865D02*
X9937110Y-16292341D01*
X9937110Y-16292341D02*
X9937110Y-16311389D01*
X10070443Y-16111389D02*
X10089491Y-16111389D01*
X10089491Y-16111389D02*
X10108539Y-16120913D01*
X10108539Y-16120913D02*
X10118063Y-16130436D01*
X10118063Y-16130436D02*
X10127586Y-16149484D01*
X10127586Y-16149484D02*
X10137110Y-16187579D01*
X10137110Y-16187579D02*
X10137110Y-16235198D01*
X10137110Y-16235198D02*
X10127586Y-16273293D01*
X10127586Y-16273293D02*
X10118063Y-16292341D01*
X10118063Y-16292341D02*
X10108539Y-16301865D01*
X10108539Y-16301865D02*
X10089491Y-16311389D01*
X10089491Y-16311389D02*
X10070443Y-16311389D01*
X10070443Y-16311389D02*
X10051396Y-16301865D01*
X10051396Y-16301865D02*
X10041872Y-16292341D01*
X10041872Y-16292341D02*
X10032348Y-16273293D01*
X10032348Y-16273293D02*
X10022824Y-16235198D01*
X10022824Y-16235198D02*
X10022824Y-16187579D01*
X10022824Y-16187579D02*
X10032348Y-16149484D01*
X10032348Y-16149484D02*
X10041872Y-16130436D01*
X10041872Y-16130436D02*
X10051396Y-16120913D01*
X10051396Y-16120913D02*
X10070443Y-16111389D01*
X10203777Y-16111389D02*
X10337110Y-16111389D01*
X10337110Y-16111389D02*
X10251396Y-16311389D01*
X10441872Y-16197103D02*
X10422824Y-16187579D01*
X10422824Y-16187579D02*
X10413301Y-16178055D01*
X10413301Y-16178055D02*
X10403777Y-16159008D01*
X10403777Y-16159008D02*
X10403777Y-16149484D01*
X10403777Y-16149484D02*
X10413301Y-16130436D01*
X10413301Y-16130436D02*
X10422824Y-16120913D01*
X10422824Y-16120913D02*
X10441872Y-16111389D01*
X10441872Y-16111389D02*
X10479967Y-16111389D01*
X10479967Y-16111389D02*
X10499015Y-16120913D01*
X10499015Y-16120913D02*
X10508539Y-16130436D01*
X10508539Y-16130436D02*
X10518063Y-16149484D01*
X10518063Y-16149484D02*
X10518063Y-16159008D01*
X10518063Y-16159008D02*
X10508539Y-16178055D01*
X10508539Y-16178055D02*
X10499015Y-16187579D01*
X10499015Y-16187579D02*
X10479967Y-16197103D01*
X10479967Y-16197103D02*
X10441872Y-16197103D01*
X10441872Y-16197103D02*
X10422824Y-16206627D01*
X10422824Y-16206627D02*
X10413301Y-16216151D01*
X10413301Y-16216151D02*
X10403777Y-16235198D01*
X10403777Y-16235198D02*
X10403777Y-16273293D01*
X10403777Y-16273293D02*
X10413301Y-16292341D01*
X10413301Y-16292341D02*
X10422824Y-16301865D01*
X10422824Y-16301865D02*
X10441872Y-16311389D01*
X10441872Y-16311389D02*
X10479967Y-16311389D01*
X10479967Y-16311389D02*
X10499015Y-16301865D01*
X10499015Y-16301865D02*
X10508539Y-16292341D01*
X10508539Y-16292341D02*
X10518063Y-16273293D01*
X10518063Y-16273293D02*
X10518063Y-16235198D01*
X10518063Y-16235198D02*
X10508539Y-16216151D01*
X10508539Y-16216151D02*
X10499015Y-16206627D01*
X10499015Y-16206627D02*
X10479967Y-16197103D01*
X10584729Y-16111389D02*
X10718063Y-16111389D01*
X10718063Y-16111389D02*
X10632348Y-16311389D01*
X10784729Y-16111389D02*
X10784729Y-16149484D01*
X10860920Y-16111389D02*
X10860920Y-16149484D01*
X11156158Y-16387579D02*
X11146634Y-16378055D01*
X11146634Y-16378055D02*
X11127586Y-16349484D01*
X11127586Y-16349484D02*
X11118063Y-16330436D01*
X11118063Y-16330436D02*
X11108539Y-16301865D01*
X11108539Y-16301865D02*
X11099015Y-16254246D01*
X11099015Y-16254246D02*
X11099015Y-16216151D01*
X11099015Y-16216151D02*
X11108539Y-16168532D01*
X11108539Y-16168532D02*
X11118063Y-16139960D01*
X11118063Y-16139960D02*
X11127586Y-16120913D01*
X11127586Y-16120913D02*
X11146634Y-16092341D01*
X11146634Y-16092341D02*
X11156158Y-16082817D01*
X11318063Y-16178055D02*
X11318063Y-16311389D01*
X11270443Y-16101865D02*
X11222824Y-16244722D01*
X11222824Y-16244722D02*
X11346634Y-16244722D01*
X11451396Y-16197103D02*
X11432348Y-16187579D01*
X11432348Y-16187579D02*
X11422824Y-16178055D01*
X11422824Y-16178055D02*
X11413301Y-16159008D01*
X11413301Y-16159008D02*
X11413301Y-16149484D01*
X11413301Y-16149484D02*
X11422824Y-16130436D01*
X11422824Y-16130436D02*
X11432348Y-16120913D01*
X11432348Y-16120913D02*
X11451396Y-16111389D01*
X11451396Y-16111389D02*
X11489491Y-16111389D01*
X11489491Y-16111389D02*
X11508539Y-16120913D01*
X11508539Y-16120913D02*
X11518063Y-16130436D01*
X11518063Y-16130436D02*
X11527586Y-16149484D01*
X11527586Y-16149484D02*
X11527586Y-16159008D01*
X11527586Y-16159008D02*
X11518063Y-16178055D01*
X11518063Y-16178055D02*
X11508539Y-16187579D01*
X11508539Y-16187579D02*
X11489491Y-16197103D01*
X11489491Y-16197103D02*
X11451396Y-16197103D01*
X11451396Y-16197103D02*
X11432348Y-16206627D01*
X11432348Y-16206627D02*
X11422824Y-16216151D01*
X11422824Y-16216151D02*
X11413301Y-16235198D01*
X11413301Y-16235198D02*
X11413301Y-16273293D01*
X11413301Y-16273293D02*
X11422824Y-16292341D01*
X11422824Y-16292341D02*
X11432348Y-16301865D01*
X11432348Y-16301865D02*
X11451396Y-16311389D01*
X11451396Y-16311389D02*
X11489491Y-16311389D01*
X11489491Y-16311389D02*
X11508539Y-16301865D01*
X11508539Y-16301865D02*
X11518063Y-16292341D01*
X11518063Y-16292341D02*
X11527586Y-16273293D01*
X11527586Y-16273293D02*
X11527586Y-16235198D01*
X11527586Y-16235198D02*
X11518063Y-16216151D01*
X11518063Y-16216151D02*
X11508539Y-16206627D01*
X11508539Y-16206627D02*
X11489491Y-16197103D01*
X11765682Y-16311389D02*
X11765682Y-16111389D01*
X11851396Y-16311389D02*
X11851396Y-16206627D01*
X11851396Y-16206627D02*
X11841872Y-16187579D01*
X11841872Y-16187579D02*
X11822825Y-16178055D01*
X11822825Y-16178055D02*
X11794253Y-16178055D01*
X11794253Y-16178055D02*
X11775205Y-16187579D01*
X11775205Y-16187579D02*
X11765682Y-16197103D01*
X11975205Y-16311389D02*
X11956158Y-16301865D01*
X11956158Y-16301865D02*
X11946634Y-16292341D01*
X11946634Y-16292341D02*
X11937110Y-16273293D01*
X11937110Y-16273293D02*
X11937110Y-16216151D01*
X11937110Y-16216151D02*
X11946634Y-16197103D01*
X11946634Y-16197103D02*
X11956158Y-16187579D01*
X11956158Y-16187579D02*
X11975205Y-16178055D01*
X11975205Y-16178055D02*
X12003777Y-16178055D01*
X12003777Y-16178055D02*
X12022825Y-16187579D01*
X12022825Y-16187579D02*
X12032348Y-16197103D01*
X12032348Y-16197103D02*
X12041872Y-16216151D01*
X12041872Y-16216151D02*
X12041872Y-16273293D01*
X12041872Y-16273293D02*
X12032348Y-16292341D01*
X12032348Y-16292341D02*
X12022825Y-16301865D01*
X12022825Y-16301865D02*
X12003777Y-16311389D01*
X12003777Y-16311389D02*
X11975205Y-16311389D01*
X12156158Y-16311389D02*
X12137110Y-16301865D01*
X12137110Y-16301865D02*
X12127586Y-16282817D01*
X12127586Y-16282817D02*
X12127586Y-16111389D01*
X12308539Y-16301865D02*
X12289491Y-16311389D01*
X12289491Y-16311389D02*
X12251396Y-16311389D01*
X12251396Y-16311389D02*
X12232348Y-16301865D01*
X12232348Y-16301865D02*
X12222825Y-16282817D01*
X12222825Y-16282817D02*
X12222825Y-16206627D01*
X12222825Y-16206627D02*
X12232348Y-16187579D01*
X12232348Y-16187579D02*
X12251396Y-16178055D01*
X12251396Y-16178055D02*
X12289491Y-16178055D01*
X12289491Y-16178055D02*
X12308539Y-16187579D01*
X12308539Y-16187579D02*
X12318063Y-16206627D01*
X12318063Y-16206627D02*
X12318063Y-16225674D01*
X12318063Y-16225674D02*
X12222825Y-16244722D01*
X12394253Y-16301865D02*
X12413301Y-16311389D01*
X12413301Y-16311389D02*
X12451396Y-16311389D01*
X12451396Y-16311389D02*
X12470444Y-16301865D01*
X12470444Y-16301865D02*
X12479967Y-16282817D01*
X12479967Y-16282817D02*
X12479967Y-16273293D01*
X12479967Y-16273293D02*
X12470444Y-16254246D01*
X12470444Y-16254246D02*
X12451396Y-16244722D01*
X12451396Y-16244722D02*
X12422825Y-16244722D01*
X12422825Y-16244722D02*
X12403777Y-16235198D01*
X12403777Y-16235198D02*
X12394253Y-16216151D01*
X12394253Y-16216151D02*
X12394253Y-16206627D01*
X12394253Y-16206627D02*
X12403777Y-16187579D01*
X12403777Y-16187579D02*
X12422825Y-16178055D01*
X12422825Y-16178055D02*
X12451396Y-16178055D01*
X12451396Y-16178055D02*
X12470444Y-16187579D01*
X12546634Y-16387579D02*
X12556158Y-16378055D01*
X12556158Y-16378055D02*
X12575206Y-16349484D01*
X12575206Y-16349484D02*
X12584729Y-16330436D01*
X12584729Y-16330436D02*
X12594253Y-16301865D01*
X12594253Y-16301865D02*
X12603777Y-16254246D01*
X12603777Y-16254246D02*
X12603777Y-16216151D01*
X12603777Y-16216151D02*
X12594253Y-16168532D01*
X12594253Y-16168532D02*
X12584729Y-16139960D01*
X12584729Y-16139960D02*
X12575206Y-16120913D01*
X12575206Y-16120913D02*
X12556158Y-16092341D01*
X12556158Y-16092341D02*
X12546634Y-16082817D01*
M02*
