%TF.GenerationSoftware,KiCad,Pcbnew,9.0.8-1.fc43*%
%TF.CreationDate,2026-04-19T21:42:25+01:00*%
%TF.ProjectId,Scrumpi_JN,53637275-6d70-4695-9f4a-4e2e6b696361,rev?*%
%TF.SameCoordinates,Original*%
%TF.FileFunction,Drillmap*%
%TF.FilePolarity,Positive*%
%FSLAX45Y45*%
G04 Gerber Fmt 4.5, Leading zero omitted, Abs format (unit mm)*
G04 Created by KiCad (PCBNEW 9.0.8-1.fc43) date 2026-04-19 21:42:25*
%MOMM*%
%LPD*%
G01*
G04 APERTURE LIST*
%ADD10C,0.038100*%
%ADD11C,0.200000*%
%ADD12C,0.270000*%
G04 APERTURE END LIST*
D10*
X7583000Y-2614000D02*
X24093000Y-2614000D01*
X24093000Y-15314000D01*
X7583000Y-15314000D01*
X7583000Y-2614000D01*
D11*
D12*
X9269000Y-13853000D02*
X9539000Y-14123000D01*
X9539000Y-13853000D02*
X9269000Y-14123000D01*
X9685000Y-3885000D02*
X9955000Y-4155000D01*
X9955000Y-3885000D02*
X9685000Y-4155000D01*
X20865000Y-7525000D02*
X21135000Y-7795000D01*
X21135000Y-7525000D02*
X20865000Y-7795000D01*
D11*
X7841872Y-15627389D02*
X7841872Y-15427389D01*
X7841872Y-15427389D02*
X7889491Y-15427389D01*
X7889491Y-15427389D02*
X7918062Y-15436913D01*
X7918062Y-15436913D02*
X7937110Y-15455960D01*
X7937110Y-15455960D02*
X7946634Y-15475008D01*
X7946634Y-15475008D02*
X7956157Y-15513103D01*
X7956157Y-15513103D02*
X7956157Y-15541674D01*
X7956157Y-15541674D02*
X7946634Y-15579770D01*
X7946634Y-15579770D02*
X7937110Y-15598817D01*
X7937110Y-15598817D02*
X7918062Y-15617865D01*
X7918062Y-15617865D02*
X7889491Y-15627389D01*
X7889491Y-15627389D02*
X7841872Y-15627389D01*
X8041872Y-15627389D02*
X8041872Y-15494055D01*
X8041872Y-15532151D02*
X8051396Y-15513103D01*
X8051396Y-15513103D02*
X8060919Y-15503579D01*
X8060919Y-15503579D02*
X8079967Y-15494055D01*
X8079967Y-15494055D02*
X8099015Y-15494055D01*
X8165681Y-15627389D02*
X8165681Y-15494055D01*
X8165681Y-15427389D02*
X8156157Y-15436913D01*
X8156157Y-15436913D02*
X8165681Y-15446436D01*
X8165681Y-15446436D02*
X8175205Y-15436913D01*
X8175205Y-15436913D02*
X8165681Y-15427389D01*
X8165681Y-15427389D02*
X8165681Y-15446436D01*
X8289491Y-15627389D02*
X8270443Y-15617865D01*
X8270443Y-15617865D02*
X8260919Y-15598817D01*
X8260919Y-15598817D02*
X8260919Y-15427389D01*
X8394253Y-15627389D02*
X8375205Y-15617865D01*
X8375205Y-15617865D02*
X8365681Y-15598817D01*
X8365681Y-15598817D02*
X8365681Y-15427389D01*
X8622824Y-15627389D02*
X8622824Y-15427389D01*
X8622824Y-15427389D02*
X8689491Y-15570246D01*
X8689491Y-15570246D02*
X8756158Y-15427389D01*
X8756158Y-15427389D02*
X8756158Y-15627389D01*
X8937110Y-15627389D02*
X8937110Y-15522627D01*
X8937110Y-15522627D02*
X8927586Y-15503579D01*
X8927586Y-15503579D02*
X8908539Y-15494055D01*
X8908539Y-15494055D02*
X8870443Y-15494055D01*
X8870443Y-15494055D02*
X8851396Y-15503579D01*
X8937110Y-15617865D02*
X8918062Y-15627389D01*
X8918062Y-15627389D02*
X8870443Y-15627389D01*
X8870443Y-15627389D02*
X8851396Y-15617865D01*
X8851396Y-15617865D02*
X8841872Y-15598817D01*
X8841872Y-15598817D02*
X8841872Y-15579770D01*
X8841872Y-15579770D02*
X8851396Y-15560722D01*
X8851396Y-15560722D02*
X8870443Y-15551198D01*
X8870443Y-15551198D02*
X8918062Y-15551198D01*
X8918062Y-15551198D02*
X8937110Y-15541674D01*
X9032348Y-15494055D02*
X9032348Y-15694055D01*
X9032348Y-15503579D02*
X9051396Y-15494055D01*
X9051396Y-15494055D02*
X9089491Y-15494055D01*
X9089491Y-15494055D02*
X9108539Y-15503579D01*
X9108539Y-15503579D02*
X9118062Y-15513103D01*
X9118062Y-15513103D02*
X9127586Y-15532151D01*
X9127586Y-15532151D02*
X9127586Y-15589293D01*
X9127586Y-15589293D02*
X9118062Y-15608341D01*
X9118062Y-15608341D02*
X9108539Y-15617865D01*
X9108539Y-15617865D02*
X9089491Y-15627389D01*
X9089491Y-15627389D02*
X9051396Y-15627389D01*
X9051396Y-15627389D02*
X9032348Y-15617865D01*
X9213300Y-15608341D02*
X9222824Y-15617865D01*
X9222824Y-15617865D02*
X9213300Y-15627389D01*
X9213300Y-15627389D02*
X9203777Y-15617865D01*
X9203777Y-15617865D02*
X9213300Y-15608341D01*
X9213300Y-15608341D02*
X9213300Y-15627389D01*
X9213300Y-15503579D02*
X9222824Y-15513103D01*
X9222824Y-15513103D02*
X9213300Y-15522627D01*
X9213300Y-15522627D02*
X9203777Y-15513103D01*
X9203777Y-15513103D02*
X9213300Y-15503579D01*
X9213300Y-15503579D02*
X9213300Y-15522627D01*
X7381095Y-15855905D02*
X7581095Y-16055905D01*
X7581095Y-15855905D02*
X7381095Y-16055905D01*
X7832348Y-15866436D02*
X7841872Y-15856913D01*
X7841872Y-15856913D02*
X7860919Y-15847389D01*
X7860919Y-15847389D02*
X7908538Y-15847389D01*
X7908538Y-15847389D02*
X7927586Y-15856913D01*
X7927586Y-15856913D02*
X7937110Y-15866436D01*
X7937110Y-15866436D02*
X7946634Y-15885484D01*
X7946634Y-15885484D02*
X7946634Y-15904532D01*
X7946634Y-15904532D02*
X7937110Y-15933103D01*
X7937110Y-15933103D02*
X7822824Y-16047389D01*
X7822824Y-16047389D02*
X7946634Y-16047389D01*
X8032348Y-16028341D02*
X8041872Y-16037865D01*
X8041872Y-16037865D02*
X8032348Y-16047389D01*
X8032348Y-16047389D02*
X8022824Y-16037865D01*
X8022824Y-16037865D02*
X8032348Y-16028341D01*
X8032348Y-16028341D02*
X8032348Y-16047389D01*
X8108538Y-15847389D02*
X8241872Y-15847389D01*
X8241872Y-15847389D02*
X8156157Y-16047389D01*
X8356157Y-15847389D02*
X8375205Y-15847389D01*
X8375205Y-15847389D02*
X8394253Y-15856913D01*
X8394253Y-15856913D02*
X8403777Y-15866436D01*
X8403777Y-15866436D02*
X8413300Y-15885484D01*
X8413300Y-15885484D02*
X8422824Y-15923579D01*
X8422824Y-15923579D02*
X8422824Y-15971198D01*
X8422824Y-15971198D02*
X8413300Y-16009293D01*
X8413300Y-16009293D02*
X8403777Y-16028341D01*
X8403777Y-16028341D02*
X8394253Y-16037865D01*
X8394253Y-16037865D02*
X8375205Y-16047389D01*
X8375205Y-16047389D02*
X8356157Y-16047389D01*
X8356157Y-16047389D02*
X8337110Y-16037865D01*
X8337110Y-16037865D02*
X8327586Y-16028341D01*
X8327586Y-16028341D02*
X8318062Y-16009293D01*
X8318062Y-16009293D02*
X8308538Y-15971198D01*
X8308538Y-15971198D02*
X8308538Y-15923579D01*
X8308538Y-15923579D02*
X8318062Y-15885484D01*
X8318062Y-15885484D02*
X8327586Y-15866436D01*
X8327586Y-15866436D02*
X8337110Y-15856913D01*
X8337110Y-15856913D02*
X8356157Y-15847389D01*
X8546634Y-15847389D02*
X8565681Y-15847389D01*
X8565681Y-15847389D02*
X8584729Y-15856913D01*
X8584729Y-15856913D02*
X8594253Y-15866436D01*
X8594253Y-15866436D02*
X8603777Y-15885484D01*
X8603777Y-15885484D02*
X8613300Y-15923579D01*
X8613300Y-15923579D02*
X8613300Y-15971198D01*
X8613300Y-15971198D02*
X8603777Y-16009293D01*
X8603777Y-16009293D02*
X8594253Y-16028341D01*
X8594253Y-16028341D02*
X8584729Y-16037865D01*
X8584729Y-16037865D02*
X8565681Y-16047389D01*
X8565681Y-16047389D02*
X8546634Y-16047389D01*
X8546634Y-16047389D02*
X8527586Y-16037865D01*
X8527586Y-16037865D02*
X8518062Y-16028341D01*
X8518062Y-16028341D02*
X8508539Y-16009293D01*
X8508539Y-16009293D02*
X8499015Y-15971198D01*
X8499015Y-15971198D02*
X8499015Y-15923579D01*
X8499015Y-15923579D02*
X8508539Y-15885484D01*
X8508539Y-15885484D02*
X8518062Y-15866436D01*
X8518062Y-15866436D02*
X8527586Y-15856913D01*
X8527586Y-15856913D02*
X8546634Y-15847389D01*
X8699015Y-16047389D02*
X8699015Y-15914055D01*
X8699015Y-15933103D02*
X8708539Y-15923579D01*
X8708539Y-15923579D02*
X8727586Y-15914055D01*
X8727586Y-15914055D02*
X8756158Y-15914055D01*
X8756158Y-15914055D02*
X8775205Y-15923579D01*
X8775205Y-15923579D02*
X8784729Y-15942627D01*
X8784729Y-15942627D02*
X8784729Y-16047389D01*
X8784729Y-15942627D02*
X8794253Y-15923579D01*
X8794253Y-15923579D02*
X8813300Y-15914055D01*
X8813300Y-15914055D02*
X8841872Y-15914055D01*
X8841872Y-15914055D02*
X8860920Y-15923579D01*
X8860920Y-15923579D02*
X8870443Y-15942627D01*
X8870443Y-15942627D02*
X8870443Y-16047389D01*
X8965681Y-16047389D02*
X8965681Y-15914055D01*
X8965681Y-15933103D02*
X8975205Y-15923579D01*
X8975205Y-15923579D02*
X8994253Y-15914055D01*
X8994253Y-15914055D02*
X9022824Y-15914055D01*
X9022824Y-15914055D02*
X9041872Y-15923579D01*
X9041872Y-15923579D02*
X9051396Y-15942627D01*
X9051396Y-15942627D02*
X9051396Y-16047389D01*
X9051396Y-15942627D02*
X9060920Y-15923579D01*
X9060920Y-15923579D02*
X9079967Y-15914055D01*
X9079967Y-15914055D02*
X9108539Y-15914055D01*
X9108539Y-15914055D02*
X9127586Y-15923579D01*
X9127586Y-15923579D02*
X9137110Y-15942627D01*
X9137110Y-15942627D02*
X9137110Y-16047389D01*
X9527586Y-15837865D02*
X9356158Y-16095008D01*
X9784729Y-15847389D02*
X9803777Y-15847389D01*
X9803777Y-15847389D02*
X9822824Y-15856913D01*
X9822824Y-15856913D02*
X9832348Y-15866436D01*
X9832348Y-15866436D02*
X9841872Y-15885484D01*
X9841872Y-15885484D02*
X9851396Y-15923579D01*
X9851396Y-15923579D02*
X9851396Y-15971198D01*
X9851396Y-15971198D02*
X9841872Y-16009293D01*
X9841872Y-16009293D02*
X9832348Y-16028341D01*
X9832348Y-16028341D02*
X9822824Y-16037865D01*
X9822824Y-16037865D02*
X9803777Y-16047389D01*
X9803777Y-16047389D02*
X9784729Y-16047389D01*
X9784729Y-16047389D02*
X9765682Y-16037865D01*
X9765682Y-16037865D02*
X9756158Y-16028341D01*
X9756158Y-16028341D02*
X9746634Y-16009293D01*
X9746634Y-16009293D02*
X9737110Y-15971198D01*
X9737110Y-15971198D02*
X9737110Y-15923579D01*
X9737110Y-15923579D02*
X9746634Y-15885484D01*
X9746634Y-15885484D02*
X9756158Y-15866436D01*
X9756158Y-15866436D02*
X9765682Y-15856913D01*
X9765682Y-15856913D02*
X9784729Y-15847389D01*
X9937110Y-16028341D02*
X9946634Y-16037865D01*
X9946634Y-16037865D02*
X9937110Y-16047389D01*
X9937110Y-16047389D02*
X9927586Y-16037865D01*
X9927586Y-16037865D02*
X9937110Y-16028341D01*
X9937110Y-16028341D02*
X9937110Y-16047389D01*
X10137110Y-16047389D02*
X10022824Y-16047389D01*
X10079967Y-16047389D02*
X10079967Y-15847389D01*
X10079967Y-15847389D02*
X10060920Y-15875960D01*
X10060920Y-15875960D02*
X10041872Y-15895008D01*
X10041872Y-15895008D02*
X10022824Y-15904532D01*
X10260920Y-15847389D02*
X10279967Y-15847389D01*
X10279967Y-15847389D02*
X10299015Y-15856913D01*
X10299015Y-15856913D02*
X10308539Y-15866436D01*
X10308539Y-15866436D02*
X10318063Y-15885484D01*
X10318063Y-15885484D02*
X10327586Y-15923579D01*
X10327586Y-15923579D02*
X10327586Y-15971198D01*
X10327586Y-15971198D02*
X10318063Y-16009293D01*
X10318063Y-16009293D02*
X10308539Y-16028341D01*
X10308539Y-16028341D02*
X10299015Y-16037865D01*
X10299015Y-16037865D02*
X10279967Y-16047389D01*
X10279967Y-16047389D02*
X10260920Y-16047389D01*
X10260920Y-16047389D02*
X10241872Y-16037865D01*
X10241872Y-16037865D02*
X10232348Y-16028341D01*
X10232348Y-16028341D02*
X10222824Y-16009293D01*
X10222824Y-16009293D02*
X10213301Y-15971198D01*
X10213301Y-15971198D02*
X10213301Y-15923579D01*
X10213301Y-15923579D02*
X10222824Y-15885484D01*
X10222824Y-15885484D02*
X10232348Y-15866436D01*
X10232348Y-15866436D02*
X10241872Y-15856913D01*
X10241872Y-15856913D02*
X10260920Y-15847389D01*
X10499015Y-15847389D02*
X10460920Y-15847389D01*
X10460920Y-15847389D02*
X10441872Y-15856913D01*
X10441872Y-15856913D02*
X10432348Y-15866436D01*
X10432348Y-15866436D02*
X10413301Y-15895008D01*
X10413301Y-15895008D02*
X10403777Y-15933103D01*
X10403777Y-15933103D02*
X10403777Y-16009293D01*
X10403777Y-16009293D02*
X10413301Y-16028341D01*
X10413301Y-16028341D02*
X10422824Y-16037865D01*
X10422824Y-16037865D02*
X10441872Y-16047389D01*
X10441872Y-16047389D02*
X10479967Y-16047389D01*
X10479967Y-16047389D02*
X10499015Y-16037865D01*
X10499015Y-16037865D02*
X10508539Y-16028341D01*
X10508539Y-16028341D02*
X10518063Y-16009293D01*
X10518063Y-16009293D02*
X10518063Y-15961674D01*
X10518063Y-15961674D02*
X10508539Y-15942627D01*
X10508539Y-15942627D02*
X10499015Y-15933103D01*
X10499015Y-15933103D02*
X10479967Y-15923579D01*
X10479967Y-15923579D02*
X10441872Y-15923579D01*
X10441872Y-15923579D02*
X10422824Y-15933103D01*
X10422824Y-15933103D02*
X10413301Y-15942627D01*
X10413301Y-15942627D02*
X10403777Y-15961674D01*
X10584729Y-15847389D02*
X10708539Y-15847389D01*
X10708539Y-15847389D02*
X10641872Y-15923579D01*
X10641872Y-15923579D02*
X10670444Y-15923579D01*
X10670444Y-15923579D02*
X10689491Y-15933103D01*
X10689491Y-15933103D02*
X10699015Y-15942627D01*
X10699015Y-15942627D02*
X10708539Y-15961674D01*
X10708539Y-15961674D02*
X10708539Y-16009293D01*
X10708539Y-16009293D02*
X10699015Y-16028341D01*
X10699015Y-16028341D02*
X10689491Y-16037865D01*
X10689491Y-16037865D02*
X10670444Y-16047389D01*
X10670444Y-16047389D02*
X10613301Y-16047389D01*
X10613301Y-16047389D02*
X10594253Y-16037865D01*
X10594253Y-16037865D02*
X10584729Y-16028341D01*
X10784729Y-15847389D02*
X10784729Y-15885484D01*
X10860920Y-15847389D02*
X10860920Y-15885484D01*
X11156158Y-16123579D02*
X11146634Y-16114055D01*
X11146634Y-16114055D02*
X11127586Y-16085484D01*
X11127586Y-16085484D02*
X11118063Y-16066436D01*
X11118063Y-16066436D02*
X11108539Y-16037865D01*
X11108539Y-16037865D02*
X11099015Y-15990246D01*
X11099015Y-15990246D02*
X11099015Y-15952151D01*
X11099015Y-15952151D02*
X11108539Y-15904532D01*
X11108539Y-15904532D02*
X11118063Y-15875960D01*
X11118063Y-15875960D02*
X11127586Y-15856913D01*
X11127586Y-15856913D02*
X11146634Y-15828341D01*
X11146634Y-15828341D02*
X11156158Y-15818817D01*
X11213301Y-15847389D02*
X11337110Y-15847389D01*
X11337110Y-15847389D02*
X11270443Y-15923579D01*
X11270443Y-15923579D02*
X11299015Y-15923579D01*
X11299015Y-15923579D02*
X11318063Y-15933103D01*
X11318063Y-15933103D02*
X11327586Y-15942627D01*
X11327586Y-15942627D02*
X11337110Y-15961674D01*
X11337110Y-15961674D02*
X11337110Y-16009293D01*
X11337110Y-16009293D02*
X11327586Y-16028341D01*
X11327586Y-16028341D02*
X11318063Y-16037865D01*
X11318063Y-16037865D02*
X11299015Y-16047389D01*
X11299015Y-16047389D02*
X11241872Y-16047389D01*
X11241872Y-16047389D02*
X11222824Y-16037865D01*
X11222824Y-16037865D02*
X11213301Y-16028341D01*
X11575205Y-16047389D02*
X11575205Y-15847389D01*
X11660920Y-16047389D02*
X11660920Y-15942627D01*
X11660920Y-15942627D02*
X11651396Y-15923579D01*
X11651396Y-15923579D02*
X11632348Y-15914055D01*
X11632348Y-15914055D02*
X11603777Y-15914055D01*
X11603777Y-15914055D02*
X11584729Y-15923579D01*
X11584729Y-15923579D02*
X11575205Y-15933103D01*
X11784729Y-16047389D02*
X11765682Y-16037865D01*
X11765682Y-16037865D02*
X11756158Y-16028341D01*
X11756158Y-16028341D02*
X11746634Y-16009293D01*
X11746634Y-16009293D02*
X11746634Y-15952151D01*
X11746634Y-15952151D02*
X11756158Y-15933103D01*
X11756158Y-15933103D02*
X11765682Y-15923579D01*
X11765682Y-15923579D02*
X11784729Y-15914055D01*
X11784729Y-15914055D02*
X11813301Y-15914055D01*
X11813301Y-15914055D02*
X11832348Y-15923579D01*
X11832348Y-15923579D02*
X11841872Y-15933103D01*
X11841872Y-15933103D02*
X11851396Y-15952151D01*
X11851396Y-15952151D02*
X11851396Y-16009293D01*
X11851396Y-16009293D02*
X11841872Y-16028341D01*
X11841872Y-16028341D02*
X11832348Y-16037865D01*
X11832348Y-16037865D02*
X11813301Y-16047389D01*
X11813301Y-16047389D02*
X11784729Y-16047389D01*
X11965682Y-16047389D02*
X11946634Y-16037865D01*
X11946634Y-16037865D02*
X11937110Y-16018817D01*
X11937110Y-16018817D02*
X11937110Y-15847389D01*
X12118063Y-16037865D02*
X12099015Y-16047389D01*
X12099015Y-16047389D02*
X12060920Y-16047389D01*
X12060920Y-16047389D02*
X12041872Y-16037865D01*
X12041872Y-16037865D02*
X12032348Y-16018817D01*
X12032348Y-16018817D02*
X12032348Y-15942627D01*
X12032348Y-15942627D02*
X12041872Y-15923579D01*
X12041872Y-15923579D02*
X12060920Y-15914055D01*
X12060920Y-15914055D02*
X12099015Y-15914055D01*
X12099015Y-15914055D02*
X12118063Y-15923579D01*
X12118063Y-15923579D02*
X12127586Y-15942627D01*
X12127586Y-15942627D02*
X12127586Y-15961674D01*
X12127586Y-15961674D02*
X12032348Y-15980722D01*
X12203777Y-16037865D02*
X12222825Y-16047389D01*
X12222825Y-16047389D02*
X12260920Y-16047389D01*
X12260920Y-16047389D02*
X12279967Y-16037865D01*
X12279967Y-16037865D02*
X12289491Y-16018817D01*
X12289491Y-16018817D02*
X12289491Y-16009293D01*
X12289491Y-16009293D02*
X12279967Y-15990246D01*
X12279967Y-15990246D02*
X12260920Y-15980722D01*
X12260920Y-15980722D02*
X12232348Y-15980722D01*
X12232348Y-15980722D02*
X12213301Y-15971198D01*
X12213301Y-15971198D02*
X12203777Y-15952151D01*
X12203777Y-15952151D02*
X12203777Y-15942627D01*
X12203777Y-15942627D02*
X12213301Y-15923579D01*
X12213301Y-15923579D02*
X12232348Y-15914055D01*
X12232348Y-15914055D02*
X12260920Y-15914055D01*
X12260920Y-15914055D02*
X12279967Y-15923579D01*
X12356158Y-16123579D02*
X12365682Y-16114055D01*
X12365682Y-16114055D02*
X12384729Y-16085484D01*
X12384729Y-16085484D02*
X12394253Y-16066436D01*
X12394253Y-16066436D02*
X12403777Y-16037865D01*
X12403777Y-16037865D02*
X12413301Y-15990246D01*
X12413301Y-15990246D02*
X12413301Y-15952151D01*
X12413301Y-15952151D02*
X12403777Y-15904532D01*
X12403777Y-15904532D02*
X12394253Y-15875960D01*
X12394253Y-15875960D02*
X12384729Y-15856913D01*
X12384729Y-15856913D02*
X12365682Y-15828341D01*
X12365682Y-15828341D02*
X12356158Y-15818817D01*
X12718063Y-16123579D02*
X12708539Y-16114055D01*
X12708539Y-16114055D02*
X12689491Y-16085484D01*
X12689491Y-16085484D02*
X12679967Y-16066436D01*
X12679967Y-16066436D02*
X12670444Y-16037865D01*
X12670444Y-16037865D02*
X12660920Y-15990246D01*
X12660920Y-15990246D02*
X12660920Y-15952151D01*
X12660920Y-15952151D02*
X12670444Y-15904532D01*
X12670444Y-15904532D02*
X12679967Y-15875960D01*
X12679967Y-15875960D02*
X12689491Y-15856913D01*
X12689491Y-15856913D02*
X12708539Y-15828341D01*
X12708539Y-15828341D02*
X12718063Y-15818817D01*
X12794253Y-15914055D02*
X12794253Y-16047389D01*
X12794253Y-15933103D02*
X12803777Y-15923579D01*
X12803777Y-15923579D02*
X12822825Y-15914055D01*
X12822825Y-15914055D02*
X12851396Y-15914055D01*
X12851396Y-15914055D02*
X12870444Y-15923579D01*
X12870444Y-15923579D02*
X12879967Y-15942627D01*
X12879967Y-15942627D02*
X12879967Y-16047389D01*
X13003777Y-16047389D02*
X12984729Y-16037865D01*
X12984729Y-16037865D02*
X12975206Y-16028341D01*
X12975206Y-16028341D02*
X12965682Y-16009293D01*
X12965682Y-16009293D02*
X12965682Y-15952151D01*
X12965682Y-15952151D02*
X12975206Y-15933103D01*
X12975206Y-15933103D02*
X12984729Y-15923579D01*
X12984729Y-15923579D02*
X13003777Y-15914055D01*
X13003777Y-15914055D02*
X13032348Y-15914055D01*
X13032348Y-15914055D02*
X13051396Y-15923579D01*
X13051396Y-15923579D02*
X13060920Y-15933103D01*
X13060920Y-15933103D02*
X13070444Y-15952151D01*
X13070444Y-15952151D02*
X13070444Y-16009293D01*
X13070444Y-16009293D02*
X13060920Y-16028341D01*
X13060920Y-16028341D02*
X13051396Y-16037865D01*
X13051396Y-16037865D02*
X13032348Y-16047389D01*
X13032348Y-16047389D02*
X13003777Y-16047389D01*
X13127587Y-15914055D02*
X13203777Y-15914055D01*
X13156158Y-15847389D02*
X13156158Y-16018817D01*
X13156158Y-16018817D02*
X13165682Y-16037865D01*
X13165682Y-16037865D02*
X13184729Y-16047389D01*
X13184729Y-16047389D02*
X13203777Y-16047389D01*
X13422825Y-15914055D02*
X13422825Y-16114055D01*
X13422825Y-15923579D02*
X13441872Y-15914055D01*
X13441872Y-15914055D02*
X13479968Y-15914055D01*
X13479968Y-15914055D02*
X13499015Y-15923579D01*
X13499015Y-15923579D02*
X13508539Y-15933103D01*
X13508539Y-15933103D02*
X13518063Y-15952151D01*
X13518063Y-15952151D02*
X13518063Y-16009293D01*
X13518063Y-16009293D02*
X13508539Y-16028341D01*
X13508539Y-16028341D02*
X13499015Y-16037865D01*
X13499015Y-16037865D02*
X13479968Y-16047389D01*
X13479968Y-16047389D02*
X13441872Y-16047389D01*
X13441872Y-16047389D02*
X13422825Y-16037865D01*
X13632348Y-16047389D02*
X13613301Y-16037865D01*
X13613301Y-16037865D02*
X13603777Y-16018817D01*
X13603777Y-16018817D02*
X13603777Y-15847389D01*
X13794253Y-16047389D02*
X13794253Y-15942627D01*
X13794253Y-15942627D02*
X13784729Y-15923579D01*
X13784729Y-15923579D02*
X13765682Y-15914055D01*
X13765682Y-15914055D02*
X13727587Y-15914055D01*
X13727587Y-15914055D02*
X13708539Y-15923579D01*
X13794253Y-16037865D02*
X13775206Y-16047389D01*
X13775206Y-16047389D02*
X13727587Y-16047389D01*
X13727587Y-16047389D02*
X13708539Y-16037865D01*
X13708539Y-16037865D02*
X13699015Y-16018817D01*
X13699015Y-16018817D02*
X13699015Y-15999770D01*
X13699015Y-15999770D02*
X13708539Y-15980722D01*
X13708539Y-15980722D02*
X13727587Y-15971198D01*
X13727587Y-15971198D02*
X13775206Y-15971198D01*
X13775206Y-15971198D02*
X13794253Y-15961674D01*
X13860920Y-15914055D02*
X13937110Y-15914055D01*
X13889491Y-15847389D02*
X13889491Y-16018817D01*
X13889491Y-16018817D02*
X13899015Y-16037865D01*
X13899015Y-16037865D02*
X13918063Y-16047389D01*
X13918063Y-16047389D02*
X13937110Y-16047389D01*
X14079968Y-16037865D02*
X14060920Y-16047389D01*
X14060920Y-16047389D02*
X14022825Y-16047389D01*
X14022825Y-16047389D02*
X14003777Y-16037865D01*
X14003777Y-16037865D02*
X13994253Y-16018817D01*
X13994253Y-16018817D02*
X13994253Y-15942627D01*
X13994253Y-15942627D02*
X14003777Y-15923579D01*
X14003777Y-15923579D02*
X14022825Y-15914055D01*
X14022825Y-15914055D02*
X14060920Y-15914055D01*
X14060920Y-15914055D02*
X14079968Y-15923579D01*
X14079968Y-15923579D02*
X14089491Y-15942627D01*
X14089491Y-15942627D02*
X14089491Y-15961674D01*
X14089491Y-15961674D02*
X13994253Y-15980722D01*
X14260920Y-16047389D02*
X14260920Y-15847389D01*
X14260920Y-16037865D02*
X14241872Y-16047389D01*
X14241872Y-16047389D02*
X14203777Y-16047389D01*
X14203777Y-16047389D02*
X14184729Y-16037865D01*
X14184729Y-16037865D02*
X14175206Y-16028341D01*
X14175206Y-16028341D02*
X14165682Y-16009293D01*
X14165682Y-16009293D02*
X14165682Y-15952151D01*
X14165682Y-15952151D02*
X14175206Y-15933103D01*
X14175206Y-15933103D02*
X14184729Y-15923579D01*
X14184729Y-15923579D02*
X14203777Y-15914055D01*
X14203777Y-15914055D02*
X14241872Y-15914055D01*
X14241872Y-15914055D02*
X14260920Y-15923579D01*
X14337110Y-16123579D02*
X14346634Y-16114055D01*
X14346634Y-16114055D02*
X14365682Y-16085484D01*
X14365682Y-16085484D02*
X14375206Y-16066436D01*
X14375206Y-16066436D02*
X14384729Y-16037865D01*
X14384729Y-16037865D02*
X14394253Y-15990246D01*
X14394253Y-15990246D02*
X14394253Y-15952151D01*
X14394253Y-15952151D02*
X14384729Y-15904532D01*
X14384729Y-15904532D02*
X14375206Y-15875960D01*
X14375206Y-15875960D02*
X14365682Y-15856913D01*
X14365682Y-15856913D02*
X14346634Y-15828341D01*
X14346634Y-15828341D02*
X14337110Y-15818817D01*
M02*
