%TF.GenerationSoftware,KiCad,Pcbnew,9.0.8-1.fc43*%
%TF.CreationDate,2026-04-18T09:25:11+01:00*%
%TF.ProjectId,Scrumpi_JN,53637275-6d70-4695-9f4a-4e2e6b696361,rev?*%
%TF.SameCoordinates,Original*%
%TF.FileFunction,Drillmap*%
%TF.FilePolarity,Positive*%
%FSLAX45Y45*%
G04 Gerber Fmt 4.5, Leading zero omitted, Abs format (unit mm)*
G04 Created by KiCad (PCBNEW 9.0.8-1.fc43) date 2026-04-18 09:25:11*
%MOMM*%
%LPD*%
G01*
G04 APERTURE LIST*
%ADD10C,0.038100*%
%ADD11C,0.200000*%
%ADD12C,0.100000*%
G04 APERTURE END LIST*
D10*
X7673000Y-2585000D02*
X24183000Y-2585000D01*
X24183000Y-15285000D01*
X7673000Y-15285000D01*
X7673000Y-2585000D01*
D11*
D12*
X8140000Y-10300000D02*
X8220000Y-10380000D01*
X8220000Y-10300000D02*
X8140000Y-10380000D01*
X8140000Y-10700000D02*
X8220000Y-10780000D01*
X8220000Y-10700000D02*
X8140000Y-10780000D01*
X8140000Y-11100000D02*
X8220000Y-11180000D01*
X8220000Y-11100000D02*
X8140000Y-11180000D01*
X8140000Y-11500000D02*
X8220000Y-11580000D01*
X8220000Y-11500000D02*
X8140000Y-11580000D01*
X8144000Y-12060000D02*
X8224000Y-12140000D01*
X8224000Y-12060000D02*
X8144000Y-12140000D01*
X8144000Y-12460000D02*
X8224000Y-12540000D01*
X8224000Y-12460000D02*
X8144000Y-12540000D01*
X8144000Y-12860000D02*
X8224000Y-12940000D01*
X8224000Y-12860000D02*
X8144000Y-12940000D01*
X8144000Y-13260000D02*
X8224000Y-13340000D01*
X8224000Y-13260000D02*
X8144000Y-13340000D01*
X8145000Y-8565000D02*
X8225000Y-8645000D01*
X8225000Y-8565000D02*
X8145000Y-8645000D01*
X8145000Y-8965000D02*
X8225000Y-9045000D01*
X8225000Y-8965000D02*
X8145000Y-9045000D01*
X8145000Y-9365000D02*
X8225000Y-9445000D01*
X8225000Y-9365000D02*
X8145000Y-9445000D01*
X8145000Y-9765000D02*
X8225000Y-9845000D01*
X8225000Y-9765000D02*
X8145000Y-9845000D01*
X8265000Y-4980000D02*
X8345000Y-5060000D01*
X8345000Y-4980000D02*
X8265000Y-5060000D01*
X8265000Y-5380000D02*
X8345000Y-5460000D01*
X8345000Y-5380000D02*
X8265000Y-5460000D01*
X8265000Y-5780000D02*
X8345000Y-5860000D01*
X8345000Y-5780000D02*
X8265000Y-5860000D01*
X8265000Y-6180000D02*
X8345000Y-6260000D01*
X8345000Y-6180000D02*
X8265000Y-6260000D01*
X8270000Y-3130000D02*
X8350000Y-3210000D01*
X8350000Y-3130000D02*
X8270000Y-3210000D01*
X8270000Y-3530000D02*
X8350000Y-3610000D01*
X8350000Y-3530000D02*
X8270000Y-3610000D01*
X8270000Y-3930000D02*
X8350000Y-4010000D01*
X8350000Y-3930000D02*
X8270000Y-4010000D01*
X8270000Y-4330000D02*
X8350000Y-4410000D01*
X8350000Y-4330000D02*
X8270000Y-4410000D01*
X8350000Y-6795000D02*
X8430000Y-6875000D01*
X8430000Y-6795000D02*
X8350000Y-6875000D01*
X8350000Y-7195000D02*
X8430000Y-7275000D01*
X8430000Y-7195000D02*
X8350000Y-7275000D01*
X8350000Y-7595000D02*
X8430000Y-7675000D01*
X8430000Y-7595000D02*
X8350000Y-7675000D01*
X8350000Y-7995000D02*
X8430000Y-8075000D01*
X8430000Y-7995000D02*
X8350000Y-8075000D01*
X8440000Y-10300000D02*
X8520000Y-10380000D01*
X8520000Y-10300000D02*
X8440000Y-10380000D01*
X8440000Y-10700000D02*
X8520000Y-10780000D01*
X8520000Y-10700000D02*
X8440000Y-10780000D01*
X8440000Y-11100000D02*
X8520000Y-11180000D01*
X8520000Y-11100000D02*
X8440000Y-11180000D01*
X8440000Y-11500000D02*
X8520000Y-11580000D01*
X8520000Y-11500000D02*
X8440000Y-11580000D01*
X8444000Y-12060000D02*
X8524000Y-12140000D01*
X8524000Y-12060000D02*
X8444000Y-12140000D01*
X8444000Y-12460000D02*
X8524000Y-12540000D01*
X8524000Y-12460000D02*
X8444000Y-12540000D01*
X8444000Y-12860000D02*
X8524000Y-12940000D01*
X8524000Y-12860000D02*
X8444000Y-12940000D01*
X8444000Y-13260000D02*
X8524000Y-13340000D01*
X8524000Y-13260000D02*
X8444000Y-13340000D01*
X8445000Y-8565000D02*
X8525000Y-8645000D01*
X8525000Y-8565000D02*
X8445000Y-8645000D01*
X8445000Y-8965000D02*
X8525000Y-9045000D01*
X8525000Y-8965000D02*
X8445000Y-9045000D01*
X8445000Y-9365000D02*
X8525000Y-9445000D01*
X8525000Y-9365000D02*
X8445000Y-9445000D01*
X8445000Y-9765000D02*
X8525000Y-9845000D01*
X8525000Y-9765000D02*
X8445000Y-9845000D01*
X8565000Y-4980000D02*
X8645000Y-5060000D01*
X8645000Y-4980000D02*
X8565000Y-5060000D01*
X8565000Y-5380000D02*
X8645000Y-5460000D01*
X8645000Y-5380000D02*
X8565000Y-5460000D01*
X8565000Y-5780000D02*
X8645000Y-5860000D01*
X8645000Y-5780000D02*
X8565000Y-5860000D01*
X8565000Y-6180000D02*
X8645000Y-6260000D01*
X8645000Y-6180000D02*
X8565000Y-6260000D01*
X8570000Y-3130000D02*
X8650000Y-3210000D01*
X8650000Y-3130000D02*
X8570000Y-3210000D01*
X8570000Y-3530000D02*
X8650000Y-3610000D01*
X8650000Y-3530000D02*
X8570000Y-3610000D01*
X8570000Y-3930000D02*
X8650000Y-4010000D01*
X8650000Y-3930000D02*
X8570000Y-4010000D01*
X8570000Y-4330000D02*
X8650000Y-4410000D01*
X8650000Y-4330000D02*
X8570000Y-4410000D01*
X8650000Y-6795000D02*
X8730000Y-6875000D01*
X8730000Y-6795000D02*
X8650000Y-6875000D01*
X8650000Y-7195000D02*
X8730000Y-7275000D01*
X8730000Y-7195000D02*
X8650000Y-7275000D01*
X8650000Y-7595000D02*
X8730000Y-7675000D01*
X8730000Y-7595000D02*
X8650000Y-7675000D01*
X8650000Y-7995000D02*
X8730000Y-8075000D01*
X8730000Y-7995000D02*
X8650000Y-8075000D01*
X9389000Y-4441000D02*
X9469000Y-4521000D01*
X9469000Y-4441000D02*
X9389000Y-4521000D01*
X9389000Y-4695000D02*
X9469000Y-4775000D01*
X9469000Y-4695000D02*
X9389000Y-4775000D01*
X9389000Y-4949000D02*
X9469000Y-5029000D01*
X9469000Y-4949000D02*
X9389000Y-5029000D01*
X9389000Y-5203000D02*
X9469000Y-5283000D01*
X9469000Y-5203000D02*
X9389000Y-5283000D01*
X9389000Y-5457000D02*
X9469000Y-5537000D01*
X9469000Y-5457000D02*
X9389000Y-5537000D01*
X9389000Y-5711000D02*
X9469000Y-5791000D01*
X9469000Y-5711000D02*
X9389000Y-5791000D01*
X9389000Y-5965000D02*
X9469000Y-6045000D01*
X9469000Y-5965000D02*
X9389000Y-6045000D01*
X9391000Y-7077000D02*
X9471000Y-7157000D01*
X9471000Y-7077000D02*
X9391000Y-7157000D01*
X9391000Y-7331000D02*
X9471000Y-7411000D01*
X9471000Y-7331000D02*
X9391000Y-7411000D01*
X9391000Y-7585000D02*
X9471000Y-7665000D01*
X9471000Y-7585000D02*
X9391000Y-7665000D01*
X9391000Y-7839000D02*
X9471000Y-7919000D01*
X9471000Y-7839000D02*
X9391000Y-7919000D01*
X9391000Y-8093000D02*
X9471000Y-8173000D01*
X9471000Y-8093000D02*
X9391000Y-8173000D01*
X9391000Y-8347000D02*
X9471000Y-8427000D01*
X9471000Y-8347000D02*
X9391000Y-8427000D01*
X9391000Y-8601000D02*
X9471000Y-8681000D01*
X9471000Y-8601000D02*
X9391000Y-8681000D01*
X9395000Y-13430000D02*
X9475000Y-13510000D01*
X9475000Y-13430000D02*
X9395000Y-13510000D01*
X9401000Y-11264000D02*
X9481000Y-11344000D01*
X9481000Y-11264000D02*
X9401000Y-11344000D01*
X9401000Y-11518000D02*
X9481000Y-11598000D01*
X9481000Y-11518000D02*
X9401000Y-11598000D01*
X9401000Y-11772000D02*
X9481000Y-11852000D01*
X9481000Y-11772000D02*
X9401000Y-11852000D01*
X9401000Y-12026000D02*
X9481000Y-12106000D01*
X9481000Y-12026000D02*
X9401000Y-12106000D01*
X9401000Y-12280000D02*
X9481000Y-12360000D01*
X9481000Y-12280000D02*
X9401000Y-12360000D01*
X9401000Y-12534000D02*
X9481000Y-12614000D01*
X9481000Y-12534000D02*
X9401000Y-12614000D01*
X9401000Y-12788000D02*
X9481000Y-12868000D01*
X9481000Y-12788000D02*
X9401000Y-12868000D01*
X9402000Y-9214000D02*
X9482000Y-9294000D01*
X9482000Y-9214000D02*
X9402000Y-9294000D01*
X9402000Y-9468000D02*
X9482000Y-9548000D01*
X9482000Y-9468000D02*
X9402000Y-9548000D01*
X9402000Y-9722000D02*
X9482000Y-9802000D01*
X9482000Y-9722000D02*
X9402000Y-9802000D01*
X9402000Y-9976000D02*
X9482000Y-10056000D01*
X9482000Y-9976000D02*
X9402000Y-10056000D01*
X9402000Y-10230000D02*
X9482000Y-10310000D01*
X9482000Y-10230000D02*
X9402000Y-10310000D01*
X9402000Y-10484000D02*
X9482000Y-10564000D01*
X9482000Y-10484000D02*
X9402000Y-10564000D01*
X9402000Y-10738000D02*
X9482000Y-10818000D01*
X9482000Y-10738000D02*
X9402000Y-10818000D01*
X9415000Y-3515000D02*
X9495000Y-3595000D01*
X9495000Y-3515000D02*
X9415000Y-3595000D01*
X10151000Y-4441000D02*
X10231000Y-4521000D01*
X10231000Y-4441000D02*
X10151000Y-4521000D01*
X10151000Y-4695000D02*
X10231000Y-4775000D01*
X10231000Y-4695000D02*
X10151000Y-4775000D01*
X10151000Y-4949000D02*
X10231000Y-5029000D01*
X10231000Y-4949000D02*
X10151000Y-5029000D01*
X10151000Y-5203000D02*
X10231000Y-5283000D01*
X10231000Y-5203000D02*
X10151000Y-5283000D01*
X10151000Y-5457000D02*
X10231000Y-5537000D01*
X10231000Y-5457000D02*
X10151000Y-5537000D01*
X10151000Y-5711000D02*
X10231000Y-5791000D01*
X10231000Y-5711000D02*
X10151000Y-5791000D01*
X10151000Y-5965000D02*
X10231000Y-6045000D01*
X10231000Y-5965000D02*
X10151000Y-6045000D01*
X10153000Y-7077000D02*
X10233000Y-7157000D01*
X10233000Y-7077000D02*
X10153000Y-7157000D01*
X10153000Y-7331000D02*
X10233000Y-7411000D01*
X10233000Y-7331000D02*
X10153000Y-7411000D01*
X10153000Y-7585000D02*
X10233000Y-7665000D01*
X10233000Y-7585000D02*
X10153000Y-7665000D01*
X10153000Y-7839000D02*
X10233000Y-7919000D01*
X10233000Y-7839000D02*
X10153000Y-7919000D01*
X10153000Y-8093000D02*
X10233000Y-8173000D01*
X10233000Y-8093000D02*
X10153000Y-8173000D01*
X10153000Y-8347000D02*
X10233000Y-8427000D01*
X10233000Y-8347000D02*
X10153000Y-8427000D01*
X10153000Y-8601000D02*
X10233000Y-8681000D01*
X10233000Y-8601000D02*
X10153000Y-8681000D01*
X10155000Y-3515000D02*
X10235000Y-3595000D01*
X10235000Y-3515000D02*
X10155000Y-3595000D01*
X10163000Y-11264000D02*
X10243000Y-11344000D01*
X10243000Y-11264000D02*
X10163000Y-11344000D01*
X10163000Y-11518000D02*
X10243000Y-11598000D01*
X10243000Y-11518000D02*
X10163000Y-11598000D01*
X10163000Y-11772000D02*
X10243000Y-11852000D01*
X10243000Y-11772000D02*
X10163000Y-11852000D01*
X10163000Y-12026000D02*
X10243000Y-12106000D01*
X10243000Y-12026000D02*
X10163000Y-12106000D01*
X10163000Y-12280000D02*
X10243000Y-12360000D01*
X10243000Y-12280000D02*
X10163000Y-12360000D01*
X10163000Y-12534000D02*
X10243000Y-12614000D01*
X10243000Y-12534000D02*
X10163000Y-12614000D01*
X10163000Y-12788000D02*
X10243000Y-12868000D01*
X10243000Y-12788000D02*
X10163000Y-12868000D01*
X10164000Y-9214000D02*
X10244000Y-9294000D01*
X10244000Y-9214000D02*
X10164000Y-9294000D01*
X10164000Y-9468000D02*
X10244000Y-9548000D01*
X10244000Y-9468000D02*
X10164000Y-9548000D01*
X10164000Y-9722000D02*
X10244000Y-9802000D01*
X10244000Y-9722000D02*
X10164000Y-9802000D01*
X10164000Y-9976000D02*
X10244000Y-10056000D01*
X10244000Y-9976000D02*
X10164000Y-10056000D01*
X10164000Y-10230000D02*
X10244000Y-10310000D01*
X10244000Y-10230000D02*
X10164000Y-10310000D01*
X10164000Y-10484000D02*
X10244000Y-10564000D01*
X10244000Y-10484000D02*
X10164000Y-10564000D01*
X10164000Y-10738000D02*
X10244000Y-10818000D01*
X10244000Y-10738000D02*
X10164000Y-10818000D01*
X10175000Y-13432000D02*
X10255000Y-13512000D01*
X10255000Y-13432000D02*
X10175000Y-13512000D01*
X10410000Y-9220000D02*
X10490000Y-9300000D01*
X10490000Y-9220000D02*
X10410000Y-9300000D01*
X10414745Y-7090000D02*
X10494745Y-7170000D01*
X10494745Y-7090000D02*
X10414745Y-7170000D01*
X10415000Y-4440000D02*
X10495000Y-4520000D01*
X10495000Y-4440000D02*
X10415000Y-4520000D01*
X10416000Y-2996000D02*
X10496000Y-3076000D01*
X10496000Y-2996000D02*
X10416000Y-3076000D01*
X10664745Y-7090000D02*
X10744745Y-7170000D01*
X10744745Y-7090000D02*
X10664745Y-7170000D01*
X10670000Y-9220000D02*
X10750000Y-9300000D01*
X10750000Y-9220000D02*
X10670000Y-9300000D01*
X10670000Y-11265000D02*
X10750000Y-11345000D01*
X10750000Y-11265000D02*
X10670000Y-11345000D01*
X10680000Y-4440000D02*
X10760000Y-4520000D01*
X10760000Y-4440000D02*
X10680000Y-4520000D01*
X10975000Y-10840000D02*
X11055000Y-10920000D01*
X11055000Y-10840000D02*
X10975000Y-10920000D01*
X11120000Y-13690000D02*
X11200000Y-13770000D01*
X11200000Y-13690000D02*
X11120000Y-13770000D01*
X11285000Y-5710000D02*
X11365000Y-5790000D01*
X11365000Y-5710000D02*
X11285000Y-5790000D01*
X11285000Y-6060000D02*
X11365000Y-6140000D01*
X11365000Y-6060000D02*
X11285000Y-6140000D01*
X11285000Y-6360000D02*
X11365000Y-6440000D01*
X11365000Y-6360000D02*
X11285000Y-6440000D01*
X11285000Y-6710000D02*
X11365000Y-6790000D01*
X11365000Y-6710000D02*
X11285000Y-6790000D01*
X11320000Y-9575000D02*
X11400000Y-9655000D01*
X11400000Y-9575000D02*
X11320000Y-9655000D01*
X11320000Y-9830000D02*
X11400000Y-9910000D01*
X11400000Y-9830000D02*
X11320000Y-9910000D01*
X11320000Y-10085000D02*
X11400000Y-10165000D01*
X11400000Y-10085000D02*
X11320000Y-10165000D01*
X11320000Y-10340000D02*
X11400000Y-10420000D01*
X11400000Y-10340000D02*
X11320000Y-10420000D01*
X11574000Y-4333000D02*
X11654000Y-4413000D01*
X11654000Y-4333000D02*
X11574000Y-4413000D01*
X11580000Y-3340000D02*
X11660000Y-3420000D01*
X11660000Y-3340000D02*
X11580000Y-3420000D01*
X11730000Y-9575000D02*
X11810000Y-9655000D01*
X11810000Y-9575000D02*
X11730000Y-9655000D01*
X11730000Y-9829000D02*
X11810000Y-9909000D01*
X11810000Y-9829000D02*
X11730000Y-9909000D01*
X11730000Y-10083000D02*
X11810000Y-10163000D01*
X11810000Y-10083000D02*
X11730000Y-10163000D01*
X11730000Y-10337000D02*
X11810000Y-10417000D01*
X11810000Y-10337000D02*
X11730000Y-10417000D01*
X11730000Y-10591000D02*
X11810000Y-10671000D01*
X11810000Y-10591000D02*
X11730000Y-10671000D01*
X11730000Y-10845000D02*
X11810000Y-10925000D01*
X11810000Y-10845000D02*
X11730000Y-10925000D01*
X11730000Y-11099000D02*
X11810000Y-11179000D01*
X11810000Y-11099000D02*
X11730000Y-11179000D01*
X11730000Y-11353000D02*
X11810000Y-11433000D01*
X11810000Y-11353000D02*
X11730000Y-11433000D01*
X11738000Y-13106000D02*
X11818000Y-13186000D01*
X11818000Y-13106000D02*
X11738000Y-13186000D01*
X11744255Y-11713398D02*
X11824255Y-11793398D01*
X11824255Y-11713398D02*
X11744255Y-11793398D01*
X11745000Y-13690000D02*
X11825000Y-13770000D01*
X11825000Y-13690000D02*
X11745000Y-13770000D01*
X11768044Y-5278244D02*
X11848044Y-5358244D01*
X11848044Y-5278244D02*
X11768044Y-5358244D01*
X11937000Y-3329000D02*
X12017000Y-3409000D01*
X12017000Y-3329000D02*
X11937000Y-3409000D01*
X11937000Y-3583000D02*
X12017000Y-3663000D01*
X12017000Y-3583000D02*
X11937000Y-3663000D01*
X11937000Y-3837000D02*
X12017000Y-3917000D01*
X12017000Y-3837000D02*
X11937000Y-3917000D01*
X11937000Y-4091000D02*
X12017000Y-4171000D01*
X12017000Y-4091000D02*
X11937000Y-4171000D01*
X11937000Y-4345000D02*
X12017000Y-4425000D01*
X12017000Y-4345000D02*
X11937000Y-4425000D01*
X11937000Y-4599000D02*
X12017000Y-4679000D01*
X12017000Y-4599000D02*
X11937000Y-4679000D01*
X11937000Y-4853000D02*
X12017000Y-4933000D01*
X12017000Y-4853000D02*
X11937000Y-4933000D01*
X12380000Y-13685000D02*
X12460000Y-13765000D01*
X12460000Y-13685000D02*
X12380000Y-13765000D01*
X12492000Y-9575000D02*
X12572000Y-9655000D01*
X12572000Y-9575000D02*
X12492000Y-9655000D01*
X12492000Y-9829000D02*
X12572000Y-9909000D01*
X12572000Y-9829000D02*
X12492000Y-9909000D01*
X12492000Y-10083000D02*
X12572000Y-10163000D01*
X12572000Y-10083000D02*
X12492000Y-10163000D01*
X12492000Y-10337000D02*
X12572000Y-10417000D01*
X12572000Y-10337000D02*
X12492000Y-10417000D01*
X12492000Y-10591000D02*
X12572000Y-10671000D01*
X12572000Y-10591000D02*
X12492000Y-10671000D01*
X12492000Y-10845000D02*
X12572000Y-10925000D01*
X12572000Y-10845000D02*
X12492000Y-10925000D01*
X12492000Y-11099000D02*
X12572000Y-11179000D01*
X12572000Y-11099000D02*
X12492000Y-11179000D01*
X12492000Y-11353000D02*
X12572000Y-11433000D01*
X12572000Y-11353000D02*
X12492000Y-11433000D01*
X12699000Y-3329000D02*
X12779000Y-3409000D01*
X12779000Y-3329000D02*
X12699000Y-3409000D01*
X12699000Y-3583000D02*
X12779000Y-3663000D01*
X12779000Y-3583000D02*
X12699000Y-3663000D01*
X12699000Y-3837000D02*
X12779000Y-3917000D01*
X12779000Y-3837000D02*
X12699000Y-3917000D01*
X12699000Y-4091000D02*
X12779000Y-4171000D01*
X12779000Y-4091000D02*
X12699000Y-4171000D01*
X12699000Y-4345000D02*
X12779000Y-4425000D01*
X12779000Y-4345000D02*
X12699000Y-4425000D01*
X12699000Y-4599000D02*
X12779000Y-4679000D01*
X12779000Y-4599000D02*
X12699000Y-4679000D01*
X12699000Y-4853000D02*
X12779000Y-4933000D01*
X12779000Y-4853000D02*
X12699000Y-4933000D01*
X13050000Y-4610000D02*
X13130000Y-4690000D01*
X13130000Y-4610000D02*
X13050000Y-4690000D01*
X13050000Y-4860000D02*
X13130000Y-4940000D01*
X13130000Y-4860000D02*
X13050000Y-4940000D01*
X13060000Y-3600000D02*
X13140000Y-3680000D01*
X13140000Y-3600000D02*
X13060000Y-3680000D01*
X13110000Y-9570000D02*
X13190000Y-9650000D01*
X13190000Y-9570000D02*
X13110000Y-9650000D01*
X13110000Y-9825000D02*
X13190000Y-9905000D01*
X13190000Y-9825000D02*
X13110000Y-9905000D01*
X13110000Y-10080000D02*
X13190000Y-10160000D01*
X13190000Y-10080000D02*
X13110000Y-10160000D01*
X13110000Y-10330000D02*
X13190000Y-10410000D01*
X13190000Y-10330000D02*
X13110000Y-10410000D01*
X13125000Y-7015000D02*
X13205000Y-7095000D01*
X13205000Y-7015000D02*
X13125000Y-7095000D01*
X13125000Y-7360000D02*
X13205000Y-7440000D01*
X13205000Y-7360000D02*
X13125000Y-7440000D01*
X13125000Y-7660000D02*
X13205000Y-7740000D01*
X13205000Y-7660000D02*
X13125000Y-7740000D01*
X13125000Y-7965000D02*
X13205000Y-8045000D01*
X13205000Y-7965000D02*
X13125000Y-8045000D01*
X13519000Y-9571000D02*
X13599000Y-9651000D01*
X13599000Y-9571000D02*
X13519000Y-9651000D01*
X13519000Y-9825000D02*
X13599000Y-9905000D01*
X13599000Y-9825000D02*
X13519000Y-9905000D01*
X13519000Y-10079000D02*
X13599000Y-10159000D01*
X13599000Y-10079000D02*
X13519000Y-10159000D01*
X13519000Y-10333000D02*
X13599000Y-10413000D01*
X13599000Y-10333000D02*
X13519000Y-10413000D01*
X13519000Y-10587000D02*
X13599000Y-10667000D01*
X13599000Y-10587000D02*
X13519000Y-10667000D01*
X13519000Y-10841000D02*
X13599000Y-10921000D01*
X13599000Y-10841000D02*
X13519000Y-10921000D01*
X13519000Y-11095000D02*
X13599000Y-11175000D01*
X13599000Y-11095000D02*
X13519000Y-11175000D01*
X13519000Y-11349000D02*
X13599000Y-11429000D01*
X13599000Y-11349000D02*
X13519000Y-11429000D01*
X13520000Y-3579000D02*
X13600000Y-3659000D01*
X13600000Y-3579000D02*
X13520000Y-3659000D01*
X13520000Y-3834000D02*
X13600000Y-3914000D01*
X13600000Y-3834000D02*
X13520000Y-3914000D01*
X13520000Y-4089000D02*
X13600000Y-4169000D01*
X13600000Y-4089000D02*
X13520000Y-4169000D01*
X13520000Y-4339000D02*
X13600000Y-4419000D01*
X13600000Y-4339000D02*
X13520000Y-4419000D01*
X13520000Y-3080000D02*
X13600000Y-3160000D01*
X13600000Y-3080000D02*
X13520000Y-3160000D01*
X13520000Y-4610000D02*
X13600000Y-4690000D01*
X13600000Y-4610000D02*
X13520000Y-4690000D01*
X13679000Y-13095000D02*
X13759000Y-13175000D01*
X13759000Y-13095000D02*
X13679000Y-13175000D01*
X13865000Y-3074000D02*
X13945000Y-3154000D01*
X13945000Y-3074000D02*
X13865000Y-3154000D01*
X13865000Y-3328000D02*
X13945000Y-3408000D01*
X13945000Y-3328000D02*
X13865000Y-3408000D01*
X13865000Y-3582000D02*
X13945000Y-3662000D01*
X13945000Y-3582000D02*
X13865000Y-3662000D01*
X13865000Y-3836000D02*
X13945000Y-3916000D01*
X13945000Y-3836000D02*
X13865000Y-3916000D01*
X13865000Y-4090000D02*
X13945000Y-4170000D01*
X13945000Y-4090000D02*
X13865000Y-4170000D01*
X13865000Y-4344000D02*
X13945000Y-4424000D01*
X13945000Y-4344000D02*
X13865000Y-4424000D01*
X13865000Y-4598000D02*
X13945000Y-4678000D01*
X13945000Y-4598000D02*
X13865000Y-4678000D01*
X13865000Y-4852000D02*
X13945000Y-4932000D01*
X13945000Y-4852000D02*
X13865000Y-4932000D01*
X14281000Y-9571000D02*
X14361000Y-9651000D01*
X14361000Y-9571000D02*
X14281000Y-9651000D01*
X14281000Y-9825000D02*
X14361000Y-9905000D01*
X14361000Y-9825000D02*
X14281000Y-9905000D01*
X14281000Y-10079000D02*
X14361000Y-10159000D01*
X14361000Y-10079000D02*
X14281000Y-10159000D01*
X14281000Y-10333000D02*
X14361000Y-10413000D01*
X14361000Y-10333000D02*
X14281000Y-10413000D01*
X14281000Y-10587000D02*
X14361000Y-10667000D01*
X14361000Y-10587000D02*
X14281000Y-10667000D01*
X14281000Y-10841000D02*
X14361000Y-10921000D01*
X14361000Y-10841000D02*
X14281000Y-10921000D01*
X14281000Y-11095000D02*
X14361000Y-11175000D01*
X14361000Y-11095000D02*
X14281000Y-11175000D01*
X14281000Y-11349000D02*
X14361000Y-11429000D01*
X14361000Y-11349000D02*
X14281000Y-11429000D01*
X14452000Y-13119000D02*
X14532000Y-13199000D01*
X14532000Y-13119000D02*
X14452000Y-13199000D01*
X14627000Y-3074000D02*
X14707000Y-3154000D01*
X14707000Y-3074000D02*
X14627000Y-3154000D01*
X14627000Y-3328000D02*
X14707000Y-3408000D01*
X14707000Y-3328000D02*
X14627000Y-3408000D01*
X14627000Y-3582000D02*
X14707000Y-3662000D01*
X14707000Y-3582000D02*
X14627000Y-3662000D01*
X14627000Y-3836000D02*
X14707000Y-3916000D01*
X14707000Y-3836000D02*
X14627000Y-3916000D01*
X14627000Y-4090000D02*
X14707000Y-4170000D01*
X14707000Y-4090000D02*
X14627000Y-4170000D01*
X14627000Y-4344000D02*
X14707000Y-4424000D01*
X14707000Y-4344000D02*
X14627000Y-4424000D01*
X14627000Y-4598000D02*
X14707000Y-4678000D01*
X14707000Y-4598000D02*
X14627000Y-4678000D01*
X14627000Y-4852000D02*
X14707000Y-4932000D01*
X14707000Y-4852000D02*
X14627000Y-4932000D01*
X14777000Y-10717000D02*
X14857000Y-10797000D01*
X14857000Y-10717000D02*
X14777000Y-10797000D01*
X14778000Y-12623000D02*
X14858000Y-12703000D01*
X14858000Y-12623000D02*
X14778000Y-12703000D01*
X14825000Y-9575000D02*
X14905000Y-9655000D01*
X14905000Y-9575000D02*
X14825000Y-9655000D01*
X14826000Y-9320000D02*
X14906000Y-9400000D01*
X14906000Y-9320000D02*
X14826000Y-9400000D01*
X14940000Y-3584000D02*
X15020000Y-3664000D01*
X15020000Y-3584000D02*
X14940000Y-3664000D01*
X14940000Y-3834000D02*
X15020000Y-3914000D01*
X15020000Y-3834000D02*
X14940000Y-3914000D01*
X14940000Y-4094000D02*
X15020000Y-4174000D01*
X15020000Y-4094000D02*
X14940000Y-4174000D01*
X14940000Y-4344000D02*
X15020000Y-4424000D01*
X15020000Y-4344000D02*
X14940000Y-4424000D01*
X14941000Y-4856000D02*
X15021000Y-4936000D01*
X15021000Y-4856000D02*
X14941000Y-4936000D01*
X14947000Y-3332000D02*
X15027000Y-3412000D01*
X15027000Y-3332000D02*
X14947000Y-3412000D01*
X15080000Y-9320000D02*
X15160000Y-9400000D01*
X15160000Y-9320000D02*
X15080000Y-9400000D01*
X15086000Y-8265000D02*
X15166000Y-8345000D01*
X15166000Y-8265000D02*
X15086000Y-8345000D01*
X15337000Y-12372000D02*
X15417000Y-12452000D01*
X15417000Y-12372000D02*
X15337000Y-12452000D01*
X15338000Y-11612000D02*
X15418000Y-11692000D01*
X15418000Y-11612000D02*
X15338000Y-11692000D01*
X15338000Y-11862000D02*
X15418000Y-11942000D01*
X15418000Y-11862000D02*
X15338000Y-11942000D01*
X15338000Y-12116000D02*
X15418000Y-12196000D01*
X15418000Y-12116000D02*
X15338000Y-12196000D01*
X15340000Y-10592000D02*
X15420000Y-10672000D01*
X15420000Y-10592000D02*
X15340000Y-10672000D01*
X15340000Y-11100000D02*
X15420000Y-11180000D01*
X15420000Y-11100000D02*
X15340000Y-11180000D01*
X15340000Y-11352000D02*
X15420000Y-11432000D01*
X15420000Y-11352000D02*
X15340000Y-11432000D01*
X15340000Y-12633000D02*
X15420000Y-12713000D01*
X15420000Y-12633000D02*
X15340000Y-12713000D01*
X15341000Y-10335000D02*
X15421000Y-10415000D01*
X15421000Y-10335000D02*
X15341000Y-10415000D01*
X15341000Y-10843000D02*
X15421000Y-10923000D01*
X15421000Y-10843000D02*
X15341000Y-10923000D01*
X15344000Y-7342000D02*
X15424000Y-7422000D01*
X15424000Y-7342000D02*
X15344000Y-7422000D01*
X15344000Y-10082000D02*
X15424000Y-10162000D01*
X15424000Y-10082000D02*
X15344000Y-10162000D01*
X15345000Y-7013000D02*
X15425000Y-7093000D01*
X15425000Y-7013000D02*
X15345000Y-7093000D01*
X15345000Y-9821000D02*
X15425000Y-9901000D01*
X15425000Y-9821000D02*
X15345000Y-9901000D01*
X15346000Y-5715000D02*
X15426000Y-5795000D01*
X15426000Y-5715000D02*
X15346000Y-5795000D01*
X15346000Y-6361000D02*
X15426000Y-6441000D01*
X15426000Y-6361000D02*
X15346000Y-6441000D01*
X15347745Y-6017898D02*
X15427745Y-6097898D01*
X15427745Y-6017898D02*
X15347745Y-6097898D01*
X15349000Y-6686000D02*
X15429000Y-6766000D01*
X15429000Y-6686000D02*
X15349000Y-6766000D01*
X15349000Y-7666000D02*
X15429000Y-7746000D01*
X15429000Y-7666000D02*
X15349000Y-7746000D01*
X15349000Y-7960000D02*
X15429000Y-8040000D01*
X15429000Y-7960000D02*
X15349000Y-8040000D01*
X15367000Y-3090000D02*
X15447000Y-3170000D01*
X15447000Y-3090000D02*
X15367000Y-3170000D01*
X15370000Y-3589000D02*
X15450000Y-3669000D01*
X15450000Y-3589000D02*
X15370000Y-3669000D01*
X15370000Y-3849000D02*
X15450000Y-3929000D01*
X15450000Y-3849000D02*
X15370000Y-3929000D01*
X15370000Y-4099000D02*
X15450000Y-4179000D01*
X15450000Y-4099000D02*
X15370000Y-4179000D01*
X15370000Y-4349000D02*
X15450000Y-4429000D01*
X15450000Y-4349000D02*
X15370000Y-4429000D01*
X15370000Y-4600000D02*
X15450000Y-4680000D01*
X15450000Y-4600000D02*
X15370000Y-4680000D01*
X15606000Y-8460000D02*
X15686000Y-8540000D01*
X15686000Y-8460000D02*
X15606000Y-8540000D01*
X15689000Y-3080000D02*
X15769000Y-3160000D01*
X15769000Y-3080000D02*
X15689000Y-3160000D01*
X15689000Y-3334000D02*
X15769000Y-3414000D01*
X15769000Y-3334000D02*
X15689000Y-3414000D01*
X15689000Y-3588000D02*
X15769000Y-3668000D01*
X15769000Y-3588000D02*
X15689000Y-3668000D01*
X15689000Y-3842000D02*
X15769000Y-3922000D01*
X15769000Y-3842000D02*
X15689000Y-3922000D01*
X15689000Y-4096000D02*
X15769000Y-4176000D01*
X15769000Y-4096000D02*
X15689000Y-4176000D01*
X15689000Y-4350000D02*
X15769000Y-4430000D01*
X15769000Y-4350000D02*
X15689000Y-4430000D01*
X15689000Y-4604000D02*
X15769000Y-4684000D01*
X15769000Y-4604000D02*
X15689000Y-4684000D01*
X15689000Y-4858000D02*
X15769000Y-4938000D01*
X15769000Y-4858000D02*
X15689000Y-4938000D01*
X15850000Y-8817000D02*
X15930000Y-8897000D01*
X15930000Y-8817000D02*
X15850000Y-8897000D01*
X15850000Y-9071000D02*
X15930000Y-9151000D01*
X15930000Y-9071000D02*
X15850000Y-9151000D01*
X15850000Y-9325000D02*
X15930000Y-9405000D01*
X15930000Y-9325000D02*
X15850000Y-9405000D01*
X15850000Y-9579000D02*
X15930000Y-9659000D01*
X15930000Y-9579000D02*
X15850000Y-9659000D01*
X15850000Y-9833000D02*
X15930000Y-9913000D01*
X15930000Y-9833000D02*
X15850000Y-9913000D01*
X15850000Y-10087000D02*
X15930000Y-10167000D01*
X15930000Y-10087000D02*
X15850000Y-10167000D01*
X15850000Y-10341000D02*
X15930000Y-10421000D01*
X15930000Y-10341000D02*
X15850000Y-10421000D01*
X15850000Y-10595000D02*
X15930000Y-10675000D01*
X15930000Y-10595000D02*
X15850000Y-10675000D01*
X15850000Y-10849000D02*
X15930000Y-10929000D01*
X15930000Y-10849000D02*
X15850000Y-10929000D01*
X15850000Y-11103000D02*
X15930000Y-11183000D01*
X15930000Y-11103000D02*
X15850000Y-11183000D01*
X15850000Y-11357000D02*
X15930000Y-11437000D01*
X15930000Y-11357000D02*
X15850000Y-11437000D01*
X15850000Y-11611000D02*
X15930000Y-11691000D01*
X15930000Y-11611000D02*
X15850000Y-11691000D01*
X15850000Y-11865000D02*
X15930000Y-11945000D01*
X15930000Y-11865000D02*
X15850000Y-11945000D01*
X15850000Y-12119000D02*
X15930000Y-12199000D01*
X15930000Y-12119000D02*
X15850000Y-12199000D01*
X15850000Y-12373000D02*
X15930000Y-12453000D01*
X15930000Y-12373000D02*
X15850000Y-12453000D01*
X15850000Y-12627000D02*
X15930000Y-12707000D01*
X15930000Y-12627000D02*
X15850000Y-12707000D01*
X15850000Y-12881000D02*
X15930000Y-12961000D01*
X15930000Y-12881000D02*
X15850000Y-12961000D01*
X15850000Y-13135000D02*
X15930000Y-13215000D01*
X15930000Y-13135000D02*
X15850000Y-13215000D01*
X15850000Y-13389000D02*
X15930000Y-13469000D01*
X15930000Y-13389000D02*
X15850000Y-13469000D01*
X15850000Y-13643000D02*
X15930000Y-13723000D01*
X15930000Y-13643000D02*
X15850000Y-13723000D01*
X16451000Y-3080000D02*
X16531000Y-3160000D01*
X16531000Y-3080000D02*
X16451000Y-3160000D01*
X16451000Y-3334000D02*
X16531000Y-3414000D01*
X16531000Y-3334000D02*
X16451000Y-3414000D01*
X16451000Y-3588000D02*
X16531000Y-3668000D01*
X16531000Y-3588000D02*
X16451000Y-3668000D01*
X16451000Y-3842000D02*
X16531000Y-3922000D01*
X16531000Y-3842000D02*
X16451000Y-3922000D01*
X16451000Y-4096000D02*
X16531000Y-4176000D01*
X16531000Y-4096000D02*
X16451000Y-4176000D01*
X16451000Y-4350000D02*
X16531000Y-4430000D01*
X16531000Y-4350000D02*
X16451000Y-4430000D01*
X16451000Y-4604000D02*
X16531000Y-4684000D01*
X16531000Y-4604000D02*
X16451000Y-4684000D01*
X16451000Y-4858000D02*
X16531000Y-4938000D01*
X16531000Y-4858000D02*
X16451000Y-4938000D01*
X16760000Y-3584000D02*
X16840000Y-3664000D01*
X16840000Y-3584000D02*
X16760000Y-3664000D01*
X16760000Y-3834000D02*
X16840000Y-3914000D01*
X16840000Y-3834000D02*
X16760000Y-3914000D01*
X16760000Y-4094000D02*
X16840000Y-4174000D01*
X16840000Y-4094000D02*
X16760000Y-4174000D01*
X16760000Y-4344000D02*
X16840000Y-4424000D01*
X16840000Y-4344000D02*
X16760000Y-4424000D01*
X16760000Y-4865000D02*
X16840000Y-4945000D01*
X16840000Y-4865000D02*
X16760000Y-4945000D01*
X16770000Y-3340000D02*
X16850000Y-3420000D01*
X16850000Y-3340000D02*
X16770000Y-3420000D01*
X17374000Y-8817000D02*
X17454000Y-8897000D01*
X17454000Y-8817000D02*
X17374000Y-8897000D01*
X17374000Y-9071000D02*
X17454000Y-9151000D01*
X17454000Y-9071000D02*
X17374000Y-9151000D01*
X17374000Y-9325000D02*
X17454000Y-9405000D01*
X17454000Y-9325000D02*
X17374000Y-9405000D01*
X17374000Y-9579000D02*
X17454000Y-9659000D01*
X17454000Y-9579000D02*
X17374000Y-9659000D01*
X17374000Y-9833000D02*
X17454000Y-9913000D01*
X17454000Y-9833000D02*
X17374000Y-9913000D01*
X17374000Y-10087000D02*
X17454000Y-10167000D01*
X17454000Y-10087000D02*
X17374000Y-10167000D01*
X17374000Y-10341000D02*
X17454000Y-10421000D01*
X17454000Y-10341000D02*
X17374000Y-10421000D01*
X17374000Y-10595000D02*
X17454000Y-10675000D01*
X17454000Y-10595000D02*
X17374000Y-10675000D01*
X17374000Y-10849000D02*
X17454000Y-10929000D01*
X17454000Y-10849000D02*
X17374000Y-10929000D01*
X17374000Y-11103000D02*
X17454000Y-11183000D01*
X17454000Y-11103000D02*
X17374000Y-11183000D01*
X17374000Y-11357000D02*
X17454000Y-11437000D01*
X17454000Y-11357000D02*
X17374000Y-11437000D01*
X17374000Y-11611000D02*
X17454000Y-11691000D01*
X17454000Y-11611000D02*
X17374000Y-11691000D01*
X17374000Y-11865000D02*
X17454000Y-11945000D01*
X17454000Y-11865000D02*
X17374000Y-11945000D01*
X17374000Y-12119000D02*
X17454000Y-12199000D01*
X17454000Y-12119000D02*
X17374000Y-12199000D01*
X17374000Y-12373000D02*
X17454000Y-12453000D01*
X17454000Y-12373000D02*
X17374000Y-12453000D01*
X17374000Y-12627000D02*
X17454000Y-12707000D01*
X17454000Y-12627000D02*
X17374000Y-12707000D01*
X17374000Y-12881000D02*
X17454000Y-12961000D01*
X17454000Y-12881000D02*
X17374000Y-12961000D01*
X17374000Y-13135000D02*
X17454000Y-13215000D01*
X17454000Y-13135000D02*
X17374000Y-13215000D01*
X17374000Y-13389000D02*
X17454000Y-13469000D01*
X17454000Y-13389000D02*
X17374000Y-13469000D01*
X17374000Y-13643000D02*
X17454000Y-13723000D01*
X17454000Y-13643000D02*
X17374000Y-13723000D01*
X17539000Y-4491000D02*
X17619000Y-4571000D01*
X17619000Y-4491000D02*
X17539000Y-4571000D01*
X17539745Y-7128602D02*
X17619745Y-7208602D01*
X17619745Y-7128602D02*
X17539745Y-7208602D01*
X17540000Y-6405000D02*
X17620000Y-6485000D01*
X17620000Y-6405000D02*
X17540000Y-6485000D01*
X17545000Y-5454000D02*
X17625000Y-5534000D01*
X17625000Y-5454000D02*
X17545000Y-5534000D01*
X17639745Y-8445000D02*
X17719745Y-8525000D01*
X17719745Y-8445000D02*
X17639745Y-8525000D01*
X17719000Y-14219000D02*
X17799000Y-14299000D01*
X17799000Y-14219000D02*
X17719000Y-14299000D01*
X17748000Y-12634000D02*
X17828000Y-12714000D01*
X17828000Y-12634000D02*
X17748000Y-12714000D01*
X18030000Y-13643000D02*
X18110000Y-13723000D01*
X18110000Y-13643000D02*
X18030000Y-13723000D01*
X18035000Y-6405000D02*
X18115000Y-6485000D01*
X18115000Y-6405000D02*
X18035000Y-6485000D01*
X18035000Y-14700000D02*
X18115000Y-14780000D01*
X18115000Y-14700000D02*
X18035000Y-14780000D01*
X18037000Y-7129000D02*
X18117000Y-7209000D01*
X18117000Y-7129000D02*
X18037000Y-7209000D01*
X18116000Y-11995000D02*
X18196000Y-12075000D01*
X18196000Y-11995000D02*
X18116000Y-12075000D01*
X18410000Y-13647000D02*
X18490000Y-13727000D01*
X18490000Y-13647000D02*
X18410000Y-13727000D01*
X18415000Y-14695000D02*
X18495000Y-14775000D01*
X18495000Y-14695000D02*
X18415000Y-14775000D01*
X18753000Y-13862000D02*
X18833000Y-13942000D01*
X18833000Y-13862000D02*
X18753000Y-13942000D01*
X18756000Y-13385000D02*
X18836000Y-13465000D01*
X18836000Y-13385000D02*
X18756000Y-13465000D01*
X19208000Y-12828000D02*
X19288000Y-12908000D01*
X19288000Y-12828000D02*
X19208000Y-12908000D01*
X19208000Y-13082000D02*
X19288000Y-13162000D01*
X19288000Y-13082000D02*
X19208000Y-13162000D01*
X19208000Y-13336000D02*
X19288000Y-13416000D01*
X19288000Y-13336000D02*
X19208000Y-13416000D01*
X19208000Y-13590000D02*
X19288000Y-13670000D01*
X19288000Y-13590000D02*
X19208000Y-13670000D01*
X19208000Y-13844000D02*
X19288000Y-13924000D01*
X19288000Y-13844000D02*
X19208000Y-13924000D01*
X19208000Y-14098000D02*
X19288000Y-14178000D01*
X19288000Y-14098000D02*
X19208000Y-14178000D01*
X19208000Y-14352000D02*
X19288000Y-14432000D01*
X19288000Y-14352000D02*
X19208000Y-14432000D01*
X19970000Y-12828000D02*
X20050000Y-12908000D01*
X20050000Y-12828000D02*
X19970000Y-12908000D01*
X19970000Y-13082000D02*
X20050000Y-13162000D01*
X20050000Y-13082000D02*
X19970000Y-13162000D01*
X19970000Y-13336000D02*
X20050000Y-13416000D01*
X20050000Y-13336000D02*
X19970000Y-13416000D01*
X19970000Y-13590000D02*
X20050000Y-13670000D01*
X20050000Y-13590000D02*
X19970000Y-13670000D01*
X19970000Y-13844000D02*
X20050000Y-13924000D01*
X20050000Y-13844000D02*
X19970000Y-13924000D01*
X19970000Y-14098000D02*
X20050000Y-14178000D01*
X20050000Y-14098000D02*
X19970000Y-14178000D01*
X19970000Y-14352000D02*
X20050000Y-14432000D01*
X20050000Y-14352000D02*
X19970000Y-14432000D01*
X20727000Y-12822000D02*
X20807000Y-12902000D01*
X20807000Y-12822000D02*
X20727000Y-12902000D01*
X20727000Y-13076000D02*
X20807000Y-13156000D01*
X20807000Y-13076000D02*
X20727000Y-13156000D01*
X20727000Y-13330000D02*
X20807000Y-13410000D01*
X20807000Y-13330000D02*
X20727000Y-13410000D01*
X20727000Y-13584000D02*
X20807000Y-13664000D01*
X20807000Y-13584000D02*
X20727000Y-13664000D01*
X20727000Y-13838000D02*
X20807000Y-13918000D01*
X20807000Y-13838000D02*
X20727000Y-13918000D01*
X20727000Y-14092000D02*
X20807000Y-14172000D01*
X20807000Y-14092000D02*
X20727000Y-14172000D01*
X20727000Y-14346000D02*
X20807000Y-14426000D01*
X20807000Y-14346000D02*
X20727000Y-14426000D01*
X21250000Y-11070000D02*
X21330000Y-11150000D01*
X21330000Y-11070000D02*
X21250000Y-11150000D01*
X21489000Y-12822000D02*
X21569000Y-12902000D01*
X21569000Y-12822000D02*
X21489000Y-12902000D01*
X21489000Y-13076000D02*
X21569000Y-13156000D01*
X21569000Y-13076000D02*
X21489000Y-13156000D01*
X21489000Y-13330000D02*
X21569000Y-13410000D01*
X21569000Y-13330000D02*
X21489000Y-13410000D01*
X21489000Y-13584000D02*
X21569000Y-13664000D01*
X21569000Y-13584000D02*
X21489000Y-13664000D01*
X21489000Y-13838000D02*
X21569000Y-13918000D01*
X21569000Y-13838000D02*
X21489000Y-13918000D01*
X21489000Y-14092000D02*
X21569000Y-14172000D01*
X21569000Y-14092000D02*
X21489000Y-14172000D01*
X21489000Y-14346000D02*
X21569000Y-14426000D01*
X21569000Y-14346000D02*
X21489000Y-14426000D01*
X21880000Y-14135000D02*
X21960000Y-14215000D01*
X21960000Y-14135000D02*
X21880000Y-14215000D01*
X21882000Y-13407000D02*
X21962000Y-13487000D01*
X21962000Y-13407000D02*
X21882000Y-13487000D01*
X22030000Y-11070000D02*
X22110000Y-11150000D01*
X22110000Y-11070000D02*
X22030000Y-11150000D01*
X22065000Y-14705000D02*
X22145000Y-14785000D01*
X22145000Y-14705000D02*
X22065000Y-14785000D01*
X22073000Y-14136000D02*
X22153000Y-14216000D01*
X22153000Y-14136000D02*
X22073000Y-14216000D01*
X22299500Y-13574000D02*
X22379500Y-13654000D01*
X22379500Y-13574000D02*
X22299500Y-13654000D01*
X22299500Y-13828000D02*
X22379500Y-13908000D01*
X22379500Y-13828000D02*
X22299500Y-13908000D01*
X22299500Y-14082000D02*
X22379500Y-14162000D01*
X22379500Y-14082000D02*
X22299500Y-14162000D01*
X22299500Y-14336000D02*
X22379500Y-14416000D01*
X22379500Y-14336000D02*
X22299500Y-14416000D01*
X22370000Y-12842000D02*
X22450000Y-12922000D01*
X22450000Y-12842000D02*
X22370000Y-12922000D01*
X22569000Y-12355000D02*
X22649000Y-12435000D01*
X22649000Y-12355000D02*
X22569000Y-12435000D01*
X23061500Y-13574000D02*
X23141500Y-13654000D01*
X23141500Y-13574000D02*
X23061500Y-13654000D01*
X23061500Y-13828000D02*
X23141500Y-13908000D01*
X23141500Y-13828000D02*
X23061500Y-13908000D01*
X23061500Y-14082000D02*
X23141500Y-14162000D01*
X23141500Y-14082000D02*
X23061500Y-14162000D01*
X23061500Y-14336000D02*
X23141500Y-14416000D01*
X23141500Y-14336000D02*
X23061500Y-14416000D01*
X23344000Y-14688000D02*
X23424000Y-14768000D01*
X23424000Y-14688000D02*
X23344000Y-14768000D01*
X23346000Y-13835000D02*
X23426000Y-13915000D01*
X23426000Y-13835000D02*
X23346000Y-13915000D01*
X23594000Y-15078000D02*
X23674000Y-15158000D01*
X23674000Y-15078000D02*
X23594000Y-15158000D01*
X23595000Y-14340000D02*
X23675000Y-14420000D01*
X23675000Y-14340000D02*
X23595000Y-14420000D01*
X23889745Y-11478602D02*
X23969745Y-11558602D01*
X23969745Y-11478602D02*
X23889745Y-11558602D01*
X23892000Y-10712000D02*
X23972000Y-10792000D01*
X23972000Y-10712000D02*
X23892000Y-10792000D01*
D11*
X19245000Y-3640000D02*
G75*
G02*
X19045000Y-3640000I-100000J0D01*
G01*
X19045000Y-3640000D02*
G75*
G02*
X19245000Y-3640000I100000J0D01*
G01*
X19245000Y-4760000D02*
G75*
G02*
X19045000Y-4760000I-100000J0D01*
G01*
X19045000Y-4760000D02*
G75*
G02*
X19245000Y-4760000I100000J0D01*
G01*
X19250000Y-5860000D02*
G75*
G02*
X19050000Y-5860000I-100000J0D01*
G01*
X19050000Y-5860000D02*
G75*
G02*
X19250000Y-5860000I100000J0D01*
G01*
X19250000Y-6960000D02*
G75*
G02*
X19050000Y-6960000I-100000J0D01*
G01*
X19050000Y-6960000D02*
G75*
G02*
X19250000Y-6960000I100000J0D01*
G01*
X19270000Y-8380000D02*
G75*
G02*
X19070000Y-8380000I-100000J0D01*
G01*
X19070000Y-8380000D02*
G75*
G02*
X19270000Y-8380000I100000J0D01*
G01*
X19270000Y-9500000D02*
G75*
G02*
X19070000Y-9500000I-100000J0D01*
G01*
X19070000Y-9500000D02*
G75*
G02*
X19270000Y-9500000I100000J0D01*
G01*
X19270000Y-10580000D02*
G75*
G02*
X19070000Y-10580000I-100000J0D01*
G01*
X19070000Y-10580000D02*
G75*
G02*
X19270000Y-10580000I100000J0D01*
G01*
X19270000Y-11660000D02*
G75*
G02*
X19070000Y-11660000I-100000J0D01*
G01*
X19070000Y-11660000D02*
G75*
G02*
X19270000Y-11660000I100000J0D01*
G01*
X19715000Y-3640000D02*
G75*
G02*
X19515000Y-3640000I-100000J0D01*
G01*
X19515000Y-3640000D02*
G75*
G02*
X19715000Y-3640000I100000J0D01*
G01*
X19715000Y-4760000D02*
G75*
G02*
X19515000Y-4760000I-100000J0D01*
G01*
X19515000Y-4760000D02*
G75*
G02*
X19715000Y-4760000I100000J0D01*
G01*
X19720000Y-5860000D02*
G75*
G02*
X19520000Y-5860000I-100000J0D01*
G01*
X19520000Y-5860000D02*
G75*
G02*
X19720000Y-5860000I100000J0D01*
G01*
X19720000Y-6960000D02*
G75*
G02*
X19520000Y-6960000I-100000J0D01*
G01*
X19520000Y-6960000D02*
G75*
G02*
X19720000Y-6960000I100000J0D01*
G01*
X19740000Y-8380000D02*
G75*
G02*
X19540000Y-8380000I-100000J0D01*
G01*
X19540000Y-8380000D02*
G75*
G02*
X19740000Y-8380000I100000J0D01*
G01*
X19740000Y-9500000D02*
G75*
G02*
X19540000Y-9500000I-100000J0D01*
G01*
X19540000Y-9500000D02*
G75*
G02*
X19740000Y-9500000I100000J0D01*
G01*
X19740000Y-10580000D02*
G75*
G02*
X19540000Y-10580000I-100000J0D01*
G01*
X19540000Y-10580000D02*
G75*
G02*
X19740000Y-10580000I100000J0D01*
G01*
X19740000Y-11660000D02*
G75*
G02*
X19540000Y-11660000I-100000J0D01*
G01*
X19540000Y-11660000D02*
G75*
G02*
X19740000Y-11660000I100000J0D01*
G01*
X20185000Y-3640000D02*
G75*
G02*
X19985000Y-3640000I-100000J0D01*
G01*
X19985000Y-3640000D02*
G75*
G02*
X20185000Y-3640000I100000J0D01*
G01*
X20185000Y-4760000D02*
G75*
G02*
X19985000Y-4760000I-100000J0D01*
G01*
X19985000Y-4760000D02*
G75*
G02*
X20185000Y-4760000I100000J0D01*
G01*
X20190000Y-5860000D02*
G75*
G02*
X19990000Y-5860000I-100000J0D01*
G01*
X19990000Y-5860000D02*
G75*
G02*
X20190000Y-5860000I100000J0D01*
G01*
X20190000Y-6960000D02*
G75*
G02*
X19990000Y-6960000I-100000J0D01*
G01*
X19990000Y-6960000D02*
G75*
G02*
X20190000Y-6960000I100000J0D01*
G01*
X20210000Y-8380000D02*
G75*
G02*
X20010000Y-8380000I-100000J0D01*
G01*
X20010000Y-8380000D02*
G75*
G02*
X20210000Y-8380000I100000J0D01*
G01*
X20210000Y-9500000D02*
G75*
G02*
X20010000Y-9500000I-100000J0D01*
G01*
X20010000Y-9500000D02*
G75*
G02*
X20210000Y-9500000I100000J0D01*
G01*
X20210000Y-10580000D02*
G75*
G02*
X20010000Y-10580000I-100000J0D01*
G01*
X20010000Y-10580000D02*
G75*
G02*
X20210000Y-10580000I100000J0D01*
G01*
X20210000Y-11660000D02*
G75*
G02*
X20010000Y-11660000I-100000J0D01*
G01*
X20010000Y-11660000D02*
G75*
G02*
X20210000Y-11660000I100000J0D01*
G01*
X22219000Y-11655000D02*
G75*
G02*
X22019000Y-11655000I-100000J0D01*
G01*
X22019000Y-11655000D02*
G75*
G02*
X22219000Y-11655000I100000J0D01*
G01*
X22222000Y-8395000D02*
G75*
G02*
X22022000Y-8395000I-100000J0D01*
G01*
X22022000Y-8395000D02*
G75*
G02*
X22222000Y-8395000I100000J0D01*
G01*
X22230000Y-4754000D02*
G75*
G02*
X22030000Y-4754000I-100000J0D01*
G01*
X22030000Y-4754000D02*
G75*
G02*
X22230000Y-4754000I100000J0D01*
G01*
X22232000Y-5799000D02*
G75*
G02*
X22032000Y-5799000I-100000J0D01*
G01*
X22032000Y-5799000D02*
G75*
G02*
X22232000Y-5799000I100000J0D01*
G01*
X22233000Y-9500000D02*
G75*
G02*
X22033000Y-9500000I-100000J0D01*
G01*
X22033000Y-9500000D02*
G75*
G02*
X22233000Y-9500000I100000J0D01*
G01*
X22233000Y-10591000D02*
G75*
G02*
X22033000Y-10591000I-100000J0D01*
G01*
X22033000Y-10591000D02*
G75*
G02*
X22233000Y-10591000I100000J0D01*
G01*
X22234000Y-3641000D02*
G75*
G02*
X22034000Y-3641000I-100000J0D01*
G01*
X22034000Y-3641000D02*
G75*
G02*
X22234000Y-3641000I100000J0D01*
G01*
X22238000Y-6958000D02*
G75*
G02*
X22038000Y-6958000I-100000J0D01*
G01*
X22038000Y-6958000D02*
G75*
G02*
X22238000Y-6958000I100000J0D01*
G01*
X22689000Y-11655000D02*
G75*
G02*
X22489000Y-11655000I-100000J0D01*
G01*
X22489000Y-11655000D02*
G75*
G02*
X22689000Y-11655000I100000J0D01*
G01*
X22692000Y-8395000D02*
G75*
G02*
X22492000Y-8395000I-100000J0D01*
G01*
X22492000Y-8395000D02*
G75*
G02*
X22692000Y-8395000I100000J0D01*
G01*
X22700000Y-4754000D02*
G75*
G02*
X22500000Y-4754000I-100000J0D01*
G01*
X22500000Y-4754000D02*
G75*
G02*
X22700000Y-4754000I100000J0D01*
G01*
X22702000Y-5799000D02*
G75*
G02*
X22502000Y-5799000I-100000J0D01*
G01*
X22502000Y-5799000D02*
G75*
G02*
X22702000Y-5799000I100000J0D01*
G01*
X22703000Y-9500000D02*
G75*
G02*
X22503000Y-9500000I-100000J0D01*
G01*
X22503000Y-9500000D02*
G75*
G02*
X22703000Y-9500000I100000J0D01*
G01*
X22703000Y-10591000D02*
G75*
G02*
X22503000Y-10591000I-100000J0D01*
G01*
X22503000Y-10591000D02*
G75*
G02*
X22703000Y-10591000I100000J0D01*
G01*
X22704000Y-3641000D02*
G75*
G02*
X22504000Y-3641000I-100000J0D01*
G01*
X22504000Y-3641000D02*
G75*
G02*
X22704000Y-3641000I100000J0D01*
G01*
X22708000Y-6958000D02*
G75*
G02*
X22508000Y-6958000I-100000J0D01*
G01*
X22508000Y-6958000D02*
G75*
G02*
X22708000Y-6958000I100000J0D01*
G01*
X23159000Y-11655000D02*
G75*
G02*
X22959000Y-11655000I-100000J0D01*
G01*
X22959000Y-11655000D02*
G75*
G02*
X23159000Y-11655000I100000J0D01*
G01*
X23162000Y-8395000D02*
G75*
G02*
X22962000Y-8395000I-100000J0D01*
G01*
X22962000Y-8395000D02*
G75*
G02*
X23162000Y-8395000I100000J0D01*
G01*
X23170000Y-4754000D02*
G75*
G02*
X22970000Y-4754000I-100000J0D01*
G01*
X22970000Y-4754000D02*
G75*
G02*
X23170000Y-4754000I100000J0D01*
G01*
X23172000Y-5799000D02*
G75*
G02*
X22972000Y-5799000I-100000J0D01*
G01*
X22972000Y-5799000D02*
G75*
G02*
X23172000Y-5799000I100000J0D01*
G01*
X23173000Y-9500000D02*
G75*
G02*
X22973000Y-9500000I-100000J0D01*
G01*
X22973000Y-9500000D02*
G75*
G02*
X23173000Y-9500000I100000J0D01*
G01*
X23173000Y-10591000D02*
G75*
G02*
X22973000Y-10591000I-100000J0D01*
G01*
X22973000Y-10591000D02*
G75*
G02*
X23173000Y-10591000I100000J0D01*
G01*
X23174000Y-3641000D02*
G75*
G02*
X22974000Y-3641000I-100000J0D01*
G01*
X22974000Y-3641000D02*
G75*
G02*
X23174000Y-3641000I100000J0D01*
G01*
X23178000Y-6958000D02*
G75*
G02*
X22978000Y-6958000I-100000J0D01*
G01*
X22978000Y-6958000D02*
G75*
G02*
X23178000Y-6958000I100000J0D01*
G01*
X7931872Y-15598389D02*
X7931872Y-15398389D01*
X7931872Y-15398389D02*
X7979491Y-15398389D01*
X7979491Y-15398389D02*
X8008062Y-15407913D01*
X8008062Y-15407913D02*
X8027110Y-15426960D01*
X8027110Y-15426960D02*
X8036634Y-15446008D01*
X8036634Y-15446008D02*
X8046157Y-15484103D01*
X8046157Y-15484103D02*
X8046157Y-15512674D01*
X8046157Y-15512674D02*
X8036634Y-15550770D01*
X8036634Y-15550770D02*
X8027110Y-15569817D01*
X8027110Y-15569817D02*
X8008062Y-15588865D01*
X8008062Y-15588865D02*
X7979491Y-15598389D01*
X7979491Y-15598389D02*
X7931872Y-15598389D01*
X8131872Y-15598389D02*
X8131872Y-15465055D01*
X8131872Y-15503151D02*
X8141396Y-15484103D01*
X8141396Y-15484103D02*
X8150919Y-15474579D01*
X8150919Y-15474579D02*
X8169967Y-15465055D01*
X8169967Y-15465055D02*
X8189015Y-15465055D01*
X8255681Y-15598389D02*
X8255681Y-15465055D01*
X8255681Y-15398389D02*
X8246157Y-15407913D01*
X8246157Y-15407913D02*
X8255681Y-15417436D01*
X8255681Y-15417436D02*
X8265205Y-15407913D01*
X8265205Y-15407913D02*
X8255681Y-15398389D01*
X8255681Y-15398389D02*
X8255681Y-15417436D01*
X8379491Y-15598389D02*
X8360443Y-15588865D01*
X8360443Y-15588865D02*
X8350919Y-15569817D01*
X8350919Y-15569817D02*
X8350919Y-15398389D01*
X8484253Y-15598389D02*
X8465205Y-15588865D01*
X8465205Y-15588865D02*
X8455681Y-15569817D01*
X8455681Y-15569817D02*
X8455681Y-15398389D01*
X8712824Y-15598389D02*
X8712824Y-15398389D01*
X8712824Y-15398389D02*
X8779491Y-15541246D01*
X8779491Y-15541246D02*
X8846158Y-15398389D01*
X8846158Y-15398389D02*
X8846158Y-15598389D01*
X9027110Y-15598389D02*
X9027110Y-15493627D01*
X9027110Y-15493627D02*
X9017586Y-15474579D01*
X9017586Y-15474579D02*
X8998539Y-15465055D01*
X8998539Y-15465055D02*
X8960443Y-15465055D01*
X8960443Y-15465055D02*
X8941396Y-15474579D01*
X9027110Y-15588865D02*
X9008062Y-15598389D01*
X9008062Y-15598389D02*
X8960443Y-15598389D01*
X8960443Y-15598389D02*
X8941396Y-15588865D01*
X8941396Y-15588865D02*
X8931872Y-15569817D01*
X8931872Y-15569817D02*
X8931872Y-15550770D01*
X8931872Y-15550770D02*
X8941396Y-15531722D01*
X8941396Y-15531722D02*
X8960443Y-15522198D01*
X8960443Y-15522198D02*
X9008062Y-15522198D01*
X9008062Y-15522198D02*
X9027110Y-15512674D01*
X9122348Y-15465055D02*
X9122348Y-15665055D01*
X9122348Y-15474579D02*
X9141396Y-15465055D01*
X9141396Y-15465055D02*
X9179491Y-15465055D01*
X9179491Y-15465055D02*
X9198539Y-15474579D01*
X9198539Y-15474579D02*
X9208062Y-15484103D01*
X9208062Y-15484103D02*
X9217586Y-15503151D01*
X9217586Y-15503151D02*
X9217586Y-15560293D01*
X9217586Y-15560293D02*
X9208062Y-15579341D01*
X9208062Y-15579341D02*
X9198539Y-15588865D01*
X9198539Y-15588865D02*
X9179491Y-15598389D01*
X9179491Y-15598389D02*
X9141396Y-15598389D01*
X9141396Y-15598389D02*
X9122348Y-15588865D01*
X9303300Y-15579341D02*
X9312824Y-15588865D01*
X9312824Y-15588865D02*
X9303300Y-15598389D01*
X9303300Y-15598389D02*
X9293777Y-15588865D01*
X9293777Y-15588865D02*
X9303300Y-15579341D01*
X9303300Y-15579341D02*
X9303300Y-15598389D01*
X9303300Y-15474579D02*
X9312824Y-15484103D01*
X9312824Y-15484103D02*
X9303300Y-15493627D01*
X9303300Y-15493627D02*
X9293777Y-15484103D01*
X9293777Y-15484103D02*
X9303300Y-15474579D01*
X9303300Y-15474579D02*
X9303300Y-15493627D01*
D12*
X7591095Y-15886905D02*
X7671095Y-15966905D01*
X7671095Y-15886905D02*
X7591095Y-15966905D01*
D11*
X7969967Y-15818389D02*
X7989015Y-15818389D01*
X7989015Y-15818389D02*
X8008062Y-15827913D01*
X8008062Y-15827913D02*
X8017586Y-15837436D01*
X8017586Y-15837436D02*
X8027110Y-15856484D01*
X8027110Y-15856484D02*
X8036634Y-15894579D01*
X8036634Y-15894579D02*
X8036634Y-15942198D01*
X8036634Y-15942198D02*
X8027110Y-15980293D01*
X8027110Y-15980293D02*
X8017586Y-15999341D01*
X8017586Y-15999341D02*
X8008062Y-16008865D01*
X8008062Y-16008865D02*
X7989015Y-16018389D01*
X7989015Y-16018389D02*
X7969967Y-16018389D01*
X7969967Y-16018389D02*
X7950919Y-16008865D01*
X7950919Y-16008865D02*
X7941396Y-15999341D01*
X7941396Y-15999341D02*
X7931872Y-15980293D01*
X7931872Y-15980293D02*
X7922348Y-15942198D01*
X7922348Y-15942198D02*
X7922348Y-15894579D01*
X7922348Y-15894579D02*
X7931872Y-15856484D01*
X7931872Y-15856484D02*
X7941396Y-15837436D01*
X7941396Y-15837436D02*
X7950919Y-15827913D01*
X7950919Y-15827913D02*
X7969967Y-15818389D01*
X8122348Y-15999341D02*
X8131872Y-16008865D01*
X8131872Y-16008865D02*
X8122348Y-16018389D01*
X8122348Y-16018389D02*
X8112824Y-16008865D01*
X8112824Y-16008865D02*
X8122348Y-15999341D01*
X8122348Y-15999341D02*
X8122348Y-16018389D01*
X8246157Y-15904103D02*
X8227110Y-15894579D01*
X8227110Y-15894579D02*
X8217586Y-15885055D01*
X8217586Y-15885055D02*
X8208062Y-15866008D01*
X8208062Y-15866008D02*
X8208062Y-15856484D01*
X8208062Y-15856484D02*
X8217586Y-15837436D01*
X8217586Y-15837436D02*
X8227110Y-15827913D01*
X8227110Y-15827913D02*
X8246157Y-15818389D01*
X8246157Y-15818389D02*
X8284253Y-15818389D01*
X8284253Y-15818389D02*
X8303300Y-15827913D01*
X8303300Y-15827913D02*
X8312824Y-15837436D01*
X8312824Y-15837436D02*
X8322348Y-15856484D01*
X8322348Y-15856484D02*
X8322348Y-15866008D01*
X8322348Y-15866008D02*
X8312824Y-15885055D01*
X8312824Y-15885055D02*
X8303300Y-15894579D01*
X8303300Y-15894579D02*
X8284253Y-15904103D01*
X8284253Y-15904103D02*
X8246157Y-15904103D01*
X8246157Y-15904103D02*
X8227110Y-15913627D01*
X8227110Y-15913627D02*
X8217586Y-15923151D01*
X8217586Y-15923151D02*
X8208062Y-15942198D01*
X8208062Y-15942198D02*
X8208062Y-15980293D01*
X8208062Y-15980293D02*
X8217586Y-15999341D01*
X8217586Y-15999341D02*
X8227110Y-16008865D01*
X8227110Y-16008865D02*
X8246157Y-16018389D01*
X8246157Y-16018389D02*
X8284253Y-16018389D01*
X8284253Y-16018389D02*
X8303300Y-16008865D01*
X8303300Y-16008865D02*
X8312824Y-15999341D01*
X8312824Y-15999341D02*
X8322348Y-15980293D01*
X8322348Y-15980293D02*
X8322348Y-15942198D01*
X8322348Y-15942198D02*
X8312824Y-15923151D01*
X8312824Y-15923151D02*
X8303300Y-15913627D01*
X8303300Y-15913627D02*
X8284253Y-15904103D01*
X8446158Y-15818389D02*
X8465205Y-15818389D01*
X8465205Y-15818389D02*
X8484253Y-15827913D01*
X8484253Y-15827913D02*
X8493777Y-15837436D01*
X8493777Y-15837436D02*
X8503300Y-15856484D01*
X8503300Y-15856484D02*
X8512824Y-15894579D01*
X8512824Y-15894579D02*
X8512824Y-15942198D01*
X8512824Y-15942198D02*
X8503300Y-15980293D01*
X8503300Y-15980293D02*
X8493777Y-15999341D01*
X8493777Y-15999341D02*
X8484253Y-16008865D01*
X8484253Y-16008865D02*
X8465205Y-16018389D01*
X8465205Y-16018389D02*
X8446158Y-16018389D01*
X8446158Y-16018389D02*
X8427110Y-16008865D01*
X8427110Y-16008865D02*
X8417586Y-15999341D01*
X8417586Y-15999341D02*
X8408062Y-15980293D01*
X8408062Y-15980293D02*
X8398539Y-15942198D01*
X8398539Y-15942198D02*
X8398539Y-15894579D01*
X8398539Y-15894579D02*
X8408062Y-15856484D01*
X8408062Y-15856484D02*
X8417586Y-15837436D01*
X8417586Y-15837436D02*
X8427110Y-15827913D01*
X8427110Y-15827913D02*
X8446158Y-15818389D01*
X8636634Y-15818389D02*
X8655681Y-15818389D01*
X8655681Y-15818389D02*
X8674729Y-15827913D01*
X8674729Y-15827913D02*
X8684253Y-15837436D01*
X8684253Y-15837436D02*
X8693777Y-15856484D01*
X8693777Y-15856484D02*
X8703300Y-15894579D01*
X8703300Y-15894579D02*
X8703300Y-15942198D01*
X8703300Y-15942198D02*
X8693777Y-15980293D01*
X8693777Y-15980293D02*
X8684253Y-15999341D01*
X8684253Y-15999341D02*
X8674729Y-16008865D01*
X8674729Y-16008865D02*
X8655681Y-16018389D01*
X8655681Y-16018389D02*
X8636634Y-16018389D01*
X8636634Y-16018389D02*
X8617586Y-16008865D01*
X8617586Y-16008865D02*
X8608062Y-15999341D01*
X8608062Y-15999341D02*
X8598539Y-15980293D01*
X8598539Y-15980293D02*
X8589015Y-15942198D01*
X8589015Y-15942198D02*
X8589015Y-15894579D01*
X8589015Y-15894579D02*
X8598539Y-15856484D01*
X8598539Y-15856484D02*
X8608062Y-15837436D01*
X8608062Y-15837436D02*
X8617586Y-15827913D01*
X8617586Y-15827913D02*
X8636634Y-15818389D01*
X8789015Y-16018389D02*
X8789015Y-15885055D01*
X8789015Y-15904103D02*
X8798539Y-15894579D01*
X8798539Y-15894579D02*
X8817586Y-15885055D01*
X8817586Y-15885055D02*
X8846158Y-15885055D01*
X8846158Y-15885055D02*
X8865205Y-15894579D01*
X8865205Y-15894579D02*
X8874729Y-15913627D01*
X8874729Y-15913627D02*
X8874729Y-16018389D01*
X8874729Y-15913627D02*
X8884253Y-15894579D01*
X8884253Y-15894579D02*
X8903300Y-15885055D01*
X8903300Y-15885055D02*
X8931872Y-15885055D01*
X8931872Y-15885055D02*
X8950920Y-15894579D01*
X8950920Y-15894579D02*
X8960443Y-15913627D01*
X8960443Y-15913627D02*
X8960443Y-16018389D01*
X9055681Y-16018389D02*
X9055681Y-15885055D01*
X9055681Y-15904103D02*
X9065205Y-15894579D01*
X9065205Y-15894579D02*
X9084253Y-15885055D01*
X9084253Y-15885055D02*
X9112824Y-15885055D01*
X9112824Y-15885055D02*
X9131872Y-15894579D01*
X9131872Y-15894579D02*
X9141396Y-15913627D01*
X9141396Y-15913627D02*
X9141396Y-16018389D01*
X9141396Y-15913627D02*
X9150920Y-15894579D01*
X9150920Y-15894579D02*
X9169967Y-15885055D01*
X9169967Y-15885055D02*
X9198539Y-15885055D01*
X9198539Y-15885055D02*
X9217586Y-15894579D01*
X9217586Y-15894579D02*
X9227110Y-15913627D01*
X9227110Y-15913627D02*
X9227110Y-16018389D01*
X9617586Y-15808865D02*
X9446158Y-16066008D01*
X9874729Y-15818389D02*
X9893777Y-15818389D01*
X9893777Y-15818389D02*
X9912824Y-15827913D01*
X9912824Y-15827913D02*
X9922348Y-15837436D01*
X9922348Y-15837436D02*
X9931872Y-15856484D01*
X9931872Y-15856484D02*
X9941396Y-15894579D01*
X9941396Y-15894579D02*
X9941396Y-15942198D01*
X9941396Y-15942198D02*
X9931872Y-15980293D01*
X9931872Y-15980293D02*
X9922348Y-15999341D01*
X9922348Y-15999341D02*
X9912824Y-16008865D01*
X9912824Y-16008865D02*
X9893777Y-16018389D01*
X9893777Y-16018389D02*
X9874729Y-16018389D01*
X9874729Y-16018389D02*
X9855682Y-16008865D01*
X9855682Y-16008865D02*
X9846158Y-15999341D01*
X9846158Y-15999341D02*
X9836634Y-15980293D01*
X9836634Y-15980293D02*
X9827110Y-15942198D01*
X9827110Y-15942198D02*
X9827110Y-15894579D01*
X9827110Y-15894579D02*
X9836634Y-15856484D01*
X9836634Y-15856484D02*
X9846158Y-15837436D01*
X9846158Y-15837436D02*
X9855682Y-15827913D01*
X9855682Y-15827913D02*
X9874729Y-15818389D01*
X10027110Y-15999341D02*
X10036634Y-16008865D01*
X10036634Y-16008865D02*
X10027110Y-16018389D01*
X10027110Y-16018389D02*
X10017586Y-16008865D01*
X10017586Y-16008865D02*
X10027110Y-15999341D01*
X10027110Y-15999341D02*
X10027110Y-16018389D01*
X10160443Y-15818389D02*
X10179491Y-15818389D01*
X10179491Y-15818389D02*
X10198539Y-15827913D01*
X10198539Y-15827913D02*
X10208063Y-15837436D01*
X10208063Y-15837436D02*
X10217586Y-15856484D01*
X10217586Y-15856484D02*
X10227110Y-15894579D01*
X10227110Y-15894579D02*
X10227110Y-15942198D01*
X10227110Y-15942198D02*
X10217586Y-15980293D01*
X10217586Y-15980293D02*
X10208063Y-15999341D01*
X10208063Y-15999341D02*
X10198539Y-16008865D01*
X10198539Y-16008865D02*
X10179491Y-16018389D01*
X10179491Y-16018389D02*
X10160443Y-16018389D01*
X10160443Y-16018389D02*
X10141396Y-16008865D01*
X10141396Y-16008865D02*
X10131872Y-15999341D01*
X10131872Y-15999341D02*
X10122348Y-15980293D01*
X10122348Y-15980293D02*
X10112824Y-15942198D01*
X10112824Y-15942198D02*
X10112824Y-15894579D01*
X10112824Y-15894579D02*
X10122348Y-15856484D01*
X10122348Y-15856484D02*
X10131872Y-15837436D01*
X10131872Y-15837436D02*
X10141396Y-15827913D01*
X10141396Y-15827913D02*
X10160443Y-15818389D01*
X10293777Y-15818389D02*
X10417586Y-15818389D01*
X10417586Y-15818389D02*
X10350920Y-15894579D01*
X10350920Y-15894579D02*
X10379491Y-15894579D01*
X10379491Y-15894579D02*
X10398539Y-15904103D01*
X10398539Y-15904103D02*
X10408063Y-15913627D01*
X10408063Y-15913627D02*
X10417586Y-15932674D01*
X10417586Y-15932674D02*
X10417586Y-15980293D01*
X10417586Y-15980293D02*
X10408063Y-15999341D01*
X10408063Y-15999341D02*
X10398539Y-16008865D01*
X10398539Y-16008865D02*
X10379491Y-16018389D01*
X10379491Y-16018389D02*
X10322348Y-16018389D01*
X10322348Y-16018389D02*
X10303301Y-16008865D01*
X10303301Y-16008865D02*
X10293777Y-15999341D01*
X10608063Y-16018389D02*
X10493777Y-16018389D01*
X10550920Y-16018389D02*
X10550920Y-15818389D01*
X10550920Y-15818389D02*
X10531872Y-15846960D01*
X10531872Y-15846960D02*
X10512824Y-15866008D01*
X10512824Y-15866008D02*
X10493777Y-15875532D01*
X10789015Y-15818389D02*
X10693777Y-15818389D01*
X10693777Y-15818389D02*
X10684253Y-15913627D01*
X10684253Y-15913627D02*
X10693777Y-15904103D01*
X10693777Y-15904103D02*
X10712824Y-15894579D01*
X10712824Y-15894579D02*
X10760444Y-15894579D01*
X10760444Y-15894579D02*
X10779491Y-15904103D01*
X10779491Y-15904103D02*
X10789015Y-15913627D01*
X10789015Y-15913627D02*
X10798539Y-15932674D01*
X10798539Y-15932674D02*
X10798539Y-15980293D01*
X10798539Y-15980293D02*
X10789015Y-15999341D01*
X10789015Y-15999341D02*
X10779491Y-16008865D01*
X10779491Y-16008865D02*
X10760444Y-16018389D01*
X10760444Y-16018389D02*
X10712824Y-16018389D01*
X10712824Y-16018389D02*
X10693777Y-16008865D01*
X10693777Y-16008865D02*
X10684253Y-15999341D01*
X10874729Y-15818389D02*
X10874729Y-15856484D01*
X10950920Y-15818389D02*
X10950920Y-15856484D01*
X11246158Y-16094579D02*
X11236634Y-16085055D01*
X11236634Y-16085055D02*
X11217586Y-16056484D01*
X11217586Y-16056484D02*
X11208063Y-16037436D01*
X11208063Y-16037436D02*
X11198539Y-16008865D01*
X11198539Y-16008865D02*
X11189015Y-15961246D01*
X11189015Y-15961246D02*
X11189015Y-15923151D01*
X11189015Y-15923151D02*
X11198539Y-15875532D01*
X11198539Y-15875532D02*
X11208063Y-15846960D01*
X11208063Y-15846960D02*
X11217586Y-15827913D01*
X11217586Y-15827913D02*
X11236634Y-15799341D01*
X11236634Y-15799341D02*
X11246158Y-15789817D01*
X11303301Y-15818389D02*
X11427110Y-15818389D01*
X11427110Y-15818389D02*
X11360443Y-15894579D01*
X11360443Y-15894579D02*
X11389015Y-15894579D01*
X11389015Y-15894579D02*
X11408063Y-15904103D01*
X11408063Y-15904103D02*
X11417586Y-15913627D01*
X11417586Y-15913627D02*
X11427110Y-15932674D01*
X11427110Y-15932674D02*
X11427110Y-15980293D01*
X11427110Y-15980293D02*
X11417586Y-15999341D01*
X11417586Y-15999341D02*
X11408063Y-16008865D01*
X11408063Y-16008865D02*
X11389015Y-16018389D01*
X11389015Y-16018389D02*
X11331872Y-16018389D01*
X11331872Y-16018389D02*
X11312824Y-16008865D01*
X11312824Y-16008865D02*
X11303301Y-15999341D01*
X11541396Y-15904103D02*
X11522348Y-15894579D01*
X11522348Y-15894579D02*
X11512824Y-15885055D01*
X11512824Y-15885055D02*
X11503301Y-15866008D01*
X11503301Y-15866008D02*
X11503301Y-15856484D01*
X11503301Y-15856484D02*
X11512824Y-15837436D01*
X11512824Y-15837436D02*
X11522348Y-15827913D01*
X11522348Y-15827913D02*
X11541396Y-15818389D01*
X11541396Y-15818389D02*
X11579491Y-15818389D01*
X11579491Y-15818389D02*
X11598539Y-15827913D01*
X11598539Y-15827913D02*
X11608063Y-15837436D01*
X11608063Y-15837436D02*
X11617586Y-15856484D01*
X11617586Y-15856484D02*
X11617586Y-15866008D01*
X11617586Y-15866008D02*
X11608063Y-15885055D01*
X11608063Y-15885055D02*
X11598539Y-15894579D01*
X11598539Y-15894579D02*
X11579491Y-15904103D01*
X11579491Y-15904103D02*
X11541396Y-15904103D01*
X11541396Y-15904103D02*
X11522348Y-15913627D01*
X11522348Y-15913627D02*
X11512824Y-15923151D01*
X11512824Y-15923151D02*
X11503301Y-15942198D01*
X11503301Y-15942198D02*
X11503301Y-15980293D01*
X11503301Y-15980293D02*
X11512824Y-15999341D01*
X11512824Y-15999341D02*
X11522348Y-16008865D01*
X11522348Y-16008865D02*
X11541396Y-16018389D01*
X11541396Y-16018389D02*
X11579491Y-16018389D01*
X11579491Y-16018389D02*
X11598539Y-16008865D01*
X11598539Y-16008865D02*
X11608063Y-15999341D01*
X11608063Y-15999341D02*
X11617586Y-15980293D01*
X11617586Y-15980293D02*
X11617586Y-15942198D01*
X11617586Y-15942198D02*
X11608063Y-15923151D01*
X11608063Y-15923151D02*
X11598539Y-15913627D01*
X11598539Y-15913627D02*
X11579491Y-15904103D01*
X11808063Y-16018389D02*
X11693777Y-16018389D01*
X11750920Y-16018389D02*
X11750920Y-15818389D01*
X11750920Y-15818389D02*
X11731872Y-15846960D01*
X11731872Y-15846960D02*
X11712824Y-15866008D01*
X11712824Y-15866008D02*
X11693777Y-15875532D01*
X12046158Y-16018389D02*
X12046158Y-15818389D01*
X12131872Y-16018389D02*
X12131872Y-15913627D01*
X12131872Y-15913627D02*
X12122348Y-15894579D01*
X12122348Y-15894579D02*
X12103301Y-15885055D01*
X12103301Y-15885055D02*
X12074729Y-15885055D01*
X12074729Y-15885055D02*
X12055682Y-15894579D01*
X12055682Y-15894579D02*
X12046158Y-15904103D01*
X12255682Y-16018389D02*
X12236634Y-16008865D01*
X12236634Y-16008865D02*
X12227110Y-15999341D01*
X12227110Y-15999341D02*
X12217586Y-15980293D01*
X12217586Y-15980293D02*
X12217586Y-15923151D01*
X12217586Y-15923151D02*
X12227110Y-15904103D01*
X12227110Y-15904103D02*
X12236634Y-15894579D01*
X12236634Y-15894579D02*
X12255682Y-15885055D01*
X12255682Y-15885055D02*
X12284253Y-15885055D01*
X12284253Y-15885055D02*
X12303301Y-15894579D01*
X12303301Y-15894579D02*
X12312825Y-15904103D01*
X12312825Y-15904103D02*
X12322348Y-15923151D01*
X12322348Y-15923151D02*
X12322348Y-15980293D01*
X12322348Y-15980293D02*
X12312825Y-15999341D01*
X12312825Y-15999341D02*
X12303301Y-16008865D01*
X12303301Y-16008865D02*
X12284253Y-16018389D01*
X12284253Y-16018389D02*
X12255682Y-16018389D01*
X12436634Y-16018389D02*
X12417586Y-16008865D01*
X12417586Y-16008865D02*
X12408063Y-15989817D01*
X12408063Y-15989817D02*
X12408063Y-15818389D01*
X12589015Y-16008865D02*
X12569967Y-16018389D01*
X12569967Y-16018389D02*
X12531872Y-16018389D01*
X12531872Y-16018389D02*
X12512825Y-16008865D01*
X12512825Y-16008865D02*
X12503301Y-15989817D01*
X12503301Y-15989817D02*
X12503301Y-15913627D01*
X12503301Y-15913627D02*
X12512825Y-15894579D01*
X12512825Y-15894579D02*
X12531872Y-15885055D01*
X12531872Y-15885055D02*
X12569967Y-15885055D01*
X12569967Y-15885055D02*
X12589015Y-15894579D01*
X12589015Y-15894579D02*
X12598539Y-15913627D01*
X12598539Y-15913627D02*
X12598539Y-15932674D01*
X12598539Y-15932674D02*
X12503301Y-15951722D01*
X12674729Y-16008865D02*
X12693777Y-16018389D01*
X12693777Y-16018389D02*
X12731872Y-16018389D01*
X12731872Y-16018389D02*
X12750920Y-16008865D01*
X12750920Y-16008865D02*
X12760444Y-15989817D01*
X12760444Y-15989817D02*
X12760444Y-15980293D01*
X12760444Y-15980293D02*
X12750920Y-15961246D01*
X12750920Y-15961246D02*
X12731872Y-15951722D01*
X12731872Y-15951722D02*
X12703301Y-15951722D01*
X12703301Y-15951722D02*
X12684253Y-15942198D01*
X12684253Y-15942198D02*
X12674729Y-15923151D01*
X12674729Y-15923151D02*
X12674729Y-15913627D01*
X12674729Y-15913627D02*
X12684253Y-15894579D01*
X12684253Y-15894579D02*
X12703301Y-15885055D01*
X12703301Y-15885055D02*
X12731872Y-15885055D01*
X12731872Y-15885055D02*
X12750920Y-15894579D01*
X12827110Y-16094579D02*
X12836634Y-16085055D01*
X12836634Y-16085055D02*
X12855682Y-16056484D01*
X12855682Y-16056484D02*
X12865206Y-16037436D01*
X12865206Y-16037436D02*
X12874729Y-16008865D01*
X12874729Y-16008865D02*
X12884253Y-15961246D01*
X12884253Y-15961246D02*
X12884253Y-15923151D01*
X12884253Y-15923151D02*
X12874729Y-15875532D01*
X12874729Y-15875532D02*
X12865206Y-15846960D01*
X12865206Y-15846960D02*
X12855682Y-15827913D01*
X12855682Y-15827913D02*
X12836634Y-15799341D01*
X12836634Y-15799341D02*
X12827110Y-15789817D01*
X7671095Y-16190905D02*
G75*
G02*
X7471095Y-16190905I-100000J0D01*
G01*
X7471095Y-16190905D02*
G75*
G02*
X7671095Y-16190905I100000J0D01*
G01*
X7922348Y-16101436D02*
X7931872Y-16091913D01*
X7931872Y-16091913D02*
X7950919Y-16082389D01*
X7950919Y-16082389D02*
X7998538Y-16082389D01*
X7998538Y-16082389D02*
X8017586Y-16091913D01*
X8017586Y-16091913D02*
X8027110Y-16101436D01*
X8027110Y-16101436D02*
X8036634Y-16120484D01*
X8036634Y-16120484D02*
X8036634Y-16139532D01*
X8036634Y-16139532D02*
X8027110Y-16168103D01*
X8027110Y-16168103D02*
X7912824Y-16282389D01*
X7912824Y-16282389D02*
X8036634Y-16282389D01*
X8122348Y-16263341D02*
X8131872Y-16272865D01*
X8131872Y-16272865D02*
X8122348Y-16282389D01*
X8122348Y-16282389D02*
X8112824Y-16272865D01*
X8112824Y-16272865D02*
X8122348Y-16263341D01*
X8122348Y-16263341D02*
X8122348Y-16282389D01*
X8255681Y-16082389D02*
X8274729Y-16082389D01*
X8274729Y-16082389D02*
X8293777Y-16091913D01*
X8293777Y-16091913D02*
X8303300Y-16101436D01*
X8303300Y-16101436D02*
X8312824Y-16120484D01*
X8312824Y-16120484D02*
X8322348Y-16158579D01*
X8322348Y-16158579D02*
X8322348Y-16206198D01*
X8322348Y-16206198D02*
X8312824Y-16244293D01*
X8312824Y-16244293D02*
X8303300Y-16263341D01*
X8303300Y-16263341D02*
X8293777Y-16272865D01*
X8293777Y-16272865D02*
X8274729Y-16282389D01*
X8274729Y-16282389D02*
X8255681Y-16282389D01*
X8255681Y-16282389D02*
X8236634Y-16272865D01*
X8236634Y-16272865D02*
X8227110Y-16263341D01*
X8227110Y-16263341D02*
X8217586Y-16244293D01*
X8217586Y-16244293D02*
X8208062Y-16206198D01*
X8208062Y-16206198D02*
X8208062Y-16158579D01*
X8208062Y-16158579D02*
X8217586Y-16120484D01*
X8217586Y-16120484D02*
X8227110Y-16101436D01*
X8227110Y-16101436D02*
X8236634Y-16091913D01*
X8236634Y-16091913D02*
X8255681Y-16082389D01*
X8446158Y-16082389D02*
X8465205Y-16082389D01*
X8465205Y-16082389D02*
X8484253Y-16091913D01*
X8484253Y-16091913D02*
X8493777Y-16101436D01*
X8493777Y-16101436D02*
X8503300Y-16120484D01*
X8503300Y-16120484D02*
X8512824Y-16158579D01*
X8512824Y-16158579D02*
X8512824Y-16206198D01*
X8512824Y-16206198D02*
X8503300Y-16244293D01*
X8503300Y-16244293D02*
X8493777Y-16263341D01*
X8493777Y-16263341D02*
X8484253Y-16272865D01*
X8484253Y-16272865D02*
X8465205Y-16282389D01*
X8465205Y-16282389D02*
X8446158Y-16282389D01*
X8446158Y-16282389D02*
X8427110Y-16272865D01*
X8427110Y-16272865D02*
X8417586Y-16263341D01*
X8417586Y-16263341D02*
X8408062Y-16244293D01*
X8408062Y-16244293D02*
X8398539Y-16206198D01*
X8398539Y-16206198D02*
X8398539Y-16158579D01*
X8398539Y-16158579D02*
X8408062Y-16120484D01*
X8408062Y-16120484D02*
X8417586Y-16101436D01*
X8417586Y-16101436D02*
X8427110Y-16091913D01*
X8427110Y-16091913D02*
X8446158Y-16082389D01*
X8636634Y-16082389D02*
X8655681Y-16082389D01*
X8655681Y-16082389D02*
X8674729Y-16091913D01*
X8674729Y-16091913D02*
X8684253Y-16101436D01*
X8684253Y-16101436D02*
X8693777Y-16120484D01*
X8693777Y-16120484D02*
X8703300Y-16158579D01*
X8703300Y-16158579D02*
X8703300Y-16206198D01*
X8703300Y-16206198D02*
X8693777Y-16244293D01*
X8693777Y-16244293D02*
X8684253Y-16263341D01*
X8684253Y-16263341D02*
X8674729Y-16272865D01*
X8674729Y-16272865D02*
X8655681Y-16282389D01*
X8655681Y-16282389D02*
X8636634Y-16282389D01*
X8636634Y-16282389D02*
X8617586Y-16272865D01*
X8617586Y-16272865D02*
X8608062Y-16263341D01*
X8608062Y-16263341D02*
X8598539Y-16244293D01*
X8598539Y-16244293D02*
X8589015Y-16206198D01*
X8589015Y-16206198D02*
X8589015Y-16158579D01*
X8589015Y-16158579D02*
X8598539Y-16120484D01*
X8598539Y-16120484D02*
X8608062Y-16101436D01*
X8608062Y-16101436D02*
X8617586Y-16091913D01*
X8617586Y-16091913D02*
X8636634Y-16082389D01*
X8789015Y-16282389D02*
X8789015Y-16149055D01*
X8789015Y-16168103D02*
X8798539Y-16158579D01*
X8798539Y-16158579D02*
X8817586Y-16149055D01*
X8817586Y-16149055D02*
X8846158Y-16149055D01*
X8846158Y-16149055D02*
X8865205Y-16158579D01*
X8865205Y-16158579D02*
X8874729Y-16177627D01*
X8874729Y-16177627D02*
X8874729Y-16282389D01*
X8874729Y-16177627D02*
X8884253Y-16158579D01*
X8884253Y-16158579D02*
X8903300Y-16149055D01*
X8903300Y-16149055D02*
X8931872Y-16149055D01*
X8931872Y-16149055D02*
X8950920Y-16158579D01*
X8950920Y-16158579D02*
X8960443Y-16177627D01*
X8960443Y-16177627D02*
X8960443Y-16282389D01*
X9055681Y-16282389D02*
X9055681Y-16149055D01*
X9055681Y-16168103D02*
X9065205Y-16158579D01*
X9065205Y-16158579D02*
X9084253Y-16149055D01*
X9084253Y-16149055D02*
X9112824Y-16149055D01*
X9112824Y-16149055D02*
X9131872Y-16158579D01*
X9131872Y-16158579D02*
X9141396Y-16177627D01*
X9141396Y-16177627D02*
X9141396Y-16282389D01*
X9141396Y-16177627D02*
X9150920Y-16158579D01*
X9150920Y-16158579D02*
X9169967Y-16149055D01*
X9169967Y-16149055D02*
X9198539Y-16149055D01*
X9198539Y-16149055D02*
X9217586Y-16158579D01*
X9217586Y-16158579D02*
X9227110Y-16177627D01*
X9227110Y-16177627D02*
X9227110Y-16282389D01*
X9617586Y-16072865D02*
X9446158Y-16330008D01*
X9874729Y-16082389D02*
X9893777Y-16082389D01*
X9893777Y-16082389D02*
X9912824Y-16091913D01*
X9912824Y-16091913D02*
X9922348Y-16101436D01*
X9922348Y-16101436D02*
X9931872Y-16120484D01*
X9931872Y-16120484D02*
X9941396Y-16158579D01*
X9941396Y-16158579D02*
X9941396Y-16206198D01*
X9941396Y-16206198D02*
X9931872Y-16244293D01*
X9931872Y-16244293D02*
X9922348Y-16263341D01*
X9922348Y-16263341D02*
X9912824Y-16272865D01*
X9912824Y-16272865D02*
X9893777Y-16282389D01*
X9893777Y-16282389D02*
X9874729Y-16282389D01*
X9874729Y-16282389D02*
X9855682Y-16272865D01*
X9855682Y-16272865D02*
X9846158Y-16263341D01*
X9846158Y-16263341D02*
X9836634Y-16244293D01*
X9836634Y-16244293D02*
X9827110Y-16206198D01*
X9827110Y-16206198D02*
X9827110Y-16158579D01*
X9827110Y-16158579D02*
X9836634Y-16120484D01*
X9836634Y-16120484D02*
X9846158Y-16101436D01*
X9846158Y-16101436D02*
X9855682Y-16091913D01*
X9855682Y-16091913D02*
X9874729Y-16082389D01*
X10027110Y-16263341D02*
X10036634Y-16272865D01*
X10036634Y-16272865D02*
X10027110Y-16282389D01*
X10027110Y-16282389D02*
X10017586Y-16272865D01*
X10017586Y-16272865D02*
X10027110Y-16263341D01*
X10027110Y-16263341D02*
X10027110Y-16282389D01*
X10160443Y-16082389D02*
X10179491Y-16082389D01*
X10179491Y-16082389D02*
X10198539Y-16091913D01*
X10198539Y-16091913D02*
X10208063Y-16101436D01*
X10208063Y-16101436D02*
X10217586Y-16120484D01*
X10217586Y-16120484D02*
X10227110Y-16158579D01*
X10227110Y-16158579D02*
X10227110Y-16206198D01*
X10227110Y-16206198D02*
X10217586Y-16244293D01*
X10217586Y-16244293D02*
X10208063Y-16263341D01*
X10208063Y-16263341D02*
X10198539Y-16272865D01*
X10198539Y-16272865D02*
X10179491Y-16282389D01*
X10179491Y-16282389D02*
X10160443Y-16282389D01*
X10160443Y-16282389D02*
X10141396Y-16272865D01*
X10141396Y-16272865D02*
X10131872Y-16263341D01*
X10131872Y-16263341D02*
X10122348Y-16244293D01*
X10122348Y-16244293D02*
X10112824Y-16206198D01*
X10112824Y-16206198D02*
X10112824Y-16158579D01*
X10112824Y-16158579D02*
X10122348Y-16120484D01*
X10122348Y-16120484D02*
X10131872Y-16101436D01*
X10131872Y-16101436D02*
X10141396Y-16091913D01*
X10141396Y-16091913D02*
X10160443Y-16082389D01*
X10293777Y-16082389D02*
X10427110Y-16082389D01*
X10427110Y-16082389D02*
X10341396Y-16282389D01*
X10531872Y-16168103D02*
X10512824Y-16158579D01*
X10512824Y-16158579D02*
X10503301Y-16149055D01*
X10503301Y-16149055D02*
X10493777Y-16130008D01*
X10493777Y-16130008D02*
X10493777Y-16120484D01*
X10493777Y-16120484D02*
X10503301Y-16101436D01*
X10503301Y-16101436D02*
X10512824Y-16091913D01*
X10512824Y-16091913D02*
X10531872Y-16082389D01*
X10531872Y-16082389D02*
X10569967Y-16082389D01*
X10569967Y-16082389D02*
X10589015Y-16091913D01*
X10589015Y-16091913D02*
X10598539Y-16101436D01*
X10598539Y-16101436D02*
X10608063Y-16120484D01*
X10608063Y-16120484D02*
X10608063Y-16130008D01*
X10608063Y-16130008D02*
X10598539Y-16149055D01*
X10598539Y-16149055D02*
X10589015Y-16158579D01*
X10589015Y-16158579D02*
X10569967Y-16168103D01*
X10569967Y-16168103D02*
X10531872Y-16168103D01*
X10531872Y-16168103D02*
X10512824Y-16177627D01*
X10512824Y-16177627D02*
X10503301Y-16187151D01*
X10503301Y-16187151D02*
X10493777Y-16206198D01*
X10493777Y-16206198D02*
X10493777Y-16244293D01*
X10493777Y-16244293D02*
X10503301Y-16263341D01*
X10503301Y-16263341D02*
X10512824Y-16272865D01*
X10512824Y-16272865D02*
X10531872Y-16282389D01*
X10531872Y-16282389D02*
X10569967Y-16282389D01*
X10569967Y-16282389D02*
X10589015Y-16272865D01*
X10589015Y-16272865D02*
X10598539Y-16263341D01*
X10598539Y-16263341D02*
X10608063Y-16244293D01*
X10608063Y-16244293D02*
X10608063Y-16206198D01*
X10608063Y-16206198D02*
X10598539Y-16187151D01*
X10598539Y-16187151D02*
X10589015Y-16177627D01*
X10589015Y-16177627D02*
X10569967Y-16168103D01*
X10674729Y-16082389D02*
X10808063Y-16082389D01*
X10808063Y-16082389D02*
X10722348Y-16282389D01*
X10874729Y-16082389D02*
X10874729Y-16120484D01*
X10950920Y-16082389D02*
X10950920Y-16120484D01*
X11246158Y-16358579D02*
X11236634Y-16349055D01*
X11236634Y-16349055D02*
X11217586Y-16320484D01*
X11217586Y-16320484D02*
X11208063Y-16301436D01*
X11208063Y-16301436D02*
X11198539Y-16272865D01*
X11198539Y-16272865D02*
X11189015Y-16225246D01*
X11189015Y-16225246D02*
X11189015Y-16187151D01*
X11189015Y-16187151D02*
X11198539Y-16139532D01*
X11198539Y-16139532D02*
X11208063Y-16110960D01*
X11208063Y-16110960D02*
X11217586Y-16091913D01*
X11217586Y-16091913D02*
X11236634Y-16063341D01*
X11236634Y-16063341D02*
X11246158Y-16053817D01*
X11408063Y-16149055D02*
X11408063Y-16282389D01*
X11360443Y-16072865D02*
X11312824Y-16215722D01*
X11312824Y-16215722D02*
X11436634Y-16215722D01*
X11541396Y-16168103D02*
X11522348Y-16158579D01*
X11522348Y-16158579D02*
X11512824Y-16149055D01*
X11512824Y-16149055D02*
X11503301Y-16130008D01*
X11503301Y-16130008D02*
X11503301Y-16120484D01*
X11503301Y-16120484D02*
X11512824Y-16101436D01*
X11512824Y-16101436D02*
X11522348Y-16091913D01*
X11522348Y-16091913D02*
X11541396Y-16082389D01*
X11541396Y-16082389D02*
X11579491Y-16082389D01*
X11579491Y-16082389D02*
X11598539Y-16091913D01*
X11598539Y-16091913D02*
X11608063Y-16101436D01*
X11608063Y-16101436D02*
X11617586Y-16120484D01*
X11617586Y-16120484D02*
X11617586Y-16130008D01*
X11617586Y-16130008D02*
X11608063Y-16149055D01*
X11608063Y-16149055D02*
X11598539Y-16158579D01*
X11598539Y-16158579D02*
X11579491Y-16168103D01*
X11579491Y-16168103D02*
X11541396Y-16168103D01*
X11541396Y-16168103D02*
X11522348Y-16177627D01*
X11522348Y-16177627D02*
X11512824Y-16187151D01*
X11512824Y-16187151D02*
X11503301Y-16206198D01*
X11503301Y-16206198D02*
X11503301Y-16244293D01*
X11503301Y-16244293D02*
X11512824Y-16263341D01*
X11512824Y-16263341D02*
X11522348Y-16272865D01*
X11522348Y-16272865D02*
X11541396Y-16282389D01*
X11541396Y-16282389D02*
X11579491Y-16282389D01*
X11579491Y-16282389D02*
X11598539Y-16272865D01*
X11598539Y-16272865D02*
X11608063Y-16263341D01*
X11608063Y-16263341D02*
X11617586Y-16244293D01*
X11617586Y-16244293D02*
X11617586Y-16206198D01*
X11617586Y-16206198D02*
X11608063Y-16187151D01*
X11608063Y-16187151D02*
X11598539Y-16177627D01*
X11598539Y-16177627D02*
X11579491Y-16168103D01*
X11855682Y-16282389D02*
X11855682Y-16082389D01*
X11941396Y-16282389D02*
X11941396Y-16177627D01*
X11941396Y-16177627D02*
X11931872Y-16158579D01*
X11931872Y-16158579D02*
X11912825Y-16149055D01*
X11912825Y-16149055D02*
X11884253Y-16149055D01*
X11884253Y-16149055D02*
X11865205Y-16158579D01*
X11865205Y-16158579D02*
X11855682Y-16168103D01*
X12065205Y-16282389D02*
X12046158Y-16272865D01*
X12046158Y-16272865D02*
X12036634Y-16263341D01*
X12036634Y-16263341D02*
X12027110Y-16244293D01*
X12027110Y-16244293D02*
X12027110Y-16187151D01*
X12027110Y-16187151D02*
X12036634Y-16168103D01*
X12036634Y-16168103D02*
X12046158Y-16158579D01*
X12046158Y-16158579D02*
X12065205Y-16149055D01*
X12065205Y-16149055D02*
X12093777Y-16149055D01*
X12093777Y-16149055D02*
X12112825Y-16158579D01*
X12112825Y-16158579D02*
X12122348Y-16168103D01*
X12122348Y-16168103D02*
X12131872Y-16187151D01*
X12131872Y-16187151D02*
X12131872Y-16244293D01*
X12131872Y-16244293D02*
X12122348Y-16263341D01*
X12122348Y-16263341D02*
X12112825Y-16272865D01*
X12112825Y-16272865D02*
X12093777Y-16282389D01*
X12093777Y-16282389D02*
X12065205Y-16282389D01*
X12246158Y-16282389D02*
X12227110Y-16272865D01*
X12227110Y-16272865D02*
X12217586Y-16253817D01*
X12217586Y-16253817D02*
X12217586Y-16082389D01*
X12398539Y-16272865D02*
X12379491Y-16282389D01*
X12379491Y-16282389D02*
X12341396Y-16282389D01*
X12341396Y-16282389D02*
X12322348Y-16272865D01*
X12322348Y-16272865D02*
X12312825Y-16253817D01*
X12312825Y-16253817D02*
X12312825Y-16177627D01*
X12312825Y-16177627D02*
X12322348Y-16158579D01*
X12322348Y-16158579D02*
X12341396Y-16149055D01*
X12341396Y-16149055D02*
X12379491Y-16149055D01*
X12379491Y-16149055D02*
X12398539Y-16158579D01*
X12398539Y-16158579D02*
X12408063Y-16177627D01*
X12408063Y-16177627D02*
X12408063Y-16196674D01*
X12408063Y-16196674D02*
X12312825Y-16215722D01*
X12484253Y-16272865D02*
X12503301Y-16282389D01*
X12503301Y-16282389D02*
X12541396Y-16282389D01*
X12541396Y-16282389D02*
X12560444Y-16272865D01*
X12560444Y-16272865D02*
X12569967Y-16253817D01*
X12569967Y-16253817D02*
X12569967Y-16244293D01*
X12569967Y-16244293D02*
X12560444Y-16225246D01*
X12560444Y-16225246D02*
X12541396Y-16215722D01*
X12541396Y-16215722D02*
X12512825Y-16215722D01*
X12512825Y-16215722D02*
X12493777Y-16206198D01*
X12493777Y-16206198D02*
X12484253Y-16187151D01*
X12484253Y-16187151D02*
X12484253Y-16177627D01*
X12484253Y-16177627D02*
X12493777Y-16158579D01*
X12493777Y-16158579D02*
X12512825Y-16149055D01*
X12512825Y-16149055D02*
X12541396Y-16149055D01*
X12541396Y-16149055D02*
X12560444Y-16158579D01*
X12636634Y-16358579D02*
X12646158Y-16349055D01*
X12646158Y-16349055D02*
X12665206Y-16320484D01*
X12665206Y-16320484D02*
X12674729Y-16301436D01*
X12674729Y-16301436D02*
X12684253Y-16272865D01*
X12684253Y-16272865D02*
X12693777Y-16225246D01*
X12693777Y-16225246D02*
X12693777Y-16187151D01*
X12693777Y-16187151D02*
X12684253Y-16139532D01*
X12684253Y-16139532D02*
X12674729Y-16110960D01*
X12674729Y-16110960D02*
X12665206Y-16091913D01*
X12665206Y-16091913D02*
X12646158Y-16063341D01*
X12646158Y-16063341D02*
X12636634Y-16053817D01*
M02*
