%TF.GenerationSoftware,KiCad,Pcbnew,9.0.8-1.fc43*%
%TF.CreationDate,2026-04-15T12:42:20+01:00*%
%TF.ProjectId,Scrumpi_JN,53637275-6d70-4695-9f4a-4e2e6b696361,rev?*%
%TF.SameCoordinates,Original*%
%TF.FileFunction,Drillmap*%
%TF.FilePolarity,Positive*%
%FSLAX45Y45*%
G04 Gerber Fmt 4.5, Leading zero omitted, Abs format (unit mm)*
G04 Created by KiCad (PCBNEW 9.0.8-1.fc43) date 2026-04-15 12:42:20*
%MOMM*%
%LPD*%
G01*
G04 APERTURE LIST*
%ADD10C,0.038100*%
%ADD11C,0.200000*%
%ADD12C,0.100000*%
G04 APERTURE END LIST*
D10*
X7670579Y-2643898D02*
X24180579Y-2643898D01*
X24180579Y-15343898D01*
X7670579Y-15343898D01*
X7670579Y-2643898D01*
D11*
D12*
X7890255Y-6398898D02*
X7970255Y-6478898D01*
X7970255Y-6398898D02*
X7890255Y-6478898D01*
X7895255Y-7163898D02*
X7975255Y-7243898D01*
X7975255Y-7163898D02*
X7895255Y-7243898D01*
X8185255Y-2798898D02*
X8265255Y-2878898D01*
X8265255Y-2798898D02*
X8185255Y-2878898D01*
X8190255Y-3538898D02*
X8270255Y-3618898D01*
X8270255Y-3538898D02*
X8190255Y-3618898D01*
X8470255Y-4043898D02*
X8550255Y-4123898D01*
X8550255Y-4043898D02*
X8470255Y-4123898D01*
X8470255Y-3188898D02*
X8550255Y-3268898D01*
X8550255Y-3188898D02*
X8470255Y-3268898D01*
X8728255Y-3538898D02*
X8808255Y-3618898D01*
X8808255Y-3538898D02*
X8728255Y-3618898D01*
X8728255Y-3792898D02*
X8808255Y-3872898D01*
X8808255Y-3792898D02*
X8728255Y-3872898D01*
X8728255Y-4046898D02*
X8808255Y-4126898D01*
X8808255Y-4046898D02*
X8728255Y-4126898D01*
X8728255Y-4300898D02*
X8808255Y-4380898D01*
X8808255Y-4300898D02*
X8728255Y-4380898D01*
X9215255Y-5513898D02*
X9295255Y-5593898D01*
X9295255Y-5513898D02*
X9215255Y-5593898D01*
X9415255Y-5038898D02*
X9495255Y-5118898D01*
X9495255Y-5038898D02*
X9415255Y-5118898D01*
X9490255Y-3538898D02*
X9570255Y-3618898D01*
X9570255Y-3538898D02*
X9490255Y-3618898D01*
X9490255Y-3792898D02*
X9570255Y-3872898D01*
X9570255Y-3792898D02*
X9490255Y-3872898D01*
X9490255Y-4046898D02*
X9570255Y-4126898D01*
X9570255Y-4046898D02*
X9490255Y-4126898D01*
X9490255Y-4300898D02*
X9570255Y-4380898D01*
X9570255Y-4300898D02*
X9490255Y-4380898D01*
X9715255Y-3183898D02*
X9795255Y-3263898D01*
X9795255Y-3183898D02*
X9715255Y-3263898D01*
X9715255Y-3728898D02*
X9795255Y-3808898D01*
X9795255Y-3728898D02*
X9715255Y-3808898D01*
X9755255Y-6848898D02*
X9835255Y-6928898D01*
X9835255Y-6848898D02*
X9755255Y-6928898D01*
X9905255Y-4498898D02*
X9985255Y-4578898D01*
X9985255Y-4498898D02*
X9905255Y-4578898D01*
X9935255Y-3728898D02*
X10015255Y-3808898D01*
X10015255Y-3728898D02*
X9935255Y-3808898D01*
X10278255Y-3526898D02*
X10358255Y-3606898D01*
X10358255Y-3526898D02*
X10278255Y-3606898D01*
X10278255Y-3780898D02*
X10358255Y-3860898D01*
X10358255Y-3780898D02*
X10278255Y-3860898D01*
X10278255Y-4034898D02*
X10358255Y-4114898D01*
X10358255Y-4034898D02*
X10278255Y-4114898D01*
X10278255Y-4288898D02*
X10358255Y-4368898D01*
X10358255Y-4288898D02*
X10278255Y-4368898D01*
X10278255Y-4542898D02*
X10358255Y-4622898D01*
X10358255Y-4542898D02*
X10278255Y-4622898D01*
X10278255Y-4796898D02*
X10358255Y-4876898D01*
X10358255Y-4796898D02*
X10278255Y-4876898D01*
X10278255Y-5050898D02*
X10358255Y-5130898D01*
X10358255Y-5050898D02*
X10278255Y-5130898D01*
X10525255Y-6848898D02*
X10605255Y-6928898D01*
X10605255Y-6848898D02*
X10525255Y-6928898D01*
X11040255Y-3526898D02*
X11120255Y-3606898D01*
X11120255Y-3526898D02*
X11040255Y-3606898D01*
X11040255Y-3780898D02*
X11120255Y-3860898D01*
X11120255Y-3780898D02*
X11040255Y-3860898D01*
X11040255Y-4034898D02*
X11120255Y-4114898D01*
X11120255Y-4034898D02*
X11040255Y-4114898D01*
X11040255Y-4288898D02*
X11120255Y-4368898D01*
X11120255Y-4288898D02*
X11040255Y-4368898D01*
X11040255Y-4542898D02*
X11120255Y-4622898D01*
X11120255Y-4542898D02*
X11040255Y-4622898D01*
X11040255Y-4796898D02*
X11120255Y-4876898D01*
X11120255Y-4796898D02*
X11040255Y-4876898D01*
X11040255Y-5050898D02*
X11120255Y-5130898D01*
X11120255Y-5050898D02*
X11040255Y-5130898D01*
X11809255Y-3526898D02*
X11889255Y-3606898D01*
X11889255Y-3526898D02*
X11809255Y-3606898D01*
X11809255Y-3780898D02*
X11889255Y-3860898D01*
X11889255Y-3780898D02*
X11809255Y-3860898D01*
X11809255Y-4034898D02*
X11889255Y-4114898D01*
X11889255Y-4034898D02*
X11809255Y-4114898D01*
X11809255Y-4288898D02*
X11889255Y-4368898D01*
X11889255Y-4288898D02*
X11809255Y-4368898D01*
X11809255Y-4542898D02*
X11889255Y-4622898D01*
X11889255Y-4542898D02*
X11809255Y-4622898D01*
X11809255Y-4796898D02*
X11889255Y-4876898D01*
X11889255Y-4796898D02*
X11809255Y-4876898D01*
X11809255Y-5050898D02*
X11889255Y-5130898D01*
X11889255Y-5050898D02*
X11809255Y-5130898D01*
X12571255Y-3526898D02*
X12651255Y-3606898D01*
X12651255Y-3526898D02*
X12571255Y-3606898D01*
X12571255Y-3780898D02*
X12651255Y-3860898D01*
X12651255Y-3780898D02*
X12571255Y-3860898D01*
X12571255Y-4034898D02*
X12651255Y-4114898D01*
X12651255Y-4034898D02*
X12571255Y-4114898D01*
X12571255Y-4288898D02*
X12651255Y-4368898D01*
X12651255Y-4288898D02*
X12571255Y-4368898D01*
X12571255Y-4542898D02*
X12651255Y-4622898D01*
X12651255Y-4542898D02*
X12571255Y-4622898D01*
X12571255Y-4796898D02*
X12651255Y-4876898D01*
X12651255Y-4796898D02*
X12571255Y-4876898D01*
X12571255Y-5050898D02*
X12651255Y-5130898D01*
X12651255Y-5050898D02*
X12571255Y-5130898D01*
X13040255Y-4013898D02*
X13120255Y-4093898D01*
X13120255Y-4013898D02*
X13040255Y-4093898D01*
X13040255Y-4488898D02*
X13120255Y-4568898D01*
X13120255Y-4488898D02*
X13040255Y-4568898D01*
X13375255Y-4233898D02*
X13455255Y-4313898D01*
X13455255Y-4233898D02*
X13375255Y-4313898D01*
X13390255Y-3178898D02*
X13470255Y-3258898D01*
X13470255Y-3178898D02*
X13390255Y-3258898D01*
X13665255Y-5888898D02*
X13745255Y-5968898D01*
X13745255Y-5888898D02*
X13665255Y-5968898D01*
X13740255Y-4228898D02*
X13820255Y-4308898D01*
X13820255Y-4228898D02*
X13740255Y-4308898D01*
X13745255Y-10748898D02*
X13825255Y-10828898D01*
X13825255Y-10748898D02*
X13745255Y-10828898D01*
X13745255Y-11468898D02*
X13825255Y-11548898D01*
X13825255Y-11468898D02*
X13745255Y-11548898D01*
X13780255Y-3178898D02*
X13860255Y-3258898D01*
X13860255Y-3178898D02*
X13780255Y-3258898D01*
X14045255Y-5243898D02*
X14125255Y-5323898D01*
X14125255Y-5243898D02*
X14045255Y-5323898D01*
X14070255Y-3658898D02*
X14150255Y-3738898D01*
X14150255Y-3658898D02*
X14070255Y-3738898D01*
X14140255Y-9433898D02*
X14220255Y-9513898D01*
X14220255Y-9433898D02*
X14140255Y-9513898D01*
X14240255Y-10748898D02*
X14320255Y-10828898D01*
X14320255Y-10748898D02*
X14240255Y-10828898D01*
X14240255Y-11473898D02*
X14320255Y-11553898D01*
X14320255Y-11473898D02*
X14240255Y-11553898D01*
X14240255Y-12423898D02*
X14320255Y-12503898D01*
X14320255Y-12423898D02*
X14240255Y-12503898D01*
X14240255Y-13488898D02*
X14320255Y-13568898D01*
X14320255Y-13488898D02*
X14240255Y-13568898D01*
X14431255Y-4235898D02*
X14511255Y-4315898D01*
X14511255Y-4235898D02*
X14431255Y-4315898D01*
X14431255Y-4489898D02*
X14511255Y-4569898D01*
X14511255Y-4489898D02*
X14431255Y-4569898D01*
X14431255Y-4743898D02*
X14511255Y-4823898D01*
X14511255Y-4743898D02*
X14431255Y-4823898D01*
X14431255Y-4997898D02*
X14511255Y-5077898D01*
X14511255Y-4997898D02*
X14431255Y-5077898D01*
X14431255Y-5251898D02*
X14511255Y-5331898D01*
X14511255Y-5251898D02*
X14431255Y-5331898D01*
X14431255Y-5505898D02*
X14511255Y-5585898D01*
X14511255Y-5505898D02*
X14431255Y-5585898D01*
X14431255Y-5759898D02*
X14511255Y-5839898D01*
X14511255Y-5759898D02*
X14431255Y-5839898D01*
X14431255Y-6013898D02*
X14511255Y-6093898D01*
X14511255Y-6013898D02*
X14431255Y-6093898D01*
X14431255Y-6267898D02*
X14511255Y-6347898D01*
X14511255Y-6267898D02*
X14431255Y-6347898D01*
X14431255Y-6521898D02*
X14511255Y-6601898D01*
X14511255Y-6521898D02*
X14431255Y-6601898D01*
X14431255Y-6775898D02*
X14511255Y-6855898D01*
X14511255Y-6775898D02*
X14431255Y-6855898D01*
X14431255Y-7029898D02*
X14511255Y-7109898D01*
X14511255Y-7029898D02*
X14431255Y-7109898D01*
X14431255Y-7283898D02*
X14511255Y-7363898D01*
X14511255Y-7283898D02*
X14431255Y-7363898D01*
X14431255Y-7537898D02*
X14511255Y-7617898D01*
X14511255Y-7537898D02*
X14431255Y-7617898D01*
X14431255Y-7791898D02*
X14511255Y-7871898D01*
X14511255Y-7791898D02*
X14431255Y-7871898D01*
X14431255Y-8045898D02*
X14511255Y-8125898D01*
X14511255Y-8045898D02*
X14431255Y-8125898D01*
X14431255Y-8299898D02*
X14511255Y-8379898D01*
X14511255Y-8299898D02*
X14431255Y-8379898D01*
X14431255Y-8553898D02*
X14511255Y-8633898D01*
X14511255Y-8553898D02*
X14431255Y-8633898D01*
X14431255Y-8807898D02*
X14511255Y-8887898D01*
X14511255Y-8807898D02*
X14431255Y-8887898D01*
X14431255Y-9061898D02*
X14511255Y-9141898D01*
X14511255Y-9061898D02*
X14431255Y-9141898D01*
X15005255Y-13008898D02*
X15085255Y-13088898D01*
X15085255Y-13008898D02*
X15005255Y-13088898D01*
X15015255Y-13523898D02*
X15095255Y-13603898D01*
X15095255Y-13523898D02*
X15015255Y-13603898D01*
X15015255Y-13773898D02*
X15095255Y-13853898D01*
X15095255Y-13773898D02*
X15015255Y-13853898D01*
X15015255Y-14033898D02*
X15095255Y-14113898D01*
X15095255Y-14033898D02*
X15015255Y-14113898D01*
X15015255Y-14283898D02*
X15095255Y-14363898D01*
X15095255Y-14283898D02*
X15015255Y-14363898D01*
X15015255Y-14533898D02*
X15095255Y-14613898D01*
X15095255Y-14533898D02*
X15015255Y-14613898D01*
X15328255Y-13013898D02*
X15408255Y-13093898D01*
X15408255Y-13013898D02*
X15328255Y-13093898D01*
X15328255Y-13267898D02*
X15408255Y-13347898D01*
X15408255Y-13267898D02*
X15328255Y-13347898D01*
X15328255Y-13521898D02*
X15408255Y-13601898D01*
X15408255Y-13521898D02*
X15328255Y-13601898D01*
X15328255Y-13775898D02*
X15408255Y-13855898D01*
X15408255Y-13775898D02*
X15328255Y-13855898D01*
X15328255Y-14029898D02*
X15408255Y-14109898D01*
X15408255Y-14029898D02*
X15328255Y-14109898D01*
X15328255Y-14283898D02*
X15408255Y-14363898D01*
X15408255Y-14283898D02*
X15328255Y-14363898D01*
X15328255Y-14537898D02*
X15408255Y-14617898D01*
X15408255Y-14537898D02*
X15328255Y-14617898D01*
X15328255Y-14791898D02*
X15408255Y-14871898D01*
X15408255Y-14791898D02*
X15328255Y-14871898D01*
X15955255Y-4235898D02*
X16035255Y-4315898D01*
X16035255Y-4235898D02*
X15955255Y-4315898D01*
X15955255Y-4489898D02*
X16035255Y-4569898D01*
X16035255Y-4489898D02*
X15955255Y-4569898D01*
X15955255Y-4743898D02*
X16035255Y-4823898D01*
X16035255Y-4743898D02*
X15955255Y-4823898D01*
X15955255Y-4997898D02*
X16035255Y-5077898D01*
X16035255Y-4997898D02*
X15955255Y-5077898D01*
X15955255Y-5251898D02*
X16035255Y-5331898D01*
X16035255Y-5251898D02*
X15955255Y-5331898D01*
X15955255Y-5505898D02*
X16035255Y-5585898D01*
X16035255Y-5505898D02*
X15955255Y-5585898D01*
X15955255Y-5759898D02*
X16035255Y-5839898D01*
X16035255Y-5759898D02*
X15955255Y-5839898D01*
X15955255Y-6013898D02*
X16035255Y-6093898D01*
X16035255Y-6013898D02*
X15955255Y-6093898D01*
X15955255Y-6267898D02*
X16035255Y-6347898D01*
X16035255Y-6267898D02*
X15955255Y-6347898D01*
X15955255Y-6521898D02*
X16035255Y-6601898D01*
X16035255Y-6521898D02*
X15955255Y-6601898D01*
X15955255Y-6775898D02*
X16035255Y-6855898D01*
X16035255Y-6775898D02*
X15955255Y-6855898D01*
X15955255Y-7029898D02*
X16035255Y-7109898D01*
X16035255Y-7029898D02*
X15955255Y-7109898D01*
X15955255Y-7283898D02*
X16035255Y-7363898D01*
X16035255Y-7283898D02*
X15955255Y-7363898D01*
X15955255Y-7537898D02*
X16035255Y-7617898D01*
X16035255Y-7537898D02*
X15955255Y-7617898D01*
X15955255Y-7791898D02*
X16035255Y-7871898D01*
X16035255Y-7791898D02*
X15955255Y-7871898D01*
X15955255Y-8045898D02*
X16035255Y-8125898D01*
X16035255Y-8045898D02*
X15955255Y-8125898D01*
X15955255Y-8299898D02*
X16035255Y-8379898D01*
X16035255Y-8299898D02*
X15955255Y-8379898D01*
X15955255Y-8553898D02*
X16035255Y-8633898D01*
X16035255Y-8553898D02*
X15955255Y-8633898D01*
X15955255Y-8807898D02*
X16035255Y-8887898D01*
X16035255Y-8807898D02*
X15955255Y-8887898D01*
X15955255Y-9061898D02*
X16035255Y-9141898D01*
X16035255Y-9061898D02*
X15955255Y-9141898D01*
X16090255Y-13013898D02*
X16170255Y-13093898D01*
X16170255Y-13013898D02*
X16090255Y-13093898D01*
X16090255Y-13267898D02*
X16170255Y-13347898D01*
X16170255Y-13267898D02*
X16090255Y-13347898D01*
X16090255Y-13521898D02*
X16170255Y-13601898D01*
X16170255Y-13521898D02*
X16090255Y-13601898D01*
X16090255Y-13775898D02*
X16170255Y-13855898D01*
X16170255Y-13775898D02*
X16090255Y-13855898D01*
X16090255Y-14029898D02*
X16170255Y-14109898D01*
X16170255Y-14029898D02*
X16090255Y-14109898D01*
X16090255Y-14283898D02*
X16170255Y-14363898D01*
X16170255Y-14283898D02*
X16090255Y-14363898D01*
X16090255Y-14537898D02*
X16170255Y-14617898D01*
X16170255Y-14537898D02*
X16090255Y-14617898D01*
X16090255Y-14791898D02*
X16170255Y-14871898D01*
X16170255Y-14791898D02*
X16090255Y-14871898D01*
X16190255Y-9413898D02*
X16270255Y-9493898D01*
X16270255Y-9413898D02*
X16190255Y-9493898D01*
X16365255Y-9913898D02*
X16445255Y-9993898D01*
X16445255Y-9913898D02*
X16365255Y-9993898D01*
X16365255Y-10213898D02*
X16445255Y-10293898D01*
X16445255Y-10213898D02*
X16365255Y-10293898D01*
X16365255Y-10538898D02*
X16445255Y-10618898D01*
X16445255Y-10538898D02*
X16365255Y-10618898D01*
X16365255Y-10863898D02*
X16445255Y-10943898D01*
X16445255Y-10863898D02*
X16365255Y-10943898D01*
X16365255Y-11188898D02*
X16445255Y-11268898D01*
X16445255Y-11188898D02*
X16365255Y-11268898D01*
X16365255Y-11513898D02*
X16445255Y-11593898D01*
X16445255Y-11513898D02*
X16365255Y-11593898D01*
X16365255Y-11838898D02*
X16445255Y-11918898D01*
X16445255Y-11838898D02*
X16365255Y-11918898D01*
X16365255Y-12163898D02*
X16445255Y-12243898D01*
X16445255Y-12163898D02*
X16365255Y-12243898D01*
X16405255Y-13278898D02*
X16485255Y-13358898D01*
X16485255Y-13278898D02*
X16405255Y-13358898D01*
X16405255Y-13528898D02*
X16485255Y-13608898D01*
X16485255Y-13528898D02*
X16405255Y-13608898D01*
X16405255Y-13788898D02*
X16485255Y-13868898D01*
X16485255Y-13788898D02*
X16405255Y-13868898D01*
X16405255Y-14038898D02*
X16485255Y-14118898D01*
X16485255Y-14038898D02*
X16405255Y-14118898D01*
X16405255Y-14288898D02*
X16485255Y-14368898D01*
X16485255Y-14288898D02*
X16405255Y-14368898D01*
X16410255Y-14793898D02*
X16490255Y-14873898D01*
X16490255Y-14793898D02*
X16410255Y-14873898D01*
X16432255Y-5508898D02*
X16512255Y-5588898D01*
X16512255Y-5508898D02*
X16432255Y-5588898D01*
X16432255Y-5763898D02*
X16512255Y-5843898D01*
X16512255Y-5763898D02*
X16432255Y-5843898D01*
X16432255Y-6017898D02*
X16512255Y-6097898D01*
X16512255Y-6017898D02*
X16432255Y-6097898D01*
X16432255Y-6271898D02*
X16512255Y-6351898D01*
X16512255Y-6271898D02*
X16432255Y-6351898D01*
X16432255Y-6525898D02*
X16512255Y-6605898D01*
X16512255Y-6525898D02*
X16432255Y-6605898D01*
X16432255Y-6779898D02*
X16512255Y-6859898D01*
X16512255Y-6779898D02*
X16432255Y-6859898D01*
X16432255Y-7033898D02*
X16512255Y-7113898D01*
X16512255Y-7033898D02*
X16432255Y-7113898D01*
X16432255Y-7287898D02*
X16512255Y-7367898D01*
X16512255Y-7287898D02*
X16432255Y-7367898D01*
X16432255Y-7541898D02*
X16512255Y-7621898D01*
X16512255Y-7541898D02*
X16432255Y-7621898D01*
X16432255Y-7795898D02*
X16512255Y-7875898D01*
X16512255Y-7795898D02*
X16432255Y-7875898D01*
X16432255Y-8049898D02*
X16512255Y-8129898D01*
X16512255Y-8049898D02*
X16432255Y-8129898D01*
X16435255Y-5248898D02*
X16515255Y-5328898D01*
X16515255Y-5248898D02*
X16435255Y-5328898D01*
X16686255Y-8557898D02*
X16766255Y-8637898D01*
X16766255Y-8557898D02*
X16686255Y-8637898D01*
X16690255Y-9613898D02*
X16770255Y-9693898D01*
X16770255Y-9613898D02*
X16690255Y-9693898D01*
X16835255Y-13013898D02*
X16915255Y-13093898D01*
X16915255Y-13013898D02*
X16835255Y-13093898D01*
X16835255Y-13523898D02*
X16915255Y-13603898D01*
X16915255Y-13523898D02*
X16835255Y-13603898D01*
X16835255Y-13773898D02*
X16915255Y-13853898D01*
X16915255Y-13773898D02*
X16835255Y-13853898D01*
X16835255Y-14033898D02*
X16915255Y-14113898D01*
X16915255Y-14033898D02*
X16835255Y-14113898D01*
X16835255Y-14283898D02*
X16915255Y-14363898D01*
X16915255Y-14283898D02*
X16835255Y-14363898D01*
X16835255Y-14533898D02*
X16915255Y-14613898D01*
X16915255Y-14533898D02*
X16835255Y-14613898D01*
X16940255Y-8303898D02*
X17020255Y-8383898D01*
X17020255Y-8303898D02*
X16940255Y-8383898D01*
X16940255Y-8557898D02*
X17020255Y-8637898D01*
X17020255Y-8557898D02*
X16940255Y-8637898D01*
X16965255Y-7163898D02*
X17045255Y-7243898D01*
X17045255Y-7163898D02*
X16965255Y-7243898D01*
X17035255Y-5248898D02*
X17115255Y-5328898D01*
X17115255Y-5248898D02*
X17035255Y-5328898D01*
X17153255Y-13013898D02*
X17233255Y-13093898D01*
X17233255Y-13013898D02*
X17153255Y-13093898D01*
X17153255Y-13267898D02*
X17233255Y-13347898D01*
X17233255Y-13267898D02*
X17153255Y-13347898D01*
X17153255Y-13521898D02*
X17233255Y-13601898D01*
X17233255Y-13521898D02*
X17153255Y-13601898D01*
X17153255Y-13775898D02*
X17233255Y-13855898D01*
X17233255Y-13775898D02*
X17153255Y-13855898D01*
X17153255Y-14029898D02*
X17233255Y-14109898D01*
X17233255Y-14029898D02*
X17153255Y-14109898D01*
X17153255Y-14283898D02*
X17233255Y-14363898D01*
X17233255Y-14283898D02*
X17153255Y-14363898D01*
X17153255Y-14537898D02*
X17233255Y-14617898D01*
X17233255Y-14537898D02*
X17153255Y-14617898D01*
X17153255Y-14791898D02*
X17233255Y-14871898D01*
X17233255Y-14791898D02*
X17153255Y-14871898D01*
X17315255Y-4763898D02*
X17395255Y-4843898D01*
X17395255Y-4763898D02*
X17315255Y-4843898D01*
X17550255Y-6524898D02*
X17630255Y-6604898D01*
X17630255Y-6524898D02*
X17550255Y-6604898D01*
X17550255Y-6778898D02*
X17630255Y-6858898D01*
X17630255Y-6778898D02*
X17550255Y-6858898D01*
X17550255Y-7032898D02*
X17630255Y-7112898D01*
X17630255Y-7032898D02*
X17550255Y-7112898D01*
X17550255Y-7286898D02*
X17630255Y-7366898D01*
X17630255Y-7286898D02*
X17550255Y-7366898D01*
X17550255Y-7540898D02*
X17630255Y-7620898D01*
X17630255Y-7540898D02*
X17550255Y-7620898D01*
X17550255Y-7794898D02*
X17630255Y-7874898D01*
X17630255Y-7794898D02*
X17550255Y-7874898D01*
X17550255Y-8048898D02*
X17630255Y-8128898D01*
X17630255Y-8048898D02*
X17550255Y-8128898D01*
X17550255Y-8302898D02*
X17630255Y-8382898D01*
X17630255Y-8302898D02*
X17550255Y-8382898D01*
X17915255Y-13013898D02*
X17995255Y-13093898D01*
X17995255Y-13013898D02*
X17915255Y-13093898D01*
X17915255Y-13267898D02*
X17995255Y-13347898D01*
X17995255Y-13267898D02*
X17915255Y-13347898D01*
X17915255Y-13521898D02*
X17995255Y-13601898D01*
X17995255Y-13521898D02*
X17915255Y-13601898D01*
X17915255Y-13775898D02*
X17995255Y-13855898D01*
X17995255Y-13775898D02*
X17915255Y-13855898D01*
X17915255Y-14029898D02*
X17995255Y-14109898D01*
X17995255Y-14029898D02*
X17915255Y-14109898D01*
X17915255Y-14283898D02*
X17995255Y-14363898D01*
X17995255Y-14283898D02*
X17915255Y-14363898D01*
X17915255Y-14537898D02*
X17995255Y-14617898D01*
X17995255Y-14537898D02*
X17915255Y-14617898D01*
X17915255Y-14791898D02*
X17995255Y-14871898D01*
X17995255Y-14791898D02*
X17915255Y-14871898D01*
X18090255Y-4763898D02*
X18170255Y-4843898D01*
X18170255Y-4763898D02*
X18090255Y-4843898D01*
X18255255Y-13268898D02*
X18335255Y-13348898D01*
X18335255Y-13268898D02*
X18255255Y-13348898D01*
X18255255Y-13518898D02*
X18335255Y-13598898D01*
X18335255Y-13518898D02*
X18255255Y-13598898D01*
X18255255Y-13773898D02*
X18335255Y-13853898D01*
X18335255Y-13773898D02*
X18255255Y-13853898D01*
X18255255Y-14028898D02*
X18335255Y-14108898D01*
X18335255Y-14028898D02*
X18255255Y-14108898D01*
X18255255Y-14278898D02*
X18335255Y-14358898D01*
X18335255Y-14278898D02*
X18255255Y-14358898D01*
X18255255Y-14793898D02*
X18335255Y-14873898D01*
X18335255Y-14793898D02*
X18255255Y-14873898D01*
X18312255Y-6524898D02*
X18392255Y-6604898D01*
X18392255Y-6524898D02*
X18312255Y-6604898D01*
X18312255Y-6778898D02*
X18392255Y-6858898D01*
X18392255Y-6778898D02*
X18312255Y-6858898D01*
X18312255Y-7032898D02*
X18392255Y-7112898D01*
X18392255Y-7032898D02*
X18312255Y-7112898D01*
X18312255Y-7286898D02*
X18392255Y-7366898D01*
X18392255Y-7286898D02*
X18312255Y-7366898D01*
X18312255Y-7540898D02*
X18392255Y-7620898D01*
X18392255Y-7540898D02*
X18312255Y-7620898D01*
X18312255Y-7794898D02*
X18392255Y-7874898D01*
X18392255Y-7794898D02*
X18312255Y-7874898D01*
X18312255Y-8048898D02*
X18392255Y-8128898D01*
X18392255Y-8048898D02*
X18312255Y-8128898D01*
X18312255Y-8302898D02*
X18392255Y-8382898D01*
X18392255Y-8302898D02*
X18312255Y-8382898D01*
X18640255Y-9913898D02*
X18720255Y-9993898D01*
X18720255Y-9913898D02*
X18640255Y-9993898D01*
X18640255Y-10213898D02*
X18720255Y-10293898D01*
X18720255Y-10213898D02*
X18640255Y-10293898D01*
X18640255Y-10513898D02*
X18720255Y-10593898D01*
X18720255Y-10513898D02*
X18640255Y-10593898D01*
X18640255Y-10863898D02*
X18720255Y-10943898D01*
X18720255Y-10863898D02*
X18640255Y-10943898D01*
X18650255Y-7538898D02*
X18730255Y-7618898D01*
X18730255Y-7538898D02*
X18650255Y-7618898D01*
X18650255Y-7793898D02*
X18730255Y-7873898D01*
X18730255Y-7793898D02*
X18650255Y-7873898D01*
X18650255Y-8048898D02*
X18730255Y-8128898D01*
X18730255Y-8048898D02*
X18650255Y-8128898D01*
X18650255Y-8298898D02*
X18730255Y-8378898D01*
X18730255Y-8298898D02*
X18650255Y-8378898D01*
X18740255Y-13013898D02*
X18820255Y-13093898D01*
X18820255Y-13013898D02*
X18740255Y-13093898D01*
X18740255Y-13263898D02*
X18820255Y-13343898D01*
X18820255Y-13263898D02*
X18740255Y-13343898D01*
X18740255Y-14278898D02*
X18820255Y-14358898D01*
X18820255Y-14278898D02*
X18740255Y-14358898D01*
X19053255Y-13013898D02*
X19133255Y-13093898D01*
X19133255Y-13013898D02*
X19053255Y-13093898D01*
X19053255Y-13267898D02*
X19133255Y-13347898D01*
X19133255Y-13267898D02*
X19053255Y-13347898D01*
X19053255Y-13521898D02*
X19133255Y-13601898D01*
X19133255Y-13521898D02*
X19053255Y-13601898D01*
X19053255Y-13775898D02*
X19133255Y-13855898D01*
X19133255Y-13775898D02*
X19053255Y-13855898D01*
X19053255Y-14029898D02*
X19133255Y-14109898D01*
X19133255Y-14029898D02*
X19053255Y-14109898D01*
X19053255Y-14283898D02*
X19133255Y-14363898D01*
X19133255Y-14283898D02*
X19053255Y-14363898D01*
X19053255Y-14537898D02*
X19133255Y-14617898D01*
X19133255Y-14537898D02*
X19053255Y-14617898D01*
X19210255Y-6523898D02*
X19290255Y-6603898D01*
X19290255Y-6523898D02*
X19210255Y-6603898D01*
X19210255Y-6777898D02*
X19290255Y-6857898D01*
X19290255Y-6777898D02*
X19210255Y-6857898D01*
X19210255Y-7031898D02*
X19290255Y-7111898D01*
X19290255Y-7031898D02*
X19210255Y-7111898D01*
X19210255Y-7285898D02*
X19290255Y-7365898D01*
X19290255Y-7285898D02*
X19210255Y-7365898D01*
X19210255Y-7539898D02*
X19290255Y-7619898D01*
X19290255Y-7539898D02*
X19210255Y-7619898D01*
X19210255Y-7793898D02*
X19290255Y-7873898D01*
X19290255Y-7793898D02*
X19210255Y-7873898D01*
X19210255Y-8047898D02*
X19290255Y-8127898D01*
X19290255Y-8047898D02*
X19210255Y-8127898D01*
X19210255Y-8301898D02*
X19290255Y-8381898D01*
X19290255Y-8301898D02*
X19210255Y-8381898D01*
X19390255Y-4188898D02*
X19470255Y-4268898D01*
X19470255Y-4188898D02*
X19390255Y-4268898D01*
X19815255Y-13013898D02*
X19895255Y-13093898D01*
X19895255Y-13013898D02*
X19815255Y-13093898D01*
X19815255Y-13267898D02*
X19895255Y-13347898D01*
X19895255Y-13267898D02*
X19815255Y-13347898D01*
X19815255Y-13521898D02*
X19895255Y-13601898D01*
X19895255Y-13521898D02*
X19815255Y-13601898D01*
X19815255Y-13775898D02*
X19895255Y-13855898D01*
X19895255Y-13775898D02*
X19815255Y-13855898D01*
X19815255Y-14029898D02*
X19895255Y-14109898D01*
X19895255Y-14029898D02*
X19815255Y-14109898D01*
X19815255Y-14283898D02*
X19895255Y-14363898D01*
X19895255Y-14283898D02*
X19815255Y-14363898D01*
X19815255Y-14537898D02*
X19895255Y-14617898D01*
X19895255Y-14537898D02*
X19815255Y-14617898D01*
X19972255Y-6523898D02*
X20052255Y-6603898D01*
X20052255Y-6523898D02*
X19972255Y-6603898D01*
X19972255Y-6777898D02*
X20052255Y-6857898D01*
X20052255Y-6777898D02*
X19972255Y-6857898D01*
X19972255Y-7031898D02*
X20052255Y-7111898D01*
X20052255Y-7031898D02*
X19972255Y-7111898D01*
X19972255Y-7285898D02*
X20052255Y-7365898D01*
X20052255Y-7285898D02*
X19972255Y-7365898D01*
X19972255Y-7539898D02*
X20052255Y-7619898D01*
X20052255Y-7539898D02*
X19972255Y-7619898D01*
X19972255Y-7793898D02*
X20052255Y-7873898D01*
X20052255Y-7793898D02*
X19972255Y-7873898D01*
X19972255Y-8047898D02*
X20052255Y-8127898D01*
X20052255Y-8047898D02*
X19972255Y-8127898D01*
X19972255Y-8301898D02*
X20052255Y-8381898D01*
X20052255Y-8301898D02*
X19972255Y-8381898D01*
X19975255Y-6178898D02*
X20055255Y-6258898D01*
X20055255Y-6178898D02*
X19975255Y-6258898D01*
X20011956Y-12599256D02*
X20091956Y-12679256D01*
X20091956Y-12599256D02*
X20011956Y-12679256D01*
X20040255Y-4188898D02*
X20120255Y-4268898D01*
X20120255Y-4188898D02*
X20040255Y-4268898D01*
X20050255Y-4778898D02*
X20130255Y-4858898D01*
X20130255Y-4778898D02*
X20050255Y-4858898D01*
X20190255Y-13518898D02*
X20270255Y-13598898D01*
X20270255Y-13518898D02*
X20190255Y-13598898D01*
X20190255Y-14538898D02*
X20270255Y-14618898D01*
X20270255Y-14538898D02*
X20190255Y-14618898D01*
X20465255Y-7538898D02*
X20545255Y-7618898D01*
X20545255Y-7538898D02*
X20465255Y-7618898D01*
X20465255Y-7793898D02*
X20545255Y-7873898D01*
X20545255Y-7793898D02*
X20465255Y-7873898D01*
X20465255Y-8048898D02*
X20545255Y-8128898D01*
X20545255Y-8048898D02*
X20465255Y-8128898D01*
X20465255Y-8303898D02*
X20545255Y-8383898D01*
X20545255Y-8303898D02*
X20465255Y-8383898D01*
X20490255Y-11163898D02*
X20570255Y-11243898D01*
X20570255Y-11163898D02*
X20490255Y-11243898D01*
X20490255Y-11513898D02*
X20570255Y-11593898D01*
X20570255Y-11513898D02*
X20490255Y-11593898D01*
X20490255Y-11813898D02*
X20570255Y-11893898D01*
X20570255Y-11813898D02*
X20490255Y-11893898D01*
X20490255Y-12163898D02*
X20570255Y-12243898D01*
X20570255Y-12163898D02*
X20490255Y-12243898D01*
X20665255Y-4188898D02*
X20745255Y-4268898D01*
X20745255Y-4188898D02*
X20665255Y-4268898D01*
X20790255Y-7038898D02*
X20870255Y-7118898D01*
X20870255Y-7038898D02*
X20790255Y-7118898D01*
X21100255Y-13423898D02*
X21180255Y-13503898D01*
X21180255Y-13423898D02*
X21100255Y-13503898D01*
X21105255Y-10783898D02*
X21185255Y-10863898D01*
X21185255Y-10783898D02*
X21105255Y-10863898D01*
X21115255Y-6613898D02*
X21195255Y-6693898D01*
X21195255Y-6613898D02*
X21115255Y-6693898D01*
X21115255Y-8663898D02*
X21195255Y-8743898D01*
X21195255Y-8663898D02*
X21115255Y-8743898D01*
X21315255Y-14938898D02*
X21395255Y-15018898D01*
X21395255Y-14938898D02*
X21315255Y-15018898D01*
X21365255Y-8663898D02*
X21445255Y-8743898D01*
X21445255Y-8663898D02*
X21365255Y-8743898D01*
X21365255Y-10783898D02*
X21445255Y-10863898D01*
X21445255Y-10783898D02*
X21365255Y-10863898D01*
X21365255Y-13433898D02*
X21445255Y-13513898D01*
X21445255Y-13433898D02*
X21365255Y-13513898D01*
X21615255Y-4463898D02*
X21695255Y-4543898D01*
X21695255Y-4463898D02*
X21615255Y-4543898D01*
X21625255Y-14383898D02*
X21705255Y-14463898D01*
X21705255Y-14383898D02*
X21625255Y-14463898D01*
X21628255Y-5088898D02*
X21708255Y-5168898D01*
X21708255Y-5088898D02*
X21628255Y-5168898D01*
X21628255Y-5342898D02*
X21708255Y-5422898D01*
X21708255Y-5342898D02*
X21628255Y-5422898D01*
X21628255Y-5596898D02*
X21708255Y-5676898D01*
X21708255Y-5596898D02*
X21628255Y-5676898D01*
X21628255Y-5850898D02*
X21708255Y-5930898D01*
X21708255Y-5850898D02*
X21628255Y-5930898D01*
X21628255Y-6104898D02*
X21708255Y-6184898D01*
X21708255Y-6104898D02*
X21628255Y-6184898D01*
X21628255Y-6358898D02*
X21708255Y-6438898D01*
X21708255Y-6358898D02*
X21628255Y-6438898D01*
X21628255Y-6612898D02*
X21708255Y-6692898D01*
X21708255Y-6612898D02*
X21628255Y-6692898D01*
X21628255Y-7138898D02*
X21708255Y-7218898D01*
X21708255Y-7138898D02*
X21628255Y-7218898D01*
X21628255Y-7392898D02*
X21708255Y-7472898D01*
X21708255Y-7392898D02*
X21628255Y-7472898D01*
X21628255Y-7646898D02*
X21708255Y-7726898D01*
X21708255Y-7646898D02*
X21628255Y-7726898D01*
X21628255Y-7900898D02*
X21708255Y-7980898D01*
X21708255Y-7900898D02*
X21628255Y-7980898D01*
X21628255Y-8154898D02*
X21708255Y-8234898D01*
X21708255Y-8154898D02*
X21628255Y-8234898D01*
X21628255Y-8408898D02*
X21708255Y-8488898D01*
X21708255Y-8408898D02*
X21628255Y-8488898D01*
X21628255Y-8662898D02*
X21708255Y-8742898D01*
X21708255Y-8662898D02*
X21628255Y-8742898D01*
X21628255Y-9263898D02*
X21708255Y-9343898D01*
X21708255Y-9263898D02*
X21628255Y-9343898D01*
X21628255Y-9517898D02*
X21708255Y-9597898D01*
X21708255Y-9517898D02*
X21628255Y-9597898D01*
X21628255Y-9771898D02*
X21708255Y-9851898D01*
X21708255Y-9771898D02*
X21628255Y-9851898D01*
X21628255Y-10025898D02*
X21708255Y-10105898D01*
X21708255Y-10025898D02*
X21628255Y-10105898D01*
X21628255Y-10279898D02*
X21708255Y-10359898D01*
X21708255Y-10279898D02*
X21628255Y-10359898D01*
X21628255Y-10533898D02*
X21708255Y-10613898D01*
X21708255Y-10533898D02*
X21628255Y-10613898D01*
X21628255Y-10787898D02*
X21708255Y-10867898D01*
X21708255Y-10787898D02*
X21628255Y-10867898D01*
X21628255Y-11913898D02*
X21708255Y-11993898D01*
X21708255Y-11913898D02*
X21628255Y-11993898D01*
X21628255Y-12167898D02*
X21708255Y-12247898D01*
X21708255Y-12167898D02*
X21628255Y-12247898D01*
X21628255Y-12421898D02*
X21708255Y-12501898D01*
X21708255Y-12421898D02*
X21628255Y-12501898D01*
X21628255Y-12675898D02*
X21708255Y-12755898D01*
X21708255Y-12675898D02*
X21628255Y-12755898D01*
X21628255Y-12929898D02*
X21708255Y-13009898D01*
X21708255Y-12929898D02*
X21628255Y-13009898D01*
X21628255Y-13183898D02*
X21708255Y-13263898D01*
X21708255Y-13183898D02*
X21628255Y-13263898D01*
X21628255Y-13437898D02*
X21708255Y-13517898D01*
X21708255Y-13437898D02*
X21628255Y-13517898D01*
X22365255Y-14388898D02*
X22445255Y-14468898D01*
X22445255Y-14388898D02*
X22365255Y-14468898D01*
X22390255Y-4463898D02*
X22470255Y-4543898D01*
X22470255Y-4463898D02*
X22390255Y-4543898D01*
X22390255Y-5088898D02*
X22470255Y-5168898D01*
X22470255Y-5088898D02*
X22390255Y-5168898D01*
X22390255Y-5342898D02*
X22470255Y-5422898D01*
X22470255Y-5342898D02*
X22390255Y-5422898D01*
X22390255Y-5596898D02*
X22470255Y-5676898D01*
X22470255Y-5596898D02*
X22390255Y-5676898D01*
X22390255Y-5850898D02*
X22470255Y-5930898D01*
X22470255Y-5850898D02*
X22390255Y-5930898D01*
X22390255Y-6104898D02*
X22470255Y-6184898D01*
X22470255Y-6104898D02*
X22390255Y-6184898D01*
X22390255Y-6358898D02*
X22470255Y-6438898D01*
X22470255Y-6358898D02*
X22390255Y-6438898D01*
X22390255Y-6612898D02*
X22470255Y-6692898D01*
X22470255Y-6612898D02*
X22390255Y-6692898D01*
X22390255Y-7138898D02*
X22470255Y-7218898D01*
X22470255Y-7138898D02*
X22390255Y-7218898D01*
X22390255Y-7392898D02*
X22470255Y-7472898D01*
X22470255Y-7392898D02*
X22390255Y-7472898D01*
X22390255Y-7646898D02*
X22470255Y-7726898D01*
X22470255Y-7646898D02*
X22390255Y-7726898D01*
X22390255Y-7900898D02*
X22470255Y-7980898D01*
X22470255Y-7900898D02*
X22390255Y-7980898D01*
X22390255Y-8154898D02*
X22470255Y-8234898D01*
X22470255Y-8154898D02*
X22390255Y-8234898D01*
X22390255Y-8408898D02*
X22470255Y-8488898D01*
X22470255Y-8408898D02*
X22390255Y-8488898D01*
X22390255Y-8662898D02*
X22470255Y-8742898D01*
X22470255Y-8662898D02*
X22390255Y-8742898D01*
X22390255Y-9263898D02*
X22470255Y-9343898D01*
X22470255Y-9263898D02*
X22390255Y-9343898D01*
X22390255Y-9517898D02*
X22470255Y-9597898D01*
X22470255Y-9517898D02*
X22390255Y-9597898D01*
X22390255Y-9771898D02*
X22470255Y-9851898D01*
X22470255Y-9771898D02*
X22390255Y-9851898D01*
X22390255Y-10025898D02*
X22470255Y-10105898D01*
X22470255Y-10025898D02*
X22390255Y-10105898D01*
X22390255Y-10279898D02*
X22470255Y-10359898D01*
X22470255Y-10279898D02*
X22390255Y-10359898D01*
X22390255Y-10533898D02*
X22470255Y-10613898D01*
X22470255Y-10533898D02*
X22390255Y-10613898D01*
X22390255Y-10787898D02*
X22470255Y-10867898D01*
X22470255Y-10787898D02*
X22390255Y-10867898D01*
X22390255Y-11913898D02*
X22470255Y-11993898D01*
X22470255Y-11913898D02*
X22390255Y-11993898D01*
X22390255Y-12167898D02*
X22470255Y-12247898D01*
X22470255Y-12167898D02*
X22390255Y-12247898D01*
X22390255Y-12421898D02*
X22470255Y-12501898D01*
X22470255Y-12421898D02*
X22390255Y-12501898D01*
X22390255Y-12675898D02*
X22470255Y-12755898D01*
X22470255Y-12675898D02*
X22390255Y-12755898D01*
X22390255Y-12929898D02*
X22470255Y-13009898D01*
X22470255Y-12929898D02*
X22390255Y-13009898D01*
X22390255Y-13183898D02*
X22470255Y-13263898D01*
X22470255Y-13183898D02*
X22390255Y-13263898D01*
X22390255Y-13437898D02*
X22470255Y-13517898D01*
X22470255Y-13437898D02*
X22390255Y-13517898D01*
X23129255Y-9900898D02*
X23209255Y-9980898D01*
X23209255Y-9900898D02*
X23129255Y-9980898D01*
X23129255Y-10300898D02*
X23209255Y-10380898D01*
X23209255Y-10300898D02*
X23129255Y-10380898D01*
X23129255Y-10700898D02*
X23209255Y-10780898D01*
X23209255Y-10700898D02*
X23129255Y-10780898D01*
X23129255Y-11100898D02*
X23209255Y-11180898D01*
X23209255Y-11100898D02*
X23129255Y-11180898D01*
X23211255Y-13511898D02*
X23291255Y-13591898D01*
X23291255Y-13511898D02*
X23211255Y-13591898D01*
X23211255Y-13911898D02*
X23291255Y-13991898D01*
X23291255Y-13911898D02*
X23211255Y-13991898D01*
X23211255Y-14311898D02*
X23291255Y-14391898D01*
X23291255Y-14311898D02*
X23211255Y-14391898D01*
X23211255Y-14711898D02*
X23291255Y-14791898D01*
X23291255Y-14711898D02*
X23211255Y-14791898D01*
X23215255Y-11709898D02*
X23295255Y-11789898D01*
X23295255Y-11709898D02*
X23215255Y-11789898D01*
X23215255Y-12109898D02*
X23295255Y-12189898D01*
X23295255Y-12109898D02*
X23215255Y-12189898D01*
X23215255Y-12509898D02*
X23295255Y-12589898D01*
X23295255Y-12509898D02*
X23215255Y-12589898D01*
X23215255Y-12909898D02*
X23295255Y-12989898D01*
X23295255Y-12909898D02*
X23215255Y-12989898D01*
X23335255Y-8124898D02*
X23415255Y-8204898D01*
X23415255Y-8124898D02*
X23335255Y-8204898D01*
X23335255Y-8524898D02*
X23415255Y-8604898D01*
X23415255Y-8524898D02*
X23335255Y-8604898D01*
X23335255Y-8924898D02*
X23415255Y-9004898D01*
X23415255Y-8924898D02*
X23335255Y-9004898D01*
X23335255Y-9324898D02*
X23415255Y-9404898D01*
X23415255Y-9324898D02*
X23335255Y-9404898D01*
X23340255Y-4613898D02*
X23420255Y-4693898D01*
X23420255Y-4613898D02*
X23340255Y-4693898D01*
X23340255Y-5013898D02*
X23420255Y-5093898D01*
X23420255Y-5013898D02*
X23340255Y-5093898D01*
X23340255Y-5413898D02*
X23420255Y-5493898D01*
X23420255Y-5413898D02*
X23340255Y-5493898D01*
X23340255Y-5813898D02*
X23420255Y-5893898D01*
X23420255Y-5813898D02*
X23340255Y-5893898D01*
X23342255Y-6384898D02*
X23422255Y-6464898D01*
X23422255Y-6384898D02*
X23342255Y-6464898D01*
X23342255Y-6784898D02*
X23422255Y-6864898D01*
X23422255Y-6784898D02*
X23342255Y-6864898D01*
X23342255Y-7184898D02*
X23422255Y-7264898D01*
X23422255Y-7184898D02*
X23342255Y-7264898D01*
X23342255Y-7584898D02*
X23422255Y-7664898D01*
X23422255Y-7584898D02*
X23342255Y-7664898D01*
X23429255Y-9900898D02*
X23509255Y-9980898D01*
X23509255Y-9900898D02*
X23429255Y-9980898D01*
X23429255Y-10300898D02*
X23509255Y-10380898D01*
X23509255Y-10300898D02*
X23429255Y-10380898D01*
X23429255Y-10700898D02*
X23509255Y-10780898D01*
X23509255Y-10700898D02*
X23429255Y-10780898D01*
X23429255Y-11100898D02*
X23509255Y-11180898D01*
X23509255Y-11100898D02*
X23429255Y-11180898D01*
X23511255Y-13511898D02*
X23591255Y-13591898D01*
X23591255Y-13511898D02*
X23511255Y-13591898D01*
X23511255Y-13911898D02*
X23591255Y-13991898D01*
X23591255Y-13911898D02*
X23511255Y-13991898D01*
X23511255Y-14311898D02*
X23591255Y-14391898D01*
X23591255Y-14311898D02*
X23511255Y-14391898D01*
X23511255Y-14711898D02*
X23591255Y-14791898D01*
X23591255Y-14711898D02*
X23511255Y-14791898D01*
X23515255Y-11709898D02*
X23595255Y-11789898D01*
X23595255Y-11709898D02*
X23515255Y-11789898D01*
X23515255Y-12109898D02*
X23595255Y-12189898D01*
X23595255Y-12109898D02*
X23515255Y-12189898D01*
X23515255Y-12509898D02*
X23595255Y-12589898D01*
X23595255Y-12509898D02*
X23515255Y-12589898D01*
X23515255Y-12909898D02*
X23595255Y-12989898D01*
X23595255Y-12909898D02*
X23515255Y-12989898D01*
X23635255Y-8124898D02*
X23715255Y-8204898D01*
X23715255Y-8124898D02*
X23635255Y-8204898D01*
X23635255Y-8524898D02*
X23715255Y-8604898D01*
X23715255Y-8524898D02*
X23635255Y-8604898D01*
X23635255Y-8924898D02*
X23715255Y-9004898D01*
X23715255Y-8924898D02*
X23635255Y-9004898D01*
X23635255Y-9324898D02*
X23715255Y-9404898D01*
X23715255Y-9324898D02*
X23635255Y-9404898D01*
X23640255Y-4613898D02*
X23720255Y-4693898D01*
X23720255Y-4613898D02*
X23640255Y-4693898D01*
X23640255Y-5013898D02*
X23720255Y-5093898D01*
X23720255Y-5013898D02*
X23640255Y-5093898D01*
X23640255Y-5413898D02*
X23720255Y-5493898D01*
X23720255Y-5413898D02*
X23640255Y-5493898D01*
X23640255Y-5813898D02*
X23720255Y-5893898D01*
X23720255Y-5813898D02*
X23640255Y-5893898D01*
X23642255Y-6384898D02*
X23722255Y-6464898D01*
X23722255Y-6384898D02*
X23642255Y-6464898D01*
X23642255Y-6784898D02*
X23722255Y-6864898D01*
X23722255Y-6784898D02*
X23642255Y-6864898D01*
X23642255Y-7184898D02*
X23722255Y-7264898D01*
X23722255Y-7184898D02*
X23642255Y-7264898D01*
X23642255Y-7584898D02*
X23722255Y-7664898D01*
X23722255Y-7584898D02*
X23642255Y-7664898D01*
D11*
X8885255Y-6313898D02*
G75*
G02*
X8685255Y-6313898I-100000J0D01*
G01*
X8685255Y-6313898D02*
G75*
G02*
X8885255Y-6313898I100000J0D01*
G01*
X8885255Y-7433898D02*
G75*
G02*
X8685255Y-7433898I-100000J0D01*
G01*
X8685255Y-7433898D02*
G75*
G02*
X8885255Y-7433898I100000J0D01*
G01*
X8885255Y-8533898D02*
G75*
G02*
X8685255Y-8533898I-100000J0D01*
G01*
X8685255Y-8533898D02*
G75*
G02*
X8885255Y-8533898I100000J0D01*
G01*
X8885255Y-9633898D02*
G75*
G02*
X8685255Y-9633898I-100000J0D01*
G01*
X8685255Y-9633898D02*
G75*
G02*
X8885255Y-9633898I100000J0D01*
G01*
X8885255Y-11053898D02*
G75*
G02*
X8685255Y-11053898I-100000J0D01*
G01*
X8685255Y-11053898D02*
G75*
G02*
X8885255Y-11053898I100000J0D01*
G01*
X8885255Y-12173898D02*
G75*
G02*
X8685255Y-12173898I-100000J0D01*
G01*
X8685255Y-12173898D02*
G75*
G02*
X8885255Y-12173898I100000J0D01*
G01*
X8885255Y-13253898D02*
G75*
G02*
X8685255Y-13253898I-100000J0D01*
G01*
X8685255Y-13253898D02*
G75*
G02*
X8885255Y-13253898I100000J0D01*
G01*
X8885255Y-14333898D02*
G75*
G02*
X8685255Y-14333898I-100000J0D01*
G01*
X8685255Y-14333898D02*
G75*
G02*
X8885255Y-14333898I100000J0D01*
G01*
X9355255Y-6313898D02*
G75*
G02*
X9155255Y-6313898I-100000J0D01*
G01*
X9155255Y-6313898D02*
G75*
G02*
X9355255Y-6313898I100000J0D01*
G01*
X9355255Y-7433898D02*
G75*
G02*
X9155255Y-7433898I-100000J0D01*
G01*
X9155255Y-7433898D02*
G75*
G02*
X9355255Y-7433898I100000J0D01*
G01*
X9355255Y-8533898D02*
G75*
G02*
X9155255Y-8533898I-100000J0D01*
G01*
X9155255Y-8533898D02*
G75*
G02*
X9355255Y-8533898I100000J0D01*
G01*
X9355255Y-9633898D02*
G75*
G02*
X9155255Y-9633898I-100000J0D01*
G01*
X9155255Y-9633898D02*
G75*
G02*
X9355255Y-9633898I100000J0D01*
G01*
X9355255Y-11053898D02*
G75*
G02*
X9155255Y-11053898I-100000J0D01*
G01*
X9155255Y-11053898D02*
G75*
G02*
X9355255Y-11053898I100000J0D01*
G01*
X9355255Y-12173898D02*
G75*
G02*
X9155255Y-12173898I-100000J0D01*
G01*
X9155255Y-12173898D02*
G75*
G02*
X9355255Y-12173898I100000J0D01*
G01*
X9355255Y-13253898D02*
G75*
G02*
X9155255Y-13253898I-100000J0D01*
G01*
X9155255Y-13253898D02*
G75*
G02*
X9355255Y-13253898I100000J0D01*
G01*
X9355255Y-14333898D02*
G75*
G02*
X9155255Y-14333898I-100000J0D01*
G01*
X9155255Y-14333898D02*
G75*
G02*
X9355255Y-14333898I100000J0D01*
G01*
X9825255Y-6313898D02*
G75*
G02*
X9625255Y-6313898I-100000J0D01*
G01*
X9625255Y-6313898D02*
G75*
G02*
X9825255Y-6313898I100000J0D01*
G01*
X9825255Y-7433898D02*
G75*
G02*
X9625255Y-7433898I-100000J0D01*
G01*
X9625255Y-7433898D02*
G75*
G02*
X9825255Y-7433898I100000J0D01*
G01*
X9825255Y-8533898D02*
G75*
G02*
X9625255Y-8533898I-100000J0D01*
G01*
X9625255Y-8533898D02*
G75*
G02*
X9825255Y-8533898I100000J0D01*
G01*
X9825255Y-9633898D02*
G75*
G02*
X9625255Y-9633898I-100000J0D01*
G01*
X9625255Y-9633898D02*
G75*
G02*
X9825255Y-9633898I100000J0D01*
G01*
X9825255Y-11053898D02*
G75*
G02*
X9625255Y-11053898I-100000J0D01*
G01*
X9625255Y-11053898D02*
G75*
G02*
X9825255Y-11053898I100000J0D01*
G01*
X9825255Y-12173898D02*
G75*
G02*
X9625255Y-12173898I-100000J0D01*
G01*
X9625255Y-12173898D02*
G75*
G02*
X9825255Y-12173898I100000J0D01*
G01*
X9825255Y-13253898D02*
G75*
G02*
X9625255Y-13253898I-100000J0D01*
G01*
X9625255Y-13253898D02*
G75*
G02*
X9825255Y-13253898I100000J0D01*
G01*
X9825255Y-14333898D02*
G75*
G02*
X9625255Y-14333898I-100000J0D01*
G01*
X9625255Y-14333898D02*
G75*
G02*
X9825255Y-14333898I100000J0D01*
G01*
X11825255Y-11053898D02*
G75*
G02*
X11625255Y-11053898I-100000J0D01*
G01*
X11625255Y-11053898D02*
G75*
G02*
X11825255Y-11053898I100000J0D01*
G01*
X11825255Y-12173898D02*
G75*
G02*
X11625255Y-12173898I-100000J0D01*
G01*
X11625255Y-12173898D02*
G75*
G02*
X11825255Y-12173898I100000J0D01*
G01*
X11825255Y-13253898D02*
G75*
G02*
X11625255Y-13253898I-100000J0D01*
G01*
X11625255Y-13253898D02*
G75*
G02*
X11825255Y-13253898I100000J0D01*
G01*
X11825255Y-14333898D02*
G75*
G02*
X11625255Y-14333898I-100000J0D01*
G01*
X11625255Y-14333898D02*
G75*
G02*
X11825255Y-14333898I100000J0D01*
G01*
X11845255Y-8533898D02*
G75*
G02*
X11645255Y-8533898I-100000J0D01*
G01*
X11645255Y-8533898D02*
G75*
G02*
X11845255Y-8533898I100000J0D01*
G01*
X11845255Y-9633898D02*
G75*
G02*
X11645255Y-9633898I-100000J0D01*
G01*
X11645255Y-9633898D02*
G75*
G02*
X11845255Y-9633898I100000J0D01*
G01*
X11850255Y-6313898D02*
G75*
G02*
X11650255Y-6313898I-100000J0D01*
G01*
X11650255Y-6313898D02*
G75*
G02*
X11850255Y-6313898I100000J0D01*
G01*
X11850255Y-7433898D02*
G75*
G02*
X11650255Y-7433898I-100000J0D01*
G01*
X11650255Y-7433898D02*
G75*
G02*
X11850255Y-7433898I100000J0D01*
G01*
X12295255Y-11053898D02*
G75*
G02*
X12095255Y-11053898I-100000J0D01*
G01*
X12095255Y-11053898D02*
G75*
G02*
X12295255Y-11053898I100000J0D01*
G01*
X12295255Y-12173898D02*
G75*
G02*
X12095255Y-12173898I-100000J0D01*
G01*
X12095255Y-12173898D02*
G75*
G02*
X12295255Y-12173898I100000J0D01*
G01*
X12295255Y-13253898D02*
G75*
G02*
X12095255Y-13253898I-100000J0D01*
G01*
X12095255Y-13253898D02*
G75*
G02*
X12295255Y-13253898I100000J0D01*
G01*
X12295255Y-14333898D02*
G75*
G02*
X12095255Y-14333898I-100000J0D01*
G01*
X12095255Y-14333898D02*
G75*
G02*
X12295255Y-14333898I100000J0D01*
G01*
X12315255Y-8533898D02*
G75*
G02*
X12115255Y-8533898I-100000J0D01*
G01*
X12115255Y-8533898D02*
G75*
G02*
X12315255Y-8533898I100000J0D01*
G01*
X12315255Y-9633898D02*
G75*
G02*
X12115255Y-9633898I-100000J0D01*
G01*
X12115255Y-9633898D02*
G75*
G02*
X12315255Y-9633898I100000J0D01*
G01*
X12320255Y-6313898D02*
G75*
G02*
X12120255Y-6313898I-100000J0D01*
G01*
X12120255Y-6313898D02*
G75*
G02*
X12320255Y-6313898I100000J0D01*
G01*
X12320255Y-7433898D02*
G75*
G02*
X12120255Y-7433898I-100000J0D01*
G01*
X12120255Y-7433898D02*
G75*
G02*
X12320255Y-7433898I100000J0D01*
G01*
X12765255Y-11053898D02*
G75*
G02*
X12565255Y-11053898I-100000J0D01*
G01*
X12565255Y-11053898D02*
G75*
G02*
X12765255Y-11053898I100000J0D01*
G01*
X12765255Y-12173898D02*
G75*
G02*
X12565255Y-12173898I-100000J0D01*
G01*
X12565255Y-12173898D02*
G75*
G02*
X12765255Y-12173898I100000J0D01*
G01*
X12765255Y-13253898D02*
G75*
G02*
X12565255Y-13253898I-100000J0D01*
G01*
X12565255Y-13253898D02*
G75*
G02*
X12765255Y-13253898I100000J0D01*
G01*
X12765255Y-14333898D02*
G75*
G02*
X12565255Y-14333898I-100000J0D01*
G01*
X12565255Y-14333898D02*
G75*
G02*
X12765255Y-14333898I100000J0D01*
G01*
X12785255Y-8533898D02*
G75*
G02*
X12585255Y-8533898I-100000J0D01*
G01*
X12585255Y-8533898D02*
G75*
G02*
X12785255Y-8533898I100000J0D01*
G01*
X12785255Y-9633898D02*
G75*
G02*
X12585255Y-9633898I-100000J0D01*
G01*
X12585255Y-9633898D02*
G75*
G02*
X12785255Y-9633898I100000J0D01*
G01*
X12790255Y-6313898D02*
G75*
G02*
X12590255Y-6313898I-100000J0D01*
G01*
X12590255Y-6313898D02*
G75*
G02*
X12790255Y-6313898I100000J0D01*
G01*
X12790255Y-7433898D02*
G75*
G02*
X12590255Y-7433898I-100000J0D01*
G01*
X12590255Y-7433898D02*
G75*
G02*
X12790255Y-7433898I100000J0D01*
G01*
X7929451Y-15657287D02*
X7929451Y-15457287D01*
X7929451Y-15457287D02*
X7977070Y-15457287D01*
X7977070Y-15457287D02*
X8005641Y-15466811D01*
X8005641Y-15466811D02*
X8024689Y-15485858D01*
X8024689Y-15485858D02*
X8034213Y-15504906D01*
X8034213Y-15504906D02*
X8043737Y-15543001D01*
X8043737Y-15543001D02*
X8043737Y-15571573D01*
X8043737Y-15571573D02*
X8034213Y-15609668D01*
X8034213Y-15609668D02*
X8024689Y-15628716D01*
X8024689Y-15628716D02*
X8005641Y-15647763D01*
X8005641Y-15647763D02*
X7977070Y-15657287D01*
X7977070Y-15657287D02*
X7929451Y-15657287D01*
X8129451Y-15657287D02*
X8129451Y-15523954D01*
X8129451Y-15562049D02*
X8138975Y-15543001D01*
X8138975Y-15543001D02*
X8148498Y-15533477D01*
X8148498Y-15533477D02*
X8167546Y-15523954D01*
X8167546Y-15523954D02*
X8186594Y-15523954D01*
X8253260Y-15657287D02*
X8253260Y-15523954D01*
X8253260Y-15457287D02*
X8243737Y-15466811D01*
X8243737Y-15466811D02*
X8253260Y-15476335D01*
X8253260Y-15476335D02*
X8262784Y-15466811D01*
X8262784Y-15466811D02*
X8253260Y-15457287D01*
X8253260Y-15457287D02*
X8253260Y-15476335D01*
X8377070Y-15657287D02*
X8358022Y-15647763D01*
X8358022Y-15647763D02*
X8348498Y-15628716D01*
X8348498Y-15628716D02*
X8348498Y-15457287D01*
X8481832Y-15657287D02*
X8462784Y-15647763D01*
X8462784Y-15647763D02*
X8453260Y-15628716D01*
X8453260Y-15628716D02*
X8453260Y-15457287D01*
X8710403Y-15657287D02*
X8710403Y-15457287D01*
X8710403Y-15457287D02*
X8777070Y-15600144D01*
X8777070Y-15600144D02*
X8843737Y-15457287D01*
X8843737Y-15457287D02*
X8843737Y-15657287D01*
X9024689Y-15657287D02*
X9024689Y-15552525D01*
X9024689Y-15552525D02*
X9015165Y-15533477D01*
X9015165Y-15533477D02*
X8996118Y-15523954D01*
X8996118Y-15523954D02*
X8958022Y-15523954D01*
X8958022Y-15523954D02*
X8938975Y-15533477D01*
X9024689Y-15647763D02*
X9005641Y-15657287D01*
X9005641Y-15657287D02*
X8958022Y-15657287D01*
X8958022Y-15657287D02*
X8938975Y-15647763D01*
X8938975Y-15647763D02*
X8929451Y-15628716D01*
X8929451Y-15628716D02*
X8929451Y-15609668D01*
X8929451Y-15609668D02*
X8938975Y-15590620D01*
X8938975Y-15590620D02*
X8958022Y-15581097D01*
X8958022Y-15581097D02*
X9005641Y-15581097D01*
X9005641Y-15581097D02*
X9024689Y-15571573D01*
X9119927Y-15523954D02*
X9119927Y-15723954D01*
X9119927Y-15533477D02*
X9138975Y-15523954D01*
X9138975Y-15523954D02*
X9177070Y-15523954D01*
X9177070Y-15523954D02*
X9196118Y-15533477D01*
X9196118Y-15533477D02*
X9205641Y-15543001D01*
X9205641Y-15543001D02*
X9215165Y-15562049D01*
X9215165Y-15562049D02*
X9215165Y-15619192D01*
X9215165Y-15619192D02*
X9205641Y-15638239D01*
X9205641Y-15638239D02*
X9196118Y-15647763D01*
X9196118Y-15647763D02*
X9177070Y-15657287D01*
X9177070Y-15657287D02*
X9138975Y-15657287D01*
X9138975Y-15657287D02*
X9119927Y-15647763D01*
X9300880Y-15638239D02*
X9310403Y-15647763D01*
X9310403Y-15647763D02*
X9300880Y-15657287D01*
X9300880Y-15657287D02*
X9291356Y-15647763D01*
X9291356Y-15647763D02*
X9300880Y-15638239D01*
X9300880Y-15638239D02*
X9300880Y-15657287D01*
X9300880Y-15533477D02*
X9310403Y-15543001D01*
X9310403Y-15543001D02*
X9300880Y-15552525D01*
X9300880Y-15552525D02*
X9291356Y-15543001D01*
X9291356Y-15543001D02*
X9300880Y-15533477D01*
X9300880Y-15533477D02*
X9300880Y-15552525D01*
D12*
X7588674Y-15945803D02*
X7668674Y-16025803D01*
X7668674Y-15945803D02*
X7588674Y-16025803D01*
D11*
X7967546Y-15877287D02*
X7986594Y-15877287D01*
X7986594Y-15877287D02*
X8005641Y-15886811D01*
X8005641Y-15886811D02*
X8015165Y-15896335D01*
X8015165Y-15896335D02*
X8024689Y-15915382D01*
X8024689Y-15915382D02*
X8034213Y-15953477D01*
X8034213Y-15953477D02*
X8034213Y-16001097D01*
X8034213Y-16001097D02*
X8024689Y-16039192D01*
X8024689Y-16039192D02*
X8015165Y-16058239D01*
X8015165Y-16058239D02*
X8005641Y-16067763D01*
X8005641Y-16067763D02*
X7986594Y-16077287D01*
X7986594Y-16077287D02*
X7967546Y-16077287D01*
X7967546Y-16077287D02*
X7948498Y-16067763D01*
X7948498Y-16067763D02*
X7938975Y-16058239D01*
X7938975Y-16058239D02*
X7929451Y-16039192D01*
X7929451Y-16039192D02*
X7919927Y-16001097D01*
X7919927Y-16001097D02*
X7919927Y-15953477D01*
X7919927Y-15953477D02*
X7929451Y-15915382D01*
X7929451Y-15915382D02*
X7938975Y-15896335D01*
X7938975Y-15896335D02*
X7948498Y-15886811D01*
X7948498Y-15886811D02*
X7967546Y-15877287D01*
X8119927Y-16058239D02*
X8129451Y-16067763D01*
X8129451Y-16067763D02*
X8119927Y-16077287D01*
X8119927Y-16077287D02*
X8110403Y-16067763D01*
X8110403Y-16067763D02*
X8119927Y-16058239D01*
X8119927Y-16058239D02*
X8119927Y-16077287D01*
X8243737Y-15963001D02*
X8224689Y-15953477D01*
X8224689Y-15953477D02*
X8215165Y-15943954D01*
X8215165Y-15943954D02*
X8205641Y-15924906D01*
X8205641Y-15924906D02*
X8205641Y-15915382D01*
X8205641Y-15915382D02*
X8215165Y-15896335D01*
X8215165Y-15896335D02*
X8224689Y-15886811D01*
X8224689Y-15886811D02*
X8243737Y-15877287D01*
X8243737Y-15877287D02*
X8281832Y-15877287D01*
X8281832Y-15877287D02*
X8300879Y-15886811D01*
X8300879Y-15886811D02*
X8310403Y-15896335D01*
X8310403Y-15896335D02*
X8319927Y-15915382D01*
X8319927Y-15915382D02*
X8319927Y-15924906D01*
X8319927Y-15924906D02*
X8310403Y-15943954D01*
X8310403Y-15943954D02*
X8300879Y-15953477D01*
X8300879Y-15953477D02*
X8281832Y-15963001D01*
X8281832Y-15963001D02*
X8243737Y-15963001D01*
X8243737Y-15963001D02*
X8224689Y-15972525D01*
X8224689Y-15972525D02*
X8215165Y-15982049D01*
X8215165Y-15982049D02*
X8205641Y-16001097D01*
X8205641Y-16001097D02*
X8205641Y-16039192D01*
X8205641Y-16039192D02*
X8215165Y-16058239D01*
X8215165Y-16058239D02*
X8224689Y-16067763D01*
X8224689Y-16067763D02*
X8243737Y-16077287D01*
X8243737Y-16077287D02*
X8281832Y-16077287D01*
X8281832Y-16077287D02*
X8300879Y-16067763D01*
X8300879Y-16067763D02*
X8310403Y-16058239D01*
X8310403Y-16058239D02*
X8319927Y-16039192D01*
X8319927Y-16039192D02*
X8319927Y-16001097D01*
X8319927Y-16001097D02*
X8310403Y-15982049D01*
X8310403Y-15982049D02*
X8300879Y-15972525D01*
X8300879Y-15972525D02*
X8281832Y-15963001D01*
X8443737Y-15877287D02*
X8462784Y-15877287D01*
X8462784Y-15877287D02*
X8481832Y-15886811D01*
X8481832Y-15886811D02*
X8491356Y-15896335D01*
X8491356Y-15896335D02*
X8500880Y-15915382D01*
X8500880Y-15915382D02*
X8510403Y-15953477D01*
X8510403Y-15953477D02*
X8510403Y-16001097D01*
X8510403Y-16001097D02*
X8500880Y-16039192D01*
X8500880Y-16039192D02*
X8491356Y-16058239D01*
X8491356Y-16058239D02*
X8481832Y-16067763D01*
X8481832Y-16067763D02*
X8462784Y-16077287D01*
X8462784Y-16077287D02*
X8443737Y-16077287D01*
X8443737Y-16077287D02*
X8424689Y-16067763D01*
X8424689Y-16067763D02*
X8415165Y-16058239D01*
X8415165Y-16058239D02*
X8405641Y-16039192D01*
X8405641Y-16039192D02*
X8396118Y-16001097D01*
X8396118Y-16001097D02*
X8396118Y-15953477D01*
X8396118Y-15953477D02*
X8405641Y-15915382D01*
X8405641Y-15915382D02*
X8415165Y-15896335D01*
X8415165Y-15896335D02*
X8424689Y-15886811D01*
X8424689Y-15886811D02*
X8443737Y-15877287D01*
X8634213Y-15877287D02*
X8653261Y-15877287D01*
X8653261Y-15877287D02*
X8672308Y-15886811D01*
X8672308Y-15886811D02*
X8681832Y-15896335D01*
X8681832Y-15896335D02*
X8691356Y-15915382D01*
X8691356Y-15915382D02*
X8700880Y-15953477D01*
X8700880Y-15953477D02*
X8700880Y-16001097D01*
X8700880Y-16001097D02*
X8691356Y-16039192D01*
X8691356Y-16039192D02*
X8681832Y-16058239D01*
X8681832Y-16058239D02*
X8672308Y-16067763D01*
X8672308Y-16067763D02*
X8653261Y-16077287D01*
X8653261Y-16077287D02*
X8634213Y-16077287D01*
X8634213Y-16077287D02*
X8615165Y-16067763D01*
X8615165Y-16067763D02*
X8605641Y-16058239D01*
X8605641Y-16058239D02*
X8596118Y-16039192D01*
X8596118Y-16039192D02*
X8586594Y-16001097D01*
X8586594Y-16001097D02*
X8586594Y-15953477D01*
X8586594Y-15953477D02*
X8596118Y-15915382D01*
X8596118Y-15915382D02*
X8605641Y-15896335D01*
X8605641Y-15896335D02*
X8615165Y-15886811D01*
X8615165Y-15886811D02*
X8634213Y-15877287D01*
X8786594Y-16077287D02*
X8786594Y-15943954D01*
X8786594Y-15963001D02*
X8796118Y-15953477D01*
X8796118Y-15953477D02*
X8815165Y-15943954D01*
X8815165Y-15943954D02*
X8843737Y-15943954D01*
X8843737Y-15943954D02*
X8862784Y-15953477D01*
X8862784Y-15953477D02*
X8872308Y-15972525D01*
X8872308Y-15972525D02*
X8872308Y-16077287D01*
X8872308Y-15972525D02*
X8881832Y-15953477D01*
X8881832Y-15953477D02*
X8900880Y-15943954D01*
X8900880Y-15943954D02*
X8929451Y-15943954D01*
X8929451Y-15943954D02*
X8948499Y-15953477D01*
X8948499Y-15953477D02*
X8958022Y-15972525D01*
X8958022Y-15972525D02*
X8958022Y-16077287D01*
X9053261Y-16077287D02*
X9053261Y-15943954D01*
X9053261Y-15963001D02*
X9062784Y-15953477D01*
X9062784Y-15953477D02*
X9081832Y-15943954D01*
X9081832Y-15943954D02*
X9110403Y-15943954D01*
X9110403Y-15943954D02*
X9129451Y-15953477D01*
X9129451Y-15953477D02*
X9138975Y-15972525D01*
X9138975Y-15972525D02*
X9138975Y-16077287D01*
X9138975Y-15972525D02*
X9148499Y-15953477D01*
X9148499Y-15953477D02*
X9167546Y-15943954D01*
X9167546Y-15943954D02*
X9196118Y-15943954D01*
X9196118Y-15943954D02*
X9215165Y-15953477D01*
X9215165Y-15953477D02*
X9224689Y-15972525D01*
X9224689Y-15972525D02*
X9224689Y-16077287D01*
X9615165Y-15867763D02*
X9443737Y-16124906D01*
X9872308Y-15877287D02*
X9891356Y-15877287D01*
X9891356Y-15877287D02*
X9910404Y-15886811D01*
X9910404Y-15886811D02*
X9919927Y-15896335D01*
X9919927Y-15896335D02*
X9929451Y-15915382D01*
X9929451Y-15915382D02*
X9938975Y-15953477D01*
X9938975Y-15953477D02*
X9938975Y-16001097D01*
X9938975Y-16001097D02*
X9929451Y-16039192D01*
X9929451Y-16039192D02*
X9919927Y-16058239D01*
X9919927Y-16058239D02*
X9910404Y-16067763D01*
X9910404Y-16067763D02*
X9891356Y-16077287D01*
X9891356Y-16077287D02*
X9872308Y-16077287D01*
X9872308Y-16077287D02*
X9853261Y-16067763D01*
X9853261Y-16067763D02*
X9843737Y-16058239D01*
X9843737Y-16058239D02*
X9834213Y-16039192D01*
X9834213Y-16039192D02*
X9824689Y-16001097D01*
X9824689Y-16001097D02*
X9824689Y-15953477D01*
X9824689Y-15953477D02*
X9834213Y-15915382D01*
X9834213Y-15915382D02*
X9843737Y-15896335D01*
X9843737Y-15896335D02*
X9853261Y-15886811D01*
X9853261Y-15886811D02*
X9872308Y-15877287D01*
X10024689Y-16058239D02*
X10034213Y-16067763D01*
X10034213Y-16067763D02*
X10024689Y-16077287D01*
X10024689Y-16077287D02*
X10015165Y-16067763D01*
X10015165Y-16067763D02*
X10024689Y-16058239D01*
X10024689Y-16058239D02*
X10024689Y-16077287D01*
X10158023Y-15877287D02*
X10177070Y-15877287D01*
X10177070Y-15877287D02*
X10196118Y-15886811D01*
X10196118Y-15886811D02*
X10205642Y-15896335D01*
X10205642Y-15896335D02*
X10215165Y-15915382D01*
X10215165Y-15915382D02*
X10224689Y-15953477D01*
X10224689Y-15953477D02*
X10224689Y-16001097D01*
X10224689Y-16001097D02*
X10215165Y-16039192D01*
X10215165Y-16039192D02*
X10205642Y-16058239D01*
X10205642Y-16058239D02*
X10196118Y-16067763D01*
X10196118Y-16067763D02*
X10177070Y-16077287D01*
X10177070Y-16077287D02*
X10158023Y-16077287D01*
X10158023Y-16077287D02*
X10138975Y-16067763D01*
X10138975Y-16067763D02*
X10129451Y-16058239D01*
X10129451Y-16058239D02*
X10119927Y-16039192D01*
X10119927Y-16039192D02*
X10110404Y-16001097D01*
X10110404Y-16001097D02*
X10110404Y-15953477D01*
X10110404Y-15953477D02*
X10119927Y-15915382D01*
X10119927Y-15915382D02*
X10129451Y-15896335D01*
X10129451Y-15896335D02*
X10138975Y-15886811D01*
X10138975Y-15886811D02*
X10158023Y-15877287D01*
X10291356Y-15877287D02*
X10415165Y-15877287D01*
X10415165Y-15877287D02*
X10348499Y-15953477D01*
X10348499Y-15953477D02*
X10377070Y-15953477D01*
X10377070Y-15953477D02*
X10396118Y-15963001D01*
X10396118Y-15963001D02*
X10405642Y-15972525D01*
X10405642Y-15972525D02*
X10415165Y-15991573D01*
X10415165Y-15991573D02*
X10415165Y-16039192D01*
X10415165Y-16039192D02*
X10405642Y-16058239D01*
X10405642Y-16058239D02*
X10396118Y-16067763D01*
X10396118Y-16067763D02*
X10377070Y-16077287D01*
X10377070Y-16077287D02*
X10319927Y-16077287D01*
X10319927Y-16077287D02*
X10300880Y-16067763D01*
X10300880Y-16067763D02*
X10291356Y-16058239D01*
X10605642Y-16077287D02*
X10491356Y-16077287D01*
X10548499Y-16077287D02*
X10548499Y-15877287D01*
X10548499Y-15877287D02*
X10529451Y-15905858D01*
X10529451Y-15905858D02*
X10510404Y-15924906D01*
X10510404Y-15924906D02*
X10491356Y-15934430D01*
X10786594Y-15877287D02*
X10691356Y-15877287D01*
X10691356Y-15877287D02*
X10681832Y-15972525D01*
X10681832Y-15972525D02*
X10691356Y-15963001D01*
X10691356Y-15963001D02*
X10710404Y-15953477D01*
X10710404Y-15953477D02*
X10758023Y-15953477D01*
X10758023Y-15953477D02*
X10777070Y-15963001D01*
X10777070Y-15963001D02*
X10786594Y-15972525D01*
X10786594Y-15972525D02*
X10796118Y-15991573D01*
X10796118Y-15991573D02*
X10796118Y-16039192D01*
X10796118Y-16039192D02*
X10786594Y-16058239D01*
X10786594Y-16058239D02*
X10777070Y-16067763D01*
X10777070Y-16067763D02*
X10758023Y-16077287D01*
X10758023Y-16077287D02*
X10710404Y-16077287D01*
X10710404Y-16077287D02*
X10691356Y-16067763D01*
X10691356Y-16067763D02*
X10681832Y-16058239D01*
X10872308Y-15877287D02*
X10872308Y-15915382D01*
X10948499Y-15877287D02*
X10948499Y-15915382D01*
X11243737Y-16153477D02*
X11234213Y-16143954D01*
X11234213Y-16143954D02*
X11215165Y-16115382D01*
X11215165Y-16115382D02*
X11205642Y-16096335D01*
X11205642Y-16096335D02*
X11196118Y-16067763D01*
X11196118Y-16067763D02*
X11186594Y-16020144D01*
X11186594Y-16020144D02*
X11186594Y-15982049D01*
X11186594Y-15982049D02*
X11196118Y-15934430D01*
X11196118Y-15934430D02*
X11205642Y-15905858D01*
X11205642Y-15905858D02*
X11215165Y-15886811D01*
X11215165Y-15886811D02*
X11234213Y-15858239D01*
X11234213Y-15858239D02*
X11243737Y-15848716D01*
X11300880Y-15877287D02*
X11424689Y-15877287D01*
X11424689Y-15877287D02*
X11358023Y-15953477D01*
X11358023Y-15953477D02*
X11386594Y-15953477D01*
X11386594Y-15953477D02*
X11405642Y-15963001D01*
X11405642Y-15963001D02*
X11415165Y-15972525D01*
X11415165Y-15972525D02*
X11424689Y-15991573D01*
X11424689Y-15991573D02*
X11424689Y-16039192D01*
X11424689Y-16039192D02*
X11415165Y-16058239D01*
X11415165Y-16058239D02*
X11405642Y-16067763D01*
X11405642Y-16067763D02*
X11386594Y-16077287D01*
X11386594Y-16077287D02*
X11329451Y-16077287D01*
X11329451Y-16077287D02*
X11310404Y-16067763D01*
X11310404Y-16067763D02*
X11300880Y-16058239D01*
X11538975Y-15963001D02*
X11519927Y-15953477D01*
X11519927Y-15953477D02*
X11510404Y-15943954D01*
X11510404Y-15943954D02*
X11500880Y-15924906D01*
X11500880Y-15924906D02*
X11500880Y-15915382D01*
X11500880Y-15915382D02*
X11510404Y-15896335D01*
X11510404Y-15896335D02*
X11519927Y-15886811D01*
X11519927Y-15886811D02*
X11538975Y-15877287D01*
X11538975Y-15877287D02*
X11577070Y-15877287D01*
X11577070Y-15877287D02*
X11596118Y-15886811D01*
X11596118Y-15886811D02*
X11605642Y-15896335D01*
X11605642Y-15896335D02*
X11615165Y-15915382D01*
X11615165Y-15915382D02*
X11615165Y-15924906D01*
X11615165Y-15924906D02*
X11605642Y-15943954D01*
X11605642Y-15943954D02*
X11596118Y-15953477D01*
X11596118Y-15953477D02*
X11577070Y-15963001D01*
X11577070Y-15963001D02*
X11538975Y-15963001D01*
X11538975Y-15963001D02*
X11519927Y-15972525D01*
X11519927Y-15972525D02*
X11510404Y-15982049D01*
X11510404Y-15982049D02*
X11500880Y-16001097D01*
X11500880Y-16001097D02*
X11500880Y-16039192D01*
X11500880Y-16039192D02*
X11510404Y-16058239D01*
X11510404Y-16058239D02*
X11519927Y-16067763D01*
X11519927Y-16067763D02*
X11538975Y-16077287D01*
X11538975Y-16077287D02*
X11577070Y-16077287D01*
X11577070Y-16077287D02*
X11596118Y-16067763D01*
X11596118Y-16067763D02*
X11605642Y-16058239D01*
X11605642Y-16058239D02*
X11615165Y-16039192D01*
X11615165Y-16039192D02*
X11615165Y-16001097D01*
X11615165Y-16001097D02*
X11605642Y-15982049D01*
X11605642Y-15982049D02*
X11596118Y-15972525D01*
X11596118Y-15972525D02*
X11577070Y-15963001D01*
X11805642Y-16077287D02*
X11691356Y-16077287D01*
X11748499Y-16077287D02*
X11748499Y-15877287D01*
X11748499Y-15877287D02*
X11729451Y-15905858D01*
X11729451Y-15905858D02*
X11710404Y-15924906D01*
X11710404Y-15924906D02*
X11691356Y-15934430D01*
X12043737Y-16077287D02*
X12043737Y-15877287D01*
X12129451Y-16077287D02*
X12129451Y-15972525D01*
X12129451Y-15972525D02*
X12119927Y-15953477D01*
X12119927Y-15953477D02*
X12100880Y-15943954D01*
X12100880Y-15943954D02*
X12072308Y-15943954D01*
X12072308Y-15943954D02*
X12053261Y-15953477D01*
X12053261Y-15953477D02*
X12043737Y-15963001D01*
X12253261Y-16077287D02*
X12234213Y-16067763D01*
X12234213Y-16067763D02*
X12224689Y-16058239D01*
X12224689Y-16058239D02*
X12215166Y-16039192D01*
X12215166Y-16039192D02*
X12215166Y-15982049D01*
X12215166Y-15982049D02*
X12224689Y-15963001D01*
X12224689Y-15963001D02*
X12234213Y-15953477D01*
X12234213Y-15953477D02*
X12253261Y-15943954D01*
X12253261Y-15943954D02*
X12281832Y-15943954D01*
X12281832Y-15943954D02*
X12300880Y-15953477D01*
X12300880Y-15953477D02*
X12310404Y-15963001D01*
X12310404Y-15963001D02*
X12319927Y-15982049D01*
X12319927Y-15982049D02*
X12319927Y-16039192D01*
X12319927Y-16039192D02*
X12310404Y-16058239D01*
X12310404Y-16058239D02*
X12300880Y-16067763D01*
X12300880Y-16067763D02*
X12281832Y-16077287D01*
X12281832Y-16077287D02*
X12253261Y-16077287D01*
X12434213Y-16077287D02*
X12415166Y-16067763D01*
X12415166Y-16067763D02*
X12405642Y-16048716D01*
X12405642Y-16048716D02*
X12405642Y-15877287D01*
X12586594Y-16067763D02*
X12567547Y-16077287D01*
X12567547Y-16077287D02*
X12529451Y-16077287D01*
X12529451Y-16077287D02*
X12510404Y-16067763D01*
X12510404Y-16067763D02*
X12500880Y-16048716D01*
X12500880Y-16048716D02*
X12500880Y-15972525D01*
X12500880Y-15972525D02*
X12510404Y-15953477D01*
X12510404Y-15953477D02*
X12529451Y-15943954D01*
X12529451Y-15943954D02*
X12567547Y-15943954D01*
X12567547Y-15943954D02*
X12586594Y-15953477D01*
X12586594Y-15953477D02*
X12596118Y-15972525D01*
X12596118Y-15972525D02*
X12596118Y-15991573D01*
X12596118Y-15991573D02*
X12500880Y-16010620D01*
X12672308Y-16067763D02*
X12691356Y-16077287D01*
X12691356Y-16077287D02*
X12729451Y-16077287D01*
X12729451Y-16077287D02*
X12748499Y-16067763D01*
X12748499Y-16067763D02*
X12758023Y-16048716D01*
X12758023Y-16048716D02*
X12758023Y-16039192D01*
X12758023Y-16039192D02*
X12748499Y-16020144D01*
X12748499Y-16020144D02*
X12729451Y-16010620D01*
X12729451Y-16010620D02*
X12700880Y-16010620D01*
X12700880Y-16010620D02*
X12681832Y-16001097D01*
X12681832Y-16001097D02*
X12672308Y-15982049D01*
X12672308Y-15982049D02*
X12672308Y-15972525D01*
X12672308Y-15972525D02*
X12681832Y-15953477D01*
X12681832Y-15953477D02*
X12700880Y-15943954D01*
X12700880Y-15943954D02*
X12729451Y-15943954D01*
X12729451Y-15943954D02*
X12748499Y-15953477D01*
X12824689Y-16153477D02*
X12834213Y-16143954D01*
X12834213Y-16143954D02*
X12853261Y-16115382D01*
X12853261Y-16115382D02*
X12862785Y-16096335D01*
X12862785Y-16096335D02*
X12872308Y-16067763D01*
X12872308Y-16067763D02*
X12881832Y-16020144D01*
X12881832Y-16020144D02*
X12881832Y-15982049D01*
X12881832Y-15982049D02*
X12872308Y-15934430D01*
X12872308Y-15934430D02*
X12862785Y-15905858D01*
X12862785Y-15905858D02*
X12853261Y-15886811D01*
X12853261Y-15886811D02*
X12834213Y-15858239D01*
X12834213Y-15858239D02*
X12824689Y-15848716D01*
X7668674Y-16249803D02*
G75*
G02*
X7468674Y-16249803I-100000J0D01*
G01*
X7468674Y-16249803D02*
G75*
G02*
X7668674Y-16249803I100000J0D01*
G01*
X7919927Y-16160335D02*
X7929451Y-16150811D01*
X7929451Y-16150811D02*
X7948498Y-16141287D01*
X7948498Y-16141287D02*
X7996118Y-16141287D01*
X7996118Y-16141287D02*
X8015165Y-16150811D01*
X8015165Y-16150811D02*
X8024689Y-16160335D01*
X8024689Y-16160335D02*
X8034213Y-16179382D01*
X8034213Y-16179382D02*
X8034213Y-16198430D01*
X8034213Y-16198430D02*
X8024689Y-16227001D01*
X8024689Y-16227001D02*
X7910403Y-16341287D01*
X7910403Y-16341287D02*
X8034213Y-16341287D01*
X8119927Y-16322239D02*
X8129451Y-16331763D01*
X8129451Y-16331763D02*
X8119927Y-16341287D01*
X8119927Y-16341287D02*
X8110403Y-16331763D01*
X8110403Y-16331763D02*
X8119927Y-16322239D01*
X8119927Y-16322239D02*
X8119927Y-16341287D01*
X8253260Y-16141287D02*
X8272308Y-16141287D01*
X8272308Y-16141287D02*
X8291356Y-16150811D01*
X8291356Y-16150811D02*
X8300879Y-16160335D01*
X8300879Y-16160335D02*
X8310403Y-16179382D01*
X8310403Y-16179382D02*
X8319927Y-16217477D01*
X8319927Y-16217477D02*
X8319927Y-16265097D01*
X8319927Y-16265097D02*
X8310403Y-16303192D01*
X8310403Y-16303192D02*
X8300879Y-16322239D01*
X8300879Y-16322239D02*
X8291356Y-16331763D01*
X8291356Y-16331763D02*
X8272308Y-16341287D01*
X8272308Y-16341287D02*
X8253260Y-16341287D01*
X8253260Y-16341287D02*
X8234213Y-16331763D01*
X8234213Y-16331763D02*
X8224689Y-16322239D01*
X8224689Y-16322239D02*
X8215165Y-16303192D01*
X8215165Y-16303192D02*
X8205641Y-16265097D01*
X8205641Y-16265097D02*
X8205641Y-16217477D01*
X8205641Y-16217477D02*
X8215165Y-16179382D01*
X8215165Y-16179382D02*
X8224689Y-16160335D01*
X8224689Y-16160335D02*
X8234213Y-16150811D01*
X8234213Y-16150811D02*
X8253260Y-16141287D01*
X8443737Y-16141287D02*
X8462784Y-16141287D01*
X8462784Y-16141287D02*
X8481832Y-16150811D01*
X8481832Y-16150811D02*
X8491356Y-16160335D01*
X8491356Y-16160335D02*
X8500880Y-16179382D01*
X8500880Y-16179382D02*
X8510403Y-16217477D01*
X8510403Y-16217477D02*
X8510403Y-16265097D01*
X8510403Y-16265097D02*
X8500880Y-16303192D01*
X8500880Y-16303192D02*
X8491356Y-16322239D01*
X8491356Y-16322239D02*
X8481832Y-16331763D01*
X8481832Y-16331763D02*
X8462784Y-16341287D01*
X8462784Y-16341287D02*
X8443737Y-16341287D01*
X8443737Y-16341287D02*
X8424689Y-16331763D01*
X8424689Y-16331763D02*
X8415165Y-16322239D01*
X8415165Y-16322239D02*
X8405641Y-16303192D01*
X8405641Y-16303192D02*
X8396118Y-16265097D01*
X8396118Y-16265097D02*
X8396118Y-16217477D01*
X8396118Y-16217477D02*
X8405641Y-16179382D01*
X8405641Y-16179382D02*
X8415165Y-16160335D01*
X8415165Y-16160335D02*
X8424689Y-16150811D01*
X8424689Y-16150811D02*
X8443737Y-16141287D01*
X8634213Y-16141287D02*
X8653261Y-16141287D01*
X8653261Y-16141287D02*
X8672308Y-16150811D01*
X8672308Y-16150811D02*
X8681832Y-16160335D01*
X8681832Y-16160335D02*
X8691356Y-16179382D01*
X8691356Y-16179382D02*
X8700880Y-16217477D01*
X8700880Y-16217477D02*
X8700880Y-16265097D01*
X8700880Y-16265097D02*
X8691356Y-16303192D01*
X8691356Y-16303192D02*
X8681832Y-16322239D01*
X8681832Y-16322239D02*
X8672308Y-16331763D01*
X8672308Y-16331763D02*
X8653261Y-16341287D01*
X8653261Y-16341287D02*
X8634213Y-16341287D01*
X8634213Y-16341287D02*
X8615165Y-16331763D01*
X8615165Y-16331763D02*
X8605641Y-16322239D01*
X8605641Y-16322239D02*
X8596118Y-16303192D01*
X8596118Y-16303192D02*
X8586594Y-16265097D01*
X8586594Y-16265097D02*
X8586594Y-16217477D01*
X8586594Y-16217477D02*
X8596118Y-16179382D01*
X8596118Y-16179382D02*
X8605641Y-16160335D01*
X8605641Y-16160335D02*
X8615165Y-16150811D01*
X8615165Y-16150811D02*
X8634213Y-16141287D01*
X8786594Y-16341287D02*
X8786594Y-16207954D01*
X8786594Y-16227001D02*
X8796118Y-16217477D01*
X8796118Y-16217477D02*
X8815165Y-16207954D01*
X8815165Y-16207954D02*
X8843737Y-16207954D01*
X8843737Y-16207954D02*
X8862784Y-16217477D01*
X8862784Y-16217477D02*
X8872308Y-16236525D01*
X8872308Y-16236525D02*
X8872308Y-16341287D01*
X8872308Y-16236525D02*
X8881832Y-16217477D01*
X8881832Y-16217477D02*
X8900880Y-16207954D01*
X8900880Y-16207954D02*
X8929451Y-16207954D01*
X8929451Y-16207954D02*
X8948499Y-16217477D01*
X8948499Y-16217477D02*
X8958022Y-16236525D01*
X8958022Y-16236525D02*
X8958022Y-16341287D01*
X9053261Y-16341287D02*
X9053261Y-16207954D01*
X9053261Y-16227001D02*
X9062784Y-16217477D01*
X9062784Y-16217477D02*
X9081832Y-16207954D01*
X9081832Y-16207954D02*
X9110403Y-16207954D01*
X9110403Y-16207954D02*
X9129451Y-16217477D01*
X9129451Y-16217477D02*
X9138975Y-16236525D01*
X9138975Y-16236525D02*
X9138975Y-16341287D01*
X9138975Y-16236525D02*
X9148499Y-16217477D01*
X9148499Y-16217477D02*
X9167546Y-16207954D01*
X9167546Y-16207954D02*
X9196118Y-16207954D01*
X9196118Y-16207954D02*
X9215165Y-16217477D01*
X9215165Y-16217477D02*
X9224689Y-16236525D01*
X9224689Y-16236525D02*
X9224689Y-16341287D01*
X9615165Y-16131763D02*
X9443737Y-16388906D01*
X9872308Y-16141287D02*
X9891356Y-16141287D01*
X9891356Y-16141287D02*
X9910404Y-16150811D01*
X9910404Y-16150811D02*
X9919927Y-16160335D01*
X9919927Y-16160335D02*
X9929451Y-16179382D01*
X9929451Y-16179382D02*
X9938975Y-16217477D01*
X9938975Y-16217477D02*
X9938975Y-16265097D01*
X9938975Y-16265097D02*
X9929451Y-16303192D01*
X9929451Y-16303192D02*
X9919927Y-16322239D01*
X9919927Y-16322239D02*
X9910404Y-16331763D01*
X9910404Y-16331763D02*
X9891356Y-16341287D01*
X9891356Y-16341287D02*
X9872308Y-16341287D01*
X9872308Y-16341287D02*
X9853261Y-16331763D01*
X9853261Y-16331763D02*
X9843737Y-16322239D01*
X9843737Y-16322239D02*
X9834213Y-16303192D01*
X9834213Y-16303192D02*
X9824689Y-16265097D01*
X9824689Y-16265097D02*
X9824689Y-16217477D01*
X9824689Y-16217477D02*
X9834213Y-16179382D01*
X9834213Y-16179382D02*
X9843737Y-16160335D01*
X9843737Y-16160335D02*
X9853261Y-16150811D01*
X9853261Y-16150811D02*
X9872308Y-16141287D01*
X10024689Y-16322239D02*
X10034213Y-16331763D01*
X10034213Y-16331763D02*
X10024689Y-16341287D01*
X10024689Y-16341287D02*
X10015165Y-16331763D01*
X10015165Y-16331763D02*
X10024689Y-16322239D01*
X10024689Y-16322239D02*
X10024689Y-16341287D01*
X10158023Y-16141287D02*
X10177070Y-16141287D01*
X10177070Y-16141287D02*
X10196118Y-16150811D01*
X10196118Y-16150811D02*
X10205642Y-16160335D01*
X10205642Y-16160335D02*
X10215165Y-16179382D01*
X10215165Y-16179382D02*
X10224689Y-16217477D01*
X10224689Y-16217477D02*
X10224689Y-16265097D01*
X10224689Y-16265097D02*
X10215165Y-16303192D01*
X10215165Y-16303192D02*
X10205642Y-16322239D01*
X10205642Y-16322239D02*
X10196118Y-16331763D01*
X10196118Y-16331763D02*
X10177070Y-16341287D01*
X10177070Y-16341287D02*
X10158023Y-16341287D01*
X10158023Y-16341287D02*
X10138975Y-16331763D01*
X10138975Y-16331763D02*
X10129451Y-16322239D01*
X10129451Y-16322239D02*
X10119927Y-16303192D01*
X10119927Y-16303192D02*
X10110404Y-16265097D01*
X10110404Y-16265097D02*
X10110404Y-16217477D01*
X10110404Y-16217477D02*
X10119927Y-16179382D01*
X10119927Y-16179382D02*
X10129451Y-16160335D01*
X10129451Y-16160335D02*
X10138975Y-16150811D01*
X10138975Y-16150811D02*
X10158023Y-16141287D01*
X10291356Y-16141287D02*
X10424689Y-16141287D01*
X10424689Y-16141287D02*
X10338975Y-16341287D01*
X10529451Y-16227001D02*
X10510404Y-16217477D01*
X10510404Y-16217477D02*
X10500880Y-16207954D01*
X10500880Y-16207954D02*
X10491356Y-16188906D01*
X10491356Y-16188906D02*
X10491356Y-16179382D01*
X10491356Y-16179382D02*
X10500880Y-16160335D01*
X10500880Y-16160335D02*
X10510404Y-16150811D01*
X10510404Y-16150811D02*
X10529451Y-16141287D01*
X10529451Y-16141287D02*
X10567546Y-16141287D01*
X10567546Y-16141287D02*
X10586594Y-16150811D01*
X10586594Y-16150811D02*
X10596118Y-16160335D01*
X10596118Y-16160335D02*
X10605642Y-16179382D01*
X10605642Y-16179382D02*
X10605642Y-16188906D01*
X10605642Y-16188906D02*
X10596118Y-16207954D01*
X10596118Y-16207954D02*
X10586594Y-16217477D01*
X10586594Y-16217477D02*
X10567546Y-16227001D01*
X10567546Y-16227001D02*
X10529451Y-16227001D01*
X10529451Y-16227001D02*
X10510404Y-16236525D01*
X10510404Y-16236525D02*
X10500880Y-16246049D01*
X10500880Y-16246049D02*
X10491356Y-16265097D01*
X10491356Y-16265097D02*
X10491356Y-16303192D01*
X10491356Y-16303192D02*
X10500880Y-16322239D01*
X10500880Y-16322239D02*
X10510404Y-16331763D01*
X10510404Y-16331763D02*
X10529451Y-16341287D01*
X10529451Y-16341287D02*
X10567546Y-16341287D01*
X10567546Y-16341287D02*
X10586594Y-16331763D01*
X10586594Y-16331763D02*
X10596118Y-16322239D01*
X10596118Y-16322239D02*
X10605642Y-16303192D01*
X10605642Y-16303192D02*
X10605642Y-16265097D01*
X10605642Y-16265097D02*
X10596118Y-16246049D01*
X10596118Y-16246049D02*
X10586594Y-16236525D01*
X10586594Y-16236525D02*
X10567546Y-16227001D01*
X10672308Y-16141287D02*
X10805642Y-16141287D01*
X10805642Y-16141287D02*
X10719927Y-16341287D01*
X10872308Y-16141287D02*
X10872308Y-16179382D01*
X10948499Y-16141287D02*
X10948499Y-16179382D01*
X11243737Y-16417477D02*
X11234213Y-16407954D01*
X11234213Y-16407954D02*
X11215165Y-16379382D01*
X11215165Y-16379382D02*
X11205642Y-16360335D01*
X11205642Y-16360335D02*
X11196118Y-16331763D01*
X11196118Y-16331763D02*
X11186594Y-16284144D01*
X11186594Y-16284144D02*
X11186594Y-16246049D01*
X11186594Y-16246049D02*
X11196118Y-16198430D01*
X11196118Y-16198430D02*
X11205642Y-16169858D01*
X11205642Y-16169858D02*
X11215165Y-16150811D01*
X11215165Y-16150811D02*
X11234213Y-16122239D01*
X11234213Y-16122239D02*
X11243737Y-16112716D01*
X11405642Y-16207954D02*
X11405642Y-16341287D01*
X11358023Y-16131763D02*
X11310404Y-16274620D01*
X11310404Y-16274620D02*
X11434213Y-16274620D01*
X11538975Y-16227001D02*
X11519927Y-16217477D01*
X11519927Y-16217477D02*
X11510404Y-16207954D01*
X11510404Y-16207954D02*
X11500880Y-16188906D01*
X11500880Y-16188906D02*
X11500880Y-16179382D01*
X11500880Y-16179382D02*
X11510404Y-16160335D01*
X11510404Y-16160335D02*
X11519927Y-16150811D01*
X11519927Y-16150811D02*
X11538975Y-16141287D01*
X11538975Y-16141287D02*
X11577070Y-16141287D01*
X11577070Y-16141287D02*
X11596118Y-16150811D01*
X11596118Y-16150811D02*
X11605642Y-16160335D01*
X11605642Y-16160335D02*
X11615165Y-16179382D01*
X11615165Y-16179382D02*
X11615165Y-16188906D01*
X11615165Y-16188906D02*
X11605642Y-16207954D01*
X11605642Y-16207954D02*
X11596118Y-16217477D01*
X11596118Y-16217477D02*
X11577070Y-16227001D01*
X11577070Y-16227001D02*
X11538975Y-16227001D01*
X11538975Y-16227001D02*
X11519927Y-16236525D01*
X11519927Y-16236525D02*
X11510404Y-16246049D01*
X11510404Y-16246049D02*
X11500880Y-16265097D01*
X11500880Y-16265097D02*
X11500880Y-16303192D01*
X11500880Y-16303192D02*
X11510404Y-16322239D01*
X11510404Y-16322239D02*
X11519927Y-16331763D01*
X11519927Y-16331763D02*
X11538975Y-16341287D01*
X11538975Y-16341287D02*
X11577070Y-16341287D01*
X11577070Y-16341287D02*
X11596118Y-16331763D01*
X11596118Y-16331763D02*
X11605642Y-16322239D01*
X11605642Y-16322239D02*
X11615165Y-16303192D01*
X11615165Y-16303192D02*
X11615165Y-16265097D01*
X11615165Y-16265097D02*
X11605642Y-16246049D01*
X11605642Y-16246049D02*
X11596118Y-16236525D01*
X11596118Y-16236525D02*
X11577070Y-16227001D01*
X11853261Y-16341287D02*
X11853261Y-16141287D01*
X11938975Y-16341287D02*
X11938975Y-16236525D01*
X11938975Y-16236525D02*
X11929451Y-16217477D01*
X11929451Y-16217477D02*
X11910404Y-16207954D01*
X11910404Y-16207954D02*
X11881832Y-16207954D01*
X11881832Y-16207954D02*
X11862785Y-16217477D01*
X11862785Y-16217477D02*
X11853261Y-16227001D01*
X12062785Y-16341287D02*
X12043737Y-16331763D01*
X12043737Y-16331763D02*
X12034213Y-16322239D01*
X12034213Y-16322239D02*
X12024689Y-16303192D01*
X12024689Y-16303192D02*
X12024689Y-16246049D01*
X12024689Y-16246049D02*
X12034213Y-16227001D01*
X12034213Y-16227001D02*
X12043737Y-16217477D01*
X12043737Y-16217477D02*
X12062785Y-16207954D01*
X12062785Y-16207954D02*
X12091356Y-16207954D01*
X12091356Y-16207954D02*
X12110404Y-16217477D01*
X12110404Y-16217477D02*
X12119927Y-16227001D01*
X12119927Y-16227001D02*
X12129451Y-16246049D01*
X12129451Y-16246049D02*
X12129451Y-16303192D01*
X12129451Y-16303192D02*
X12119927Y-16322239D01*
X12119927Y-16322239D02*
X12110404Y-16331763D01*
X12110404Y-16331763D02*
X12091356Y-16341287D01*
X12091356Y-16341287D02*
X12062785Y-16341287D01*
X12243737Y-16341287D02*
X12224689Y-16331763D01*
X12224689Y-16331763D02*
X12215166Y-16312716D01*
X12215166Y-16312716D02*
X12215166Y-16141287D01*
X12396118Y-16331763D02*
X12377070Y-16341287D01*
X12377070Y-16341287D02*
X12338975Y-16341287D01*
X12338975Y-16341287D02*
X12319927Y-16331763D01*
X12319927Y-16331763D02*
X12310404Y-16312716D01*
X12310404Y-16312716D02*
X12310404Y-16236525D01*
X12310404Y-16236525D02*
X12319927Y-16217477D01*
X12319927Y-16217477D02*
X12338975Y-16207954D01*
X12338975Y-16207954D02*
X12377070Y-16207954D01*
X12377070Y-16207954D02*
X12396118Y-16217477D01*
X12396118Y-16217477D02*
X12405642Y-16236525D01*
X12405642Y-16236525D02*
X12405642Y-16255573D01*
X12405642Y-16255573D02*
X12310404Y-16274620D01*
X12481832Y-16331763D02*
X12500880Y-16341287D01*
X12500880Y-16341287D02*
X12538975Y-16341287D01*
X12538975Y-16341287D02*
X12558023Y-16331763D01*
X12558023Y-16331763D02*
X12567547Y-16312716D01*
X12567547Y-16312716D02*
X12567547Y-16303192D01*
X12567547Y-16303192D02*
X12558023Y-16284144D01*
X12558023Y-16284144D02*
X12538975Y-16274620D01*
X12538975Y-16274620D02*
X12510404Y-16274620D01*
X12510404Y-16274620D02*
X12491356Y-16265097D01*
X12491356Y-16265097D02*
X12481832Y-16246049D01*
X12481832Y-16246049D02*
X12481832Y-16236525D01*
X12481832Y-16236525D02*
X12491356Y-16217477D01*
X12491356Y-16217477D02*
X12510404Y-16207954D01*
X12510404Y-16207954D02*
X12538975Y-16207954D01*
X12538975Y-16207954D02*
X12558023Y-16217477D01*
X12634213Y-16417477D02*
X12643737Y-16407954D01*
X12643737Y-16407954D02*
X12662785Y-16379382D01*
X12662785Y-16379382D02*
X12672308Y-16360335D01*
X12672308Y-16360335D02*
X12681832Y-16331763D01*
X12681832Y-16331763D02*
X12691356Y-16284144D01*
X12691356Y-16284144D02*
X12691356Y-16246049D01*
X12691356Y-16246049D02*
X12681832Y-16198430D01*
X12681832Y-16198430D02*
X12672308Y-16169858D01*
X12672308Y-16169858D02*
X12662785Y-16150811D01*
X12662785Y-16150811D02*
X12643737Y-16122239D01*
X12643737Y-16122239D02*
X12634213Y-16112716D01*
M02*
