%TF.GenerationSoftware,KiCad,Pcbnew,9.0.8-1.fc43*%
%TF.CreationDate,2026-04-18T09:25:11+01:00*%
%TF.ProjectId,Scrumpi_JN,53637275-6d70-4695-9f4a-4e2e6b696361,rev?*%
%TF.SameCoordinates,Original*%
%TF.FileFunction,Drillmap*%
%TF.FilePolarity,Positive*%
%FSLAX45Y45*%
G04 Gerber Fmt 4.5, Leading zero omitted, Abs format (unit mm)*
G04 Created by KiCad (PCBNEW 9.0.8-1.fc43) date 2026-04-18 09:25:11*
%MOMM*%
%LPD*%
G01*
G04 APERTURE LIST*
%ADD10C,0.038100*%
%ADD11C,0.200000*%
%ADD12C,0.270000*%
G04 APERTURE END LIST*
D10*
X7673000Y-2585000D02*
X24183000Y-2585000D01*
X24183000Y-15285000D01*
X7673000Y-15285000D01*
X7673000Y-2585000D01*
D11*
D12*
X9124000Y-14113000D02*
X9394000Y-14383000D01*
X9394000Y-14113000D02*
X9124000Y-14383000D01*
X9685000Y-3885000D02*
X9955000Y-4155000D01*
X9955000Y-3885000D02*
X9685000Y-4155000D01*
X20865000Y-7525000D02*
X21135000Y-7795000D01*
X21135000Y-7525000D02*
X20865000Y-7795000D01*
D11*
X7931872Y-15598389D02*
X7931872Y-15398389D01*
X7931872Y-15398389D02*
X7979491Y-15398389D01*
X7979491Y-15398389D02*
X8008062Y-15407913D01*
X8008062Y-15407913D02*
X8027110Y-15426960D01*
X8027110Y-15426960D02*
X8036634Y-15446008D01*
X8036634Y-15446008D02*
X8046157Y-15484103D01*
X8046157Y-15484103D02*
X8046157Y-15512674D01*
X8046157Y-15512674D02*
X8036634Y-15550770D01*
X8036634Y-15550770D02*
X8027110Y-15569817D01*
X8027110Y-15569817D02*
X8008062Y-15588865D01*
X8008062Y-15588865D02*
X7979491Y-15598389D01*
X7979491Y-15598389D02*
X7931872Y-15598389D01*
X8131872Y-15598389D02*
X8131872Y-15465055D01*
X8131872Y-15503151D02*
X8141396Y-15484103D01*
X8141396Y-15484103D02*
X8150919Y-15474579D01*
X8150919Y-15474579D02*
X8169967Y-15465055D01*
X8169967Y-15465055D02*
X8189015Y-15465055D01*
X8255681Y-15598389D02*
X8255681Y-15465055D01*
X8255681Y-15398389D02*
X8246157Y-15407913D01*
X8246157Y-15407913D02*
X8255681Y-15417436D01*
X8255681Y-15417436D02*
X8265205Y-15407913D01*
X8265205Y-15407913D02*
X8255681Y-15398389D01*
X8255681Y-15398389D02*
X8255681Y-15417436D01*
X8379491Y-15598389D02*
X8360443Y-15588865D01*
X8360443Y-15588865D02*
X8350919Y-15569817D01*
X8350919Y-15569817D02*
X8350919Y-15398389D01*
X8484253Y-15598389D02*
X8465205Y-15588865D01*
X8465205Y-15588865D02*
X8455681Y-15569817D01*
X8455681Y-15569817D02*
X8455681Y-15398389D01*
X8712824Y-15598389D02*
X8712824Y-15398389D01*
X8712824Y-15398389D02*
X8779491Y-15541246D01*
X8779491Y-15541246D02*
X8846158Y-15398389D01*
X8846158Y-15398389D02*
X8846158Y-15598389D01*
X9027110Y-15598389D02*
X9027110Y-15493627D01*
X9027110Y-15493627D02*
X9017586Y-15474579D01*
X9017586Y-15474579D02*
X8998539Y-15465055D01*
X8998539Y-15465055D02*
X8960443Y-15465055D01*
X8960443Y-15465055D02*
X8941396Y-15474579D01*
X9027110Y-15588865D02*
X9008062Y-15598389D01*
X9008062Y-15598389D02*
X8960443Y-15598389D01*
X8960443Y-15598389D02*
X8941396Y-15588865D01*
X8941396Y-15588865D02*
X8931872Y-15569817D01*
X8931872Y-15569817D02*
X8931872Y-15550770D01*
X8931872Y-15550770D02*
X8941396Y-15531722D01*
X8941396Y-15531722D02*
X8960443Y-15522198D01*
X8960443Y-15522198D02*
X9008062Y-15522198D01*
X9008062Y-15522198D02*
X9027110Y-15512674D01*
X9122348Y-15465055D02*
X9122348Y-15665055D01*
X9122348Y-15474579D02*
X9141396Y-15465055D01*
X9141396Y-15465055D02*
X9179491Y-15465055D01*
X9179491Y-15465055D02*
X9198539Y-15474579D01*
X9198539Y-15474579D02*
X9208062Y-15484103D01*
X9208062Y-15484103D02*
X9217586Y-15503151D01*
X9217586Y-15503151D02*
X9217586Y-15560293D01*
X9217586Y-15560293D02*
X9208062Y-15579341D01*
X9208062Y-15579341D02*
X9198539Y-15588865D01*
X9198539Y-15588865D02*
X9179491Y-15598389D01*
X9179491Y-15598389D02*
X9141396Y-15598389D01*
X9141396Y-15598389D02*
X9122348Y-15588865D01*
X9303300Y-15579341D02*
X9312824Y-15588865D01*
X9312824Y-15588865D02*
X9303300Y-15598389D01*
X9303300Y-15598389D02*
X9293777Y-15588865D01*
X9293777Y-15588865D02*
X9303300Y-15579341D01*
X9303300Y-15579341D02*
X9303300Y-15598389D01*
X9303300Y-15474579D02*
X9312824Y-15484103D01*
X9312824Y-15484103D02*
X9303300Y-15493627D01*
X9303300Y-15493627D02*
X9293777Y-15484103D01*
X9293777Y-15484103D02*
X9303300Y-15474579D01*
X9303300Y-15474579D02*
X9303300Y-15493627D01*
X7471095Y-15826905D02*
X7671095Y-16026905D01*
X7671095Y-15826905D02*
X7471095Y-16026905D01*
X7922348Y-15837436D02*
X7931872Y-15827913D01*
X7931872Y-15827913D02*
X7950919Y-15818389D01*
X7950919Y-15818389D02*
X7998538Y-15818389D01*
X7998538Y-15818389D02*
X8017586Y-15827913D01*
X8017586Y-15827913D02*
X8027110Y-15837436D01*
X8027110Y-15837436D02*
X8036634Y-15856484D01*
X8036634Y-15856484D02*
X8036634Y-15875532D01*
X8036634Y-15875532D02*
X8027110Y-15904103D01*
X8027110Y-15904103D02*
X7912824Y-16018389D01*
X7912824Y-16018389D02*
X8036634Y-16018389D01*
X8122348Y-15999341D02*
X8131872Y-16008865D01*
X8131872Y-16008865D02*
X8122348Y-16018389D01*
X8122348Y-16018389D02*
X8112824Y-16008865D01*
X8112824Y-16008865D02*
X8122348Y-15999341D01*
X8122348Y-15999341D02*
X8122348Y-16018389D01*
X8198538Y-15818389D02*
X8331872Y-15818389D01*
X8331872Y-15818389D02*
X8246157Y-16018389D01*
X8446158Y-15818389D02*
X8465205Y-15818389D01*
X8465205Y-15818389D02*
X8484253Y-15827913D01*
X8484253Y-15827913D02*
X8493777Y-15837436D01*
X8493777Y-15837436D02*
X8503300Y-15856484D01*
X8503300Y-15856484D02*
X8512824Y-15894579D01*
X8512824Y-15894579D02*
X8512824Y-15942198D01*
X8512824Y-15942198D02*
X8503300Y-15980293D01*
X8503300Y-15980293D02*
X8493777Y-15999341D01*
X8493777Y-15999341D02*
X8484253Y-16008865D01*
X8484253Y-16008865D02*
X8465205Y-16018389D01*
X8465205Y-16018389D02*
X8446158Y-16018389D01*
X8446158Y-16018389D02*
X8427110Y-16008865D01*
X8427110Y-16008865D02*
X8417586Y-15999341D01*
X8417586Y-15999341D02*
X8408062Y-15980293D01*
X8408062Y-15980293D02*
X8398539Y-15942198D01*
X8398539Y-15942198D02*
X8398539Y-15894579D01*
X8398539Y-15894579D02*
X8408062Y-15856484D01*
X8408062Y-15856484D02*
X8417586Y-15837436D01*
X8417586Y-15837436D02*
X8427110Y-15827913D01*
X8427110Y-15827913D02*
X8446158Y-15818389D01*
X8636634Y-15818389D02*
X8655681Y-15818389D01*
X8655681Y-15818389D02*
X8674729Y-15827913D01*
X8674729Y-15827913D02*
X8684253Y-15837436D01*
X8684253Y-15837436D02*
X8693777Y-15856484D01*
X8693777Y-15856484D02*
X8703300Y-15894579D01*
X8703300Y-15894579D02*
X8703300Y-15942198D01*
X8703300Y-15942198D02*
X8693777Y-15980293D01*
X8693777Y-15980293D02*
X8684253Y-15999341D01*
X8684253Y-15999341D02*
X8674729Y-16008865D01*
X8674729Y-16008865D02*
X8655681Y-16018389D01*
X8655681Y-16018389D02*
X8636634Y-16018389D01*
X8636634Y-16018389D02*
X8617586Y-16008865D01*
X8617586Y-16008865D02*
X8608062Y-15999341D01*
X8608062Y-15999341D02*
X8598539Y-15980293D01*
X8598539Y-15980293D02*
X8589015Y-15942198D01*
X8589015Y-15942198D02*
X8589015Y-15894579D01*
X8589015Y-15894579D02*
X8598539Y-15856484D01*
X8598539Y-15856484D02*
X8608062Y-15837436D01*
X8608062Y-15837436D02*
X8617586Y-15827913D01*
X8617586Y-15827913D02*
X8636634Y-15818389D01*
X8789015Y-16018389D02*
X8789015Y-15885055D01*
X8789015Y-15904103D02*
X8798539Y-15894579D01*
X8798539Y-15894579D02*
X8817586Y-15885055D01*
X8817586Y-15885055D02*
X8846158Y-15885055D01*
X8846158Y-15885055D02*
X8865205Y-15894579D01*
X8865205Y-15894579D02*
X8874729Y-15913627D01*
X8874729Y-15913627D02*
X8874729Y-16018389D01*
X8874729Y-15913627D02*
X8884253Y-15894579D01*
X8884253Y-15894579D02*
X8903300Y-15885055D01*
X8903300Y-15885055D02*
X8931872Y-15885055D01*
X8931872Y-15885055D02*
X8950920Y-15894579D01*
X8950920Y-15894579D02*
X8960443Y-15913627D01*
X8960443Y-15913627D02*
X8960443Y-16018389D01*
X9055681Y-16018389D02*
X9055681Y-15885055D01*
X9055681Y-15904103D02*
X9065205Y-15894579D01*
X9065205Y-15894579D02*
X9084253Y-15885055D01*
X9084253Y-15885055D02*
X9112824Y-15885055D01*
X9112824Y-15885055D02*
X9131872Y-15894579D01*
X9131872Y-15894579D02*
X9141396Y-15913627D01*
X9141396Y-15913627D02*
X9141396Y-16018389D01*
X9141396Y-15913627D02*
X9150920Y-15894579D01*
X9150920Y-15894579D02*
X9169967Y-15885055D01*
X9169967Y-15885055D02*
X9198539Y-15885055D01*
X9198539Y-15885055D02*
X9217586Y-15894579D01*
X9217586Y-15894579D02*
X9227110Y-15913627D01*
X9227110Y-15913627D02*
X9227110Y-16018389D01*
X9617586Y-15808865D02*
X9446158Y-16066008D01*
X9874729Y-15818389D02*
X9893777Y-15818389D01*
X9893777Y-15818389D02*
X9912824Y-15827913D01*
X9912824Y-15827913D02*
X9922348Y-15837436D01*
X9922348Y-15837436D02*
X9931872Y-15856484D01*
X9931872Y-15856484D02*
X9941396Y-15894579D01*
X9941396Y-15894579D02*
X9941396Y-15942198D01*
X9941396Y-15942198D02*
X9931872Y-15980293D01*
X9931872Y-15980293D02*
X9922348Y-15999341D01*
X9922348Y-15999341D02*
X9912824Y-16008865D01*
X9912824Y-16008865D02*
X9893777Y-16018389D01*
X9893777Y-16018389D02*
X9874729Y-16018389D01*
X9874729Y-16018389D02*
X9855682Y-16008865D01*
X9855682Y-16008865D02*
X9846158Y-15999341D01*
X9846158Y-15999341D02*
X9836634Y-15980293D01*
X9836634Y-15980293D02*
X9827110Y-15942198D01*
X9827110Y-15942198D02*
X9827110Y-15894579D01*
X9827110Y-15894579D02*
X9836634Y-15856484D01*
X9836634Y-15856484D02*
X9846158Y-15837436D01*
X9846158Y-15837436D02*
X9855682Y-15827913D01*
X9855682Y-15827913D02*
X9874729Y-15818389D01*
X10027110Y-15999341D02*
X10036634Y-16008865D01*
X10036634Y-16008865D02*
X10027110Y-16018389D01*
X10027110Y-16018389D02*
X10017586Y-16008865D01*
X10017586Y-16008865D02*
X10027110Y-15999341D01*
X10027110Y-15999341D02*
X10027110Y-16018389D01*
X10227110Y-16018389D02*
X10112824Y-16018389D01*
X10169967Y-16018389D02*
X10169967Y-15818389D01*
X10169967Y-15818389D02*
X10150920Y-15846960D01*
X10150920Y-15846960D02*
X10131872Y-15866008D01*
X10131872Y-15866008D02*
X10112824Y-15875532D01*
X10350920Y-15818389D02*
X10369967Y-15818389D01*
X10369967Y-15818389D02*
X10389015Y-15827913D01*
X10389015Y-15827913D02*
X10398539Y-15837436D01*
X10398539Y-15837436D02*
X10408063Y-15856484D01*
X10408063Y-15856484D02*
X10417586Y-15894579D01*
X10417586Y-15894579D02*
X10417586Y-15942198D01*
X10417586Y-15942198D02*
X10408063Y-15980293D01*
X10408063Y-15980293D02*
X10398539Y-15999341D01*
X10398539Y-15999341D02*
X10389015Y-16008865D01*
X10389015Y-16008865D02*
X10369967Y-16018389D01*
X10369967Y-16018389D02*
X10350920Y-16018389D01*
X10350920Y-16018389D02*
X10331872Y-16008865D01*
X10331872Y-16008865D02*
X10322348Y-15999341D01*
X10322348Y-15999341D02*
X10312824Y-15980293D01*
X10312824Y-15980293D02*
X10303301Y-15942198D01*
X10303301Y-15942198D02*
X10303301Y-15894579D01*
X10303301Y-15894579D02*
X10312824Y-15856484D01*
X10312824Y-15856484D02*
X10322348Y-15837436D01*
X10322348Y-15837436D02*
X10331872Y-15827913D01*
X10331872Y-15827913D02*
X10350920Y-15818389D01*
X10589015Y-15818389D02*
X10550920Y-15818389D01*
X10550920Y-15818389D02*
X10531872Y-15827913D01*
X10531872Y-15827913D02*
X10522348Y-15837436D01*
X10522348Y-15837436D02*
X10503301Y-15866008D01*
X10503301Y-15866008D02*
X10493777Y-15904103D01*
X10493777Y-15904103D02*
X10493777Y-15980293D01*
X10493777Y-15980293D02*
X10503301Y-15999341D01*
X10503301Y-15999341D02*
X10512824Y-16008865D01*
X10512824Y-16008865D02*
X10531872Y-16018389D01*
X10531872Y-16018389D02*
X10569967Y-16018389D01*
X10569967Y-16018389D02*
X10589015Y-16008865D01*
X10589015Y-16008865D02*
X10598539Y-15999341D01*
X10598539Y-15999341D02*
X10608063Y-15980293D01*
X10608063Y-15980293D02*
X10608063Y-15932674D01*
X10608063Y-15932674D02*
X10598539Y-15913627D01*
X10598539Y-15913627D02*
X10589015Y-15904103D01*
X10589015Y-15904103D02*
X10569967Y-15894579D01*
X10569967Y-15894579D02*
X10531872Y-15894579D01*
X10531872Y-15894579D02*
X10512824Y-15904103D01*
X10512824Y-15904103D02*
X10503301Y-15913627D01*
X10503301Y-15913627D02*
X10493777Y-15932674D01*
X10674729Y-15818389D02*
X10798539Y-15818389D01*
X10798539Y-15818389D02*
X10731872Y-15894579D01*
X10731872Y-15894579D02*
X10760444Y-15894579D01*
X10760444Y-15894579D02*
X10779491Y-15904103D01*
X10779491Y-15904103D02*
X10789015Y-15913627D01*
X10789015Y-15913627D02*
X10798539Y-15932674D01*
X10798539Y-15932674D02*
X10798539Y-15980293D01*
X10798539Y-15980293D02*
X10789015Y-15999341D01*
X10789015Y-15999341D02*
X10779491Y-16008865D01*
X10779491Y-16008865D02*
X10760444Y-16018389D01*
X10760444Y-16018389D02*
X10703301Y-16018389D01*
X10703301Y-16018389D02*
X10684253Y-16008865D01*
X10684253Y-16008865D02*
X10674729Y-15999341D01*
X10874729Y-15818389D02*
X10874729Y-15856484D01*
X10950920Y-15818389D02*
X10950920Y-15856484D01*
X11246158Y-16094579D02*
X11236634Y-16085055D01*
X11236634Y-16085055D02*
X11217586Y-16056484D01*
X11217586Y-16056484D02*
X11208063Y-16037436D01*
X11208063Y-16037436D02*
X11198539Y-16008865D01*
X11198539Y-16008865D02*
X11189015Y-15961246D01*
X11189015Y-15961246D02*
X11189015Y-15923151D01*
X11189015Y-15923151D02*
X11198539Y-15875532D01*
X11198539Y-15875532D02*
X11208063Y-15846960D01*
X11208063Y-15846960D02*
X11217586Y-15827913D01*
X11217586Y-15827913D02*
X11236634Y-15799341D01*
X11236634Y-15799341D02*
X11246158Y-15789817D01*
X11303301Y-15818389D02*
X11427110Y-15818389D01*
X11427110Y-15818389D02*
X11360443Y-15894579D01*
X11360443Y-15894579D02*
X11389015Y-15894579D01*
X11389015Y-15894579D02*
X11408063Y-15904103D01*
X11408063Y-15904103D02*
X11417586Y-15913627D01*
X11417586Y-15913627D02*
X11427110Y-15932674D01*
X11427110Y-15932674D02*
X11427110Y-15980293D01*
X11427110Y-15980293D02*
X11417586Y-15999341D01*
X11417586Y-15999341D02*
X11408063Y-16008865D01*
X11408063Y-16008865D02*
X11389015Y-16018389D01*
X11389015Y-16018389D02*
X11331872Y-16018389D01*
X11331872Y-16018389D02*
X11312824Y-16008865D01*
X11312824Y-16008865D02*
X11303301Y-15999341D01*
X11665205Y-16018389D02*
X11665205Y-15818389D01*
X11750920Y-16018389D02*
X11750920Y-15913627D01*
X11750920Y-15913627D02*
X11741396Y-15894579D01*
X11741396Y-15894579D02*
X11722348Y-15885055D01*
X11722348Y-15885055D02*
X11693777Y-15885055D01*
X11693777Y-15885055D02*
X11674729Y-15894579D01*
X11674729Y-15894579D02*
X11665205Y-15904103D01*
X11874729Y-16018389D02*
X11855682Y-16008865D01*
X11855682Y-16008865D02*
X11846158Y-15999341D01*
X11846158Y-15999341D02*
X11836634Y-15980293D01*
X11836634Y-15980293D02*
X11836634Y-15923151D01*
X11836634Y-15923151D02*
X11846158Y-15904103D01*
X11846158Y-15904103D02*
X11855682Y-15894579D01*
X11855682Y-15894579D02*
X11874729Y-15885055D01*
X11874729Y-15885055D02*
X11903301Y-15885055D01*
X11903301Y-15885055D02*
X11922348Y-15894579D01*
X11922348Y-15894579D02*
X11931872Y-15904103D01*
X11931872Y-15904103D02*
X11941396Y-15923151D01*
X11941396Y-15923151D02*
X11941396Y-15980293D01*
X11941396Y-15980293D02*
X11931872Y-15999341D01*
X11931872Y-15999341D02*
X11922348Y-16008865D01*
X11922348Y-16008865D02*
X11903301Y-16018389D01*
X11903301Y-16018389D02*
X11874729Y-16018389D01*
X12055682Y-16018389D02*
X12036634Y-16008865D01*
X12036634Y-16008865D02*
X12027110Y-15989817D01*
X12027110Y-15989817D02*
X12027110Y-15818389D01*
X12208063Y-16008865D02*
X12189015Y-16018389D01*
X12189015Y-16018389D02*
X12150920Y-16018389D01*
X12150920Y-16018389D02*
X12131872Y-16008865D01*
X12131872Y-16008865D02*
X12122348Y-15989817D01*
X12122348Y-15989817D02*
X12122348Y-15913627D01*
X12122348Y-15913627D02*
X12131872Y-15894579D01*
X12131872Y-15894579D02*
X12150920Y-15885055D01*
X12150920Y-15885055D02*
X12189015Y-15885055D01*
X12189015Y-15885055D02*
X12208063Y-15894579D01*
X12208063Y-15894579D02*
X12217586Y-15913627D01*
X12217586Y-15913627D02*
X12217586Y-15932674D01*
X12217586Y-15932674D02*
X12122348Y-15951722D01*
X12293777Y-16008865D02*
X12312825Y-16018389D01*
X12312825Y-16018389D02*
X12350920Y-16018389D01*
X12350920Y-16018389D02*
X12369967Y-16008865D01*
X12369967Y-16008865D02*
X12379491Y-15989817D01*
X12379491Y-15989817D02*
X12379491Y-15980293D01*
X12379491Y-15980293D02*
X12369967Y-15961246D01*
X12369967Y-15961246D02*
X12350920Y-15951722D01*
X12350920Y-15951722D02*
X12322348Y-15951722D01*
X12322348Y-15951722D02*
X12303301Y-15942198D01*
X12303301Y-15942198D02*
X12293777Y-15923151D01*
X12293777Y-15923151D02*
X12293777Y-15913627D01*
X12293777Y-15913627D02*
X12303301Y-15894579D01*
X12303301Y-15894579D02*
X12322348Y-15885055D01*
X12322348Y-15885055D02*
X12350920Y-15885055D01*
X12350920Y-15885055D02*
X12369967Y-15894579D01*
X12446158Y-16094579D02*
X12455682Y-16085055D01*
X12455682Y-16085055D02*
X12474729Y-16056484D01*
X12474729Y-16056484D02*
X12484253Y-16037436D01*
X12484253Y-16037436D02*
X12493777Y-16008865D01*
X12493777Y-16008865D02*
X12503301Y-15961246D01*
X12503301Y-15961246D02*
X12503301Y-15923151D01*
X12503301Y-15923151D02*
X12493777Y-15875532D01*
X12493777Y-15875532D02*
X12484253Y-15846960D01*
X12484253Y-15846960D02*
X12474729Y-15827913D01*
X12474729Y-15827913D02*
X12455682Y-15799341D01*
X12455682Y-15799341D02*
X12446158Y-15789817D01*
X12808063Y-16094579D02*
X12798539Y-16085055D01*
X12798539Y-16085055D02*
X12779491Y-16056484D01*
X12779491Y-16056484D02*
X12769967Y-16037436D01*
X12769967Y-16037436D02*
X12760444Y-16008865D01*
X12760444Y-16008865D02*
X12750920Y-15961246D01*
X12750920Y-15961246D02*
X12750920Y-15923151D01*
X12750920Y-15923151D02*
X12760444Y-15875532D01*
X12760444Y-15875532D02*
X12769967Y-15846960D01*
X12769967Y-15846960D02*
X12779491Y-15827913D01*
X12779491Y-15827913D02*
X12798539Y-15799341D01*
X12798539Y-15799341D02*
X12808063Y-15789817D01*
X12884253Y-15885055D02*
X12884253Y-16018389D01*
X12884253Y-15904103D02*
X12893777Y-15894579D01*
X12893777Y-15894579D02*
X12912825Y-15885055D01*
X12912825Y-15885055D02*
X12941396Y-15885055D01*
X12941396Y-15885055D02*
X12960444Y-15894579D01*
X12960444Y-15894579D02*
X12969967Y-15913627D01*
X12969967Y-15913627D02*
X12969967Y-16018389D01*
X13093777Y-16018389D02*
X13074729Y-16008865D01*
X13074729Y-16008865D02*
X13065206Y-15999341D01*
X13065206Y-15999341D02*
X13055682Y-15980293D01*
X13055682Y-15980293D02*
X13055682Y-15923151D01*
X13055682Y-15923151D02*
X13065206Y-15904103D01*
X13065206Y-15904103D02*
X13074729Y-15894579D01*
X13074729Y-15894579D02*
X13093777Y-15885055D01*
X13093777Y-15885055D02*
X13122348Y-15885055D01*
X13122348Y-15885055D02*
X13141396Y-15894579D01*
X13141396Y-15894579D02*
X13150920Y-15904103D01*
X13150920Y-15904103D02*
X13160444Y-15923151D01*
X13160444Y-15923151D02*
X13160444Y-15980293D01*
X13160444Y-15980293D02*
X13150920Y-15999341D01*
X13150920Y-15999341D02*
X13141396Y-16008865D01*
X13141396Y-16008865D02*
X13122348Y-16018389D01*
X13122348Y-16018389D02*
X13093777Y-16018389D01*
X13217587Y-15885055D02*
X13293777Y-15885055D01*
X13246158Y-15818389D02*
X13246158Y-15989817D01*
X13246158Y-15989817D02*
X13255682Y-16008865D01*
X13255682Y-16008865D02*
X13274729Y-16018389D01*
X13274729Y-16018389D02*
X13293777Y-16018389D01*
X13512825Y-15885055D02*
X13512825Y-16085055D01*
X13512825Y-15894579D02*
X13531872Y-15885055D01*
X13531872Y-15885055D02*
X13569968Y-15885055D01*
X13569968Y-15885055D02*
X13589015Y-15894579D01*
X13589015Y-15894579D02*
X13598539Y-15904103D01*
X13598539Y-15904103D02*
X13608063Y-15923151D01*
X13608063Y-15923151D02*
X13608063Y-15980293D01*
X13608063Y-15980293D02*
X13598539Y-15999341D01*
X13598539Y-15999341D02*
X13589015Y-16008865D01*
X13589015Y-16008865D02*
X13569968Y-16018389D01*
X13569968Y-16018389D02*
X13531872Y-16018389D01*
X13531872Y-16018389D02*
X13512825Y-16008865D01*
X13722348Y-16018389D02*
X13703301Y-16008865D01*
X13703301Y-16008865D02*
X13693777Y-15989817D01*
X13693777Y-15989817D02*
X13693777Y-15818389D01*
X13884253Y-16018389D02*
X13884253Y-15913627D01*
X13884253Y-15913627D02*
X13874729Y-15894579D01*
X13874729Y-15894579D02*
X13855682Y-15885055D01*
X13855682Y-15885055D02*
X13817587Y-15885055D01*
X13817587Y-15885055D02*
X13798539Y-15894579D01*
X13884253Y-16008865D02*
X13865206Y-16018389D01*
X13865206Y-16018389D02*
X13817587Y-16018389D01*
X13817587Y-16018389D02*
X13798539Y-16008865D01*
X13798539Y-16008865D02*
X13789015Y-15989817D01*
X13789015Y-15989817D02*
X13789015Y-15970770D01*
X13789015Y-15970770D02*
X13798539Y-15951722D01*
X13798539Y-15951722D02*
X13817587Y-15942198D01*
X13817587Y-15942198D02*
X13865206Y-15942198D01*
X13865206Y-15942198D02*
X13884253Y-15932674D01*
X13950920Y-15885055D02*
X14027110Y-15885055D01*
X13979491Y-15818389D02*
X13979491Y-15989817D01*
X13979491Y-15989817D02*
X13989015Y-16008865D01*
X13989015Y-16008865D02*
X14008063Y-16018389D01*
X14008063Y-16018389D02*
X14027110Y-16018389D01*
X14169968Y-16008865D02*
X14150920Y-16018389D01*
X14150920Y-16018389D02*
X14112825Y-16018389D01*
X14112825Y-16018389D02*
X14093777Y-16008865D01*
X14093777Y-16008865D02*
X14084253Y-15989817D01*
X14084253Y-15989817D02*
X14084253Y-15913627D01*
X14084253Y-15913627D02*
X14093777Y-15894579D01*
X14093777Y-15894579D02*
X14112825Y-15885055D01*
X14112825Y-15885055D02*
X14150920Y-15885055D01*
X14150920Y-15885055D02*
X14169968Y-15894579D01*
X14169968Y-15894579D02*
X14179491Y-15913627D01*
X14179491Y-15913627D02*
X14179491Y-15932674D01*
X14179491Y-15932674D02*
X14084253Y-15951722D01*
X14350920Y-16018389D02*
X14350920Y-15818389D01*
X14350920Y-16008865D02*
X14331872Y-16018389D01*
X14331872Y-16018389D02*
X14293777Y-16018389D01*
X14293777Y-16018389D02*
X14274729Y-16008865D01*
X14274729Y-16008865D02*
X14265206Y-15999341D01*
X14265206Y-15999341D02*
X14255682Y-15980293D01*
X14255682Y-15980293D02*
X14255682Y-15923151D01*
X14255682Y-15923151D02*
X14265206Y-15904103D01*
X14265206Y-15904103D02*
X14274729Y-15894579D01*
X14274729Y-15894579D02*
X14293777Y-15885055D01*
X14293777Y-15885055D02*
X14331872Y-15885055D01*
X14331872Y-15885055D02*
X14350920Y-15894579D01*
X14427110Y-16094579D02*
X14436634Y-16085055D01*
X14436634Y-16085055D02*
X14455682Y-16056484D01*
X14455682Y-16056484D02*
X14465206Y-16037436D01*
X14465206Y-16037436D02*
X14474729Y-16008865D01*
X14474729Y-16008865D02*
X14484253Y-15961246D01*
X14484253Y-15961246D02*
X14484253Y-15923151D01*
X14484253Y-15923151D02*
X14474729Y-15875532D01*
X14474729Y-15875532D02*
X14465206Y-15846960D01*
X14465206Y-15846960D02*
X14455682Y-15827913D01*
X14455682Y-15827913D02*
X14436634Y-15799341D01*
X14436634Y-15799341D02*
X14427110Y-15789817D01*
M02*
