G04 #@! TF.GenerationSoftware,KiCad,Pcbnew,9.0.8-1.fc43*
G04 #@! TF.CreationDate,2026-04-18T22:42:38+01:00*
G04 #@! TF.ProjectId,Scrumpi_JN,53637275-6d70-4695-9f4a-4e2e6b696361,rev?*
G04 #@! TF.SameCoordinates,Original*
G04 #@! TF.FileFunction,Copper,L4,Bot*
G04 #@! TF.FilePolarity,Positive*
%FSLAX46Y46*%
G04 Gerber Fmt 4.6, Leading zero omitted, Abs format (unit mm)*
G04 Created by KiCad (PCBNEW 9.0.8-1.fc43) date 2026-04-18 22:42:38*
%MOMM*%
%LPD*%
G01*
G04 APERTURE LIST*
%ADD10C,0.304800*%
G04 #@! TA.AperFunction,NonConductor*
%ADD11C,0.304800*%
G04 #@! TD*
%ADD12C,0.500000*%
G04 #@! TA.AperFunction,NonConductor*
%ADD13C,0.500000*%
G04 #@! TD*
G04 #@! TA.AperFunction,ComponentPad*
%ADD14O,3.000000X5.000000*%
G04 #@! TD*
G04 #@! TA.AperFunction,ComponentPad*
%ADD15C,1.600000*%
G04 #@! TD*
G04 #@! TA.AperFunction,ComponentPad*
%ADD16O,2.400000X1.600000*%
G04 #@! TD*
G04 #@! TA.AperFunction,ComponentPad*
%ADD17C,1.800000*%
G04 #@! TD*
G04 #@! TA.AperFunction,WasherPad*
%ADD18C,3.100000*%
G04 #@! TD*
G04 #@! TA.AperFunction,Conductor*
%ADD19C,0.400000*%
G04 #@! TD*
G04 #@! TA.AperFunction,Conductor*
%ADD20C,0.600000*%
G04 #@! TD*
G04 APERTURE END LIST*
D10*
D11*
X82891188Y-149633641D02*
X82891188Y-150722212D01*
X82891188Y-150722212D02*
X82963759Y-150939927D01*
X82963759Y-150939927D02*
X83108902Y-151085070D01*
X83108902Y-151085070D02*
X83326616Y-151157641D01*
X83326616Y-151157641D02*
X83471759Y-151157641D01*
X81367188Y-151157641D02*
X82238045Y-151157641D01*
X81802616Y-151157641D02*
X81802616Y-149633641D01*
X81802616Y-149633641D02*
X81947759Y-149851355D01*
X81947759Y-149851355D02*
X82092902Y-149996498D01*
X82092902Y-149996498D02*
X82238045Y-150069070D01*
D10*
D11*
X84586616Y-148577641D02*
X84586616Y-147053641D01*
X84586616Y-147053641D02*
X84006045Y-147053641D01*
X84006045Y-147053641D02*
X83860902Y-147126212D01*
X83860902Y-147126212D02*
X83788331Y-147198784D01*
X83788331Y-147198784D02*
X83715759Y-147343927D01*
X83715759Y-147343927D02*
X83715759Y-147561641D01*
X83715759Y-147561641D02*
X83788331Y-147706784D01*
X83788331Y-147706784D02*
X83860902Y-147779355D01*
X83860902Y-147779355D02*
X84006045Y-147851927D01*
X84006045Y-147851927D02*
X84586616Y-147851927D01*
X82191759Y-148432498D02*
X82264331Y-148505070D01*
X82264331Y-148505070D02*
X82482045Y-148577641D01*
X82482045Y-148577641D02*
X82627188Y-148577641D01*
X82627188Y-148577641D02*
X82844902Y-148505070D01*
X82844902Y-148505070D02*
X82990045Y-148359927D01*
X82990045Y-148359927D02*
X83062616Y-148214784D01*
X83062616Y-148214784D02*
X83135188Y-147924498D01*
X83135188Y-147924498D02*
X83135188Y-147706784D01*
X83135188Y-147706784D02*
X83062616Y-147416498D01*
X83062616Y-147416498D02*
X82990045Y-147271355D01*
X82990045Y-147271355D02*
X82844902Y-147126212D01*
X82844902Y-147126212D02*
X82627188Y-147053641D01*
X82627188Y-147053641D02*
X82482045Y-147053641D01*
X82482045Y-147053641D02*
X82264331Y-147126212D01*
X82264331Y-147126212D02*
X82191759Y-147198784D01*
X81030616Y-147779355D02*
X80812902Y-147851927D01*
X80812902Y-147851927D02*
X80740331Y-147924498D01*
X80740331Y-147924498D02*
X80667759Y-148069641D01*
X80667759Y-148069641D02*
X80667759Y-148287355D01*
X80667759Y-148287355D02*
X80740331Y-148432498D01*
X80740331Y-148432498D02*
X80812902Y-148505070D01*
X80812902Y-148505070D02*
X80958045Y-148577641D01*
X80958045Y-148577641D02*
X81538616Y-148577641D01*
X81538616Y-148577641D02*
X81538616Y-147053641D01*
X81538616Y-147053641D02*
X81030616Y-147053641D01*
X81030616Y-147053641D02*
X80885474Y-147126212D01*
X80885474Y-147126212D02*
X80812902Y-147198784D01*
X80812902Y-147198784D02*
X80740331Y-147343927D01*
X80740331Y-147343927D02*
X80740331Y-147489070D01*
X80740331Y-147489070D02*
X80812902Y-147634212D01*
X80812902Y-147634212D02*
X80885474Y-147706784D01*
X80885474Y-147706784D02*
X81030616Y-147779355D01*
X81030616Y-147779355D02*
X81538616Y-147779355D01*
D12*
D13*
X111569148Y-150934000D02*
X110997719Y-151124476D01*
X110997719Y-151124476D02*
X110045338Y-151124476D01*
X110045338Y-151124476D02*
X109664386Y-150934000D01*
X109664386Y-150934000D02*
X109473910Y-150743523D01*
X109473910Y-150743523D02*
X109283433Y-150362571D01*
X109283433Y-150362571D02*
X109283433Y-149981619D01*
X109283433Y-149981619D02*
X109473910Y-149600666D01*
X109473910Y-149600666D02*
X109664386Y-149410190D01*
X109664386Y-149410190D02*
X110045338Y-149219714D01*
X110045338Y-149219714D02*
X110807243Y-149029238D01*
X110807243Y-149029238D02*
X111188195Y-148838761D01*
X111188195Y-148838761D02*
X111378672Y-148648285D01*
X111378672Y-148648285D02*
X111569148Y-148267333D01*
X111569148Y-148267333D02*
X111569148Y-147886380D01*
X111569148Y-147886380D02*
X111378672Y-147505428D01*
X111378672Y-147505428D02*
X111188195Y-147314952D01*
X111188195Y-147314952D02*
X110807243Y-147124476D01*
X110807243Y-147124476D02*
X109854862Y-147124476D01*
X109854862Y-147124476D02*
X109283433Y-147314952D01*
X105283433Y-150743523D02*
X105473909Y-150934000D01*
X105473909Y-150934000D02*
X106045338Y-151124476D01*
X106045338Y-151124476D02*
X106426290Y-151124476D01*
X106426290Y-151124476D02*
X106997719Y-150934000D01*
X106997719Y-150934000D02*
X107378671Y-150553047D01*
X107378671Y-150553047D02*
X107569148Y-150172095D01*
X107569148Y-150172095D02*
X107759624Y-149410190D01*
X107759624Y-149410190D02*
X107759624Y-148838761D01*
X107759624Y-148838761D02*
X107569148Y-148076857D01*
X107569148Y-148076857D02*
X107378671Y-147695904D01*
X107378671Y-147695904D02*
X106997719Y-147314952D01*
X106997719Y-147314952D02*
X106426290Y-147124476D01*
X106426290Y-147124476D02*
X106045338Y-147124476D01*
X106045338Y-147124476D02*
X105473909Y-147314952D01*
X105473909Y-147314952D02*
X105283433Y-147505428D01*
X101283433Y-151124476D02*
X102616767Y-149219714D01*
X103569148Y-151124476D02*
X103569148Y-147124476D01*
X103569148Y-147124476D02*
X102045338Y-147124476D01*
X102045338Y-147124476D02*
X101664386Y-147314952D01*
X101664386Y-147314952D02*
X101473909Y-147505428D01*
X101473909Y-147505428D02*
X101283433Y-147886380D01*
X101283433Y-147886380D02*
X101283433Y-148457809D01*
X101283433Y-148457809D02*
X101473909Y-148838761D01*
X101473909Y-148838761D02*
X101664386Y-149029238D01*
X101664386Y-149029238D02*
X102045338Y-149219714D01*
X102045338Y-149219714D02*
X103569148Y-149219714D01*
X99569148Y-147124476D02*
X99569148Y-150362571D01*
X99569148Y-150362571D02*
X99378671Y-150743523D01*
X99378671Y-150743523D02*
X99188195Y-150934000D01*
X99188195Y-150934000D02*
X98807243Y-151124476D01*
X98807243Y-151124476D02*
X98045338Y-151124476D01*
X98045338Y-151124476D02*
X97664386Y-150934000D01*
X97664386Y-150934000D02*
X97473909Y-150743523D01*
X97473909Y-150743523D02*
X97283433Y-150362571D01*
X97283433Y-150362571D02*
X97283433Y-147124476D01*
X95378672Y-151124476D02*
X95378672Y-147124476D01*
X95378672Y-147124476D02*
X94045338Y-149981619D01*
X94045338Y-149981619D02*
X92712005Y-147124476D01*
X92712005Y-147124476D02*
X92712005Y-151124476D01*
X90807243Y-151124476D02*
X90807243Y-147124476D01*
X90807243Y-147124476D02*
X89283433Y-147124476D01*
X89283433Y-147124476D02*
X88902481Y-147314952D01*
X88902481Y-147314952D02*
X88712004Y-147505428D01*
X88712004Y-147505428D02*
X88521528Y-147886380D01*
X88521528Y-147886380D02*
X88521528Y-148457809D01*
X88521528Y-148457809D02*
X88712004Y-148838761D01*
X88712004Y-148838761D02*
X88902481Y-149029238D01*
X88902481Y-149029238D02*
X89283433Y-149219714D01*
X89283433Y-149219714D02*
X90807243Y-149219714D01*
X86807243Y-151124476D02*
X86807243Y-147124476D01*
D14*
X191700000Y-105800000D03*
X196400000Y-105800000D03*
X201100000Y-105800000D03*
D15*
X184500000Y-136870000D03*
X187960000Y-134250000D03*
D16*
X146670000Y-48920000D03*
X146670000Y-46380000D03*
X146670000Y-43840000D03*
X146670000Y-41300000D03*
X146670000Y-38760000D03*
X146670000Y-36220000D03*
X146670000Y-33680000D03*
X146670000Y-31140000D03*
X139050000Y-31140000D03*
X139050000Y-33680000D03*
X139050000Y-36220000D03*
X139050000Y-38760000D03*
X139050000Y-41300000D03*
X139050000Y-43840000D03*
X139050000Y-46380000D03*
X139050000Y-48920000D03*
D17*
X236340000Y-151180000D03*
D15*
X83900000Y-68350000D03*
X180700000Y-136830000D03*
X153800000Y-113920000D03*
X107100000Y-113050000D03*
X83100000Y-39700000D03*
D17*
X111600000Y-137300000D03*
D15*
X131500000Y-98650000D03*
D17*
X153877453Y-60578983D03*
D15*
X151260000Y-83050000D03*
X135600000Y-31200000D03*
X153800000Y-106320000D03*
D17*
X153840000Y-73820000D03*
D15*
X117780000Y-131460000D03*
X154070000Y-31300000D03*
X148660000Y-93600000D03*
X86100000Y-39700000D03*
X149810000Y-48960000D03*
D14*
X221330000Y-95000000D03*
X226030000Y-95000000D03*
X230730000Y-95000000D03*
D15*
X148650000Y-96150000D03*
D17*
X153780000Y-119020000D03*
D15*
X81840000Y-129000000D03*
D17*
X153890000Y-80000000D03*
D15*
X124200000Y-137250000D03*
X221130000Y-141760000D03*
D17*
X154100000Y-46400000D03*
D15*
X84800000Y-111400000D03*
X113250000Y-57500000D03*
D17*
X233840000Y-147280000D03*
X104547453Y-71300000D03*
D15*
X154100000Y-38890000D03*
D14*
X191450000Y-47600000D03*
X196150000Y-47600000D03*
X200850000Y-47600000D03*
D15*
X81850000Y-98050000D03*
X135600000Y-46500000D03*
X131500000Y-96100000D03*
X168000000Y-36240000D03*
D17*
X102150000Y-134720000D03*
D15*
X83900000Y-76350000D03*
X144920000Y-131590000D03*
X153780000Y-116520000D03*
D16*
X101910000Y-60050000D03*
X101910000Y-57510000D03*
X101910000Y-54970000D03*
X101910000Y-52430000D03*
X101910000Y-49890000D03*
X101910000Y-47350000D03*
X101910000Y-44810000D03*
X94290000Y-44810000D03*
X94290000Y-47350000D03*
X94290000Y-49890000D03*
X94290000Y-52430000D03*
X94290000Y-54970000D03*
X94290000Y-57510000D03*
X94290000Y-60050000D03*
D14*
X221320000Y-57990000D03*
X226020000Y-57990000D03*
X230720000Y-57990000D03*
D15*
X212900000Y-111100000D03*
X176797453Y-84850000D03*
D14*
X221190000Y-116550000D03*
X225890000Y-116550000D03*
X230590000Y-116550000D03*
D17*
X117850000Y-137300000D03*
D15*
X81800000Y-103400000D03*
X86900000Y-68350000D03*
X83050000Y-50200000D03*
D14*
X221340000Y-36410000D03*
X226040000Y-36410000D03*
X230740000Y-36410000D03*
D15*
X224100000Y-128820000D03*
D17*
X94350000Y-134700000D03*
D15*
X154100000Y-41390000D03*
D17*
X181560000Y-120350000D03*
D15*
X86050000Y-62200000D03*
X153850000Y-98610000D03*
D16*
X143210000Y-113890000D03*
X143210000Y-111350000D03*
X143210000Y-108810000D03*
X143210000Y-106270000D03*
X143210000Y-103730000D03*
X143210000Y-101190000D03*
X143210000Y-98650000D03*
X143210000Y-96110000D03*
X135590000Y-96110000D03*
X135590000Y-98650000D03*
X135590000Y-101190000D03*
X135590000Y-103730000D03*
X135590000Y-106270000D03*
X135590000Y-108810000D03*
X135590000Y-111350000D03*
X135590000Y-113890000D03*
D15*
X149800000Y-43840000D03*
X83050000Y-58200000D03*
X177880000Y-126740000D03*
X149800000Y-38740000D03*
X81800000Y-115400000D03*
X168000000Y-43840000D03*
X84800000Y-115400000D03*
D17*
X153780000Y-121560000D03*
D16*
X127390000Y-48930000D03*
X127390000Y-46390000D03*
X127390000Y-43850000D03*
X127390000Y-41310000D03*
X127390000Y-38770000D03*
X127390000Y-36230000D03*
X127390000Y-33690000D03*
X119770000Y-33690000D03*
X119770000Y-36230000D03*
X119770000Y-38770000D03*
X119770000Y-41310000D03*
X119770000Y-43850000D03*
X119770000Y-46390000D03*
X119770000Y-48930000D03*
X215290000Y-143860000D03*
X215290000Y-141320000D03*
X215290000Y-138780000D03*
X215290000Y-136240000D03*
X215290000Y-133700000D03*
X215290000Y-131160000D03*
X215290000Y-128620000D03*
X207670000Y-128620000D03*
X207670000Y-131160000D03*
X207670000Y-133700000D03*
X207670000Y-136240000D03*
X207670000Y-138780000D03*
X207670000Y-141320000D03*
X207670000Y-143860000D03*
D17*
X153850000Y-70530000D03*
D15*
X180770000Y-71690000D03*
X86050000Y-50200000D03*
X180750000Y-64450000D03*
D17*
X104500000Y-92600000D03*
D15*
X220700000Y-111100000D03*
X180750000Y-147400000D03*
D17*
X236350000Y-143800000D03*
D15*
X175800000Y-64450000D03*
X130900000Y-49000000D03*
X148170000Y-107570000D03*
X113250000Y-64000000D03*
D14*
X191500000Y-69600000D03*
X196200000Y-69600000D03*
X200900000Y-69600000D03*
D15*
X153840000Y-101220000D03*
X153810000Y-108830000D03*
D17*
X168000000Y-49050000D03*
X131000000Y-36400000D03*
D15*
X135599998Y-38740000D03*
X81850000Y-90050000D03*
X137190000Y-131350000D03*
X84840000Y-133000000D03*
X135599998Y-43790000D03*
D17*
X153890000Y-67260000D03*
D15*
X118080441Y-53182440D03*
D17*
X107200000Y-44800000D03*
D15*
X81800000Y-111400000D03*
D16*
X200100000Y-143920000D03*
X200100000Y-141380000D03*
X200100000Y-138840000D03*
X200100000Y-136300000D03*
X200100000Y-133760000D03*
X200100000Y-131220000D03*
X200100000Y-128680000D03*
X192480000Y-128680000D03*
X192480000Y-131220000D03*
X192480000Y-133760000D03*
X192480000Y-136300000D03*
X192480000Y-138840000D03*
X192480000Y-141380000D03*
X192480000Y-143920000D03*
D15*
X151200000Y-93600000D03*
X94550000Y-35550000D03*
X175790000Y-45310000D03*
D17*
X107047453Y-71300000D03*
D15*
X86900000Y-72350000D03*
X153800000Y-111400000D03*
X168000000Y-41340000D03*
X239320000Y-107520000D03*
D14*
X191450000Y-36400000D03*
X196150000Y-36400000D03*
X200850000Y-36400000D03*
D15*
X84850000Y-98050000D03*
D17*
X153890000Y-77060000D03*
D15*
X113250000Y-61000000D03*
X184550000Y-147350000D03*
X135599998Y-41290000D03*
D18*
X210000000Y-76600000D03*
D15*
X219220000Y-134470000D03*
X148180000Y-126630000D03*
D16*
X102030000Y-128280000D03*
X102030000Y-125740000D03*
X102030000Y-123200000D03*
X102030000Y-120660000D03*
X102030000Y-118120000D03*
X102030000Y-115580000D03*
X102030000Y-113040000D03*
X94410000Y-113040000D03*
X94410000Y-115580000D03*
X94410000Y-118120000D03*
X94410000Y-120660000D03*
X94410000Y-123200000D03*
X94410000Y-125740000D03*
X94410000Y-128280000D03*
D17*
X101950000Y-35550000D03*
D15*
X113600000Y-98700000D03*
X177590000Y-142590000D03*
D14*
X191700000Y-95000000D03*
X196400000Y-95000000D03*
X201100000Y-95000000D03*
X221380000Y-69580000D03*
X226080000Y-69580000D03*
X230780000Y-69580000D03*
D15*
X149800000Y-41340000D03*
X154100000Y-43890000D03*
X86050000Y-58200000D03*
X219200000Y-141750000D03*
X81800000Y-107400000D03*
X86100000Y-35700000D03*
D17*
X153860000Y-57550000D03*
D15*
X149870000Y-33720000D03*
D16*
X102040000Y-107780000D03*
X102040000Y-105240000D03*
X102040000Y-102700000D03*
X102040000Y-100160000D03*
X102040000Y-97620000D03*
X102040000Y-95080000D03*
X102040000Y-92540000D03*
X94420000Y-92540000D03*
X94420000Y-95080000D03*
X94420000Y-97620000D03*
X94420000Y-100160000D03*
X94420000Y-102700000D03*
X94420000Y-105240000D03*
X94420000Y-107780000D03*
D15*
X116200000Y-33800000D03*
X131650000Y-77000000D03*
X131500000Y-103700000D03*
D17*
X153800000Y-126730000D03*
D15*
X84850000Y-90050000D03*
X83050000Y-62200000D03*
X226090000Y-123950000D03*
D14*
X191700000Y-116600000D03*
X196400000Y-116600000D03*
X201100000Y-116600000D03*
D15*
X131650000Y-74000000D03*
X130900000Y-46500000D03*
X83050000Y-54200000D03*
X131650000Y-80050000D03*
X81840000Y-133000000D03*
D17*
X153770000Y-124120000D03*
D14*
X221300000Y-47540000D03*
X226000000Y-47540000D03*
X230700000Y-47540000D03*
D15*
X83100000Y-35700000D03*
X84850000Y-94050000D03*
X86900000Y-80350000D03*
X239297453Y-115186017D03*
X131650000Y-70550000D03*
D16*
X125320000Y-113930000D03*
X125320000Y-111390000D03*
X125320000Y-108850000D03*
X125320000Y-106310000D03*
X125320000Y-103770000D03*
X125320000Y-101230000D03*
X125320000Y-98690000D03*
X125320000Y-96150000D03*
X117700000Y-96150000D03*
X117700000Y-98690000D03*
X117700000Y-101230000D03*
X117700000Y-103770000D03*
X117700000Y-106310000D03*
X117700000Y-108850000D03*
X117700000Y-111390000D03*
X117700000Y-113930000D03*
D15*
X84800000Y-107400000D03*
X86100000Y-43700000D03*
X113600000Y-96150000D03*
X117842547Y-117533983D03*
X81840000Y-121000000D03*
X233860000Y-138750000D03*
X113600000Y-103800000D03*
D17*
X153860000Y-64010000D03*
X187930000Y-139020000D03*
D15*
X84840000Y-129000000D03*
X168000000Y-38740000D03*
D16*
X101930000Y-86410000D03*
X101930000Y-83870000D03*
X101930000Y-81330000D03*
X101930000Y-78790000D03*
X101930000Y-76250000D03*
X101930000Y-73710000D03*
X101930000Y-71170000D03*
X94310000Y-71170000D03*
X94310000Y-73710000D03*
X94310000Y-76250000D03*
X94310000Y-78790000D03*
X94310000Y-81330000D03*
X94310000Y-83870000D03*
X94310000Y-86410000D03*
D17*
X107100000Y-92600000D03*
D14*
X221330000Y-105910000D03*
X226030000Y-105910000D03*
X230730000Y-105910000D03*
D17*
X104560000Y-30360000D03*
D18*
X92590000Y-142480000D03*
D15*
X84840000Y-125000000D03*
X84840000Y-121000000D03*
X116140000Y-43730000D03*
X231015000Y-143760000D03*
X231015000Y-141220000D03*
X231015000Y-138680000D03*
X231015000Y-136140000D03*
X223395000Y-136140000D03*
X223395000Y-138680000D03*
X223395000Y-141220000D03*
X223395000Y-143760000D03*
X84850000Y-86050000D03*
X221050000Y-147450000D03*
X81850000Y-86050000D03*
X149800000Y-36240000D03*
D14*
X191500000Y-58600000D03*
X196200000Y-58600000D03*
X200900000Y-58600000D03*
D15*
X83100000Y-31700000D03*
D14*
X191700000Y-83800000D03*
X196400000Y-83800000D03*
X201100000Y-83800000D03*
D15*
X135599998Y-36190000D03*
X110150000Y-108800000D03*
D18*
X98200000Y-40200000D03*
D15*
X175850000Y-54940000D03*
X86100000Y-31700000D03*
X83900000Y-72350000D03*
X81840000Y-125000000D03*
X113600000Y-101250000D03*
X154100000Y-36290000D03*
D16*
X164910000Y-48980000D03*
X164910000Y-46440000D03*
X164910000Y-43900000D03*
X164910000Y-41360000D03*
X164910000Y-38820000D03*
X164910000Y-36280000D03*
X164910000Y-33740000D03*
X164910000Y-31200000D03*
X157290000Y-31200000D03*
X157290000Y-33740000D03*
X157290000Y-36280000D03*
X157290000Y-38820000D03*
X157290000Y-41360000D03*
X157290000Y-43900000D03*
X157290000Y-46440000D03*
X157290000Y-48980000D03*
D14*
X221220000Y-83950000D03*
X225920000Y-83950000D03*
X230620000Y-83950000D03*
D15*
X131500000Y-101200000D03*
X113250000Y-67500000D03*
X175797453Y-71686017D03*
X153810000Y-103750000D03*
X86900000Y-76350000D03*
D17*
X104550000Y-44800000D03*
D15*
X168100000Y-33800000D03*
X86050000Y-54200000D03*
X84800000Y-103400000D03*
X83100000Y-43700000D03*
X81850000Y-94050000D03*
X83900000Y-80350000D03*
D17*
X156460000Y-85000000D03*
D16*
X158900000Y-136830000D03*
X158900000Y-134290000D03*
X158900000Y-131750000D03*
X158900000Y-129210000D03*
X158900000Y-126670000D03*
X158900000Y-124130000D03*
X158900000Y-121590000D03*
X158900000Y-119050000D03*
X158900000Y-116510000D03*
X158900000Y-113970000D03*
X158900000Y-111430000D03*
X158900000Y-108890000D03*
X158900000Y-106350000D03*
X158900000Y-103810000D03*
X158900000Y-101270000D03*
X158900000Y-98730000D03*
X158900000Y-96190000D03*
X158900000Y-93650000D03*
X158900000Y-91110000D03*
X158900000Y-88570000D03*
X174140000Y-88570000D03*
X174140000Y-91110000D03*
X174140000Y-93650000D03*
X174140000Y-96190000D03*
X174140000Y-98730000D03*
X174140000Y-101270000D03*
X174140000Y-103810000D03*
X174140000Y-106350000D03*
X174140000Y-108890000D03*
X174140000Y-111430000D03*
X174140000Y-113970000D03*
X174140000Y-116510000D03*
X174140000Y-119050000D03*
X174140000Y-121590000D03*
X174140000Y-124130000D03*
X174140000Y-126670000D03*
X174140000Y-129210000D03*
X174140000Y-131750000D03*
X174140000Y-134290000D03*
X174140000Y-136830000D03*
D19*
X124347451Y-37986017D02*
X124697451Y-38236017D01*
X93197453Y-124536017D02*
X94097453Y-124436017D01*
X116347453Y-97436017D02*
X120147453Y-97486017D01*
X105670798Y-128679684D02*
X105447032Y-128668496D01*
X126747453Y-110086017D02*
X130247453Y-109586017D01*
X205847453Y-29736017D02*
X206647453Y-29886017D01*
X221347453Y-36236017D02*
X221797453Y-33686017D01*
X97997453Y-46086017D02*
X96847453Y-46036017D01*
X216184133Y-135073790D02*
X216147453Y-135086017D01*
X118797453Y-82386017D02*
X120897453Y-82636017D01*
D20*
X85497453Y-30186017D02*
X85097453Y-30236017D01*
D19*
X86247453Y-33086017D02*
X86087453Y-32056017D01*
X153877453Y-101216017D02*
X142697453Y-101226017D01*
X115597453Y-105086017D02*
X115601172Y-105085645D01*
X97797453Y-58786017D02*
X98147453Y-58836017D01*
X229808259Y-120499225D02*
X230218931Y-121001157D01*
X110920476Y-83553565D02*
X109728586Y-83134793D01*
X202597453Y-145336017D02*
X203247453Y-144986017D01*
X223697453Y-31186017D02*
X224397453Y-30786017D01*
X101917453Y-123206017D02*
X152147451Y-122986017D01*
X110226682Y-125113326D02*
X110120505Y-125173051D01*
X112947453Y-110186017D02*
X113497453Y-110136017D01*
X215747453Y-86786017D02*
X214947453Y-87786017D01*
X94297453Y-44796017D02*
X93247453Y-42336017D01*
X173887453Y-101256017D02*
X170347453Y-101186017D01*
X223947453Y-75236017D02*
X223847453Y-75586017D01*
X118080441Y-53182440D02*
X175797453Y-52986017D01*
X142697453Y-106306017D02*
X144325860Y-105842168D01*
D20*
X173887453Y-88556017D02*
X173847453Y-73186017D01*
D19*
X101917453Y-76376017D02*
X105534969Y-76339660D01*
X109097453Y-102236017D02*
X110247453Y-102436017D01*
D20*
X222497453Y-89436017D02*
X221297453Y-89686017D01*
D19*
X227197453Y-111336017D02*
X230647453Y-111836017D01*
X91897453Y-103936017D02*
X95197453Y-103986017D01*
X86897453Y-56336017D02*
X86247453Y-56136017D01*
X88047453Y-38986017D02*
X87247453Y-38036017D01*
X221797453Y-33686017D02*
X222147453Y-32886017D01*
X87097453Y-92736017D02*
X87447453Y-92936017D01*
X208647453Y-101936017D02*
X207247453Y-107386017D01*
X107073247Y-126660752D02*
X106847453Y-126736017D01*
X198547453Y-129986017D02*
X206997453Y-129886017D01*
X92158110Y-81286166D02*
X92508311Y-81365757D01*
X143963397Y-107636017D02*
X144615897Y-107636017D01*
X115247451Y-30736017D02*
X115597451Y-30586017D01*
X120647453Y-112786017D02*
X120897453Y-112836017D01*
X153340116Y-134309411D02*
X152650324Y-134524013D01*
X109997196Y-99853145D02*
X111110389Y-99916756D01*
X200107453Y-131206017D02*
X203297453Y-131186017D01*
X120147453Y-97486017D02*
X121347453Y-97636017D01*
X95697453Y-124436017D02*
X96697453Y-124586017D01*
X169797453Y-117836017D02*
X169347453Y-118136017D01*
X170447453Y-129786017D02*
X170647453Y-130086017D01*
X89647453Y-85636017D02*
X90647453Y-86036017D01*
D20*
X216179300Y-105937925D02*
X216279260Y-104688435D01*
D19*
X174047453Y-126686017D02*
X177747453Y-126736017D01*
X141699388Y-107459774D02*
X142178763Y-107516171D01*
D20*
X184297453Y-147386017D02*
X192497453Y-147374860D01*
D19*
X94980932Y-114286947D02*
X96747453Y-114336017D01*
X144878964Y-107632556D02*
X148547453Y-107536017D01*
X99347453Y-121836017D02*
X98647453Y-121686017D01*
X84797453Y-133036017D02*
X85797453Y-131686017D01*
X98476558Y-51564729D02*
X98620602Y-51602635D01*
X121953591Y-107954730D02*
X122653748Y-108188115D01*
X182147453Y-100986017D02*
X190047453Y-49886017D01*
X173887453Y-103796017D02*
X168797453Y-103786017D01*
X164917453Y-43956017D02*
X168047453Y-43936017D01*
X190697453Y-130486017D02*
X191097453Y-130586017D01*
X138597453Y-110636017D02*
X142697453Y-111386017D01*
D20*
X81777453Y-103326017D02*
X81847453Y-97926017D01*
D19*
X117761248Y-79804983D02*
X118801101Y-79978292D01*
X113297453Y-105636017D02*
X113597453Y-105686017D01*
X154547453Y-57536017D02*
X113297453Y-57536017D01*
X123597451Y-36436017D02*
X123647451Y-36786017D01*
X171947453Y-121936017D02*
X171797453Y-122286017D01*
X173887453Y-119036017D02*
X176047453Y-119036017D01*
X205397453Y-31586017D02*
X205546408Y-31645599D01*
X100110121Y-72360160D02*
X100545643Y-72453486D01*
X87247453Y-38036017D02*
X86247453Y-37036017D01*
X93197451Y-68586017D02*
X92397451Y-67086017D01*
X204747453Y-135836017D02*
X204697453Y-136186017D01*
X216147453Y-135086017D02*
X205897453Y-134986017D01*
D20*
X231297453Y-86686017D02*
X231197453Y-87086017D01*
D19*
X99497453Y-78586017D02*
X99847453Y-78686017D01*
X235297453Y-33936017D02*
X235447453Y-34736017D01*
D20*
X88071482Y-30193103D02*
X86723238Y-30186150D01*
D19*
X226095982Y-61594843D02*
X226002124Y-62157990D01*
X122947453Y-112636017D02*
X123997453Y-112786017D01*
D20*
X94297453Y-128286017D02*
X95235527Y-129496435D01*
X212147453Y-140286017D02*
X212197453Y-147348058D01*
D19*
X142697453Y-108846017D02*
X144547453Y-109336017D01*
X226197453Y-63886017D02*
X225997453Y-64186017D01*
X204447453Y-131936017D02*
X204547453Y-132286017D01*
X119671411Y-85423886D02*
X117855279Y-85159033D01*
X132747453Y-110186017D02*
X133047453Y-110136017D01*
D20*
X115697451Y-149586017D02*
X115667760Y-149140652D01*
X81847453Y-93926017D02*
X81847453Y-89926017D01*
D19*
X121597453Y-113036017D02*
X123347453Y-113686017D01*
X196447453Y-94236017D02*
X196447453Y-83236017D01*
X89783462Y-55953219D02*
X90361445Y-56068816D01*
X84777453Y-115326017D02*
X85907052Y-114914620D01*
X103697453Y-116836017D02*
X104397453Y-116786017D01*
X109447453Y-116436017D02*
X110047453Y-115886017D01*
X173847453Y-73186017D02*
X175797453Y-71686017D01*
D20*
X200280904Y-127393938D02*
X200197453Y-127686017D01*
D19*
X120047453Y-43956017D02*
X116297453Y-43986017D01*
X115047453Y-73736017D02*
X115547453Y-73786017D01*
X122399998Y-105620199D02*
X122654909Y-105705169D01*
X181047453Y-33936017D02*
X181047453Y-32836017D01*
X204697453Y-29636017D02*
X205847453Y-29736017D01*
D20*
X219116497Y-96531738D02*
X219197453Y-96386017D01*
X82344209Y-27336017D02*
X81144209Y-27411017D01*
D19*
X219270956Y-107924190D02*
X219297453Y-107986017D01*
D20*
X114344241Y-137919438D02*
X114297451Y-137886017D01*
D19*
X114397451Y-31786017D02*
X114647451Y-31236017D01*
X146667453Y-49036017D02*
X149847453Y-49036017D01*
X219147453Y-139236017D02*
X219647453Y-139536017D01*
D20*
X207797453Y-143906017D02*
X207847453Y-147353976D01*
D19*
X214947453Y-87786017D02*
X214247453Y-88686017D01*
X178697453Y-122636017D02*
X178497453Y-122436017D01*
X94639173Y-72434334D02*
X99882246Y-72338131D01*
X189347453Y-141336017D02*
X189047453Y-141486017D01*
X189747453Y-140536017D02*
X189697453Y-140786017D01*
X230747453Y-105236017D02*
X230747453Y-94236017D01*
X99554469Y-121860372D02*
X99347453Y-121836017D01*
X85347453Y-109186017D02*
X81777453Y-109236017D01*
D20*
X239897453Y-74286017D02*
X239897453Y-73441764D01*
D19*
X86047453Y-50076017D02*
X94297453Y-54956017D01*
X109652359Y-127666923D02*
X108280162Y-128112887D01*
X88697453Y-79536017D02*
X88756474Y-79587169D01*
X226047453Y-83236017D02*
X226097453Y-87086017D01*
X151337453Y-93596017D02*
X148797453Y-93596017D01*
X181247453Y-31486017D02*
X181697453Y-30836017D01*
X204647453Y-139886017D02*
X204397453Y-140436017D01*
X108369286Y-63851515D02*
X108688912Y-64810394D01*
D20*
X81947453Y-83286017D02*
X82047453Y-82836017D01*
D19*
X104547453Y-58936017D02*
X105147453Y-59236017D01*
X178347453Y-71886017D02*
X178447453Y-71286017D01*
X104397453Y-116786017D02*
X105097453Y-116636017D01*
X100697453Y-99686017D02*
X101917453Y-100166017D01*
X92897453Y-82786017D02*
X95397453Y-82736017D01*
X206197453Y-116486017D02*
X206097453Y-120186017D01*
X189697453Y-140786017D02*
X189497453Y-141136017D01*
X204797453Y-133586017D02*
X205047453Y-133736017D01*
X173821291Y-142541186D02*
X177497453Y-142586017D01*
X219747453Y-130386017D02*
X220047453Y-130086017D01*
D20*
X81847453Y-84336017D02*
X81897453Y-83836017D01*
D19*
X153877453Y-108836017D02*
X158647453Y-108876017D01*
X209447453Y-36386017D02*
X209790678Y-54576956D01*
X145552120Y-135051220D02*
X144935837Y-134976064D01*
X93508558Y-114236400D02*
X94913981Y-114284863D01*
X121016840Y-107681935D02*
X121047453Y-107686017D01*
X204947453Y-135486017D02*
X204747453Y-135836017D01*
X220047453Y-130086017D02*
X220497453Y-129736017D01*
X108120544Y-76525030D02*
X108897453Y-76636017D01*
X204547453Y-132636017D02*
X204647453Y-133336017D01*
X98624678Y-114512631D02*
X98747453Y-114536017D01*
X92347453Y-118236017D02*
X94297453Y-118126017D01*
X217047453Y-88936017D02*
X215897453Y-90036017D01*
X171797453Y-122286017D02*
X171797453Y-123586017D01*
X217697453Y-133936017D02*
X217597453Y-134286017D01*
X129547453Y-112336017D02*
X135077453Y-111386017D01*
X187547453Y-118036017D02*
X186947453Y-117736017D01*
D20*
X139047453Y-49036017D02*
X139047453Y-51160277D01*
D19*
X159597451Y-135286017D02*
X158647453Y-134276017D01*
X117622491Y-86746026D02*
X116291409Y-86441778D01*
D20*
X207797453Y-138826017D02*
X210297453Y-138736017D01*
D19*
X172497453Y-121586017D02*
X172197453Y-121736017D01*
X88947453Y-40236017D02*
X88047453Y-38986017D01*
X117040189Y-79670348D02*
X117534125Y-79764431D01*
X228747453Y-61286017D02*
X228647453Y-61836017D01*
X100197453Y-96236017D02*
X101247453Y-96236017D01*
X153877453Y-124086017D02*
X113097453Y-124186017D01*
X92747453Y-59986017D02*
X92047453Y-59886017D01*
D20*
X114947451Y-138386017D02*
X114933703Y-138374560D01*
D19*
X98147453Y-58836017D02*
X98828310Y-58866965D01*
D20*
X210297453Y-138736017D02*
X211197453Y-138736017D01*
D19*
X101917453Y-49876017D02*
X113297453Y-61036017D01*
X153877453Y-101216017D02*
X158647453Y-101256017D01*
X118477453Y-96156017D02*
X113547453Y-96136017D01*
X190297453Y-139286017D02*
X189997453Y-139486017D01*
X114379381Y-78772065D02*
X115547453Y-79286017D01*
X112705030Y-105428274D02*
X112947453Y-105536017D01*
D20*
X102197453Y-132036017D02*
X101497453Y-132636017D01*
D19*
X235247453Y-38886017D02*
X234847453Y-40186017D01*
X209415689Y-36131908D02*
X209447453Y-36386017D01*
X113097453Y-124186017D02*
X112814902Y-124223690D01*
X89097453Y-125036017D02*
X90197453Y-124136017D01*
X106397453Y-118086017D02*
X106797453Y-118036017D01*
X183447453Y-29786017D02*
X184247453Y-29686017D01*
X170847453Y-130286017D02*
X171147453Y-130386017D01*
X108075331Y-57798324D02*
X109127644Y-59133952D01*
D20*
X217547453Y-124017086D02*
X203597453Y-123986017D01*
D19*
X179497451Y-140136017D02*
X173635803Y-140184460D01*
X90697453Y-37836017D02*
X89447453Y-36236017D01*
X148578282Y-135092853D02*
X146947817Y-135123047D01*
X222747453Y-86486017D02*
X221097453Y-86836017D01*
X120797453Y-102636017D02*
X121897453Y-102886017D01*
X138969823Y-112219396D02*
X139124809Y-112253868D01*
D20*
X120397453Y-50236017D02*
X120047453Y-49036017D01*
D19*
X87997453Y-57086017D02*
X87497453Y-56686017D01*
D20*
X215447453Y-125736017D02*
X215647453Y-125236017D01*
D19*
X146667453Y-36336017D02*
X149847453Y-36336017D01*
X86047453Y-62076017D02*
X87153792Y-62776698D01*
D20*
X146620000Y-31140000D02*
X146590000Y-27286017D01*
D19*
X137647453Y-107586017D02*
X138181771Y-107700514D01*
D20*
X221397453Y-124025661D02*
X217547453Y-124017086D01*
D19*
X126097453Y-111396017D02*
X127847453Y-111136017D01*
X211247453Y-45086017D02*
X211397453Y-45486017D01*
X86907453Y-76166017D02*
X87419414Y-77354808D01*
X231347453Y-128786017D02*
X230997453Y-128836017D01*
X103797453Y-108036017D02*
X104892657Y-108590758D01*
X184747453Y-105536017D02*
X190497453Y-71236017D01*
X227947453Y-61486017D02*
X227697453Y-61936017D01*
X168730042Y-139567421D02*
X167764487Y-139301061D01*
X146667453Y-38876017D02*
X149847453Y-38836017D01*
X176708031Y-90113897D02*
X176762217Y-89915217D01*
X211597453Y-45936017D02*
X211847453Y-46236017D01*
X90718221Y-68757745D02*
X90864936Y-69087853D01*
X147997453Y-113886017D02*
X148347453Y-113936017D01*
X100647453Y-46736017D02*
X99897453Y-46486017D01*
D20*
X192487453Y-143906017D02*
X192497453Y-147374860D01*
D19*
X105751099Y-55189663D02*
X106175890Y-55614454D01*
X105947453Y-101536017D02*
X107347453Y-101786017D01*
X217647453Y-85086017D02*
X216697453Y-85836017D01*
X153847453Y-126686017D02*
X147847453Y-126686017D01*
X174047453Y-124146017D02*
X194847453Y-123936017D01*
X164917453Y-38876017D02*
X168047453Y-38836017D01*
X97397453Y-56286017D02*
X97571960Y-56329644D01*
X147790504Y-113826889D02*
X147997453Y-113886017D01*
X107097453Y-96936017D02*
X108247453Y-97236017D01*
X205911444Y-133826846D02*
X207797453Y-133746017D01*
X138347453Y-113886017D02*
X138647453Y-113936017D01*
X235997453Y-31836017D02*
X236297453Y-32786017D01*
X177297453Y-120286017D02*
X171997453Y-120286017D01*
X99791818Y-114867897D02*
X101917453Y-115586017D01*
X236697453Y-141236017D02*
X236697453Y-137436017D01*
X188647453Y-121236017D02*
X188147453Y-120986017D01*
X211097453Y-35286017D02*
X211147453Y-36136017D01*
X98569937Y-75001328D02*
X98960674Y-75050170D01*
X233897453Y-126636017D02*
X233647453Y-127036017D01*
X233347453Y-111286017D02*
X233847453Y-111736017D01*
D20*
X217797453Y-116186017D02*
X217194622Y-114709082D01*
D19*
X89866106Y-88649262D02*
X90044690Y-88716231D01*
X210597453Y-122786017D02*
X179447453Y-122786017D01*
X115547453Y-73786017D02*
X116447453Y-73886017D01*
X173887453Y-98716017D02*
X171897453Y-98686017D01*
X122947451Y-30636017D02*
X123247451Y-30786017D01*
X107747453Y-65936017D02*
X107947453Y-67386017D01*
X128957911Y-108271792D02*
X130520876Y-107904035D01*
X114997453Y-112836017D02*
X115397453Y-112736017D01*
X209847453Y-55486017D02*
X209947453Y-56136017D01*
X198247453Y-131236017D02*
X200107453Y-131206017D01*
X138728381Y-132489969D02*
X137297453Y-131536017D01*
X220347453Y-99436017D02*
X219974298Y-100075712D01*
X86247453Y-46286017D02*
X86597453Y-47336017D01*
D20*
X79594209Y-28186017D02*
X78969209Y-28811017D01*
D19*
X220186966Y-109649920D02*
X220647453Y-110686017D01*
X140311745Y-108290483D02*
X140564749Y-108369547D01*
X223297453Y-138706017D02*
X225947453Y-138686017D01*
D20*
X230897453Y-87286017D02*
X229797453Y-87736017D01*
D19*
X124297453Y-137286017D02*
X158647453Y-136816017D01*
X96047453Y-103986017D02*
X97047453Y-104036017D01*
X180147451Y-140586017D02*
X180047451Y-140336017D01*
X115597451Y-30586017D02*
X115847451Y-30536017D01*
X87647453Y-129436017D02*
X89347453Y-127486017D01*
X135077453Y-111386017D02*
X138969823Y-112219396D01*
X116494304Y-107632969D02*
X119571756Y-107594976D01*
X171447453Y-130436017D02*
X176747453Y-130486017D01*
X228197453Y-133486017D02*
X236597453Y-133486017D01*
D20*
X239347453Y-147186017D02*
X239330266Y-136186017D01*
D19*
X176797453Y-89652099D02*
X176797453Y-84836017D01*
X100597453Y-116836017D02*
X103697453Y-116836017D01*
X100639549Y-78759539D02*
X101917453Y-78916017D01*
X208897453Y-34086017D02*
X208995866Y-34282843D01*
X104047453Y-58836017D02*
X104547453Y-58936017D01*
X206647453Y-111736017D02*
X206347453Y-114086017D01*
X95447453Y-53086017D02*
X96147453Y-53336017D01*
X209647453Y-113286017D02*
X209347453Y-116936017D01*
X173887453Y-108876017D02*
X165647453Y-108836017D01*
D20*
X223897453Y-89136017D02*
X222497453Y-89436017D01*
D19*
X98647453Y-121686017D02*
X97944342Y-121404773D01*
X107397453Y-64736017D02*
X107747453Y-65936017D01*
X93394221Y-72436017D02*
X94455718Y-72436017D01*
X93347453Y-119436017D02*
X94397453Y-119386017D01*
X136547453Y-112686017D02*
X136847453Y-112786017D01*
X116286820Y-30536327D02*
X122597451Y-30586017D01*
X192487453Y-138826017D02*
X191368763Y-139001334D01*
X211947453Y-57836017D02*
X221347453Y-57836017D01*
X223847453Y-75936017D02*
X223797453Y-86036017D01*
X153305885Y-129371273D02*
X158807453Y-129226017D01*
X130247453Y-109586017D02*
X135077453Y-108846017D01*
X228297453Y-62586017D02*
X228147453Y-62886017D01*
X98847453Y-46186017D02*
X97997453Y-46086017D01*
X162647453Y-76936017D02*
X154547453Y-77036017D01*
X95995066Y-48284932D02*
X95997453Y-48286017D01*
X212697453Y-91286017D02*
X211547453Y-93686017D01*
X116447453Y-73886017D02*
X117097453Y-73936017D01*
X98708545Y-93993654D02*
X99047453Y-94036017D01*
X227797453Y-41686017D02*
X227997453Y-42086017D01*
X218034868Y-91895658D02*
X216953125Y-93909937D01*
D20*
X216307997Y-110762541D02*
X216181996Y-109250527D01*
D19*
X124847453Y-112786017D02*
X125497453Y-112736017D01*
D20*
X90069302Y-30314294D02*
X90547453Y-30386017D01*
D19*
X107647453Y-62186017D02*
X108047453Y-62986017D01*
X97047453Y-115986017D02*
X98197453Y-116286017D01*
X183897453Y-32186017D02*
X184247453Y-31636017D01*
X196397453Y-105236017D02*
X196447453Y-94236017D01*
X201847453Y-145586017D02*
X202597453Y-145336017D01*
X180547453Y-119836017D02*
X181547453Y-120286017D01*
X89647453Y-121236017D02*
X90897453Y-120286017D01*
D20*
X81847453Y-89926017D02*
X81847453Y-85926017D01*
D19*
X219297453Y-131186017D02*
X219497453Y-130736017D01*
X180297451Y-141386017D02*
X180147451Y-141136017D01*
D20*
X90497453Y-131136017D02*
X91047453Y-130636017D01*
D19*
X179947453Y-64986017D02*
X180747453Y-64486017D01*
X232697453Y-28836017D02*
X233497453Y-29086017D01*
D20*
X221447453Y-116186017D02*
X217797453Y-116186017D01*
D19*
X92797453Y-45886017D02*
X92197453Y-45586017D01*
X179897453Y-74336017D02*
X179447453Y-73886017D01*
X150147453Y-113986017D02*
X153877453Y-113916017D01*
X95947453Y-82736017D02*
X96397453Y-82786017D01*
X92197453Y-45586017D02*
X91597453Y-45086017D01*
X218347453Y-88086017D02*
X217047453Y-88936017D01*
X208947453Y-31136017D02*
X209547453Y-31686017D01*
X186947453Y-117736017D02*
X186547453Y-117736017D01*
D20*
X103097453Y-131636017D02*
X102197453Y-132036017D01*
D19*
X123747453Y-82886017D02*
X126447453Y-82886017D01*
X104047453Y-56136017D02*
X104608899Y-56579264D01*
X124033468Y-37658050D02*
X124047451Y-37686017D01*
X208597453Y-33636017D02*
X208897453Y-34086017D01*
X219247453Y-101586017D02*
X219115943Y-102006850D01*
X99047453Y-79986017D02*
X100197453Y-80036017D01*
D20*
X117854257Y-151023857D02*
X117097451Y-150986017D01*
D19*
X137747453Y-113636017D02*
X138047453Y-113786017D01*
X205223142Y-31533724D02*
X205397453Y-31586017D01*
X222097453Y-107736017D02*
X222747453Y-108386017D01*
X229197453Y-110136017D02*
X230197453Y-110336017D01*
X189497453Y-141136017D02*
X189347453Y-141336017D01*
X162597453Y-113886017D02*
X162647453Y-76936017D01*
X105747453Y-59736017D02*
X106155886Y-60266980D01*
X151060159Y-129620363D02*
X152194138Y-129462866D01*
X171897453Y-98686017D02*
X171997453Y-57586017D01*
X136447453Y-110186017D02*
X137097453Y-110336017D01*
X209829967Y-55293667D02*
X209847453Y-55486017D01*
X175897453Y-30336017D02*
X176097453Y-29836017D01*
X208313344Y-33380319D02*
X208597453Y-33636017D01*
X113397453Y-73386017D02*
X114147453Y-73586017D01*
X240798258Y-109004174D02*
X240847453Y-108586017D01*
X210047453Y-109886017D02*
X209647453Y-113286017D01*
X128475894Y-88686017D02*
X127055696Y-88686017D01*
X154547453Y-80036017D02*
X131797453Y-80036017D01*
X112969463Y-119065093D02*
X112697453Y-119086017D01*
X158807453Y-136846017D02*
X160025378Y-137875603D01*
D20*
X117727453Y-131396017D02*
X105227453Y-131596017D01*
D19*
X226147453Y-39986017D02*
X226547453Y-40436017D01*
X100832253Y-72563045D02*
X100869648Y-72584414D01*
X114647451Y-43236017D02*
X114447451Y-42986017D01*
D20*
X221297453Y-89686017D02*
X221347453Y-94236017D01*
X96947453Y-131236017D02*
X97595252Y-131689477D01*
X91647453Y-130086017D02*
X92647453Y-129386017D01*
D19*
X89300132Y-65386108D02*
X89466502Y-65702211D01*
X86147451Y-59936017D02*
X86097451Y-59686017D01*
X86524999Y-87035364D02*
X86836227Y-87233419D01*
X98736788Y-48617734D02*
X100835286Y-48546599D01*
X86907453Y-68166017D02*
X88397453Y-69936017D01*
X104547451Y-44836017D02*
X107247451Y-44836017D01*
X224397453Y-30786017D02*
X225747453Y-30236017D01*
X125322451Y-108784478D02*
X126097453Y-108856017D01*
X213358412Y-106110665D02*
X213261277Y-107664827D01*
D20*
X85097453Y-30236017D02*
X84697453Y-30336017D01*
D19*
X218047453Y-128036017D02*
X217747453Y-128786017D01*
X136847453Y-112786017D02*
X137147453Y-112936017D01*
X136247453Y-99936017D02*
X142697453Y-103766017D01*
D20*
X141247453Y-96136017D02*
X142697453Y-96146017D01*
D19*
X225031493Y-62990273D02*
X224310026Y-63182664D01*
X88647453Y-85086017D02*
X89647453Y-85636017D01*
X230597453Y-40036017D02*
X230397453Y-40386017D01*
X99997453Y-104636017D02*
X100697453Y-104886017D01*
X164197453Y-111336017D02*
X164197453Y-73786017D01*
X92047453Y-59886017D02*
X91447453Y-59736017D01*
X227047453Y-30086017D02*
X231497453Y-30086017D01*
X230997453Y-121936017D02*
X231185083Y-122257668D01*
X169147453Y-136686017D02*
X169397453Y-136836017D01*
X123647451Y-36786017D02*
X123692973Y-36899821D01*
X238841785Y-95914552D02*
X238056572Y-94446544D01*
D20*
X88723194Y-30200180D02*
X89020265Y-30213096D01*
D19*
X154547453Y-60786017D02*
X113297453Y-61036017D01*
X116406773Y-70583083D02*
X131797453Y-70536017D01*
X100330414Y-75136017D02*
X109898697Y-75136017D01*
X115801013Y-86342528D02*
X114532644Y-86118698D01*
X125647451Y-38686017D02*
X125858154Y-38712355D01*
X203247453Y-144986017D02*
X203797453Y-144636017D01*
X88126329Y-43511262D02*
X88612720Y-44202450D01*
X218747453Y-90686017D02*
X218269882Y-91481969D01*
D20*
X180397453Y-147386017D02*
X117897453Y-147386017D01*
X211797453Y-139086017D02*
X211947453Y-139336017D01*
X226047453Y-124036017D02*
X221397453Y-124025661D01*
D19*
X211547453Y-93686017D02*
X210447453Y-96336017D01*
X231647453Y-124486017D02*
X231497453Y-124836017D01*
X117097453Y-73936017D02*
X131797453Y-74036017D01*
X120715760Y-80131549D02*
X131797453Y-80036017D01*
X148767314Y-105086017D02*
X149443844Y-105086017D01*
X180147453Y-119686017D02*
X180547453Y-119836017D01*
X105197453Y-96486017D02*
X106247453Y-96686017D01*
X111597453Y-97386017D02*
X114047453Y-97436017D01*
X89003410Y-49839988D02*
X89447453Y-50136017D01*
X96306384Y-58395711D02*
X96899802Y-58565259D01*
X131522529Y-106639450D02*
X132675718Y-106400859D01*
X92947453Y-90636017D02*
X94297453Y-92546017D01*
X226497453Y-111236017D02*
X227197453Y-111336017D01*
X90297453Y-104036017D02*
X91897453Y-103936017D01*
D20*
X215417453Y-128666017D02*
X215447453Y-126936017D01*
D19*
X110924544Y-86967441D02*
X110030034Y-86892899D01*
D20*
X94297453Y-134536017D02*
X94297453Y-137310590D01*
X121402744Y-51095589D02*
X121297453Y-51086017D01*
D19*
X108097453Y-102036017D02*
X109097453Y-102236017D01*
X95347453Y-58086017D02*
X95891311Y-58267303D01*
D20*
X81777453Y-115326017D02*
X81777453Y-111326017D01*
D19*
X99126771Y-56983608D02*
X99297453Y-57086017D01*
X235497453Y-37936017D02*
X235247453Y-38886017D01*
X99097453Y-104386017D02*
X99997453Y-104636017D01*
D20*
X117097451Y-150986017D02*
X116397451Y-150686017D01*
D19*
X106818596Y-76396551D02*
X107572626Y-76462119D01*
X224697453Y-74336017D02*
X224297453Y-74736017D01*
X219395733Y-101233852D02*
X219247453Y-101586017D01*
D20*
X103384315Y-32912515D02*
X94547453Y-32936017D01*
D19*
X90997453Y-56186017D02*
X91500725Y-56186017D01*
D20*
X83047453Y-62076017D02*
X83047453Y-58076017D01*
D19*
X207797453Y-136286017D02*
X215417453Y-136286017D01*
X170647453Y-120986017D02*
X170497453Y-121236017D01*
D20*
X212147453Y-139986017D02*
X212147453Y-140286017D01*
D19*
X231491566Y-122824242D02*
X231547453Y-122936017D01*
D20*
X81847453Y-97926017D02*
X81847453Y-93926017D01*
D19*
X152497453Y-109036017D02*
X153877453Y-108836017D01*
X233847453Y-111736017D02*
X234097453Y-112086017D01*
X153877453Y-106296017D02*
X158647453Y-106336017D01*
X111391289Y-106632592D02*
X111747453Y-106686017D01*
X90797453Y-43886017D02*
X89747453Y-41686017D01*
X108526148Y-99698216D02*
X109399278Y-99800937D01*
X106020423Y-126890931D02*
X105497453Y-126986017D01*
X212647453Y-46786017D02*
X213047453Y-46836017D01*
X110947453Y-112736017D02*
X111947453Y-112186017D01*
X87197453Y-104936017D02*
X87897453Y-104636017D01*
D20*
X78669209Y-29536017D02*
X78594209Y-29886017D01*
D19*
X181047453Y-32836017D02*
X181097453Y-32086017D01*
X223297453Y-108886017D02*
X223897453Y-109186017D01*
X147696987Y-105137903D02*
X148028602Y-105113339D01*
X178697453Y-73236017D02*
X178497453Y-72836017D01*
X214897453Y-91536017D02*
X213597453Y-94136017D01*
X176897453Y-28986017D02*
X177347453Y-28786017D01*
D20*
X200625701Y-126329520D02*
X200597453Y-126386017D01*
D19*
X211147453Y-44586017D02*
X211247453Y-45086017D01*
X217797453Y-136236017D02*
X217797453Y-137086017D01*
X177647453Y-120336017D02*
X177297453Y-120286017D01*
X104047453Y-53986017D02*
X104547453Y-54186017D01*
X218736428Y-127511259D02*
X218516687Y-127682169D01*
X101917453Y-71296017D02*
X104547451Y-71336017D01*
D20*
X219547453Y-95936017D02*
X221347453Y-94236017D01*
D19*
X98147453Y-106436017D02*
X98491671Y-106460604D01*
X100913925Y-94648432D02*
X101917453Y-95086017D01*
X110250643Y-110910219D02*
X110687779Y-110800935D01*
X99897453Y-116736017D02*
X100597453Y-116836017D01*
X125575834Y-107551238D02*
X126037540Y-107563388D01*
X113747453Y-113186017D02*
X114197453Y-113036017D01*
X94097453Y-124436017D02*
X95697453Y-124436017D01*
X228847453Y-42086017D02*
X228647453Y-42236017D01*
X186547453Y-117736017D02*
X170147453Y-117786017D01*
D20*
X120547453Y-50586017D02*
X120397453Y-50236017D01*
X231197453Y-87086017D02*
X230897453Y-87286017D01*
D19*
X219722692Y-108722579D02*
X219886729Y-109032428D01*
X144547453Y-109336017D02*
X145997453Y-109586017D01*
X177947453Y-120486017D02*
X177647453Y-120336017D01*
X101917453Y-113046017D02*
X102297453Y-113036017D01*
X218909414Y-102773389D02*
X218747453Y-103486017D01*
X203797453Y-131236017D02*
X204097453Y-131386017D01*
D20*
X83447453Y-64536017D02*
X83297453Y-63886017D01*
D19*
X150347453Y-109486017D02*
X151597453Y-109236017D01*
D20*
X103384315Y-32912515D02*
X113447451Y-32936017D01*
X180094209Y-27261017D02*
X164840000Y-27278879D01*
D19*
X208497453Y-30736017D02*
X208947453Y-31136017D01*
X209547453Y-31686017D02*
X209997453Y-32186017D01*
X213047453Y-46836017D02*
X221347453Y-47036017D01*
X150349199Y-105127085D02*
X150777499Y-105166021D01*
X96397453Y-74686017D02*
X96739334Y-74754393D01*
X180547453Y-74886017D02*
X179897453Y-74336017D01*
X84777453Y-103326017D02*
X94297453Y-102706017D01*
X124121511Y-107410882D02*
X124424686Y-107454193D01*
D20*
X230747453Y-83236017D02*
X231247453Y-85386017D01*
X86456924Y-137321759D02*
X78447453Y-137336017D01*
D19*
X187997453Y-120636017D02*
X187997453Y-120286017D01*
X106847453Y-126736017D02*
X106074454Y-126880954D01*
D20*
X121297453Y-51086017D02*
X120897453Y-50886017D01*
D19*
X98747453Y-85086017D02*
X99097453Y-85186017D01*
X92810465Y-72304921D02*
X93106874Y-72393843D01*
X121897453Y-102886017D02*
X123047453Y-103186017D01*
X97225072Y-84817922D02*
X97249274Y-84823972D01*
D20*
X98319513Y-132151420D02*
X98897453Y-132486017D01*
D19*
X225797453Y-128798607D02*
X224047453Y-128786017D01*
X221347453Y-36236017D02*
X221247453Y-39886017D01*
X104350002Y-92647034D02*
X104845206Y-92951775D01*
X100297453Y-125486017D02*
X101917453Y-125746017D01*
X104290086Y-86582907D02*
X101917453Y-86536017D01*
D20*
X127365000Y-33587880D02*
X127640000Y-33312880D01*
D19*
X124171733Y-89826509D02*
X118903519Y-88437616D01*
D20*
X91047453Y-130636017D02*
X91647453Y-130086017D01*
D19*
X111547453Y-72586017D02*
X112647453Y-73086017D01*
X91678414Y-89504594D02*
X91897453Y-89636017D01*
X170147453Y-117786017D02*
X169797453Y-117836017D01*
X128497453Y-112486017D02*
X128997453Y-112436017D01*
X99951999Y-127036017D02*
X99470030Y-127036017D01*
X158807453Y-113986017D02*
X153877453Y-113916017D01*
X152297498Y-105423528D02*
X152577375Y-105493497D01*
X104497453Y-118136017D02*
X105597453Y-118136017D01*
X147900840Y-116029106D02*
X147563976Y-115951368D01*
X169557725Y-139784349D02*
X168865113Y-139603668D01*
X196397453Y-116436017D02*
X196397453Y-105236017D01*
X233647453Y-127036017D02*
X233297453Y-127486017D01*
X120897453Y-82636017D02*
X123747453Y-82886017D01*
D20*
X107047453Y-92536017D02*
X125460000Y-92509019D01*
D19*
X179247453Y-66136017D02*
X179547453Y-65486017D01*
D20*
X233460250Y-82262325D02*
X234161483Y-81919863D01*
D19*
X220297453Y-139886017D02*
X220597453Y-139936017D01*
X171997453Y-57586017D02*
X154547453Y-57536017D01*
X84797453Y-121036017D02*
X88547453Y-119436017D01*
X235647453Y-110736017D02*
X235097453Y-110386017D01*
X116497453Y-81986017D02*
X118797453Y-82386017D01*
X225347453Y-109636017D02*
X226397453Y-109786017D01*
X211147453Y-36136017D02*
X211147453Y-44586017D01*
X236047453Y-111136017D02*
X235647453Y-110736017D01*
X223110000Y-139978245D02*
X226547453Y-140036017D01*
X209189710Y-34693594D02*
X209297453Y-34936017D01*
X90897453Y-120286017D02*
X92097453Y-119686017D01*
X124147453Y-106086017D02*
X126097453Y-106316017D01*
X173887453Y-116496017D02*
X161097453Y-116436017D01*
X111887944Y-124392058D02*
X111697453Y-124436017D01*
X108778265Y-60848355D02*
X109927801Y-62331627D01*
X171847453Y-124536017D02*
X171797453Y-123186017D01*
X228097453Y-60436017D02*
X228097453Y-60886017D01*
X109969824Y-119970265D02*
X108398393Y-120663543D01*
D20*
X114452611Y-53305610D02*
X114147453Y-52886017D01*
X104870000Y-27336017D02*
X104560000Y-27336017D01*
X114147453Y-52886017D02*
X113847453Y-52236017D01*
D19*
X213347453Y-90086017D02*
X212697453Y-91286017D01*
X154547453Y-67286017D02*
X113297453Y-67536017D01*
D20*
X198344209Y-27261017D02*
X180094209Y-27261017D01*
D19*
X122463416Y-110967003D02*
X122765196Y-111080170D01*
X196447453Y-83236017D02*
X196647453Y-69036017D01*
X153877453Y-111376017D02*
X142697453Y-111386017D01*
X231697453Y-123386017D02*
X231747453Y-123836017D01*
X92982038Y-48938784D02*
X94297453Y-49876017D01*
X240263036Y-99686661D02*
X239940460Y-98638288D01*
X106835413Y-121331443D02*
X106397453Y-121486017D01*
X173887453Y-106336017D02*
X167197453Y-106236017D01*
X97034054Y-51296205D02*
X97100037Y-51303968D01*
X145568885Y-113097282D02*
X146428418Y-113394813D01*
X114504198Y-84532241D02*
X111683796Y-83787969D01*
X204697453Y-136186017D02*
X204747453Y-139236017D01*
X133220552Y-112771535D02*
X133365252Y-112754511D01*
X129454993Y-107156432D02*
X131074754Y-106742876D01*
X120841237Y-105226389D02*
X121277262Y-105317227D01*
X175551446Y-91062908D02*
X175729918Y-91023247D01*
X89447453Y-36236017D02*
X88397453Y-35036017D01*
X97497453Y-83236017D02*
X97847453Y-83486017D01*
X104997453Y-54486017D02*
X105437277Y-54889189D01*
X88677624Y-79510086D02*
X88697453Y-79536017D01*
X99322319Y-53736017D02*
X99380833Y-53736017D01*
X210897453Y-103136017D02*
X210397453Y-106986017D01*
X185297453Y-31136017D02*
X201969096Y-31039927D01*
X96097453Y-120736017D02*
X94297453Y-120666017D01*
X114547453Y-112936017D02*
X114997453Y-112836017D01*
X204497453Y-144086017D02*
X207797453Y-141366017D01*
X182197453Y-30336017D02*
X182947453Y-29936017D01*
X91115782Y-76960776D02*
X91247453Y-77036017D01*
X97247453Y-119486017D02*
X98547453Y-119786017D01*
X224547453Y-109486017D02*
X225347453Y-109636017D01*
X177497453Y-119086017D02*
X178647453Y-119186017D01*
D20*
X192497453Y-147374860D02*
X207847453Y-147353976D01*
D19*
X91597453Y-45086017D02*
X91147453Y-44486017D01*
X194847453Y-123936017D02*
X198547453Y-129986017D01*
X239297453Y-115186017D02*
X239694607Y-113845623D01*
X106847453Y-115936017D02*
X107797453Y-115336017D01*
X224284441Y-63186041D02*
X196647453Y-63236017D01*
X228240847Y-118628310D02*
X229061837Y-119586131D01*
X96397453Y-82786017D02*
X96897453Y-82936017D01*
X123697453Y-113786017D02*
X124297453Y-113886017D01*
X101214073Y-53686017D02*
X101843602Y-53686017D01*
X87197453Y-33886017D02*
X86247453Y-33086017D01*
X92423827Y-48510678D02*
X92427715Y-48513880D01*
X175797453Y-30836017D02*
X175897453Y-30336017D01*
X96847453Y-48536017D02*
X97659283Y-48596153D01*
X104157554Y-128519672D02*
X103744608Y-128444591D01*
D20*
X116047453Y-54586017D02*
X115660531Y-54339794D01*
D19*
X112947453Y-105536017D02*
X113297453Y-105636017D01*
X219297453Y-107986017D02*
X219459739Y-108256494D01*
X135077453Y-101226017D02*
X135041436Y-101190000D01*
X111997453Y-114236017D02*
X112847453Y-113636017D01*
X102047453Y-134536017D02*
X101217453Y-132956017D01*
X96969039Y-84757481D02*
X96271259Y-84602418D01*
X135647451Y-36386017D02*
X139047453Y-36336017D01*
D20*
X86671668Y-30186017D02*
X85497453Y-30186017D01*
D19*
X122942543Y-108279544D02*
X123346649Y-108400776D01*
X156297453Y-85036017D02*
X127007572Y-85681387D01*
X89347453Y-127486017D02*
X91397453Y-125386017D01*
D20*
X78594209Y-29886017D02*
X78497453Y-30436017D01*
D19*
X97098953Y-53517833D02*
X97591943Y-53595673D01*
D20*
X219197453Y-96386017D02*
X219547453Y-95936017D01*
D19*
X97056510Y-74812526D02*
X97228636Y-74841214D01*
X228747453Y-80036017D02*
X228747453Y-65086017D01*
D20*
X223297453Y-147317574D02*
X239347453Y-147186017D01*
D19*
X210447453Y-57086017D02*
X210648062Y-57219756D01*
X154547453Y-73786017D02*
X131797453Y-74036017D01*
X119005235Y-77060268D02*
X119359883Y-77075688D01*
X210647453Y-33386017D02*
X210847453Y-34036017D01*
X111785049Y-99932500D02*
X116133647Y-99887202D01*
D20*
X81847453Y-85926017D02*
X81847453Y-84336017D01*
X83907453Y-80166017D02*
X83907453Y-76166017D01*
D19*
X198597453Y-145736017D02*
X200647453Y-145736017D01*
X87047453Y-54986017D02*
X87112378Y-55020389D01*
X219647453Y-139536017D02*
X220297453Y-139886017D01*
D20*
X125460000Y-92509019D02*
X125420000Y-95980000D01*
D19*
X92697453Y-51136017D02*
X95525827Y-51179530D01*
X231197453Y-125286017D02*
X230847453Y-125536017D01*
X236147453Y-105736017D02*
X236912219Y-106161638D01*
X173887453Y-108876017D02*
X185997453Y-107786017D01*
X172047453Y-125086017D02*
X171947453Y-124836017D01*
X107198742Y-128398573D02*
X105921679Y-128660535D01*
X222747453Y-128886017D02*
X223147453Y-128786017D01*
X119547453Y-102486017D02*
X120797453Y-102636017D01*
D20*
X84697453Y-30336017D02*
X84347453Y-30536017D01*
D19*
X94297453Y-78916017D02*
X96147453Y-79536017D01*
X203797453Y-144636017D02*
X204497453Y-144086017D01*
X94297453Y-105246017D02*
X95678244Y-105668884D01*
X236297453Y-32786017D02*
X236397453Y-33436017D01*
X121603970Y-85574636D02*
X120527258Y-85511300D01*
X88847453Y-81636017D02*
X89847453Y-82136017D01*
X111763985Y-64951028D02*
X113297453Y-67536017D01*
X136247453Y-102436017D02*
X142697453Y-106306017D01*
X128065205Y-113614990D02*
X130629022Y-113157165D01*
D20*
X203597453Y-123986017D02*
X203147453Y-124036017D01*
D19*
X117842547Y-117533983D02*
X117800000Y-113760000D01*
X122597451Y-30586017D02*
X122947451Y-30636017D01*
X235747453Y-65636017D02*
X235347453Y-66136017D01*
X167571867Y-141589878D02*
X168999726Y-141972340D01*
X185997453Y-107786017D02*
X190497453Y-85286017D01*
X103649694Y-128431992D02*
X101917453Y-128286017D01*
X91897453Y-89636017D02*
X92297453Y-89936017D01*
X111224672Y-68461570D02*
X111521290Y-68711353D01*
X223747453Y-96336017D02*
X223403626Y-96558493D01*
D20*
X239330266Y-136186017D02*
X239297453Y-115186017D01*
X82547453Y-81836017D02*
X83907453Y-80166017D01*
D19*
X127716207Y-108548516D02*
X128836823Y-108299490D01*
X95997453Y-48286017D02*
X96847453Y-48536017D01*
X230647453Y-111836017D02*
X230747453Y-116436017D01*
D20*
X201597453Y-124886017D02*
X201347453Y-125136017D01*
D19*
X103829270Y-98402535D02*
X105200432Y-98904180D01*
X230276288Y-121070619D02*
X230997453Y-121936017D01*
X137097453Y-110336017D02*
X138597453Y-110636017D01*
X190497453Y-71236017D02*
X191947453Y-69036017D01*
X86097451Y-59686017D02*
X86047453Y-58076017D01*
X123524393Y-100827370D02*
X123547453Y-100836017D01*
X172697453Y-125436017D02*
X172397453Y-125336017D01*
X110897453Y-75186017D02*
X111904344Y-75401779D01*
X88547453Y-119436017D02*
X90897453Y-118536017D01*
X99713981Y-53730466D02*
X100880925Y-53691568D01*
X101917453Y-97626017D02*
X103468348Y-98262511D01*
X136497453Y-97486017D02*
X142697453Y-101226017D01*
X123757078Y-106003833D02*
X124147453Y-106086017D01*
X121400657Y-87746871D02*
X117970867Y-86832261D01*
X89147453Y-55836017D02*
X89611155Y-55920327D01*
X205547453Y-135086017D02*
X205147453Y-135236017D01*
X171997453Y-120286017D02*
X171597453Y-120336017D01*
X123347453Y-113686017D02*
X123697453Y-113786017D01*
X98229683Y-126958796D02*
X98187835Y-126953565D01*
X84847453Y-85926017D02*
X86370828Y-86935253D01*
X152147451Y-122986017D02*
X153877453Y-121536017D01*
X104547453Y-54186017D02*
X104997453Y-54486017D01*
D20*
X113847453Y-52236017D02*
X113741710Y-51770748D01*
D19*
X97768311Y-74916112D02*
X97892836Y-74929948D01*
X221047453Y-141886017D02*
X223297453Y-141246017D01*
X96643235Y-120908369D02*
X96097453Y-120736017D01*
X229547453Y-139486017D02*
X229997453Y-139286017D01*
X201197453Y-145686017D02*
X201847453Y-145586017D01*
D20*
X99597453Y-132736017D02*
X99897453Y-132786017D01*
D19*
X96097453Y-95536017D02*
X97097453Y-95836017D01*
X127747453Y-112586017D02*
X128497453Y-112486017D01*
X101917453Y-54956017D02*
X104047453Y-56136017D01*
D20*
X104560000Y-27336017D02*
X101069209Y-27336017D01*
X81797453Y-129036017D02*
X81797453Y-125036017D01*
D19*
X103197453Y-107886017D02*
X103797453Y-108036017D01*
X240679858Y-101614044D02*
X240555550Y-100903716D01*
X177997453Y-28586017D02*
X178547453Y-28486017D01*
X189997453Y-139486017D02*
X189797453Y-140186017D01*
X213597453Y-94136017D02*
X212347453Y-97086017D01*
D20*
X239761287Y-28405189D02*
X239747453Y-28336017D01*
D19*
X221347453Y-105236017D02*
X222097453Y-107736017D01*
X91594180Y-56186454D02*
X96445550Y-56231794D01*
X93697453Y-46036017D02*
X93297453Y-45986017D01*
X121347453Y-97636017D02*
X122897453Y-97986017D01*
X101917453Y-44796017D02*
X101947453Y-35336017D01*
X189047453Y-141486017D02*
X188597453Y-141536017D01*
X194547453Y-128686017D02*
X194597453Y-143986017D01*
D20*
X115447451Y-139136017D02*
X115247451Y-138736017D01*
X216547453Y-124586017D02*
X217547453Y-124017086D01*
D19*
X179447453Y-73886017D02*
X178697453Y-73236017D01*
X132020901Y-112940248D02*
X132074081Y-112932359D01*
X124501604Y-101036709D02*
X124549460Y-101044685D01*
X145047453Y-131536017D02*
X148091524Y-130333421D01*
X86897451Y-60686017D02*
X86147451Y-59936017D01*
X109682770Y-104015642D02*
X110322044Y-104302213D01*
X108047453Y-62986017D02*
X108215909Y-63424002D01*
X84447453Y-56386017D02*
X84047453Y-56686017D01*
X153877453Y-116456017D02*
X158807453Y-116526017D01*
X176747453Y-130486017D02*
X190697453Y-130486017D01*
X88397453Y-35036017D02*
X87197453Y-33886017D01*
X172197453Y-121736017D02*
X171947453Y-121936017D01*
X106797453Y-118036017D02*
X107297453Y-117886017D01*
X114447451Y-42986017D02*
X114347451Y-42736017D01*
X225497453Y-74036017D02*
X225047453Y-74136017D01*
X183197453Y-73536017D02*
X180747453Y-71686017D01*
X88743498Y-55706751D02*
X89147453Y-55836017D01*
X99047453Y-94036017D02*
X99441141Y-94138718D01*
X234297453Y-112836017D02*
X234297453Y-124986017D01*
X89847453Y-82136017D02*
X90797453Y-82436017D01*
X93297453Y-45986017D02*
X92797453Y-45886017D01*
X219197453Y-131636017D02*
X219297453Y-131186017D01*
D20*
X84347453Y-30536017D02*
X83697453Y-31086017D01*
D19*
X228647453Y-42236017D02*
X228747453Y-61286017D01*
X170397453Y-121486017D02*
X170347453Y-121736017D01*
X230747453Y-36236017D02*
X230697453Y-39686017D01*
X133197453Y-106286017D02*
X135077453Y-106306017D01*
X204397453Y-140436017D02*
X204097453Y-140836017D01*
X226047453Y-36236017D02*
X225947453Y-39286017D01*
X221247453Y-39886017D02*
X225947453Y-44286017D01*
X146667453Y-33796017D02*
X149847453Y-33836017D01*
X108191766Y-106487796D02*
X110096530Y-106523735D01*
D20*
X104560000Y-27336017D02*
X104560000Y-30360000D01*
X221347453Y-116436017D02*
X221447453Y-116186017D01*
D19*
X174047453Y-136846017D02*
X180797453Y-136886017D01*
X210297453Y-32686017D02*
X210647453Y-33386017D01*
X120047453Y-110086017D02*
X120397453Y-110136017D01*
X234997453Y-89936017D02*
X223647453Y-90436017D01*
X131297453Y-110536017D02*
X132747453Y-110186017D01*
X92247453Y-74886017D02*
X92847453Y-75386017D01*
X217797453Y-137086017D02*
X217997453Y-137736017D01*
X164917453Y-41416017D02*
X168047453Y-41436017D01*
X127908052Y-113642084D02*
X127986627Y-113628699D01*
X234097453Y-112086017D02*
X234197453Y-112486017D01*
X146667453Y-41416017D02*
X149847453Y-41436017D01*
D20*
X215447453Y-126936017D02*
X215447453Y-125736017D01*
D19*
X88569573Y-93339582D02*
X88897453Y-93436017D01*
X114897451Y-30936017D02*
X115247451Y-30736017D01*
D20*
X239270934Y-76209241D02*
X239747453Y-75086017D01*
D19*
X104109333Y-48928044D02*
X105147453Y-49286017D01*
X109047453Y-65786017D02*
X109241086Y-66124875D01*
X168997453Y-136436017D02*
X169147453Y-136686017D01*
X136990250Y-91085336D02*
X133126450Y-91039338D01*
X171147453Y-130386017D02*
X171447453Y-130436017D01*
X170619426Y-142265931D02*
X172975573Y-142495001D01*
X87797453Y-80936017D02*
X88847453Y-81636017D01*
X98002133Y-74941485D02*
X98324627Y-74973734D01*
X96697453Y-124586017D02*
X98897453Y-125086017D01*
X184247453Y-31636017D02*
X184747453Y-31236017D01*
X173887453Y-113956017D02*
X162597453Y-113886017D01*
X89747453Y-41686017D02*
X88947453Y-40236017D01*
D20*
X211197453Y-138736017D02*
X211447453Y-138836017D01*
D19*
X123597451Y-31386017D02*
X123597451Y-36436017D01*
X125147451Y-38486017D02*
X125647451Y-38686017D01*
X213875837Y-102963630D02*
X213514073Y-104871111D01*
X100197453Y-80036017D02*
X101397453Y-80086017D01*
X114147453Y-73586017D02*
X115047453Y-73736017D01*
X235550327Y-90592555D02*
X234997453Y-89936017D01*
X114161163Y-86060322D02*
X112950739Y-85893367D01*
X232547453Y-109636017D02*
X231597453Y-109486017D01*
X227947453Y-107936017D02*
X227397453Y-107486017D01*
X220497453Y-129736017D02*
X220897453Y-129486017D01*
X153847453Y-126686017D02*
X158807453Y-126686017D01*
X99597453Y-99236017D02*
X100147453Y-99436017D01*
X97097453Y-95836017D02*
X98497453Y-96086017D01*
X118891385Y-88434425D02*
X116289652Y-87752004D01*
D20*
X225697453Y-88836017D02*
X223897453Y-89136017D01*
D19*
X190097453Y-113136017D02*
X191697453Y-105236017D01*
X114647451Y-31236017D02*
X114897451Y-30936017D01*
X87897453Y-104636017D02*
X89047453Y-104236017D01*
X89871735Y-45764714D02*
X90848749Y-46919367D01*
X90247453Y-72336017D02*
X90947453Y-73286017D01*
X139047453Y-33796017D02*
X139047453Y-31256017D01*
X207897453Y-30336017D02*
X208497453Y-30736017D01*
X218347453Y-138286017D02*
X218697453Y-138786017D01*
X226047453Y-47036017D02*
X226047453Y-57836017D01*
X154547453Y-77036017D02*
X131797453Y-77036017D01*
X204097453Y-140836017D02*
X203797453Y-141136017D01*
X97897453Y-79886017D02*
X99047453Y-79986017D01*
X111797453Y-104936017D02*
X111997453Y-105086017D01*
X210147453Y-56636017D02*
X210447453Y-57086017D01*
X210447453Y-96336017D02*
X209747453Y-98436017D01*
X160577321Y-135925063D02*
X159597451Y-135286017D01*
X136497453Y-94636017D02*
X142697453Y-98686017D01*
X225997453Y-111186017D02*
X226497453Y-111236017D01*
X223705831Y-87331059D02*
X222997453Y-87486017D01*
X170453646Y-139975345D02*
X170344091Y-139956012D01*
X95397453Y-82736017D02*
X95947453Y-82736017D01*
D20*
X89547453Y-133486017D02*
X89597453Y-132936017D01*
D19*
X90156598Y-67310405D02*
X90493044Y-68207594D01*
X128997453Y-112436017D02*
X129547453Y-112336017D01*
X232697453Y-128036017D02*
X232297453Y-128336017D01*
X230797453Y-60836017D02*
X230747453Y-57836017D01*
X123247451Y-30786017D02*
X123497451Y-31036017D01*
X231497453Y-30086017D02*
X232797453Y-30386017D01*
X95239111Y-84314232D02*
X94297453Y-83996017D01*
X116297453Y-43986017D02*
X115247451Y-43686017D01*
X121330701Y-100170846D02*
X121397453Y-100186017D01*
X107347453Y-101786017D02*
X108097453Y-102036017D01*
X86903783Y-114609435D02*
X87568482Y-114443260D01*
X153877453Y-103756017D02*
X158647453Y-103796017D01*
X227697453Y-61936017D02*
X227297453Y-62436017D01*
X143743734Y-112735645D02*
X143760857Y-112737357D01*
X211597453Y-99636017D02*
X210897453Y-103136017D01*
X127667453Y-46496017D02*
X130797453Y-46536017D01*
X98197453Y-101186017D02*
X100697453Y-101436017D01*
X144369073Y-105829963D02*
X145265145Y-105579063D01*
D20*
X101917453Y-92546017D02*
X104547453Y-92536017D01*
D19*
X106744692Y-82300373D02*
X105588563Y-82030609D01*
X170347453Y-121736017D02*
X170347453Y-129436017D01*
X228597453Y-108386017D02*
X227947453Y-107936017D01*
X232297453Y-128336017D02*
X231897453Y-128586017D01*
X107297453Y-117886017D02*
X107897453Y-117586017D01*
X106397453Y-121486017D02*
X105758741Y-121627953D01*
X110047453Y-115886017D02*
X110597453Y-115386017D01*
X94297453Y-73836017D02*
X95397342Y-74312635D01*
X158807453Y-131766017D02*
X156901042Y-132775293D01*
X229847453Y-64086017D02*
X230197453Y-63686017D01*
X111697453Y-124436017D02*
X111618060Y-124465789D01*
X210847453Y-34036017D02*
X210997453Y-34586017D01*
X84847453Y-89926017D02*
X85597133Y-91039827D01*
X180797453Y-136886017D02*
X182597453Y-138936017D01*
X106097453Y-80286017D02*
X112197453Y-81136017D01*
X230847453Y-125536017D02*
X230147453Y-125836017D01*
X230397453Y-40386017D02*
X230097453Y-40786017D01*
X112197453Y-81136017D02*
X116497453Y-81986017D01*
X105198685Y-108786838D02*
X105307638Y-108859474D01*
X140511477Y-112481785D02*
X140583397Y-112490510D01*
X187997453Y-120286017D02*
X188047453Y-118786017D01*
X231697453Y-124086017D02*
X231647453Y-124486017D01*
X235847453Y-105586017D02*
X236147453Y-105736017D01*
X91497451Y-65786017D02*
X90797451Y-64836017D01*
X109373058Y-59433331D02*
X113297453Y-64036017D01*
X171947453Y-124836017D02*
X171847453Y-124536017D01*
D20*
X221347453Y-116436017D02*
X221397453Y-124025661D01*
D19*
X221347453Y-83236017D02*
X219347453Y-84036017D01*
X171597453Y-120336017D02*
X171347453Y-120436017D01*
D20*
X230747453Y-83236017D02*
X232094336Y-82808957D01*
D19*
X225047453Y-74136017D02*
X224697453Y-74336017D01*
X166941909Y-139035387D02*
X165873466Y-138638537D01*
X161097453Y-116436017D02*
X161147453Y-80036017D01*
X224080263Y-126606916D02*
X222534235Y-126800169D01*
X107897453Y-110836017D02*
X108124119Y-110921017D01*
D20*
X81797453Y-125036017D02*
X81797453Y-121036017D01*
D19*
X207247453Y-30036017D02*
X207897453Y-30336017D01*
D20*
X175797453Y-54936017D02*
X119056037Y-54886244D01*
D19*
X94297453Y-52416017D02*
X95447453Y-53086017D01*
X83907453Y-80166017D02*
X85247453Y-82086017D01*
X86183674Y-45712003D02*
X86247453Y-46286017D01*
X153877453Y-124086017D02*
X158807453Y-124156017D01*
X233297453Y-127486017D02*
X232997453Y-127786017D01*
X96147453Y-53336017D02*
X96697418Y-53446010D01*
X178497453Y-122436017D02*
X178347453Y-122186017D01*
X99197453Y-83986017D02*
X100047453Y-84036017D01*
X112455569Y-110320167D02*
X112947453Y-110186017D01*
X223147453Y-128786017D02*
X224047453Y-128786017D01*
X115899249Y-107623121D02*
X116000752Y-107626880D01*
X98947453Y-78336017D02*
X99497453Y-78586017D01*
X126097453Y-106316017D02*
X130447453Y-102436017D01*
X234347453Y-110036017D02*
X233447453Y-109786017D01*
X210997453Y-34586017D02*
X211097453Y-35286017D01*
X226547453Y-140036017D02*
X227897453Y-139936017D01*
X133047453Y-110136017D02*
X133347453Y-110136017D01*
X146667487Y-113474210D02*
X147505682Y-113740908D01*
X106897453Y-63836017D02*
X107397453Y-64736017D01*
X100697453Y-101436017D02*
X103697453Y-101436017D01*
X96847453Y-46036017D02*
X93697453Y-46036017D01*
D20*
X201347453Y-125136017D02*
X201097453Y-125486017D01*
D19*
X120047453Y-112686017D02*
X120647453Y-112786017D01*
X109947453Y-113536017D02*
X110947453Y-112736017D01*
X169047453Y-118736017D02*
X168997453Y-136436017D01*
X173887453Y-113956017D02*
X190097453Y-113136017D01*
X86597453Y-47336017D02*
X87297453Y-48436017D01*
X188147453Y-120986017D02*
X187997453Y-120636017D01*
X235197453Y-105386017D02*
X235547453Y-105486017D01*
X108473075Y-111044558D02*
X108597453Y-111086017D01*
X84777453Y-111326017D02*
X94297453Y-113046017D01*
X135041436Y-101190000D02*
X131743470Y-101190000D01*
X169347453Y-118136017D02*
X169097453Y-118486017D01*
X124097453Y-98336017D02*
X124647453Y-98436017D01*
X236497453Y-112086017D02*
X236347453Y-111636017D01*
X98487842Y-85053566D02*
X98747453Y-85086017D01*
X211397453Y-45486017D02*
X211597453Y-45936017D01*
X202347453Y-141536017D02*
X202079249Y-141536017D01*
X96047453Y-115786017D02*
X97047453Y-115986017D01*
X92047453Y-40086017D02*
X90697453Y-37836017D01*
X90348263Y-50527527D02*
X91097453Y-50836017D01*
D20*
X216147453Y-108420070D02*
X216147453Y-106735380D01*
D19*
X236397453Y-33436017D02*
X236347453Y-63886017D01*
D20*
X117811691Y-54834391D02*
X116747453Y-54786017D01*
D19*
X153877453Y-103756017D02*
X142697453Y-103766017D01*
X115247451Y-43686017D02*
X114897451Y-43486017D01*
X227897453Y-139936017D02*
X228897453Y-139786017D01*
D20*
X113347451Y-137586017D02*
X112947451Y-137486017D01*
D19*
X86447453Y-83436017D02*
X87247453Y-84186017D01*
X230447453Y-63086017D02*
X230647453Y-62436017D01*
X135077453Y-96146017D02*
X131697453Y-96186017D01*
X217597453Y-134286017D02*
X217297453Y-134586017D01*
X86087453Y-40056017D02*
X87211328Y-42022799D01*
D20*
X127340000Y-27334048D02*
X127320000Y-33840000D01*
D19*
X110724432Y-119650973D02*
X110125652Y-119903091D01*
X113597453Y-105686017D02*
X113997453Y-105686017D01*
D20*
X221047453Y-147336017D02*
X223297453Y-147317574D01*
D19*
X101459672Y-48544938D02*
X102897453Y-48586017D01*
X91497453Y-123436017D02*
X92547453Y-123236017D01*
X178647453Y-119186017D02*
X179547453Y-119436017D01*
X114824085Y-105424365D02*
X115597453Y-105086017D01*
X196647453Y-47036017D02*
X196647453Y-36236017D01*
X126795435Y-90399870D02*
X124625703Y-89934928D01*
X240848992Y-107748318D02*
X240892666Y-105258852D01*
D20*
X158744209Y-27286017D02*
X146590000Y-27286017D01*
X83047453Y-54076017D02*
X83047453Y-50076017D01*
X126047453Y-92508158D02*
X141147453Y-92486017D01*
D19*
X91647453Y-82636017D02*
X92297453Y-82736017D01*
X177697453Y-93286017D02*
X180547453Y-74886017D01*
X171371978Y-140096494D02*
X171144650Y-140072565D01*
X230917453Y-143786017D02*
X236297453Y-143786017D01*
X98897453Y-125086017D02*
X100297453Y-125486017D01*
X194647453Y-144486017D02*
X194847453Y-144836017D01*
X233847453Y-67486017D02*
X233097453Y-68036017D01*
X234247453Y-125636017D02*
X234097453Y-126186017D01*
X89697451Y-63536017D02*
X88897451Y-62636017D01*
X207247453Y-107386017D02*
X206897453Y-109686017D01*
X123497451Y-31036017D02*
X123597451Y-31386017D01*
X105967662Y-109339516D02*
X106599706Y-109839884D01*
X97907624Y-126914505D02*
X97397453Y-126836017D01*
X112700000Y-78000000D02*
X114203700Y-78694016D01*
X123047453Y-103186017D02*
X124497453Y-103586017D01*
X240284444Y-111701060D02*
X240440960Y-110918484D01*
X100697453Y-104886017D02*
X101917453Y-105246017D01*
X103889768Y-58818496D02*
X104047453Y-58836017D01*
X236347453Y-63886017D02*
X236147453Y-64936017D01*
X108358424Y-86781674D02*
X106409915Y-86686625D01*
X109864769Y-86880505D02*
X108536390Y-86791946D01*
X228097453Y-60886017D02*
X227947453Y-61486017D01*
X229697453Y-41236017D02*
X229247453Y-41636017D01*
X210397453Y-106986017D02*
X210047453Y-109886017D01*
X138047453Y-113786017D02*
X138347453Y-113886017D01*
X106697388Y-56177608D02*
X107812980Y-57479132D01*
X219247453Y-127136017D02*
X219063452Y-127267446D01*
X90297453Y-80686017D02*
X90863087Y-80898130D01*
X123997453Y-112786017D02*
X124847453Y-112786017D01*
X111847453Y-119236017D02*
X111276801Y-119437424D01*
X99535824Y-75105242D02*
X99665230Y-75113869D01*
X114397453Y-70386017D02*
X114505071Y-70406516D01*
X114197453Y-113036017D02*
X114547453Y-112936017D01*
D20*
X239447453Y-27836017D02*
X238968549Y-27425528D01*
D19*
X96147453Y-79536017D02*
X96947453Y-79736017D01*
X90987414Y-93698099D02*
X91846714Y-93733903D01*
X169097453Y-118486017D02*
X169047453Y-118736017D01*
X225747453Y-30236017D02*
X227047453Y-30086017D01*
X114347451Y-32186017D02*
X114397451Y-31786017D01*
X204647453Y-133336017D02*
X204797453Y-133586017D01*
X139124809Y-112253868D02*
X139162508Y-112262568D01*
X125497453Y-112736017D02*
X127747453Y-112586017D01*
X204747453Y-139236017D02*
X204647453Y-139886017D01*
X196647453Y-63236017D02*
X196647453Y-57836017D01*
D20*
X216559385Y-103007555D02*
X216798448Y-102073037D01*
D19*
X137147453Y-112936017D02*
X137297453Y-113136017D01*
X161147453Y-80036017D02*
X154547453Y-80036017D01*
X221364355Y-88314078D02*
X220597453Y-88786017D01*
X227297453Y-62436017D02*
X226947453Y-62786017D01*
X114939137Y-76274030D02*
X116329637Y-76647091D01*
X88754944Y-74970381D02*
X89247453Y-75586017D01*
X218697453Y-138786017D02*
X219147453Y-139236017D01*
X211497453Y-57736017D02*
X211947453Y-57836017D01*
X88847453Y-70536017D02*
X89797453Y-71786017D01*
X94397453Y-119386017D02*
X95797453Y-119386017D01*
X117247453Y-111686017D02*
X118477453Y-111396017D01*
X101397453Y-80086017D02*
X103047453Y-80136017D01*
X101917453Y-107786017D02*
X103197453Y-107886017D01*
X203797453Y-141136017D02*
X203397453Y-141336017D01*
X173887453Y-96176017D02*
X179497453Y-95986017D01*
X124497453Y-103586017D02*
X126097453Y-103776017D01*
X132569076Y-91017144D02*
X130202937Y-90856728D01*
D20*
X83697453Y-66036017D02*
X83597453Y-65286017D01*
D19*
X110397381Y-127439069D02*
X109843146Y-127607019D01*
D20*
X117827453Y-137296017D02*
X117727453Y-131396017D01*
D19*
X179497453Y-95986017D02*
X183197453Y-73536017D01*
X203397453Y-141336017D02*
X202997453Y-141436017D01*
X234297453Y-31786017D02*
X234947453Y-32986017D01*
D20*
X239897453Y-73441764D02*
X239897460Y-73430270D01*
D19*
X207172431Y-32475477D02*
X207347453Y-32586017D01*
X83697453Y-57236017D02*
X83047453Y-58076017D01*
X132959174Y-107486779D02*
X136652578Y-107532377D01*
X112847453Y-113636017D02*
X113297453Y-113386017D01*
X233097453Y-68036017D02*
X232397453Y-68586017D01*
X102947917Y-53747180D02*
X103297453Y-53786017D01*
X234347453Y-41186017D02*
X230747453Y-47036017D01*
X135647451Y-41436017D02*
X139047453Y-41416017D01*
X112682531Y-75601540D02*
X114656944Y-76193864D01*
X173047453Y-125486017D02*
X193597453Y-125286017D01*
X158647453Y-93636017D02*
X151337453Y-93596017D01*
X233497453Y-29086017D02*
X234447453Y-29586017D01*
X178197453Y-120936017D02*
X178097453Y-120686017D01*
X190047453Y-49886017D02*
X191947453Y-47036017D01*
X219497453Y-130736017D02*
X219747453Y-130386017D01*
X179447453Y-122786017D02*
X178997453Y-122736017D01*
X176097453Y-29836017D02*
X176497453Y-29286017D01*
X112573128Y-106959914D02*
X113118192Y-107132040D01*
X117377155Y-76868783D02*
X117895838Y-76949827D01*
X219697453Y-87486017D02*
X218347453Y-88086017D01*
X120747453Y-110236017D02*
X121136535Y-110408942D01*
X88897451Y-62636017D02*
X87947451Y-61636017D01*
X232997453Y-111036017D02*
X233347453Y-111286017D01*
D20*
X126569209Y-27336017D02*
X104870000Y-27336017D01*
D19*
X92094285Y-51040780D02*
X92697453Y-51136017D01*
X190247453Y-38386017D02*
X191947453Y-36236017D01*
X230747453Y-57836017D02*
X230747453Y-47036017D01*
X97347133Y-56280985D02*
X97397453Y-56286017D01*
X124097453Y-111436017D02*
X126097453Y-111396017D01*
X98647453Y-78136017D02*
X98947453Y-78336017D01*
X111597453Y-110536017D02*
X111756315Y-110500714D01*
X114747453Y-111736017D02*
X116647453Y-111736017D01*
X144970393Y-114956932D02*
X142547453Y-113616017D01*
X137241602Y-107557028D02*
X137647453Y-107586017D01*
D20*
X146144209Y-27286017D02*
X139010000Y-27304240D01*
D19*
X99297453Y-57086017D02*
X99571831Y-57177476D01*
X123697453Y-111386017D02*
X124097453Y-111436017D01*
X185547453Y-29686017D02*
X204697453Y-29636017D01*
X133100000Y-115200000D02*
X135190000Y-113890000D01*
X221777593Y-97842944D02*
X221661507Y-97952202D01*
X217297453Y-134586017D02*
X216997453Y-134836017D01*
X203320124Y-31123757D02*
X203332177Y-31125329D01*
D20*
X83297453Y-63886017D02*
X83147453Y-63136017D01*
D19*
X98647453Y-83836017D02*
X99197453Y-83986017D01*
X141470279Y-112598300D02*
X142099314Y-112661203D01*
X158647453Y-88556017D02*
X128519011Y-88685924D01*
X88897453Y-93436017D02*
X89276137Y-93507020D01*
X91397453Y-125386017D02*
X92347453Y-124836017D01*
X146667453Y-49036017D02*
X146667453Y-46496017D01*
X173887453Y-116496017D02*
X191697453Y-116436017D01*
X107797453Y-115336017D02*
X108947453Y-114386017D01*
X91747453Y-86386017D02*
X92647453Y-86536017D01*
X116721635Y-126837533D02*
X114627492Y-126879416D01*
X226047453Y-116436017D02*
X227624448Y-117971512D01*
X113497453Y-110136017D02*
X113856803Y-110136017D01*
D20*
X83907453Y-72166017D02*
X83907453Y-68166017D01*
X211447453Y-138836017D02*
X211797453Y-139086017D01*
D19*
X196647453Y-57836017D02*
X196647453Y-47036017D01*
X172397453Y-125336017D02*
X172047453Y-125086017D01*
D20*
X83907453Y-76166017D02*
X83907453Y-72166017D01*
D19*
X107337819Y-61752529D02*
X107647453Y-62186017D01*
X164917453Y-36336017D02*
X168047453Y-36336017D01*
X104968671Y-85239178D02*
X100644390Y-85280758D01*
X225978743Y-62207400D02*
X225656195Y-62576027D01*
X92097453Y-119686017D02*
X93347453Y-119436017D01*
X227997453Y-42086017D02*
X228097453Y-60436017D01*
D20*
X81777453Y-109236017D02*
X81777453Y-107326017D01*
D19*
X206347453Y-114086017D02*
X206197453Y-116486017D01*
X103531245Y-121895361D02*
X100844823Y-121928122D01*
X204097453Y-131386017D02*
X204347453Y-131686017D01*
X219147453Y-134186017D02*
X219197453Y-131636017D01*
D20*
X83087453Y-32056017D02*
X83697453Y-31086017D01*
D19*
X224297453Y-74736017D02*
X223947453Y-75236017D01*
X104397453Y-80186017D02*
X106097453Y-80286017D01*
X105794417Y-102992144D02*
X107030425Y-103211879D01*
X138647453Y-113936017D02*
X142697453Y-113926017D01*
X180897453Y-98386017D02*
X190247453Y-38386017D01*
X99897453Y-46486017D02*
X98847453Y-46186017D01*
D20*
X115597451Y-139786017D02*
X115447451Y-139136017D01*
X101069209Y-27336017D02*
X86469209Y-27361017D01*
D19*
X91427850Y-70528969D02*
X91456928Y-70598757D01*
D20*
X112947451Y-137486017D02*
X111547453Y-137286017D01*
X83147453Y-63136017D02*
X83047453Y-62076017D01*
D19*
X84777453Y-107326017D02*
X85947453Y-105886017D01*
X126097453Y-98696017D02*
X130397453Y-94586017D01*
X151597453Y-109236017D02*
X152497453Y-109036017D01*
X178347453Y-122186017D02*
X178247453Y-121836017D01*
X227397453Y-107486017D02*
X226047453Y-105236017D01*
X105204741Y-81948957D02*
X104403188Y-81794812D01*
X120897453Y-112836017D02*
X121597453Y-113036017D01*
X173887453Y-91096017D02*
X175340925Y-91086700D01*
X103750002Y-92397034D02*
X104350002Y-92647034D01*
X234947453Y-32986017D02*
X235297453Y-33936017D01*
X98020083Y-56452806D02*
X98297453Y-56536017D01*
X105597453Y-118136017D02*
X106397453Y-118086017D01*
X96367036Y-51227975D02*
X96860687Y-51277340D01*
X84797453Y-125036017D02*
X89647453Y-121236017D01*
X206647453Y-29886017D02*
X207247453Y-30036017D01*
X135647451Y-38886017D02*
X139047453Y-38876017D01*
D20*
X217027015Y-101308128D02*
X217323428Y-100443589D01*
D19*
X183147453Y-69436017D02*
X183297453Y-68786017D01*
X181697453Y-30836017D02*
X182197453Y-30336017D01*
D20*
X239747453Y-28336017D02*
X239447453Y-27836017D01*
D19*
X89962199Y-66799726D02*
X90138181Y-67261678D01*
D20*
X113536696Y-50487941D02*
X113491111Y-50001699D01*
D19*
X130847453Y-97486017D02*
X136497453Y-97486017D01*
X132127288Y-112924612D02*
X132974750Y-112803546D01*
X178247453Y-121836017D02*
X178247453Y-121236017D01*
X176042988Y-90895058D02*
X176172166Y-90814321D01*
X178097453Y-120686017D02*
X177947453Y-120486017D01*
D20*
X211947453Y-139336017D02*
X212047453Y-139636017D01*
D19*
X212947453Y-110686017D02*
X210597453Y-122786017D01*
X200107453Y-133746017D02*
X200107453Y-136286017D01*
D20*
X83087453Y-44056017D02*
X83087453Y-40056017D01*
D19*
X91712992Y-71282633D02*
X91772802Y-71462063D01*
X115397453Y-112736017D02*
X116197453Y-112636017D01*
X106980101Y-50718665D02*
X107009399Y-50747963D01*
X105353811Y-57229648D02*
X106207914Y-58053247D01*
X239735532Y-98040227D02*
X239376803Y-97092155D01*
X135647451Y-31236017D02*
X139047453Y-31256017D01*
D20*
X122293996Y-51136647D02*
X139047453Y-51160277D01*
D19*
X101917453Y-44796017D02*
X104547451Y-44836017D01*
X230917453Y-136166017D02*
X239330266Y-136186017D01*
X211847453Y-46236017D02*
X212247453Y-46586017D01*
D20*
X201097453Y-125486017D02*
X200995044Y-125656699D01*
D19*
X173887453Y-93636017D02*
X177697453Y-93286017D01*
X134533668Y-112686017D02*
X136547453Y-112686017D01*
X173887453Y-111416017D02*
X187297453Y-110586017D01*
X229997453Y-139286017D02*
X230917453Y-138706017D01*
X87247453Y-84186017D02*
X87897453Y-84636017D01*
X180547451Y-141486017D02*
X180297451Y-141386017D01*
X148347453Y-113936017D02*
X149147453Y-113986017D01*
X88397453Y-69936017D02*
X88847453Y-70536017D01*
X149297453Y-109636017D02*
X150347453Y-109486017D01*
D20*
X82247453Y-82286017D02*
X82547453Y-81836017D01*
D19*
X230647453Y-109236017D02*
X229747453Y-108936017D01*
X225947453Y-138686017D02*
X225797453Y-128798607D01*
X103697453Y-101436017D02*
X105947453Y-101536017D01*
X121258727Y-110462277D02*
X122035455Y-110795161D01*
X96671176Y-106013663D02*
X96997453Y-106136017D01*
X97797453Y-77736017D02*
X98197453Y-77886017D01*
X221097453Y-86836017D02*
X219697453Y-87486017D01*
X112334218Y-110354084D02*
X112339532Y-110352566D01*
X98197453Y-77886017D02*
X98647453Y-78136017D01*
X135647451Y-46486017D02*
X139047453Y-46496017D01*
X180747453Y-71686017D02*
X181947453Y-71086017D01*
X124047451Y-37686017D02*
X124347451Y-37986017D01*
X108296766Y-120709057D02*
X107645238Y-121005206D01*
X227547453Y-41336017D02*
X227797453Y-41686017D01*
X90797453Y-82436017D02*
X91647453Y-82636017D01*
X126447453Y-82886017D02*
X151297453Y-83036017D01*
X187897453Y-118386017D02*
X187547453Y-118036017D01*
X110247453Y-102436017D02*
X111847453Y-102486017D01*
X89797453Y-71786017D02*
X90247453Y-72336017D01*
X94297453Y-47336017D02*
X94933626Y-47723253D01*
X109247453Y-97286017D02*
X110497453Y-97336017D01*
X168797453Y-103786017D02*
X168797453Y-64036017D01*
X97197453Y-98936017D02*
X98747453Y-99086017D01*
X222747453Y-108386017D02*
X223297453Y-108886017D01*
X97734219Y-106317950D02*
X98147453Y-106436017D01*
X92347453Y-124836017D02*
X93197453Y-124536017D01*
X86087453Y-44056017D02*
X86132671Y-45058357D01*
X86907453Y-72166017D02*
X87753610Y-73516066D01*
X119835245Y-77085042D02*
X131797453Y-77036017D01*
D20*
X116747453Y-54786017D02*
X116047453Y-54586017D01*
D19*
X92297453Y-89936017D02*
X92697453Y-90336017D01*
X180047451Y-140336017D02*
X179797451Y-140186017D01*
X122897453Y-97986017D02*
X124097453Y-98336017D01*
D20*
X238459179Y-27194835D02*
X238397453Y-27186017D01*
D19*
X209197453Y-119186017D02*
X208997453Y-121386017D01*
X110647453Y-71936017D02*
X111547453Y-72586017D01*
X236597453Y-133486017D02*
X236597453Y-112586017D01*
X84847453Y-93926017D02*
X94297453Y-97626017D01*
X93697451Y-69636017D02*
X93197451Y-68586017D01*
X223797453Y-86036017D02*
X222747453Y-86486017D01*
X112844090Y-85879241D02*
X110095737Y-85530244D01*
X235597453Y-36886017D02*
X235497453Y-37936017D01*
X212247453Y-46586017D02*
X212647453Y-46786017D01*
X107947453Y-67386017D02*
X108197453Y-68336017D01*
X97850755Y-121366788D02*
X97439419Y-121197415D01*
D20*
X83047453Y-58076017D02*
X83047453Y-54076017D01*
D19*
X205047453Y-133736017D02*
X205397453Y-133836017D01*
X91049675Y-47149597D02*
X91347959Y-47481023D01*
X146667453Y-43956017D02*
X149847453Y-43936017D01*
X113997453Y-105686017D02*
X114347453Y-105636017D01*
X158647453Y-111416017D02*
X153877453Y-111376017D01*
X213223843Y-108106378D02*
X212947453Y-110686017D01*
D20*
X216247453Y-124736017D02*
X216547453Y-124586017D01*
D19*
X182847453Y-139086017D02*
X187797453Y-139036017D01*
X178997453Y-122736017D02*
X178697453Y-122636017D01*
X87897453Y-84636017D02*
X88647453Y-85086017D01*
X92014379Y-71852943D02*
X92065378Y-71903942D01*
X221959078Y-126855242D02*
X220889066Y-126926576D01*
X237180328Y-106314534D02*
X239247453Y-107536017D01*
X173887453Y-106336017D02*
X184747453Y-105536017D01*
X175797453Y-44286017D02*
X175797453Y-30836017D01*
X149147453Y-113986017D02*
X150147453Y-113986017D01*
X204255002Y-31290005D02*
X204565880Y-31360659D01*
X139395362Y-107101594D02*
X141296651Y-107404071D01*
X234297453Y-124986017D02*
X234247453Y-125636017D01*
X121397453Y-100186017D02*
X122760370Y-100575422D01*
X86247453Y-37036017D02*
X86087453Y-36056017D01*
X94297453Y-115586017D02*
X96047453Y-115786017D01*
X212347453Y-97086017D02*
X211597453Y-99636017D01*
X92697453Y-90336017D02*
X92947453Y-90636017D01*
X87497453Y-56686017D02*
X86897453Y-56336017D01*
X107897453Y-117586017D02*
X108397453Y-117286017D01*
D20*
X114297451Y-137886017D02*
X113942543Y-137779545D01*
D19*
X153877453Y-118996017D02*
X113726559Y-119035643D01*
X142596830Y-112686017D02*
X142748697Y-112686017D01*
X109297453Y-111136017D02*
X109597453Y-111086017D01*
X127748598Y-107461459D02*
X128429152Y-107361866D01*
X204347453Y-131686017D02*
X204447453Y-131936017D01*
X109160937Y-82954155D02*
X108482535Y-82760326D01*
X126237514Y-38752442D02*
X127667453Y-38876017D01*
X228897453Y-139786017D02*
X229547453Y-139486017D01*
X130300000Y-99900000D02*
X136300000Y-99900000D01*
X105233433Y-121730021D02*
X105053293Y-121760044D01*
X91547453Y-74086017D02*
X92247453Y-74886017D01*
D20*
X81797453Y-121036017D02*
X81777453Y-115326017D01*
X92247453Y-31236017D02*
X92613188Y-31492032D01*
D19*
X103788653Y-81696355D02*
X101917453Y-81456017D01*
X170347453Y-101186017D02*
X170447453Y-60836017D01*
X181097453Y-32086017D02*
X181247453Y-31486017D01*
X84797453Y-129036017D02*
X89097453Y-125036017D01*
X192487453Y-128666017D02*
X194547453Y-128686017D01*
X98197453Y-116286017D02*
X98947453Y-116536017D01*
X230097453Y-40786017D02*
X229697453Y-41236017D01*
X233447453Y-109786017D02*
X232547453Y-109636017D01*
X126097453Y-108856017D02*
X127377503Y-108617663D01*
D20*
X89597453Y-134736017D02*
X89547453Y-133486017D01*
D19*
X230747453Y-105236017D02*
X232821928Y-105159185D01*
X119497000Y-80069307D02*
X119681462Y-80086875D01*
X84047453Y-56686017D02*
X83697453Y-57236017D01*
D20*
X231247453Y-85386017D02*
X231297453Y-86686017D01*
D19*
X105147453Y-61886017D02*
X105947453Y-62586017D01*
X173887453Y-101256017D02*
X182147453Y-100986017D01*
X100047453Y-84036017D02*
X101917453Y-83996017D01*
X167197453Y-67286017D02*
X154547453Y-67286017D01*
X180847451Y-141536017D02*
X180547451Y-141486017D01*
X94297453Y-60036017D02*
X92747453Y-59986017D01*
X110181899Y-77040507D02*
X111970076Y-77697389D01*
X226547453Y-40436017D02*
X227097453Y-40986017D01*
X183747453Y-103186017D02*
X190247453Y-60036017D01*
X180147451Y-141136017D02*
X180147451Y-140586017D01*
X85247453Y-82086017D02*
X86447453Y-83436017D01*
X99920787Y-57301017D02*
X100147453Y-57386017D01*
X168797453Y-64036017D02*
X154547453Y-64036017D01*
X108247453Y-97236017D02*
X109247453Y-97286017D01*
X86247453Y-56136017D02*
X85647453Y-56136017D01*
X90123983Y-93628670D02*
X90408682Y-93657140D01*
X192487453Y-143906017D02*
X192487453Y-141366017D01*
X98297453Y-56536017D02*
X98453950Y-56614265D01*
X214939756Y-98918809D02*
X214047841Y-102215016D01*
X105147453Y-49286017D02*
X105497453Y-49486017D01*
X89047453Y-104236017D02*
X90297453Y-104036017D01*
X111997453Y-105086017D02*
X112294279Y-105234430D01*
X229047453Y-80786017D02*
X228747453Y-80036017D01*
D20*
X164840000Y-27278879D02*
X164870000Y-31220000D01*
D19*
X178447453Y-71286017D02*
X179047453Y-66936017D01*
D20*
X83087453Y-36056017D02*
X83087453Y-32056017D01*
D19*
X170497453Y-121236017D02*
X170397453Y-121486017D01*
X104547451Y-71336017D02*
X107147451Y-71336017D01*
X188597453Y-141536017D02*
X180847451Y-141536017D01*
X227997453Y-63086017D02*
X228047453Y-74036017D01*
D20*
X203147453Y-124036017D02*
X202747453Y-124136017D01*
D19*
X196947453Y-145686017D02*
X198597453Y-145736017D01*
X220597453Y-88786017D02*
X220009727Y-89320313D01*
X209747453Y-98436017D02*
X208647453Y-101936017D01*
X108947453Y-114386017D02*
X109947453Y-113536017D01*
X133347453Y-110136017D02*
X136447453Y-110186017D01*
X94297453Y-71296017D02*
X94297451Y-71136017D01*
X90235579Y-80649620D02*
X90297453Y-80686017D01*
X108897453Y-111136017D02*
X109297453Y-111136017D01*
X112647453Y-73086017D02*
X113397453Y-73386017D01*
X232397453Y-68586017D02*
X230747453Y-69036017D01*
X114462557Y-87412245D02*
X111369309Y-87014541D01*
X196097453Y-145586017D02*
X196947453Y-145686017D01*
X232797453Y-30386017D02*
X233497453Y-30986017D01*
X88947453Y-114186017D02*
X91786205Y-114186017D01*
X218377286Y-127788642D02*
X218047453Y-128036017D01*
X164917453Y-49036017D02*
X168147453Y-49086017D01*
X226047453Y-94236017D02*
X230747453Y-94236017D01*
X162569394Y-137121430D02*
X160921947Y-136139972D01*
X135077453Y-98686017D02*
X131697453Y-98686017D01*
X222397453Y-128936017D02*
X222747453Y-128886017D01*
X174047453Y-121606017D02*
X172497453Y-121586017D01*
X183709939Y-32785850D02*
X183697453Y-32636017D01*
D20*
X78447453Y-137336017D02*
X78497453Y-30436017D01*
D19*
X236597453Y-112586017D02*
X236497453Y-112086017D01*
X179047453Y-66936017D02*
X179247453Y-66136017D01*
X135077453Y-106306017D02*
X137300229Y-106727071D01*
X108797453Y-116986017D02*
X109447453Y-116436017D01*
X230197453Y-110336017D02*
X231147453Y-110486017D01*
X86697453Y-92436017D02*
X87097453Y-92736017D01*
D20*
X221544209Y-27236017D02*
X198344209Y-27261017D01*
X200447453Y-126786017D02*
X200313303Y-127277901D01*
D19*
X184247453Y-29686017D02*
X185547453Y-29686017D01*
X189797453Y-140186017D02*
X189747453Y-140536017D01*
X226947453Y-62786017D02*
X226647453Y-63236017D01*
D20*
X86456924Y-137321759D02*
X94297453Y-137310590D01*
D19*
X230997453Y-128836017D02*
X225797453Y-128798607D01*
X234197453Y-112486017D02*
X234297453Y-112836017D01*
X118477453Y-98696017D02*
X113547453Y-98686017D01*
X110297453Y-108786017D02*
X118477453Y-108856017D01*
X102897453Y-48586017D02*
X103274782Y-48680349D01*
X216494573Y-94886876D02*
X215324120Y-97776432D01*
X87842445Y-73655236D02*
X88179196Y-74173314D01*
X182897453Y-69886017D02*
X183147453Y-69436017D01*
X87947451Y-61636017D02*
X86897451Y-60686017D01*
X147147453Y-109686017D02*
X148497453Y-109686017D01*
X96947453Y-77586017D02*
X97797453Y-77736017D01*
X90897453Y-118536017D02*
X92347453Y-118236017D01*
D20*
X238650098Y-77437233D02*
X238765342Y-77233862D01*
D19*
X176497453Y-29286017D02*
X176897453Y-28986017D01*
X99666718Y-58869891D02*
X102401122Y-58764722D01*
X219347453Y-84036017D02*
X218147453Y-84686017D01*
X109396924Y-85466324D02*
X105625732Y-85254460D01*
X200090000Y-141350000D02*
X200090000Y-143890000D01*
D20*
X227497453Y-88436017D02*
X225697453Y-88836017D01*
D19*
X107082323Y-110247400D02*
X107347453Y-110486017D01*
X97847453Y-83486017D02*
X98647453Y-83836017D01*
X184747453Y-31236017D02*
X185297453Y-31136017D01*
X182597453Y-138936017D02*
X182847453Y-139086017D01*
X228647453Y-61836017D02*
X228297453Y-62586017D01*
X219054242Y-90317870D02*
X218747453Y-90686017D01*
X140242696Y-112450163D02*
X140511477Y-112481785D01*
X89997453Y-58786017D02*
X88947453Y-57886017D01*
X92688791Y-81389778D02*
X94297453Y-81456017D01*
X110473409Y-104368570D02*
X111797453Y-104936017D01*
D20*
X239947453Y-29936017D02*
X239938224Y-29779130D01*
D19*
X180747453Y-64486017D02*
X181047453Y-33936017D01*
X111347453Y-114736017D02*
X111997453Y-114236017D01*
X94547453Y-32936017D02*
X94547453Y-35286017D01*
X115847451Y-30536017D02*
X116208082Y-30536017D01*
X148497453Y-109686017D02*
X149297453Y-109636017D01*
X225947453Y-39286017D02*
X226147453Y-39986017D01*
X216997453Y-134836017D02*
X216715237Y-134912985D01*
X96211138Y-74623912D02*
X96397453Y-74686017D01*
X183697453Y-32636017D02*
X183897453Y-32186017D01*
X153877453Y-121536017D02*
X158807453Y-121606017D01*
D20*
X115645764Y-148530710D02*
X115597451Y-139786017D01*
D19*
X93897453Y-98836017D02*
X97197453Y-98936017D01*
X232647453Y-110836017D02*
X232997453Y-111036017D01*
X173887453Y-103796017D02*
X183747453Y-103186017D01*
X118477453Y-103776017D02*
X113547453Y-103786017D01*
X231547453Y-122936017D02*
X231697453Y-123386017D01*
X85647453Y-56136017D02*
X85047453Y-56186017D01*
D20*
X120897453Y-50886017D02*
X120547453Y-50586017D01*
D19*
X229047453Y-41836017D02*
X228847453Y-42086017D01*
X178247453Y-121236017D02*
X178197453Y-120936017D01*
X234447453Y-29586017D02*
X235097453Y-30136017D01*
X131743470Y-101190000D02*
X131697453Y-101236017D01*
X164197453Y-73786017D02*
X154547453Y-73786017D01*
X88947453Y-57886017D02*
X87997453Y-57086017D01*
X109797453Y-71086017D02*
X110647453Y-71936017D01*
X87582578Y-77714006D02*
X87599860Y-77750140D01*
X183297453Y-68786017D02*
X183497453Y-68236017D01*
X235447453Y-34736017D02*
X235497453Y-35386017D01*
D20*
X200597453Y-126386017D02*
X200447453Y-126786017D01*
D19*
X94297453Y-57496017D02*
X95347453Y-58086017D01*
D20*
X118539226Y-54872426D02*
X117883202Y-54837899D01*
D19*
X190924811Y-139060755D02*
X190697453Y-139086017D01*
X126639391Y-88677348D02*
X125992363Y-88650388D01*
X154547453Y-70536017D02*
X131797453Y-70536017D01*
X97047453Y-104036017D02*
X98347453Y-104186017D01*
X218847453Y-141886017D02*
X221047453Y-141886017D01*
X102297453Y-113036017D02*
X107047453Y-113036017D01*
X181947453Y-71086017D02*
X182747453Y-70286017D01*
X88223419Y-63821673D02*
X88664963Y-64297182D01*
X108311954Y-82713217D02*
X107049021Y-82376435D01*
X95197453Y-103986017D02*
X96047453Y-103986017D01*
X165697453Y-70536017D02*
X154547453Y-70536017D01*
X125304356Y-88597895D02*
X124747453Y-88536017D01*
X189547453Y-121336017D02*
X189047453Y-121336017D01*
D20*
X180397453Y-147386017D02*
X184297453Y-147386017D01*
D19*
X220606165Y-126949473D02*
X219697453Y-127036017D01*
X91097453Y-50836017D02*
X91405316Y-50907062D01*
X240454161Y-110853594D02*
X240659356Y-109861819D01*
X123547453Y-100836017D02*
X123897003Y-100916682D01*
X195097453Y-145186017D02*
X195547453Y-145436017D01*
X132547453Y-107486017D02*
X132835727Y-107486017D01*
X228756637Y-126048289D02*
X227003429Y-126285209D01*
X94297453Y-95086017D02*
X96097453Y-95536017D01*
D20*
X113447251Y-48604272D02*
X113410710Y-42848988D01*
D19*
X190497453Y-85286017D02*
X191747453Y-83236017D01*
X130400000Y-102400000D02*
X136200000Y-102400000D01*
X222434296Y-97271981D02*
X222229396Y-97442731D01*
D20*
X202297453Y-124386017D02*
X201597453Y-124886017D01*
D19*
X92132300Y-71965057D02*
X92235143Y-72050759D01*
X206097453Y-120186017D02*
X191647453Y-120186017D01*
X111847453Y-102486017D02*
X119547453Y-102486017D01*
D20*
X84794209Y-27361017D02*
X82344209Y-27336017D01*
D19*
X188047453Y-118786017D02*
X187897453Y-118386017D01*
X154147453Y-38786017D02*
X157297453Y-38876017D01*
X138511836Y-107777113D02*
X139051950Y-107912141D01*
X232147453Y-110686017D02*
X232647453Y-110836017D01*
X96997453Y-106136017D02*
X97156313Y-106171319D01*
X191647453Y-120186017D02*
X191697453Y-116436017D01*
X123122667Y-107297647D02*
X123772629Y-107367286D01*
X108553104Y-126033192D02*
X108383101Y-126118194D01*
X161571140Y-138950277D02*
X162918394Y-139709638D01*
X86047453Y-54076017D02*
X87047453Y-54986017D01*
X90797451Y-64836017D02*
X89697451Y-63536017D01*
D20*
X82047453Y-82836017D02*
X82247453Y-82286017D01*
D19*
X111947453Y-112186017D02*
X112797453Y-111886017D01*
X202997453Y-141436017D02*
X202347453Y-141536017D01*
X223647453Y-90436017D02*
X223747453Y-96336017D01*
D20*
X79944209Y-27861017D02*
X79594209Y-28186017D01*
D19*
X220597453Y-139936017D02*
X223110000Y-139978245D01*
X228147453Y-62886017D02*
X227997453Y-63086017D01*
X235547453Y-30836017D02*
X235997453Y-31836017D01*
X90797453Y-59386017D02*
X89997453Y-58786017D01*
X103047453Y-80136017D02*
X104397453Y-80186017D01*
X169397453Y-136836017D02*
X169747453Y-136836017D01*
X209297453Y-34936017D02*
X209383513Y-35839652D01*
D20*
X125460000Y-92509019D02*
X126047453Y-92508158D01*
D19*
X89108571Y-44849359D02*
X89823387Y-45707138D01*
X204547453Y-132286017D02*
X204547453Y-132636017D01*
X216697453Y-85836017D02*
X215747453Y-86786017D01*
D20*
X212197453Y-147348058D02*
X221047453Y-147336017D01*
D19*
X173887453Y-111416017D02*
X164197453Y-111336017D01*
X135647451Y-43986017D02*
X139047453Y-43956017D01*
X150610000Y-134930000D02*
X149323472Y-135049123D01*
X143480517Y-134687716D02*
X142958295Y-134543271D01*
X101917453Y-47336017D02*
X100647453Y-46736017D01*
X109197453Y-70336017D02*
X109797453Y-71086017D01*
X170847453Y-120786017D02*
X170647453Y-120986017D01*
X92397451Y-67086017D02*
X91497451Y-65786017D01*
X229747453Y-108936017D02*
X228597453Y-108386017D01*
X124747453Y-88536017D02*
X121695370Y-87820685D01*
X190697453Y-139086017D02*
X190297453Y-139286017D01*
X113747453Y-111786017D02*
X114747453Y-111736017D01*
X207347453Y-32586017D02*
X207870648Y-33004573D01*
X211156354Y-57537042D02*
X211497453Y-57736017D01*
X173047453Y-125486017D02*
X172697453Y-125436017D01*
D20*
X89597453Y-132936017D02*
X89747453Y-132336017D01*
D19*
X107851502Y-110808447D02*
X107897453Y-110836017D01*
X124697451Y-38236017D02*
X125147451Y-38486017D01*
X105947453Y-62586017D02*
X106897453Y-63836017D01*
X240887353Y-104713327D02*
X240822702Y-102967733D01*
X218726020Y-106290762D02*
X218814768Y-106616171D01*
X94297451Y-71136017D02*
X93697451Y-69636017D01*
X110893734Y-75185645D02*
X110897453Y-75186017D01*
X145935385Y-105416100D02*
X146409648Y-105317977D01*
X124747453Y-110136017D02*
X126747453Y-110086017D01*
X220897453Y-129486017D02*
X221347453Y-129286017D01*
X137297453Y-113136017D02*
X137747453Y-113636017D01*
X170347453Y-129436017D02*
X170447453Y-129786017D01*
X113297453Y-113386017D02*
X113747453Y-113186017D01*
D20*
X200197453Y-127686017D02*
X200107453Y-128666017D01*
D19*
X236697453Y-137436017D02*
X228147453Y-137386017D01*
D20*
X81797453Y-133036017D02*
X81847453Y-134736017D01*
D19*
X96497453Y-100886017D02*
X98197453Y-101186017D01*
X225947453Y-44286017D02*
X226047453Y-47036017D01*
X126097453Y-101236017D02*
X130847453Y-97486017D01*
X90533750Y-56101707D02*
X90997453Y-56186017D01*
D20*
X91761624Y-30966112D02*
X92247453Y-31236017D01*
D19*
X121047453Y-107686017D02*
X121538524Y-107826323D01*
D20*
X101497453Y-132636017D02*
X101217453Y-132956017D01*
D19*
X230747453Y-83236017D02*
X229047453Y-80786017D01*
X106384992Y-86685378D02*
X104604644Y-86594078D01*
X170647453Y-130086017D02*
X170847453Y-130286017D01*
X235347453Y-66136017D02*
X234647453Y-66836017D01*
X120397453Y-110136017D02*
X120747453Y-110236017D01*
X84847453Y-97926017D02*
X88047453Y-98386017D01*
X98947453Y-116536017D02*
X99347453Y-116636017D01*
X124297453Y-113886017D02*
X126097453Y-113936017D01*
X127847453Y-111136017D02*
X131297453Y-110536017D01*
X105497453Y-126986017D02*
X100042904Y-127035604D01*
X125047209Y-101114835D02*
X126097453Y-101236017D01*
D20*
X238397453Y-27186017D02*
X221544209Y-27236017D01*
X83797453Y-66886017D02*
X83697453Y-66036017D01*
X92878565Y-31684351D02*
X94547453Y-32936017D01*
D19*
X139637911Y-108077740D02*
X140283174Y-108281508D01*
X120047453Y-105036017D02*
X120455420Y-105138009D01*
X93247453Y-42336017D02*
X92047453Y-40086017D01*
X112797453Y-111886017D02*
X113747453Y-111786017D01*
X223897453Y-109186017D02*
X224547453Y-109486017D01*
X184497453Y-134290817D02*
X187797453Y-134286017D01*
D20*
X239747453Y-75086017D02*
X239897453Y-74286017D01*
D19*
X150165090Y-129762886D02*
X150835131Y-129654231D01*
X157297453Y-33796017D02*
X157297453Y-31256017D01*
X118477453Y-111396017D02*
X121397453Y-112186017D01*
X116647453Y-111736017D02*
X117247453Y-111686017D01*
X94297453Y-107786017D02*
X91197453Y-108686017D01*
X92297453Y-82736017D02*
X92897453Y-82786017D01*
X98747453Y-114536017D02*
X99602472Y-114806023D01*
X228147453Y-137386017D02*
X228197453Y-133486017D01*
X137394761Y-106744508D02*
X139199872Y-107068503D01*
X124258967Y-108628320D02*
X124280462Y-108632619D01*
D20*
X83047453Y-50076017D02*
X83087453Y-44056017D01*
D19*
X191097453Y-130586017D02*
X192487453Y-131206017D01*
X113968569Y-126914369D02*
X112438571Y-127046265D01*
X91447453Y-59736017D02*
X90797453Y-59386017D01*
X112195814Y-69231919D02*
X112697453Y-69586017D01*
D20*
X113447453Y-49068292D02*
X113447453Y-48667763D01*
D19*
X154547453Y-64036017D02*
X113297453Y-64036017D01*
X226047453Y-57836017D02*
X226097334Y-61577070D01*
X97398418Y-58693932D02*
X97797453Y-58786017D01*
X200820680Y-141456501D02*
X200107453Y-141366017D01*
X88047453Y-98386017D02*
X91297453Y-98736017D01*
D20*
X120047453Y-49036017D02*
X113447453Y-49068292D01*
X104547453Y-92536017D02*
X107047453Y-92536017D01*
D19*
X89547453Y-108986017D02*
X87497453Y-109136017D01*
X114157940Y-70292873D02*
X114397453Y-70386017D01*
X107856719Y-103395154D02*
X108168842Y-103478387D01*
X236635001Y-92051301D02*
X236021368Y-91197551D01*
D20*
X83087453Y-40056017D02*
X83087453Y-36056017D01*
D19*
X114347453Y-105636017D02*
X114770889Y-105447823D01*
D20*
X99897453Y-132786017D02*
X100170339Y-132813306D01*
D19*
X190247453Y-60036017D02*
X191947453Y-57836017D01*
X240847453Y-108586017D02*
X240847453Y-107923730D01*
X218147453Y-84686017D02*
X217647453Y-85086017D01*
D20*
X100623294Y-132869067D02*
X101217453Y-132956017D01*
D19*
X209997453Y-32186017D02*
X210297453Y-32686017D01*
X91297453Y-98736017D02*
X93897453Y-98836017D01*
X90647453Y-86036017D02*
X91747453Y-86386017D01*
X98547453Y-119786017D02*
X99447453Y-120136017D01*
D20*
X236047453Y-80736017D02*
X237071494Y-79572334D01*
D19*
X92600604Y-72244060D02*
X92684197Y-72267944D01*
D20*
X157297453Y-51186017D02*
X157297453Y-49036017D01*
X96603478Y-130938948D02*
X96947453Y-131236017D01*
X99247453Y-132636017D02*
X99597453Y-132736017D01*
D19*
X118477453Y-108856017D02*
X123547453Y-109986017D01*
X112697453Y-69586017D02*
X112879790Y-69688582D01*
X165647453Y-108836017D02*
X165697453Y-70536017D01*
X87325847Y-62914411D02*
X87966552Y-63555116D01*
X230697453Y-39686017D02*
X230597453Y-40036017D01*
X126097453Y-103776017D02*
X130247453Y-99936017D01*
X142516720Y-107550123D02*
X143132946Y-107601475D01*
X92547453Y-123236017D02*
X94297453Y-123206017D01*
X214247453Y-88686017D02*
X213347453Y-90086017D01*
X109683099Y-66828774D02*
X109997453Y-67286017D01*
X96113356Y-105813125D02*
X96523305Y-105959536D01*
X176047453Y-119036017D02*
X177497453Y-119086017D01*
X154147453Y-36286017D02*
X157297453Y-36336017D01*
X222147453Y-32886017D02*
X222747453Y-32086017D01*
X98747453Y-99086017D02*
X99597453Y-99236017D01*
D20*
X81897453Y-83836017D02*
X81947453Y-83286017D01*
D19*
X175797453Y-52986017D02*
X175797453Y-44286017D01*
D20*
X117897453Y-147386017D02*
X117797453Y-137286017D01*
D19*
X189047453Y-121336017D02*
X188647453Y-121236017D01*
X194847453Y-144836017D02*
X195097453Y-145186017D01*
X193597453Y-125286017D02*
X198247453Y-131236017D01*
X96747453Y-114336017D02*
X96753557Y-114336017D01*
X217697453Y-129186017D02*
X217697453Y-133936017D01*
X192487453Y-136286017D02*
X192487453Y-133746017D01*
X87447453Y-92936017D02*
X87545082Y-92976696D01*
X114047453Y-97436017D02*
X116347453Y-97436017D01*
X218747453Y-103486017D02*
X218679404Y-104642849D01*
X90197453Y-124136017D02*
X91497453Y-123436017D01*
D20*
X98897453Y-132486017D02*
X99247453Y-132636017D01*
D19*
X231497453Y-124836017D02*
X231197453Y-125286017D01*
X88597029Y-49555155D02*
X88695502Y-49626274D01*
D20*
X81144209Y-27411017D02*
X80419209Y-27586017D01*
D19*
X116361256Y-99887422D02*
X119237937Y-99922937D01*
D20*
X81847453Y-134736017D02*
X89597453Y-134736017D01*
D19*
X230997453Y-28586017D02*
X231897453Y-28636017D01*
X126587326Y-85681814D02*
X121991231Y-85589893D01*
X130397453Y-94586017D02*
X136497453Y-94636017D01*
X93943281Y-77586017D02*
X96947453Y-77586017D01*
D20*
X113447451Y-32936017D02*
X113410710Y-42848988D01*
D19*
X85797453Y-131686017D02*
X87647453Y-129436017D01*
X157297453Y-31256017D02*
X154097451Y-31236017D01*
X231597453Y-109486017D02*
X230647453Y-109236017D01*
X102897453Y-96386017D02*
X105197453Y-96486017D01*
X130674303Y-107869206D02*
X132197453Y-107536017D01*
X231747453Y-123836017D02*
X231697453Y-124086017D01*
X99447453Y-120136017D02*
X100197453Y-120436017D01*
X98154054Y-85006263D02*
X98207617Y-85014504D01*
X118477453Y-106316017D02*
X121983183Y-107108467D01*
X98104707Y-53663097D02*
X98275471Y-53681072D01*
X231897453Y-128586017D02*
X231347453Y-128786017D01*
X132197453Y-107536017D02*
X132547453Y-107486017D01*
X235497453Y-35386017D02*
X235597453Y-36886017D01*
X87284494Y-42148702D02*
X87695129Y-42843622D01*
D20*
X90547453Y-30386017D02*
X90913383Y-30546111D01*
D19*
X86907453Y-80166017D02*
X87797453Y-80936017D01*
D20*
X81777453Y-107326017D02*
X81777453Y-103326017D01*
X139010000Y-27304240D02*
X127340000Y-27334048D01*
X212047453Y-139636017D02*
X212147453Y-139986017D01*
D19*
X113783101Y-107317035D02*
X113922957Y-107350793D01*
X205147453Y-135236017D02*
X204947453Y-135486017D01*
X230647453Y-62436017D02*
X230697453Y-61736017D01*
X232997453Y-127786017D02*
X232697453Y-128036017D01*
X176394744Y-90624828D02*
X176495845Y-90509284D01*
X115547453Y-79286017D02*
X116164099Y-79462201D01*
X88514666Y-88093189D02*
X89531186Y-88516739D01*
D20*
X86469209Y-27361017D02*
X84794209Y-27361017D01*
D19*
X153877453Y-98676017D02*
X158647453Y-98716017D01*
X103497453Y-60886017D02*
X105147453Y-61886017D01*
X132818963Y-106370126D02*
X133197453Y-106286017D01*
X235547453Y-105486017D02*
X235847453Y-105586017D01*
X231897453Y-28636017D02*
X232697453Y-28836017D01*
X110497453Y-97336017D02*
X111597453Y-97386017D01*
X229230412Y-119788120D02*
X229786692Y-120472773D01*
X187297453Y-110586017D02*
X191747453Y-94236017D01*
D20*
X115330486Y-54138620D02*
X114897453Y-53886017D01*
D19*
X183497453Y-68236017D02*
X183744226Y-33687732D01*
D20*
X235654849Y-81021547D02*
X236047453Y-80736017D01*
X229797453Y-87736017D02*
X227497453Y-88436017D01*
D19*
X117540442Y-85107979D02*
X115297836Y-84707514D01*
X195547453Y-145436017D02*
X196097453Y-145586017D01*
X165327945Y-138417434D02*
X163660060Y-137683565D01*
X158647453Y-91096017D02*
X137104660Y-91086043D01*
D20*
X92647453Y-129386017D02*
X94297453Y-128286017D01*
D19*
X205397453Y-133836017D02*
X205483266Y-133836017D01*
X217747453Y-128786017D02*
X217697453Y-129186017D01*
X116197453Y-112636017D02*
X120047453Y-112686017D01*
X88434216Y-114267054D02*
X88947453Y-114186017D01*
D20*
X239897460Y-73430270D02*
X239947453Y-29936017D01*
D19*
X92108618Y-114191216D02*
X93486347Y-114235659D01*
X90947453Y-73286017D02*
X91547453Y-74086017D01*
X105147453Y-59236017D02*
X105747453Y-59736017D01*
X98347453Y-104186017D02*
X99097453Y-104386017D01*
X85047453Y-56186017D02*
X84447453Y-56386017D01*
X92847453Y-75386017D02*
X94297453Y-76376017D01*
D20*
X81777453Y-111326017D02*
X81777453Y-109236017D01*
D19*
X229597453Y-64436017D02*
X229847453Y-64086017D01*
X148797453Y-96136017D02*
X158647453Y-96176017D01*
X89247453Y-75586017D02*
X89409222Y-75730758D01*
X106259249Y-76358629D02*
X106576089Y-76378432D01*
X178397453Y-72336017D02*
X178347453Y-71886017D01*
X116297451Y-33786017D02*
X120047453Y-33796017D01*
X220647453Y-110686017D02*
X225997453Y-111186017D01*
X223847453Y-75586017D02*
X223847453Y-75936017D01*
X85947453Y-105886017D02*
X86547453Y-105336017D01*
X94297453Y-100166017D02*
X96497453Y-100886017D01*
X235097453Y-110386017D02*
X234347453Y-110036017D01*
X108197453Y-68336017D02*
X108697453Y-69536017D01*
X233497453Y-30986017D02*
X234297453Y-31786017D01*
X108897453Y-76636017D02*
X109607202Y-76848942D01*
X106577111Y-58428507D02*
X108184668Y-60150890D01*
X154147453Y-41286017D02*
X157297453Y-41416017D01*
D20*
X89747453Y-132336017D02*
X90147453Y-131636017D01*
D19*
X101917453Y-60036017D02*
X103497453Y-60886017D01*
X111747453Y-106686017D02*
X112422167Y-106910922D01*
D20*
X217724792Y-99449981D02*
X218799975Y-97151315D01*
D19*
X174047453Y-134306017D02*
X184497453Y-134290817D01*
X89447453Y-50136017D02*
X90147573Y-50442319D01*
X225674001Y-126456331D02*
X224415252Y-126570763D01*
X105097453Y-116636017D02*
X105797453Y-116436017D01*
X227747453Y-109936017D02*
X229197453Y-110136017D01*
X99204141Y-106486017D02*
X108003123Y-106486017D01*
X154147453Y-43886017D02*
X157297453Y-43956017D01*
D20*
X146590000Y-27286017D02*
X146144209Y-27286017D01*
D19*
X110160985Y-62644962D02*
X111300773Y-64240665D01*
X92197453Y-77436017D02*
X92459876Y-77475381D01*
X130797453Y-36386017D02*
X127667453Y-36336017D01*
D20*
X175797453Y-64436017D02*
X175797453Y-54936017D01*
D19*
X237935583Y-94227008D02*
X237211707Y-92951607D01*
D20*
X113653744Y-137688115D02*
X113347451Y-137586017D01*
D19*
X196647453Y-69036017D02*
X196647453Y-63236017D01*
X226097453Y-87086017D02*
X225509652Y-87105610D01*
X111203282Y-110657301D02*
X111597453Y-110536017D01*
X99347453Y-116636017D02*
X99897453Y-116736017D01*
X235097453Y-30136017D02*
X235547453Y-30836017D01*
X217997453Y-137736017D02*
X218347453Y-138286017D01*
X194597453Y-143986017D02*
X194647453Y-144486017D01*
D20*
X81797453Y-133036017D02*
X81797453Y-129036017D01*
D19*
X108812454Y-65159353D02*
X109047453Y-65786017D01*
X222997453Y-87486017D02*
X222467299Y-87726996D01*
X219697453Y-127036017D02*
X219247453Y-127136017D01*
X154147453Y-46386017D02*
X157297453Y-46496017D01*
X99553204Y-85231592D02*
X99097453Y-85186017D01*
X114297451Y-42436017D02*
X114347451Y-32186017D01*
X126097453Y-113936017D02*
X127829394Y-113655162D01*
D20*
X202747453Y-124136017D02*
X202297453Y-124386017D01*
X115997451Y-150136017D02*
X115697451Y-149586017D01*
D19*
X95797453Y-119386017D02*
X97247453Y-119486017D01*
X103297453Y-53786017D02*
X104047453Y-53986017D01*
D20*
X90147453Y-131636017D02*
X90497453Y-131136017D01*
D19*
X98497453Y-96086017D02*
X100197453Y-96236017D01*
X91948211Y-93737616D02*
X97783002Y-93921389D01*
X110597453Y-115386017D02*
X111347453Y-114736017D01*
X106342553Y-60502251D02*
X106940057Y-61232533D01*
X170447453Y-60836017D02*
X154547453Y-60786017D01*
X222747453Y-32086017D02*
X223697453Y-31186017D01*
X108597453Y-111086017D02*
X108897453Y-111136017D01*
X209347453Y-116936017D02*
X209197453Y-119186017D01*
X234070983Y-105191034D02*
X234447453Y-105236017D01*
X145997453Y-109586017D02*
X147147453Y-109686017D01*
X209947453Y-56136017D02*
X210147453Y-56636017D01*
X101247453Y-96236017D02*
X102897453Y-96386017D01*
X153877453Y-116456017D02*
X149716770Y-116275830D01*
X225997453Y-64186017D02*
X226047453Y-69036017D01*
X208997453Y-121386017D02*
X189547453Y-121336017D01*
X169747453Y-136836017D02*
X173887453Y-136816017D01*
X225636407Y-62593381D02*
X225061197Y-62976855D01*
X179547453Y-119436017D02*
X180147453Y-119686017D01*
X100197453Y-120436017D02*
X100547453Y-120536017D01*
X91197453Y-108686017D02*
X89547453Y-108986017D01*
D20*
X78969209Y-28811017D02*
X78794209Y-29136017D01*
D19*
X123335573Y-111274669D02*
X123697453Y-111386017D01*
X234847453Y-40186017D02*
X234347453Y-41186017D01*
X153877453Y-118996017D02*
X158807453Y-119066017D01*
X87297453Y-48436017D02*
X87380867Y-48519431D01*
X228747453Y-65086017D02*
X229597453Y-64436017D01*
X109997453Y-67286017D02*
X110594962Y-67883526D01*
X107280013Y-51029355D02*
X113297453Y-57536017D01*
X88324412Y-88013158D02*
X88480267Y-88078781D01*
D20*
X216611266Y-112701642D02*
X216431622Y-111703619D01*
D19*
X164114617Y-140282883D02*
X166445322Y-141215165D01*
X167197453Y-106236017D02*
X167197453Y-67286017D01*
X178547453Y-28486017D02*
X230997453Y-28586017D01*
X86547453Y-105336017D02*
X87197453Y-104936017D01*
X230917453Y-138706017D02*
X233497453Y-138736017D01*
X100147453Y-57386017D02*
X101917453Y-57496017D01*
D20*
X78794209Y-29136017D02*
X78669209Y-29536017D01*
D19*
X153877453Y-98676017D02*
X142697453Y-98686017D01*
X171347453Y-120436017D02*
X171097453Y-120586017D01*
X206997453Y-129886017D02*
X207797453Y-131206017D01*
D20*
X139047453Y-51160277D02*
X157297453Y-51186017D01*
X236347453Y-151186017D02*
X118340948Y-151036326D01*
D19*
X113938101Y-110135687D02*
X120047453Y-110086017D01*
X123547453Y-109986017D02*
X124747453Y-110136017D01*
X230697453Y-61736017D02*
X230797453Y-60836017D01*
X101917453Y-118126017D02*
X104497453Y-118136017D01*
X230917453Y-141246017D02*
X236697453Y-141236017D01*
X101917453Y-102706017D02*
X104592040Y-102852793D01*
X205897453Y-134986017D02*
X205547453Y-135086017D01*
X179547453Y-65486017D02*
X179947453Y-64986017D01*
X108697453Y-69536017D02*
X109197453Y-70336017D01*
X234097453Y-126186017D02*
X233897453Y-126636017D01*
X114897451Y-43486017D02*
X114647451Y-43236017D01*
X86243898Y-91897420D02*
X86697453Y-92436017D01*
X91147453Y-44486017D02*
X90797453Y-43886017D01*
X121397453Y-112186017D02*
X122947453Y-112636017D01*
X226397453Y-109786017D02*
X227747453Y-109936017D01*
X182747453Y-70286017D02*
X182897453Y-69886017D01*
X140835634Y-133684116D02*
X139486861Y-132948421D01*
X234797453Y-105286017D02*
X235197453Y-105386017D01*
D20*
X175797453Y-71686017D02*
X175797453Y-64436017D01*
D19*
X129593810Y-90796656D02*
X127605185Y-90538871D01*
X96947453Y-79736017D02*
X97897453Y-79886017D01*
D20*
X105197453Y-131586017D02*
X103097453Y-131636017D01*
X94297453Y-137310590D02*
X111547453Y-137286017D01*
D19*
X144726979Y-112881922D02*
X144913913Y-112919309D01*
X164917453Y-33796017D02*
X168047453Y-33836017D01*
X88806327Y-64491990D02*
X89192523Y-65187143D01*
X141645372Y-108642176D02*
X142697453Y-108846017D01*
X182947453Y-29936017D02*
X183447453Y-29786017D01*
X147847453Y-126686017D02*
X116873285Y-126835651D01*
X140583397Y-112490510D02*
X141224969Y-112570706D01*
X156283550Y-133075530D02*
X154430833Y-133898959D01*
X108397453Y-117286017D02*
X108797453Y-116986017D01*
X117800000Y-117550000D02*
X133100000Y-115200000D01*
X227097453Y-40986017D02*
X227547453Y-41336017D01*
D20*
X237221408Y-79397976D02*
X237606926Y-78939025D01*
D19*
X124647453Y-98436017D02*
X126097453Y-98696017D01*
X228047453Y-74036017D02*
X225497453Y-74036017D01*
X218674624Y-105729445D02*
X218692031Y-106077582D01*
X99664819Y-51852859D02*
X101917453Y-52416017D01*
X231147453Y-110486017D02*
X232147453Y-110686017D01*
D20*
X83907453Y-68166017D02*
X83797453Y-66886017D01*
D19*
X107002295Y-99409845D02*
X107478350Y-99518039D01*
X236347453Y-111636017D02*
X236047453Y-111136017D01*
X135077453Y-103766017D02*
X131697453Y-103786017D01*
X234447453Y-105236017D02*
X234797453Y-105286017D01*
X236147453Y-64936017D02*
X235747453Y-65636017D01*
D20*
X83597453Y-65286017D02*
X83447453Y-64536017D01*
D19*
X105797453Y-116436017D02*
X106847453Y-115936017D01*
X226647453Y-63236017D02*
X226197453Y-63886017D01*
D20*
X141147453Y-92486017D02*
X141247453Y-96136017D01*
D19*
X107347453Y-110486017D02*
X107449458Y-110554020D01*
X114347451Y-42736017D02*
X114297451Y-42436017D01*
X97397453Y-126836017D02*
X94297453Y-125746017D01*
X110074334Y-125198861D02*
X108937397Y-125830492D01*
X171097453Y-120586017D02*
X170847453Y-120786017D01*
X115396515Y-87560861D02*
X114831334Y-87466664D01*
X203297453Y-131186017D02*
X203797453Y-131236017D01*
X91247453Y-77036017D02*
X92197453Y-77436017D01*
X184447453Y-136836017D02*
X184497453Y-134290817D01*
X239700280Y-113826405D02*
X240072293Y-112561562D01*
X206897453Y-109686017D02*
X206647453Y-111736017D01*
X177347453Y-28786017D02*
X177997453Y-28586017D01*
D20*
X115247451Y-138736017D02*
X114947451Y-138386017D01*
X127340000Y-27334048D02*
X126569209Y-27336017D01*
D19*
X200107453Y-138826017D02*
X200107453Y-136286017D01*
X230147453Y-125836017D02*
X228938030Y-126022082D01*
X229247453Y-41636017D02*
X229047453Y-41836017D01*
X173259174Y-140180480D02*
X172124835Y-140147117D01*
X101171006Y-72849334D02*
X101917453Y-73836017D01*
X96897453Y-82936017D02*
X97497453Y-83236017D01*
X152892924Y-105633856D02*
X153877453Y-106296017D01*
X91110251Y-69692184D02*
X91275189Y-70139873D01*
X106210891Y-99214376D02*
X106793149Y-99359941D01*
X234647453Y-66836017D02*
X233847453Y-67486017D01*
X127667453Y-49036017D02*
X130797453Y-49036017D01*
X220706466Y-98987251D02*
X220347453Y-99436017D01*
D20*
X114897453Y-53886017D02*
X114646450Y-53563299D01*
D19*
X92647453Y-86536017D02*
X94297453Y-86536017D01*
X118477453Y-101236017D02*
X113547453Y-101236017D01*
X112697453Y-119086017D02*
X111847453Y-119236017D01*
X105497453Y-49486017D02*
X105841023Y-49739174D01*
X130866358Y-113117724D02*
X131967753Y-112948279D01*
X230197453Y-63686017D02*
X230447453Y-63086017D01*
X215417453Y-136286017D02*
X217797453Y-136236017D01*
D20*
X116397451Y-150686017D02*
X115997451Y-150136017D01*
D19*
X100547453Y-120536017D02*
X101917453Y-120666017D01*
X98875137Y-51666060D02*
X99529860Y-51820113D01*
D20*
X164840000Y-27278879D02*
X158744209Y-27286017D01*
X80419209Y-27586017D02*
X79944209Y-27861017D01*
D19*
X109597453Y-111086017D02*
X110044834Y-110964004D01*
D20*
X215647453Y-125236017D02*
X216247453Y-124736017D01*
D19*
X87497453Y-109136017D02*
X85347453Y-109186017D01*
X221847453Y-129086017D02*
X222397453Y-128936017D01*
X226991478Y-126286832D02*
X226119770Y-126405701D01*
X221347453Y-129286017D02*
X221847453Y-129086017D01*
D20*
X223297453Y-143786017D02*
X223297453Y-147317574D01*
D19*
X173887453Y-98716017D02*
X180897453Y-98386017D01*
X215897453Y-90036017D02*
X214897453Y-91536017D01*
D20*
X207847453Y-147353976D02*
X212197453Y-147348058D01*
D19*
X116596209Y-105036017D02*
X120047453Y-105036017D01*
X106247453Y-96686017D02*
X107097453Y-96936017D01*
X178497453Y-72836017D02*
X178397453Y-72336017D01*
X179797451Y-140186017D02*
X179497451Y-140136017D01*
X99847453Y-78686017D02*
X100254592Y-78719945D01*
X164917453Y-49036017D02*
X164917453Y-46496017D01*
X100147453Y-99436017D02*
X100697453Y-99686017D01*
X200647453Y-145736017D02*
X201197453Y-145686017D01*
X87842445Y-73655236D02*
G75*
G02*
X87753611Y-73516066I8383355J5449136D01*
G01*
X108120544Y-76525030D02*
G75*
G03*
X107572626Y-76462121I-1414044J-9898270D01*
G01*
X108296766Y-120709057D02*
G75*
G02*
X108398393Y-120663543I4147534J-9124743D01*
G01*
X91427850Y-70528969D02*
G75*
G02*
X91275188Y-70139873I9232750J3846969D01*
G01*
X112438571Y-127046265D02*
G75*
G03*
X110397383Y-127439074I858929J-9963135D01*
G01*
X115801013Y-86342528D02*
G75*
G02*
X116291409Y-86441776I-1738113J-9849372D01*
G01*
X111391289Y-106632592D02*
G75*
G03*
X110096530Y-106523735I-1483389J-9889208D01*
G01*
X97850755Y-121366788D02*
G75*
G03*
X97944342Y-121404773I3830745J9303788D01*
G01*
X104892657Y-108590758D02*
G75*
G02*
X105198686Y-108786837I-5242057J-8518342D01*
G01*
D20*
X100623294Y-132869067D02*
G75*
G03*
X100170339Y-132813305I-1447894J-9893733D01*
G01*
D19*
X94913981Y-114284863D02*
G75*
G03*
X94980932Y-114286947I344919J10005763D01*
G01*
X108553104Y-126033192D02*
G75*
G03*
X108937397Y-125830491I-4470504J8941092D01*
G01*
X230218931Y-121001157D02*
G75*
G03*
X230276288Y-121070619I7703069J6302257D01*
G01*
X225061197Y-62976855D02*
G75*
G02*
X225031497Y-62990288I-55497J83155D01*
G01*
X96113356Y-105813125D02*
G75*
G03*
X95678244Y-105668883I-3363256J-9416975D01*
G01*
X102947917Y-53747180D02*
G75*
G03*
X101843602Y-53686019I-1104317J-9939120D01*
G01*
X108383101Y-126118194D02*
G75*
G02*
X107073249Y-126660758I-4472101J8944094D01*
G01*
D20*
X113536696Y-50487941D02*
G75*
G03*
X113741715Y-51770747I9956304J933441D01*
G01*
D19*
X110095737Y-85530244D02*
G75*
G03*
X109396924Y-85466324I-1259837J-9921356D01*
G01*
X88223419Y-63821673D02*
G75*
G03*
X87966553Y-63555115I-7328619J-6805127D01*
G01*
X225978743Y-62207400D02*
G75*
G03*
X226002103Y-62157987I-75243J65800D01*
G01*
X121258727Y-110462277D02*
G75*
G02*
X121136535Y-110408942I3940773J9194977D01*
G01*
X98154054Y-85006263D02*
G75*
G02*
X97249273Y-84823975I1520646J9884263D01*
G01*
X92423827Y-48510678D02*
G75*
G02*
X91347960Y-47481022I6356873J7719078D01*
G01*
X116208082Y-30536017D02*
G75*
G02*
X116286820Y-30536327I218J-9935683D01*
G01*
X122399998Y-105620199D02*
G75*
G03*
X121277262Y-105317227I-3162298J-9486901D01*
G01*
X152650324Y-134524013D02*
G75*
G02*
X150601641Y-134932842I-2970624J9548613D01*
G01*
X115601172Y-105085645D02*
G75*
G02*
X116596209Y-105036019I995028J-9950655D01*
G01*
D20*
X113447453Y-49068292D02*
G75*
G03*
X113491112Y-50001699I9999547J-8D01*
G01*
D19*
X98620602Y-51602635D02*
G75*
G03*
X98875137Y-51666061I2545698J9673735D01*
G01*
X204565880Y-31360659D02*
G75*
G02*
X205223141Y-31533727I-2216280J-9751341D01*
G01*
X88597029Y-49555155D02*
G75*
G02*
X87380868Y-48519430I5854971J8106855D01*
G01*
D20*
X115660531Y-54339794D02*
G75*
G03*
X115330487Y-54138619I-5367631J-8434706D01*
G01*
D19*
X92132300Y-71965057D02*
G75*
G02*
X92065381Y-71903939I640100J768057D01*
G01*
X111203282Y-110657301D02*
G75*
G02*
X110687779Y-110800934I-2940682J9557301D01*
G01*
X107856719Y-103395154D02*
G75*
G03*
X107030424Y-103211882I-2576419J-9661646D01*
G01*
X90987414Y-93698099D02*
G75*
G02*
X90408682Y-93657142I416186J9990099D01*
G01*
X92235143Y-72050759D02*
G75*
G03*
X92600608Y-72244044I640157J768259D01*
G01*
X138511836Y-107777113D02*
G75*
G03*
X138181771Y-107700513I-2424736J-9698587D01*
G01*
X224284441Y-63186041D02*
G75*
G03*
X224310028Y-63182673I-141J99941D01*
G01*
X114157940Y-70292873D02*
G75*
G02*
X112879792Y-69688578I3624460J9319973D01*
G01*
X168999726Y-141972340D02*
G75*
G03*
X170619426Y-142265928I2587374J9659640D01*
G01*
X105921679Y-128660535D02*
G75*
G02*
X105670797Y-128679695I-200979J979535D01*
G01*
X86524999Y-87035364D02*
G75*
G02*
X86370828Y-86935253I5369901J8438464D01*
G01*
X88743498Y-55706751D02*
G75*
G02*
X87112378Y-55020389I3047802J9524351D01*
G01*
X89276137Y-93507020D02*
G75*
G03*
X90123983Y-93628672I1842863J9828420D01*
G01*
X240284444Y-111701060D02*
G75*
G02*
X240072297Y-112561563I-9806044J1961160D01*
G01*
X111887944Y-124392058D02*
G75*
G02*
X112814902Y-124223691I2248656J-9744242D01*
G01*
X113968569Y-126914369D02*
G75*
G02*
X114627492Y-126879418I858831J-9962731D01*
G01*
X215324120Y-97776432D02*
G75*
G03*
X214939751Y-98918808I9268480J-3754368D01*
G01*
X112455569Y-110320167D02*
G75*
G03*
X112339532Y-110352566I2635931J-9664433D01*
G01*
X147900840Y-116029106D02*
G75*
G03*
X149716770Y-116275821I2248560J9744006D01*
G01*
X99322319Y-53736017D02*
G75*
G02*
X98275471Y-53681075I-19J10000317D01*
G01*
X111369309Y-87014541D02*
G75*
G03*
X110924544Y-86967442I-1275109J-9917659D01*
G01*
X162569394Y-137121430D02*
G75*
G03*
X163660060Y-137683565I5117906J8590730D01*
G01*
X124171733Y-89826509D02*
G75*
G03*
X124625703Y-89934930I2549567J9670709D01*
G01*
X100042904Y-127035604D02*
G75*
G02*
X99951999Y-127036017I-90804J9980104D01*
G01*
X116329637Y-76647091D02*
G75*
G03*
X117377156Y-76868779I2591263J9658491D01*
G01*
D20*
X114646450Y-53563299D02*
G75*
G02*
X114452611Y-53305610I7894150J6139899D01*
G01*
D19*
X107645238Y-121005206D02*
G75*
G02*
X106835414Y-121331446I-4137838J9103106D01*
G01*
X99529860Y-51820113D02*
G75*
G02*
X99664819Y-51852858I-2293860J-9748587D01*
G01*
X108075331Y-57798324D02*
G75*
G03*
X107812980Y-57479132I-7855731J-6189376D01*
G01*
X173821291Y-142541186D02*
G75*
G02*
X172975573Y-142494997I122009J9999586D01*
G01*
D20*
X114344241Y-137919438D02*
G75*
G02*
X114933703Y-138374560I-5812641J-8137662D01*
G01*
D19*
X89192523Y-65187143D02*
G75*
G02*
X89300133Y-65386108I-8741223J-4856257D01*
G01*
X107009399Y-50747963D02*
G75*
G02*
X107280014Y-51029354I-7068499J-7068637D01*
G01*
X152577375Y-105493497D02*
G75*
G02*
X152892914Y-105633871I-242575J-970103D01*
G01*
X95995066Y-48284932D02*
G75*
G02*
X94933627Y-47723251I4138134J9103832D01*
G01*
X91712992Y-71282633D02*
G75*
G03*
X91456929Y-70598757I-9486292J-3162067D01*
G01*
D20*
X238968549Y-27425528D02*
G75*
G03*
X238459175Y-27194860I-650749J-759272D01*
G01*
D19*
X150349199Y-105127085D02*
G75*
G03*
X149443844Y-105086021I-905299J-9958615D01*
G01*
X106576089Y-76378432D02*
G75*
G02*
X106818596Y-76396550I-624389J-9989468D01*
G01*
X97347133Y-56280985D02*
G75*
G03*
X96445550Y-56231791I-995033J-9949815D01*
G01*
X85907052Y-114914620D02*
G75*
G02*
X86903783Y-114609434I3422048J-9396080D01*
G01*
X98736788Y-48617734D02*
G75*
G02*
X97659283Y-48596153I-338788J9994734D01*
G01*
X216494573Y-94886876D02*
G75*
G02*
X216953120Y-93909934I9268827J-3754424D01*
G01*
X87211328Y-42022799D02*
G75*
G03*
X87284494Y-42148702I8682172J4961299D01*
G01*
X127986627Y-113628699D02*
G75*
G03*
X128065205Y-113614990I-1674927J9832399D01*
G01*
X221661507Y-97952202D02*
G75*
G03*
X220706469Y-98987253I6853793J-7282098D01*
G01*
X213514073Y-104871111D02*
G75*
G03*
X213358410Y-106110665I9825127J-1863389D01*
G01*
X106155886Y-60266980D02*
G75*
G03*
X106342552Y-60502252I7926414J6097180D01*
G01*
D20*
X216431622Y-111703619D02*
G75*
G02*
X216308000Y-110762541I9841978J1771519D01*
G01*
D19*
X229061837Y-119586131D02*
G75*
G02*
X229230413Y-119788119I-7590637J-6506369D01*
G01*
X210648062Y-57219756D02*
G75*
G03*
X211156353Y-57537043I5546938J8320356D01*
G01*
X171371978Y-140096494D02*
G75*
G03*
X172124835Y-140147115I1046822J9944994D01*
G01*
X169557725Y-139784349D02*
G75*
G03*
X170344091Y-139956010I2524275J9676549D01*
G01*
X144615897Y-107636017D02*
G75*
G03*
X144878964Y-107632555I3J9996117D01*
G01*
X95525827Y-51179530D02*
G75*
G02*
X96367036Y-51227977I-153827J-9998270D01*
G01*
X221777593Y-97842944D02*
G75*
G02*
X222229395Y-97442729I6853307J-7281556D01*
G01*
X176394744Y-90624828D02*
G75*
G02*
X176172170Y-90814328I-752544J658428D01*
G01*
X107449458Y-110554020D02*
G75*
G03*
X107851503Y-110808445I5547242J8320920D01*
G01*
X108168842Y-103478387D02*
G75*
G02*
X109682769Y-104015645I-2576642J-9662313D01*
G01*
X111300773Y-64240665D02*
G75*
G02*
X111763986Y-64951027I-8137073J-5812235D01*
G01*
X239940460Y-98638288D02*
G75*
G03*
X239735533Y-98040227I-9556760J-2940512D01*
G01*
D20*
X92878565Y-31684351D02*
G75*
G03*
X92613189Y-31492031I-5997665J-7996749D01*
G01*
D19*
X110044834Y-110964004D02*
G75*
G02*
X110250643Y-110910219I2630766J-9645996D01*
G01*
X119681462Y-80086875D02*
G75*
G03*
X120715760Y-80131544I948038J9954675D01*
G01*
X108184668Y-60150890D02*
G75*
G02*
X108778268Y-60848353I-7310168J-6822910D01*
G01*
X191368763Y-139001334D02*
G75*
G02*
X190924811Y-139060754I-1548463J9881034D01*
G01*
X104968671Y-85239178D02*
G75*
G02*
X105625732Y-85254462I96129J-9998722D01*
G01*
X97225072Y-84817922D02*
G75*
G03*
X96969039Y-84757482I-2426672J-9707278D01*
G01*
X103531245Y-121895361D02*
G75*
G03*
X105053293Y-121760045I-121945J9999361D01*
G01*
X124280462Y-108632619D02*
G75*
G03*
X125322451Y-108784475I1961138J9805919D01*
G01*
D20*
X232094336Y-82808957D02*
G75*
G03*
X233460253Y-82262331I-3022536J9532657D01*
G01*
D19*
X93943281Y-77586017D02*
G75*
G02*
X92459877Y-77475377I19J9999917D01*
G01*
X87325847Y-62914411D02*
G75*
G03*
X87153788Y-62776705I-707047J-707089D01*
G01*
X114216183Y-78698508D02*
G75*
G03*
X114379381Y-78772066I4185917J9069208D01*
G01*
X98569937Y-75001328D02*
G75*
G03*
X98324627Y-74973735I-1240337J-9922772D01*
G01*
X113922957Y-107350793D02*
G75*
G03*
X115899249Y-107623125I2346443J9720893D01*
G01*
X183744226Y-33687732D02*
G75*
G03*
X183709940Y-32785850I-10000126J71432D01*
G01*
X105588563Y-82030609D02*
G75*
G03*
X105204741Y-81948957I-2272063J-9737391D01*
G01*
X109160937Y-82954155D02*
G75*
G02*
X109728586Y-83134792I-2747037J-9614745D01*
G01*
X106409915Y-86686625D02*
G75*
G02*
X106384992Y-86685378I505085J10344625D01*
G01*
X240679858Y-101614044D02*
G75*
G02*
X240822696Y-102967733I-9850258J-1723756D01*
G01*
X104157554Y-128519672D02*
G75*
G03*
X105447032Y-128668499I1788846J9838472D01*
G01*
D20*
X218799975Y-97151315D02*
G75*
G02*
X219116498Y-96531739I9058125J-4236885D01*
G01*
D19*
X201969096Y-31039927D02*
G75*
G02*
X203320124Y-31123761I57604J-9999873D01*
G01*
X143760857Y-112737357D02*
G75*
G02*
X144726978Y-112881925I-995057J-9950243D01*
G01*
X109399278Y-99800937D02*
G75*
G03*
X109997196Y-99853147I1168422J9931137D01*
G01*
X128957911Y-108271792D02*
G75*
G02*
X128836823Y-108299490I-2290511J9734992D01*
G01*
X101171006Y-72849334D02*
G75*
G03*
X100869644Y-72584421I-797506J-603366D01*
G01*
X98491671Y-106460604D02*
G75*
G03*
X99204141Y-106486015I712429J9974104D01*
G01*
X142748697Y-112686017D02*
G75*
G02*
X143743734Y-112735643I3J-10000283D01*
G01*
X131074754Y-106742876D02*
G75*
G02*
X131522529Y-106639449I2473446J-9687524D01*
G01*
X98187835Y-126953565D02*
G75*
G02*
X97907624Y-126914506I1240265J9922465D01*
G01*
X156283550Y-133075530D02*
G75*
G03*
X156901041Y-132775291I-4061150J9137530D01*
G01*
X228240847Y-118628310D02*
G75*
G03*
X227624448Y-117971512I-7592547J-6507890D01*
G01*
X145552120Y-135051220D02*
G75*
G03*
X146947817Y-135123052I1210580J9926520D01*
G01*
X91500725Y-56186017D02*
G75*
G02*
X91594180Y-56186454I75J-9970283D01*
G01*
D20*
X122293996Y-51136647D02*
G75*
G02*
X121402744Y-51095588I14104J9999647D01*
G01*
D19*
X98476558Y-51564729D02*
G75*
G03*
X97100037Y-51303968I-2544958J-9670871D01*
G01*
X114939137Y-76274030D02*
G75*
G02*
X114656944Y-76193865I2590563J9655930D01*
G01*
X142516720Y-107550123D02*
G75*
G02*
X142178763Y-107516169I830480J9965023D01*
G01*
X139486861Y-132948421D02*
G75*
G02*
X138728380Y-132489970I4788539J8779021D01*
G01*
X112712483Y-78004492D02*
G75*
G03*
X111970077Y-77697387I-4190283J-9078808D01*
G01*
X93394221Y-72436017D02*
G75*
G02*
X93106872Y-72393850I-21J1000017D01*
G01*
X99553204Y-85231592D02*
G75*
G03*
X100644390Y-85280754I994996J9950192D01*
G01*
X110181899Y-77040507D02*
G75*
G03*
X109607203Y-76848940I-3447599J-9384893D01*
G01*
X88480267Y-88078781D02*
G75*
G03*
X88514666Y-88093189I3906733J9278981D01*
G01*
X90156598Y-67310405D02*
G75*
G03*
X90138181Y-67261678I-9471398J-3551995D01*
G01*
X144369073Y-105829963D02*
G75*
G03*
X144325860Y-105842168I2681427J-9576337D01*
G01*
X112844090Y-85879241D02*
G75*
G02*
X112950739Y-85893367I-1264090J-9953259D01*
G01*
X111521290Y-68711353D02*
G75*
G03*
X112195813Y-69231920I6441410J7649153D01*
G01*
X86183674Y-45712003D02*
G75*
G02*
X86132671Y-45058357I9938526J1104303D01*
G01*
D20*
X113653744Y-137688115D02*
G75*
G03*
X113942543Y-137779546I3161156J9483115D01*
G01*
D19*
X139051950Y-107912141D02*
G75*
G02*
X139637911Y-108077739I-2425650J-9702559D01*
G01*
X122653748Y-108188115D02*
G75*
G03*
X122942543Y-108279543I3162252J9486815D01*
G01*
X218377286Y-127788642D02*
G75*
G03*
X218516687Y-127682169I-6001686J8002242D01*
G01*
X213223843Y-108106378D02*
G75*
G03*
X213261278Y-107664827I-9943543J1065378D01*
G01*
D20*
X115667760Y-149140652D02*
G75*
G02*
X115645763Y-148530710I9978840J665252D01*
G01*
D19*
X219459739Y-108256494D02*
G75*
G02*
X219722691Y-108722580I-8574339J-5144606D01*
G01*
X132835727Y-107486017D02*
G75*
G02*
X132959174Y-107486779I173J-9973483D01*
G01*
X98020083Y-56452806D02*
G75*
G03*
X97571960Y-56329646I-2873083J-9576994D01*
G01*
X96643235Y-120908369D02*
G75*
G02*
X97439420Y-121197412I-3011135J-9535431D01*
G01*
X141296651Y-107404071D02*
G75*
G03*
X141699388Y-107459775I1571449J9877771D01*
G01*
D20*
X216798448Y-102073037D02*
G75*
G02*
X217027016Y-101308128I9687752J-2478263D01*
G01*
D19*
X89871735Y-45764714D02*
G75*
G02*
X89823387Y-45707138I7673665J6492814D01*
G01*
X142099314Y-112661203D02*
G75*
G03*
X142596830Y-112686015I497486J4974903D01*
G01*
D20*
X96603478Y-130938948D02*
G75*
G02*
X95235528Y-129496434I6536122J7568148D01*
G01*
D19*
X226095982Y-61594843D02*
G75*
G03*
X226097335Y-61577070I-98582J16443D01*
G01*
X88806327Y-64491990D02*
G75*
G03*
X88664965Y-64297180I-874127J-485610D01*
G01*
X106175890Y-55614454D02*
G75*
G02*
X106697387Y-56177609I-7071190J-7071146D01*
G01*
X90235579Y-80649620D02*
G75*
G02*
X88756478Y-79587164I5070221J8619320D01*
G01*
X124033468Y-37658050D02*
G75*
G02*
X123692969Y-36899823I8943732J4471950D01*
G01*
X127007572Y-85681387D02*
G75*
G02*
X126587326Y-85681814I-220272J9999087D01*
G01*
X108369286Y-63851515D02*
G75*
G03*
X108215907Y-63424003I-9487286J-3162485D01*
G01*
X209415689Y-36131908D02*
G75*
G02*
X209383512Y-35839652I9924711J1240608D01*
G01*
X108482535Y-82760326D02*
G75*
G03*
X108311954Y-82713216I-2745735J-9609674D01*
G01*
X132818963Y-106370126D02*
G75*
G02*
X132675718Y-106400859I-2167663J9754126D01*
G01*
X236635001Y-92051301D02*
G75*
G02*
X237211713Y-92951604I-8120101J-5836399D01*
G01*
X141224969Y-112570706D02*
G75*
G03*
X141470279Y-112598301I1240431J9922806D01*
G01*
X122765196Y-111080170D02*
G75*
G03*
X123335572Y-111274671I3511304J9363370D01*
G01*
D20*
X216559385Y-103007555D02*
G75*
G03*
X216279254Y-104688435I9687915J-2478345D01*
G01*
D19*
X161571140Y-138950277D02*
G75*
G02*
X160025377Y-137875604I4910160J8711577D01*
G01*
X126237514Y-38752442D02*
G75*
G02*
X125858154Y-38712353I861386J9966242D01*
G01*
X238841785Y-95914552D02*
G75*
G02*
X239376798Y-97092157I-8817985J-4716548D01*
G01*
X90348263Y-50527527D02*
G75*
G02*
X90147573Y-50442319I3807937J9247727D01*
G01*
X127748598Y-107461459D02*
G75*
G02*
X126037540Y-107563387I-1447998J9894759D01*
G01*
X116361256Y-99887422D02*
G75*
G03*
X116133647Y-99887203I-123456J-10008378D01*
G01*
X218679404Y-104642849D02*
G75*
G03*
X218674621Y-105729445I9982496J-587251D01*
G01*
X96739334Y-74754393D02*
G75*
G03*
X97056510Y-74812525I1961266J9806593D01*
G01*
X103744608Y-128444591D02*
G75*
G03*
X103649694Y-128431991I-178908J-983909D01*
G01*
X122654909Y-105705169D02*
G75*
G03*
X123757079Y-106003831I3162291J9486969D01*
G01*
X236912219Y-106161638D02*
G75*
G02*
X237180328Y-106314534I-4818019J-8760062D01*
G01*
X133365252Y-112754511D02*
G75*
G02*
X134533668Y-112686013I1168448J-9931489D01*
G01*
X105841023Y-49739174D02*
G75*
G02*
X106980104Y-50718662I-5931923J-8050526D01*
G01*
X109898697Y-75136017D02*
G75*
G02*
X110893734Y-75185643I3J-10000283D01*
G01*
X92508311Y-81365757D02*
G75*
G03*
X92688791Y-81389787I221689J975257D01*
G01*
X117534125Y-79764431D02*
G75*
G03*
X117761248Y-79804982I1871375J9825031D01*
G01*
X99602472Y-114806023D02*
G75*
G02*
X99791818Y-114867896I-3014272J-9544977D01*
G01*
X104592040Y-102852793D02*
G75*
G02*
X105794417Y-102992146I-547940J-9984707D01*
G01*
X87568482Y-114443260D02*
G75*
G02*
X88434216Y-114267057I2425418J-9701840D01*
G01*
D20*
X234161483Y-81919863D02*
G75*
G03*
X235654846Y-81021543I-4388383J8985663D01*
G01*
D19*
X167764487Y-139301061D02*
G75*
G02*
X166941911Y-139035383I2659413J9640161D01*
G01*
X88126329Y-43511262D02*
G75*
G02*
X87695130Y-42843621I8177371J5754462D01*
G01*
X107198742Y-128398573D02*
G75*
G03*
X108280162Y-128112888I-2009542J9796473D01*
G01*
X123897003Y-100916682D02*
G75*
G03*
X124501604Y-101036710I2248697J9744282D01*
G01*
X116873285Y-126835651D02*
G75*
G03*
X116721635Y-126837534I48515J-10017049D01*
G01*
X106577111Y-58428507D02*
G75*
G03*
X106207913Y-58053248I-7310711J-6823393D01*
G01*
X205546408Y-31645599D02*
G75*
G02*
X207172428Y-32475482I-3713908J-9284701D01*
G01*
X114161163Y-86060322D02*
G75*
G02*
X114532644Y-86118700I-1366663J-9907778D01*
G01*
X99571831Y-57177476D02*
G75*
G02*
X99920787Y-57301018I-3162731J-9488024D01*
G01*
X132569076Y-91017144D02*
G75*
G03*
X133126450Y-91039338I676424J9977444D01*
G01*
X167571867Y-141589878D02*
G75*
G02*
X166445320Y-141215171I2587433J9659878D01*
G01*
X220889066Y-126926576D02*
G75*
G03*
X220606165Y-126949472I665334J-9979924D01*
G01*
X119359883Y-77075688D02*
G75*
G03*
X119835245Y-77085041I434317J9988988D01*
G01*
D20*
X200625701Y-126329520D02*
G75*
G02*
X200995045Y-125656699I8944499J-4472280D01*
G01*
D19*
X109927801Y-62331627D02*
G75*
G02*
X110160985Y-62644962I-7904101J-6125673D01*
G01*
X143132946Y-107601475D02*
G75*
G03*
X143963397Y-107636018I830454J9965175D01*
G01*
X121695370Y-87820685D02*
G75*
G02*
X121400657Y-87746872I2282430J9738285D01*
G01*
X92427715Y-48513880D02*
G75*
G03*
X92982039Y-48938783I6357185J7719480D01*
G01*
X88754944Y-74970381D02*
G75*
G02*
X88179196Y-74173314I7808456J6246781D01*
G01*
X130520876Y-107904035D02*
G75*
G02*
X130674303Y-107869206I2292024J-9741465D01*
G01*
X240440960Y-110918484D02*
G75*
G02*
X240454161Y-110853594I9840540J-1968116D01*
G01*
X238056572Y-94446544D02*
G75*
G03*
X237935583Y-94227008I-8822472J-4719056D01*
G01*
X97892836Y-74929948D02*
G75*
G03*
X98002133Y-74941485I1109164J9984248D01*
G01*
X132974750Y-112803546D02*
G75*
G02*
X133220552Y-112771536I1414450J-9901554D01*
G01*
X106210891Y-99214376D02*
G75*
G02*
X105200431Y-98904183I2425309J9701376D01*
G01*
X176042988Y-90895058D02*
G75*
G02*
X175729918Y-91023249I-529988J847958D01*
G01*
X111224672Y-68461570D02*
G75*
G02*
X110594964Y-67883524I6441728J7649470D01*
G01*
X121016840Y-107681935D02*
G75*
G03*
X119571756Y-107594977I-1321640J-9912465D01*
G01*
X129454993Y-107156432D02*
G75*
G02*
X128429152Y-107361865I-2473793J9689032D01*
G01*
X128475894Y-88686017D02*
G75*
G03*
X128519011Y-88685924I206J9888317D01*
G01*
X106074454Y-126880954D02*
G75*
G02*
X106020423Y-126890931I-1827554J9745854D01*
G01*
X110724432Y-119650973D02*
G75*
G02*
X111276802Y-119437426I3879968J-9214927D01*
G01*
D20*
X86671668Y-30186017D02*
G75*
G02*
X86723238Y-30186150I232J-9923483D01*
G01*
D19*
X98708545Y-93993654D02*
G75*
G03*
X97783002Y-93921388I-1240345J-9922546D01*
G01*
X122035455Y-110795161D02*
G75*
G03*
X122463415Y-110967005I3938545J9189761D01*
G01*
X112334218Y-110354084D02*
G75*
G02*
X111756315Y-110500716I-2747118J9614784D01*
G01*
X140835634Y-133684116D02*
G75*
G03*
X142958297Y-134543263I4788466J8778916D01*
G01*
X91115782Y-76960776D02*
G75*
G02*
X89409222Y-75730758I4961418J8682476D01*
G01*
X121330701Y-100170846D02*
G75*
G03*
X119237937Y-99922939I-2216201J-9751354D01*
G01*
X98453950Y-56614265D02*
G75*
G02*
X99126770Y-56983609I-4472250J-8944435D01*
G01*
X121991231Y-85589893D02*
G75*
G02*
X121603970Y-85574638I199869J9996893D01*
G01*
X117040189Y-79670348D02*
G75*
G02*
X116164100Y-79462198I1871111J9823148D01*
G01*
X115297836Y-84707514D02*
G75*
G02*
X114504197Y-84532244I1757864J9844214D01*
G01*
X225674001Y-126456331D02*
G75*
G03*
X226119770Y-126405699I-905501J9959731D01*
G01*
X228756637Y-126048289D02*
G75*
G03*
X228938030Y-126022083I-1339137J9910089D01*
G01*
X124121511Y-107410882D02*
G75*
G03*
X123772629Y-107367286I-1413711J-9895618D01*
G01*
X97156313Y-106171319D02*
G75*
G02*
X97734219Y-106317949I-2169513J-9762781D01*
G01*
X111618060Y-124465789D02*
G75*
G03*
X110226678Y-125113319I3511140J-9363211D01*
G01*
X109652359Y-127666923D02*
G75*
G02*
X109843146Y-127607018I3090841J-9510077D01*
G01*
X239694607Y-113845623D02*
G75*
G03*
X239700280Y-113826405I-10463707J3099223D01*
G01*
X117622491Y-86746026D02*
G75*
G02*
X117970867Y-86832260I-2228891J-9751274D01*
G01*
X145265145Y-105579063D02*
G75*
G02*
X145935386Y-105416103I2696255J-9629637D01*
G01*
X108473075Y-111044558D02*
G75*
G02*
X108124119Y-110921017I3162725J9488058D01*
G01*
X99380833Y-53736017D02*
G75*
G03*
X99713981Y-53730466I-33J10001017D01*
G01*
X148028602Y-105113339D02*
G75*
G02*
X148767314Y-105086019I738698J-9972961D01*
G01*
X105307638Y-108859474D02*
G75*
G02*
X105967659Y-109339520I-5547238J-8320726D01*
G01*
X88695502Y-49626274D02*
G75*
G03*
X89003409Y-49839989I5854798J8106574D01*
G01*
X98487842Y-85053566D02*
G75*
G02*
X98207617Y-85014504I1240458J9923466D01*
G01*
X226991478Y-126286832D02*
X227003429Y-126285209D01*
X137104660Y-91086043D02*
G75*
G02*
X136990250Y-91085336I4640J10007643D01*
G01*
X105534969Y-76339660D02*
G75*
G02*
X106259249Y-76358626I100531J-9999740D01*
G01*
D20*
X117811691Y-54834391D02*
G75*
G02*
X117883202Y-54837899I-454091J-9986909D01*
G01*
D19*
X88324412Y-88013158D02*
G75*
G02*
X86836228Y-87233417I3880588J9216358D01*
G01*
X213875837Y-102963630D02*
G75*
G02*
X214047841Y-102215016I9825463J-1863470D01*
G01*
X240659356Y-109861819D02*
G75*
G03*
X240798261Y-109004174I-9792156J2026019D01*
G01*
X98624678Y-114512631D02*
G75*
G03*
X96753557Y-114336023I-1871078J-9823269D01*
G01*
X97768311Y-74916112D02*
G75*
G02*
X97228636Y-74841213I1104389J9939212D01*
G01*
D20*
X238765342Y-77233862D02*
G75*
G03*
X239270933Y-76209240I-8700142J4930062D01*
G01*
D19*
X144913913Y-112919309D02*
G75*
G02*
X145568883Y-113097286I-980613J-4902891D01*
G01*
X120455420Y-105138009D02*
G75*
G03*
X120841237Y-105226389I2425380J9701509D01*
G01*
X114824085Y-105424365D02*
G75*
G03*
X114770889Y-105447823I3980515J-9098635D01*
G01*
X232821928Y-105159185D02*
G75*
G02*
X234070983Y-105191039I370072J-9993515D01*
G01*
X106744692Y-82300373D02*
G75*
G02*
X107049021Y-82376434I-2272892J-9740927D01*
G01*
X146428418Y-113394813D02*
G75*
G03*
X146667487Y-113474209I3271682J9451713D01*
G01*
D20*
X113447453Y-48667763D02*
G75*
G03*
X113447251Y-48604272I-9880053J263D01*
G01*
X200313303Y-127277901D02*
G75*
G02*
X200280904Y-127393938I-9664403J2635901D01*
G01*
D19*
X113856803Y-110136017D02*
G75*
G03*
X113938101Y-110135687I-203J10075517D01*
G01*
X113726559Y-119035643D02*
G75*
G03*
X112969463Y-119065092I9841J-9999857D01*
G01*
X160921947Y-136139972D02*
G75*
G02*
X160577320Y-135925064I5118853J8592372D01*
G01*
D20*
X237606926Y-78939025D02*
G75*
G03*
X238650104Y-77437236I-7657126J6432025D01*
G01*
D19*
X99665230Y-75113869D02*
G75*
G03*
X100330414Y-75136014I665170J9978669D01*
G01*
X208995866Y-34282843D02*
G75*
G02*
X209189712Y-34693593I-8945466J-4472757D01*
G01*
X209829967Y-55293667D02*
G75*
G02*
X209790679Y-54576956I9959133J905367D01*
G01*
X124424686Y-107454193D02*
G75*
G03*
X125575834Y-107551235I1414214J9899693D01*
G01*
X89611155Y-55920327D02*
G75*
G02*
X89783462Y-55953219I-1787655J-9832673D01*
G01*
X91772802Y-71462063D02*
G75*
G03*
X92014386Y-71852936I948698J316263D01*
G01*
X203332177Y-31125329D02*
G75*
G02*
X204255003Y-31290002I-1293377J-9916171D01*
G01*
X95239111Y-84314232D02*
G75*
G03*
X96271260Y-84602413I3201389J9473632D01*
G01*
X127908052Y-113642084D02*
G75*
G02*
X127829394Y-113655162I-1687752J9907984D01*
G01*
X108536390Y-86791946D02*
G75*
G03*
X108358424Y-86781673I-664590J-9966754D01*
G01*
X100254592Y-78719945D02*
G75*
G02*
X100639549Y-78759540I-830692J-9967355D01*
G01*
X223705831Y-87331059D02*
G75*
G02*
X225509652Y-87105611I2136969J-9769041D01*
G01*
X225656195Y-62576027D02*
G75*
G02*
X225636403Y-62593375I-75195J65827D01*
G01*
X105353811Y-57229648D02*
G75*
G03*
X104608901Y-56579262I-6941311J-7198352D01*
G01*
X131967753Y-112948279D02*
G75*
G02*
X132020901Y-112940248I1531747J-9957221D01*
G01*
X87419414Y-77354808D02*
G75*
G03*
X87582579Y-77714005I9186286J3956208D01*
G01*
X107082323Y-110247400D02*
G75*
G03*
X106599707Y-109839883I-6689123J-7432300D01*
G01*
X229808259Y-120499225D02*
G75*
G02*
X229786692Y-120472773I7718541J6315225D01*
G01*
X218814768Y-106616171D02*
G75*
G03*
X219270952Y-107924192I9647732J2631171D01*
G01*
X119671411Y-85423886D02*
G75*
G03*
X120527258Y-85511304I1443089J9895086D01*
G01*
X110125652Y-119903091D02*
G75*
G03*
X109969824Y-119970266I3878048J-9210409D01*
G01*
D20*
X88071482Y-30193103D02*
G75*
G02*
X88723194Y-30200182I217318J-9996397D01*
G01*
D19*
X97098953Y-53517833D02*
G75*
G02*
X96697418Y-53446011I1559647J9877833D01*
G01*
X124258967Y-108628320D02*
G75*
G02*
X123346650Y-108400772I1961133J9805520D01*
G01*
X90864936Y-69087853D02*
G75*
G02*
X91110250Y-69692184I-9137836J-4061247D01*
G01*
X98960674Y-75050170D02*
G75*
G03*
X99535824Y-75105244I1240326J9922170D01*
G01*
X107337819Y-61752529D02*
G75*
G03*
X106940058Y-61232532I-8136819J-5811971D01*
G01*
X231185083Y-122257668D02*
G75*
G02*
X231491565Y-122824243I-8637683J-5038632D01*
G01*
X218726020Y-106290762D02*
G75*
G02*
X218692019Y-106077583I964680J263162D01*
G01*
X222467299Y-87726996D02*
G75*
G03*
X221364352Y-88314073I4138001J-9103704D01*
G01*
X110120505Y-125173051D02*
G75*
G02*
X110074334Y-125198861I-4817005J8562751D01*
G01*
X100545643Y-72453486D02*
G75*
G02*
X100832251Y-72563048I-209543J-977814D01*
G01*
X175551446Y-91062908D02*
G75*
G02*
X175340925Y-91086703I-216946J976208D01*
G01*
X100880925Y-53691568D02*
G75*
G02*
X101214073Y-53686017I333175J-9995432D01*
G01*
X202079249Y-141536017D02*
G75*
G02*
X200820681Y-141456496I51J10000117D01*
G01*
X112422167Y-106910922D02*
G75*
G03*
X112573128Y-106959914I3156633J9469522D01*
G01*
X98229683Y-126958796D02*
G75*
G03*
X99470030Y-127036013I1240317J9922896D01*
G01*
X176495845Y-90509284D02*
G75*
G03*
X176708031Y-90113897I-752545J658484D01*
G01*
X139162508Y-112262568D02*
G75*
G03*
X140242696Y-112450163I2248592J9743868D01*
G01*
X92810465Y-72304921D02*
G75*
G03*
X92684197Y-72267945I-2874865J-9583079D01*
G01*
X127055696Y-88686017D02*
G75*
G02*
X126639391Y-88677350I4J10002617D01*
G01*
X144935837Y-134976064D02*
G75*
G02*
X143480517Y-134687716I1210563J9926564D01*
G01*
X90718221Y-68757745D02*
G75*
G02*
X90493042Y-68207595I9138879J4061745D01*
G01*
X139395362Y-107101594D02*
G75*
G02*
X139199872Y-107068502I1571238J9876094D01*
G01*
X147563976Y-115951368D02*
G75*
G02*
X144970399Y-114956921I2248624J9743868D01*
G01*
X96671176Y-106013663D02*
G75*
G03*
X96523305Y-105959537I-3506776J-9351337D01*
G01*
X97398418Y-58693932D02*
G75*
G02*
X96899802Y-58565258I2248382J9742932D01*
G01*
X222434296Y-97271981D02*
G75*
G02*
X223403628Y-96558497I6401804J-7682219D01*
G01*
X111904344Y-75401779D02*
G75*
G02*
X112682531Y-75601538I-2095244J-9777921D01*
G01*
X101459672Y-48544938D02*
G75*
G03*
X100835286Y-48546601I-285572J-9995762D01*
G01*
X219115943Y-102006850D02*
G75*
G03*
X218909417Y-102773390I9544957J-2982750D01*
G01*
X132127288Y-112924612D02*
G75*
G03*
X132074081Y-112932359I1422812J-9958888D01*
G01*
X140311745Y-108290483D02*
G75*
G02*
X140283174Y-108281508I3021755J9669283D01*
G01*
X218034868Y-91895658D02*
G75*
G02*
X218269882Y-91481969I8809732J-4731142D01*
G01*
D20*
X97595252Y-131689477D02*
G75*
G03*
X98319512Y-132151422I5734748J8192477D01*
G01*
D19*
X109127644Y-59133952D02*
G75*
G03*
X109373059Y-59433330I7854656J6188552D01*
G01*
X154430833Y-133898959D02*
G75*
G02*
X153340116Y-134309410I-4061433J9138259D01*
G01*
X93486347Y-114235659D02*
G75*
G02*
X93508558Y-114236400I-304947J-9473741D01*
G01*
X90533750Y-56101707D02*
G75*
G02*
X90361445Y-56068817I1789950J9844907D01*
G01*
X107002295Y-99409845D02*
G75*
G02*
X106793149Y-99359941I2216905J9754145D01*
G01*
X151060159Y-129620363D02*
G75*
G03*
X150835131Y-129654230I1376041J-9907537D01*
G01*
X103889768Y-58818496D02*
G75*
G03*
X102401122Y-58764727I-1104268J-9938604D01*
G01*
X113783101Y-107317035D02*
G75*
G02*
X113118193Y-107132038I2346599J9721435D01*
G01*
X94455718Y-72436017D02*
G75*
G03*
X94639173Y-72434335I-18J10005417D01*
G01*
D20*
X216147453Y-106735380D02*
G75*
G02*
X216179301Y-105937925I10000247J-20D01*
G01*
X237071494Y-79572334D02*
G75*
G03*
X237221408Y-79397976I-7507994J6607034D01*
G01*
D19*
X168730042Y-139567421D02*
G75*
G03*
X168865113Y-139603668I2665358J9662421D01*
G01*
X130629022Y-113157165D02*
G75*
G02*
X130866358Y-113117723I1756178J-9833835D01*
G01*
D20*
X216147453Y-108420070D02*
G75*
G03*
X216181995Y-109250527I9999347J-30D01*
G01*
D19*
X111110389Y-99916756D02*
G75*
G03*
X111785049Y-99932502I570511J9983256D01*
G01*
X103468348Y-98262511D02*
G75*
G03*
X103829271Y-98402533I3795952J9249311D01*
G01*
X115396515Y-87560861D02*
G75*
G02*
X116289653Y-87752001I-1643915J-9863739D01*
G01*
X104290086Y-86582907D02*
G75*
G02*
X104604644Y-86594079I-197686J-9999593D01*
G01*
X152297498Y-105423528D02*
G75*
G03*
X150777499Y-105166026I-2425298J-9701272D01*
G01*
X109683099Y-66828774D02*
G75*
G02*
X109241089Y-66124873I8240301J5665174D01*
G01*
X85597133Y-91039827D02*
G75*
G03*
X86243898Y-91897420I8295967J5583827D01*
G01*
X236021368Y-91197551D02*
G75*
G03*
X235550330Y-90592553I-8120468J-5836549D01*
G01*
X116406773Y-70583083D02*
G75*
G02*
X114505072Y-70406513I-30573J9999883D01*
G01*
X127716207Y-108548516D02*
G75*
G02*
X127377503Y-108617663I-2169507J9762816D01*
G01*
X137300229Y-106727071D02*
G75*
G03*
X137394761Y-106744508I1862471J9831971D01*
G01*
D20*
X90069302Y-30314294D02*
G75*
G03*
X89020265Y-30213091I-1483402J-9888906D01*
G01*
D19*
X119005235Y-77060268D02*
G75*
G02*
X117895838Y-76949828I434365J9990568D01*
G01*
X118891385Y-88434425D02*
X118903519Y-88437616D01*
X173259174Y-140180480D02*
G75*
G03*
X173635803Y-140184460I293926J9992180D01*
G01*
X123524393Y-100827370D02*
G75*
G03*
X122760371Y-100575419I-3511393J-9363630D01*
G01*
X121983183Y-107108467D02*
G75*
G03*
X123122667Y-107297646I2204817J9753967D01*
G01*
X110322044Y-104302213D02*
G75*
G03*
X110473409Y-104368569I4090856J9125813D01*
G01*
X103788653Y-81696355D02*
G75*
G02*
X104403188Y-81794811I-1274053J-9919445D01*
G01*
X224080263Y-126606916D02*
G75*
G02*
X224415252Y-126570762I1239937J-9918884D01*
G01*
D20*
X217724792Y-99449981D02*
G75*
G03*
X217323426Y-100443588I9058208J-4236919D01*
G01*
D19*
X216715237Y-134912985D02*
G75*
G03*
X216184132Y-135073787I2631163J-9647815D01*
G01*
X92108618Y-114191216D02*
G75*
G03*
X91786205Y-114186018I-322418J-9995884D01*
G01*
D20*
X117854257Y-151023857D02*
G75*
G03*
X118340948Y-151036325I499343J9986757D01*
G01*
D19*
X92094285Y-51040780D02*
G75*
G02*
X91405316Y-50907064I1559615J9877680D01*
G01*
X99666718Y-58869891D02*
G75*
G02*
X98828310Y-58866964I-384318J9993191D01*
G01*
X137241602Y-107557028D02*
G75*
G03*
X136652578Y-107532376I-712502J-9974772D01*
G01*
X240263036Y-99686661D02*
G75*
G02*
X240555547Y-100903717I-9557836J-2940839D01*
G01*
X121538524Y-107826323D02*
G75*
G02*
X121953592Y-107954728I-2747124J-9615077D01*
G01*
X97591943Y-53595673D02*
G75*
G03*
X98104707Y-53663095I1559757J9878873D01*
G01*
X171144650Y-140072565D02*
G75*
G02*
X170453645Y-139975348I1046650J9943865D01*
G01*
X147505682Y-113740908D02*
G75*
G03*
X147790504Y-113826890I3031418J9527008D01*
G01*
X162918394Y-139709638D02*
G75*
G03*
X164114619Y-140282879I4910106J8711538D01*
G01*
X100913925Y-94648432D02*
G75*
G03*
X99441140Y-94138720I-3997025J-9166568D01*
G01*
X108191766Y-106487796D02*
G75*
G03*
X108003123Y-106486017I-188466J-9983704D01*
G01*
X97034054Y-51296205D02*
G75*
G03*
X96860687Y-51277341I-1169454J-9941495D01*
G01*
X112294279Y-105234430D02*
G75*
G03*
X112705030Y-105428273I4472721J8945530D01*
G01*
X220186966Y-109649920D02*
G75*
G03*
X219886732Y-109032427I-9137566J-4061080D01*
G01*
X108526148Y-99698216D02*
G75*
G02*
X107478350Y-99518038I1168452J9931716D01*
G01*
D20*
X239938224Y-29779130D02*
G75*
G03*
X239761283Y-28405190I-9982924J-587270D01*
G01*
D19*
X205911444Y-133826846D02*
G75*
G02*
X205483266Y-133836016I-428144J9990846D01*
G01*
X87545082Y-92976696D02*
G75*
G03*
X88569573Y-93339581I3846118J9230696D01*
G01*
X240892666Y-105258852D02*
G75*
G03*
X240887356Y-104713327I-9999366J175452D01*
G01*
X88677624Y-79510086D02*
G75*
G02*
X87599862Y-77750139I7943576J6074486D01*
G01*
X96306384Y-58395711D02*
G75*
G02*
X95891311Y-58267304I2747816J9617311D01*
G01*
X219054242Y-90317870D02*
G75*
G02*
X220009730Y-89320316I7682158J-6401830D01*
G01*
X125047209Y-101114835D02*
G75*
G02*
X124549460Y-101044684I1146291J9934335D01*
G01*
X89466502Y-65702211D02*
G75*
G02*
X89962195Y-66799728I-8849102J-4657389D01*
G01*
X152194138Y-129462866D02*
G75*
G02*
X153305885Y-129371273I1375662J-9904734D01*
G01*
X105758741Y-121627953D02*
G75*
G02*
X105233433Y-121730020I-2169541J9763153D01*
G01*
X125304356Y-88597895D02*
G75*
G03*
X125992363Y-88650388I1104244J9937895D01*
G01*
X92158110Y-81286166D02*
G75*
G02*
X90863088Y-80898128I2216290J9751566D01*
G01*
X240848992Y-107748318D02*
G75*
G03*
X240847453Y-107923730I10002208J-175482D01*
G01*
X176797453Y-89652099D02*
G75*
G02*
X176762215Y-89915217I-999953J-1D01*
G01*
X127605185Y-90538871D02*
G75*
G02*
X126795434Y-90399874I1285515J9917171D01*
G01*
X105751099Y-55189663D02*
G75*
G03*
X105437277Y-54889188I-7070199J-7070137D01*
G01*
X110920476Y-83553565D02*
G75*
G03*
X111683796Y-83787969I3314924J9434765D01*
G01*
X148578282Y-135092853D02*
G75*
G03*
X149315114Y-135051978I-185082J9997953D01*
G01*
D20*
X90913383Y-30546111D02*
G75*
G02*
X91761623Y-30966114I-4008183J-9161489D01*
G01*
D19*
X221959078Y-126855242D02*
G75*
G03*
X222534235Y-126800169I-665278J9978742D01*
G01*
X219974298Y-100075712D02*
G75*
G03*
X219395731Y-101233851I8637902J-5038788D01*
G01*
X100844823Y-121928122D02*
G75*
G02*
X99554469Y-121860370I-121923J9999322D01*
G01*
X141645372Y-108642176D02*
G75*
G02*
X140564750Y-108369545I1902228J9817776D01*
G01*
X90044690Y-88716231D02*
G75*
G02*
X91678413Y-89504596I-3511190J-9363169D01*
G01*
X219063452Y-127267446D02*
G75*
G03*
X218736428Y-127511259I5813148J-8138354D01*
G01*
X90848749Y-46919367D02*
G75*
G03*
X91049676Y-47149596I7634051J6459667D01*
G01*
X99882246Y-72338131D02*
G75*
G02*
X100110121Y-72360158I18354J-999869D01*
G01*
X91846714Y-93733903D02*
G75*
G03*
X91948211Y-93737616I417386J10019703D01*
G01*
X88612720Y-44202450D02*
G75*
G03*
X89108571Y-44849359I8178080J5754950D01*
G01*
D20*
X119056037Y-54886244D02*
G75*
G02*
X118539226Y-54872424I8763J9998244D01*
G01*
D19*
X208313344Y-33380319D02*
G75*
G03*
X207870648Y-33004573I-6689344J-7432581D01*
G01*
X165873466Y-138638537D02*
G75*
G02*
X165327945Y-138417435I3481934J9374437D01*
G01*
X116000752Y-107626880D02*
G75*
G03*
X116494304Y-107632971I370148J9993480D01*
G01*
X147696987Y-105137903D02*
G75*
G03*
X146409649Y-105317983I738713J-9972297D01*
G01*
X109864769Y-86880505D02*
G75*
G02*
X110030034Y-86892900I-666069J-9988995D01*
G01*
X117540442Y-85107979D02*
G75*
G03*
X117855279Y-85159032I1758258J9846579D01*
G01*
X104109333Y-48928044D02*
G75*
G03*
X103274782Y-48680350I-3259933J-9453856D01*
G01*
X95397342Y-74312635D02*
G75*
G03*
X96211137Y-74623914I3976058J9175435D01*
G01*
X119497000Y-80069307D02*
G75*
G02*
X118801101Y-79978290I948200J9955607D01*
G01*
X89866106Y-88649262D02*
G75*
G02*
X89531185Y-88516740I3509994J9360262D01*
G01*
X108688912Y-64810394D02*
G75*
G03*
X108812454Y-65159353I9486588J3162194D01*
G01*
X114831334Y-87466664D02*
G75*
G03*
X114462557Y-87412244I-1644034J-9864136D01*
G01*
X130202937Y-90856728D02*
G75*
G02*
X129593810Y-90796653I676363J9976128D01*
G01*
X148091524Y-130333421D02*
G75*
G02*
X150165090Y-129762885I3674276J-9300479D01*
G01*
D20*
X216611266Y-112701642D02*
G75*
G03*
X217194619Y-114709083I9841934J1771542D01*
G01*
M02*
