%TF.GenerationSoftware,KiCad,Pcbnew,9.0.8-1.fc43*%
%TF.CreationDate,2026-04-18T22:42:33+01:00*%
%TF.ProjectId,Scrumpi_JN,53637275-6d70-4695-9f4a-4e2e6b696361,rev?*%
%TF.SameCoordinates,Original*%
%TF.FileFunction,Drillmap*%
%TF.FilePolarity,Positive*%
%FSLAX45Y45*%
G04 Gerber Fmt 4.5, Leading zero omitted, Abs format (unit mm)*
G04 Created by KiCad (PCBNEW 9.0.8-1.fc43) date 2026-04-18 22:42:33*
%MOMM*%
%LPD*%
G01*
G04 APERTURE LIST*
%ADD10C,0.038100*%
%ADD11C,0.200000*%
%ADD12C,0.270000*%
G04 APERTURE END LIST*
D10*
X7654000Y-2630000D02*
X24164000Y-2630000D01*
X24164000Y-15330000D01*
X7654000Y-15330000D01*
X7654000Y-2630000D01*
D11*
D12*
X9124000Y-14113000D02*
X9394000Y-14383000D01*
X9394000Y-14113000D02*
X9124000Y-14383000D01*
X9685000Y-3885000D02*
X9955000Y-4155000D01*
X9955000Y-3885000D02*
X9685000Y-4155000D01*
X20865000Y-7525000D02*
X21135000Y-7795000D01*
X21135000Y-7525000D02*
X20865000Y-7795000D01*
D11*
X7912872Y-15643389D02*
X7912872Y-15443389D01*
X7912872Y-15443389D02*
X7960491Y-15443389D01*
X7960491Y-15443389D02*
X7989062Y-15452913D01*
X7989062Y-15452913D02*
X8008110Y-15471960D01*
X8008110Y-15471960D02*
X8017634Y-15491008D01*
X8017634Y-15491008D02*
X8027157Y-15529103D01*
X8027157Y-15529103D02*
X8027157Y-15557674D01*
X8027157Y-15557674D02*
X8017634Y-15595770D01*
X8017634Y-15595770D02*
X8008110Y-15614817D01*
X8008110Y-15614817D02*
X7989062Y-15633865D01*
X7989062Y-15633865D02*
X7960491Y-15643389D01*
X7960491Y-15643389D02*
X7912872Y-15643389D01*
X8112872Y-15643389D02*
X8112872Y-15510055D01*
X8112872Y-15548151D02*
X8122396Y-15529103D01*
X8122396Y-15529103D02*
X8131919Y-15519579D01*
X8131919Y-15519579D02*
X8150967Y-15510055D01*
X8150967Y-15510055D02*
X8170015Y-15510055D01*
X8236681Y-15643389D02*
X8236681Y-15510055D01*
X8236681Y-15443389D02*
X8227157Y-15452913D01*
X8227157Y-15452913D02*
X8236681Y-15462436D01*
X8236681Y-15462436D02*
X8246205Y-15452913D01*
X8246205Y-15452913D02*
X8236681Y-15443389D01*
X8236681Y-15443389D02*
X8236681Y-15462436D01*
X8360491Y-15643389D02*
X8341443Y-15633865D01*
X8341443Y-15633865D02*
X8331919Y-15614817D01*
X8331919Y-15614817D02*
X8331919Y-15443389D01*
X8465253Y-15643389D02*
X8446205Y-15633865D01*
X8446205Y-15633865D02*
X8436681Y-15614817D01*
X8436681Y-15614817D02*
X8436681Y-15443389D01*
X8693824Y-15643389D02*
X8693824Y-15443389D01*
X8693824Y-15443389D02*
X8760491Y-15586246D01*
X8760491Y-15586246D02*
X8827158Y-15443389D01*
X8827158Y-15443389D02*
X8827158Y-15643389D01*
X9008110Y-15643389D02*
X9008110Y-15538627D01*
X9008110Y-15538627D02*
X8998586Y-15519579D01*
X8998586Y-15519579D02*
X8979539Y-15510055D01*
X8979539Y-15510055D02*
X8941443Y-15510055D01*
X8941443Y-15510055D02*
X8922396Y-15519579D01*
X9008110Y-15633865D02*
X8989062Y-15643389D01*
X8989062Y-15643389D02*
X8941443Y-15643389D01*
X8941443Y-15643389D02*
X8922396Y-15633865D01*
X8922396Y-15633865D02*
X8912872Y-15614817D01*
X8912872Y-15614817D02*
X8912872Y-15595770D01*
X8912872Y-15595770D02*
X8922396Y-15576722D01*
X8922396Y-15576722D02*
X8941443Y-15567198D01*
X8941443Y-15567198D02*
X8989062Y-15567198D01*
X8989062Y-15567198D02*
X9008110Y-15557674D01*
X9103348Y-15510055D02*
X9103348Y-15710055D01*
X9103348Y-15519579D02*
X9122396Y-15510055D01*
X9122396Y-15510055D02*
X9160491Y-15510055D01*
X9160491Y-15510055D02*
X9179539Y-15519579D01*
X9179539Y-15519579D02*
X9189062Y-15529103D01*
X9189062Y-15529103D02*
X9198586Y-15548151D01*
X9198586Y-15548151D02*
X9198586Y-15605293D01*
X9198586Y-15605293D02*
X9189062Y-15624341D01*
X9189062Y-15624341D02*
X9179539Y-15633865D01*
X9179539Y-15633865D02*
X9160491Y-15643389D01*
X9160491Y-15643389D02*
X9122396Y-15643389D01*
X9122396Y-15643389D02*
X9103348Y-15633865D01*
X9284300Y-15624341D02*
X9293824Y-15633865D01*
X9293824Y-15633865D02*
X9284300Y-15643389D01*
X9284300Y-15643389D02*
X9274777Y-15633865D01*
X9274777Y-15633865D02*
X9284300Y-15624341D01*
X9284300Y-15624341D02*
X9284300Y-15643389D01*
X9284300Y-15519579D02*
X9293824Y-15529103D01*
X9293824Y-15529103D02*
X9284300Y-15538627D01*
X9284300Y-15538627D02*
X9274777Y-15529103D01*
X9274777Y-15529103D02*
X9284300Y-15519579D01*
X9284300Y-15519579D02*
X9284300Y-15538627D01*
X7452095Y-15871905D02*
X7652095Y-16071905D01*
X7652095Y-15871905D02*
X7452095Y-16071905D01*
X7903348Y-15882436D02*
X7912872Y-15872913D01*
X7912872Y-15872913D02*
X7931919Y-15863389D01*
X7931919Y-15863389D02*
X7979538Y-15863389D01*
X7979538Y-15863389D02*
X7998586Y-15872913D01*
X7998586Y-15872913D02*
X8008110Y-15882436D01*
X8008110Y-15882436D02*
X8017634Y-15901484D01*
X8017634Y-15901484D02*
X8017634Y-15920532D01*
X8017634Y-15920532D02*
X8008110Y-15949103D01*
X8008110Y-15949103D02*
X7893824Y-16063389D01*
X7893824Y-16063389D02*
X8017634Y-16063389D01*
X8103348Y-16044341D02*
X8112872Y-16053865D01*
X8112872Y-16053865D02*
X8103348Y-16063389D01*
X8103348Y-16063389D02*
X8093824Y-16053865D01*
X8093824Y-16053865D02*
X8103348Y-16044341D01*
X8103348Y-16044341D02*
X8103348Y-16063389D01*
X8179538Y-15863389D02*
X8312872Y-15863389D01*
X8312872Y-15863389D02*
X8227157Y-16063389D01*
X8427158Y-15863389D02*
X8446205Y-15863389D01*
X8446205Y-15863389D02*
X8465253Y-15872913D01*
X8465253Y-15872913D02*
X8474777Y-15882436D01*
X8474777Y-15882436D02*
X8484300Y-15901484D01*
X8484300Y-15901484D02*
X8493824Y-15939579D01*
X8493824Y-15939579D02*
X8493824Y-15987198D01*
X8493824Y-15987198D02*
X8484300Y-16025293D01*
X8484300Y-16025293D02*
X8474777Y-16044341D01*
X8474777Y-16044341D02*
X8465253Y-16053865D01*
X8465253Y-16053865D02*
X8446205Y-16063389D01*
X8446205Y-16063389D02*
X8427158Y-16063389D01*
X8427158Y-16063389D02*
X8408110Y-16053865D01*
X8408110Y-16053865D02*
X8398586Y-16044341D01*
X8398586Y-16044341D02*
X8389062Y-16025293D01*
X8389062Y-16025293D02*
X8379538Y-15987198D01*
X8379538Y-15987198D02*
X8379538Y-15939579D01*
X8379538Y-15939579D02*
X8389062Y-15901484D01*
X8389062Y-15901484D02*
X8398586Y-15882436D01*
X8398586Y-15882436D02*
X8408110Y-15872913D01*
X8408110Y-15872913D02*
X8427158Y-15863389D01*
X8617634Y-15863389D02*
X8636681Y-15863389D01*
X8636681Y-15863389D02*
X8655729Y-15872913D01*
X8655729Y-15872913D02*
X8665253Y-15882436D01*
X8665253Y-15882436D02*
X8674777Y-15901484D01*
X8674777Y-15901484D02*
X8684300Y-15939579D01*
X8684300Y-15939579D02*
X8684300Y-15987198D01*
X8684300Y-15987198D02*
X8674777Y-16025293D01*
X8674777Y-16025293D02*
X8665253Y-16044341D01*
X8665253Y-16044341D02*
X8655729Y-16053865D01*
X8655729Y-16053865D02*
X8636681Y-16063389D01*
X8636681Y-16063389D02*
X8617634Y-16063389D01*
X8617634Y-16063389D02*
X8598586Y-16053865D01*
X8598586Y-16053865D02*
X8589062Y-16044341D01*
X8589062Y-16044341D02*
X8579539Y-16025293D01*
X8579539Y-16025293D02*
X8570015Y-15987198D01*
X8570015Y-15987198D02*
X8570015Y-15939579D01*
X8570015Y-15939579D02*
X8579539Y-15901484D01*
X8579539Y-15901484D02*
X8589062Y-15882436D01*
X8589062Y-15882436D02*
X8598586Y-15872913D01*
X8598586Y-15872913D02*
X8617634Y-15863389D01*
X8770015Y-16063389D02*
X8770015Y-15930055D01*
X8770015Y-15949103D02*
X8779539Y-15939579D01*
X8779539Y-15939579D02*
X8798586Y-15930055D01*
X8798586Y-15930055D02*
X8827158Y-15930055D01*
X8827158Y-15930055D02*
X8846205Y-15939579D01*
X8846205Y-15939579D02*
X8855729Y-15958627D01*
X8855729Y-15958627D02*
X8855729Y-16063389D01*
X8855729Y-15958627D02*
X8865253Y-15939579D01*
X8865253Y-15939579D02*
X8884300Y-15930055D01*
X8884300Y-15930055D02*
X8912872Y-15930055D01*
X8912872Y-15930055D02*
X8931920Y-15939579D01*
X8931920Y-15939579D02*
X8941443Y-15958627D01*
X8941443Y-15958627D02*
X8941443Y-16063389D01*
X9036681Y-16063389D02*
X9036681Y-15930055D01*
X9036681Y-15949103D02*
X9046205Y-15939579D01*
X9046205Y-15939579D02*
X9065253Y-15930055D01*
X9065253Y-15930055D02*
X9093824Y-15930055D01*
X9093824Y-15930055D02*
X9112872Y-15939579D01*
X9112872Y-15939579D02*
X9122396Y-15958627D01*
X9122396Y-15958627D02*
X9122396Y-16063389D01*
X9122396Y-15958627D02*
X9131920Y-15939579D01*
X9131920Y-15939579D02*
X9150967Y-15930055D01*
X9150967Y-15930055D02*
X9179539Y-15930055D01*
X9179539Y-15930055D02*
X9198586Y-15939579D01*
X9198586Y-15939579D02*
X9208110Y-15958627D01*
X9208110Y-15958627D02*
X9208110Y-16063389D01*
X9598586Y-15853865D02*
X9427158Y-16111008D01*
X9855729Y-15863389D02*
X9874777Y-15863389D01*
X9874777Y-15863389D02*
X9893824Y-15872913D01*
X9893824Y-15872913D02*
X9903348Y-15882436D01*
X9903348Y-15882436D02*
X9912872Y-15901484D01*
X9912872Y-15901484D02*
X9922396Y-15939579D01*
X9922396Y-15939579D02*
X9922396Y-15987198D01*
X9922396Y-15987198D02*
X9912872Y-16025293D01*
X9912872Y-16025293D02*
X9903348Y-16044341D01*
X9903348Y-16044341D02*
X9893824Y-16053865D01*
X9893824Y-16053865D02*
X9874777Y-16063389D01*
X9874777Y-16063389D02*
X9855729Y-16063389D01*
X9855729Y-16063389D02*
X9836682Y-16053865D01*
X9836682Y-16053865D02*
X9827158Y-16044341D01*
X9827158Y-16044341D02*
X9817634Y-16025293D01*
X9817634Y-16025293D02*
X9808110Y-15987198D01*
X9808110Y-15987198D02*
X9808110Y-15939579D01*
X9808110Y-15939579D02*
X9817634Y-15901484D01*
X9817634Y-15901484D02*
X9827158Y-15882436D01*
X9827158Y-15882436D02*
X9836682Y-15872913D01*
X9836682Y-15872913D02*
X9855729Y-15863389D01*
X10008110Y-16044341D02*
X10017634Y-16053865D01*
X10017634Y-16053865D02*
X10008110Y-16063389D01*
X10008110Y-16063389D02*
X9998586Y-16053865D01*
X9998586Y-16053865D02*
X10008110Y-16044341D01*
X10008110Y-16044341D02*
X10008110Y-16063389D01*
X10208110Y-16063389D02*
X10093824Y-16063389D01*
X10150967Y-16063389D02*
X10150967Y-15863389D01*
X10150967Y-15863389D02*
X10131920Y-15891960D01*
X10131920Y-15891960D02*
X10112872Y-15911008D01*
X10112872Y-15911008D02*
X10093824Y-15920532D01*
X10331920Y-15863389D02*
X10350967Y-15863389D01*
X10350967Y-15863389D02*
X10370015Y-15872913D01*
X10370015Y-15872913D02*
X10379539Y-15882436D01*
X10379539Y-15882436D02*
X10389063Y-15901484D01*
X10389063Y-15901484D02*
X10398586Y-15939579D01*
X10398586Y-15939579D02*
X10398586Y-15987198D01*
X10398586Y-15987198D02*
X10389063Y-16025293D01*
X10389063Y-16025293D02*
X10379539Y-16044341D01*
X10379539Y-16044341D02*
X10370015Y-16053865D01*
X10370015Y-16053865D02*
X10350967Y-16063389D01*
X10350967Y-16063389D02*
X10331920Y-16063389D01*
X10331920Y-16063389D02*
X10312872Y-16053865D01*
X10312872Y-16053865D02*
X10303348Y-16044341D01*
X10303348Y-16044341D02*
X10293824Y-16025293D01*
X10293824Y-16025293D02*
X10284301Y-15987198D01*
X10284301Y-15987198D02*
X10284301Y-15939579D01*
X10284301Y-15939579D02*
X10293824Y-15901484D01*
X10293824Y-15901484D02*
X10303348Y-15882436D01*
X10303348Y-15882436D02*
X10312872Y-15872913D01*
X10312872Y-15872913D02*
X10331920Y-15863389D01*
X10570015Y-15863389D02*
X10531920Y-15863389D01*
X10531920Y-15863389D02*
X10512872Y-15872913D01*
X10512872Y-15872913D02*
X10503348Y-15882436D01*
X10503348Y-15882436D02*
X10484301Y-15911008D01*
X10484301Y-15911008D02*
X10474777Y-15949103D01*
X10474777Y-15949103D02*
X10474777Y-16025293D01*
X10474777Y-16025293D02*
X10484301Y-16044341D01*
X10484301Y-16044341D02*
X10493824Y-16053865D01*
X10493824Y-16053865D02*
X10512872Y-16063389D01*
X10512872Y-16063389D02*
X10550967Y-16063389D01*
X10550967Y-16063389D02*
X10570015Y-16053865D01*
X10570015Y-16053865D02*
X10579539Y-16044341D01*
X10579539Y-16044341D02*
X10589063Y-16025293D01*
X10589063Y-16025293D02*
X10589063Y-15977674D01*
X10589063Y-15977674D02*
X10579539Y-15958627D01*
X10579539Y-15958627D02*
X10570015Y-15949103D01*
X10570015Y-15949103D02*
X10550967Y-15939579D01*
X10550967Y-15939579D02*
X10512872Y-15939579D01*
X10512872Y-15939579D02*
X10493824Y-15949103D01*
X10493824Y-15949103D02*
X10484301Y-15958627D01*
X10484301Y-15958627D02*
X10474777Y-15977674D01*
X10655729Y-15863389D02*
X10779539Y-15863389D01*
X10779539Y-15863389D02*
X10712872Y-15939579D01*
X10712872Y-15939579D02*
X10741444Y-15939579D01*
X10741444Y-15939579D02*
X10760491Y-15949103D01*
X10760491Y-15949103D02*
X10770015Y-15958627D01*
X10770015Y-15958627D02*
X10779539Y-15977674D01*
X10779539Y-15977674D02*
X10779539Y-16025293D01*
X10779539Y-16025293D02*
X10770015Y-16044341D01*
X10770015Y-16044341D02*
X10760491Y-16053865D01*
X10760491Y-16053865D02*
X10741444Y-16063389D01*
X10741444Y-16063389D02*
X10684301Y-16063389D01*
X10684301Y-16063389D02*
X10665253Y-16053865D01*
X10665253Y-16053865D02*
X10655729Y-16044341D01*
X10855729Y-15863389D02*
X10855729Y-15901484D01*
X10931920Y-15863389D02*
X10931920Y-15901484D01*
X11227158Y-16139579D02*
X11217634Y-16130055D01*
X11217634Y-16130055D02*
X11198586Y-16101484D01*
X11198586Y-16101484D02*
X11189063Y-16082436D01*
X11189063Y-16082436D02*
X11179539Y-16053865D01*
X11179539Y-16053865D02*
X11170015Y-16006246D01*
X11170015Y-16006246D02*
X11170015Y-15968151D01*
X11170015Y-15968151D02*
X11179539Y-15920532D01*
X11179539Y-15920532D02*
X11189063Y-15891960D01*
X11189063Y-15891960D02*
X11198586Y-15872913D01*
X11198586Y-15872913D02*
X11217634Y-15844341D01*
X11217634Y-15844341D02*
X11227158Y-15834817D01*
X11284301Y-15863389D02*
X11408110Y-15863389D01*
X11408110Y-15863389D02*
X11341443Y-15939579D01*
X11341443Y-15939579D02*
X11370015Y-15939579D01*
X11370015Y-15939579D02*
X11389063Y-15949103D01*
X11389063Y-15949103D02*
X11398586Y-15958627D01*
X11398586Y-15958627D02*
X11408110Y-15977674D01*
X11408110Y-15977674D02*
X11408110Y-16025293D01*
X11408110Y-16025293D02*
X11398586Y-16044341D01*
X11398586Y-16044341D02*
X11389063Y-16053865D01*
X11389063Y-16053865D02*
X11370015Y-16063389D01*
X11370015Y-16063389D02*
X11312872Y-16063389D01*
X11312872Y-16063389D02*
X11293824Y-16053865D01*
X11293824Y-16053865D02*
X11284301Y-16044341D01*
X11646205Y-16063389D02*
X11646205Y-15863389D01*
X11731920Y-16063389D02*
X11731920Y-15958627D01*
X11731920Y-15958627D02*
X11722396Y-15939579D01*
X11722396Y-15939579D02*
X11703348Y-15930055D01*
X11703348Y-15930055D02*
X11674777Y-15930055D01*
X11674777Y-15930055D02*
X11655729Y-15939579D01*
X11655729Y-15939579D02*
X11646205Y-15949103D01*
X11855729Y-16063389D02*
X11836682Y-16053865D01*
X11836682Y-16053865D02*
X11827158Y-16044341D01*
X11827158Y-16044341D02*
X11817634Y-16025293D01*
X11817634Y-16025293D02*
X11817634Y-15968151D01*
X11817634Y-15968151D02*
X11827158Y-15949103D01*
X11827158Y-15949103D02*
X11836682Y-15939579D01*
X11836682Y-15939579D02*
X11855729Y-15930055D01*
X11855729Y-15930055D02*
X11884301Y-15930055D01*
X11884301Y-15930055D02*
X11903348Y-15939579D01*
X11903348Y-15939579D02*
X11912872Y-15949103D01*
X11912872Y-15949103D02*
X11922396Y-15968151D01*
X11922396Y-15968151D02*
X11922396Y-16025293D01*
X11922396Y-16025293D02*
X11912872Y-16044341D01*
X11912872Y-16044341D02*
X11903348Y-16053865D01*
X11903348Y-16053865D02*
X11884301Y-16063389D01*
X11884301Y-16063389D02*
X11855729Y-16063389D01*
X12036682Y-16063389D02*
X12017634Y-16053865D01*
X12017634Y-16053865D02*
X12008110Y-16034817D01*
X12008110Y-16034817D02*
X12008110Y-15863389D01*
X12189063Y-16053865D02*
X12170015Y-16063389D01*
X12170015Y-16063389D02*
X12131920Y-16063389D01*
X12131920Y-16063389D02*
X12112872Y-16053865D01*
X12112872Y-16053865D02*
X12103348Y-16034817D01*
X12103348Y-16034817D02*
X12103348Y-15958627D01*
X12103348Y-15958627D02*
X12112872Y-15939579D01*
X12112872Y-15939579D02*
X12131920Y-15930055D01*
X12131920Y-15930055D02*
X12170015Y-15930055D01*
X12170015Y-15930055D02*
X12189063Y-15939579D01*
X12189063Y-15939579D02*
X12198586Y-15958627D01*
X12198586Y-15958627D02*
X12198586Y-15977674D01*
X12198586Y-15977674D02*
X12103348Y-15996722D01*
X12274777Y-16053865D02*
X12293825Y-16063389D01*
X12293825Y-16063389D02*
X12331920Y-16063389D01*
X12331920Y-16063389D02*
X12350967Y-16053865D01*
X12350967Y-16053865D02*
X12360491Y-16034817D01*
X12360491Y-16034817D02*
X12360491Y-16025293D01*
X12360491Y-16025293D02*
X12350967Y-16006246D01*
X12350967Y-16006246D02*
X12331920Y-15996722D01*
X12331920Y-15996722D02*
X12303348Y-15996722D01*
X12303348Y-15996722D02*
X12284301Y-15987198D01*
X12284301Y-15987198D02*
X12274777Y-15968151D01*
X12274777Y-15968151D02*
X12274777Y-15958627D01*
X12274777Y-15958627D02*
X12284301Y-15939579D01*
X12284301Y-15939579D02*
X12303348Y-15930055D01*
X12303348Y-15930055D02*
X12331920Y-15930055D01*
X12331920Y-15930055D02*
X12350967Y-15939579D01*
X12427158Y-16139579D02*
X12436682Y-16130055D01*
X12436682Y-16130055D02*
X12455729Y-16101484D01*
X12455729Y-16101484D02*
X12465253Y-16082436D01*
X12465253Y-16082436D02*
X12474777Y-16053865D01*
X12474777Y-16053865D02*
X12484301Y-16006246D01*
X12484301Y-16006246D02*
X12484301Y-15968151D01*
X12484301Y-15968151D02*
X12474777Y-15920532D01*
X12474777Y-15920532D02*
X12465253Y-15891960D01*
X12465253Y-15891960D02*
X12455729Y-15872913D01*
X12455729Y-15872913D02*
X12436682Y-15844341D01*
X12436682Y-15844341D02*
X12427158Y-15834817D01*
X12789063Y-16139579D02*
X12779539Y-16130055D01*
X12779539Y-16130055D02*
X12760491Y-16101484D01*
X12760491Y-16101484D02*
X12750967Y-16082436D01*
X12750967Y-16082436D02*
X12741444Y-16053865D01*
X12741444Y-16053865D02*
X12731920Y-16006246D01*
X12731920Y-16006246D02*
X12731920Y-15968151D01*
X12731920Y-15968151D02*
X12741444Y-15920532D01*
X12741444Y-15920532D02*
X12750967Y-15891960D01*
X12750967Y-15891960D02*
X12760491Y-15872913D01*
X12760491Y-15872913D02*
X12779539Y-15844341D01*
X12779539Y-15844341D02*
X12789063Y-15834817D01*
X12865253Y-15930055D02*
X12865253Y-16063389D01*
X12865253Y-15949103D02*
X12874777Y-15939579D01*
X12874777Y-15939579D02*
X12893825Y-15930055D01*
X12893825Y-15930055D02*
X12922396Y-15930055D01*
X12922396Y-15930055D02*
X12941444Y-15939579D01*
X12941444Y-15939579D02*
X12950967Y-15958627D01*
X12950967Y-15958627D02*
X12950967Y-16063389D01*
X13074777Y-16063389D02*
X13055729Y-16053865D01*
X13055729Y-16053865D02*
X13046206Y-16044341D01*
X13046206Y-16044341D02*
X13036682Y-16025293D01*
X13036682Y-16025293D02*
X13036682Y-15968151D01*
X13036682Y-15968151D02*
X13046206Y-15949103D01*
X13046206Y-15949103D02*
X13055729Y-15939579D01*
X13055729Y-15939579D02*
X13074777Y-15930055D01*
X13074777Y-15930055D02*
X13103348Y-15930055D01*
X13103348Y-15930055D02*
X13122396Y-15939579D01*
X13122396Y-15939579D02*
X13131920Y-15949103D01*
X13131920Y-15949103D02*
X13141444Y-15968151D01*
X13141444Y-15968151D02*
X13141444Y-16025293D01*
X13141444Y-16025293D02*
X13131920Y-16044341D01*
X13131920Y-16044341D02*
X13122396Y-16053865D01*
X13122396Y-16053865D02*
X13103348Y-16063389D01*
X13103348Y-16063389D02*
X13074777Y-16063389D01*
X13198587Y-15930055D02*
X13274777Y-15930055D01*
X13227158Y-15863389D02*
X13227158Y-16034817D01*
X13227158Y-16034817D02*
X13236682Y-16053865D01*
X13236682Y-16053865D02*
X13255729Y-16063389D01*
X13255729Y-16063389D02*
X13274777Y-16063389D01*
X13493825Y-15930055D02*
X13493825Y-16130055D01*
X13493825Y-15939579D02*
X13512872Y-15930055D01*
X13512872Y-15930055D02*
X13550968Y-15930055D01*
X13550968Y-15930055D02*
X13570015Y-15939579D01*
X13570015Y-15939579D02*
X13579539Y-15949103D01*
X13579539Y-15949103D02*
X13589063Y-15968151D01*
X13589063Y-15968151D02*
X13589063Y-16025293D01*
X13589063Y-16025293D02*
X13579539Y-16044341D01*
X13579539Y-16044341D02*
X13570015Y-16053865D01*
X13570015Y-16053865D02*
X13550968Y-16063389D01*
X13550968Y-16063389D02*
X13512872Y-16063389D01*
X13512872Y-16063389D02*
X13493825Y-16053865D01*
X13703348Y-16063389D02*
X13684301Y-16053865D01*
X13684301Y-16053865D02*
X13674777Y-16034817D01*
X13674777Y-16034817D02*
X13674777Y-15863389D01*
X13865253Y-16063389D02*
X13865253Y-15958627D01*
X13865253Y-15958627D02*
X13855729Y-15939579D01*
X13855729Y-15939579D02*
X13836682Y-15930055D01*
X13836682Y-15930055D02*
X13798587Y-15930055D01*
X13798587Y-15930055D02*
X13779539Y-15939579D01*
X13865253Y-16053865D02*
X13846206Y-16063389D01*
X13846206Y-16063389D02*
X13798587Y-16063389D01*
X13798587Y-16063389D02*
X13779539Y-16053865D01*
X13779539Y-16053865D02*
X13770015Y-16034817D01*
X13770015Y-16034817D02*
X13770015Y-16015770D01*
X13770015Y-16015770D02*
X13779539Y-15996722D01*
X13779539Y-15996722D02*
X13798587Y-15987198D01*
X13798587Y-15987198D02*
X13846206Y-15987198D01*
X13846206Y-15987198D02*
X13865253Y-15977674D01*
X13931920Y-15930055D02*
X14008110Y-15930055D01*
X13960491Y-15863389D02*
X13960491Y-16034817D01*
X13960491Y-16034817D02*
X13970015Y-16053865D01*
X13970015Y-16053865D02*
X13989063Y-16063389D01*
X13989063Y-16063389D02*
X14008110Y-16063389D01*
X14150968Y-16053865D02*
X14131920Y-16063389D01*
X14131920Y-16063389D02*
X14093825Y-16063389D01*
X14093825Y-16063389D02*
X14074777Y-16053865D01*
X14074777Y-16053865D02*
X14065253Y-16034817D01*
X14065253Y-16034817D02*
X14065253Y-15958627D01*
X14065253Y-15958627D02*
X14074777Y-15939579D01*
X14074777Y-15939579D02*
X14093825Y-15930055D01*
X14093825Y-15930055D02*
X14131920Y-15930055D01*
X14131920Y-15930055D02*
X14150968Y-15939579D01*
X14150968Y-15939579D02*
X14160491Y-15958627D01*
X14160491Y-15958627D02*
X14160491Y-15977674D01*
X14160491Y-15977674D02*
X14065253Y-15996722D01*
X14331920Y-16063389D02*
X14331920Y-15863389D01*
X14331920Y-16053865D02*
X14312872Y-16063389D01*
X14312872Y-16063389D02*
X14274777Y-16063389D01*
X14274777Y-16063389D02*
X14255729Y-16053865D01*
X14255729Y-16053865D02*
X14246206Y-16044341D01*
X14246206Y-16044341D02*
X14236682Y-16025293D01*
X14236682Y-16025293D02*
X14236682Y-15968151D01*
X14236682Y-15968151D02*
X14246206Y-15949103D01*
X14246206Y-15949103D02*
X14255729Y-15939579D01*
X14255729Y-15939579D02*
X14274777Y-15930055D01*
X14274777Y-15930055D02*
X14312872Y-15930055D01*
X14312872Y-15930055D02*
X14331920Y-15939579D01*
X14408110Y-16139579D02*
X14417634Y-16130055D01*
X14417634Y-16130055D02*
X14436682Y-16101484D01*
X14436682Y-16101484D02*
X14446206Y-16082436D01*
X14446206Y-16082436D02*
X14455729Y-16053865D01*
X14455729Y-16053865D02*
X14465253Y-16006246D01*
X14465253Y-16006246D02*
X14465253Y-15968151D01*
X14465253Y-15968151D02*
X14455729Y-15920532D01*
X14455729Y-15920532D02*
X14446206Y-15891960D01*
X14446206Y-15891960D02*
X14436682Y-15872913D01*
X14436682Y-15872913D02*
X14417634Y-15844341D01*
X14417634Y-15844341D02*
X14408110Y-15834817D01*
M02*
