M48
; DRILL file {KiCad 9.0.8-1.fc43} date 2026-04-18T22:42:33+0100
; FORMAT={-:-/ absolute / metric / decimal}
; #@! TF.CreationDate,2026-04-18T22:42:33+01:00
; #@! TF.GenerationSoftware,Kicad,Pcbnew,9.0.8-1.fc43
; #@! TF.FileFunction,Plated,1,4,PTH
FMAT,2
METRIC
; #@! TA.AperFunction,Plated,PTH,ComponentDrill
T1C0.800
; #@! TA.AperFunction,Plated,PTH,ComponentDrill
T2C2.000
%
G90
G05
T1
X81.8Y-103.4
X81.8Y-107.4
X81.8Y-111.4
X81.8Y-115.4
X81.84Y-121.0
X81.84Y-125.0
X81.84Y-129.0
X81.84Y-133.0
X81.85Y-86.05
X81.85Y-90.05
X81.85Y-94.05
X81.85Y-98.05
X83.05Y-50.2
X83.05Y-54.2
X83.05Y-58.2
X83.05Y-62.2
X83.1Y-31.7
X83.1Y-35.7
X83.1Y-39.7
X83.1Y-43.7
X83.9Y-68.35
X83.9Y-72.35
X83.9Y-76.35
X83.9Y-80.35
X84.8Y-103.4
X84.8Y-107.4
X84.8Y-111.4
X84.8Y-115.4
X84.84Y-121.0
X84.84Y-125.0
X84.84Y-129.0
X84.84Y-133.0
X84.85Y-86.05
X84.85Y-90.05
X84.85Y-94.05
X84.85Y-98.05
X86.05Y-50.2
X86.05Y-54.2
X86.05Y-58.2
X86.05Y-62.2
X86.1Y-31.7
X86.1Y-35.7
X86.1Y-39.7
X86.1Y-43.7
X86.9Y-68.35
X86.9Y-72.35
X86.9Y-76.35
X86.9Y-80.35
X94.29Y-44.81
X94.29Y-47.35
X94.29Y-49.89
X94.29Y-52.43
X94.29Y-54.97
X94.29Y-57.51
X94.29Y-60.05
X94.31Y-71.17
X94.31Y-73.71
X94.31Y-76.25
X94.31Y-78.79
X94.31Y-81.33
X94.31Y-83.87
X94.31Y-86.41
X94.35Y-134.7
X94.41Y-113.04
X94.41Y-115.58
X94.41Y-118.12
X94.41Y-120.66
X94.41Y-123.2
X94.41Y-125.74
X94.41Y-128.28
X94.42Y-92.54
X94.42Y-95.08
X94.42Y-97.62
X94.42Y-100.16
X94.42Y-102.7
X94.42Y-105.24
X94.42Y-107.78
X94.55Y-35.55
X101.91Y-44.81
X101.91Y-47.35
X101.91Y-49.89
X101.91Y-52.43
X101.91Y-54.97
X101.91Y-57.51
X101.91Y-60.05
X101.93Y-71.17
X101.93Y-73.71
X101.93Y-76.25
X101.93Y-78.79
X101.93Y-81.33
X101.93Y-83.87
X101.93Y-86.41
X101.95Y-35.55
X102.03Y-113.04
X102.03Y-115.58
X102.03Y-118.12
X102.03Y-120.66
X102.03Y-123.2
X102.03Y-125.74
X102.03Y-128.28
X102.04Y-92.54
X102.04Y-95.08
X102.04Y-97.62
X102.04Y-100.16
X102.04Y-102.7
X102.04Y-105.24
X102.04Y-107.78
X102.15Y-134.72
X104.5Y-92.6
X104.547Y-71.3
X104.55Y-44.8
X104.56Y-30.36
X107.047Y-71.3
X107.1Y-92.6
X107.1Y-113.05
X107.2Y-44.8
X110.15Y-108.8
X111.6Y-137.3
X113.25Y-57.5
X113.25Y-61.0
X113.25Y-64.0
X113.25Y-67.5
X113.6Y-96.15
X113.6Y-98.7
X113.6Y-101.25
X113.6Y-103.8
X116.14Y-43.73
X116.2Y-33.8
X117.7Y-96.15
X117.7Y-98.69
X117.7Y-101.23
X117.7Y-103.77
X117.7Y-106.31
X117.7Y-108.85
X117.7Y-111.39
X117.7Y-113.93
X117.78Y-131.46
X117.843Y-117.534
X117.85Y-137.3
X118.08Y-53.182
X119.77Y-33.69
X119.77Y-36.23
X119.77Y-38.77
X119.77Y-41.31
X119.77Y-43.85
X119.77Y-46.39
X119.77Y-48.93
X124.2Y-137.25
X125.32Y-96.15
X125.32Y-98.69
X125.32Y-101.23
X125.32Y-103.77
X125.32Y-106.31
X125.32Y-108.85
X125.32Y-111.39
X125.32Y-113.93
X127.39Y-33.69
X127.39Y-36.23
X127.39Y-38.77
X127.39Y-41.31
X127.39Y-43.85
X127.39Y-46.39
X127.39Y-48.93
X130.9Y-46.5
X130.9Y-49.0
X131.0Y-36.4
X131.5Y-96.1
X131.5Y-98.65
X131.5Y-101.2
X131.5Y-103.7
X131.65Y-70.55
X131.65Y-74.0
X131.65Y-77.0
X131.65Y-80.05
X135.59Y-96.11
X135.59Y-98.65
X135.59Y-101.19
X135.59Y-103.73
X135.59Y-106.27
X135.59Y-108.81
X135.59Y-111.35
X135.59Y-113.89
X135.6Y-36.19
X135.6Y-38.74
X135.6Y-41.29
X135.6Y-43.79
X135.6Y-31.2
X135.6Y-46.5
X137.19Y-131.35
X139.05Y-31.14
X139.05Y-33.68
X139.05Y-36.22
X139.05Y-38.76
X139.05Y-41.3
X139.05Y-43.84
X139.05Y-46.38
X139.05Y-48.92
X143.21Y-96.11
X143.21Y-98.65
X143.21Y-101.19
X143.21Y-103.73
X143.21Y-106.27
X143.21Y-108.81
X143.21Y-111.35
X143.21Y-113.89
X144.92Y-131.59
X146.67Y-31.14
X146.67Y-33.68
X146.67Y-36.22
X146.67Y-38.76
X146.67Y-41.3
X146.67Y-43.84
X146.67Y-46.38
X146.67Y-48.92
X148.17Y-107.57
X148.18Y-126.63
X148.65Y-96.15
X148.66Y-93.6
X149.8Y-36.24
X149.8Y-38.74
X149.8Y-41.34
X149.8Y-43.84
X149.81Y-48.96
X149.87Y-33.72
X151.2Y-93.6
X151.26Y-83.05
X153.77Y-124.12
X153.78Y-116.52
X153.78Y-119.02
X153.78Y-121.56
X153.8Y-106.32
X153.8Y-111.4
X153.8Y-113.92
X153.8Y-126.73
X153.81Y-103.75
X153.81Y-108.83
X153.84Y-73.82
X153.84Y-101.22
X153.85Y-70.53
X153.85Y-98.61
X153.86Y-57.55
X153.86Y-64.01
X153.877Y-60.579
X153.89Y-67.26
X153.89Y-77.06
X153.89Y-80.0
X154.07Y-31.3
X154.1Y-36.29
X154.1Y-38.89
X154.1Y-41.39
X154.1Y-43.89
X154.1Y-46.4
X156.46Y-85.0
X157.29Y-31.2
X157.29Y-33.74
X157.29Y-36.28
X157.29Y-38.82
X157.29Y-41.36
X157.29Y-43.9
X157.29Y-46.44
X157.29Y-48.98
X158.9Y-88.57
X158.9Y-91.11
X158.9Y-93.65
X158.9Y-96.19
X158.9Y-98.73
X158.9Y-101.27
X158.9Y-103.81
X158.9Y-106.35
X158.9Y-108.89
X158.9Y-111.43
X158.9Y-113.97
X158.9Y-116.51
X158.9Y-119.05
X158.9Y-121.59
X158.9Y-124.13
X158.9Y-126.67
X158.9Y-129.21
X158.9Y-131.75
X158.9Y-134.29
X158.9Y-136.83
X164.91Y-31.2
X164.91Y-33.74
X164.91Y-36.28
X164.91Y-38.82
X164.91Y-41.36
X164.91Y-43.9
X164.91Y-46.44
X164.91Y-48.98
X168.0Y-36.24
X168.0Y-38.74
X168.0Y-41.34
X168.0Y-43.84
X168.0Y-49.05
X168.1Y-33.8
X174.14Y-88.57
X174.14Y-91.11
X174.14Y-93.65
X174.14Y-96.19
X174.14Y-98.73
X174.14Y-101.27
X174.14Y-103.81
X174.14Y-106.35
X174.14Y-108.89
X174.14Y-111.43
X174.14Y-113.97
X174.14Y-116.51
X174.14Y-119.05
X174.14Y-121.59
X174.14Y-124.13
X174.14Y-126.67
X174.14Y-129.21
X174.14Y-131.75
X174.14Y-134.29
X174.14Y-136.83
X175.79Y-45.31
X175.797Y-71.686
X175.8Y-64.45
X175.85Y-54.94
X176.797Y-84.85
X177.59Y-142.59
X177.88Y-126.74
X180.7Y-136.83
X180.75Y-64.45
X180.75Y-147.4
X180.77Y-71.69
X181.56Y-120.35
X184.5Y-136.87
X184.55Y-147.35
X187.93Y-139.02
X187.96Y-134.25
X192.48Y-128.68
X192.48Y-131.22
X192.48Y-133.76
X192.48Y-136.3
X192.48Y-138.84
X192.48Y-141.38
X192.48Y-143.92
X200.1Y-128.68
X200.1Y-131.22
X200.1Y-133.76
X200.1Y-136.3
X200.1Y-138.84
X200.1Y-141.38
X200.1Y-143.92
X207.67Y-128.62
X207.67Y-131.16
X207.67Y-133.7
X207.67Y-136.24
X207.67Y-138.78
X207.67Y-141.32
X207.67Y-143.86
X212.9Y-111.1
X215.29Y-128.62
X215.29Y-131.16
X215.29Y-133.7
X215.29Y-136.24
X215.29Y-138.78
X215.29Y-141.32
X215.29Y-143.86
X219.2Y-141.75
X219.22Y-134.47
X220.7Y-111.1
X221.05Y-147.45
X221.13Y-141.76
X223.395Y-136.14
X223.395Y-138.68
X223.395Y-141.22
X223.395Y-143.76
X224.1Y-128.82
X226.09Y-123.95
X231.015Y-136.14
X231.015Y-138.68
X231.015Y-141.22
X231.015Y-143.76
X233.84Y-147.28
X233.86Y-138.75
X236.34Y-151.18
X236.35Y-143.8
X239.297Y-115.186
X239.32Y-107.52
T2
X191.45Y-36.4
X191.45Y-47.6
X191.5Y-58.6
X191.5Y-69.6
X191.7Y-83.8
X191.7Y-95.0
X191.7Y-105.8
X191.7Y-116.6
X196.15Y-36.4
X196.15Y-47.6
X196.2Y-58.6
X196.2Y-69.6
X196.4Y-83.8
X196.4Y-95.0
X196.4Y-105.8
X196.4Y-116.6
X200.85Y-36.4
X200.85Y-47.6
X200.9Y-58.6
X200.9Y-69.6
X201.1Y-83.8
X201.1Y-95.0
X201.1Y-105.8
X201.1Y-116.6
X221.19Y-116.55
X221.22Y-83.95
X221.3Y-47.54
X221.32Y-57.99
X221.33Y-95.0
X221.33Y-105.91
X221.34Y-36.41
X221.38Y-69.58
X225.89Y-116.55
X225.92Y-83.95
X226.0Y-47.54
X226.02Y-57.99
X226.03Y-95.0
X226.03Y-105.91
X226.04Y-36.41
X226.08Y-69.58
X230.59Y-116.55
X230.62Y-83.95
X230.7Y-47.54
X230.72Y-57.99
X230.73Y-95.0
X230.73Y-105.91
X230.74Y-36.41
X230.78Y-69.58
M30
