G04 #@! TF.GenerationSoftware,KiCad,Pcbnew,9.0.8-1.fc43*
G04 #@! TF.CreationDate,2026-04-15T12:42:36+01:00*
G04 #@! TF.ProjectId,Scrumpi_JN,53637275-6d70-4695-9f4a-4e2e6b696361,rev?*
G04 #@! TF.SameCoordinates,Original*
G04 #@! TF.FileFunction,Copper,L1,Top*
G04 #@! TF.FilePolarity,Positive*
%FSLAX46Y46*%
G04 Gerber Fmt 4.6, Leading zero omitted, Abs format (unit mm)*
G04 Created by KiCad (PCBNEW 9.0.8-1.fc43) date 2026-04-15 12:42:36*
%MOMM*%
%LPD*%
G01*
G04 APERTURE LIST*
G04 #@! TA.AperFunction,NonConductor*
%ADD10C,0.254000*%
G04 #@! TD*
%ADD11C,0.150000*%
G04 #@! TA.AperFunction,NonConductor*
%ADD12C,0.150000*%
G04 #@! TD*
%ADD13C,0.304800*%
G04 #@! TA.AperFunction,NonConductor*
%ADD14C,0.304800*%
G04 #@! TD*
%ADD15C,0.500000*%
G04 #@! TA.AperFunction,NonConductor*
%ADD16C,0.500000*%
G04 #@! TD*
G04 #@! TA.AperFunction,ComponentPad*
%ADD17C,1.800000*%
G04 #@! TD*
G04 #@! TA.AperFunction,ComponentPad*
%ADD18C,1.600000*%
G04 #@! TD*
G04 #@! TA.AperFunction,ComponentPad*
%ADD19O,2.400000X1.600000*%
G04 #@! TD*
G04 #@! TA.AperFunction,ComponentPad*
%ADD20O,3.000000X5.000000*%
G04 #@! TD*
G04 #@! TA.AperFunction,ComponentPad*
%ADD21C,2.000000*%
G04 #@! TD*
G04 #@! TA.AperFunction,Conductor*
%ADD22C,0.400000*%
G04 #@! TD*
G04 #@! TA.AperFunction,Conductor*
%ADD23C,0.600000*%
G04 #@! TD*
G04 APERTURE END LIST*
D10*
X73700000Y-23325000D02*
X244900000Y-23325000D01*
X244900000Y-156250000D01*
X73700000Y-156250000D01*
X73700000Y-23325000D01*
D11*
D12*
X180558297Y-37294163D02*
X180558297Y-36579878D01*
X180558297Y-36579878D02*
X180605916Y-36437021D01*
X180605916Y-36437021D02*
X180701154Y-36341783D01*
X180701154Y-36341783D02*
X180844011Y-36294163D01*
X180844011Y-36294163D02*
X180939249Y-36294163D01*
X179605916Y-36294163D02*
X180082106Y-36294163D01*
X180082106Y-36294163D02*
X180082106Y-37294163D01*
X178701154Y-36389402D02*
X178748773Y-36341783D01*
X178748773Y-36341783D02*
X178891630Y-36294163D01*
X178891630Y-36294163D02*
X178986868Y-36294163D01*
X178986868Y-36294163D02*
X179129725Y-36341783D01*
X179129725Y-36341783D02*
X179224963Y-36437021D01*
X179224963Y-36437021D02*
X179272582Y-36532259D01*
X179272582Y-36532259D02*
X179320201Y-36722735D01*
X179320201Y-36722735D02*
X179320201Y-36865592D01*
X179320201Y-36865592D02*
X179272582Y-37056068D01*
X179272582Y-37056068D02*
X179224963Y-37151306D01*
X179224963Y-37151306D02*
X179129725Y-37246544D01*
X179129725Y-37246544D02*
X178986868Y-37294163D01*
X178986868Y-37294163D02*
X178891630Y-37294163D01*
X178891630Y-37294163D02*
X178748773Y-37246544D01*
X178748773Y-37246544D02*
X178701154Y-37198925D01*
X177986868Y-37294163D02*
X177986868Y-36579878D01*
X177986868Y-36579878D02*
X178034487Y-36437021D01*
X178034487Y-36437021D02*
X178129725Y-36341783D01*
X178129725Y-36341783D02*
X178272582Y-36294163D01*
X178272582Y-36294163D02*
X178367820Y-36294163D01*
X177034487Y-36294163D02*
X177510677Y-36294163D01*
X177510677Y-36294163D02*
X177510677Y-37294163D01*
X176129725Y-36389402D02*
X176177344Y-36341783D01*
X176177344Y-36341783D02*
X176320201Y-36294163D01*
X176320201Y-36294163D02*
X176415439Y-36294163D01*
X176415439Y-36294163D02*
X176558296Y-36341783D01*
X176558296Y-36341783D02*
X176653534Y-36437021D01*
X176653534Y-36437021D02*
X176701153Y-36532259D01*
X176701153Y-36532259D02*
X176748772Y-36722735D01*
X176748772Y-36722735D02*
X176748772Y-36865592D01*
X176748772Y-36865592D02*
X176701153Y-37056068D01*
X176701153Y-37056068D02*
X176653534Y-37151306D01*
X176653534Y-37151306D02*
X176558296Y-37246544D01*
X176558296Y-37246544D02*
X176415439Y-37294163D01*
X176415439Y-37294163D02*
X176320201Y-37294163D01*
X176320201Y-37294163D02*
X176177344Y-37246544D01*
X176177344Y-37246544D02*
X176129725Y-37198925D01*
X175415439Y-37294163D02*
X175415439Y-36579878D01*
X175415439Y-36579878D02*
X175463058Y-36437021D01*
X175463058Y-36437021D02*
X175558296Y-36341783D01*
X175558296Y-36341783D02*
X175701153Y-36294163D01*
X175701153Y-36294163D02*
X175796391Y-36294163D01*
X174463058Y-36294163D02*
X174939248Y-36294163D01*
X174939248Y-36294163D02*
X174939248Y-37294163D01*
X173558296Y-36389402D02*
X173605915Y-36341783D01*
X173605915Y-36341783D02*
X173748772Y-36294163D01*
X173748772Y-36294163D02*
X173844010Y-36294163D01*
X173844010Y-36294163D02*
X173986867Y-36341783D01*
X173986867Y-36341783D02*
X174082105Y-36437021D01*
X174082105Y-36437021D02*
X174129724Y-36532259D01*
X174129724Y-36532259D02*
X174177343Y-36722735D01*
X174177343Y-36722735D02*
X174177343Y-36865592D01*
X174177343Y-36865592D02*
X174129724Y-37056068D01*
X174129724Y-37056068D02*
X174082105Y-37151306D01*
X174082105Y-37151306D02*
X173986867Y-37246544D01*
X173986867Y-37246544D02*
X173844010Y-37294163D01*
X173844010Y-37294163D02*
X173748772Y-37294163D01*
X173748772Y-37294163D02*
X173605915Y-37246544D01*
X173605915Y-37246544D02*
X173558296Y-37198925D01*
X172844010Y-37294163D02*
X172844010Y-36579878D01*
X172844010Y-36579878D02*
X172891629Y-36437021D01*
X172891629Y-36437021D02*
X172986867Y-36341783D01*
X172986867Y-36341783D02*
X173129724Y-36294163D01*
X173129724Y-36294163D02*
X173224962Y-36294163D01*
X171891629Y-36294163D02*
X172367819Y-36294163D01*
X172367819Y-36294163D02*
X172367819Y-37294163D01*
X170986867Y-36389402D02*
X171034486Y-36341783D01*
X171034486Y-36341783D02*
X171177343Y-36294163D01*
X171177343Y-36294163D02*
X171272581Y-36294163D01*
X171272581Y-36294163D02*
X171415438Y-36341783D01*
X171415438Y-36341783D02*
X171510676Y-36437021D01*
X171510676Y-36437021D02*
X171558295Y-36532259D01*
X171558295Y-36532259D02*
X171605914Y-36722735D01*
X171605914Y-36722735D02*
X171605914Y-36865592D01*
X171605914Y-36865592D02*
X171558295Y-37056068D01*
X171558295Y-37056068D02*
X171510676Y-37151306D01*
X171510676Y-37151306D02*
X171415438Y-37246544D01*
X171415438Y-37246544D02*
X171272581Y-37294163D01*
X171272581Y-37294163D02*
X171177343Y-37294163D01*
X171177343Y-37294163D02*
X171034486Y-37246544D01*
X171034486Y-37246544D02*
X170986867Y-37198925D01*
D13*
D14*
X208556979Y-32265341D02*
X208556979Y-31176770D01*
X208556979Y-31176770D02*
X208629550Y-30959055D01*
X208629550Y-30959055D02*
X208774693Y-30813913D01*
X208774693Y-30813913D02*
X208992407Y-30741341D01*
X208992407Y-30741341D02*
X209137550Y-30741341D01*
X207032979Y-30741341D02*
X207903836Y-30741341D01*
X207468407Y-30741341D02*
X207468407Y-32265341D01*
X207468407Y-32265341D02*
X207613550Y-32047627D01*
X207613550Y-32047627D02*
X207758693Y-31902484D01*
X207758693Y-31902484D02*
X207903836Y-31829913D01*
D15*
D16*
X235764939Y-30994983D02*
X235193510Y-30804506D01*
X235193510Y-30804506D02*
X234241129Y-30804506D01*
X234241129Y-30804506D02*
X233860177Y-30994983D01*
X233860177Y-30994983D02*
X233669701Y-31185459D01*
X233669701Y-31185459D02*
X233479224Y-31566411D01*
X233479224Y-31566411D02*
X233479224Y-31947363D01*
X233479224Y-31947363D02*
X233669701Y-32328316D01*
X233669701Y-32328316D02*
X233860177Y-32518792D01*
X233860177Y-32518792D02*
X234241129Y-32709268D01*
X234241129Y-32709268D02*
X235003034Y-32899744D01*
X235003034Y-32899744D02*
X235383986Y-33090221D01*
X235383986Y-33090221D02*
X235574463Y-33280697D01*
X235574463Y-33280697D02*
X235764939Y-33661649D01*
X235764939Y-33661649D02*
X235764939Y-34042602D01*
X235764939Y-34042602D02*
X235574463Y-34423554D01*
X235574463Y-34423554D02*
X235383986Y-34614030D01*
X235383986Y-34614030D02*
X235003034Y-34804506D01*
X235003034Y-34804506D02*
X234050653Y-34804506D01*
X234050653Y-34804506D02*
X233479224Y-34614030D01*
X229479224Y-31185459D02*
X229669700Y-30994983D01*
X229669700Y-30994983D02*
X230241129Y-30804506D01*
X230241129Y-30804506D02*
X230622081Y-30804506D01*
X230622081Y-30804506D02*
X231193510Y-30994983D01*
X231193510Y-30994983D02*
X231574462Y-31375935D01*
X231574462Y-31375935D02*
X231764939Y-31756887D01*
X231764939Y-31756887D02*
X231955415Y-32518792D01*
X231955415Y-32518792D02*
X231955415Y-33090221D01*
X231955415Y-33090221D02*
X231764939Y-33852125D01*
X231764939Y-33852125D02*
X231574462Y-34233078D01*
X231574462Y-34233078D02*
X231193510Y-34614030D01*
X231193510Y-34614030D02*
X230622081Y-34804506D01*
X230622081Y-34804506D02*
X230241129Y-34804506D01*
X230241129Y-34804506D02*
X229669700Y-34614030D01*
X229669700Y-34614030D02*
X229479224Y-34423554D01*
X225479224Y-30804506D02*
X226812558Y-32709268D01*
X227764939Y-30804506D02*
X227764939Y-34804506D01*
X227764939Y-34804506D02*
X226241129Y-34804506D01*
X226241129Y-34804506D02*
X225860177Y-34614030D01*
X225860177Y-34614030D02*
X225669700Y-34423554D01*
X225669700Y-34423554D02*
X225479224Y-34042602D01*
X225479224Y-34042602D02*
X225479224Y-33471173D01*
X225479224Y-33471173D02*
X225669700Y-33090221D01*
X225669700Y-33090221D02*
X225860177Y-32899744D01*
X225860177Y-32899744D02*
X226241129Y-32709268D01*
X226241129Y-32709268D02*
X227764939Y-32709268D01*
X223764939Y-34804506D02*
X223764939Y-31566411D01*
X223764939Y-31566411D02*
X223574462Y-31185459D01*
X223574462Y-31185459D02*
X223383986Y-30994983D01*
X223383986Y-30994983D02*
X223003034Y-30804506D01*
X223003034Y-30804506D02*
X222241129Y-30804506D01*
X222241129Y-30804506D02*
X221860177Y-30994983D01*
X221860177Y-30994983D02*
X221669700Y-31185459D01*
X221669700Y-31185459D02*
X221479224Y-31566411D01*
X221479224Y-31566411D02*
X221479224Y-34804506D01*
X219574463Y-30804506D02*
X219574463Y-34804506D01*
X219574463Y-34804506D02*
X218241129Y-31947363D01*
X218241129Y-31947363D02*
X216907796Y-34804506D01*
X216907796Y-34804506D02*
X216907796Y-30804506D01*
X215003034Y-30804506D02*
X215003034Y-34804506D01*
X215003034Y-34804506D02*
X213479224Y-34804506D01*
X213479224Y-34804506D02*
X213098272Y-34614030D01*
X213098272Y-34614030D02*
X212907795Y-34423554D01*
X212907795Y-34423554D02*
X212717319Y-34042602D01*
X212717319Y-34042602D02*
X212717319Y-33471173D01*
X212717319Y-33471173D02*
X212907795Y-33090221D01*
X212907795Y-33090221D02*
X213098272Y-32899744D01*
X213098272Y-32899744D02*
X213479224Y-32709268D01*
X213479224Y-32709268D02*
X215003034Y-32709268D01*
X211003034Y-30804506D02*
X211003034Y-34804506D01*
D17*
X213552547Y-149788983D03*
D18*
X236802547Y-54538983D03*
D17*
X164722547Y-75818983D03*
D18*
X186902547Y-78338983D03*
D19*
X126112547Y-35668983D03*
X126112547Y-38208983D03*
X126112547Y-40748983D03*
X126112547Y-43288983D03*
X126112547Y-45828983D03*
X126112547Y-48368983D03*
X126112547Y-50908983D03*
X118492547Y-50908983D03*
X118492547Y-48368983D03*
X118492547Y-45828983D03*
X118492547Y-43288983D03*
X118492547Y-40748983D03*
X118492547Y-38208983D03*
X118492547Y-35668983D03*
D18*
X94552547Y-50788983D03*
X205302547Y-118538983D03*
X232512547Y-139518983D03*
X211552547Y-66538983D03*
X82302547Y-35788983D03*
X233802547Y-58538983D03*
X205302547Y-115538983D03*
X150552547Y-138138983D03*
X232512547Y-143518983D03*
D17*
X164722547Y-63118983D03*
D18*
X97552547Y-37688983D03*
X97952547Y-68888983D03*
X231692547Y-107408983D03*
X232552547Y-121498983D03*
X205052547Y-83438983D03*
X205052547Y-75788983D03*
X187802547Y-143188983D03*
X232552547Y-129498983D03*
X164052547Y-115538983D03*
D20*
X97252547Y-110538983D03*
X92552547Y-110538983D03*
X87852547Y-110538983D03*
D19*
X200122547Y-65638983D03*
X200122547Y-68178983D03*
X200122547Y-70718983D03*
X200122547Y-73258983D03*
X200122547Y-75798983D03*
X200122547Y-78338983D03*
X200122547Y-80878983D03*
X200122547Y-83418983D03*
X192502547Y-83418983D03*
X192502547Y-80878983D03*
X192502547Y-78338983D03*
X192502547Y-75798983D03*
X192502547Y-73258983D03*
X192502547Y-70718983D03*
X192502547Y-68178983D03*
X192502547Y-65638983D03*
D18*
X164052547Y-122038983D03*
X233752547Y-85648983D03*
D19*
X198552547Y-130538983D03*
X198552547Y-133078983D03*
X198552547Y-135618983D03*
X198552547Y-138158983D03*
X198552547Y-140698983D03*
X198552547Y-143238983D03*
X198552547Y-145778983D03*
X190932547Y-145778983D03*
X190932547Y-143238983D03*
X190932547Y-140698983D03*
X190932547Y-138158983D03*
X190932547Y-135618983D03*
X190932547Y-133078983D03*
X190932547Y-130538983D03*
D17*
X211552547Y-87038983D03*
D18*
X208302547Y-70788983D03*
X224052547Y-144288983D03*
X167262547Y-85978983D03*
D19*
X110802547Y-35668983D03*
X110802547Y-38208983D03*
X110802547Y-40748983D03*
X110802547Y-43288983D03*
X110802547Y-45828983D03*
X110802547Y-48368983D03*
X110802547Y-50908983D03*
X103182547Y-50908983D03*
X103182547Y-48368983D03*
X103182547Y-45828983D03*
X103182547Y-43288983D03*
X103182547Y-40748983D03*
X103182547Y-38208983D03*
X103182547Y-35668983D03*
D18*
X235552547Y-125498983D03*
D21*
X137052547Y-59288983D03*
D17*
X211402549Y-134638983D03*
D18*
X137852547Y-107888983D03*
D17*
X164722547Y-65658983D03*
D18*
X182952549Y-143188983D03*
X232512547Y-147518983D03*
X150552547Y-145738983D03*
D20*
X126852547Y-96338983D03*
X122152547Y-96338983D03*
X117452547Y-96338983D03*
D18*
X234692547Y-103408983D03*
X182952549Y-138138983D03*
D17*
X194302547Y-42288983D03*
X170752547Y-52888983D03*
D18*
X164052547Y-112288983D03*
X164052547Y-102538983D03*
D17*
X214052549Y-108238983D03*
D18*
X186802547Y-105538983D03*
X231692547Y-103408983D03*
X150552547Y-135638983D03*
D17*
X134302547Y-32188983D03*
D18*
X236752547Y-89648983D03*
X130802547Y-40538983D03*
D17*
X214052549Y-134738983D03*
D18*
X162302547Y-94538983D03*
D19*
X224302547Y-51288983D03*
X224302547Y-53828983D03*
X224302547Y-56368983D03*
X224302547Y-58908983D03*
X224302547Y-61448983D03*
X224302547Y-63988983D03*
X224302547Y-66528983D03*
X216682547Y-66528983D03*
X216682547Y-63988983D03*
X216682547Y-61448983D03*
X216682547Y-58908983D03*
X216682547Y-56368983D03*
X216682547Y-53828983D03*
X216682547Y-51288983D03*
D20*
X97252547Y-85338983D03*
X92552547Y-85338983D03*
X87852547Y-85338983D03*
D18*
X105652547Y-68888983D03*
X141802547Y-94738983D03*
D20*
X97252547Y-143338983D03*
X92552547Y-143338983D03*
X87852547Y-143338983D03*
D17*
X200802547Y-42288983D03*
D18*
X235552547Y-117498983D03*
X233752547Y-81648983D03*
X236822547Y-64248983D03*
D20*
X97252547Y-63138983D03*
X92552547Y-63138983D03*
X87852547Y-63138983D03*
D17*
X79302547Y-64388983D03*
X224302547Y-45038983D03*
D18*
X164452547Y-140788983D03*
D17*
X82252547Y-28388983D03*
D18*
X186802547Y-109038983D03*
X235512547Y-147518983D03*
D17*
X164722547Y-80898983D03*
D18*
X233822547Y-76248983D03*
D17*
X138202547Y-32188983D03*
D18*
X92552547Y-55538983D03*
D17*
X181302547Y-48038983D03*
D19*
X224302547Y-119538983D03*
X224302547Y-122078983D03*
X224302547Y-124618983D03*
X224302547Y-127158983D03*
X224302547Y-129698983D03*
X224302547Y-132238983D03*
X224302547Y-134778983D03*
X216682547Y-134778983D03*
X216682547Y-132238983D03*
X216682547Y-129698983D03*
X216682547Y-127158983D03*
X216682547Y-124618983D03*
X216682547Y-122078983D03*
X216682547Y-119538983D03*
D17*
X216552547Y-45038983D03*
D18*
X205052547Y-78338983D03*
D20*
X126652547Y-132538983D03*
X121952547Y-132538983D03*
X117252547Y-132538983D03*
D18*
X216652547Y-144238983D03*
X202302549Y-145788983D03*
D19*
X179552547Y-130538983D03*
X179552547Y-133078983D03*
X179552547Y-135618983D03*
X179552547Y-138158983D03*
X179552547Y-140698983D03*
X179552547Y-143238983D03*
X179552547Y-145778983D03*
X179552547Y-148318983D03*
X171932547Y-148318983D03*
X171932547Y-145778983D03*
X171932547Y-143238983D03*
X171932547Y-140698983D03*
X171932547Y-138158983D03*
X171932547Y-135618983D03*
X171932547Y-133078983D03*
X171932547Y-130538983D03*
D18*
X164502549Y-148338983D03*
X134152547Y-42738983D03*
D20*
X126652547Y-143338983D03*
X121952547Y-143338983D03*
X117252547Y-143338983D03*
D18*
X236822547Y-68248983D03*
X231692547Y-99408983D03*
X233752547Y-93648983D03*
X79352547Y-72038983D03*
X186802547Y-99538983D03*
X141102547Y-36988983D03*
D19*
X224302547Y-93038983D03*
X224302547Y-95578983D03*
X224302547Y-98118983D03*
X224302547Y-100658983D03*
X224302547Y-103198983D03*
X224302547Y-105738983D03*
X224302547Y-108278983D03*
X216682547Y-108278983D03*
X216682547Y-105738983D03*
X216682547Y-103198983D03*
X216682547Y-100658983D03*
X216682547Y-98118983D03*
X216682547Y-95578983D03*
X216682547Y-93038983D03*
D18*
X169802547Y-83438983D03*
X182952549Y-148338983D03*
X164052547Y-109038983D03*
D17*
X164722547Y-73278983D03*
D18*
X202302547Y-135588983D03*
X164452547Y-133188983D03*
X169802547Y-85978983D03*
X233802547Y-54538983D03*
X168752547Y-145738983D03*
D20*
X97252547Y-121738983D03*
X92552547Y-121738983D03*
X87852547Y-121738983D03*
D18*
X167302547Y-96538983D03*
D17*
X164722547Y-55488983D03*
D18*
X235512547Y-143518983D03*
D17*
X164722547Y-78358983D03*
D18*
X200519559Y-126392560D03*
X142802547Y-124638983D03*
D17*
X173552547Y-48038983D03*
D18*
X232552547Y-125498983D03*
X205302547Y-112038983D03*
D17*
X97552547Y-32238983D03*
D18*
X236802547Y-46538983D03*
X182952549Y-140688983D03*
X150452547Y-130488983D03*
X233822547Y-68248983D03*
X232552547Y-117498983D03*
X236802547Y-58538983D03*
X234692547Y-107408983D03*
X236752547Y-93648983D03*
D17*
X214052547Y-87038983D03*
D18*
X164452547Y-138288983D03*
D20*
X126902547Y-74338983D03*
X122202547Y-74338983D03*
X117502547Y-74338983D03*
D18*
X150552547Y-143238983D03*
D17*
X164722547Y-68198983D03*
D18*
X164052547Y-99538983D03*
D19*
X183522547Y-65648983D03*
X183522547Y-68188983D03*
X183522547Y-70728983D03*
X183522547Y-73268983D03*
X183522547Y-75808983D03*
X183522547Y-78348983D03*
X183522547Y-80888983D03*
X183522547Y-83428983D03*
X175902547Y-83428983D03*
X175902547Y-80888983D03*
X175902547Y-78348983D03*
X175902547Y-75808983D03*
X175902547Y-73268983D03*
X175902547Y-70728983D03*
X175902547Y-68188983D03*
X175902547Y-65648983D03*
D17*
X164752547Y-52888983D03*
D18*
X168752547Y-143238983D03*
X236822547Y-72248983D03*
X137852547Y-115088983D03*
X168752547Y-138138983D03*
X235552547Y-129498983D03*
X186902547Y-83388983D03*
X186802547Y-102538983D03*
D20*
X97252547Y-74338983D03*
X92552547Y-74338983D03*
X87852547Y-74338983D03*
D18*
X234692547Y-111408983D03*
X236802547Y-50538983D03*
X182952549Y-133088983D03*
X236822547Y-76248983D03*
X187802547Y-130538983D03*
X186902547Y-75788983D03*
D20*
X126652547Y-110538983D03*
X121952547Y-110538983D03*
X117252547Y-110538983D03*
D18*
X182952549Y-135588983D03*
X142802547Y-135288983D03*
D20*
X126652547Y-121738983D03*
X121952547Y-121738983D03*
X117252547Y-121738983D03*
D18*
X200152547Y-62188983D03*
D20*
X97252547Y-96338983D03*
X92552547Y-96338983D03*
X87852547Y-96338983D03*
D18*
X168752547Y-140738983D03*
X164452547Y-143288983D03*
X233822547Y-72248983D03*
X236752547Y-81648983D03*
X137802547Y-42688983D03*
X235552547Y-121498983D03*
X233802547Y-50538983D03*
D17*
X164722547Y-58038983D03*
D18*
X99752547Y-37688983D03*
X231692547Y-111408983D03*
X187802547Y-133038983D03*
X142802547Y-115138983D03*
X85102547Y-40838983D03*
X150552547Y-140738983D03*
X205052547Y-80888983D03*
X130802547Y-45288983D03*
X95302547Y-35788983D03*
X95302547Y-38328983D03*
X95302547Y-40868983D03*
X95302547Y-43408983D03*
X87682547Y-43408983D03*
X87682547Y-40868983D03*
X87682547Y-38328983D03*
X87682547Y-35788983D03*
X233752547Y-89648983D03*
X140852547Y-52838983D03*
X232512547Y-135518983D03*
D17*
X164722547Y-60578983D03*
D18*
X142802547Y-107888983D03*
D17*
X200902547Y-48188983D03*
D18*
X236752547Y-85648983D03*
X164052547Y-118788983D03*
X164052547Y-105788983D03*
X168752547Y-135638983D03*
X164452547Y-135688983D03*
D20*
X126902547Y-63138983D03*
X122202547Y-63138983D03*
X117502547Y-63138983D03*
D19*
X144712547Y-42758983D03*
X144712547Y-45298983D03*
X144712547Y-47838983D03*
X144712547Y-50378983D03*
X144712547Y-52918983D03*
X144712547Y-55458983D03*
X144712547Y-57998983D03*
X144712547Y-60538983D03*
X144712547Y-63078983D03*
X144712547Y-65618983D03*
X144712547Y-68158983D03*
X144712547Y-70698983D03*
X144712547Y-73238983D03*
X144712547Y-75778983D03*
X144712547Y-78318983D03*
X144712547Y-80858983D03*
X144712547Y-83398983D03*
X144712547Y-85938983D03*
X144712547Y-88478983D03*
X144712547Y-91018983D03*
X159952547Y-91018983D03*
X159952547Y-88478983D03*
X159952547Y-85938983D03*
X159952547Y-83398983D03*
X159952547Y-80858983D03*
X159952547Y-78318983D03*
X159952547Y-75778983D03*
X159952547Y-73238983D03*
X159952547Y-70698983D03*
X159952547Y-68158983D03*
X159952547Y-65618983D03*
X159952547Y-63078983D03*
X159952547Y-60538983D03*
X159952547Y-57998983D03*
X159952547Y-55458983D03*
X159952547Y-52918983D03*
X159952547Y-50378983D03*
X159952547Y-47838983D03*
X159952547Y-45298983D03*
X159952547Y-42758983D03*
D17*
X207052547Y-42288983D03*
D18*
X235512547Y-139518983D03*
D17*
X85102549Y-32288983D03*
X211452549Y-108238983D03*
D18*
X233822547Y-64248983D03*
X235512547Y-135518983D03*
D19*
X224302547Y-71788983D03*
X224302547Y-74328983D03*
X224302547Y-76868983D03*
X224302547Y-79408983D03*
X224302547Y-81948983D03*
X224302547Y-84488983D03*
X224302547Y-87028983D03*
X216682547Y-87028983D03*
X216682547Y-84488983D03*
X216682547Y-81948983D03*
X216682547Y-79408983D03*
X216682547Y-76868983D03*
X216682547Y-74328983D03*
X216682547Y-71788983D03*
D18*
X168752547Y-130538983D03*
X186902547Y-80888983D03*
D20*
X97252547Y-132538983D03*
X92552547Y-132538983D03*
X87852547Y-132538983D03*
D19*
X161302547Y-130538983D03*
X161302547Y-133078983D03*
X161302547Y-135618983D03*
X161302547Y-138158983D03*
X161302547Y-140698983D03*
X161302547Y-143238983D03*
X161302547Y-145778983D03*
X161302547Y-148318983D03*
X153682547Y-148318983D03*
X153682547Y-145778983D03*
X153682547Y-143238983D03*
X153682547Y-140698983D03*
X153682547Y-138158983D03*
X153682547Y-135618983D03*
X153682547Y-133078983D03*
X153682547Y-130538983D03*
D18*
X170052547Y-72038983D03*
D20*
X126852547Y-85338983D03*
X122152547Y-85338983D03*
X117452547Y-85338983D03*
D18*
X234692547Y-99408983D03*
X99452547Y-45388983D03*
X233802547Y-46538983D03*
D17*
X164722547Y-70738983D03*
D18*
X205302547Y-122038983D03*
D22*
X144552547Y-52888983D02*
X140852547Y-52838983D01*
X176900612Y-72115226D02*
X176421237Y-72058829D01*
D23*
X134302547Y-32188983D02*
X126102547Y-32200140D01*
D22*
X218489879Y-107214840D02*
X218054357Y-107121514D01*
X231352547Y-141538983D02*
X232352547Y-142538983D01*
X225402549Y-110988983D02*
X226202549Y-112488983D01*
X201059558Y-94467021D02*
X203302164Y-94867486D01*
X123052547Y-34138983D02*
X122502547Y-33988983D01*
X153272055Y-41157566D02*
X154939940Y-41891435D01*
X228443402Y-112264595D02*
G75*
G03*
X228461819Y-112313322I9471398J3551995D01*
G01*
X174230927Y-73745037D02*
G75*
G03*
X174274140Y-73732832I-2681427J9576337D01*
G01*
X205755910Y-93695759D02*
G75*
G02*
X205649261Y-93681633I1264090J9953259D01*
G01*
X214552547Y-125588983D02*
X214052547Y-125388983D01*
X99863572Y-52063741D02*
X100083313Y-51892831D01*
X216682547Y-108278983D02*
X214052549Y-108238983D01*
X173047880Y-44523780D02*
G75*
G03*
X171652183Y-44451948I-1210580J-9926520D01*
G01*
X227099275Y-123388983D02*
G75*
G02*
X227005820Y-123388546I-75J9970283D01*
G01*
D23*
X196306004Y-128438353D02*
G75*
G02*
X197197256Y-128479412I-14104J-9999647D01*
G01*
D22*
X81964999Y-87523699D02*
G75*
G02*
X81388287Y-86623396I8120101J5836399D01*
G01*
X177375031Y-67004294D02*
G75*
G03*
X177129721Y-66976699I-1240431J-9922806D01*
G01*
X195834804Y-68494830D02*
G75*
G03*
X195264428Y-68300329I-3511304J-9363370D01*
G01*
X189602547Y-67138983D02*
X189052547Y-67238983D01*
X85902547Y-51538983D02*
X86302547Y-51238983D01*
X87802547Y-118738983D02*
X87852547Y-121738983D01*
D23*
X240152547Y-42238983D02*
X240102547Y-149138983D01*
D22*
X82002547Y-66988983D02*
X82102547Y-67488983D01*
X139552547Y-112638983D02*
X139352547Y-113438983D01*
X180002547Y-68938983D02*
X175902547Y-68188983D01*
D23*
X236822547Y-76248983D02*
X236752547Y-81648983D01*
D22*
X200838752Y-99770017D02*
X199798899Y-99596708D01*
X220108329Y-73114396D02*
G75*
G03*
X219395859Y-73088985I-712429J-9974104D01*
G01*
X175851303Y-66888983D02*
G75*
G02*
X174856266Y-66839357I-3J10000283D01*
G01*
X187525246Y-72832124D02*
G75*
G02*
X187077471Y-72935551I-2473446J9687524D01*
G01*
X135102547Y-111338983D02*
X134855774Y-145887268D01*
D23*
X82945151Y-98553453D02*
X82552547Y-98838983D01*
X88802547Y-91838983D02*
X91102547Y-91138983D01*
D22*
X229596590Y-129735012D02*
X229152547Y-129438983D01*
X222293616Y-121179289D02*
X221700198Y-121009741D01*
X187077471Y-72935550D02*
X185924282Y-73174141D01*
X148152547Y-49788983D02*
X147952547Y-49488983D01*
X228952547Y-93938983D02*
X227952547Y-93538983D01*
D23*
X102420700Y-73637075D02*
X102320740Y-74886565D01*
D22*
X100852547Y-50788983D02*
X100902547Y-50388983D01*
X202402547Y-66938983D02*
X198552547Y-66888983D01*
X230165784Y-65307946D02*
X229652547Y-65388983D01*
X209200722Y-79774063D02*
G75*
G03*
X208602804Y-79721853I-1168422J-9931137D01*
G01*
X189642089Y-71303208D02*
G75*
G02*
X189763177Y-71275510I2290511J-9734992D01*
G01*
X217428994Y-106725666D02*
G75*
G03*
X217730356Y-106990579I797506J603366D01*
G01*
X231696217Y-64965565D02*
X231031518Y-65131740D01*
X164722547Y-75818983D02*
X159952547Y-75778983D01*
X90902547Y-117638983D02*
X91302547Y-117138983D01*
X165259884Y-45265589D02*
X165949676Y-45050987D01*
X208602804Y-79721855D02*
X207489611Y-79658244D01*
X118492547Y-48368983D02*
X115302547Y-48388983D01*
X96202547Y-50638983D02*
X95852547Y-50688983D01*
X144552547Y-57968983D02*
X146102547Y-57988983D01*
X134890061Y-146789150D02*
X134902547Y-146938983D01*
X92602547Y-68388983D02*
X92102547Y-68338983D01*
X94894169Y-92243941D02*
X95602547Y-92088983D01*
X148146354Y-39599655D02*
X148255909Y-39618988D01*
X202252547Y-82138983D02*
X198452547Y-82088983D01*
X195352549Y-148788983D02*
X195102549Y-148538983D01*
X87102547Y-149488983D02*
X85802547Y-149188983D01*
X223360889Y-95260768D02*
X224302547Y-95578983D01*
X198452547Y-82088983D02*
X197252547Y-81938983D01*
X222902547Y-55138983D02*
X221902547Y-54988983D01*
X148802547Y-61738983D02*
X149252547Y-61438983D01*
D23*
X197197256Y-128479411D02*
X197302547Y-128488983D01*
D22*
X210502547Y-77538983D02*
X209502547Y-77338983D01*
X223252547Y-121488983D02*
X222708689Y-121307697D01*
D23*
X99052547Y-83638983D02*
X97252547Y-85338983D01*
D22*
X220452547Y-73138983D02*
X220108329Y-73114396D01*
X217686075Y-84926568D02*
X216682547Y-84488983D01*
X204137443Y-92162755D02*
X207230691Y-92560459D01*
X122502547Y-33988983D02*
X121652547Y-33888983D01*
X85802547Y-149188983D02*
X85102547Y-148588983D01*
X223202547Y-96838983D02*
X222652547Y-96838983D01*
D23*
X229052547Y-46088983D02*
X229002547Y-46638983D01*
D22*
X228443402Y-112264595D02*
X228106956Y-111367406D01*
X174636603Y-71938983D02*
X173984103Y-71938983D01*
X203352549Y-148838983D02*
X203002549Y-148988983D01*
X197952547Y-66788983D02*
X197702547Y-66738983D01*
X206802547Y-74638983D02*
X206602547Y-74488983D01*
X108452547Y-122938983D02*
X108152547Y-122488983D01*
X108152547Y-83238983D02*
X108852547Y-81138983D01*
X92552547Y-85338983D02*
X87852547Y-85338983D01*
X156030606Y-42453570D02*
X157678053Y-43435028D01*
X183522547Y-80888983D02*
X186902547Y-80888983D01*
X159952547Y-88478983D02*
X181495340Y-88488957D01*
D23*
X225952547Y-50188983D02*
X224302547Y-51288983D01*
D22*
X113202547Y-45738983D02*
X113116734Y-45738983D01*
X211526753Y-52914248D02*
X211752547Y-52838983D01*
X120052547Y-49588983D02*
X111602547Y-49688983D01*
X226441890Y-98288834D02*
X226091689Y-98209243D01*
X207078710Y-110863647D02*
G75*
G03*
X206404187Y-110343080I-6441410J-7649153D01*
G01*
X232416326Y-133862997D02*
G75*
G02*
X232467329Y-134516643I-9938526J-1104303D01*
G01*
D23*
X204946256Y-41886885D02*
G75*
G03*
X204657457Y-41795454I-3161156J-9483115D01*
G01*
D22*
X178088523Y-67093215D02*
X178016603Y-67084490D01*
X130602547Y-59288983D02*
X130552547Y-60788983D01*
X86902547Y-55488983D02*
X86952547Y-55088983D01*
X202270363Y-102927909D02*
G75*
G03*
X201222844Y-102706221I-2591263J-9658491D01*
G01*
D23*
X203953550Y-126011701D02*
G75*
G02*
X204147389Y-126269390I-7894150J-6139899D01*
G01*
D22*
X210954762Y-58569794D02*
G75*
G02*
X211764586Y-58243554I4137838J-9103106D01*
G01*
X193295644Y-90977105D02*
G75*
G03*
X192607637Y-90924612I-1104244J-9937895D01*
G01*
X226441890Y-98288834D02*
G75*
G02*
X227736912Y-98676872I-2216290J-9751566D01*
G01*
X77751008Y-71826682D02*
G75*
G03*
X77752547Y-71651270I-10002208J175482D01*
G01*
X229133498Y-113872789D02*
G75*
G02*
X228637805Y-112775272I8849102J4657389D01*
G01*
X166405862Y-50112134D02*
G75*
G02*
X165294115Y-50203727I-1375662J9904734D01*
G01*
X212841259Y-57947047D02*
G75*
G02*
X213366567Y-57844980I2169541J-9763153D01*
G01*
X222293616Y-121179289D02*
G75*
G02*
X222708689Y-121307696I-2747816J-9617311D01*
G01*
X99545758Y-89257130D02*
G75*
G02*
X98590270Y-90254684I-7682158J6401830D01*
G01*
X193552791Y-78460165D02*
G75*
G02*
X194050540Y-78530316I-1146291J-9934335D01*
G01*
X231054918Y-86598304D02*
G75*
G03*
X230030427Y-86235419I-3846118J-9230696D01*
G01*
X77707334Y-74316148D02*
G75*
G03*
X77712644Y-74861673I9999366J-175452D01*
G01*
X229922376Y-100064914D02*
G75*
G02*
X231000138Y-101824861I-7943576J-6074486D01*
G01*
X210073852Y-79876784D02*
G75*
G02*
X211121650Y-80056962I-1168452J-9931716D01*
G01*
D23*
X78661776Y-149795870D02*
G75*
G03*
X78838717Y-151169810I9982924J587270D01*
G01*
D22*
X112688556Y-45748154D02*
G75*
G02*
X113116734Y-45738984I428144J-9990846D01*
G01*
X221565946Y-128278795D02*
G75*
G03*
X221739313Y-128297659I1169454J9941495D01*
G01*
X206305721Y-74340570D02*
G75*
G03*
X205894970Y-74146727I-4472721J-8945530D01*
G01*
X98413034Y-69925080D02*
G75*
G03*
X98713268Y-70542573I9137566J4061080D01*
G01*
X155681606Y-39865362D02*
G75*
G03*
X154485381Y-39292121I-4910106J-8711538D01*
G01*
X217686075Y-84926568D02*
G75*
G03*
X219158860Y-85436280I3997025J9166568D01*
G01*
X210408234Y-73087204D02*
G75*
G03*
X210596877Y-73088983I188466J9983704D01*
G01*
X171094318Y-65834092D02*
G75*
G03*
X170809496Y-65748110I-3031418J-9527008D01*
G01*
X197061476Y-71748677D02*
G75*
G02*
X196646408Y-71620272I2747124J9615077D01*
G01*
X221008057Y-125979327D02*
G75*
G03*
X220495293Y-125911905I-1559757J-9878873D01*
G01*
X147455350Y-39502435D02*
G75*
G02*
X148146355Y-39599652I-1046650J-9943865D01*
G01*
X218933282Y-120705109D02*
G75*
G02*
X219771690Y-120708036I384318J-9993191D01*
G01*
X181358398Y-72017972D02*
G75*
G03*
X181947422Y-72042624I712502J9974772D01*
G01*
X78336964Y-79888339D02*
G75*
G02*
X78044453Y-78671283I9557836J2940839D01*
G01*
X226491382Y-65383784D02*
G75*
G03*
X226813795Y-65388982I322418J9995884D01*
G01*
D23*
X200745743Y-28551143D02*
G75*
G03*
X200259052Y-28538675I-499343J-9986757D01*
G01*
D22*
X226505715Y-128534220D02*
G75*
G02*
X227194684Y-128667936I-1559615J-9877680D01*
G01*
X94519737Y-52968084D02*
G75*
G02*
X94184748Y-53004238I-1239937J9918884D01*
G01*
D23*
X100875208Y-80125019D02*
G75*
G03*
X101276574Y-79131412I-9058208J4236919D01*
G01*
D22*
X101884763Y-44662015D02*
G75*
G03*
X102415868Y-44501213I-2631163J9647815D01*
G01*
X156030606Y-42453570D02*
G75*
G03*
X154939940Y-41891435I-5117906J-8590730D01*
G01*
X194428267Y-89748491D02*
G75*
G03*
X193974297Y-89640070I-2549567J-9670709D01*
G01*
X218557096Y-52539396D02*
G75*
G02*
X218648001Y-52538983I90804J-9980104D01*
G01*
X207230691Y-92560459D02*
G75*
G03*
X207675456Y-92607558I1275109J9917659D01*
G01*
X206144431Y-69254833D02*
G75*
G03*
X206260468Y-69222434I-2635931J9664433D01*
G01*
X170699160Y-63545894D02*
G75*
G03*
X168883230Y-63299179I-2248560J-9744006D01*
G01*
X219277681Y-125838983D02*
G75*
G02*
X220324529Y-125893925I19J-10000317D01*
G01*
X206712056Y-55182942D02*
G75*
G02*
X205785098Y-55351309I-2248656J9744242D01*
G01*
X204631431Y-52660631D02*
G75*
G02*
X203972508Y-52695582I-858831J9962731D01*
G01*
X103275880Y-81798568D02*
G75*
G03*
X103660249Y-80656192I-9268480J3754368D01*
G01*
X229856502Y-123868249D02*
G75*
G02*
X231487622Y-124554611I-3047802J-9524351D01*
G01*
X229323863Y-86067980D02*
G75*
G03*
X228476017Y-85946328I-1842863J-9828420D01*
G01*
X78315556Y-67873940D02*
G75*
G02*
X78527703Y-67013437I9806044J-1961160D01*
G01*
X180088164Y-71797887D02*
G75*
G03*
X180418229Y-71874487I2424736J9698587D01*
G01*
X94315559Y-116388959D02*
G75*
G03*
X94289972Y-116392327I141J-99941D01*
G01*
X204442060Y-109282127D02*
G75*
G02*
X205720208Y-109886422I-3624460J-9319973D01*
G01*
X210743281Y-76179846D02*
G75*
G03*
X211569576Y-76363118I2576419J9661646D01*
G01*
X227612586Y-85876901D02*
G75*
G02*
X228191318Y-85917858I-416186J-9990099D01*
G01*
X226364857Y-107524241D02*
G75*
G03*
X225999392Y-107330956I-640157J-768259D01*
G01*
X214902547Y-62738983D02*
X214202547Y-62788983D01*
X209152547Y-63138983D02*
X208552547Y-63688983D01*
X144752547Y-106388983D02*
X142802547Y-107888983D01*
X218934770Y-104461131D02*
G75*
G03*
X218269586Y-104438986I-665170J-9978669D01*
G01*
X109604134Y-145292157D02*
G75*
G02*
X109410288Y-144881407I8945466J4472757D01*
G01*
X108770033Y-124281333D02*
G75*
G02*
X108809321Y-124998044I-9959133J-905367D01*
G01*
X171932547Y-130538983D02*
X171932547Y-133078983D01*
X144712547Y-63078983D02*
X126902547Y-63138983D01*
X210802547Y-64238983D02*
X209652547Y-65188983D01*
X159952547Y-91018983D02*
X190080989Y-90889076D01*
X229702547Y-86138983D02*
X229323863Y-86067980D01*
X227202547Y-54188983D02*
X226252547Y-54738983D01*
D23*
X235302547Y-115688983D02*
X235452547Y-116438983D01*
D22*
X219952547Y-95738983D02*
X219402547Y-95588983D01*
X177129721Y-66976700D02*
X176500686Y-66913797D01*
X101302547Y-44988983D02*
X101602547Y-44738983D01*
X133052547Y-149888983D02*
X113902547Y-149938983D01*
X96822407Y-81732056D02*
X96938493Y-81622798D01*
X115279876Y-148451243D02*
X115267823Y-148449671D01*
X181358398Y-72017972D02*
X180952547Y-71988983D01*
X219302547Y-122488983D02*
X219028169Y-122397524D01*
X194902547Y-68188983D02*
X194502547Y-68138983D01*
X207002547Y-69038983D02*
X206843685Y-69074286D01*
X203852547Y-67838983D02*
X201952547Y-67838983D01*
X173629607Y-64618068D02*
X176052547Y-65958983D01*
X221252867Y-123294015D02*
X221202547Y-123288983D01*
X194502547Y-68138983D02*
X192502547Y-68178983D01*
X219952547Y-101438983D02*
X219652547Y-101238983D01*
X203002547Y-74488983D02*
X202998828Y-74489355D01*
X206402547Y-98438983D02*
X202102547Y-97588983D01*
X229793673Y-115083010D02*
G75*
G03*
X229935035Y-115277820I874127J485610D01*
G01*
X212424110Y-123960546D02*
G75*
G02*
X211902613Y-123397391I7071190J7071146D01*
G01*
X228364421Y-98925380D02*
G75*
G02*
X229843522Y-99987836I-5070221J-8619320D01*
G01*
X176500686Y-66913797D02*
G75*
G03*
X176003170Y-66888985I-497486J-4974903D01*
G01*
D23*
X221996522Y-48636052D02*
G75*
G02*
X223364472Y-50078566I-6536122J-7568148D01*
G01*
D22*
X92504018Y-117980157D02*
G75*
G03*
X92502665Y-117997930I98582J-16443D01*
G01*
X199052547Y-77088983D02*
X197802547Y-76938983D01*
D23*
X233902547Y-149238983D02*
X234252547Y-149038983D01*
D22*
X224302547Y-100658983D02*
X222452547Y-100038983D01*
X146552547Y-54488983D02*
X146652547Y-54738983D01*
X211401258Y-51176427D02*
X212678321Y-50914465D01*
X95852547Y-50688983D02*
X95452547Y-50788983D01*
X179548050Y-71662859D02*
G75*
G02*
X178962089Y-71497261I2425650J9702559D01*
G01*
X195946252Y-71386885D02*
G75*
G03*
X195657457Y-71295457I-3162252J-9486815D01*
G01*
X100222714Y-51786358D02*
G75*
G03*
X100083313Y-51892831I6001686J-8002242D01*
G01*
X105376157Y-71468622D02*
G75*
G03*
X105338722Y-71910173I9943543J-1065378D01*
G01*
D23*
X202932240Y-30434348D02*
G75*
G02*
X202954237Y-31044290I-9978840J-665252D01*
G01*
D22*
X99140261Y-71318506D02*
G75*
G02*
X98877309Y-70852420I8574339J5144606D01*
G01*
X220402547Y-78388983D02*
X217902547Y-78138983D01*
X174230927Y-73745037D02*
X173334855Y-73995937D01*
D23*
X216682547Y-87028983D02*
X214052547Y-87038983D01*
D22*
X211855308Y-97274627D02*
X213011437Y-97544391D01*
X148252547Y-57838983D02*
X148252547Y-50138983D01*
X90002547Y-71188983D02*
X90652547Y-71638983D01*
X86302547Y-51238983D02*
X86702547Y-50988983D01*
X211302547Y-61688983D02*
X210702547Y-61988983D01*
X212202547Y-58088983D02*
X212841259Y-57947047D01*
X202302549Y-145788983D02*
X198552547Y-145778983D01*
X97952547Y-68888983D02*
X92602547Y-68388983D01*
X94752547Y-103988983D02*
X94752547Y-103638983D01*
D23*
X236822547Y-64248983D02*
X236822547Y-68248983D01*
D22*
X219473229Y-122591392D02*
X219302547Y-122488983D01*
X83102547Y-141638983D02*
X83352547Y-140688983D01*
X219502547Y-75188983D02*
X218602547Y-74938983D01*
D23*
X201502549Y-28588983D02*
X202202549Y-28888983D01*
D22*
X211781404Y-103178449D02*
X211027374Y-103112881D01*
X93902547Y-105238983D02*
X94302547Y-104838983D01*
X99204267Y-78341148D02*
X99352547Y-77988983D01*
D23*
X215215685Y-146662485D02*
X224052547Y-146638983D01*
D22*
X227602547Y-123388983D02*
X227099275Y-123388983D01*
D23*
X235552547Y-117498983D02*
X235552547Y-121498983D01*
D22*
X110802547Y-43288983D02*
X103182547Y-43288983D01*
X87402547Y-54288983D02*
X87752547Y-54038983D01*
X82452547Y-73838983D02*
X81687781Y-73413362D01*
X144712547Y-70698983D02*
X132602547Y-71788983D01*
X226702547Y-75638983D02*
X223402547Y-75588983D01*
X231702547Y-123238983D02*
X232352547Y-123438983D01*
X230552547Y-140588983D02*
X231352547Y-141538983D01*
X110702547Y-149238983D02*
X110102547Y-148838983D01*
X100252547Y-41288983D02*
X99902547Y-40788983D01*
X92552547Y-132538983D02*
X92552547Y-121738983D01*
X156002547Y-65688983D02*
X155952547Y-102638983D01*
X212852547Y-119838983D02*
X212444114Y-119308020D01*
X167539841Y-49954637D02*
X166405862Y-50112134D01*
X96502547Y-71838983D02*
X95852547Y-71188983D01*
X89402547Y-69438983D02*
X88402547Y-69238983D01*
X129102547Y-38438983D02*
X129252547Y-38238983D01*
D23*
X82552547Y-98838983D02*
X81528506Y-100002666D01*
D22*
X225999396Y-107330940D02*
X225915803Y-107307056D01*
D23*
X161302547Y-128388983D02*
X161302547Y-130538983D01*
D22*
X164452547Y-135688983D02*
X161302547Y-135618983D01*
D23*
X159855791Y-152288983D02*
X172455791Y-152288983D01*
D22*
X208439015Y-116930038D02*
X207299227Y-115334335D01*
X90602547Y-116488983D02*
X90552547Y-105538983D01*
D23*
X115452547Y-55538983D02*
X115852547Y-55438983D01*
D22*
X121652547Y-33888983D02*
X120002547Y-33838983D01*
X228728265Y-133810286D02*
X227751251Y-132655633D01*
X228352547Y-107238983D02*
X227652547Y-106288983D01*
X179552547Y-145778983D02*
X179552547Y-148318983D01*
D23*
X216402547Y-47538983D02*
X217102547Y-46938983D01*
D22*
X83352547Y-140688983D02*
X83752547Y-139388983D01*
X109184311Y-143443092D02*
X109152547Y-143188983D01*
X194175314Y-72120807D02*
G75*
G03*
X193024166Y-72023765I-1414214J-9899693D01*
G01*
X228988845Y-123654673D02*
G75*
G02*
X228816538Y-123621781I1787655J9832673D01*
G01*
X226827198Y-108112937D02*
G75*
G03*
X226585614Y-107722064I-948698J-316263D01*
G01*
X147952547Y-49488983D02*
X147752547Y-49288983D01*
X83252547Y-113438983D02*
X83952547Y-112738983D01*
X198202547Y-69438983D02*
X197852547Y-69338983D01*
X96802547Y-145888983D02*
X96452547Y-146688983D01*
X231502547Y-86838983D02*
X231152547Y-86638983D01*
X109952547Y-77638983D02*
X111352547Y-72188983D01*
X221752547Y-131038983D02*
X220940717Y-130978847D01*
X214442446Y-51055328D02*
X214855392Y-51130409D01*
D23*
X202552547Y-124988983D02*
X202939469Y-125235206D01*
D22*
X226852547Y-93188983D02*
X225952547Y-93038983D01*
X201878365Y-52737467D02*
X203972508Y-52695584D01*
X92552547Y-63138983D02*
X90975552Y-61603488D01*
X208349357Y-68664781D02*
X207912221Y-68774065D01*
X218702547Y-62838983D02*
X218002547Y-62738983D01*
X193024166Y-72023762D02*
X192562460Y-72011612D01*
X226402547Y-102138983D02*
X226140124Y-102099619D01*
X187802547Y-143188983D02*
X190932547Y-143238983D01*
D23*
X142802547Y-115138983D02*
X142802547Y-124638983D01*
D22*
X83402547Y-74188983D02*
X83052547Y-74088983D01*
X210126925Y-68530442D02*
X210002547Y-68488983D01*
X233822547Y-68248983D02*
X224302547Y-66528983D01*
X144712547Y-65618983D02*
X128502547Y-66438983D01*
X232002547Y-132238983D02*
X231302547Y-131138983D01*
X130452547Y-58588983D02*
X130602547Y-58938983D01*
X198552547Y-66888983D02*
X197952547Y-66788983D01*
X208652547Y-66038983D02*
X207652547Y-66838983D01*
X149552547Y-60838983D02*
X149602547Y-43138983D01*
X217902547Y-78138983D02*
X214902547Y-78138983D01*
X221752547Y-133538983D02*
X224902547Y-133538983D01*
D23*
X117252547Y-54438983D02*
X117502547Y-54088983D01*
D22*
X167998358Y-44642149D02*
X169284886Y-44523026D01*
X80664417Y-85347992D02*
X81388293Y-86623393D01*
D23*
X204946256Y-41886885D02*
X205252549Y-41988983D01*
D22*
X98877308Y-70852421D02*
X98713271Y-70542572D01*
X174052547Y-70238983D02*
X172602547Y-69988983D01*
X140652547Y-59088983D02*
X140952547Y-59238983D01*
X229652547Y-121688983D02*
X230602547Y-122488983D01*
X208802547Y-108488983D02*
X207952547Y-107638983D01*
X231017422Y-101860994D02*
X231000140Y-101824860D01*
X144712547Y-75778983D02*
X134852547Y-76388983D01*
X200122547Y-75798983D02*
X205052547Y-75788983D01*
X87052547Y-56638983D02*
X86902547Y-56188983D01*
X84252547Y-69538983D02*
X85152547Y-69788983D01*
X107602547Y-144988983D02*
X107502547Y-144288983D01*
X92052547Y-39538983D02*
X90702547Y-39638983D01*
X202700751Y-71951879D02*
X202599248Y-71948120D01*
X219652547Y-101238983D02*
X219102547Y-100988983D01*
X192502547Y-73258983D02*
X188152547Y-77138983D01*
X219402547Y-95588983D02*
X218552547Y-95538983D01*
X206144431Y-69254833D02*
X205652547Y-69388983D01*
X95452547Y-50788983D02*
X94552547Y-50788983D01*
X132052547Y-61838983D02*
X148452547Y-61788983D01*
D23*
X198052547Y-128988983D02*
X198202547Y-129338983D01*
X87402547Y-92488983D02*
X87702547Y-92288983D01*
D22*
X140352547Y-58338983D02*
X140402547Y-58638983D01*
X84152547Y-149988983D02*
X83502547Y-149438983D01*
X154402547Y-105788983D02*
X164052547Y-105788983D01*
X232952547Y-123438983D02*
X233552547Y-123388983D01*
D23*
X197702547Y-128688983D02*
X198052547Y-128988983D01*
D22*
X89552547Y-137738983D02*
X89752547Y-137488983D01*
X216682547Y-66528983D02*
X216302547Y-66538983D01*
X99690586Y-76801611D02*
X99852547Y-76088983D01*
X114802547Y-48338983D02*
X114502547Y-48188983D01*
X85302547Y-52088983D02*
X85602547Y-51788983D01*
X222452547Y-126238983D02*
X221902582Y-126128990D01*
X140102547Y-57138983D02*
X140252547Y-57388983D01*
X232416326Y-133862997D02*
X232352547Y-133288983D01*
X164722547Y-55488983D02*
X159792547Y-55418983D01*
X184852547Y-64538983D02*
X183522547Y-65648983D01*
D23*
X202954236Y-31044290D02*
X203002549Y-39788983D01*
D22*
X224702547Y-80738983D02*
X221402547Y-80638983D01*
X85952547Y-68738983D02*
X85602547Y-68538983D01*
X222388862Y-104951088D02*
X222202547Y-104888983D01*
X134902547Y-146938983D02*
X134702547Y-147388983D01*
X164722547Y-58038983D02*
X159792547Y-57968983D01*
X170102547Y-69888983D02*
X169302547Y-69938983D01*
X92652547Y-140288983D02*
X92452547Y-139588983D01*
X101602547Y-44738983D02*
X101884763Y-44662015D01*
D23*
X142802547Y-124638983D02*
X199543963Y-124688756D01*
D22*
X224302547Y-127158983D02*
X223152547Y-126488983D01*
X234692547Y-99408983D02*
X233352547Y-97488983D01*
X210702547Y-68738983D02*
X210475881Y-68653983D01*
D23*
X236802547Y-54538983D02*
X236802547Y-58538983D01*
D22*
X111352547Y-149538983D02*
X110702547Y-149238983D01*
X151658091Y-40539613D02*
X152726534Y-40936463D01*
X157502547Y-63138983D02*
X157452547Y-99538983D01*
X94519737Y-52968084D02*
X96065765Y-52774831D01*
X207252547Y-64838983D02*
X206602547Y-65338983D01*
X224052547Y-146638983D02*
X224052547Y-144288983D01*
X202752549Y-149038983D02*
X202391918Y-149038983D01*
X208126591Y-75206430D02*
X206802547Y-74638983D01*
D23*
X78652547Y-149638983D02*
X78661776Y-149795870D01*
D22*
X137852547Y-115088983D02*
X137552547Y-145638983D01*
X121952547Y-110538983D02*
X121952547Y-116338983D01*
X92502547Y-92488983D02*
X93090348Y-92469390D01*
X207396718Y-68917699D02*
X207002547Y-69038983D01*
X147002547Y-59238983D02*
X147252547Y-59138983D01*
D23*
X87852547Y-96338983D02*
X86505664Y-96766043D01*
D22*
X93552547Y-105438983D02*
X93902547Y-105238983D01*
X178357304Y-67124837D02*
X178088523Y-67093215D01*
X228602547Y-120788983D02*
X229652547Y-121688983D01*
X225911209Y-98185222D02*
X224302547Y-98118983D01*
D23*
X235152547Y-115038983D02*
X235302547Y-115688983D01*
D22*
X168252547Y-70088983D02*
X167002547Y-70338983D01*
D23*
X215215685Y-146662485D02*
X205152549Y-146638983D01*
D22*
X136002547Y-40638983D02*
X135752547Y-40488983D01*
X89952547Y-117738983D02*
X90302547Y-116988983D01*
X99545758Y-89257130D02*
X99852547Y-88888983D01*
X185552547Y-69438983D02*
X185252547Y-69438983D01*
X171932513Y-66100790D02*
X171094318Y-65834092D01*
X211702547Y-115738983D02*
X211202547Y-114838983D01*
X149600274Y-37602660D02*
G75*
G03*
X147980574Y-37309072I-2587374J-9659640D01*
G01*
X212678321Y-50914465D02*
G75*
G02*
X212929203Y-50895305I200979J-979535D01*
G01*
X232075001Y-92539636D02*
G75*
G02*
X232229172Y-92639747I-5369901J-8438464D01*
G01*
X205302547Y-73938983D02*
X205002547Y-73888983D01*
X164052547Y-122038983D02*
X205302547Y-122038983D01*
X195002549Y-143138983D02*
X194952549Y-142788983D01*
X220123442Y-128010271D02*
G75*
G03*
X221499963Y-128271032I2544958J9670871D01*
G01*
X203660863Y-103300970D02*
G75*
G02*
X203943056Y-103381135I-2590563J-9655930D01*
G01*
X176083280Y-72024877D02*
G75*
G02*
X176421237Y-72058831I-830480J-9965023D01*
G01*
X89002547Y-115138983D02*
X88752547Y-115488983D01*
X194566532Y-141916950D02*
G75*
G02*
X194907031Y-142675177I-8943732J-4471950D01*
G01*
X191592428Y-93893613D02*
G75*
G02*
X192012674Y-93893186I220272J-9999087D01*
G01*
X210230714Y-115723485D02*
G75*
G03*
X210384093Y-116150997I9487286J3162485D01*
G01*
X233352547Y-97488983D02*
X232152547Y-96138983D01*
X218679213Y-122273983D02*
X218452547Y-122188983D01*
X149802547Y-115538983D02*
X164052547Y-115538983D01*
D23*
X202939469Y-125235206D02*
G75*
G03*
X203269513Y-125436381I5367631J8434706D01*
G01*
D22*
X226467700Y-107609943D02*
G75*
G02*
X226534619Y-107671061I-640100J-768057D01*
G01*
X207396718Y-68917699D02*
G75*
G02*
X207912221Y-68774066I2940682J-9557301D01*
G01*
X144712547Y-73238983D02*
X151402547Y-73338983D01*
X221565946Y-128278795D02*
X221499963Y-128271032D01*
X173031115Y-66477718D02*
X172171582Y-66180187D01*
X231552547Y-124588983D02*
X231487622Y-124554611D01*
X98952547Y-40038983D02*
X98302547Y-39688983D01*
X225902547Y-128438983D02*
X223074173Y-128395470D01*
X83052547Y-74088983D02*
X82752547Y-73988983D01*
X86702547Y-150938983D02*
X85902547Y-150738983D01*
X208102547Y-82238983D02*
X207002547Y-82188983D01*
X231402547Y-145688983D02*
X232352547Y-146488983D01*
X226176173Y-131064322D02*
X226172285Y-131061120D01*
X142802547Y-148738983D02*
X142702547Y-149238983D01*
X230757555Y-105919764D02*
G75*
G02*
X230846389Y-106058934I-8383355J-5449136D01*
G01*
X92052547Y-139138983D02*
X91502547Y-138588983D01*
X134852547Y-76388983D02*
X128352547Y-119538983D01*
X138452549Y-38438983D02*
X138452549Y-38988983D01*
X219979398Y-127972365D02*
G75*
G03*
X219724863Y-127908939I-2545698J-9673735D01*
G01*
X114034120Y-148214341D02*
G75*
G02*
X113376859Y-148041273I2216280J9751341D01*
G01*
X230002971Y-130019845D02*
G75*
G02*
X231219132Y-131055570I-5854971J-8106855D01*
G01*
X165949676Y-45050987D02*
G75*
G02*
X167998359Y-44642158I2970624J-9548613D01*
G01*
X202998828Y-74489355D02*
G75*
G02*
X202003791Y-74538981I-995028J9950655D01*
G01*
D23*
X205152547Y-130506708D02*
G75*
G03*
X205108888Y-129573301I-9999547J8D01*
G01*
D22*
X226176173Y-131064322D02*
G75*
G02*
X227252040Y-132093978I-6356873J-7719078D01*
G01*
X202391918Y-149038983D02*
G75*
G02*
X202313180Y-149038673I-218J9935683D01*
G01*
X196200002Y-73954801D02*
G75*
G03*
X197322738Y-74257773I3162298J9486901D01*
G01*
X92621257Y-117367600D02*
G75*
G03*
X92597897Y-117417013I75243J-65800D01*
G01*
X197341273Y-69112723D02*
G75*
G02*
X197463465Y-69166058I-3940773J-9194977D01*
G01*
X220445946Y-94568737D02*
G75*
G02*
X221350727Y-94751025I-1520646J-9884263D01*
G01*
D23*
X205063304Y-129087059D02*
G75*
G03*
X204858285Y-127804253I-9956304J-933441D01*
G01*
D22*
X208504263Y-94044756D02*
G75*
G03*
X209203076Y-94108676I1259837J9921356D01*
G01*
X230376581Y-115753327D02*
G75*
G03*
X230633447Y-116019885I7328619J6805127D01*
G01*
X222486644Y-73761875D02*
G75*
G03*
X222921756Y-73906117I3363256J9416975D01*
G01*
X215652083Y-125827820D02*
G75*
G03*
X216756398Y-125888981I1104317J9939120D01*
G01*
X210216899Y-53456806D02*
G75*
G02*
X211526751Y-52914242I4472101J-8944094D01*
G01*
X210046896Y-53541808D02*
G75*
G03*
X209662603Y-53744509I4470504J-8941092D01*
G01*
X88381069Y-58573843D02*
G75*
G03*
X88323712Y-58504381I-7703069J-6302257D01*
G01*
X93538803Y-116598145D02*
G75*
G02*
X93568503Y-116584712I55497J-83155D01*
G01*
X213707343Y-70984242D02*
G75*
G02*
X213401314Y-70788163I5242057J8518342D01*
G01*
D23*
X217976706Y-46705933D02*
G75*
G03*
X218429661Y-46761695I1447894J9893733D01*
G01*
D22*
X223686019Y-65290137D02*
G75*
G03*
X223619068Y-65288053I-344919J-10005763D01*
G01*
X202798987Y-93232472D02*
G75*
G02*
X202308591Y-93133224I1738113J9849372D01*
G01*
X207208711Y-72942408D02*
G75*
G03*
X208503470Y-73051265I1483389J9889208D01*
G01*
X220749245Y-58208212D02*
G75*
G03*
X220655658Y-58170227I-3830745J-9303788D01*
G01*
X210303234Y-58865943D02*
G75*
G02*
X210201607Y-58911457I-4147534J9124743D01*
G01*
X227172150Y-109046031D02*
G75*
G02*
X227324812Y-109435127I-9232750J-3846969D01*
G01*
X206161429Y-52528735D02*
G75*
G03*
X208202617Y-52135926I-858929J9963135D01*
G01*
X218452547Y-80138983D02*
X217902547Y-79888983D01*
X117952547Y-33838983D02*
X117402547Y-33888983D01*
X210479456Y-103049970D02*
G75*
G03*
X211027374Y-103112879I1414044J9898270D01*
G01*
X138802549Y-39388983D02*
X139102549Y-39438983D01*
X218752547Y-100888983D02*
X218345408Y-100855055D01*
X153682547Y-130538983D02*
X153682547Y-133078983D01*
X202003791Y-74538983D02*
X198552547Y-74538983D01*
X212352547Y-82888983D02*
X211502547Y-82638983D01*
X140102547Y-106738983D02*
X140202547Y-107238983D01*
X102702547Y-89538983D02*
X103702547Y-88038983D01*
D23*
X95302547Y-35788983D02*
X95302547Y-32257426D01*
D22*
X144712547Y-80858983D02*
X137702547Y-81188983D01*
D23*
X110752547Y-32221024D02*
X106402547Y-32226942D01*
D22*
X96752547Y-50488983D02*
X96202547Y-50638983D01*
X91608522Y-53288168D02*
X92480230Y-53169299D01*
X97252547Y-50288983D02*
X96752547Y-50488983D01*
X209002547Y-68488983D02*
X208555166Y-68610996D01*
D23*
X102952547Y-54338983D02*
X102352547Y-54838983D01*
D22*
X231102547Y-70438983D02*
X233252547Y-70388983D01*
X218052547Y-59038983D02*
X216682547Y-58908983D01*
X219724863Y-127908940D02*
X219070140Y-127754887D01*
D23*
X238180791Y-151988983D02*
X238655791Y-151713983D01*
D22*
X88402547Y-115888983D02*
X88152547Y-116488983D01*
X103182547Y-43288983D02*
X100802547Y-43338983D01*
D23*
X202202549Y-28888983D02*
X202602549Y-29438983D01*
D22*
X196616817Y-72466533D02*
G75*
G03*
X195477333Y-72277354I-2204817J-9753967D01*
G01*
X208277956Y-75272787D02*
G75*
G03*
X208126591Y-75206431I-4090856J-9125813D01*
G01*
X214811347Y-97878645D02*
G75*
G02*
X214196812Y-97780189I1274053J9919445D01*
G01*
X199708615Y-91140575D02*
X199696481Y-91137384D01*
X145340826Y-39394520D02*
G75*
G03*
X144964197Y-39390540I-293926J-9992180D01*
G01*
X195075607Y-78747630D02*
G75*
G03*
X195839629Y-78999581I3511393J9363630D01*
G01*
X181299771Y-72847929D02*
G75*
G03*
X181205239Y-72830492I-1862471J-9831971D01*
G01*
D23*
X228530698Y-149260706D02*
G75*
G03*
X229579735Y-149361909I1483402J9888906D01*
G01*
D22*
X199594765Y-102514732D02*
G75*
G02*
X200704162Y-102625172I-434365J-9990568D01*
G01*
X82578632Y-88377449D02*
G75*
G03*
X83049670Y-88982447I8120468J5836549D01*
G01*
X202193227Y-108991917D02*
G75*
G02*
X204094928Y-109168487I30573J-9999883D01*
G01*
X190883793Y-71026484D02*
G75*
G02*
X191222497Y-70957337I2169507J-9762816D01*
G01*
X166302502Y-74151472D02*
G75*
G03*
X167822501Y-74408974I2425298J9701272D01*
G01*
X208916901Y-112746226D02*
G75*
G02*
X209358911Y-113450127I-8240301J-5665174D01*
G01*
X233002867Y-88535173D02*
G75*
G03*
X232356102Y-87677580I-8295967J-5583827D01*
G01*
X215131652Y-81312489D02*
G75*
G03*
X214770729Y-81172467I-3795952J-9249311D01*
G01*
X203203485Y-92014139D02*
G75*
G02*
X202310347Y-91822999I1643915J9863739D01*
G01*
X214309914Y-92992093D02*
G75*
G02*
X213995356Y-92980921I197686J9999593D01*
G01*
X187970978Y-66417835D02*
G75*
G02*
X187733642Y-66457277I-1756178J9833835D01*
G01*
D23*
X102452547Y-71154930D02*
G75*
G03*
X102418005Y-70324473I-9999347J30D01*
G01*
D22*
X207489611Y-79658244D02*
G75*
G03*
X206814951Y-79642498I-570511J-9983256D01*
G01*
D23*
X102452547Y-72839620D02*
G75*
G02*
X102420699Y-73637075I-10000247J20D01*
G01*
X81528506Y-100002666D02*
G75*
G03*
X81378592Y-100177024I7507994J-6607034D01*
G01*
D22*
X149869958Y-40007579D02*
G75*
G03*
X149734887Y-39971332I-2665358J-9662421D01*
G01*
X214710232Y-120756504D02*
G75*
G03*
X216198878Y-120810273I1104268J9938604D01*
G01*
X204816899Y-72257965D02*
G75*
G02*
X205481807Y-72442962I-2346599J-9721435D01*
G01*
X224144282Y-107138983D02*
G75*
G03*
X223960827Y-107140665I18J-10005417D01*
G01*
X228066250Y-123473293D02*
G75*
G02*
X228238555Y-123506183I-1789950J-9844907D01*
G01*
X211597705Y-80165155D02*
G75*
G02*
X211806851Y-80215059I-2216905J-9754145D01*
G01*
X167539841Y-49954637D02*
G75*
G03*
X167764869Y-49920770I-1376041J9907537D01*
G01*
X141702547Y-150588983D02*
X141252547Y-150788983D01*
X209472356Y-120441048D02*
G75*
G03*
X209226941Y-120141670I-7854656J-6188552D01*
G01*
X164169167Y-45676041D02*
G75*
G02*
X165259884Y-45265590I4061433J-9138259D01*
G01*
X225113653Y-65339341D02*
G75*
G02*
X225091442Y-65338600I304947J9473741D01*
G01*
X178288255Y-71284517D02*
G75*
G02*
X178316826Y-71293492I-3021755J-9669283D01*
G01*
X100565132Y-87679342D02*
G75*
G02*
X100330118Y-88093031I-8809732J4731142D01*
G01*
D23*
X221004748Y-47885523D02*
G75*
G03*
X220280488Y-47423578I-5734748J-8192477D01*
G01*
D22*
X217140328Y-131030062D02*
G75*
G03*
X217764714Y-131028399I285572J9995762D01*
G01*
X99484057Y-77568150D02*
G75*
G03*
X99690583Y-76801610I-9544957J2982750D01*
G01*
X186472712Y-66650388D02*
G75*
G03*
X186525919Y-66642641I-1422812J9958888D01*
G01*
X174839143Y-66837643D02*
G75*
G02*
X173873022Y-66693075I995057J9950243D01*
G01*
X227484218Y-102614224D02*
G75*
G02*
X229190778Y-103844242I-4961418J-8682476D01*
G01*
X197269299Y-79404154D02*
G75*
G03*
X199362063Y-79652061I2216201J9751354D01*
G01*
X220146050Y-122960735D02*
G75*
G02*
X219473230Y-122591391I4472250J8944435D01*
G01*
X209502547Y-77338983D02*
X208352547Y-77138983D01*
D23*
X96102547Y-90138983D02*
X97302547Y-89888983D01*
D22*
X91402547Y-68238983D02*
X87952547Y-67738983D01*
X196564545Y-68779839D02*
G75*
G03*
X196136585Y-68607995I-3938545J-9189761D01*
G01*
X206265782Y-69220916D02*
G75*
G02*
X206843685Y-69074284I2747118J-9614784D01*
G01*
X177764366Y-45890884D02*
G75*
G03*
X175641703Y-45031737I-4788466J-8778916D01*
G01*
X99902547Y-40788983D02*
X99452547Y-40338983D01*
X107102547Y-121838983D02*
X106652547Y-121738983D01*
X229752547Y-109038983D02*
X228802547Y-107788983D01*
X128502547Y-66438983D02*
X126902547Y-74338983D01*
X203952549Y-148338983D02*
X203702549Y-148638983D01*
X230702547Y-74938983D02*
X229552547Y-75338983D01*
X214442446Y-51055328D02*
G75*
G03*
X213152968Y-50906501I-1788846J-9838472D01*
G01*
D23*
X99800025Y-82423685D02*
G75*
G02*
X99483502Y-83043261I-9058125J4236885D01*
G01*
D22*
X116630904Y-148535073D02*
G75*
G02*
X115279876Y-148451239I-57604J9999873D01*
G01*
D23*
X217102547Y-46938983D02*
X217382547Y-46618983D01*
D22*
X87852547Y-96338983D02*
X89552547Y-98788983D01*
X212215008Y-92889622D02*
X213995356Y-92980922D01*
X92202547Y-69788983D02*
X90852547Y-69638983D01*
X135852547Y-109288983D02*
X135702547Y-109688983D01*
X177764366Y-45890884D02*
X179113139Y-46626579D01*
X107452547Y-134988983D02*
X107352547Y-134488983D01*
X100802547Y-43338983D02*
X100802547Y-42488983D01*
X140952547Y-59238983D02*
X141302547Y-59288983D01*
X227302547Y-80838983D02*
X224702547Y-80738983D01*
X227952547Y-93538983D02*
X226852547Y-93188983D01*
X220052547Y-59788983D02*
X219152547Y-59438983D01*
X144552547Y-45268983D02*
X134102547Y-45284183D01*
X229152547Y-129438983D02*
X228452427Y-129132681D01*
X92925999Y-53118669D02*
X94184748Y-53004237D01*
X216682547Y-119538983D02*
X215102547Y-118688983D01*
X206852547Y-72888983D02*
X206177833Y-72664078D01*
D23*
X100875208Y-80125019D02*
X99800025Y-82423685D01*
D22*
X88752547Y-115488983D02*
X88402547Y-115888983D01*
X206902547Y-55138983D02*
X206981940Y-55109211D01*
X107752547Y-145538983D02*
X107602547Y-144988983D01*
X87752547Y-54038983D02*
X88452547Y-53738983D01*
X88202547Y-139188983D02*
X88502547Y-138788983D01*
X213401315Y-70788162D02*
X213292362Y-70715526D01*
X233752547Y-89648983D02*
X233002867Y-88535173D01*
X137802547Y-42688983D02*
X136002547Y-40638983D01*
X212502547Y-99288983D02*
X206402547Y-98438983D01*
X147952547Y-58588983D02*
X148102547Y-58338983D01*
D23*
X106452547Y-39588983D02*
X106452547Y-39288983D01*
D22*
X87108434Y-56750758D02*
X87052547Y-56638983D01*
X100452547Y-94888983D02*
X100952547Y-94488983D01*
D23*
X217976706Y-46705933D02*
X217382547Y-46618983D01*
D22*
X108602547Y-147388983D02*
X108302547Y-146888983D01*
X137752549Y-38038983D02*
X138052549Y-38088983D01*
X224302547Y-119538983D02*
X225852547Y-119588983D01*
X208418101Y-102534493D02*
X206629924Y-101877611D01*
X212022889Y-121146493D02*
X210415332Y-119424110D01*
X164452547Y-138288983D02*
X161302547Y-138158983D01*
D23*
X228852547Y-47238983D02*
X228452547Y-47938983D01*
D22*
X82752547Y-73988983D02*
X82452547Y-73838983D01*
X227102549Y-113788983D02*
X227802549Y-114738983D01*
X209226942Y-120141669D02*
X205302547Y-115538983D01*
X164722547Y-73278983D02*
X159952547Y-73238983D01*
X207208711Y-72942408D02*
X206852547Y-72888983D01*
X227802547Y-135688983D02*
X228852547Y-137888983D01*
X208552547Y-63688983D02*
X208002547Y-64188983D01*
X224302547Y-105738983D02*
X223202658Y-105262365D01*
X159792547Y-47808983D02*
X161698958Y-46799707D01*
X139902547Y-106338983D02*
X140102547Y-106738983D01*
X103702547Y-88038983D02*
X105002547Y-85438983D01*
D23*
X117974299Y-53245480D02*
X118002547Y-53188983D01*
X236752547Y-81648983D02*
X236752547Y-85648983D01*
D22*
X166102547Y-70538983D02*
X164722547Y-70738983D01*
X84752547Y-67838983D02*
X84502547Y-67488983D01*
X137552547Y-146738983D02*
X137502547Y-147488983D01*
X95302547Y-70688983D02*
X94702547Y-70388983D01*
X170903013Y-74437097D02*
X170571398Y-74461661D01*
X230757555Y-105919764D02*
X230420804Y-105401686D01*
X135702547Y-109688983D02*
X135452547Y-110138983D01*
X230652549Y-117938983D02*
X231702549Y-118888983D01*
X208302547Y-70788983D02*
X200122547Y-70718983D01*
X215702547Y-130988983D02*
X215325218Y-130894651D01*
X102105427Y-84688124D02*
X103275880Y-81798568D01*
X87602547Y-50738983D02*
X92802547Y-50776393D01*
X84402547Y-67088983D02*
X84302547Y-66738983D01*
X200122547Y-80878983D02*
X205052547Y-80888983D01*
X210402547Y-111238983D02*
X209902547Y-110038983D01*
X85102547Y-148588983D02*
X84302547Y-147788983D01*
X209702547Y-102938983D02*
X208992798Y-102726058D01*
X128802547Y-39388983D02*
X128852547Y-39038983D01*
X91652547Y-116788983D02*
X91952547Y-116338983D01*
D23*
X232143076Y-42253241D02*
X224302547Y-42264410D01*
D22*
X196200002Y-73954801D02*
X195945091Y-73869831D01*
X137552547Y-145638983D02*
X137552547Y-146738983D01*
X113902547Y-149938983D02*
X112752547Y-149838983D01*
D23*
X118152547Y-52788983D02*
X118286697Y-52297099D01*
D22*
X207652547Y-66838983D02*
X206652547Y-67388983D01*
X231402547Y-74638983D02*
X230702547Y-74938983D01*
D23*
X239930791Y-150038983D02*
X240005791Y-149688983D01*
D22*
X222202547Y-96788983D02*
X221702547Y-96638983D01*
X194902547Y-65788983D02*
X194302547Y-65688983D01*
X217385927Y-125888983D02*
X216756398Y-125888983D01*
X207875568Y-59924027D02*
G75*
G02*
X207323198Y-60137574I-3879968J9214927D01*
G01*
D23*
X231928332Y-149388983D02*
G75*
G02*
X231876762Y-149388850I-232J9923483D01*
G01*
D22*
X219891455Y-85581346D02*
G75*
G03*
X220816998Y-85653612I1240345J9922546D01*
G01*
X210073852Y-79876784D02*
X209200722Y-79774063D01*
X212579577Y-52684069D02*
X213102547Y-52588983D01*
X105952547Y-132788983D02*
X105552547Y-132738983D01*
X175902547Y-73268983D02*
X174274140Y-73732832D01*
D23*
X144712547Y-91018983D02*
X144752547Y-106388983D01*
D22*
X216682547Y-103198983D02*
X213065031Y-103235340D01*
X144712547Y-78318983D02*
X148252547Y-78388983D01*
X94652547Y-104338983D02*
X94752547Y-103988983D01*
X200519559Y-126392560D02*
X142802547Y-126588983D01*
X144712547Y-78318983D02*
X136452547Y-78588983D01*
X218552547Y-95538983D02*
X216682547Y-95578983D01*
X151402547Y-112288983D02*
X164052547Y-112288983D01*
X211752547Y-63638983D02*
X210802547Y-64238983D01*
X94315559Y-116388959D02*
X121952547Y-116338983D01*
X90359153Y-60946690D02*
X89538163Y-59988869D01*
X123752547Y-55638983D02*
X120052547Y-49588983D01*
X228066250Y-123473293D02*
X227602547Y-123388983D01*
D23*
X226838376Y-148608888D02*
X226352547Y-148338983D01*
D22*
X197552547Y-71888983D02*
X197061476Y-71748677D01*
X222102547Y-78688983D02*
X220402547Y-78388983D01*
X92652547Y-135288983D02*
X92552547Y-132538983D01*
X192502547Y-78338983D02*
X187752547Y-82088983D01*
D23*
X118402547Y-51888983D02*
X118492547Y-50908983D01*
D22*
X81902547Y-42138983D02*
X90452547Y-42188983D01*
D23*
X236802547Y-46538983D02*
X236752547Y-44838983D01*
D22*
X232356102Y-87677580D02*
X231902547Y-87138983D01*
X227452547Y-135088983D02*
X227802547Y-135688983D01*
X197202547Y-67388983D02*
X195652547Y-66938983D01*
X234552547Y-122888983D02*
X234902547Y-122338983D01*
D23*
X87352547Y-94188983D02*
X87302547Y-92888983D01*
D22*
X213452547Y-117688983D02*
X212652547Y-116988983D01*
X181302547Y-66438983D02*
X180852547Y-65938983D01*
X148252547Y-50138983D02*
X148152547Y-49788983D01*
X205302547Y-66188983D02*
X204852547Y-66388983D01*
X172664615Y-74158900D02*
X172190352Y-74257023D01*
X193852547Y-69438983D02*
X191852547Y-69488983D01*
X97702547Y-50088983D02*
X97252547Y-50288983D01*
X205902547Y-60488983D02*
X206752547Y-60338983D01*
X213102547Y-130088983D02*
X212758977Y-129835826D01*
X187733642Y-66457276D02*
X186632247Y-66626721D01*
X225402547Y-55038983D02*
X224502547Y-55138983D01*
D23*
X102452547Y-71154930D02*
X102452547Y-72839620D01*
D22*
X82202547Y-146138983D02*
X82252547Y-115688983D01*
X164722547Y-75818983D02*
X175902547Y-75808983D01*
X215702547Y-83188983D02*
X213402547Y-83088983D01*
X187925697Y-71705794D02*
X186402547Y-72038983D01*
X86852547Y-55738983D02*
X86902547Y-55488983D01*
X128352547Y-119538983D02*
X126652547Y-121738983D01*
D23*
X192502547Y-83418983D02*
X192552547Y-87066842D01*
D22*
X77752547Y-70988983D02*
X77752547Y-71651270D01*
X221502547Y-83738983D02*
X220102547Y-83488983D01*
X199708615Y-91140575D02*
X202310348Y-91822996D01*
D23*
X92902547Y-90738983D02*
X94702547Y-90438983D01*
D22*
X194428267Y-89748491D02*
X199696481Y-91137384D01*
D23*
X227552547Y-48938983D02*
X226952547Y-49488983D01*
D22*
X207052547Y-106988983D02*
X205952547Y-106488983D01*
X214202547Y-71288983D02*
X213707343Y-70984242D01*
X218302547Y-54088983D02*
X216682547Y-53828983D01*
X214309914Y-92992093D02*
X216682547Y-93038983D01*
X221201582Y-120881068D02*
G75*
G02*
X221700198Y-121009742I-2248382J-9742932D01*
G01*
X96165704Y-82303019D02*
G75*
G02*
X95196372Y-83016503I-6401804J7682219D01*
G01*
X206695656Y-104173221D02*
G75*
G02*
X205917469Y-103973462I2095244J9777921D01*
G01*
D23*
X220280487Y-47423580D02*
X219702547Y-47088983D01*
D22*
X92802547Y-50776393D02*
X94552547Y-50788983D01*
X97252547Y-143338983D02*
X97352547Y-139688983D01*
X189145007Y-72418568D02*
G75*
G02*
X190170848Y-72213135I2473793J-9689032D01*
G01*
X190124106Y-90888983D02*
G75*
G03*
X190080989Y-90889076I-206J-9888317D01*
G01*
X212525546Y-52694046D02*
G75*
G02*
X212579577Y-52684069I1827554J-9745854D01*
G01*
D23*
X126102547Y-32200140D02*
X110752547Y-32221024D01*
D22*
X227002547Y-134488983D02*
X227452547Y-135088983D01*
X79302547Y-64388983D02*
X78905393Y-65729377D01*
X222552547Y-63788983D02*
X221552547Y-63588983D01*
X226552547Y-139488983D02*
X227902547Y-141738983D01*
X228251737Y-129047473D02*
X227502547Y-128738983D01*
X142557012Y-88679942D02*
G75*
G02*
X142870082Y-88551751I529988J-847958D01*
G01*
X207375328Y-111113430D02*
G75*
G02*
X208005036Y-111691476I-6441728J-7649470D01*
G01*
X197583160Y-71893065D02*
G75*
G03*
X199028244Y-71980023I1321640J9912465D01*
G01*
X232802547Y-47888983D02*
X230952547Y-50138983D01*
X161302547Y-148318983D02*
X164502549Y-148338983D01*
X87002547Y-70088983D02*
X87952547Y-70338983D01*
X179204638Y-72473406D02*
G75*
G02*
X179400128Y-72506498I-1571238J-9876094D01*
G01*
X171036024Y-63623632D02*
G75*
G02*
X173629601Y-64618079I-2248624J-9743868D01*
G01*
X221928824Y-73561337D02*
G75*
G03*
X222076695Y-73615463I3506776J9351337D01*
G01*
X129552547Y-38088983D02*
X130002547Y-38038983D01*
X124052547Y-50888983D02*
X124002547Y-35588983D01*
D23*
X203152549Y-40438983D02*
X203352549Y-40838983D01*
D22*
X226505715Y-128534220D02*
X225902547Y-128438983D01*
X128352547Y-141188983D02*
X126652547Y-143338983D01*
X87852547Y-121738983D02*
X87852547Y-132538983D01*
X225789535Y-107270079D02*
X225493126Y-107181157D01*
X196702547Y-76688983D02*
X195552547Y-76388983D01*
X221374928Y-94757078D02*
X221350726Y-94751028D01*
X164752547Y-52888983D02*
X159792547Y-52888983D01*
D23*
X203702547Y-125688983D02*
X203953550Y-126011701D01*
D22*
X225952547Y-93038983D02*
X224302547Y-93038983D01*
X200122547Y-78338983D02*
X205052547Y-78338983D01*
X188202547Y-84988983D02*
X182102547Y-84938983D01*
X224656719Y-101988983D02*
X221652547Y-101988983D01*
D23*
X205152549Y-146638983D02*
X205189290Y-136726012D01*
D22*
X220707164Y-104645052D02*
G75*
G03*
X220597867Y-104633515I-1109164J-9984248D01*
G01*
X185625250Y-66771454D02*
G75*
G02*
X185379448Y-66803464I-1414450J9901554D01*
G01*
X212389109Y-80360624D02*
G75*
G02*
X213399569Y-80670817I-2425309J-9701376D01*
G01*
X204873441Y-60539357D02*
G75*
G03*
X205630537Y-60509908I-9841J9999857D01*
G01*
X157678053Y-43435028D02*
G75*
G02*
X158022680Y-43649936I-5118853J-8592372D01*
G01*
D23*
X80993074Y-100635975D02*
G75*
G03*
X79949896Y-102137764I7657126J-6432025D01*
G01*
D22*
X83952547Y-112738983D02*
X84752547Y-112088983D01*
X190932547Y-130538983D02*
X187802547Y-130538983D01*
X97893534Y-80587749D02*
X98252547Y-80138983D01*
X165707076Y-73941144D02*
X164722547Y-73278983D01*
X227489749Y-109882816D02*
X227324811Y-109435127D01*
X212389109Y-80360624D02*
X211806851Y-80215059D01*
X91302547Y-117138983D02*
X91652547Y-116788983D01*
X203660863Y-103300970D02*
X202270363Y-102927909D01*
X229845056Y-104604619D02*
X229352547Y-103988983D01*
X191544304Y-90888983D02*
G75*
G02*
X191960609Y-90897650I-4J-10002617D01*
G01*
X173664163Y-44598936D02*
G75*
G02*
X175119483Y-44887284I-1210563J-9926564D01*
G01*
X227881779Y-110817255D02*
G75*
G02*
X228106958Y-111367405I-9138879J-4061745D01*
G01*
X229702549Y-116938983D02*
X230652549Y-117938983D01*
X85602547Y-68538983D02*
X85252547Y-68288983D01*
D23*
X192030791Y-152238983D02*
X217530791Y-152238983D01*
D22*
X164722547Y-80898983D02*
X159952547Y-80858983D01*
X215102547Y-118688983D02*
X213452547Y-117688983D01*
X185781037Y-73204874D02*
X185402547Y-73288983D01*
X225617962Y-130636216D02*
X224302547Y-129698983D01*
X78336964Y-79888339D02*
X78659540Y-80936712D01*
X211764587Y-58243557D02*
X212202547Y-58088983D01*
X211752547Y-52838983D02*
X212525546Y-52694046D01*
D23*
X197302547Y-128488983D02*
X197702547Y-128688983D01*
D22*
X219852547Y-94488983D02*
X219502547Y-94388983D01*
X221352547Y-60088983D02*
X220052547Y-59788983D01*
X94052547Y-70088983D02*
X93252547Y-69938983D01*
X141102547Y-60488983D02*
X139952547Y-60388983D01*
X209902547Y-110038983D02*
X209402547Y-109238983D01*
X84502547Y-53388983D02*
X84702547Y-52938983D01*
X203702549Y-136088983D02*
X203952549Y-136338983D01*
X128302547Y-40288983D02*
X128602547Y-40088983D01*
X204220619Y-100802935D02*
X203052547Y-100288983D01*
X205894970Y-74146726D02*
X205652547Y-74038983D01*
X216682547Y-129698983D02*
X205302547Y-118538983D01*
X164722547Y-78358983D02*
X159952547Y-78318983D01*
X200122547Y-83418983D02*
X205052547Y-83438983D01*
X99873980Y-73284238D02*
X99785232Y-72958829D01*
X224302549Y-108438983D02*
X224902549Y-109938983D01*
X207706266Y-104389355D02*
X207702547Y-104388983D01*
X193902549Y-141338983D02*
X193452549Y-141088983D01*
X212652547Y-116988983D02*
X211702547Y-115738983D01*
X77712647Y-74861673D02*
X77777298Y-76607267D01*
X201502547Y-105638983D02*
X186802547Y-105538983D01*
X197884240Y-99443451D02*
X186802547Y-99538983D01*
X169832686Y-74488983D02*
X169156156Y-74488983D01*
D23*
X92552547Y-55538983D02*
X97202547Y-55549339D01*
D22*
X107052547Y-85888983D02*
X108152547Y-83238983D01*
X86952547Y-55088983D02*
X87102547Y-54738983D01*
X201222845Y-102706217D02*
X200704162Y-102625173D01*
X98902547Y-92088983D02*
X100252547Y-91488983D01*
X197852547Y-69338983D02*
X197463465Y-69166058D01*
X106652547Y-121738983D02*
X97252547Y-121738983D01*
X94752547Y-103638983D02*
X94802547Y-93538983D01*
X165294115Y-50203727D02*
X159792547Y-50348983D01*
X216682547Y-76868983D02*
X214007960Y-76722207D01*
X112702547Y-44588983D02*
X113052547Y-44488983D01*
X139052547Y-114088983D02*
X138652547Y-114588983D01*
X145552547Y-54088983D02*
X145902547Y-54138983D01*
D23*
X229002547Y-46638983D02*
X228852547Y-47238983D01*
D22*
X210748498Y-68766553D02*
X210702547Y-68738983D01*
X204852547Y-67788983D02*
X203852547Y-67838983D01*
X111252547Y-146988983D02*
X110729352Y-146570427D01*
X107443646Y-122037958D02*
X107102547Y-121838983D01*
X87902547Y-117838983D02*
X87802547Y-118738983D01*
X216682547Y-61448983D02*
X214102547Y-61438983D01*
X87682547Y-38328983D02*
X81902547Y-38338983D01*
D23*
X82252547Y-28388983D02*
X200259052Y-28538674D01*
D22*
X204661899Y-69439313D02*
X198552547Y-69488983D01*
X195052547Y-69588983D02*
X193852547Y-69438983D01*
X147252547Y-59138983D02*
X147502547Y-58988983D01*
X111602547Y-49688983D02*
X110802547Y-48368983D01*
D23*
X179552547Y-128414723D02*
X161302547Y-128388983D01*
D22*
X218452547Y-122188983D02*
X216682547Y-122078983D01*
D23*
X239805791Y-150438983D02*
X239930791Y-150038983D01*
D22*
X164722547Y-80898983D02*
X175902547Y-80888983D01*
X207679524Y-96021435D02*
X208871414Y-96440207D01*
D23*
X200745743Y-28551143D02*
X201502549Y-28588983D01*
D22*
X180852547Y-65938983D02*
X180552547Y-65788983D01*
X113376858Y-148041276D02*
X113202547Y-147988983D01*
X105376157Y-71468622D02*
X105652547Y-68888983D01*
D23*
X102352547Y-54838983D02*
X102052547Y-54988983D01*
D22*
X135752547Y-40488983D02*
X130802547Y-40538983D01*
X87452547Y-69088983D02*
X86452547Y-68888983D01*
D23*
X234692547Y-111408983D02*
X234802547Y-112688983D01*
D22*
X211597705Y-80165155D02*
X211121650Y-80056961D01*
X220112158Y-94521434D02*
X219852547Y-94488983D01*
X107202547Y-134088983D02*
X107002547Y-133638983D01*
X116252547Y-38038983D02*
X116520751Y-38038983D01*
X87852547Y-74338983D02*
X85778072Y-74415815D01*
X110002547Y-145938983D02*
X109702547Y-145488983D01*
X99352547Y-77988983D02*
X99484057Y-77568150D01*
X219552547Y-99588983D02*
X218402547Y-99538983D01*
X145340826Y-39394520D02*
X146475165Y-39427883D01*
X217428994Y-106725666D02*
X216682547Y-105738983D01*
X221702547Y-96638983D02*
X221102547Y-96338983D01*
X209439063Y-96620845D02*
G75*
G02*
X208871414Y-96440208I2747037J9614745D01*
G01*
X212190085Y-92888375D02*
G75*
G02*
X212215008Y-92889622I-505085J-10344625D01*
G01*
X77920142Y-77960956D02*
G75*
G02*
X77777304Y-76607267I9850258J1723756D01*
G01*
X171932547Y-135618983D02*
X168752547Y-135638983D01*
X204602547Y-73888983D02*
X204252547Y-73938983D01*
X159952547Y-68158983D02*
X164722547Y-68198983D01*
X194852547Y-96688983D02*
X192152547Y-96688983D01*
X214552547Y-123438983D02*
X213991101Y-122995736D01*
X194566532Y-141916950D02*
X194552549Y-141888983D01*
X95602547Y-92088983D02*
X96132701Y-91848004D01*
X98902547Y-52538983D02*
X99352547Y-52438983D01*
X164452547Y-133188983D02*
X161302547Y-133078983D01*
X90652547Y-71638983D02*
X91202547Y-72088983D01*
X98102547Y-49838983D02*
X97702547Y-50088983D01*
X219002547Y-80338983D02*
X218452547Y-80138983D01*
D23*
X203652549Y-41188983D02*
X203666297Y-41200440D01*
D22*
X220452547Y-120738983D02*
X219771690Y-120708035D01*
D23*
X108302547Y-40838983D02*
X107402547Y-40838983D01*
D22*
X204677043Y-72224207D02*
G75*
G03*
X202700751Y-71951875I-2346443J-9720893D01*
G01*
X134855774Y-145887268D02*
G75*
G03*
X134890060Y-146789150I10000126J-71432D01*
G01*
X213011437Y-97544391D02*
G75*
G03*
X213395259Y-97626043I2272063J9737391D01*
G01*
X231274153Y-116660589D02*
G75*
G03*
X231446212Y-116798295I707047J707089D01*
G01*
X204383817Y-100876492D02*
G75*
G03*
X204220619Y-100802934I-4185917J-9069208D01*
G01*
X220030063Y-104573672D02*
G75*
G03*
X220275373Y-104601265I1240337J9922772D01*
G01*
X99852547Y-88888983D02*
X100330118Y-88093031D01*
D23*
X138202547Y-32188983D02*
X200702547Y-32188983D01*
X106802547Y-40488983D02*
X106652547Y-40238983D01*
D22*
X203052547Y-100288983D02*
X202435901Y-100112799D01*
X230085334Y-91481811D02*
X229068814Y-91058261D01*
D23*
X232130791Y-152213983D02*
X233805791Y-152213983D01*
D22*
X205652547Y-69388983D02*
X205102547Y-69438983D01*
X102852547Y-92788983D02*
X103652547Y-91788983D01*
X224302547Y-134778983D02*
X225352547Y-137238983D01*
X148102547Y-58338983D02*
X148202547Y-58088983D01*
X214052549Y-108238983D02*
X211452549Y-108238983D01*
X130002547Y-38038983D02*
X137752549Y-38038983D01*
X97252547Y-143338983D02*
X96802547Y-145888983D01*
D23*
X205152547Y-130907237D02*
G75*
G03*
X205152749Y-130970728I9880053J-263D01*
G01*
X118286697Y-52297099D02*
G75*
G02*
X118319096Y-52181062I9664403J-2635901D01*
G01*
D22*
X204743197Y-69438983D02*
G75*
G03*
X204661899Y-69439313I203J-10075517D01*
G01*
X182052547Y-66888983D02*
X181752547Y-66788983D01*
X202313180Y-149038673D02*
X196002549Y-148988983D01*
X126112547Y-40748983D02*
X127231237Y-40573666D01*
X128102547Y-94288983D02*
X126852547Y-96338983D01*
X96165704Y-82303019D02*
X96370604Y-82132269D01*
D23*
X116302547Y-55188983D02*
X117002547Y-54688983D01*
D22*
X181452547Y-66638983D02*
X181302547Y-66438983D01*
X157452547Y-99538983D02*
X164052547Y-99538983D01*
X97235645Y-91260922D02*
X98002547Y-90788983D01*
X192952549Y-140888983D02*
X192741846Y-140862645D01*
X115352547Y-34588983D02*
X114802547Y-34938983D01*
X230473671Y-136063738D02*
X229987280Y-135372550D01*
X89552547Y-98788983D02*
X89852547Y-99538983D01*
X140152547Y-108288983D02*
X139552547Y-112638983D01*
D23*
X235512547Y-143518983D02*
X235512547Y-147518983D01*
X236652547Y-96288983D02*
X236552547Y-96738983D01*
D22*
X214052547Y-120638983D02*
X213452547Y-120338983D01*
X140252547Y-107688983D02*
X140152547Y-108288983D01*
X137352547Y-148088983D02*
X136902547Y-148738983D01*
X113952547Y-39688983D02*
X114202547Y-39138983D01*
X210230714Y-115723485D02*
X209911088Y-114764606D01*
X229902547Y-100038983D02*
X229843526Y-99987831D01*
X92552547Y-96338983D02*
X92502547Y-92488983D01*
X167262547Y-85978983D02*
X169802547Y-85978983D01*
X208947641Y-51908077D02*
X210319838Y-51462113D01*
X233252547Y-70388983D02*
X236822547Y-70338983D01*
D23*
X78702547Y-105288983D02*
X78702547Y-106133236D01*
D22*
X232552547Y-129498983D02*
X224302547Y-124618983D01*
X128852547Y-39038983D02*
X128902547Y-38788983D01*
X87852547Y-74338983D02*
X87852547Y-85338983D01*
X219045531Y-57714628D02*
X219252547Y-57738983D01*
X139902547Y-56938983D02*
X140102547Y-57138983D01*
X223960827Y-107140666D02*
X218717754Y-107236869D01*
X129252547Y-38238983D02*
X129552547Y-38088983D01*
X99452547Y-40338983D02*
X98952547Y-40038983D01*
D23*
X110802547Y-35668983D02*
X110752547Y-32221024D01*
D22*
X103652547Y-91788983D02*
X104352547Y-90888983D01*
X89843363Y-53526711D02*
X91596571Y-53289791D01*
X224302547Y-84488983D02*
X222502547Y-84038983D01*
D23*
X205152749Y-130970728D02*
X205189290Y-136726012D01*
D22*
X142104155Y-89065716D02*
G75*
G03*
X141891969Y-89461103I752545J-658484D01*
G01*
X179437492Y-67312432D02*
G75*
G03*
X178357304Y-67124837I-2248592J-9743868D01*
G01*
X225789535Y-107270079D02*
G75*
G03*
X225915803Y-107307055I2874865J9583079D01*
G01*
X87952547Y-117138983D02*
X87902547Y-117838983D01*
X85602547Y-51788983D02*
X85902547Y-51538983D01*
X142205256Y-88950172D02*
X142104155Y-89065716D01*
D23*
X204255759Y-41655562D02*
X204302549Y-41688983D01*
D22*
X204202549Y-147788983D02*
X203952549Y-148338983D01*
X171932547Y-130538983D02*
X168752547Y-130538983D01*
X83049673Y-88982445D02*
X83602547Y-89638983D01*
X204438837Y-93514678D02*
X205649261Y-93681633D01*
X86052547Y-69938983D02*
X87002547Y-70088983D01*
X104724163Y-76611370D02*
X105085927Y-74703889D01*
X218402547Y-99538983D02*
X217202547Y-99488983D01*
X204452547Y-105988983D02*
X203552547Y-105838983D01*
D23*
X107402547Y-40838983D02*
X107152547Y-40738983D01*
D22*
X195002549Y-148188983D02*
X195002549Y-143138983D01*
X193452549Y-141088983D02*
X192952549Y-140888983D01*
X134352547Y-147938983D02*
X133852547Y-148338983D01*
X144712547Y-65618983D02*
X156002547Y-65688983D01*
X228852547Y-137888983D02*
X229652547Y-139338983D01*
X230802547Y-98638983D02*
X229752547Y-97938983D01*
X220597867Y-104633515D02*
X220275373Y-104601266D01*
X221902547Y-54988983D02*
X219702547Y-54488983D01*
X181609750Y-88489664D02*
X185473550Y-88535662D01*
X147452547Y-49188983D02*
X147152547Y-49138983D01*
X147980574Y-37309069D02*
X145624427Y-37079999D01*
X214490667Y-130646956D02*
X213452547Y-130288983D01*
X209552547Y-113788983D02*
X209358914Y-113450125D01*
X149602547Y-43138983D02*
X149452547Y-42888983D01*
X230030427Y-86235418D02*
X229702547Y-86138983D01*
X203702549Y-148638983D02*
X203352549Y-148838983D01*
D23*
X79329066Y-103365759D02*
X78852547Y-104488983D01*
D22*
X84502547Y-67488983D02*
X84402547Y-67088983D01*
X171932547Y-138158983D02*
X168752547Y-138138983D01*
D23*
X103152547Y-52638983D02*
X103152547Y-53838983D01*
D22*
X100802547Y-42488983D02*
X100602547Y-41838983D01*
X153682547Y-138158983D02*
X150552547Y-138138983D01*
X190691948Y-65932916D02*
X190613373Y-65946301D01*
X83602547Y-89638983D02*
X94952547Y-89138983D01*
X187302547Y-69038983D02*
X185852547Y-69388983D01*
X226352547Y-104688983D02*
X225752547Y-104188983D01*
X144552547Y-42728983D02*
X137802547Y-42688983D01*
X108302547Y-146888983D02*
X107952547Y-146188983D01*
X198552547Y-69488983D02*
X198202547Y-69438983D01*
X170508476Y-49241579D02*
G75*
G02*
X168434910Y-49812115I-3674276J9300479D01*
G01*
D23*
X101988734Y-66873358D02*
G75*
G03*
X101405381Y-64865917I-9841934J-1771542D01*
G01*
D22*
X202193227Y-108991917D02*
X186802547Y-109038983D01*
X218269586Y-104438983D02*
X208701303Y-104438983D01*
X202798987Y-93232472D02*
X204067356Y-93456302D01*
X171932547Y-145778983D02*
X168752547Y-145738983D01*
X210408234Y-73087204D02*
X208503470Y-73051265D01*
D23*
X97252547Y-63138983D02*
X97152547Y-63388983D01*
X229876806Y-149374820D02*
X229579735Y-149361904D01*
D22*
X164722547Y-78358983D02*
X175902547Y-78348983D01*
X90552547Y-105538983D02*
X93102547Y-105538983D01*
X99925376Y-73845555D02*
X99907969Y-73497418D01*
X218935181Y-127722141D02*
X216682547Y-127158983D01*
X193852547Y-91038983D02*
X196904630Y-91754315D01*
D23*
X235552547Y-121498983D02*
X235552547Y-125498983D01*
D22*
X113552547Y-45838983D02*
X113202547Y-45738983D01*
X227550325Y-132425403D02*
X227252041Y-132093977D01*
X194952549Y-142788983D02*
X194907027Y-142675179D01*
X79758215Y-83660448D02*
X80543428Y-85128456D01*
X164052547Y-118788983D02*
X205302547Y-118538983D01*
X211202547Y-114838983D02*
X210852547Y-113638983D01*
X225205779Y-107138983D02*
X224144282Y-107138983D01*
X225252547Y-60138983D02*
X224202547Y-60188983D01*
X91502547Y-138588983D02*
X91052547Y-138238983D01*
D23*
X81378592Y-100177024D02*
X80993074Y-100635975D01*
D22*
X193952547Y-81138983D02*
X192502547Y-80878983D01*
D23*
X235512547Y-139518983D02*
X235512547Y-143518983D01*
D22*
X204252547Y-73938983D02*
X203829111Y-74127177D01*
D23*
X218702547Y-46788983D02*
X218429661Y-46761694D01*
D22*
X209911088Y-114764606D02*
G75*
G03*
X209787546Y-114415647I-9486588J-3162194D01*
G01*
X203768666Y-92108336D02*
G75*
G03*
X204137443Y-92162756I1644034J9864136D01*
G01*
X188397063Y-88718272D02*
G75*
G02*
X189006190Y-88778347I-676363J-9976128D01*
G01*
X114102547Y-35488983D02*
X110802547Y-38208983D01*
X136402547Y-149238983D02*
X135652547Y-149638983D01*
X227484218Y-102614224D02*
X227352547Y-102538983D01*
X121952547Y-116338983D02*
X121952547Y-121738983D01*
X188079124Y-71670965D02*
G75*
G02*
X187925697Y-71705794I-2292024J9741465D01*
G01*
X78159040Y-68656516D02*
G75*
G02*
X78145839Y-68721406I-9840540J1968116D01*
G01*
X80543428Y-85128456D02*
G75*
G03*
X80664417Y-85347992I8822472J4719056D01*
G01*
X194319538Y-70942381D02*
G75*
G03*
X193277549Y-70790525I-1961138J-9805919D01*
G01*
D23*
X86505664Y-96766043D02*
G75*
G03*
X85139747Y-97312669I3022536J-9532657D01*
G01*
D22*
X224656719Y-101988983D02*
G75*
G02*
X226140123Y-102099623I-19J-9999917D01*
G01*
D23*
X236752547Y-44838983D02*
X229002547Y-44838983D01*
D22*
X87602547Y-150988983D02*
X86702547Y-150938983D01*
X192012674Y-93893186D02*
X196608769Y-93985107D01*
X224902547Y-133538983D02*
X225302547Y-133588983D01*
X197252547Y-81938983D02*
X195702547Y-81588983D01*
X216682547Y-134778983D02*
X216652547Y-144238983D01*
X94902547Y-148388983D02*
X94202547Y-148788983D01*
D23*
X106552547Y-39938983D02*
X106452547Y-39588983D01*
D22*
X204816899Y-72257965D02*
X204677043Y-72224207D01*
X113452547Y-44338983D02*
X113652547Y-44088983D01*
X139152547Y-56788983D02*
X139602547Y-56838983D01*
X142502547Y-149738983D02*
X142102547Y-150288983D01*
X206026872Y-72615086D02*
X205481808Y-72442960D01*
X231692547Y-99408983D02*
X230802547Y-98638983D01*
D23*
X236822547Y-72248983D02*
X236822547Y-76248983D01*
X172455791Y-152288983D02*
X192030791Y-152238983D01*
D22*
X164722547Y-68198983D02*
X175902547Y-68188983D01*
X86902547Y-56188983D02*
X86852547Y-55738983D01*
X200152547Y-62188983D02*
X200122547Y-65638983D01*
X192502547Y-70718983D02*
X191222497Y-70957337D01*
D23*
X229002547Y-44838983D02*
X229052547Y-46088983D01*
D22*
X199103000Y-99505693D02*
X198918538Y-99488125D01*
X133302547Y-148438983D02*
X116630904Y-148535073D01*
X222502547Y-58838983D02*
X224302547Y-58908983D01*
X204052547Y-66638983D02*
X203602547Y-66738983D01*
X140402547Y-58638983D02*
X140502547Y-58888983D01*
X128552547Y-129688983D02*
X126652547Y-132538983D01*
X99102547Y-48838983D02*
X98852547Y-49188983D01*
X210202547Y-62288983D02*
X209802547Y-62588983D01*
X178016603Y-67084490D02*
X177375031Y-67004294D01*
X162316450Y-46499470D02*
X164169167Y-45676041D01*
X200152547Y-62188983D02*
X184852547Y-64538983D01*
D23*
X78838713Y-151169811D02*
X78852547Y-151238983D01*
D22*
X97252547Y-74338983D02*
X96502547Y-71838983D01*
X227005820Y-123388546D02*
X222154450Y-123343206D01*
X140602547Y-150988983D02*
X140052547Y-151088983D01*
X128602547Y-40088983D02*
X128802547Y-39388983D01*
X105002547Y-85438983D02*
X106252547Y-82488983D01*
X106352547Y-132988983D02*
X105952547Y-132788983D01*
X210652547Y-112188983D02*
X210402547Y-111238983D01*
X220749245Y-58208212D02*
X221160581Y-58377585D01*
X182702549Y-132688983D02*
X182952549Y-133038983D01*
D23*
X94702547Y-90438983D02*
X96102547Y-90138983D01*
D22*
X219952547Y-57888983D02*
X220655658Y-58170227D01*
X114202547Y-39138983D02*
X114502547Y-38738983D01*
X92552547Y-143338983D02*
X92652547Y-140288983D01*
X97352547Y-139688983D02*
X92652547Y-135288983D01*
X220402547Y-63288983D02*
X219652547Y-63038983D01*
X88502547Y-138788983D02*
X88902547Y-138338983D01*
X85152547Y-69788983D02*
X86052547Y-69938983D01*
X196904630Y-91754315D02*
G75*
G02*
X197199343Y-91828128I-2282430J-9738285D01*
G01*
X226172285Y-131061120D02*
G75*
G03*
X225617961Y-130636217I-6357185J-7719480D01*
G01*
X229845056Y-104604619D02*
G75*
G02*
X230420804Y-105401686I-7808456J-6246781D01*
G01*
X140052547Y-151088983D02*
X87602547Y-150988983D01*
X232052547Y-74238983D02*
X231402547Y-74638983D01*
X87682547Y-40868983D02*
X85102547Y-40838983D01*
X94802547Y-93538983D02*
X95852547Y-93088983D01*
X205755910Y-93695759D02*
X208504263Y-94044756D01*
X83002547Y-142688983D02*
X83102547Y-141638983D01*
X109652547Y-148438983D02*
X109052547Y-147888983D01*
X131652547Y-61838983D02*
X132052547Y-61838983D01*
D23*
X215502547Y-47938983D02*
X216402547Y-47538983D01*
D22*
X193102547Y-66838983D02*
X190852547Y-66988983D01*
X113852547Y-40338983D02*
X113952547Y-39688983D01*
D23*
X102040615Y-76567445D02*
X101801552Y-77501963D01*
D22*
X204252549Y-147388983D02*
X204202549Y-147788983D01*
X113952547Y-46238983D02*
X113802547Y-45988983D01*
X179475191Y-67321132D02*
X179437492Y-67312432D01*
X148202547Y-58088983D02*
X148252547Y-57838983D01*
X87852547Y-143338983D02*
X87902547Y-139888983D01*
X185402547Y-73288983D02*
X183522547Y-73268983D01*
X82002547Y-46088983D02*
X82002547Y-66988983D01*
X233752547Y-85648983D02*
X224302547Y-81948983D01*
X224902549Y-109938983D02*
X225402549Y-110988983D01*
D23*
X236802547Y-50538983D02*
X236802547Y-54538983D01*
D22*
X215402547Y-71688983D02*
X214802547Y-71538983D01*
X77920142Y-77960956D02*
X78044450Y-78671284D01*
X83102547Y-144188983D02*
X83002547Y-142688983D01*
X231315506Y-137426298D02*
X230904871Y-136731378D01*
D23*
X228052547Y-149188983D02*
X227686617Y-149028889D01*
X117974299Y-53245480D02*
G75*
G02*
X117604955Y-53918301I-8944499J4472280D01*
G01*
D22*
X208672199Y-117243373D02*
G75*
G02*
X208439015Y-116930038I7904101J6125673D01*
G01*
X175467054Y-71973525D02*
G75*
G03*
X174636603Y-71938982I-830454J-9965175D01*
G01*
X151028133Y-37985122D02*
G75*
G02*
X152154680Y-38359829I-2587433J-9659878D01*
G01*
X97710934Y-52648424D02*
G75*
G03*
X97993835Y-52625528I-665334J9979924D01*
G01*
X199240117Y-102499312D02*
G75*
G03*
X198764755Y-102489959I-434317J-9988988D01*
G01*
X226402547Y-133988983D02*
X227002547Y-134488983D01*
X227612586Y-85876901D02*
X226753286Y-85841097D01*
X149502547Y-61088983D02*
X149552547Y-60838983D01*
X92852547Y-149338983D02*
X91552547Y-149488983D01*
X204402547Y-66538983D02*
X204052547Y-66638983D01*
D23*
X79152547Y-151738983D02*
X79631451Y-152149472D01*
D22*
X222452547Y-100038983D02*
X221652547Y-99838983D01*
X99402547Y-47938983D02*
X99302547Y-48388983D01*
D23*
X234252547Y-149038983D02*
X234902547Y-148488983D01*
D22*
X89952547Y-137338983D02*
X89852547Y-118288983D01*
X218402547Y-83338983D02*
X217352547Y-83338983D01*
X164722547Y-55488983D02*
X205502547Y-55388983D01*
X225852547Y-119588983D02*
X226552547Y-119688983D01*
X223152547Y-126488983D02*
X222452547Y-126238983D01*
X108952547Y-66288983D02*
X109252547Y-62638983D01*
X144712547Y-70698983D02*
X152952547Y-70738983D01*
X137502547Y-147488983D02*
X137352547Y-148088983D01*
X233802547Y-50538983D02*
X229502547Y-54538983D01*
X126112547Y-50908983D02*
X124052547Y-50888983D01*
X204438837Y-93514678D02*
G75*
G02*
X204067356Y-93456300I1366663J9907778D01*
G01*
X219028169Y-122397524D02*
G75*
G02*
X218679213Y-122273982I3162731J9488024D01*
G01*
X186030924Y-88557856D02*
G75*
G03*
X185473550Y-88535662I-676424J-9977444D01*
G01*
D23*
X101988734Y-66873358D02*
X102168378Y-67871381D01*
D22*
X154485383Y-39292117D02*
X152154678Y-38359835D01*
X151402547Y-73338983D02*
X151402547Y-112288983D01*
D23*
X80140821Y-152380165D02*
X80202547Y-152388983D01*
D22*
X109402547Y-60388983D02*
X109602547Y-58188983D01*
X207952547Y-107638983D02*
X207052547Y-106988983D01*
X222652547Y-96838983D02*
X222202547Y-96788983D01*
X100252547Y-91488983D02*
X101552547Y-90638983D01*
X206752547Y-60338983D02*
X207323199Y-60137576D01*
X219064176Y-104469758D02*
X218934770Y-104461131D01*
X204202547Y-109188983D02*
X204094929Y-109168484D01*
X99352547Y-52438983D02*
X99536548Y-52307554D01*
X228302547Y-98888983D02*
X227736913Y-98676870D01*
X194602547Y-66788983D02*
X193752547Y-66788983D01*
X84302547Y-66738983D02*
X84302547Y-54588983D01*
X228752547Y-97438983D02*
X227802547Y-97138983D01*
X225302547Y-133588983D02*
X225802547Y-133688983D01*
X188152547Y-77138983D02*
X182352547Y-77138983D01*
X225802547Y-133688983D02*
X226402547Y-133988983D01*
X138702547Y-105238983D02*
X139152547Y-105688983D01*
X168452547Y-65588983D02*
X164722547Y-65658983D01*
X108202547Y-72588983D02*
X108552547Y-69688983D01*
X180552547Y-65788983D02*
X180252547Y-65688983D01*
X211902612Y-123397392D02*
X210787020Y-122095868D01*
X208735231Y-92694495D02*
X210063610Y-92783054D01*
X90502547Y-118688983D02*
X90652547Y-118088983D01*
X88902547Y-138338983D02*
X89352547Y-137938983D01*
X135402547Y-106038983D02*
X137852547Y-107888983D01*
X229856502Y-123868249D02*
X229452547Y-123738983D01*
X219552547Y-85538983D02*
X219158859Y-85436282D01*
X229652547Y-139338983D02*
X230552547Y-140588983D01*
X201559811Y-99904652D02*
X201065875Y-99810569D01*
X89852547Y-118288983D02*
X89952547Y-117738983D01*
D23*
X120255791Y-152313983D02*
X138505791Y-152313983D01*
D22*
X196136584Y-68607997D02*
X195834804Y-68494830D01*
X122152547Y-96338983D02*
X121952547Y-110538983D01*
X91552547Y-149488983D02*
X87102547Y-149488983D01*
X87602547Y-57638983D02*
X87414917Y-57317332D01*
X149452547Y-42888983D02*
X149202547Y-42738983D01*
X109702547Y-145488983D02*
X109604134Y-145292157D01*
X214552547Y-120738983D02*
X214052547Y-120638983D01*
X111952547Y-67838983D02*
X112252547Y-65488983D01*
D23*
X226352547Y-148338983D02*
X225986812Y-148082968D01*
D22*
X214811347Y-97878645D02*
X216682547Y-98118983D01*
X148252547Y-78388983D02*
X148152547Y-118738983D01*
X201726715Y-52739349D02*
G75*
G03*
X201878365Y-52737466I-48515J10017049D01*
G01*
X212022889Y-121146493D02*
G75*
G03*
X212392087Y-121521752I7310711J6823393D01*
G01*
X113053592Y-147929401D02*
G75*
G02*
X111427572Y-147099518I3713908J9284701D01*
G01*
X208602547Y-112288983D02*
X208005038Y-111691474D01*
X211319987Y-128545645D02*
X205302547Y-122038983D01*
X230275588Y-91561842D02*
X230119733Y-91496219D01*
X226302547Y-89638983D02*
X225902547Y-89238983D01*
X138552549Y-39238983D02*
X138802549Y-39388983D01*
X195702547Y-81588983D02*
X194502547Y-81238983D01*
X138652547Y-114588983D02*
X137852547Y-115088983D01*
X85902547Y-150738983D02*
X85102547Y-150488983D01*
D23*
X97152547Y-63388983D02*
X100802547Y-63388983D01*
D22*
X214710232Y-120756504D02*
X214552547Y-120738983D01*
X82252547Y-115688983D02*
X82452547Y-114638983D01*
X210241576Y-92793326D02*
X212190085Y-92888375D01*
X195552547Y-76388983D02*
X194102547Y-75988983D01*
X78315556Y-67873940D02*
X78159040Y-68656516D01*
X217902547Y-74688983D02*
X216682547Y-74328983D01*
X200977509Y-92828974D02*
X202308591Y-93133222D01*
D23*
X110802547Y-40748983D02*
X108302547Y-40838983D01*
D22*
X146102547Y-57988983D02*
X146402547Y-57838983D01*
D23*
X204452547Y-126688983D02*
X204752547Y-127338983D01*
D22*
X105252547Y-89488983D02*
X105902547Y-88288983D01*
X164052547Y-112288983D02*
X205302547Y-112038983D01*
X218602547Y-74938983D02*
X217902547Y-74688983D01*
X154402547Y-68238983D02*
X154402547Y-105788983D01*
X226552547Y-119688983D02*
X227152547Y-119838983D01*
X88791741Y-59075775D02*
X88381069Y-58573843D01*
X213366567Y-57844979D02*
X213546707Y-57814956D01*
X227052547Y-105488983D02*
X226352547Y-104688983D01*
D23*
X236802547Y-58538983D02*
X236822547Y-64248983D01*
D22*
X230473671Y-136063738D02*
G75*
G02*
X230904870Y-136731379I-8177371J-5754462D01*
G01*
X211401258Y-51176427D02*
G75*
G03*
X210319838Y-51462112I2009542J-9796473D01*
G01*
X194702997Y-78658318D02*
G75*
G03*
X194098396Y-78538290I-2248697J-9744282D01*
G01*
X164722547Y-60578983D02*
X159792547Y-60508983D01*
X231302547Y-131138983D02*
X231219133Y-131055569D01*
X89852547Y-114488983D02*
X89002547Y-115138983D01*
X231692547Y-107408983D02*
X230846390Y-106058934D01*
X198764755Y-102489958D02*
X186802547Y-102538983D01*
D23*
X201852547Y-124788983D02*
X202552547Y-124988983D01*
D22*
X99302547Y-48388983D02*
X99102547Y-48838983D01*
X138302549Y-38188983D02*
X138452549Y-38438983D01*
D23*
X228102547Y-48438983D02*
X227552547Y-48938983D01*
D22*
X195102549Y-148538983D02*
X195002549Y-148188983D01*
X212632338Y-70235484D02*
X212000294Y-69735116D01*
X220692376Y-52660495D02*
X221202547Y-52738983D01*
X84352547Y-53938983D02*
X84502547Y-53388983D01*
X228902549Y-116038983D02*
X229702549Y-116938983D01*
X111352547Y-72188983D02*
X111702547Y-69888983D01*
X211802547Y-61538983D02*
X211302547Y-61688983D01*
X204152549Y-136588983D02*
X204252549Y-136838983D01*
X93102547Y-105538983D02*
X93552547Y-105438983D01*
X131052547Y-61538983D02*
X131652547Y-61838983D01*
D23*
X179552547Y-130538983D02*
X179552547Y-128414723D01*
D22*
X159002549Y-44288983D02*
X159952547Y-45298983D01*
X90502547Y-119138983D02*
X90502547Y-118688983D01*
X208630176Y-59604735D02*
X210201607Y-58911457D01*
D23*
X204147389Y-126269390D02*
X204452547Y-126688983D01*
D22*
X93568507Y-116584727D02*
X94289974Y-116392336D01*
X229952547Y-94488983D02*
X228952547Y-93938983D01*
X88002547Y-139538983D02*
X88202547Y-139188983D01*
X220802547Y-120788983D02*
X220452547Y-120738983D01*
X141802547Y-89922901D02*
X141802547Y-94738983D01*
X218002547Y-62738983D02*
X214902547Y-62738983D01*
X217960451Y-100815461D02*
X216682547Y-100658983D01*
X209439063Y-96620845D02*
X210117465Y-96814674D01*
X192362486Y-140822558D02*
X190932547Y-140698983D01*
X89702547Y-39788983D02*
X89052547Y-40088983D01*
X231031518Y-65131740D02*
G75*
G02*
X230165784Y-65307943I-2425418J9701840D01*
G01*
D23*
X84438517Y-97655137D02*
G75*
G03*
X82945154Y-98553457I4388383J-8985663D01*
G01*
D22*
X150835513Y-40273939D02*
G75*
G02*
X151658089Y-40539617I-2659413J-9640161D01*
G01*
D23*
X239630791Y-150763983D02*
X239805791Y-150438983D01*
D22*
X195264427Y-68300331D02*
X194902547Y-68188983D01*
X83752547Y-139388983D02*
X84252547Y-138388983D01*
X220865781Y-73257050D02*
X220452547Y-73138983D01*
X226252547Y-54738983D02*
X225402547Y-55038983D01*
X232512547Y-135518983D02*
X232467329Y-134516643D01*
X138052547Y-59738983D02*
X137052547Y-59288983D01*
X228952547Y-58338983D02*
X227702547Y-59288983D01*
D23*
X236752547Y-89648983D02*
X236752547Y-93648983D01*
D22*
X219702547Y-54488983D02*
X218302547Y-54088983D01*
X123952547Y-35088983D02*
X123752547Y-34738983D01*
X84752547Y-112088983D02*
X85502547Y-111538983D01*
X140902547Y-86288983D02*
X138052547Y-104688983D01*
X147228022Y-39478506D02*
X147455350Y-39502435D01*
X87682547Y-35788983D02*
X82302547Y-35788983D01*
X141852547Y-49088983D02*
X127902547Y-49088983D01*
X230202547Y-144538983D02*
X231402547Y-145688983D01*
X146402547Y-57838983D02*
X146652547Y-57638983D01*
X146802547Y-57288983D02*
X146802547Y-55988983D01*
X100902547Y-45638983D02*
X101002547Y-45288983D01*
X189052547Y-67238983D02*
X183522547Y-68188983D01*
X206712056Y-55182942D02*
X206902547Y-55138983D01*
X209821735Y-118726645D02*
X208672199Y-117243373D01*
X146752547Y-55038983D02*
X146802547Y-56388983D01*
X181752547Y-66788983D02*
X181452547Y-66638983D01*
X182352547Y-79638983D02*
X175902547Y-75808983D01*
D23*
X177352547Y-83438983D02*
X175902547Y-83428983D01*
D22*
X147152547Y-49138983D02*
X141852547Y-49088983D01*
X90402547Y-46088983D02*
X82002547Y-46088983D01*
D23*
X79252547Y-32388983D02*
X79269734Y-43388983D01*
D22*
X209302547Y-68438983D02*
X209002547Y-68488983D01*
X190851402Y-72113541D02*
X190170848Y-72213134D01*
X114252547Y-47888983D02*
X114152547Y-47638983D01*
X201065875Y-99810569D02*
G75*
G03*
X200838752Y-99770018I-1871375J-9825031D01*
G01*
X218997528Y-64768977D02*
G75*
G02*
X218808182Y-64707104I3014272J9544977D01*
G01*
X214007960Y-76722207D02*
G75*
G02*
X212805583Y-76582854I547940J9984707D01*
G01*
X139052547Y-60138983D02*
X138452547Y-59888983D01*
X218402547Y-59138983D02*
X218052547Y-59038983D01*
X227402547Y-70888983D02*
X229052547Y-70588983D01*
X220495293Y-125911903D02*
X220324529Y-125893928D01*
X86702547Y-50988983D02*
X87252547Y-50788983D01*
X186402547Y-72038983D02*
X186052547Y-72088983D01*
X109184311Y-143443092D02*
G75*
G02*
X109216488Y-143735348I-9924711J-1240608D01*
G01*
X210117465Y-96814674D02*
G75*
G03*
X210288046Y-96861784I2745735J9609674D01*
G01*
X185781037Y-73204874D02*
G75*
G02*
X185924282Y-73174141I2167663J-9754126D01*
G01*
X234152547Y-123188983D02*
X234552547Y-122888983D01*
X219975322Y-65062369D02*
X219852547Y-65038983D01*
X226252547Y-61338983D02*
X224302547Y-61448983D01*
X101552547Y-90638983D02*
X102702547Y-89538983D01*
X222502547Y-84038983D02*
X221502547Y-83738983D01*
X190852547Y-66988983D02*
X190102547Y-67088983D01*
X216682547Y-124618983D02*
X214552547Y-123438983D01*
X212758977Y-129835826D02*
G75*
G02*
X211619896Y-128856338I5931923J8050526D01*
G01*
X208701303Y-104438983D02*
G75*
G02*
X207706266Y-104389357I-3J10000283D01*
G01*
X226091689Y-98209243D02*
G75*
G03*
X225911209Y-98185213I-221689J-975257D01*
G01*
X195945091Y-73869831D02*
G75*
G03*
X194842921Y-73571169I-3162291J-9486969D01*
G01*
X81687781Y-73413362D02*
G75*
G02*
X81419672Y-73260466I4818019J8760062D01*
G01*
X185234748Y-66820489D02*
G75*
G02*
X184066332Y-66888987I-1168448J9931489D01*
G01*
X223202658Y-105262365D02*
G75*
G03*
X222388863Y-104951086I-3976058J-9175435D01*
G01*
X199103000Y-99505693D02*
G75*
G02*
X199798899Y-99596710I-948200J-9955607D01*
G01*
X228733894Y-90925738D02*
G75*
G02*
X229068815Y-91058260I-3509994J-9360262D01*
G01*
X208735231Y-92694495D02*
G75*
G02*
X208569966Y-92682100I666069J9988995D01*
G01*
X201059558Y-94467021D02*
G75*
G03*
X200744721Y-94415968I-1758258J-9846579D01*
G01*
X214490667Y-130646956D02*
G75*
G03*
X215325218Y-130894650I3259933J9453856D01*
G01*
X213631329Y-94335822D02*
G75*
G02*
X212974268Y-94320538I-96129J9998722D01*
G01*
X221374928Y-94757078D02*
G75*
G03*
X221630961Y-94817518I2426672J9707278D01*
G01*
X215068755Y-57679639D02*
G75*
G03*
X213546707Y-57814955I121945J-9999361D01*
G01*
X226202549Y-112488983D02*
X227102549Y-113788983D01*
X88852547Y-70638983D02*
X90002547Y-71188983D01*
X127902547Y-40488983D02*
X128302547Y-40288983D01*
X98552547Y-49488983D02*
X98102547Y-49838983D01*
X210479456Y-103049970D02*
X209702547Y-102938983D01*
X114052547Y-46938983D02*
X113952547Y-46238983D01*
X220370317Y-52616204D02*
G75*
G03*
X219129970Y-52538987I-1240317J-9922896D01*
G01*
X204852547Y-66388983D02*
X204402547Y-66538983D01*
X224502547Y-55138983D02*
X222902547Y-55138983D01*
X89752547Y-137488983D02*
X89952547Y-137338983D01*
X198918538Y-99488125D02*
G75*
G03*
X197884240Y-99443456I-948038J-9954675D01*
G01*
X210415332Y-119424110D02*
G75*
G02*
X209821732Y-118726647I7310168J6822910D01*
G01*
X127231237Y-40573666D02*
G75*
G02*
X127675189Y-40514246I1548463J-9881034D01*
G01*
X78659540Y-80936712D02*
G75*
G03*
X78864467Y-81534773I9556760J2940512D01*
G01*
D23*
X225721435Y-147890649D02*
G75*
G03*
X225986811Y-148082969I5997665J7996749D01*
G01*
D22*
X208555166Y-68610996D02*
G75*
G02*
X208349357Y-68664781I-2630766J9645996D01*
G01*
X195052547Y-78738983D02*
X194702997Y-78658318D01*
X123502547Y-34388983D02*
X123052547Y-34138983D01*
X186052547Y-72088983D02*
X185764273Y-72088983D01*
D23*
X115852547Y-55438983D02*
X116302547Y-55188983D01*
X202602549Y-29438983D02*
X202902549Y-29988983D01*
D22*
X222802547Y-60188983D02*
X221352547Y-60088983D01*
X208917230Y-75559358D02*
X208277956Y-75272787D01*
X210552547Y-116588983D02*
X210384091Y-116150998D01*
X164722547Y-63118983D02*
X159792547Y-63048983D01*
X227702547Y-59288983D02*
X226502547Y-59888983D01*
X194452547Y-73488983D02*
X192502547Y-73258983D01*
X144712547Y-63078983D02*
X157502547Y-63138983D01*
X82552547Y-68438983D02*
X82952547Y-68838983D01*
X98002547Y-39638983D02*
X92052547Y-39538983D01*
X109410290Y-144881406D02*
X109302547Y-144638983D01*
X216682547Y-132238983D02*
X217952547Y-132838983D01*
X209402547Y-109238983D02*
X208802547Y-108488983D01*
X147752547Y-58788983D02*
X147952547Y-58588983D01*
X202102547Y-97588983D02*
X199802547Y-97188983D01*
X93252547Y-69938983D02*
X92202547Y-69788983D01*
X107452547Y-143438983D02*
X107452547Y-134988983D01*
D23*
X235552547Y-125498983D02*
X235552547Y-129498983D01*
X192552547Y-87066842D02*
X177452547Y-87088983D01*
D22*
X226952547Y-96938983D02*
X226302547Y-96838983D01*
X97993835Y-52625527D02*
X98902547Y-52538983D01*
X227502547Y-128738983D02*
X227194684Y-128667938D01*
X78145839Y-68721406D02*
X77940644Y-69713181D01*
X193295644Y-90977105D02*
X193852547Y-91038983D01*
X129052547Y-58238983D02*
X129552547Y-58238983D01*
D23*
X138202547Y-32188983D02*
X134302547Y-32188983D01*
D22*
X121952547Y-132538983D02*
X121952547Y-143338983D01*
X191804565Y-89175130D02*
X193974297Y-89640072D01*
X77751008Y-71826682D02*
X77707334Y-74316148D01*
X146602547Y-121988983D02*
X164052547Y-122038983D01*
X233802547Y-58538983D02*
X230052547Y-60138983D01*
X82952547Y-68838983D02*
X83502547Y-69188983D01*
X202238744Y-79687578D02*
X199362063Y-79652063D01*
X227102547Y-56138983D02*
X226052547Y-56338983D01*
X139952547Y-60388983D02*
X139052547Y-60138983D01*
X203775915Y-74150635D02*
X203002547Y-74488983D01*
X139352547Y-113438983D02*
X139052547Y-114088983D01*
D23*
X85139750Y-97312675D02*
X84438517Y-97655137D01*
D22*
X98302547Y-39688983D02*
X98002547Y-39638983D01*
X145552547Y-54088983D02*
X125002547Y-54288983D01*
X159952547Y-85938983D02*
X167262547Y-85978983D01*
X85102547Y-150488983D02*
X84152547Y-149988983D01*
X176954628Y-70932824D02*
X175902547Y-70728983D01*
X135652547Y-149638983D02*
X135152547Y-149788983D01*
X170752547Y-52888983D02*
X201726715Y-52739349D01*
X109602547Y-58188983D02*
X129052547Y-58238983D01*
X148852547Y-42738983D02*
X144712547Y-42758983D01*
X92963593Y-116981619D02*
X93538803Y-116598145D01*
X229922376Y-100064914D02*
X229902547Y-100038983D01*
X219277681Y-125838983D02*
X219219167Y-125838983D01*
X107702547Y-76438983D02*
X108202547Y-72588983D01*
D23*
X87852547Y-96338983D02*
X87352547Y-94188983D01*
X232143076Y-42253241D02*
X240152547Y-42238983D01*
D22*
X130602547Y-58938983D02*
X130602547Y-59288983D01*
X225091442Y-65338600D02*
X223686019Y-65290137D01*
X197583160Y-71893065D02*
X197552547Y-71888983D01*
X113652547Y-44088983D02*
X113852547Y-43738983D01*
X217719075Y-125883432D02*
G75*
G02*
X217385927Y-125888983I-333175J9995432D01*
G01*
X116520751Y-38038983D02*
G75*
G02*
X117779319Y-38118504I-51J-10000117D01*
G01*
X206177833Y-72664078D02*
G75*
G03*
X206026872Y-72615086I-3156633J-9469522D01*
G01*
X84252547Y-138388983D02*
X87852547Y-132538983D01*
X182952549Y-138138983D02*
X179552547Y-138158983D01*
X205917469Y-103973460D02*
X203943056Y-103381136D01*
X217352547Y-83338983D02*
X215702547Y-83188983D01*
X164722547Y-63118983D02*
X168883230Y-63299170D01*
X92602547Y-115388983D02*
X92552547Y-110538983D01*
D23*
X204302549Y-41688983D02*
X204657457Y-41795455D01*
D22*
X164722547Y-60578983D02*
X204873441Y-60539357D01*
X176003170Y-66888983D02*
X175851303Y-66888983D01*
X85778072Y-74415815D02*
G75*
G02*
X84529017Y-74383961I-370072J9993515D01*
G01*
X211855308Y-97274627D02*
G75*
G02*
X211550979Y-97198566I2272892J9740927D01*
G01*
X172171582Y-66180187D02*
G75*
G03*
X171932513Y-66100791I-3271682J-9451713D01*
G01*
X144712547Y-68158983D02*
X154402547Y-68238983D01*
X182952549Y-135588983D02*
X179552547Y-135618983D01*
X175119483Y-44887284D02*
X175641705Y-45031729D01*
X172602547Y-69988983D02*
X171452547Y-69888983D01*
X105241588Y-73464335D02*
X105338723Y-71910173D01*
D23*
X233502547Y-149338983D02*
X233902547Y-149238983D01*
D22*
X100552547Y-51538983D02*
X100852547Y-50788983D01*
X114052547Y-47288983D02*
X114052547Y-46938983D01*
X101902547Y-93738983D02*
X102852547Y-92788983D01*
D23*
X106402547Y-32226942D02*
X97552547Y-32238983D01*
X236752547Y-93648983D02*
X236752547Y-95238983D01*
X234692547Y-99408983D02*
X234692547Y-103408983D01*
D22*
X120002547Y-33838983D02*
X117952547Y-33838983D01*
X214855392Y-51130409D02*
G75*
G03*
X214950306Y-51143009I178908J983909D01*
G01*
X202238744Y-79687578D02*
G75*
G03*
X202466353Y-79687797I123456J10008378D01*
G01*
X99920596Y-74932151D02*
G75*
G03*
X99925379Y-73845555I-9982496J587251D01*
G01*
X221860666Y-104820607D02*
G75*
G03*
X221543490Y-104762475I-1961266J-9806593D01*
G01*
X109252547Y-62638983D02*
X109402547Y-60388983D01*
X84529017Y-74383966D02*
X84152547Y-74338983D01*
X108652547Y-123438983D02*
X108452547Y-122938983D01*
X205752547Y-65938983D02*
X205302547Y-66188983D01*
X85502547Y-111538983D02*
X86202547Y-110988983D01*
X215652083Y-125827820D02*
X215302547Y-125788983D01*
X204442060Y-109282127D02*
X204202547Y-109188983D01*
X210743281Y-76179846D02*
X210431158Y-76096613D01*
X81964999Y-87523699D02*
X82578632Y-88377449D01*
X111427569Y-147099523D02*
X111252547Y-146988983D01*
X234902547Y-122338983D02*
X235552547Y-121498983D01*
X185640826Y-72088221D02*
X181947422Y-72042623D01*
X152726534Y-40936463D02*
G75*
G02*
X153272055Y-41157565I-3481934J-9374437D01*
G01*
X202599248Y-71948120D02*
G75*
G03*
X202105696Y-71942029I-370148J-9993480D01*
G01*
X170903013Y-74437097D02*
G75*
G03*
X172190351Y-74257017I-738713J9972297D01*
G01*
X214052549Y-134738983D02*
X211352549Y-134738983D01*
X94202547Y-148788983D02*
X92852547Y-149338983D01*
X193277549Y-70790522D02*
X192502547Y-70718983D01*
X229987280Y-135372550D02*
G75*
G03*
X229491429Y-134725641I-8178080J-5754950D01*
G01*
D23*
X199543963Y-124688756D02*
G75*
G02*
X200060774Y-124702576I-8763J-9998244D01*
G01*
D22*
X110286656Y-146194681D02*
G75*
G03*
X110729352Y-146570427I6689344J7432581D01*
G01*
X89052547Y-40088983D02*
X88602547Y-40288983D01*
X117402547Y-33888983D02*
X116752547Y-33988983D01*
D23*
X219002547Y-46838983D02*
X218702547Y-46788983D01*
D22*
X208479495Y-54401949D02*
G75*
G02*
X208525666Y-54376139I4817005J-8562751D01*
G01*
X218054357Y-107121514D02*
G75*
G02*
X217767749Y-107011952I209543J977814D01*
G01*
X143048554Y-88512092D02*
G75*
G02*
X143259075Y-88488297I216946J-976208D01*
G01*
X230002971Y-130019845D02*
X229904498Y-129948726D01*
D23*
X237455791Y-152163983D02*
X238180791Y-151988983D01*
D22*
X188352547Y-79638983D02*
X182352547Y-79638983D01*
X134702547Y-147388983D02*
X134352547Y-147938983D01*
X122202547Y-74338983D02*
X122152547Y-85338983D01*
X116752547Y-33988983D02*
X116002547Y-34238983D01*
X213452547Y-130288983D02*
X213102547Y-130088983D01*
X229552547Y-75338983D02*
X228302547Y-75538983D01*
X206602547Y-74488983D02*
X206305721Y-74340570D01*
X173686087Y-66655691D02*
G75*
G02*
X173031117Y-66477714I980613J4902891D01*
G01*
X198144580Y-74436991D02*
G75*
G03*
X197758763Y-74348611I-2425380J-9701509D01*
G01*
X203775915Y-74150635D02*
G75*
G03*
X203829111Y-74127177I-3980515J9098635D01*
G01*
D23*
X198552547Y-130538983D02*
X205152547Y-130506708D01*
X214052547Y-87038983D02*
X211552547Y-87038983D01*
D22*
X229052547Y-70588983D02*
X231102547Y-70438983D01*
X211150542Y-69020980D02*
G75*
G03*
X210748497Y-68766555I-5547242J-8320920D01*
G01*
X210431158Y-76096613D02*
G75*
G02*
X208917231Y-75559355I2576642J9662313D01*
G01*
X207299227Y-115334335D02*
G75*
G02*
X206836014Y-114623973I8137073J5812235D01*
G01*
D23*
X228530698Y-149260706D02*
X228052547Y-149188983D01*
D22*
X210952547Y-117388983D02*
X210552547Y-116588983D01*
X221552547Y-63588983D02*
X220402547Y-63288983D01*
X148152547Y-118738983D02*
X164052547Y-118788983D01*
X95852547Y-147488983D02*
X94902547Y-148388983D01*
X210002547Y-68488983D02*
X209702547Y-68438983D01*
X220831689Y-104658888D02*
X220707164Y-104645052D01*
X97552547Y-37688983D02*
X95302547Y-38328983D01*
X221956765Y-58666631D02*
X222502547Y-58838983D01*
X84952547Y-52538983D02*
X85302547Y-52088983D01*
X197702547Y-96938983D02*
X194852547Y-96688983D01*
D23*
X211552547Y-87038983D02*
X192552547Y-87066842D01*
D22*
X149202547Y-42738983D02*
X148852547Y-42738983D01*
X109302547Y-144638983D02*
X109216487Y-143735348D01*
X229491429Y-134725641D02*
X228776613Y-133867862D01*
X149042275Y-39790651D02*
X149734887Y-39971332D01*
X83052547Y-148738983D02*
X82602547Y-147738983D01*
X227802547Y-120188983D02*
X228602547Y-120788983D01*
X215552547Y-99438983D02*
X214202547Y-99388983D01*
X214102547Y-61438983D02*
X213002547Y-61438983D01*
X170699160Y-63545894D02*
X171036024Y-63623632D01*
X122202547Y-63138983D02*
X122202547Y-74338983D01*
X94952547Y-89138983D02*
X94852547Y-83238983D01*
D23*
X238655791Y-151713983D02*
X239005791Y-151388983D01*
D22*
X90452547Y-116688983D02*
X90602547Y-116488983D01*
D23*
X236552547Y-96738983D02*
X236352547Y-97288983D01*
D22*
X206652547Y-67388983D02*
X205802547Y-67688983D01*
X115602547Y-38138983D02*
X116252547Y-38038983D01*
X157028860Y-40624723D02*
X155681606Y-39865362D01*
X232552547Y-125498983D02*
X231552547Y-124588983D01*
X227802549Y-114738983D02*
X228902549Y-116038983D01*
X126952547Y-59388983D02*
X126902547Y-63138983D01*
X195477333Y-72277353D02*
X194827371Y-72207714D01*
X210046896Y-53541808D02*
X210216899Y-53456806D01*
X180088164Y-71797887D02*
X179548050Y-71662859D01*
X86452547Y-68888983D02*
X85952547Y-68738983D01*
X221602547Y-73438983D02*
X221443687Y-73403681D01*
D23*
X233805791Y-152213983D02*
X236255791Y-152238983D01*
D22*
X130552547Y-60788983D02*
X130702547Y-61188983D01*
X164452547Y-140788983D02*
X161302547Y-140698983D01*
X226651789Y-85837384D02*
X220816998Y-85653611D01*
X208002547Y-64188983D02*
X207252547Y-64838983D01*
X212257447Y-119072749D02*
X211659943Y-118342467D01*
X215302547Y-125788983D02*
X214552547Y-125588983D01*
D23*
X228452547Y-47938983D02*
X228102547Y-48438983D01*
D22*
X220102547Y-83488983D02*
X218402547Y-83338983D01*
X79758215Y-83660448D02*
G75*
G02*
X79223202Y-82482843I8817985J4716548D01*
G01*
X228251737Y-129047473D02*
G75*
G02*
X228452427Y-129132681I-3807937J-9247727D01*
G01*
X190851402Y-72113541D02*
G75*
G02*
X192562460Y-72011613I1447998J-9894759D01*
G01*
X87414917Y-57317332D02*
G75*
G02*
X87108435Y-56750757I8637683J5038632D01*
G01*
X99873980Y-73284238D02*
G75*
G02*
X99907981Y-73497417I-964680J-263162D01*
G01*
X96132701Y-91848004D02*
G75*
G03*
X97235648Y-91260927I-4138001J9103704D01*
G01*
X122152547Y-85338983D02*
X122152547Y-96338983D01*
X228816538Y-123621781D02*
X228238555Y-123506184D01*
X233822547Y-64248983D02*
X232692948Y-64660380D01*
X146652547Y-54738983D02*
X146752547Y-55038983D01*
D23*
X97252547Y-63138983D02*
X97202547Y-55549339D01*
D22*
X97252547Y-96338983D02*
X99252547Y-95538983D01*
X205002547Y-73888983D02*
X204602547Y-73888983D01*
D23*
X97552547Y-32238983D02*
X95302547Y-32257426D01*
D22*
X217140328Y-131030062D02*
X215702547Y-130988983D01*
X126112547Y-35668983D02*
X126112547Y-38208983D01*
X220302547Y-123038983D02*
X220146050Y-122960735D01*
X103660244Y-80656191D02*
X104552159Y-77359984D01*
X227751251Y-132655633D02*
G75*
G03*
X227550324Y-132425404I-7634051J-6459667D01*
G01*
X218717754Y-107236869D02*
G75*
G02*
X218489879Y-107214842I-18354J999869D01*
G01*
X226753286Y-85841097D02*
G75*
G03*
X226651789Y-85837384I-417386J-10019703D01*
G01*
X226467700Y-107609943D02*
X226364857Y-107524241D01*
X112502547Y-59388983D02*
X126952547Y-59388983D01*
X206752547Y-77088983D02*
X199052547Y-77088983D01*
X210288046Y-96861783D02*
X211550979Y-97198565D01*
X223402547Y-75588983D02*
X222552547Y-75588983D01*
X152902547Y-109038983D02*
X164052547Y-109038983D01*
X232352547Y-146488983D02*
X232512547Y-147518983D01*
X101002547Y-45288983D02*
X101302547Y-44988983D01*
X232512547Y-139518983D02*
X231388672Y-137552201D01*
X207875568Y-59924027D02*
X208474348Y-59671909D01*
X194098396Y-78538291D02*
X194050540Y-78530315D01*
X173552547Y-48038983D02*
X170508476Y-49241579D01*
X231702549Y-118888983D02*
X232452549Y-119638983D01*
X176954628Y-70932824D02*
G75*
G02*
X178035250Y-71205455I-1902228J-9817776D01*
G01*
X228555310Y-90858769D02*
G75*
G02*
X226921587Y-90070404I3511190J9363169D01*
G01*
X99536548Y-52307554D02*
G75*
G03*
X99863572Y-52063741I-5813148J8138354D01*
G01*
X164722547Y-70738983D02*
X159952547Y-70698983D01*
X109152547Y-143188983D02*
X108809322Y-124998044D01*
X173047880Y-44523780D02*
X173664163Y-44598936D01*
X223074173Y-128395470D02*
G75*
G02*
X222232964Y-128347023I153827J9998270D01*
G01*
X96822407Y-81732056D02*
G75*
G02*
X96370605Y-82132271I-6853307J7281556D01*
G01*
X142205256Y-88950172D02*
G75*
G02*
X142427830Y-88760672I752544J-658428D01*
G01*
X219046796Y-94343408D02*
X219502547Y-94388983D01*
X204302549Y-137138983D02*
X204252549Y-147388983D01*
X192502547Y-65638983D02*
X190770606Y-65919838D01*
X225902547Y-89238983D02*
X225652547Y-88938983D01*
X231102547Y-122888983D02*
X231702547Y-123238983D01*
X210702547Y-61988983D02*
X210202547Y-62288983D01*
X232352547Y-142538983D02*
X232512547Y-143518983D01*
X224302547Y-63988983D02*
X222552547Y-63788983D01*
X106252547Y-82488983D02*
X107002547Y-79938983D01*
X115202547Y-38238983D02*
X115602547Y-38138983D01*
X84302547Y-147788983D02*
X83652547Y-146588983D01*
D23*
X78702547Y-106133236D02*
X78702540Y-106144730D01*
D22*
X232152547Y-96138983D02*
X231352547Y-95388983D01*
X88152547Y-116488983D02*
X87952547Y-117138983D01*
X183522547Y-83428983D02*
X186902547Y-83388983D01*
X199594765Y-102514732D02*
X199240117Y-102499312D01*
X107952547Y-146188983D02*
X107752547Y-145538983D01*
X206814951Y-79642500D02*
X202466353Y-79687798D01*
X147228022Y-39478506D02*
G75*
G03*
X146475165Y-39427885I-1046822J-9944994D01*
G01*
X149042275Y-39790651D02*
G75*
G03*
X148255909Y-39618990I-2524275J-9676549D01*
G01*
X173984103Y-71938983D02*
G75*
G03*
X173721036Y-71942445I-3J-9996117D01*
G01*
X208202619Y-52135931D02*
X208756854Y-51967981D01*
D23*
X200802547Y-42288983D02*
X200902547Y-48188983D01*
D22*
X139102547Y-83588983D02*
X135402547Y-106038983D01*
X232075001Y-92539636D02*
X231763773Y-92341581D01*
X219863212Y-130957266D02*
X217764714Y-131028401D01*
X231692547Y-111408983D02*
X230202547Y-109638983D01*
X149802547Y-75788983D02*
X149802547Y-115538983D01*
X221402547Y-80638983D02*
X219852547Y-80488983D01*
X95852547Y-71188983D02*
X95302547Y-70688983D01*
X221201582Y-120881068D02*
X220802547Y-120788983D01*
X117779320Y-38118499D02*
X118492547Y-38208983D01*
X230552547Y-81188983D02*
X227302547Y-80838983D01*
X96640922Y-52719758D02*
G75*
G03*
X96065765Y-52774831I665278J-9978742D01*
G01*
X98625702Y-79499288D02*
G75*
G03*
X99204269Y-78341149I-8637902J5038788D01*
G01*
X217755177Y-57646878D02*
G75*
G02*
X219045531Y-57714630I121923J-9999322D01*
G01*
X227735064Y-110487147D02*
G75*
G02*
X227489750Y-109882816I9137836J4061247D01*
G01*
X219639326Y-104524830D02*
G75*
G03*
X219064176Y-104469756I-1240326J-9922170D01*
G01*
X211262181Y-117822471D02*
G75*
G03*
X211659942Y-118342468I8136819J5811971D01*
G01*
X149252547Y-61438983D02*
X149502547Y-61088983D01*
X194502547Y-81238983D02*
X193952547Y-81138983D01*
X82102547Y-67488983D02*
X82252547Y-67938983D01*
X203352549Y-135888983D02*
X203702549Y-136088983D01*
X90702547Y-39638983D02*
X89702547Y-39788983D01*
D23*
X205252549Y-41988983D02*
X205652549Y-42088983D01*
D22*
X219152547Y-59438983D02*
X218402547Y-59138983D01*
X220445946Y-94568737D02*
X220392383Y-94560496D01*
X200122547Y-73258983D02*
X196616817Y-72466533D01*
X219975322Y-65062369D02*
G75*
G03*
X221846443Y-65238977I1871078J9823269D01*
G01*
X220831689Y-104658888D02*
G75*
G02*
X221371364Y-104733787I-1104389J-9939212D01*
G01*
D23*
X79834658Y-102341138D02*
G75*
G03*
X79329067Y-103365760I8700142J-4930062D01*
G01*
D22*
X100565132Y-87679342D02*
X101646875Y-85665063D01*
D23*
X102292003Y-68812459D02*
X102418004Y-70324473D01*
D22*
X193752547Y-66788983D02*
X193102547Y-66838983D01*
X166452549Y-56588983D02*
X164722547Y-58038983D01*
X214052547Y-125388983D02*
X213602547Y-125088983D01*
D23*
X204752547Y-127338983D02*
X204858290Y-127804252D01*
D22*
X202152547Y-105688983D02*
X201502547Y-105638983D01*
X219891455Y-85581346D02*
X219552547Y-85538983D01*
X90802547Y-137888983D02*
X90602547Y-137488983D01*
D23*
X233102547Y-149388983D02*
X233502547Y-149338983D01*
D22*
X230952547Y-50138983D02*
X229252547Y-52088983D01*
X183522547Y-68188983D02*
X179630177Y-67355604D01*
X202105696Y-71942031D02*
X199028244Y-71980024D01*
D23*
X95302547Y-32257426D02*
X79252547Y-32388983D01*
D22*
X108152547Y-122488983D02*
X107951938Y-122355244D01*
X164052547Y-105788983D02*
X186802547Y-105538983D01*
X230275588Y-91561842D02*
G75*
G02*
X231763772Y-92341583I-3880588J-9216358D01*
G01*
X104724163Y-76611370D02*
G75*
G02*
X104552159Y-77359984I-9825463J1863470D01*
G01*
X77940644Y-69713181D02*
G75*
G03*
X77801739Y-70570826I9792156J-2026019D01*
G01*
X222552547Y-75588983D02*
X221552547Y-75538983D01*
X138452549Y-38988983D02*
X138552549Y-39238983D01*
X203002549Y-148988983D02*
X202752549Y-149038983D01*
X95302547Y-40868983D02*
X92652547Y-40888983D01*
D23*
X87702547Y-92288983D02*
X88802547Y-91838983D01*
D22*
X194302547Y-42288983D02*
X159952547Y-42758983D01*
X178288255Y-71284517D02*
X178035251Y-71205453D01*
X232352547Y-133288983D02*
X232002547Y-132238983D01*
D23*
X239005791Y-151388983D02*
X239630791Y-150763983D01*
D22*
X98413034Y-69925080D02*
X97952547Y-68888983D01*
X120352547Y-48338983D02*
X118492547Y-48368983D01*
X179871619Y-47085031D02*
X181302547Y-48038983D01*
X98252547Y-80138983D02*
X98625702Y-79499288D01*
X189642089Y-71303208D02*
X188079124Y-71670965D01*
X203602547Y-66738983D02*
X203202547Y-66838983D01*
X108752547Y-124088983D02*
X108652547Y-123438983D01*
X144712547Y-80858983D02*
X146702547Y-80888983D01*
X195652549Y-148938983D02*
X195352549Y-148788983D01*
X210852547Y-113638983D02*
X210652547Y-112188983D01*
X228733894Y-90925738D02*
X228555310Y-90858769D01*
X108002547Y-56788983D02*
X139152547Y-56788983D01*
X203052547Y-105788983D02*
X202152547Y-105688983D01*
D23*
X99402547Y-83188983D02*
X99052547Y-83638983D01*
D22*
X221543490Y-104762474D02*
X221371364Y-104733786D01*
X89852547Y-99538983D02*
X89852547Y-114488983D01*
X228802547Y-107788983D02*
X228352547Y-107238983D01*
X224302547Y-132238983D02*
X223666374Y-131851747D01*
X209352547Y-82288983D02*
X208102547Y-82238983D01*
X229252547Y-52088983D02*
X227202547Y-54188983D01*
D23*
X240005791Y-149688983D02*
X240102547Y-149138983D01*
D22*
X221501047Y-126057167D02*
X221008057Y-125979327D01*
X207679524Y-96021435D02*
G75*
G03*
X206916204Y-95787031I-3314924J-9434765D01*
G01*
X170021718Y-44482147D02*
G75*
G03*
X169284886Y-44523022I185082J-9997953D01*
G01*
D23*
X227686617Y-149028889D02*
G75*
G02*
X226838377Y-148608886I4008183J9161489D01*
G01*
X230528518Y-149381897D02*
G75*
G02*
X229876806Y-149374818I-217318J9996397D01*
G01*
D22*
X221501047Y-126057167D02*
G75*
G02*
X221902582Y-126128989I-1559647J-9877833D01*
G01*
X194341033Y-70946680D02*
G75*
G02*
X195253350Y-71174228I-1961133J-9805520D01*
G01*
X199802547Y-97188983D02*
X197702547Y-96938983D01*
D23*
X205152547Y-130506708D02*
X205152547Y-130907237D01*
D22*
X164052547Y-115538983D02*
X205302547Y-115538983D01*
X92552547Y-121738983D02*
X92502666Y-117997930D01*
X102415867Y-44501210D02*
X102452547Y-44488983D01*
X155952547Y-102638983D02*
X164052547Y-102538983D01*
X222604934Y-131290068D02*
X222602547Y-131288983D01*
X105902547Y-88288983D02*
X107052547Y-85888983D01*
X173873021Y-66693078D02*
X173686087Y-66655691D01*
X153682547Y-145778983D02*
X150552547Y-145738983D01*
X229793673Y-115083010D02*
X229407477Y-114387857D01*
X192152547Y-96688983D02*
X167302547Y-96538983D01*
X130702547Y-61188983D02*
X131052547Y-61538983D01*
X208352547Y-77138983D02*
X206752547Y-77088983D01*
D23*
X102168378Y-67871381D02*
G75*
G02*
X102292000Y-68812459I-9841978J-1771519D01*
G01*
D22*
X89538163Y-59988869D02*
G75*
G02*
X89369587Y-59786881I7590637J6506369D01*
G01*
X107951938Y-122355244D02*
G75*
G03*
X107443647Y-122037957I-5546938J-8320356D01*
G01*
X84702547Y-52938983D02*
X84952547Y-52538983D01*
X85252547Y-68288983D02*
X84752547Y-67838983D01*
D23*
X100802547Y-63388983D02*
X101405378Y-64865918D01*
D22*
X129952547Y-58338983D02*
X130452547Y-58588983D01*
X107502547Y-144288983D02*
X107452547Y-143438983D01*
X220030063Y-104573672D02*
X219639326Y-104524830D01*
X141302547Y-59288983D02*
X146602547Y-59288983D01*
X218808182Y-64707103D02*
X216682547Y-63988983D01*
X81902547Y-38338983D02*
X81902547Y-42138983D01*
X112688556Y-45748154D02*
X110802547Y-45828983D01*
X180252547Y-65688983D02*
X179952547Y-65638983D01*
X82602547Y-147738983D02*
X82302547Y-146788983D01*
X221202547Y-123288983D02*
X221028040Y-123245356D01*
X170809496Y-65748111D02*
X170602547Y-65688983D01*
X211502547Y-82638983D02*
X210352547Y-82338983D01*
X210303234Y-58865943D02*
X210954762Y-58569794D01*
X91052547Y-138238983D02*
X90802547Y-137888983D01*
X227802547Y-97138983D02*
X226952547Y-96938983D01*
X164752547Y-52888983D02*
X170752547Y-52888983D01*
X144552547Y-55428983D02*
X123752547Y-55638983D01*
X153682547Y-140698983D02*
X150552547Y-140738983D01*
X212848901Y-124385337D02*
X212424110Y-123960546D01*
X212652547Y-78038983D02*
X211252547Y-77788983D01*
X100952547Y-94488983D02*
X101902547Y-93738983D01*
X182952549Y-133088983D02*
X179552547Y-133078983D01*
X137852547Y-107888983D02*
X136652547Y-108488983D01*
X194552549Y-141888983D02*
X194252549Y-141588983D01*
X97502547Y-92738983D02*
X98902547Y-92088983D01*
X206265782Y-69220916D02*
X206260468Y-69222434D01*
X220402547Y-101688983D02*
X219952547Y-101438983D01*
X197341273Y-69112723D02*
X196564545Y-68779839D01*
X221928824Y-73561337D02*
X221602547Y-73438983D01*
X220802547Y-101838983D02*
X220402547Y-101688983D01*
X87952547Y-70338983D02*
X88852547Y-70638983D01*
X92652547Y-40888983D02*
X92802547Y-50776393D01*
X214902547Y-78138983D02*
X212652547Y-78038983D01*
X170602547Y-65688983D02*
X170252547Y-65638983D01*
X217952547Y-132838983D02*
X218702547Y-133088983D01*
D23*
X126112547Y-35668983D02*
X126102547Y-32200140D01*
D22*
X230202547Y-109638983D02*
X229752547Y-109038983D01*
X169302547Y-69938983D02*
X168252547Y-70088983D01*
D23*
X236352547Y-97288983D02*
X236052547Y-97738983D01*
D22*
X141891969Y-89461103D02*
X141837783Y-89659783D01*
X107002547Y-133638983D02*
X106752547Y-133338983D01*
X227881779Y-110817255D02*
X227735064Y-110487147D01*
X231352547Y-95388983D02*
X230702547Y-94938983D01*
X138052549Y-38088983D02*
X138302549Y-38188983D01*
X170252547Y-65638983D02*
X169452547Y-65588983D01*
X90652547Y-118088983D02*
X90902547Y-117638983D01*
X149869958Y-40007579D02*
X150835513Y-40273939D01*
X171932547Y-140698983D02*
X168752547Y-140738983D01*
X184066332Y-66888983D02*
X182052547Y-66888983D01*
X144712547Y-68158983D02*
X131302547Y-68988983D01*
X88602547Y-40288983D02*
X87682547Y-40868983D01*
X106752547Y-133338983D02*
X106352547Y-132988983D01*
D23*
X117502547Y-54088983D02*
X117604956Y-53918301D01*
D22*
X144712547Y-85938983D02*
X140902547Y-86288983D01*
X216682547Y-134778983D02*
X214052549Y-134738983D01*
X87682547Y-43408983D02*
X79269734Y-43388983D01*
X182952549Y-133038983D02*
X182602549Y-132938983D01*
X78864468Y-81534773D02*
X79223197Y-82482845D01*
X182952549Y-148338983D02*
X179552547Y-148318983D01*
D23*
X196306004Y-128438353D02*
X179552547Y-128414723D01*
D22*
X203202547Y-66838983D02*
X202402547Y-66938983D01*
X211619899Y-128856335D02*
X211590601Y-128827037D01*
X213246189Y-122345352D02*
X212392086Y-121521753D01*
X118492547Y-45828983D02*
X118492547Y-43288983D01*
D23*
X235512547Y-135518983D02*
X235512547Y-139518983D01*
D22*
X226887008Y-108292367D02*
X226827198Y-108112937D01*
X140502547Y-58888983D02*
X140652547Y-59088983D01*
D23*
X106652547Y-40238983D02*
X106552547Y-39938983D01*
D22*
X105652547Y-68888983D02*
X108002547Y-56788983D01*
X186472712Y-66650388D02*
X185625250Y-66771454D01*
X140352547Y-57738983D02*
X140352547Y-58338983D01*
X142557012Y-88679942D02*
X142427834Y-88760679D01*
D23*
X205063304Y-129087059D02*
X205108889Y-129573301D01*
X78852547Y-151238983D02*
X79152547Y-151738983D01*
D22*
X228637801Y-112775274D02*
X228461819Y-112313322D01*
X187752547Y-82088983D02*
X182102547Y-82088983D01*
D23*
X101572985Y-78266872D02*
X101276572Y-79131411D01*
D22*
X135452547Y-110138983D02*
X135302547Y-110788983D01*
X136902547Y-148738983D02*
X136402547Y-149238983D01*
X233802547Y-54538983D02*
X228952547Y-58338983D01*
X111952547Y-149688983D02*
X111352547Y-149538983D01*
X182952549Y-140688983D02*
X179552547Y-140698983D01*
X220579917Y-123122194D02*
X220302547Y-123038983D01*
X213002547Y-61438983D02*
X212202547Y-61488983D01*
X222232964Y-128347025D02*
X221739313Y-128297660D01*
X144712547Y-88478983D02*
X143259075Y-88488300D01*
X214802547Y-71538983D02*
X214202547Y-71288983D01*
X83652547Y-146588983D02*
X83302547Y-145638983D01*
X91202547Y-72088983D02*
X92552547Y-74338983D01*
X213395259Y-97626043D02*
X214196812Y-97780188D01*
X197702547Y-66738983D02*
X197002547Y-66538983D01*
X192502547Y-80878983D02*
X188202547Y-84988983D01*
X167002547Y-70338983D02*
X166102547Y-70538983D01*
X140252547Y-57388983D02*
X140352547Y-57738983D01*
D23*
X205652549Y-42088983D02*
X207052547Y-42288983D01*
X235452547Y-116438983D02*
X235552547Y-117498983D01*
D22*
X233822547Y-72248983D02*
X232652547Y-73688983D01*
D23*
X203002549Y-39788983D02*
X203152549Y-40438983D01*
X217530791Y-152238983D02*
X232130791Y-152213983D01*
D22*
X227172150Y-109046031D02*
X227143072Y-108976243D01*
X179952547Y-65638983D02*
X175902547Y-65648983D01*
X137702547Y-81188983D02*
X128352547Y-141188983D01*
X218702547Y-133088983D02*
X219752547Y-133388983D01*
X94302547Y-104838983D02*
X94652547Y-104338983D01*
X214202547Y-99388983D02*
X212502547Y-99288983D01*
X212805583Y-76582856D02*
X211569575Y-76363121D01*
X221652547Y-99838983D02*
X220702547Y-99688983D01*
D23*
X213402547Y-47988983D02*
X215502547Y-47938983D01*
X224302547Y-42264410D02*
X207052547Y-42288983D01*
D22*
X231692547Y-103408983D02*
X231180586Y-102220192D01*
X87252547Y-50788983D02*
X87602547Y-50738983D01*
X133852547Y-74038983D02*
X128102547Y-108338983D01*
D23*
X231928332Y-149388983D02*
X233102547Y-149388983D01*
D22*
X195657457Y-71295456D02*
X195253351Y-71174224D01*
X162302547Y-94538983D02*
X191592428Y-93893613D01*
X114502547Y-48188983D02*
X114252547Y-47888983D01*
X99452547Y-45388983D02*
X99402547Y-47938983D01*
D23*
X235512547Y-147518983D02*
X234902547Y-148488983D01*
X236822547Y-70338983D02*
X236822547Y-72248983D01*
D22*
X112252547Y-65488983D02*
X112402547Y-63088983D01*
X215068755Y-57679639D02*
X217755177Y-57646878D01*
D23*
X219702547Y-47088983D02*
X219352547Y-46938983D01*
D22*
X205887517Y-101570508D02*
X204383817Y-100876492D01*
X87102547Y-54738983D02*
X87402547Y-54288983D01*
D23*
X97202547Y-55549339D02*
X101052547Y-55557914D01*
D22*
X192502547Y-68178983D02*
X190752547Y-68438983D01*
X107352547Y-134488983D02*
X107202547Y-134088983D01*
X92621257Y-117367600D02*
X92943805Y-116998973D01*
X226502547Y-59888983D02*
X225252547Y-60138983D01*
X90602547Y-137488983D02*
X90502547Y-119138983D01*
D23*
X202902549Y-29988983D02*
X202932240Y-30434348D01*
X236752547Y-85648983D02*
X236752547Y-89648983D01*
D22*
X197002547Y-66538983D02*
X195252547Y-65888983D01*
X216552547Y-45038983D02*
X217382547Y-46618983D01*
X221630961Y-94817519D02*
X222328741Y-94972582D01*
X182952549Y-143188983D02*
X179552547Y-143238983D01*
X216302547Y-66538983D02*
X211552547Y-66538983D01*
X136652547Y-108488983D02*
X135852547Y-109288983D01*
X230376581Y-115753327D02*
X229935037Y-115277818D01*
X218648001Y-52538983D02*
X219129970Y-52538983D01*
X159792547Y-65588983D02*
X164722547Y-65658983D01*
X166302502Y-74151472D02*
X166022625Y-74081503D01*
X83802547Y-74288983D02*
X83402547Y-74188983D01*
D23*
X142802547Y-107888983D02*
X142802547Y-115138983D01*
D22*
X189006190Y-88778344D02*
X190994815Y-89036129D01*
X99785232Y-72958829D02*
G75*
G03*
X99329048Y-71650808I-9647732J-2631171D01*
G01*
X198928589Y-94151114D02*
G75*
G03*
X198072742Y-94063696I-1443089J-9895086D01*
G01*
X208474348Y-59671909D02*
G75*
G03*
X208630176Y-59604734I-3878048J9210409D01*
G01*
D23*
X226952547Y-49488983D02*
X225952547Y-50188983D01*
D22*
X229299868Y-114188892D02*
X229133498Y-113872789D01*
X232452549Y-119638983D02*
X232502549Y-119888983D01*
X203952549Y-136338983D02*
X204152549Y-136588983D01*
D23*
X97302547Y-89888983D02*
X97252547Y-85338983D01*
X221652547Y-48338983D02*
X221004748Y-47885523D01*
D22*
X211262181Y-117822471D02*
X210952547Y-117388983D01*
X153682547Y-143238983D02*
X150552547Y-143238983D01*
X213631329Y-94335822D02*
X217955610Y-94294242D01*
X205652547Y-74038983D02*
X205302547Y-73938983D01*
X99302547Y-71588983D02*
X99140261Y-71318506D01*
X206602547Y-65338983D02*
X205752547Y-65938983D01*
X181495340Y-88488957D02*
G75*
G02*
X181609750Y-88489664I-4640J-10007643D01*
G01*
X213065031Y-103235340D02*
G75*
G02*
X212340751Y-103216374I-100531J9999740D01*
G01*
D23*
X200788309Y-124740609D02*
G75*
G02*
X200716798Y-124737101I454091J9986909D01*
G01*
D22*
X229904498Y-129948726D02*
G75*
G03*
X229596591Y-129735011I-5854798J-8106574D01*
G01*
X220112158Y-94521434D02*
G75*
G02*
X220392383Y-94560496I-1240458J-9923466D01*
G01*
X91608522Y-53288168D02*
X91596571Y-53289791D01*
X226921586Y-90070406D02*
X226702547Y-89938983D01*
X148452547Y-61788983D02*
X148802547Y-61738983D01*
X190102547Y-67088983D02*
X189602547Y-67138983D01*
X164052547Y-109038983D02*
X186802547Y-109038983D01*
X221552547Y-75538983D02*
X220252547Y-75388983D01*
X99752547Y-37688983D02*
X97552547Y-37688983D01*
D23*
X200788309Y-124740609D02*
X201852547Y-124788983D01*
D22*
X112752547Y-149838983D02*
X111952547Y-149688983D01*
X219219167Y-125838983D02*
G75*
G03*
X218886019Y-125844534I33J-10001017D01*
G01*
X170571398Y-74461661D02*
G75*
G02*
X169832686Y-74488981I-738698J9972961D01*
G01*
X213292362Y-70715526D02*
G75*
G02*
X212632341Y-70235480I5547238J8320726D01*
G01*
X138052547Y-104688983D02*
X138702547Y-105238983D01*
X233822547Y-76248983D02*
X224302547Y-76868983D01*
X194478489Y-72164118D02*
X194175314Y-72120807D01*
X204552547Y-82138983D02*
X202252547Y-82138983D01*
X99852547Y-76088983D02*
X99920596Y-74932151D01*
X228402547Y-55438983D02*
X227102547Y-56138983D01*
X231180586Y-102220192D02*
G75*
G03*
X231017421Y-101860995I-9186286J-3956208D01*
G01*
X211517677Y-69327600D02*
G75*
G03*
X212000293Y-69735117I6689123J7432300D01*
G01*
X88791741Y-59075775D02*
G75*
G02*
X88813308Y-59102227I-7718541J-6315225D01*
G01*
X92943805Y-116998973D02*
G75*
G02*
X92963597Y-116981625I75195J-65827D01*
G01*
X213246189Y-122345352D02*
G75*
G03*
X213991099Y-122995738I6941311J7198352D01*
G01*
X186632247Y-66626721D02*
G75*
G02*
X186579099Y-66634752I-1531747J9957221D01*
G01*
X210063610Y-92783054D02*
G75*
G03*
X210241576Y-92793327I664590J9966754D01*
G01*
X218345408Y-100855055D02*
G75*
G02*
X217960451Y-100815460I830692J9967355D01*
G01*
X94894169Y-92243941D02*
G75*
G02*
X93090348Y-92469389I-2136969J9769041D01*
G01*
X115267823Y-148449671D02*
G75*
G02*
X114344997Y-148284998I1293377J9916171D01*
G01*
X223360889Y-95260768D02*
G75*
G03*
X222328740Y-94972587I-3201389J-9473632D01*
G01*
X190691948Y-65932916D02*
G75*
G02*
X190770606Y-65919838I1687752J-9907984D01*
G01*
X118492547Y-40748983D02*
X118492547Y-43288983D01*
X88452547Y-53738983D02*
X89661970Y-53552918D01*
X89352547Y-137938983D02*
X89552547Y-137738983D01*
X100902547Y-50388983D02*
X100902547Y-45638983D01*
X126112547Y-43288983D02*
X126112547Y-45828983D01*
X231152547Y-86638983D02*
X231054918Y-86598304D01*
X111702547Y-69888983D02*
X111952547Y-67838983D01*
X141252547Y-150788983D02*
X140602547Y-150988983D01*
D23*
X203352549Y-40838983D02*
X203652549Y-41188983D01*
D22*
X123752547Y-34738983D02*
X123502547Y-34388983D01*
X125002547Y-54288983D02*
X120352547Y-48338983D01*
X221852547Y-65238983D02*
X221846443Y-65238983D01*
X142802547Y-126588983D02*
X142802547Y-135288983D01*
D23*
X200702547Y-32188983D02*
X200802547Y-42288983D01*
D22*
X129552547Y-58238983D02*
X129952547Y-58338983D01*
X96452547Y-146688983D02*
X95852547Y-147488983D01*
X219852547Y-80488983D02*
X219002547Y-80338983D01*
D23*
X236702547Y-95738983D02*
X236652547Y-96288983D01*
D22*
X222486644Y-73761875D02*
X222076695Y-73615464D01*
X142552547Y-60538983D02*
X141102547Y-60488983D01*
X164452547Y-143288983D02*
X161302547Y-143238983D01*
X171932547Y-143238983D02*
X168752547Y-143238983D01*
X232552547Y-117498983D02*
X231446208Y-116798302D01*
X180952547Y-71988983D02*
X180418229Y-71874486D01*
X224302547Y-122078983D02*
X223252547Y-121488983D01*
D23*
X200060774Y-124702574D02*
X200716798Y-124737101D01*
D22*
X191960609Y-90897652D02*
X192607637Y-90924612D01*
X135302547Y-110788983D02*
X135102547Y-111338983D01*
X83152547Y-144838983D02*
X83102547Y-144188983D01*
D23*
X118002547Y-53188983D02*
X118152547Y-52788983D01*
D22*
X105552547Y-132738983D02*
X97252547Y-132538983D01*
X168250801Y-74447915D02*
X167822501Y-74408979D01*
X222202547Y-104888983D02*
X221860666Y-104820607D01*
D23*
X138505791Y-152313983D02*
X159855791Y-152288983D01*
D22*
X110102547Y-148838983D02*
X109652547Y-148438983D01*
X109052547Y-147888983D02*
X108602547Y-147388983D01*
D23*
X200902547Y-48188983D02*
X213402547Y-47988983D01*
D22*
X92452547Y-139588983D02*
X92052547Y-139138983D01*
X217767747Y-107011955D02*
X217730352Y-106990586D01*
X227352547Y-102538983D02*
X226402547Y-102138983D01*
X134152547Y-42738983D02*
X134102547Y-45284183D01*
X78899720Y-65748595D02*
X78527707Y-67013438D01*
X147502547Y-58988983D02*
X147752547Y-58788983D01*
X203203485Y-92014139D02*
X203768666Y-92108336D01*
X115302547Y-48388983D02*
X114802547Y-48338983D01*
X195252547Y-65888983D02*
X194902547Y-65788983D01*
X220370317Y-52616204D02*
X220412165Y-52621435D01*
X233752547Y-93648983D02*
X232229172Y-92639747D01*
X226052547Y-56338983D02*
X224302547Y-56368983D01*
X104352547Y-90888983D02*
X105252547Y-89488983D01*
X208916901Y-112746226D02*
X208602547Y-112288983D01*
X164052547Y-99538983D02*
X186802547Y-99538983D01*
X205630537Y-60509907D02*
X205902547Y-60488983D01*
X159792547Y-42728983D02*
X158574622Y-41699397D01*
X229452547Y-123738983D02*
X228988845Y-123654673D01*
X113052547Y-44488983D02*
X113452547Y-44338983D01*
X146602547Y-59288983D02*
X147002547Y-59238983D01*
X141802547Y-89922901D02*
G75*
G02*
X141837785Y-89659783I999953J1D01*
G01*
X190994815Y-89036129D02*
G75*
G02*
X191804566Y-89175126I-1285515J-9917171D01*
G01*
X212848901Y-124385337D02*
G75*
G03*
X213162723Y-124685812I7070199J7070137D01*
G01*
X87902547Y-139888983D02*
X88002547Y-139538983D01*
X192502547Y-75798983D02*
X188352547Y-79638983D01*
X176083280Y-72024877D02*
X175467054Y-71973525D01*
X182102547Y-82088983D02*
X175902547Y-78348983D01*
X194842922Y-73571167D02*
X194452547Y-73488983D01*
X197199343Y-91828129D02*
X200629133Y-92742739D01*
X179204638Y-72473406D02*
X177303349Y-72170929D01*
X84302547Y-54588983D02*
X84352547Y-53938983D01*
X197202547Y-79388983D02*
X195839630Y-78999578D01*
X121952547Y-121738983D02*
X121952547Y-132538983D01*
X146202547Y-54238983D02*
X146552547Y-54488983D01*
D23*
X234692547Y-103408983D02*
X234692547Y-107408983D01*
D22*
X205102547Y-69438983D02*
X204743197Y-69438983D01*
D23*
X234692547Y-107408983D02*
X234692547Y-111408983D01*
X107152547Y-40738983D02*
X106802547Y-40488983D01*
D22*
X230052547Y-60138983D02*
X227702547Y-61038983D01*
X218886019Y-125844534D02*
X217719075Y-125883432D01*
X216682547Y-81948983D02*
X215131652Y-81312489D01*
X188352547Y-69988983D02*
X183522547Y-70728983D01*
X90302547Y-116988983D02*
X90452547Y-116688983D01*
X219752547Y-133388983D02*
X220602547Y-133488983D01*
X204252549Y-136838983D02*
X204302549Y-137138983D01*
X221202547Y-52738983D02*
X224302547Y-53828983D01*
X208525666Y-54376139D02*
X209662603Y-53744508D01*
X205902547Y-109988983D02*
X205720210Y-109886418D01*
X152952547Y-70738983D02*
X152902547Y-109038983D01*
X231274153Y-116660589D02*
X230633448Y-116019884D01*
X91952547Y-116338983D02*
X92402547Y-115688983D01*
D23*
X177452547Y-87088983D02*
X177352547Y-83438983D01*
D22*
X211252547Y-69088983D02*
X211150542Y-69020980D01*
X124002547Y-35588983D02*
X123952547Y-35088983D01*
D23*
X236802547Y-46538983D02*
X236802547Y-50538983D01*
D22*
X209787546Y-114415647D02*
X209552547Y-113788983D01*
X232652547Y-73688983D02*
X232052547Y-74238983D01*
X224302547Y-79408983D02*
X222102547Y-78688983D01*
X83502547Y-69188983D02*
X84252547Y-69538983D01*
X142802547Y-135288983D02*
X142802547Y-148738983D01*
X169452547Y-65588983D02*
X168452547Y-65588983D01*
X114344998Y-148284995D02*
X114034120Y-148214341D01*
X210126925Y-68530442D02*
G75*
G02*
X210475881Y-68653983I-3162725J-9488058D01*
G01*
X78905393Y-65729377D02*
G75*
G03*
X78899720Y-65748595I10463707J-3099223D01*
G01*
X200977509Y-92828974D02*
G75*
G02*
X200629133Y-92742740I2228891J9751274D01*
G01*
X173334855Y-73995937D02*
G75*
G02*
X172664614Y-74158897I-2696255J9629637D01*
G01*
X221443687Y-73403681D02*
G75*
G02*
X220865781Y-73257051I2169513J9762781D01*
G01*
X206981940Y-55109211D02*
G75*
G03*
X208373322Y-54461681I-3511140J9363211D01*
G01*
X208947641Y-51908077D02*
G75*
G02*
X208756854Y-51967982I-3090841J9510077D01*
G01*
X227152547Y-119838983D02*
X227802547Y-120188983D01*
X195075607Y-78747630D02*
X195052547Y-78738983D01*
X145902547Y-54138983D02*
X146202547Y-54238983D01*
X207702547Y-104388983D02*
X206695656Y-104173221D01*
X181502547Y-69238983D02*
X180002547Y-68938983D01*
X128102547Y-108338983D02*
X126652547Y-110538983D01*
X232502549Y-119888983D02*
X232552547Y-121498983D01*
X82452547Y-114638983D02*
X82852547Y-113938983D01*
D23*
X235002547Y-114288983D02*
X235152547Y-115038983D01*
D22*
X212802547Y-63138983D02*
X211752547Y-63638983D01*
X82252547Y-67938983D02*
X82552547Y-68438983D01*
X183522547Y-75808983D02*
X186902547Y-75788983D01*
X84152547Y-74338983D02*
X83802547Y-74288983D01*
X96640922Y-52719758D02*
X97710934Y-52648424D01*
X81419672Y-73260466D02*
X79352547Y-72038983D01*
X144712547Y-73238983D02*
X133852547Y-74038983D01*
X139602547Y-56838983D02*
X139902547Y-56938983D01*
X230702547Y-94938983D02*
X229952547Y-94488983D01*
X226585621Y-107722057D02*
X226534622Y-107671058D01*
X127502547Y-48988983D02*
X126112547Y-48368983D01*
X204631431Y-52660631D02*
X206161429Y-52528735D01*
X206404186Y-110343081D02*
X205902547Y-109988983D01*
X92925999Y-53118669D02*
G75*
G03*
X92480230Y-53169301I905501J-9959731D01*
G01*
X89843363Y-53526711D02*
G75*
G03*
X89661970Y-53552917I1339137J-9910089D01*
G01*
X194478489Y-72164118D02*
G75*
G03*
X194827371Y-72207714I1413711J9895618D01*
G01*
X77801742Y-70570826D02*
X77752547Y-70988983D01*
X108552547Y-69688983D02*
X108952547Y-66288983D01*
X190124106Y-90888983D02*
X191544304Y-90888983D01*
X219252547Y-62938983D02*
X218702547Y-62838983D01*
X83502547Y-149438983D02*
X83052547Y-148738983D01*
X100602547Y-41838983D02*
X100252547Y-41288983D01*
X116002547Y-34238983D02*
X115352547Y-34588983D01*
X142702547Y-149238983D02*
X142502547Y-149738983D01*
X110286656Y-146194681D02*
X110002547Y-145938983D01*
X205202547Y-106188983D02*
X204452547Y-105988983D01*
D23*
X102052547Y-54988983D02*
X101052547Y-55557914D01*
D22*
X139152547Y-105688983D02*
X139902547Y-106338983D01*
X186579099Y-66634752D02*
X186525919Y-66642641D01*
X146702547Y-80888983D02*
X146602547Y-121988983D01*
X182152547Y-69388983D02*
X181502547Y-69238983D01*
X108770033Y-124281333D02*
X108752547Y-124088983D01*
X144778709Y-37033814D02*
X141102547Y-36988983D01*
X98852547Y-49188983D02*
X98552547Y-49488983D01*
D23*
X236752547Y-95238983D02*
X236702547Y-95738983D01*
D22*
X96938493Y-81622798D02*
G75*
G03*
X97893531Y-80587747I-6853793J7282098D01*
G01*
X105085927Y-74703889D02*
G75*
G03*
X105241590Y-73464335I-9825127J1863389D01*
G01*
X212444114Y-119308020D02*
G75*
G03*
X212257448Y-119072748I-7926414J-6097180D01*
G01*
X112402547Y-63088983D02*
X112502547Y-59388983D01*
X128902547Y-38788983D02*
X129102547Y-38438983D01*
X113802547Y-45988983D02*
X113552547Y-45838983D01*
X214202547Y-62788983D02*
X213502547Y-62938983D01*
X217902547Y-79888983D02*
X216682547Y-79408983D01*
X225702547Y-96788983D02*
X223202547Y-96838983D01*
X177303349Y-72170929D02*
G75*
G03*
X176900612Y-72115225I-1571449J-9877771D01*
G01*
D23*
X101801552Y-77501963D02*
G75*
G02*
X101572984Y-78266872I-9687752J2478263D01*
G01*
D22*
X228728265Y-133810286D02*
G75*
G02*
X228776613Y-133867862I-7673665J-6492814D01*
G01*
D23*
X102040615Y-76567445D02*
G75*
G03*
X102320746Y-74886565I-9687915J2478345D01*
G01*
D22*
X157028860Y-40624723D02*
G75*
G02*
X158574623Y-41699396I-4910160J-8711577D01*
G01*
X192362486Y-140822558D02*
G75*
G02*
X192741846Y-140862647I-861386J-9966242D01*
G01*
D23*
X198202547Y-129338983D02*
X198552547Y-130538983D01*
D22*
X230602547Y-122488983D02*
X231102547Y-122888983D01*
D23*
X103152547Y-53838983D02*
X102952547Y-54338983D01*
D22*
X114152547Y-47638983D02*
X114052547Y-47288983D01*
X198928589Y-94151114D02*
X200744721Y-94415967D01*
X185852547Y-69388983D02*
X185552547Y-69438983D01*
D23*
X106452547Y-39288983D02*
X106402547Y-32226942D01*
D22*
X175902547Y-70728983D02*
X174052547Y-70238983D01*
X92402547Y-115688983D02*
X92602547Y-115388983D01*
X92504018Y-117980157D02*
X92597876Y-117417010D01*
X195652547Y-66938983D02*
X194602547Y-66788983D01*
D23*
X224302547Y-51288983D02*
X223364473Y-50078565D01*
D22*
X219102547Y-100988983D02*
X218752547Y-100888983D01*
X83302547Y-145638983D02*
X83152547Y-144838983D01*
D23*
X230528518Y-149381897D02*
X231876762Y-149388850D01*
D22*
X113852547Y-43738983D02*
X113902547Y-43388983D01*
X102452547Y-44488983D02*
X112702547Y-44588983D01*
D23*
X87302547Y-92888983D02*
X87402547Y-92488983D01*
D22*
X185764273Y-72088983D02*
G75*
G02*
X185640826Y-72088221I-173J9973483D01*
G01*
X220579917Y-123122194D02*
G75*
G03*
X221028040Y-123245354I2873083J9576994D01*
G01*
X221956765Y-58666631D02*
G75*
G02*
X221160580Y-58377588I3011135J9535431D01*
G01*
X220602547Y-133488983D02*
X221752547Y-133538983D01*
X95852547Y-93088983D02*
X97502547Y-92738983D01*
X197802547Y-76938983D02*
X196702547Y-76688983D01*
X179630177Y-67355604D02*
X179475191Y-67321132D01*
X181205239Y-72830492D02*
X179400128Y-72506497D01*
X194341033Y-70946680D02*
X194319538Y-70942381D01*
D23*
X235552547Y-129498983D02*
X235512547Y-135518983D01*
D22*
X226302547Y-96838983D02*
X225702547Y-96788983D01*
X219852547Y-65038983D02*
X218997528Y-64768977D01*
X90452547Y-42188983D02*
X90402547Y-46088983D01*
X200122547Y-68178983D02*
X197202547Y-67388983D01*
X201952547Y-67838983D02*
X201352547Y-67888983D01*
X224302547Y-71788983D02*
X227402547Y-70888983D01*
D23*
X78852547Y-104488983D02*
X78702547Y-105288983D01*
D22*
X168434910Y-49812114D02*
X167764869Y-49920769D01*
X161302547Y-145778983D02*
X161302547Y-148318983D01*
X205802547Y-67688983D02*
X204852547Y-67788983D01*
X94702547Y-70388983D02*
X94052547Y-70088983D01*
X134102547Y-45284183D02*
X130802547Y-45288983D01*
X178962089Y-71497260D02*
X178316826Y-71293492D01*
X198552547Y-74538983D02*
X198144580Y-74436991D01*
X225352547Y-137238983D02*
X226552547Y-139488983D01*
D23*
X80202547Y-152388983D02*
X97055791Y-152338983D01*
X234802547Y-112688983D02*
X234902547Y-113538983D01*
X225721435Y-147890649D02*
X224052547Y-146638983D01*
D22*
X190752547Y-68438983D02*
X187302547Y-69038983D01*
X213102547Y-52588983D02*
X218557096Y-52539396D01*
X193552791Y-78460165D02*
X192502547Y-78338983D01*
X233752547Y-81648983D02*
X230552547Y-81188983D01*
X219652547Y-63038983D02*
X219252547Y-62938983D01*
X194302547Y-65688983D02*
X192502547Y-65638983D01*
X127675189Y-40514245D02*
X127902547Y-40488983D01*
D23*
X117002547Y-54688983D02*
X117252547Y-54438983D01*
D22*
X214770730Y-81172465D02*
X213399568Y-80670820D01*
X88323712Y-58504381D02*
X87602547Y-57638983D01*
D23*
X221996522Y-48636052D02*
X221652547Y-48338983D01*
X219352547Y-46938983D02*
X219002547Y-46838983D01*
D22*
X200122547Y-70718983D02*
X195052547Y-69588983D01*
X190883793Y-71026484D02*
X189763177Y-71275510D01*
X222602547Y-131288983D02*
X221752547Y-131038983D01*
X87952547Y-67738983D02*
X87852547Y-63138983D01*
X94852547Y-83238983D02*
X95196374Y-83016507D01*
D23*
X79269734Y-43388983D02*
X79302547Y-64388983D01*
X236052547Y-97738983D02*
X234692547Y-99408983D01*
D22*
X226702547Y-89938983D02*
X226302547Y-89638983D01*
X132602547Y-71788983D02*
X128102547Y-94288983D01*
X214950306Y-51143008D02*
X216682547Y-51288983D01*
X207375328Y-111113430D02*
X207078710Y-110863647D01*
X196002549Y-148988983D02*
X195652549Y-148938983D01*
X82852547Y-113938983D02*
X83252547Y-113438983D01*
X151028133Y-37985122D02*
X149600274Y-37602660D01*
X182352547Y-77138983D02*
X175902547Y-73268983D01*
X190534795Y-65960010D02*
X187970978Y-66417835D01*
D23*
X115002547Y-55588983D02*
X115452547Y-55538983D01*
D22*
X196996030Y-94000364D02*
X198072742Y-94063700D01*
X229752547Y-97938983D02*
X228752547Y-97438983D01*
X206836015Y-114623972D02*
X205302547Y-112038983D01*
X114802547Y-34938983D02*
X114102547Y-35488983D01*
X224302547Y-74328983D02*
X222921756Y-73906116D01*
X82302547Y-146788983D02*
X82202547Y-146138983D01*
X102105427Y-84688124D02*
G75*
G02*
X101646880Y-85665066I-9268827J3754424D01*
G01*
X231388672Y-137552201D02*
G75*
G03*
X231315506Y-137426298I-8682172J-4961299D01*
G01*
X190613373Y-65946301D02*
G75*
G03*
X190534795Y-65960010I1674927J-9832399D01*
G01*
X139102549Y-39438983D02*
X144964197Y-39390540D01*
X227902547Y-141738983D02*
X229152547Y-143338983D01*
X170021718Y-44482147D02*
X171652183Y-44451953D01*
D23*
X101052547Y-55557914D02*
X115002547Y-55588983D01*
D22*
X135152547Y-149788983D02*
X134352547Y-149888983D01*
X147752547Y-49288983D02*
X147452547Y-49188983D01*
X210524669Y-121776676D02*
X209472356Y-120441048D01*
X205502547Y-55388983D02*
X205785098Y-55351310D01*
X229502547Y-54538983D02*
X228402547Y-55438983D01*
X212202547Y-61488983D02*
X211802547Y-61538983D01*
X196608769Y-93985107D02*
G75*
G02*
X196996030Y-94000362I-199869J-9996893D01*
G01*
X201559811Y-99904652D02*
G75*
G02*
X202435900Y-100112802I-1871111J-9823148D01*
G01*
X203302164Y-94867486D02*
G75*
G02*
X204095803Y-95042756I-1757864J-9844214D01*
G01*
X221252867Y-123294015D02*
G75*
G03*
X222154450Y-123343209I995033J9949815D01*
G01*
X232692948Y-64660380D02*
G75*
G02*
X231696217Y-64965566I-3422048J9396080D01*
G01*
X219863212Y-130957266D02*
G75*
G02*
X220940717Y-130978847I338788J-9994734D01*
G01*
D23*
X79631451Y-152149472D02*
G75*
G03*
X80140825Y-152380140I650749J759272D01*
G01*
D22*
X168250801Y-74447915D02*
G75*
G03*
X169156156Y-74488979I905299J9958615D01*
G01*
X212023911Y-103196568D02*
G75*
G02*
X211781404Y-103178450I624389J9989468D01*
G01*
X210352547Y-82338983D02*
X209352547Y-82288983D01*
X232352547Y-123438983D02*
X232952547Y-123438983D01*
X228476017Y-85946330D02*
X228191318Y-85917860D01*
X229152547Y-143338983D02*
X230202547Y-144538983D01*
X221102547Y-96338983D02*
X220752547Y-96088983D01*
X213602547Y-125088983D02*
X213162723Y-124685811D01*
X194102547Y-75988983D02*
X192502547Y-75798983D01*
X186030924Y-88557856D02*
X188397063Y-88718272D01*
D23*
X234902547Y-113538983D02*
X235002547Y-114288983D01*
D22*
X189145007Y-72418568D02*
X187525246Y-72832124D01*
X197758763Y-74348611D02*
X197322738Y-74257773D01*
X143048554Y-88512092D02*
X142870082Y-88551753D01*
X204095802Y-95042759D02*
X206916204Y-95787031D01*
X113902547Y-43388983D02*
X113852547Y-40338983D01*
X185379448Y-66803465D02*
X185234748Y-66820489D01*
X216682547Y-71788983D02*
X215402547Y-71688983D01*
X114802547Y-38438983D02*
X115202547Y-38238983D01*
X144712547Y-83398983D02*
X139102547Y-83588983D01*
X224202547Y-60188983D02*
X222802547Y-60188983D01*
X201352547Y-67888983D02*
X200122547Y-68178983D01*
X217202547Y-99488983D02*
X215552547Y-99438983D01*
X166022625Y-74081503D02*
G75*
G02*
X165707086Y-73941129I242575J970103D01*
G01*
X222604934Y-131290068D02*
G75*
G02*
X223666373Y-131851749I-4138134J-9103832D01*
G01*
X226887008Y-108292367D02*
G75*
G03*
X227143071Y-108976243I9486292J3162067D01*
G01*
X191852547Y-69488983D02*
X188352547Y-69988983D01*
X99252547Y-95538983D02*
X100452547Y-94888983D01*
X209203076Y-94108676D02*
X212974268Y-94320540D01*
D23*
X91102547Y-91138983D02*
X92902547Y-90738983D01*
D22*
X211517677Y-69327600D02*
X211252547Y-69088983D01*
X220752547Y-96088983D02*
X219952547Y-95738983D01*
X133852547Y-148338983D02*
X133302547Y-148438983D01*
D23*
X204255759Y-41655562D02*
G75*
G02*
X203666297Y-41200440I5812641J8137662D01*
G01*
D22*
X229407477Y-114387857D02*
G75*
G02*
X229299867Y-114188892I8741223J4856257D01*
G01*
X211590601Y-128827037D02*
G75*
G02*
X211319986Y-128545646I7068499J7068637D01*
G01*
X219070140Y-127754887D02*
G75*
G02*
X218935181Y-127722142I2293860J9748587D01*
G01*
X210524669Y-121776676D02*
G75*
G03*
X210787020Y-122095868I7855731J6189376D01*
G01*
X144778709Y-37033814D02*
G75*
G02*
X145624427Y-37080003I-122009J-9999586D01*
G01*
X233802547Y-46538983D02*
X232802547Y-47888983D01*
X220123442Y-128010271D02*
X219979398Y-127972365D01*
X196646409Y-71620270D02*
X195946252Y-71386885D01*
X194252549Y-141588983D02*
X193902549Y-141338983D01*
X229352547Y-103988983D02*
X229190778Y-103844242D01*
X212340751Y-103216371D02*
X212023911Y-103196568D01*
X140202547Y-107238983D02*
X140252547Y-107688983D01*
X231902547Y-87138983D02*
X231502547Y-86838983D01*
D23*
X97055791Y-152338983D02*
X120255791Y-152313983D01*
D22*
X134352547Y-149888983D02*
X133052547Y-149888983D01*
X209702547Y-68438983D02*
X209302547Y-68438983D01*
X205952547Y-106488983D02*
X205202547Y-106188983D01*
X86202547Y-110988983D02*
X87852547Y-110538983D01*
X212929202Y-50895316D02*
X213152968Y-50906504D01*
X98002547Y-90788983D02*
X98590273Y-90254687D01*
X108852547Y-81138983D02*
X109952547Y-77638983D01*
X209652547Y-65188983D02*
X208652547Y-66038983D01*
X164052547Y-102538983D02*
X186802547Y-102538983D01*
X114502547Y-38738983D02*
X114802547Y-38438983D01*
X220702547Y-99688983D02*
X219552547Y-99588983D01*
X179113139Y-46626579D02*
G75*
G02*
X179871620Y-47085030I-4788539J-8779021D01*
G01*
X205887517Y-101570508D02*
G75*
G03*
X206629923Y-101877613I4190283J9078808D01*
G01*
X225205779Y-107138983D02*
G75*
G02*
X225493128Y-107181150I21J-1000017D01*
G01*
X219046796Y-94343408D02*
G75*
G03*
X217955610Y-94294246I-994996J-9950192D01*
G01*
X208418101Y-102534493D02*
G75*
G03*
X208992797Y-102726060I3447599J9384893D01*
G01*
X230119733Y-91496219D02*
G75*
G03*
X230085334Y-91481811I-3906733J-9278981D01*
G01*
X146652547Y-57638983D02*
X146802547Y-57288983D01*
X144712547Y-60538983D02*
X142552547Y-60538983D01*
X113202547Y-147988983D02*
X113053592Y-147929401D01*
X223619068Y-65288053D02*
X221852547Y-65238983D01*
X173721036Y-71942444D02*
X170052547Y-72038983D01*
X219252547Y-57738983D02*
X219952547Y-57888983D01*
X202302547Y-135588983D02*
X203352549Y-135888983D01*
X197269299Y-79404154D02*
X197202547Y-79388983D01*
X211252547Y-77788983D02*
X210502547Y-77538983D01*
D23*
X78702540Y-106144730D02*
X78652547Y-149638983D01*
D22*
X226491382Y-65383784D02*
X225113653Y-65339341D01*
X227652547Y-106288983D02*
X227052547Y-105488983D01*
D23*
X103182547Y-50908983D02*
X103152547Y-52638983D01*
D22*
X207675456Y-92607559D02*
X208569966Y-92682101D01*
D23*
X224302547Y-45038983D02*
X224302547Y-42264410D01*
D22*
X213502547Y-62938983D02*
X212802547Y-63138983D01*
X90852547Y-69638983D02*
X89402547Y-69438983D01*
X219395859Y-73088983D02*
X210596877Y-73088983D01*
X183522547Y-73268983D02*
X181299771Y-72847929D01*
X209802547Y-62588983D02*
X209152547Y-63138983D01*
X88402547Y-69238983D02*
X87452547Y-69088983D01*
X174856266Y-66839355D02*
X174839143Y-66837643D01*
X107002547Y-79938983D02*
X107702547Y-76438983D01*
X190932547Y-133078983D02*
X187802547Y-133038983D01*
X225752547Y-104188983D02*
X224302547Y-103198983D01*
D23*
X236822547Y-68248983D02*
X236822547Y-70338983D01*
D22*
X169802547Y-83438983D02*
X159952547Y-83398983D01*
X220412165Y-52621435D02*
G75*
G02*
X220692376Y-52660494I-1240265J-9922465D01*
G01*
X162316450Y-46499470D02*
G75*
G03*
X161698959Y-46799709I4061150J-9137530D01*
G01*
X90359153Y-60946690D02*
G75*
G03*
X90975552Y-61603488I7592547J6507890D01*
G01*
X138452547Y-59888983D02*
X138052547Y-59738983D01*
X213402547Y-83088983D02*
X212352547Y-82888983D01*
X207002547Y-82188983D02*
X204552547Y-82138983D01*
X185252547Y-69438983D02*
X182152547Y-69388983D01*
X224302547Y-108278983D02*
X224302549Y-108438983D01*
X228364421Y-98925380D02*
X228302547Y-98888983D01*
X136452547Y-78588983D02*
X128552547Y-129688983D01*
X213452547Y-120338983D02*
X212852547Y-119838983D01*
X220252547Y-75388983D02*
X219502547Y-75188983D01*
X233552547Y-123388983D02*
X234152547Y-123188983D01*
D23*
X118319096Y-52181062D02*
X118402547Y-51888983D01*
D22*
X198552547Y-135618983D02*
X202302547Y-135588983D01*
X203552547Y-105838983D02*
X203052547Y-105788983D01*
X158022679Y-43649937D02*
X159002549Y-44288983D01*
X182102547Y-84938983D02*
X175902547Y-80888983D01*
X183522547Y-78348983D02*
X186902547Y-78338983D01*
X229652547Y-65388983D02*
X226813795Y-65388983D01*
X100222714Y-51786358D02*
X100552547Y-51538983D01*
X153682547Y-130538983D02*
X150452547Y-130488983D01*
X225652547Y-88938983D02*
X224302547Y-87028983D01*
X92102547Y-68338983D02*
X91402547Y-68238983D01*
X228302547Y-75538983D02*
X226702547Y-75638983D01*
D23*
X79949902Y-102137767D02*
X79834658Y-102341138D01*
D22*
X142102547Y-150288983D02*
X141702547Y-150588983D01*
X218933282Y-120705109D02*
X216198878Y-120810278D01*
X216682547Y-56368983D02*
X166452549Y-56588983D01*
X208373318Y-54461674D02*
X208479495Y-54401949D01*
X144712547Y-75778983D02*
X149802547Y-75788983D01*
X153682547Y-135618983D02*
X150552547Y-135638983D01*
X127902547Y-49088983D02*
X127502547Y-48988983D01*
X89369588Y-59786880D02*
X88813308Y-59102227D01*
X131302547Y-68988983D02*
X126852547Y-85338983D01*
D23*
X203269514Y-125436380D02*
X203702547Y-125688983D01*
X99483503Y-83043262D02*
X99402547Y-83188983D01*
X236255791Y-152238983D02*
X237455791Y-152163983D01*
D22*
X99329044Y-71650810D02*
X99302547Y-71588983D01*
X171452547Y-69888983D02*
X170102547Y-69888983D01*
X221652547Y-101988983D02*
X220802547Y-101838983D01*
X227702547Y-61038983D02*
X226252547Y-61338983D01*
M02*
