G04 #@! TF.GenerationSoftware,KiCad,Pcbnew,9.0.8-1.fc43*
G04 #@! TF.CreationDate,2026-04-19T21:42:27+01:00*
G04 #@! TF.ProjectId,Scrumpi_JN,53637275-6d70-4695-9f4a-4e2e6b696361,rev?*
G04 #@! TF.SameCoordinates,Original*
G04 #@! TF.FileFunction,Legend,Top*
G04 #@! TF.FilePolarity,Positive*
%FSLAX46Y46*%
G04 Gerber Fmt 4.6, Leading zero omitted, Abs format (unit mm)*
G04 Created by KiCad (PCBNEW 9.0.8-1.fc43) date 2026-04-19 21:42:27*
%MOMM*%
%LPD*%
G01*
G04 APERTURE LIST*
%ADD10C,0.300000*%
%ADD11C,0.400000*%
%ADD12C,0.600000*%
%ADD13C,0.152400*%
%ADD14C,0.900000*%
%ADD15C,0.800000*%
%ADD16C,1.436347*%
%ADD17C,0.700000*%
%ADD18C,0.120000*%
%ADD19C,0.100000*%
%ADD20O,3.000000X5.000000*%
%ADD21C,1.600000*%
%ADD22O,2.400000X1.600000*%
%ADD23C,1.800000*%
%ADD24C,3.100000*%
G04 APERTURE END LIST*
D10*
X206250828Y-117285489D02*
X204750828Y-117285489D01*
X204750828Y-117285489D02*
X204750828Y-116928346D01*
X204750828Y-116928346D02*
X204822257Y-116714060D01*
X204822257Y-116714060D02*
X204965114Y-116571203D01*
X204965114Y-116571203D02*
X205107971Y-116499774D01*
X205107971Y-116499774D02*
X205393685Y-116428346D01*
X205393685Y-116428346D02*
X205607971Y-116428346D01*
X205607971Y-116428346D02*
X205893685Y-116499774D01*
X205893685Y-116499774D02*
X206036542Y-116571203D01*
X206036542Y-116571203D02*
X206179400Y-116714060D01*
X206179400Y-116714060D02*
X206250828Y-116928346D01*
X206250828Y-116928346D02*
X206250828Y-117285489D01*
X204750828Y-115928346D02*
X204750828Y-114928346D01*
X204750828Y-114928346D02*
X206250828Y-115571203D01*
X206210828Y-106535489D02*
X204710828Y-106535489D01*
X204710828Y-106535489D02*
X204710828Y-106178346D01*
X204710828Y-106178346D02*
X204782257Y-105964060D01*
X204782257Y-105964060D02*
X204925114Y-105821203D01*
X204925114Y-105821203D02*
X205067971Y-105749774D01*
X205067971Y-105749774D02*
X205353685Y-105678346D01*
X205353685Y-105678346D02*
X205567971Y-105678346D01*
X205567971Y-105678346D02*
X205853685Y-105749774D01*
X205853685Y-105749774D02*
X205996542Y-105821203D01*
X205996542Y-105821203D02*
X206139400Y-105964060D01*
X206139400Y-105964060D02*
X206210828Y-106178346D01*
X206210828Y-106178346D02*
X206210828Y-106535489D01*
X204710828Y-104392632D02*
X204710828Y-104678346D01*
X204710828Y-104678346D02*
X204782257Y-104821203D01*
X204782257Y-104821203D02*
X204853685Y-104892632D01*
X204853685Y-104892632D02*
X205067971Y-105035489D01*
X205067971Y-105035489D02*
X205353685Y-105106917D01*
X205353685Y-105106917D02*
X205925114Y-105106917D01*
X205925114Y-105106917D02*
X206067971Y-105035489D01*
X206067971Y-105035489D02*
X206139400Y-104964060D01*
X206139400Y-104964060D02*
X206210828Y-104821203D01*
X206210828Y-104821203D02*
X206210828Y-104535489D01*
X206210828Y-104535489D02*
X206139400Y-104392632D01*
X206139400Y-104392632D02*
X206067971Y-104321203D01*
X206067971Y-104321203D02*
X205925114Y-104249774D01*
X205925114Y-104249774D02*
X205567971Y-104249774D01*
X205567971Y-104249774D02*
X205425114Y-104321203D01*
X205425114Y-104321203D02*
X205353685Y-104392632D01*
X205353685Y-104392632D02*
X205282257Y-104535489D01*
X205282257Y-104535489D02*
X205282257Y-104821203D01*
X205282257Y-104821203D02*
X205353685Y-104964060D01*
X205353685Y-104964060D02*
X205425114Y-105035489D01*
X205425114Y-105035489D02*
X205567971Y-105106917D01*
X206160828Y-95885489D02*
X204660828Y-95885489D01*
X204660828Y-95885489D02*
X204660828Y-95528346D01*
X204660828Y-95528346D02*
X204732257Y-95314060D01*
X204732257Y-95314060D02*
X204875114Y-95171203D01*
X204875114Y-95171203D02*
X205017971Y-95099774D01*
X205017971Y-95099774D02*
X205303685Y-95028346D01*
X205303685Y-95028346D02*
X205517971Y-95028346D01*
X205517971Y-95028346D02*
X205803685Y-95099774D01*
X205803685Y-95099774D02*
X205946542Y-95171203D01*
X205946542Y-95171203D02*
X206089400Y-95314060D01*
X206089400Y-95314060D02*
X206160828Y-95528346D01*
X206160828Y-95528346D02*
X206160828Y-95885489D01*
X204660828Y-93671203D02*
X204660828Y-94385489D01*
X204660828Y-94385489D02*
X205375114Y-94456917D01*
X205375114Y-94456917D02*
X205303685Y-94385489D01*
X205303685Y-94385489D02*
X205232257Y-94242632D01*
X205232257Y-94242632D02*
X205232257Y-93885489D01*
X205232257Y-93885489D02*
X205303685Y-93742632D01*
X205303685Y-93742632D02*
X205375114Y-93671203D01*
X205375114Y-93671203D02*
X205517971Y-93599774D01*
X205517971Y-93599774D02*
X205875114Y-93599774D01*
X205875114Y-93599774D02*
X206017971Y-93671203D01*
X206017971Y-93671203D02*
X206089400Y-93742632D01*
X206089400Y-93742632D02*
X206160828Y-93885489D01*
X206160828Y-93885489D02*
X206160828Y-94242632D01*
X206160828Y-94242632D02*
X206089400Y-94385489D01*
X206089400Y-94385489D02*
X206017971Y-94456917D01*
X206110828Y-84585489D02*
X204610828Y-84585489D01*
X204610828Y-84585489D02*
X204610828Y-84228346D01*
X204610828Y-84228346D02*
X204682257Y-84014060D01*
X204682257Y-84014060D02*
X204825114Y-83871203D01*
X204825114Y-83871203D02*
X204967971Y-83799774D01*
X204967971Y-83799774D02*
X205253685Y-83728346D01*
X205253685Y-83728346D02*
X205467971Y-83728346D01*
X205467971Y-83728346D02*
X205753685Y-83799774D01*
X205753685Y-83799774D02*
X205896542Y-83871203D01*
X205896542Y-83871203D02*
X206039400Y-84014060D01*
X206039400Y-84014060D02*
X206110828Y-84228346D01*
X206110828Y-84228346D02*
X206110828Y-84585489D01*
X205110828Y-82442632D02*
X206110828Y-82442632D01*
X204539400Y-82799774D02*
X205610828Y-83156917D01*
X205610828Y-83156917D02*
X205610828Y-82228346D01*
X206080828Y-70195489D02*
X204580828Y-70195489D01*
X204580828Y-70195489D02*
X204580828Y-69838346D01*
X204580828Y-69838346D02*
X204652257Y-69624060D01*
X204652257Y-69624060D02*
X204795114Y-69481203D01*
X204795114Y-69481203D02*
X204937971Y-69409774D01*
X204937971Y-69409774D02*
X205223685Y-69338346D01*
X205223685Y-69338346D02*
X205437971Y-69338346D01*
X205437971Y-69338346D02*
X205723685Y-69409774D01*
X205723685Y-69409774D02*
X205866542Y-69481203D01*
X205866542Y-69481203D02*
X206009400Y-69624060D01*
X206009400Y-69624060D02*
X206080828Y-69838346D01*
X206080828Y-69838346D02*
X206080828Y-70195489D01*
X204580828Y-68838346D02*
X204580828Y-67909774D01*
X204580828Y-67909774D02*
X205152257Y-68409774D01*
X205152257Y-68409774D02*
X205152257Y-68195489D01*
X205152257Y-68195489D02*
X205223685Y-68052632D01*
X205223685Y-68052632D02*
X205295114Y-67981203D01*
X205295114Y-67981203D02*
X205437971Y-67909774D01*
X205437971Y-67909774D02*
X205795114Y-67909774D01*
X205795114Y-67909774D02*
X205937971Y-67981203D01*
X205937971Y-67981203D02*
X206009400Y-68052632D01*
X206009400Y-68052632D02*
X206080828Y-68195489D01*
X206080828Y-68195489D02*
X206080828Y-68624060D01*
X206080828Y-68624060D02*
X206009400Y-68766917D01*
X206009400Y-68766917D02*
X205937971Y-68838346D01*
X206060828Y-59235489D02*
X204560828Y-59235489D01*
X204560828Y-59235489D02*
X204560828Y-58878346D01*
X204560828Y-58878346D02*
X204632257Y-58664060D01*
X204632257Y-58664060D02*
X204775114Y-58521203D01*
X204775114Y-58521203D02*
X204917971Y-58449774D01*
X204917971Y-58449774D02*
X205203685Y-58378346D01*
X205203685Y-58378346D02*
X205417971Y-58378346D01*
X205417971Y-58378346D02*
X205703685Y-58449774D01*
X205703685Y-58449774D02*
X205846542Y-58521203D01*
X205846542Y-58521203D02*
X205989400Y-58664060D01*
X205989400Y-58664060D02*
X206060828Y-58878346D01*
X206060828Y-58878346D02*
X206060828Y-59235489D01*
X204703685Y-57806917D02*
X204632257Y-57735489D01*
X204632257Y-57735489D02*
X204560828Y-57592632D01*
X204560828Y-57592632D02*
X204560828Y-57235489D01*
X204560828Y-57235489D02*
X204632257Y-57092632D01*
X204632257Y-57092632D02*
X204703685Y-57021203D01*
X204703685Y-57021203D02*
X204846542Y-56949774D01*
X204846542Y-56949774D02*
X204989400Y-56949774D01*
X204989400Y-56949774D02*
X205203685Y-57021203D01*
X205203685Y-57021203D02*
X206060828Y-57878346D01*
X206060828Y-57878346D02*
X206060828Y-56949774D01*
X206040828Y-48415489D02*
X204540828Y-48415489D01*
X204540828Y-48415489D02*
X204540828Y-48058346D01*
X204540828Y-48058346D02*
X204612257Y-47844060D01*
X204612257Y-47844060D02*
X204755114Y-47701203D01*
X204755114Y-47701203D02*
X204897971Y-47629774D01*
X204897971Y-47629774D02*
X205183685Y-47558346D01*
X205183685Y-47558346D02*
X205397971Y-47558346D01*
X205397971Y-47558346D02*
X205683685Y-47629774D01*
X205683685Y-47629774D02*
X205826542Y-47701203D01*
X205826542Y-47701203D02*
X205969400Y-47844060D01*
X205969400Y-47844060D02*
X206040828Y-48058346D01*
X206040828Y-48058346D02*
X206040828Y-48415489D01*
X206040828Y-46129774D02*
X206040828Y-46986917D01*
X206040828Y-46558346D02*
X204540828Y-46558346D01*
X204540828Y-46558346D02*
X204755114Y-46701203D01*
X204755114Y-46701203D02*
X204897971Y-46844060D01*
X204897971Y-46844060D02*
X204969400Y-46986917D01*
X206010828Y-37495489D02*
X204510828Y-37495489D01*
X204510828Y-37495489D02*
X204510828Y-37138346D01*
X204510828Y-37138346D02*
X204582257Y-36924060D01*
X204582257Y-36924060D02*
X204725114Y-36781203D01*
X204725114Y-36781203D02*
X204867971Y-36709774D01*
X204867971Y-36709774D02*
X205153685Y-36638346D01*
X205153685Y-36638346D02*
X205367971Y-36638346D01*
X205367971Y-36638346D02*
X205653685Y-36709774D01*
X205653685Y-36709774D02*
X205796542Y-36781203D01*
X205796542Y-36781203D02*
X205939400Y-36924060D01*
X205939400Y-36924060D02*
X206010828Y-37138346D01*
X206010828Y-37138346D02*
X206010828Y-37495489D01*
X204510828Y-35709774D02*
X204510828Y-35566917D01*
X204510828Y-35566917D02*
X204582257Y-35424060D01*
X204582257Y-35424060D02*
X204653685Y-35352632D01*
X204653685Y-35352632D02*
X204796542Y-35281203D01*
X204796542Y-35281203D02*
X205082257Y-35209774D01*
X205082257Y-35209774D02*
X205439400Y-35209774D01*
X205439400Y-35209774D02*
X205725114Y-35281203D01*
X205725114Y-35281203D02*
X205867971Y-35352632D01*
X205867971Y-35352632D02*
X205939400Y-35424060D01*
X205939400Y-35424060D02*
X206010828Y-35566917D01*
X206010828Y-35566917D02*
X206010828Y-35709774D01*
X206010828Y-35709774D02*
X205939400Y-35852632D01*
X205939400Y-35852632D02*
X205867971Y-35924060D01*
X205867971Y-35924060D02*
X205725114Y-35995489D01*
X205725114Y-35995489D02*
X205439400Y-36066917D01*
X205439400Y-36066917D02*
X205082257Y-36066917D01*
X205082257Y-36066917D02*
X204796542Y-35995489D01*
X204796542Y-35995489D02*
X204653685Y-35924060D01*
X204653685Y-35924060D02*
X204582257Y-35852632D01*
X204582257Y-35852632D02*
X204510828Y-35709774D01*
X173160828Y-49888346D02*
X172446542Y-50388346D01*
X173160828Y-50745489D02*
X171660828Y-50745489D01*
X171660828Y-50745489D02*
X171660828Y-50174060D01*
X171660828Y-50174060D02*
X171732257Y-50031203D01*
X171732257Y-50031203D02*
X171803685Y-49959774D01*
X171803685Y-49959774D02*
X171946542Y-49888346D01*
X171946542Y-49888346D02*
X172160828Y-49888346D01*
X172160828Y-49888346D02*
X172303685Y-49959774D01*
X172303685Y-49959774D02*
X172375114Y-50031203D01*
X172375114Y-50031203D02*
X172446542Y-50174060D01*
X172446542Y-50174060D02*
X172446542Y-50745489D01*
X171803685Y-49316917D02*
X171732257Y-49245489D01*
X171732257Y-49245489D02*
X171660828Y-49102632D01*
X171660828Y-49102632D02*
X171660828Y-48745489D01*
X171660828Y-48745489D02*
X171732257Y-48602632D01*
X171732257Y-48602632D02*
X171803685Y-48531203D01*
X171803685Y-48531203D02*
X171946542Y-48459774D01*
X171946542Y-48459774D02*
X172089400Y-48459774D01*
X172089400Y-48459774D02*
X172303685Y-48531203D01*
X172303685Y-48531203D02*
X173160828Y-49388346D01*
X173160828Y-49388346D02*
X173160828Y-48459774D01*
X179258346Y-66889171D02*
X179758346Y-67603457D01*
X180115489Y-66889171D02*
X180115489Y-68389171D01*
X180115489Y-68389171D02*
X179544060Y-68389171D01*
X179544060Y-68389171D02*
X179401203Y-68317742D01*
X179401203Y-68317742D02*
X179329774Y-68246314D01*
X179329774Y-68246314D02*
X179258346Y-68103457D01*
X179258346Y-68103457D02*
X179258346Y-67889171D01*
X179258346Y-67889171D02*
X179329774Y-67746314D01*
X179329774Y-67746314D02*
X179401203Y-67674885D01*
X179401203Y-67674885D02*
X179544060Y-67603457D01*
X179544060Y-67603457D02*
X180115489Y-67603457D01*
X177829774Y-66889171D02*
X178686917Y-66889171D01*
X178258346Y-66889171D02*
X178258346Y-68389171D01*
X178258346Y-68389171D02*
X178401203Y-68174885D01*
X178401203Y-68174885D02*
X178544060Y-68032028D01*
X178544060Y-68032028D02*
X178686917Y-67960600D01*
X176901203Y-68389171D02*
X176758346Y-68389171D01*
X176758346Y-68389171D02*
X176615489Y-68317742D01*
X176615489Y-68317742D02*
X176544061Y-68246314D01*
X176544061Y-68246314D02*
X176472632Y-68103457D01*
X176472632Y-68103457D02*
X176401203Y-67817742D01*
X176401203Y-67817742D02*
X176401203Y-67460600D01*
X176401203Y-67460600D02*
X176472632Y-67174885D01*
X176472632Y-67174885D02*
X176544061Y-67032028D01*
X176544061Y-67032028D02*
X176615489Y-66960600D01*
X176615489Y-66960600D02*
X176758346Y-66889171D01*
X176758346Y-66889171D02*
X176901203Y-66889171D01*
X176901203Y-66889171D02*
X177044061Y-66960600D01*
X177044061Y-66960600D02*
X177115489Y-67032028D01*
X177115489Y-67032028D02*
X177186918Y-67174885D01*
X177186918Y-67174885D02*
X177258346Y-67460600D01*
X177258346Y-67460600D02*
X177258346Y-67817742D01*
X177258346Y-67817742D02*
X177186918Y-68103457D01*
X177186918Y-68103457D02*
X177115489Y-68246314D01*
X177115489Y-68246314D02*
X177044061Y-68317742D01*
X177044061Y-68317742D02*
X176901203Y-68389171D01*
X178408346Y-74209171D02*
X178908346Y-74923457D01*
X179265489Y-74209171D02*
X179265489Y-75709171D01*
X179265489Y-75709171D02*
X178694060Y-75709171D01*
X178694060Y-75709171D02*
X178551203Y-75637742D01*
X178551203Y-75637742D02*
X178479774Y-75566314D01*
X178479774Y-75566314D02*
X178408346Y-75423457D01*
X178408346Y-75423457D02*
X178408346Y-75209171D01*
X178408346Y-75209171D02*
X178479774Y-75066314D01*
X178479774Y-75066314D02*
X178551203Y-74994885D01*
X178551203Y-74994885D02*
X178694060Y-74923457D01*
X178694060Y-74923457D02*
X179265489Y-74923457D01*
X177694060Y-74209171D02*
X177408346Y-74209171D01*
X177408346Y-74209171D02*
X177265489Y-74280600D01*
X177265489Y-74280600D02*
X177194060Y-74352028D01*
X177194060Y-74352028D02*
X177051203Y-74566314D01*
X177051203Y-74566314D02*
X176979774Y-74852028D01*
X176979774Y-74852028D02*
X176979774Y-75423457D01*
X176979774Y-75423457D02*
X177051203Y-75566314D01*
X177051203Y-75566314D02*
X177122632Y-75637742D01*
X177122632Y-75637742D02*
X177265489Y-75709171D01*
X177265489Y-75709171D02*
X177551203Y-75709171D01*
X177551203Y-75709171D02*
X177694060Y-75637742D01*
X177694060Y-75637742D02*
X177765489Y-75566314D01*
X177765489Y-75566314D02*
X177836917Y-75423457D01*
X177836917Y-75423457D02*
X177836917Y-75066314D01*
X177836917Y-75066314D02*
X177765489Y-74923457D01*
X177765489Y-74923457D02*
X177694060Y-74852028D01*
X177694060Y-74852028D02*
X177551203Y-74780600D01*
X177551203Y-74780600D02*
X177265489Y-74780600D01*
X177265489Y-74780600D02*
X177122632Y-74852028D01*
X177122632Y-74852028D02*
X177051203Y-74923457D01*
X177051203Y-74923457D02*
X176979774Y-75066314D01*
X76590828Y-33499774D02*
X76590828Y-33356917D01*
X76590828Y-33356917D02*
X76662257Y-33214060D01*
X76662257Y-33214060D02*
X76733685Y-33142632D01*
X76733685Y-33142632D02*
X76876542Y-33071203D01*
X76876542Y-33071203D02*
X77162257Y-32999774D01*
X77162257Y-32999774D02*
X77519400Y-32999774D01*
X77519400Y-32999774D02*
X77805114Y-33071203D01*
X77805114Y-33071203D02*
X77947971Y-33142632D01*
X77947971Y-33142632D02*
X78019400Y-33214060D01*
X78019400Y-33214060D02*
X78090828Y-33356917D01*
X78090828Y-33356917D02*
X78090828Y-33499774D01*
X78090828Y-33499774D02*
X78019400Y-33642632D01*
X78019400Y-33642632D02*
X77947971Y-33714060D01*
X77947971Y-33714060D02*
X77805114Y-33785489D01*
X77805114Y-33785489D02*
X77519400Y-33856917D01*
X77519400Y-33856917D02*
X77162257Y-33856917D01*
X77162257Y-33856917D02*
X76876542Y-33785489D01*
X76876542Y-33785489D02*
X76733685Y-33714060D01*
X76733685Y-33714060D02*
X76662257Y-33642632D01*
X76662257Y-33642632D02*
X76590828Y-33499774D01*
X78069400Y-68496917D02*
X78140828Y-68282632D01*
X78140828Y-68282632D02*
X78140828Y-67925489D01*
X78140828Y-67925489D02*
X78069400Y-67782632D01*
X78069400Y-67782632D02*
X77997971Y-67711203D01*
X77997971Y-67711203D02*
X77855114Y-67639774D01*
X77855114Y-67639774D02*
X77712257Y-67639774D01*
X77712257Y-67639774D02*
X77569400Y-67711203D01*
X77569400Y-67711203D02*
X77497971Y-67782632D01*
X77497971Y-67782632D02*
X77426542Y-67925489D01*
X77426542Y-67925489D02*
X77355114Y-68211203D01*
X77355114Y-68211203D02*
X77283685Y-68354060D01*
X77283685Y-68354060D02*
X77212257Y-68425489D01*
X77212257Y-68425489D02*
X77069400Y-68496917D01*
X77069400Y-68496917D02*
X76926542Y-68496917D01*
X76926542Y-68496917D02*
X76783685Y-68425489D01*
X76783685Y-68425489D02*
X76712257Y-68354060D01*
X76712257Y-68354060D02*
X76640828Y-68211203D01*
X76640828Y-68211203D02*
X76640828Y-67854060D01*
X76640828Y-67854060D02*
X76712257Y-67639774D01*
X77375114Y-75585489D02*
X77375114Y-76085489D01*
X78160828Y-76085489D02*
X76660828Y-76085489D01*
X76660828Y-76085489D02*
X76660828Y-75371203D01*
X78160828Y-74014060D02*
X78160828Y-74871203D01*
X78160828Y-74442632D02*
X76660828Y-74442632D01*
X76660828Y-74442632D02*
X76875114Y-74585489D01*
X76875114Y-74585489D02*
X77017971Y-74728346D01*
X77017971Y-74728346D02*
X77089400Y-74871203D01*
X77385114Y-79495489D02*
X77385114Y-79995489D01*
X78170828Y-79995489D02*
X76670828Y-79995489D01*
X76670828Y-79995489D02*
X76670828Y-79281203D01*
X76813685Y-78781203D02*
X76742257Y-78709775D01*
X76742257Y-78709775D02*
X76670828Y-78566918D01*
X76670828Y-78566918D02*
X76670828Y-78209775D01*
X76670828Y-78209775D02*
X76742257Y-78066918D01*
X76742257Y-78066918D02*
X76813685Y-77995489D01*
X76813685Y-77995489D02*
X76956542Y-77924060D01*
X76956542Y-77924060D02*
X77099400Y-77924060D01*
X77099400Y-77924060D02*
X77313685Y-77995489D01*
X77313685Y-77995489D02*
X78170828Y-78852632D01*
X78170828Y-78852632D02*
X78170828Y-77924060D01*
X77365114Y-71825489D02*
X77365114Y-72325489D01*
X78150828Y-72325489D02*
X76650828Y-72325489D01*
X76650828Y-72325489D02*
X76650828Y-71611203D01*
X76650828Y-70754060D02*
X76650828Y-70468346D01*
X76650828Y-70468346D02*
X76722257Y-70325489D01*
X76722257Y-70325489D02*
X76865114Y-70182632D01*
X76865114Y-70182632D02*
X77150828Y-70111203D01*
X77150828Y-70111203D02*
X77650828Y-70111203D01*
X77650828Y-70111203D02*
X77936542Y-70182632D01*
X77936542Y-70182632D02*
X78079400Y-70325489D01*
X78079400Y-70325489D02*
X78150828Y-70468346D01*
X78150828Y-70468346D02*
X78150828Y-70754060D01*
X78150828Y-70754060D02*
X78079400Y-70896918D01*
X78079400Y-70896918D02*
X77936542Y-71039775D01*
X77936542Y-71039775D02*
X77650828Y-71111203D01*
X77650828Y-71111203D02*
X77150828Y-71111203D01*
X77150828Y-71111203D02*
X76865114Y-71039775D01*
X76865114Y-71039775D02*
X76722257Y-70896918D01*
X76722257Y-70896918D02*
X76650828Y-70754060D01*
X78120828Y-37129774D02*
X78120828Y-37986917D01*
X78120828Y-37558346D02*
X76620828Y-37558346D01*
X76620828Y-37558346D02*
X76835114Y-37701203D01*
X76835114Y-37701203D02*
X76977971Y-37844060D01*
X76977971Y-37844060D02*
X77049400Y-37986917D01*
X76773685Y-41756917D02*
X76702257Y-41685489D01*
X76702257Y-41685489D02*
X76630828Y-41542632D01*
X76630828Y-41542632D02*
X76630828Y-41185489D01*
X76630828Y-41185489D02*
X76702257Y-41042632D01*
X76702257Y-41042632D02*
X76773685Y-40971203D01*
X76773685Y-40971203D02*
X76916542Y-40899774D01*
X76916542Y-40899774D02*
X77059400Y-40899774D01*
X77059400Y-40899774D02*
X77273685Y-40971203D01*
X77273685Y-40971203D02*
X78130828Y-41828346D01*
X78130828Y-41828346D02*
X78130828Y-40899774D01*
X76630828Y-46278346D02*
X76630828Y-45349774D01*
X76630828Y-45349774D02*
X77202257Y-45849774D01*
X77202257Y-45849774D02*
X77202257Y-45635489D01*
X77202257Y-45635489D02*
X77273685Y-45492632D01*
X77273685Y-45492632D02*
X77345114Y-45421203D01*
X77345114Y-45421203D02*
X77487971Y-45349774D01*
X77487971Y-45349774D02*
X77845114Y-45349774D01*
X77845114Y-45349774D02*
X77987971Y-45421203D01*
X77987971Y-45421203D02*
X78059400Y-45492632D01*
X78059400Y-45492632D02*
X78130828Y-45635489D01*
X78130828Y-45635489D02*
X78130828Y-46064060D01*
X78130828Y-46064060D02*
X78059400Y-46206917D01*
X78059400Y-46206917D02*
X77987971Y-46278346D01*
X77140828Y-49562632D02*
X78140828Y-49562632D01*
X76569400Y-49919774D02*
X77640828Y-50276917D01*
X77640828Y-50276917D02*
X77640828Y-49348346D01*
X76660828Y-53711203D02*
X76660828Y-54425489D01*
X76660828Y-54425489D02*
X77375114Y-54496917D01*
X77375114Y-54496917D02*
X77303685Y-54425489D01*
X77303685Y-54425489D02*
X77232257Y-54282632D01*
X77232257Y-54282632D02*
X77232257Y-53925489D01*
X77232257Y-53925489D02*
X77303685Y-53782632D01*
X77303685Y-53782632D02*
X77375114Y-53711203D01*
X77375114Y-53711203D02*
X77517971Y-53639774D01*
X77517971Y-53639774D02*
X77875114Y-53639774D01*
X77875114Y-53639774D02*
X78017971Y-53711203D01*
X78017971Y-53711203D02*
X78089400Y-53782632D01*
X78089400Y-53782632D02*
X78160828Y-53925489D01*
X78160828Y-53925489D02*
X78160828Y-54282632D01*
X78160828Y-54282632D02*
X78089400Y-54425489D01*
X78089400Y-54425489D02*
X78017971Y-54496917D01*
X76640828Y-57622632D02*
X76640828Y-57908346D01*
X76640828Y-57908346D02*
X76712257Y-58051203D01*
X76712257Y-58051203D02*
X76783685Y-58122632D01*
X76783685Y-58122632D02*
X76997971Y-58265489D01*
X76997971Y-58265489D02*
X77283685Y-58336917D01*
X77283685Y-58336917D02*
X77855114Y-58336917D01*
X77855114Y-58336917D02*
X77997971Y-58265489D01*
X77997971Y-58265489D02*
X78069400Y-58194060D01*
X78069400Y-58194060D02*
X78140828Y-58051203D01*
X78140828Y-58051203D02*
X78140828Y-57765489D01*
X78140828Y-57765489D02*
X78069400Y-57622632D01*
X78069400Y-57622632D02*
X77997971Y-57551203D01*
X77997971Y-57551203D02*
X77855114Y-57479774D01*
X77855114Y-57479774D02*
X77497971Y-57479774D01*
X77497971Y-57479774D02*
X77355114Y-57551203D01*
X77355114Y-57551203D02*
X77283685Y-57622632D01*
X77283685Y-57622632D02*
X77212257Y-57765489D01*
X77212257Y-57765489D02*
X77212257Y-58051203D01*
X77212257Y-58051203D02*
X77283685Y-58194060D01*
X77283685Y-58194060D02*
X77355114Y-58265489D01*
X77355114Y-58265489D02*
X77497971Y-58336917D01*
X76650828Y-61858346D02*
X76650828Y-60858346D01*
X76650828Y-60858346D02*
X78150828Y-61501203D01*
X76670828Y-86499774D02*
X76670828Y-86356917D01*
X76670828Y-86356917D02*
X76742257Y-86214060D01*
X76742257Y-86214060D02*
X76813685Y-86142632D01*
X76813685Y-86142632D02*
X76956542Y-86071203D01*
X76956542Y-86071203D02*
X77242257Y-85999774D01*
X77242257Y-85999774D02*
X77599400Y-85999774D01*
X77599400Y-85999774D02*
X77885114Y-86071203D01*
X77885114Y-86071203D02*
X78027971Y-86142632D01*
X78027971Y-86142632D02*
X78099400Y-86214060D01*
X78099400Y-86214060D02*
X78170828Y-86356917D01*
X78170828Y-86356917D02*
X78170828Y-86499774D01*
X78170828Y-86499774D02*
X78099400Y-86642632D01*
X78099400Y-86642632D02*
X78027971Y-86714060D01*
X78027971Y-86714060D02*
X77885114Y-86785489D01*
X77885114Y-86785489D02*
X77599400Y-86856917D01*
X77599400Y-86856917D02*
X77242257Y-86856917D01*
X77242257Y-86856917D02*
X76956542Y-86785489D01*
X76956542Y-86785489D02*
X76813685Y-86714060D01*
X76813685Y-86714060D02*
X76742257Y-86642632D01*
X76742257Y-86642632D02*
X76670828Y-86499774D01*
X78180828Y-89739774D02*
X78180828Y-90596917D01*
X78180828Y-90168346D02*
X76680828Y-90168346D01*
X76680828Y-90168346D02*
X76895114Y-90311203D01*
X76895114Y-90311203D02*
X77037971Y-90454060D01*
X77037971Y-90454060D02*
X77109400Y-90596917D01*
X76833685Y-94416917D02*
X76762257Y-94345489D01*
X76762257Y-94345489D02*
X76690828Y-94202632D01*
X76690828Y-94202632D02*
X76690828Y-93845489D01*
X76690828Y-93845489D02*
X76762257Y-93702632D01*
X76762257Y-93702632D02*
X76833685Y-93631203D01*
X76833685Y-93631203D02*
X76976542Y-93559774D01*
X76976542Y-93559774D02*
X77119400Y-93559774D01*
X77119400Y-93559774D02*
X77333685Y-93631203D01*
X77333685Y-93631203D02*
X78190828Y-94488346D01*
X78190828Y-94488346D02*
X78190828Y-93559774D01*
X76670828Y-97998346D02*
X76670828Y-97069774D01*
X76670828Y-97069774D02*
X77242257Y-97569774D01*
X77242257Y-97569774D02*
X77242257Y-97355489D01*
X77242257Y-97355489D02*
X77313685Y-97212632D01*
X77313685Y-97212632D02*
X77385114Y-97141203D01*
X77385114Y-97141203D02*
X77527971Y-97069774D01*
X77527971Y-97069774D02*
X77885114Y-97069774D01*
X77885114Y-97069774D02*
X78027971Y-97141203D01*
X78027971Y-97141203D02*
X78099400Y-97212632D01*
X78099400Y-97212632D02*
X78170828Y-97355489D01*
X78170828Y-97355489D02*
X78170828Y-97784060D01*
X78170828Y-97784060D02*
X78099400Y-97926917D01*
X78099400Y-97926917D02*
X78027971Y-97998346D01*
X77190828Y-101042632D02*
X78190828Y-101042632D01*
X76619400Y-101399774D02*
X77690828Y-101756917D01*
X77690828Y-101756917D02*
X77690828Y-100828346D01*
X76690828Y-104661203D02*
X76690828Y-105375489D01*
X76690828Y-105375489D02*
X77405114Y-105446917D01*
X77405114Y-105446917D02*
X77333685Y-105375489D01*
X77333685Y-105375489D02*
X77262257Y-105232632D01*
X77262257Y-105232632D02*
X77262257Y-104875489D01*
X77262257Y-104875489D02*
X77333685Y-104732632D01*
X77333685Y-104732632D02*
X77405114Y-104661203D01*
X77405114Y-104661203D02*
X77547971Y-104589774D01*
X77547971Y-104589774D02*
X77905114Y-104589774D01*
X77905114Y-104589774D02*
X78047971Y-104661203D01*
X78047971Y-104661203D02*
X78119400Y-104732632D01*
X78119400Y-104732632D02*
X78190828Y-104875489D01*
X78190828Y-104875489D02*
X78190828Y-105232632D01*
X78190828Y-105232632D02*
X78119400Y-105375489D01*
X78119400Y-105375489D02*
X78047971Y-105446917D01*
X76690828Y-108502632D02*
X76690828Y-108788346D01*
X76690828Y-108788346D02*
X76762257Y-108931203D01*
X76762257Y-108931203D02*
X76833685Y-109002632D01*
X76833685Y-109002632D02*
X77047971Y-109145489D01*
X77047971Y-109145489D02*
X77333685Y-109216917D01*
X77333685Y-109216917D02*
X77905114Y-109216917D01*
X77905114Y-109216917D02*
X78047971Y-109145489D01*
X78047971Y-109145489D02*
X78119400Y-109074060D01*
X78119400Y-109074060D02*
X78190828Y-108931203D01*
X78190828Y-108931203D02*
X78190828Y-108645489D01*
X78190828Y-108645489D02*
X78119400Y-108502632D01*
X78119400Y-108502632D02*
X78047971Y-108431203D01*
X78047971Y-108431203D02*
X77905114Y-108359774D01*
X77905114Y-108359774D02*
X77547971Y-108359774D01*
X77547971Y-108359774D02*
X77405114Y-108431203D01*
X77405114Y-108431203D02*
X77333685Y-108502632D01*
X77333685Y-108502632D02*
X77262257Y-108645489D01*
X77262257Y-108645489D02*
X77262257Y-108931203D01*
X77262257Y-108931203D02*
X77333685Y-109074060D01*
X77333685Y-109074060D02*
X77405114Y-109145489D01*
X77405114Y-109145489D02*
X77547971Y-109216917D01*
X76700828Y-113098346D02*
X76700828Y-112098346D01*
X76700828Y-112098346D02*
X78200828Y-112741203D01*
X77343685Y-116481203D02*
X77272257Y-116624060D01*
X77272257Y-116624060D02*
X77200828Y-116695489D01*
X77200828Y-116695489D02*
X77057971Y-116766917D01*
X77057971Y-116766917D02*
X76986542Y-116766917D01*
X76986542Y-116766917D02*
X76843685Y-116695489D01*
X76843685Y-116695489D02*
X76772257Y-116624060D01*
X76772257Y-116624060D02*
X76700828Y-116481203D01*
X76700828Y-116481203D02*
X76700828Y-116195489D01*
X76700828Y-116195489D02*
X76772257Y-116052632D01*
X76772257Y-116052632D02*
X76843685Y-115981203D01*
X76843685Y-115981203D02*
X76986542Y-115909774D01*
X76986542Y-115909774D02*
X77057971Y-115909774D01*
X77057971Y-115909774D02*
X77200828Y-115981203D01*
X77200828Y-115981203D02*
X77272257Y-116052632D01*
X77272257Y-116052632D02*
X77343685Y-116195489D01*
X77343685Y-116195489D02*
X77343685Y-116481203D01*
X77343685Y-116481203D02*
X77415114Y-116624060D01*
X77415114Y-116624060D02*
X77486542Y-116695489D01*
X77486542Y-116695489D02*
X77629400Y-116766917D01*
X77629400Y-116766917D02*
X77915114Y-116766917D01*
X77915114Y-116766917D02*
X78057971Y-116695489D01*
X78057971Y-116695489D02*
X78129400Y-116624060D01*
X78129400Y-116624060D02*
X78200828Y-116481203D01*
X78200828Y-116481203D02*
X78200828Y-116195489D01*
X78200828Y-116195489D02*
X78129400Y-116052632D01*
X78129400Y-116052632D02*
X78057971Y-115981203D01*
X78057971Y-115981203D02*
X77915114Y-115909774D01*
X77915114Y-115909774D02*
X77629400Y-115909774D01*
X77629400Y-115909774D02*
X77486542Y-115981203D01*
X77486542Y-115981203D02*
X77415114Y-116052632D01*
X77415114Y-116052632D02*
X77343685Y-116195489D01*
X78200828Y-120384060D02*
X78200828Y-120098346D01*
X78200828Y-120098346D02*
X78129400Y-119955489D01*
X78129400Y-119955489D02*
X78057971Y-119884060D01*
X78057971Y-119884060D02*
X77843685Y-119741203D01*
X77843685Y-119741203D02*
X77557971Y-119669774D01*
X77557971Y-119669774D02*
X76986542Y-119669774D01*
X76986542Y-119669774D02*
X76843685Y-119741203D01*
X76843685Y-119741203D02*
X76772257Y-119812632D01*
X76772257Y-119812632D02*
X76700828Y-119955489D01*
X76700828Y-119955489D02*
X76700828Y-120241203D01*
X76700828Y-120241203D02*
X76772257Y-120384060D01*
X76772257Y-120384060D02*
X76843685Y-120455489D01*
X76843685Y-120455489D02*
X76986542Y-120526917D01*
X76986542Y-120526917D02*
X77343685Y-120526917D01*
X77343685Y-120526917D02*
X77486542Y-120455489D01*
X77486542Y-120455489D02*
X77557971Y-120384060D01*
X77557971Y-120384060D02*
X77629400Y-120241203D01*
X77629400Y-120241203D02*
X77629400Y-119955489D01*
X77629400Y-119955489D02*
X77557971Y-119812632D01*
X77557971Y-119812632D02*
X77486542Y-119741203D01*
X77486542Y-119741203D02*
X77343685Y-119669774D01*
X78200828Y-124639774D02*
X78200828Y-125496917D01*
X78200828Y-125068346D02*
X76700828Y-125068346D01*
X76700828Y-125068346D02*
X76915114Y-125211203D01*
X76915114Y-125211203D02*
X77057971Y-125354060D01*
X77057971Y-125354060D02*
X77129400Y-125496917D01*
X76700828Y-123711203D02*
X76700828Y-123568346D01*
X76700828Y-123568346D02*
X76772257Y-123425489D01*
X76772257Y-123425489D02*
X76843685Y-123354061D01*
X76843685Y-123354061D02*
X76986542Y-123282632D01*
X76986542Y-123282632D02*
X77272257Y-123211203D01*
X77272257Y-123211203D02*
X77629400Y-123211203D01*
X77629400Y-123211203D02*
X77915114Y-123282632D01*
X77915114Y-123282632D02*
X78057971Y-123354061D01*
X78057971Y-123354061D02*
X78129400Y-123425489D01*
X78129400Y-123425489D02*
X78200828Y-123568346D01*
X78200828Y-123568346D02*
X78200828Y-123711203D01*
X78200828Y-123711203D02*
X78129400Y-123854061D01*
X78129400Y-123854061D02*
X78057971Y-123925489D01*
X78057971Y-123925489D02*
X77915114Y-123996918D01*
X77915114Y-123996918D02*
X77629400Y-124068346D01*
X77629400Y-124068346D02*
X77272257Y-124068346D01*
X77272257Y-124068346D02*
X76986542Y-123996918D01*
X76986542Y-123996918D02*
X76843685Y-123925489D01*
X76843685Y-123925489D02*
X76772257Y-123854061D01*
X76772257Y-123854061D02*
X76700828Y-123711203D01*
X78190828Y-129359774D02*
X78190828Y-130216917D01*
X78190828Y-129788346D02*
X76690828Y-129788346D01*
X76690828Y-129788346D02*
X76905114Y-129931203D01*
X76905114Y-129931203D02*
X77047971Y-130074060D01*
X77047971Y-130074060D02*
X77119400Y-130216917D01*
X78190828Y-127931203D02*
X78190828Y-128788346D01*
X78190828Y-128359775D02*
X76690828Y-128359775D01*
X76690828Y-128359775D02*
X76905114Y-128502632D01*
X76905114Y-128502632D02*
X77047971Y-128645489D01*
X77047971Y-128645489D02*
X77119400Y-128788346D01*
D11*
X137313826Y-133176163D02*
X144917041Y-133098220D01*
X137321921Y-129640062D02*
X144860056Y-129684552D01*
X144870056Y-129698619D02*
G75*
G02*
X145005099Y-133098220I89995J-1698908D01*
G01*
X137313826Y-133176164D02*
G75*
G02*
X137300524Y-129650125I-60000J1762818D01*
G01*
D10*
X156850828Y-75465489D02*
X155350828Y-75465489D01*
X155350828Y-75465489D02*
X155350828Y-75108346D01*
X155350828Y-75108346D02*
X155422257Y-74894060D01*
X155422257Y-74894060D02*
X155565114Y-74751203D01*
X155565114Y-74751203D02*
X155707971Y-74679774D01*
X155707971Y-74679774D02*
X155993685Y-74608346D01*
X155993685Y-74608346D02*
X156207971Y-74608346D01*
X156207971Y-74608346D02*
X156493685Y-74679774D01*
X156493685Y-74679774D02*
X156636542Y-74751203D01*
X156636542Y-74751203D02*
X156779400Y-74894060D01*
X156779400Y-74894060D02*
X156850828Y-75108346D01*
X156850828Y-75108346D02*
X156850828Y-75465489D01*
X156422257Y-74036917D02*
X156422257Y-73322632D01*
X156850828Y-74179774D02*
X155350828Y-73679774D01*
X155350828Y-73679774D02*
X156850828Y-73179774D01*
X155350828Y-72894060D02*
X155350828Y-72036918D01*
X156850828Y-72465489D02*
X155350828Y-72465489D01*
X156422257Y-71608346D02*
X156422257Y-70894061D01*
X156850828Y-71751203D02*
X155350828Y-71251203D01*
X155350828Y-71251203D02*
X156850828Y-70751203D01*
X156065114Y-65179776D02*
X156136542Y-64965490D01*
X156136542Y-64965490D02*
X156207971Y-64894061D01*
X156207971Y-64894061D02*
X156350828Y-64822633D01*
X156350828Y-64822633D02*
X156565114Y-64822633D01*
X156565114Y-64822633D02*
X156707971Y-64894061D01*
X156707971Y-64894061D02*
X156779400Y-64965490D01*
X156779400Y-64965490D02*
X156850828Y-65108347D01*
X156850828Y-65108347D02*
X156850828Y-65679776D01*
X156850828Y-65679776D02*
X155350828Y-65679776D01*
X155350828Y-65679776D02*
X155350828Y-65179776D01*
X155350828Y-65179776D02*
X155422257Y-65036919D01*
X155422257Y-65036919D02*
X155493685Y-64965490D01*
X155493685Y-64965490D02*
X155636542Y-64894061D01*
X155636542Y-64894061D02*
X155779400Y-64894061D01*
X155779400Y-64894061D02*
X155922257Y-64965490D01*
X155922257Y-64965490D02*
X155993685Y-65036919D01*
X155993685Y-65036919D02*
X156065114Y-65179776D01*
X156065114Y-65179776D02*
X156065114Y-65679776D01*
X155350828Y-64179776D02*
X156565114Y-64179776D01*
X156565114Y-64179776D02*
X156707971Y-64108347D01*
X156707971Y-64108347D02*
X156779400Y-64036919D01*
X156779400Y-64036919D02*
X156850828Y-63894061D01*
X156850828Y-63894061D02*
X156850828Y-63608347D01*
X156850828Y-63608347D02*
X156779400Y-63465490D01*
X156779400Y-63465490D02*
X156707971Y-63394061D01*
X156707971Y-63394061D02*
X156565114Y-63322633D01*
X156565114Y-63322633D02*
X155350828Y-63322633D01*
X156779400Y-62679775D02*
X156850828Y-62465490D01*
X156850828Y-62465490D02*
X156850828Y-62108347D01*
X156850828Y-62108347D02*
X156779400Y-61965490D01*
X156779400Y-61965490D02*
X156707971Y-61894061D01*
X156707971Y-61894061D02*
X156565114Y-61822632D01*
X156565114Y-61822632D02*
X156422257Y-61822632D01*
X156422257Y-61822632D02*
X156279400Y-61894061D01*
X156279400Y-61894061D02*
X156207971Y-61965490D01*
X156207971Y-61965490D02*
X156136542Y-62108347D01*
X156136542Y-62108347D02*
X156065114Y-62394061D01*
X156065114Y-62394061D02*
X155993685Y-62536918D01*
X155993685Y-62536918D02*
X155922257Y-62608347D01*
X155922257Y-62608347D02*
X155779400Y-62679775D01*
X155779400Y-62679775D02*
X155636542Y-62679775D01*
X155636542Y-62679775D02*
X155493685Y-62608347D01*
X155493685Y-62608347D02*
X155422257Y-62536918D01*
X155422257Y-62536918D02*
X155350828Y-62394061D01*
X155350828Y-62394061D02*
X155350828Y-62036918D01*
X155350828Y-62036918D02*
X155422257Y-61822632D01*
X156432257Y-121046917D02*
X156432257Y-120332632D01*
X156860828Y-121189774D02*
X155360828Y-120689774D01*
X155360828Y-120689774D02*
X156860828Y-120189774D01*
X156860828Y-119689775D02*
X155360828Y-119689775D01*
X155360828Y-119689775D02*
X155360828Y-119332632D01*
X155360828Y-119332632D02*
X155432257Y-119118346D01*
X155432257Y-119118346D02*
X155575114Y-118975489D01*
X155575114Y-118975489D02*
X155717971Y-118904060D01*
X155717971Y-118904060D02*
X156003685Y-118832632D01*
X156003685Y-118832632D02*
X156217971Y-118832632D01*
X156217971Y-118832632D02*
X156503685Y-118904060D01*
X156503685Y-118904060D02*
X156646542Y-118975489D01*
X156646542Y-118975489D02*
X156789400Y-119118346D01*
X156789400Y-119118346D02*
X156860828Y-119332632D01*
X156860828Y-119332632D02*
X156860828Y-119689775D01*
X156860828Y-118189775D02*
X155360828Y-118189775D01*
X155360828Y-118189775D02*
X155360828Y-117832632D01*
X155360828Y-117832632D02*
X155432257Y-117618346D01*
X155432257Y-117618346D02*
X155575114Y-117475489D01*
X155575114Y-117475489D02*
X155717971Y-117404060D01*
X155717971Y-117404060D02*
X156003685Y-117332632D01*
X156003685Y-117332632D02*
X156217971Y-117332632D01*
X156217971Y-117332632D02*
X156503685Y-117404060D01*
X156503685Y-117404060D02*
X156646542Y-117475489D01*
X156646542Y-117475489D02*
X156789400Y-117618346D01*
X156789400Y-117618346D02*
X156860828Y-117832632D01*
X156860828Y-117832632D02*
X156860828Y-118189775D01*
X156860828Y-115832632D02*
X156146542Y-116332632D01*
X156860828Y-116689775D02*
X155360828Y-116689775D01*
X155360828Y-116689775D02*
X155360828Y-116118346D01*
X155360828Y-116118346D02*
X155432257Y-115975489D01*
X155432257Y-115975489D02*
X155503685Y-115904060D01*
X155503685Y-115904060D02*
X155646542Y-115832632D01*
X155646542Y-115832632D02*
X155860828Y-115832632D01*
X155860828Y-115832632D02*
X156003685Y-115904060D01*
X156003685Y-115904060D02*
X156075114Y-115975489D01*
X156075114Y-115975489D02*
X156146542Y-116118346D01*
X156146542Y-116118346D02*
X156146542Y-116689775D01*
X156075114Y-115189775D02*
X156075114Y-114689775D01*
X156860828Y-114475489D02*
X156860828Y-115189775D01*
X156860828Y-115189775D02*
X155360828Y-115189775D01*
X155360828Y-115189775D02*
X155360828Y-114475489D01*
X156789400Y-113904060D02*
X156860828Y-113689775D01*
X156860828Y-113689775D02*
X156860828Y-113332632D01*
X156860828Y-113332632D02*
X156789400Y-113189775D01*
X156789400Y-113189775D02*
X156717971Y-113118346D01*
X156717971Y-113118346D02*
X156575114Y-113046917D01*
X156575114Y-113046917D02*
X156432257Y-113046917D01*
X156432257Y-113046917D02*
X156289400Y-113118346D01*
X156289400Y-113118346D02*
X156217971Y-113189775D01*
X156217971Y-113189775D02*
X156146542Y-113332632D01*
X156146542Y-113332632D02*
X156075114Y-113618346D01*
X156075114Y-113618346D02*
X156003685Y-113761203D01*
X156003685Y-113761203D02*
X155932257Y-113832632D01*
X155932257Y-113832632D02*
X155789400Y-113904060D01*
X155789400Y-113904060D02*
X155646542Y-113904060D01*
X155646542Y-113904060D02*
X155503685Y-113832632D01*
X155503685Y-113832632D02*
X155432257Y-113761203D01*
X155432257Y-113761203D02*
X155360828Y-113618346D01*
X155360828Y-113618346D02*
X155360828Y-113261203D01*
X155360828Y-113261203D02*
X155432257Y-113046917D01*
X156789400Y-112475489D02*
X156860828Y-112261204D01*
X156860828Y-112261204D02*
X156860828Y-111904061D01*
X156860828Y-111904061D02*
X156789400Y-111761204D01*
X156789400Y-111761204D02*
X156717971Y-111689775D01*
X156717971Y-111689775D02*
X156575114Y-111618346D01*
X156575114Y-111618346D02*
X156432257Y-111618346D01*
X156432257Y-111618346D02*
X156289400Y-111689775D01*
X156289400Y-111689775D02*
X156217971Y-111761204D01*
X156217971Y-111761204D02*
X156146542Y-111904061D01*
X156146542Y-111904061D02*
X156075114Y-112189775D01*
X156075114Y-112189775D02*
X156003685Y-112332632D01*
X156003685Y-112332632D02*
X155932257Y-112404061D01*
X155932257Y-112404061D02*
X155789400Y-112475489D01*
X155789400Y-112475489D02*
X155646542Y-112475489D01*
X155646542Y-112475489D02*
X155503685Y-112404061D01*
X155503685Y-112404061D02*
X155432257Y-112332632D01*
X155432257Y-112332632D02*
X155360828Y-112189775D01*
X155360828Y-112189775D02*
X155360828Y-111832632D01*
X155360828Y-111832632D02*
X155432257Y-111618346D01*
X156075114Y-105904062D02*
X156146542Y-105689776D01*
X156146542Y-105689776D02*
X156217971Y-105618347D01*
X156217971Y-105618347D02*
X156360828Y-105546919D01*
X156360828Y-105546919D02*
X156575114Y-105546919D01*
X156575114Y-105546919D02*
X156717971Y-105618347D01*
X156717971Y-105618347D02*
X156789400Y-105689776D01*
X156789400Y-105689776D02*
X156860828Y-105832633D01*
X156860828Y-105832633D02*
X156860828Y-106404062D01*
X156860828Y-106404062D02*
X155360828Y-106404062D01*
X155360828Y-106404062D02*
X155360828Y-105904062D01*
X155360828Y-105904062D02*
X155432257Y-105761205D01*
X155432257Y-105761205D02*
X155503685Y-105689776D01*
X155503685Y-105689776D02*
X155646542Y-105618347D01*
X155646542Y-105618347D02*
X155789400Y-105618347D01*
X155789400Y-105618347D02*
X155932257Y-105689776D01*
X155932257Y-105689776D02*
X156003685Y-105761205D01*
X156003685Y-105761205D02*
X156075114Y-105904062D01*
X156075114Y-105904062D02*
X156075114Y-106404062D01*
X155360828Y-104904062D02*
X156575114Y-104904062D01*
X156575114Y-104904062D02*
X156717971Y-104832633D01*
X156717971Y-104832633D02*
X156789400Y-104761205D01*
X156789400Y-104761205D02*
X156860828Y-104618347D01*
X156860828Y-104618347D02*
X156860828Y-104332633D01*
X156860828Y-104332633D02*
X156789400Y-104189776D01*
X156789400Y-104189776D02*
X156717971Y-104118347D01*
X156717971Y-104118347D02*
X156575114Y-104046919D01*
X156575114Y-104046919D02*
X155360828Y-104046919D01*
X156789400Y-103404061D02*
X156860828Y-103189776D01*
X156860828Y-103189776D02*
X156860828Y-102832633D01*
X156860828Y-102832633D02*
X156789400Y-102689776D01*
X156789400Y-102689776D02*
X156717971Y-102618347D01*
X156717971Y-102618347D02*
X156575114Y-102546918D01*
X156575114Y-102546918D02*
X156432257Y-102546918D01*
X156432257Y-102546918D02*
X156289400Y-102618347D01*
X156289400Y-102618347D02*
X156217971Y-102689776D01*
X156217971Y-102689776D02*
X156146542Y-102832633D01*
X156146542Y-102832633D02*
X156075114Y-103118347D01*
X156075114Y-103118347D02*
X156003685Y-103261204D01*
X156003685Y-103261204D02*
X155932257Y-103332633D01*
X155932257Y-103332633D02*
X155789400Y-103404061D01*
X155789400Y-103404061D02*
X155646542Y-103404061D01*
X155646542Y-103404061D02*
X155503685Y-103332633D01*
X155503685Y-103332633D02*
X155432257Y-103261204D01*
X155432257Y-103261204D02*
X155360828Y-103118347D01*
X155360828Y-103118347D02*
X155360828Y-102761204D01*
X155360828Y-102761204D02*
X155432257Y-102546918D01*
X146776917Y-92790600D02*
X146562632Y-92719171D01*
X146562632Y-92719171D02*
X146205489Y-92719171D01*
X146205489Y-92719171D02*
X146062632Y-92790600D01*
X146062632Y-92790600D02*
X145991203Y-92862028D01*
X145991203Y-92862028D02*
X145919774Y-93004885D01*
X145919774Y-93004885D02*
X145919774Y-93147742D01*
X145919774Y-93147742D02*
X145991203Y-93290600D01*
X145991203Y-93290600D02*
X146062632Y-93362028D01*
X146062632Y-93362028D02*
X146205489Y-93433457D01*
X146205489Y-93433457D02*
X146491203Y-93504885D01*
X146491203Y-93504885D02*
X146634060Y-93576314D01*
X146634060Y-93576314D02*
X146705489Y-93647742D01*
X146705489Y-93647742D02*
X146776917Y-93790600D01*
X146776917Y-93790600D02*
X146776917Y-93933457D01*
X146776917Y-93933457D02*
X146705489Y-94076314D01*
X146705489Y-94076314D02*
X146634060Y-94147742D01*
X146634060Y-94147742D02*
X146491203Y-94219171D01*
X146491203Y-94219171D02*
X146134060Y-94219171D01*
X146134060Y-94219171D02*
X145919774Y-94147742D01*
X144991203Y-94219171D02*
X144705489Y-94219171D01*
X144705489Y-94219171D02*
X144562632Y-94147742D01*
X144562632Y-94147742D02*
X144419775Y-94004885D01*
X144419775Y-94004885D02*
X144348346Y-93719171D01*
X144348346Y-93719171D02*
X144348346Y-93219171D01*
X144348346Y-93219171D02*
X144419775Y-92933457D01*
X144419775Y-92933457D02*
X144562632Y-92790600D01*
X144562632Y-92790600D02*
X144705489Y-92719171D01*
X144705489Y-92719171D02*
X144991203Y-92719171D01*
X144991203Y-92719171D02*
X145134061Y-92790600D01*
X145134061Y-92790600D02*
X145276918Y-92933457D01*
X145276918Y-92933457D02*
X145348346Y-93219171D01*
X145348346Y-93219171D02*
X145348346Y-93719171D01*
X145348346Y-93719171D02*
X145276918Y-94004885D01*
X145276918Y-94004885D02*
X145134061Y-94147742D01*
X145134061Y-94147742D02*
X144991203Y-94219171D01*
X146556917Y-95210600D02*
X146342632Y-95139171D01*
X146342632Y-95139171D02*
X145985489Y-95139171D01*
X145985489Y-95139171D02*
X145842632Y-95210600D01*
X145842632Y-95210600D02*
X145771203Y-95282028D01*
X145771203Y-95282028D02*
X145699774Y-95424885D01*
X145699774Y-95424885D02*
X145699774Y-95567742D01*
X145699774Y-95567742D02*
X145771203Y-95710600D01*
X145771203Y-95710600D02*
X145842632Y-95782028D01*
X145842632Y-95782028D02*
X145985489Y-95853457D01*
X145985489Y-95853457D02*
X146271203Y-95924885D01*
X146271203Y-95924885D02*
X146414060Y-95996314D01*
X146414060Y-95996314D02*
X146485489Y-96067742D01*
X146485489Y-96067742D02*
X146556917Y-96210600D01*
X146556917Y-96210600D02*
X146556917Y-96353457D01*
X146556917Y-96353457D02*
X146485489Y-96496314D01*
X146485489Y-96496314D02*
X146414060Y-96567742D01*
X146414060Y-96567742D02*
X146271203Y-96639171D01*
X146271203Y-96639171D02*
X145914060Y-96639171D01*
X145914060Y-96639171D02*
X145699774Y-96567742D01*
X145056918Y-95139171D02*
X145056918Y-96639171D01*
X146308346Y-104882028D02*
X146379774Y-104810600D01*
X146379774Y-104810600D02*
X146594060Y-104739171D01*
X146594060Y-104739171D02*
X146736917Y-104739171D01*
X146736917Y-104739171D02*
X146951203Y-104810600D01*
X146951203Y-104810600D02*
X147094060Y-104953457D01*
X147094060Y-104953457D02*
X147165489Y-105096314D01*
X147165489Y-105096314D02*
X147236917Y-105382028D01*
X147236917Y-105382028D02*
X147236917Y-105596314D01*
X147236917Y-105596314D02*
X147165489Y-105882028D01*
X147165489Y-105882028D02*
X147094060Y-106024885D01*
X147094060Y-106024885D02*
X146951203Y-106167742D01*
X146951203Y-106167742D02*
X146736917Y-106239171D01*
X146736917Y-106239171D02*
X146594060Y-106239171D01*
X146594060Y-106239171D02*
X146379774Y-106167742D01*
X146379774Y-106167742D02*
X146308346Y-106096314D01*
X145665489Y-105524885D02*
X145165489Y-105524885D01*
X144951203Y-104739171D02*
X145665489Y-104739171D01*
X145665489Y-104739171D02*
X145665489Y-106239171D01*
X145665489Y-106239171D02*
X144951203Y-106239171D01*
X146326917Y-123807742D02*
X145612632Y-123807742D01*
X146469774Y-123379171D02*
X145969774Y-124879171D01*
X145969774Y-124879171D02*
X145469774Y-123379171D01*
X144184060Y-123379171D02*
X145041203Y-123379171D01*
X144612632Y-123379171D02*
X144612632Y-124879171D01*
X144612632Y-124879171D02*
X144755489Y-124664885D01*
X144755489Y-124664885D02*
X144898346Y-124522028D01*
X144898346Y-124522028D02*
X145041203Y-124450600D01*
X143612632Y-124736314D02*
X143541204Y-124807742D01*
X143541204Y-124807742D02*
X143398347Y-124879171D01*
X143398347Y-124879171D02*
X143041204Y-124879171D01*
X143041204Y-124879171D02*
X142898347Y-124807742D01*
X142898347Y-124807742D02*
X142826918Y-124736314D01*
X142826918Y-124736314D02*
X142755489Y-124593457D01*
X142755489Y-124593457D02*
X142755489Y-124450600D01*
X142755489Y-124450600D02*
X142826918Y-124236314D01*
X142826918Y-124236314D02*
X143684061Y-123379171D01*
X143684061Y-123379171D02*
X142755489Y-123379171D01*
X141518346Y-130752028D02*
X141589774Y-130680600D01*
X141589774Y-130680600D02*
X141804060Y-130609171D01*
X141804060Y-130609171D02*
X141946917Y-130609171D01*
X141946917Y-130609171D02*
X142161203Y-130680600D01*
X142161203Y-130680600D02*
X142304060Y-130823457D01*
X142304060Y-130823457D02*
X142375489Y-130966314D01*
X142375489Y-130966314D02*
X142446917Y-131252028D01*
X142446917Y-131252028D02*
X142446917Y-131466314D01*
X142446917Y-131466314D02*
X142375489Y-131752028D01*
X142375489Y-131752028D02*
X142304060Y-131894885D01*
X142304060Y-131894885D02*
X142161203Y-132037742D01*
X142161203Y-132037742D02*
X141946917Y-132109171D01*
X141946917Y-132109171D02*
X141804060Y-132109171D01*
X141804060Y-132109171D02*
X141589774Y-132037742D01*
X141589774Y-132037742D02*
X141518346Y-131966314D01*
X140232632Y-131609171D02*
X140232632Y-130609171D01*
X140589774Y-132180600D02*
X140946917Y-131109171D01*
X140946917Y-131109171D02*
X140018346Y-131109171D01*
X98388346Y-137062028D02*
X98459774Y-136990600D01*
X98459774Y-136990600D02*
X98674060Y-136919171D01*
X98674060Y-136919171D02*
X98816917Y-136919171D01*
X98816917Y-136919171D02*
X99031203Y-136990600D01*
X99031203Y-136990600D02*
X99174060Y-137133457D01*
X99174060Y-137133457D02*
X99245489Y-137276314D01*
X99245489Y-137276314D02*
X99316917Y-137562028D01*
X99316917Y-137562028D02*
X99316917Y-137776314D01*
X99316917Y-137776314D02*
X99245489Y-138062028D01*
X99245489Y-138062028D02*
X99174060Y-138204885D01*
X99174060Y-138204885D02*
X99031203Y-138347742D01*
X99031203Y-138347742D02*
X98816917Y-138419171D01*
X98816917Y-138419171D02*
X98674060Y-138419171D01*
X98674060Y-138419171D02*
X98459774Y-138347742D01*
X98459774Y-138347742D02*
X98388346Y-138276314D01*
X97816917Y-138276314D02*
X97745489Y-138347742D01*
X97745489Y-138347742D02*
X97602632Y-138419171D01*
X97602632Y-138419171D02*
X97245489Y-138419171D01*
X97245489Y-138419171D02*
X97102632Y-138347742D01*
X97102632Y-138347742D02*
X97031203Y-138276314D01*
X97031203Y-138276314D02*
X96959774Y-138133457D01*
X96959774Y-138133457D02*
X96959774Y-137990600D01*
X96959774Y-137990600D02*
X97031203Y-137776314D01*
X97031203Y-137776314D02*
X97888346Y-136919171D01*
X97888346Y-136919171D02*
X96959774Y-136919171D01*
X98808346Y-131309171D02*
X97808346Y-131309171D01*
X97808346Y-131309171D02*
X98451203Y-129809171D01*
X98331203Y-109826314D02*
X98474060Y-109897742D01*
X98474060Y-109897742D02*
X98545489Y-109969171D01*
X98545489Y-109969171D02*
X98616917Y-110112028D01*
X98616917Y-110112028D02*
X98616917Y-110183457D01*
X98616917Y-110183457D02*
X98545489Y-110326314D01*
X98545489Y-110326314D02*
X98474060Y-110397742D01*
X98474060Y-110397742D02*
X98331203Y-110469171D01*
X98331203Y-110469171D02*
X98045489Y-110469171D01*
X98045489Y-110469171D02*
X97902632Y-110397742D01*
X97902632Y-110397742D02*
X97831203Y-110326314D01*
X97831203Y-110326314D02*
X97759774Y-110183457D01*
X97759774Y-110183457D02*
X97759774Y-110112028D01*
X97759774Y-110112028D02*
X97831203Y-109969171D01*
X97831203Y-109969171D02*
X97902632Y-109897742D01*
X97902632Y-109897742D02*
X98045489Y-109826314D01*
X98045489Y-109826314D02*
X98331203Y-109826314D01*
X98331203Y-109826314D02*
X98474060Y-109754885D01*
X98474060Y-109754885D02*
X98545489Y-109683457D01*
X98545489Y-109683457D02*
X98616917Y-109540600D01*
X98616917Y-109540600D02*
X98616917Y-109254885D01*
X98616917Y-109254885D02*
X98545489Y-109112028D01*
X98545489Y-109112028D02*
X98474060Y-109040600D01*
X98474060Y-109040600D02*
X98331203Y-108969171D01*
X98331203Y-108969171D02*
X98045489Y-108969171D01*
X98045489Y-108969171D02*
X97902632Y-109040600D01*
X97902632Y-109040600D02*
X97831203Y-109112028D01*
X97831203Y-109112028D02*
X97759774Y-109254885D01*
X97759774Y-109254885D02*
X97759774Y-109540600D01*
X97759774Y-109540600D02*
X97831203Y-109683457D01*
X97831203Y-109683457D02*
X97902632Y-109754885D01*
X97902632Y-109754885D02*
X98045489Y-109826314D01*
X98324060Y-88059171D02*
X98038346Y-88059171D01*
X98038346Y-88059171D02*
X97895489Y-88130600D01*
X97895489Y-88130600D02*
X97824060Y-88202028D01*
X97824060Y-88202028D02*
X97681203Y-88416314D01*
X97681203Y-88416314D02*
X97609774Y-88702028D01*
X97609774Y-88702028D02*
X97609774Y-89273457D01*
X97609774Y-89273457D02*
X97681203Y-89416314D01*
X97681203Y-89416314D02*
X97752632Y-89487742D01*
X97752632Y-89487742D02*
X97895489Y-89559171D01*
X97895489Y-89559171D02*
X98181203Y-89559171D01*
X98181203Y-89559171D02*
X98324060Y-89487742D01*
X98324060Y-89487742D02*
X98395489Y-89416314D01*
X98395489Y-89416314D02*
X98466917Y-89273457D01*
X98466917Y-89273457D02*
X98466917Y-88916314D01*
X98466917Y-88916314D02*
X98395489Y-88773457D01*
X98395489Y-88773457D02*
X98324060Y-88702028D01*
X98324060Y-88702028D02*
X98181203Y-88630600D01*
X98181203Y-88630600D02*
X97895489Y-88630600D01*
X97895489Y-88630600D02*
X97752632Y-88702028D01*
X97752632Y-88702028D02*
X97681203Y-88773457D01*
X97681203Y-88773457D02*
X97609774Y-88916314D01*
X98419774Y-61999171D02*
X99276917Y-61999171D01*
X98848346Y-61999171D02*
X98848346Y-63499171D01*
X98848346Y-63499171D02*
X98991203Y-63284885D01*
X98991203Y-63284885D02*
X99134060Y-63142028D01*
X99134060Y-63142028D02*
X99276917Y-63070600D01*
X97491203Y-63499171D02*
X97348346Y-63499171D01*
X97348346Y-63499171D02*
X97205489Y-63427742D01*
X97205489Y-63427742D02*
X97134061Y-63356314D01*
X97134061Y-63356314D02*
X97062632Y-63213457D01*
X97062632Y-63213457D02*
X96991203Y-62927742D01*
X96991203Y-62927742D02*
X96991203Y-62570600D01*
X96991203Y-62570600D02*
X97062632Y-62284885D01*
X97062632Y-62284885D02*
X97134061Y-62142028D01*
X97134061Y-62142028D02*
X97205489Y-62070600D01*
X97205489Y-62070600D02*
X97348346Y-61999171D01*
X97348346Y-61999171D02*
X97491203Y-61999171D01*
X97491203Y-61999171D02*
X97634061Y-62070600D01*
X97634061Y-62070600D02*
X97705489Y-62142028D01*
X97705489Y-62142028D02*
X97776918Y-62284885D01*
X97776918Y-62284885D02*
X97848346Y-62570600D01*
X97848346Y-62570600D02*
X97848346Y-62927742D01*
X97848346Y-62927742D02*
X97776918Y-63213457D01*
X97776918Y-63213457D02*
X97705489Y-63356314D01*
X97705489Y-63356314D02*
X97634061Y-63427742D01*
X97634061Y-63427742D02*
X97491203Y-63499171D01*
X161449774Y-51129171D02*
X162306917Y-51129171D01*
X161878346Y-51129171D02*
X161878346Y-52629171D01*
X161878346Y-52629171D02*
X162021203Y-52414885D01*
X162021203Y-52414885D02*
X162164060Y-52272028D01*
X162164060Y-52272028D02*
X162306917Y-52200600D01*
X160949775Y-52629171D02*
X160021203Y-52629171D01*
X160021203Y-52629171D02*
X160521203Y-52057742D01*
X160521203Y-52057742D02*
X160306918Y-52057742D01*
X160306918Y-52057742D02*
X160164061Y-51986314D01*
X160164061Y-51986314D02*
X160092632Y-51914885D01*
X160092632Y-51914885D02*
X160021203Y-51772028D01*
X160021203Y-51772028D02*
X160021203Y-51414885D01*
X160021203Y-51414885D02*
X160092632Y-51272028D01*
X160092632Y-51272028D02*
X160164061Y-51200600D01*
X160164061Y-51200600D02*
X160306918Y-51129171D01*
X160306918Y-51129171D02*
X160735489Y-51129171D01*
X160735489Y-51129171D02*
X160878346Y-51200600D01*
X160878346Y-51200600D02*
X160949775Y-51272028D01*
X143289774Y-51089171D02*
X144146917Y-51089171D01*
X143718346Y-51089171D02*
X143718346Y-52589171D01*
X143718346Y-52589171D02*
X143861203Y-52374885D01*
X143861203Y-52374885D02*
X144004060Y-52232028D01*
X144004060Y-52232028D02*
X144146917Y-52160600D01*
X142718346Y-52446314D02*
X142646918Y-52517742D01*
X142646918Y-52517742D02*
X142504061Y-52589171D01*
X142504061Y-52589171D02*
X142146918Y-52589171D01*
X142146918Y-52589171D02*
X142004061Y-52517742D01*
X142004061Y-52517742D02*
X141932632Y-52446314D01*
X141932632Y-52446314D02*
X141861203Y-52303457D01*
X141861203Y-52303457D02*
X141861203Y-52160600D01*
X141861203Y-52160600D02*
X141932632Y-51946314D01*
X141932632Y-51946314D02*
X142789775Y-51089171D01*
X142789775Y-51089171D02*
X141861203Y-51089171D01*
X123859774Y-51009171D02*
X124716917Y-51009171D01*
X124288346Y-51009171D02*
X124288346Y-52509171D01*
X124288346Y-52509171D02*
X124431203Y-52294885D01*
X124431203Y-52294885D02*
X124574060Y-52152028D01*
X124574060Y-52152028D02*
X124716917Y-52080600D01*
X122431203Y-51009171D02*
X123288346Y-51009171D01*
X122859775Y-51009171D02*
X122859775Y-52509171D01*
X122859775Y-52509171D02*
X123002632Y-52294885D01*
X123002632Y-52294885D02*
X123145489Y-52152028D01*
X123145489Y-52152028D02*
X123288346Y-52080600D01*
X98698346Y-31382028D02*
X98769774Y-31310600D01*
X98769774Y-31310600D02*
X98984060Y-31239171D01*
X98984060Y-31239171D02*
X99126917Y-31239171D01*
X99126917Y-31239171D02*
X99341203Y-31310600D01*
X99341203Y-31310600D02*
X99484060Y-31453457D01*
X99484060Y-31453457D02*
X99555489Y-31596314D01*
X99555489Y-31596314D02*
X99626917Y-31882028D01*
X99626917Y-31882028D02*
X99626917Y-32096314D01*
X99626917Y-32096314D02*
X99555489Y-32382028D01*
X99555489Y-32382028D02*
X99484060Y-32524885D01*
X99484060Y-32524885D02*
X99341203Y-32667742D01*
X99341203Y-32667742D02*
X99126917Y-32739171D01*
X99126917Y-32739171D02*
X98984060Y-32739171D01*
X98984060Y-32739171D02*
X98769774Y-32667742D01*
X98769774Y-32667742D02*
X98698346Y-32596314D01*
X98198346Y-32739171D02*
X97269774Y-32739171D01*
X97269774Y-32739171D02*
X97769774Y-32167742D01*
X97769774Y-32167742D02*
X97555489Y-32167742D01*
X97555489Y-32167742D02*
X97412632Y-32096314D01*
X97412632Y-32096314D02*
X97341203Y-32024885D01*
X97341203Y-32024885D02*
X97269774Y-31882028D01*
X97269774Y-31882028D02*
X97269774Y-31524885D01*
X97269774Y-31524885D02*
X97341203Y-31382028D01*
X97341203Y-31382028D02*
X97412632Y-31310600D01*
X97412632Y-31310600D02*
X97555489Y-31239171D01*
X97555489Y-31239171D02*
X97984060Y-31239171D01*
X97984060Y-31239171D02*
X98126917Y-31310600D01*
X98126917Y-31310600D02*
X98198346Y-31382028D01*
D12*
X81735000Y-128363360D02*
X80392500Y-129696639D01*
X78855000Y-128356721D02*
X80350000Y-129690000D01*
X78965000Y-42370000D02*
X80320000Y-41006721D01*
X80320000Y-41006721D02*
X81815000Y-42340000D01*
D13*
X225380000Y-122940000D02*
X222930000Y-128990000D01*
X219880000Y-127630000D01*
X220017332Y-127230216D01*
X222140000Y-121660000D01*
X225380000Y-122940000D01*
G36*
X225380000Y-122940000D02*
G01*
X222930000Y-128990000D01*
X219880000Y-127630000D01*
X220017332Y-127230216D01*
X222140000Y-121660000D01*
X225380000Y-122940000D01*
G37*
D12*
X80275000Y-99970000D02*
X80350000Y-129690000D01*
X80320000Y-41006721D02*
X80150000Y-83810000D01*
D11*
X95131091Y-134690000D02*
G75*
G02*
X93548909Y-134690000I-791091J0D01*
G01*
X93548909Y-134690000D02*
G75*
G02*
X95131091Y-134690000I791091J0D01*
G01*
X95330000Y-35550000D02*
G75*
G02*
X93747818Y-35550000I-791091J0D01*
G01*
X93747818Y-35550000D02*
G75*
G02*
X95330000Y-35550000I791091J0D01*
G01*
D13*
X95395582Y-132988727D02*
X101060000Y-132988727D01*
X101060000Y-136290000D01*
X95395582Y-136290000D01*
X95395582Y-132988727D01*
G36*
X95395582Y-132988727D02*
G01*
X101060000Y-132988727D01*
X101060000Y-136290000D01*
X95395582Y-136290000D01*
X95395582Y-132988727D01*
G37*
X95457791Y-33899364D02*
X101122209Y-33899364D01*
X101122209Y-37200637D01*
X95457791Y-37200637D01*
X95457791Y-33899364D01*
G36*
X95457791Y-33899364D02*
G01*
X101122209Y-33899364D01*
X101122209Y-37200637D01*
X95457791Y-37200637D01*
X95457791Y-33899364D01*
G37*
D11*
X102731091Y-35538909D02*
G75*
G02*
X101148909Y-35538909I-791091J0D01*
G01*
X101148909Y-35538909D02*
G75*
G02*
X102731091Y-35538909I791091J0D01*
G01*
X102911091Y-134698909D02*
G75*
G02*
X101328909Y-134698909I-791091J0D01*
G01*
X101328909Y-134698909D02*
G75*
G02*
X102911091Y-134698909I791091J0D01*
G01*
D12*
X105595628Y-92610000D02*
G75*
G02*
X103404372Y-92610000I-1095628J0D01*
G01*
X103404372Y-92610000D02*
G75*
G02*
X105595628Y-92610000I1095628J0D01*
G01*
X105645628Y-44790000D02*
G75*
G02*
X103454372Y-44790000I-1095628J0D01*
G01*
X103454372Y-44790000D02*
G75*
G02*
X105645628Y-44790000I1095628J0D01*
G01*
X105645628Y-71320000D02*
G75*
G02*
X103454372Y-71320000I-1095628J0D01*
G01*
X103454372Y-71320000D02*
G75*
G02*
X105645628Y-71320000I1095628J0D01*
G01*
X105655628Y-30370000D02*
G75*
G02*
X103464372Y-30370000I-1095628J0D01*
G01*
X103464372Y-30370000D02*
G75*
G02*
X105655628Y-30370000I1095628J0D01*
G01*
X104560000Y-72530000D02*
X104500000Y-91514372D01*
X104580000Y-31530000D02*
X104591482Y-43695148D01*
X107030000Y-93730000D02*
X107060000Y-111820000D01*
X108135628Y-71300000D02*
G75*
G02*
X105944372Y-71300000I-1095628J0D01*
G01*
X105944372Y-71300000D02*
G75*
G02*
X108135628Y-71300000I1095628J0D01*
G01*
X108185628Y-92610000D02*
G75*
G02*
X105994372Y-92610000I-1095628J0D01*
G01*
X105994372Y-92610000D02*
G75*
G02*
X108185628Y-92610000I1095628J0D01*
G01*
X108185628Y-113044372D02*
G75*
G02*
X105994372Y-113044372I-1095628J0D01*
G01*
X105994372Y-113044372D02*
G75*
G02*
X108185628Y-113044372I1095628J0D01*
G01*
X108295628Y-44800000D02*
G75*
G02*
X106104372Y-44800000I-1095628J0D01*
G01*
X106104372Y-44800000D02*
G75*
G02*
X108295628Y-44800000I1095628J0D01*
G01*
X107210000Y-46037814D02*
X107040000Y-70204372D01*
X111245628Y-108780000D02*
G75*
G02*
X109054372Y-108780000I-1095628J0D01*
G01*
X109054372Y-108780000D02*
G75*
G02*
X111245628Y-108780000I1095628J0D01*
G01*
X110390000Y-53177814D02*
X110217726Y-107686468D01*
X110410000Y-53170000D02*
X116900000Y-53170000D01*
D14*
X111610000Y-138590000D02*
X111610000Y-143000000D01*
D12*
X112710000Y-137290000D02*
G75*
G02*
X110518744Y-137290000I-1095628J0D01*
G01*
X110518744Y-137290000D02*
G75*
G02*
X112710000Y-137290000I1095628J0D01*
G01*
D11*
X114041091Y-60978909D02*
G75*
G02*
X112458909Y-60978909I-791091J0D01*
G01*
X112458909Y-60978909D02*
G75*
G02*
X114041091Y-60978909I791091J0D01*
G01*
X114041091Y-64008909D02*
G75*
G02*
X112458909Y-64008909I-791091J0D01*
G01*
X112458909Y-64008909D02*
G75*
G02*
X114041091Y-64008909I791091J0D01*
G01*
X114041091Y-67518909D02*
G75*
G02*
X112458909Y-67518909I-791091J0D01*
G01*
X112458909Y-67518909D02*
G75*
G02*
X114041091Y-67518909I791091J0D01*
G01*
X114051091Y-57498909D02*
G75*
G02*
X112468909Y-57498909I-791091J0D01*
G01*
X112468909Y-57498909D02*
G75*
G02*
X114051091Y-57498909I791091J0D01*
G01*
D12*
X113260000Y-68440000D02*
X113610000Y-95230000D01*
D11*
X114371091Y-103798909D02*
G75*
G02*
X112788909Y-103798909I-791091J0D01*
G01*
X112788909Y-103798909D02*
G75*
G02*
X114371091Y-103798909I791091J0D01*
G01*
X114391091Y-98718909D02*
G75*
G02*
X112808909Y-98718909I-791091J0D01*
G01*
X112808909Y-98718909D02*
G75*
G02*
X114391091Y-98718909I791091J0D01*
G01*
X114391091Y-101288909D02*
G75*
G02*
X112808909Y-101288909I-791091J0D01*
G01*
X112808909Y-101288909D02*
G75*
G02*
X114391091Y-101288909I791091J0D01*
G01*
X114401091Y-96158909D02*
G75*
G02*
X112818909Y-96158909I-791091J0D01*
G01*
X112818909Y-96158909D02*
G75*
G02*
X114401091Y-96158909I791091J0D01*
G01*
D12*
X113940000Y-61530000D02*
X116510000Y-63560000D01*
X113950000Y-58090000D02*
X117699769Y-61122319D01*
X113990000Y-64560000D02*
X115253641Y-65560978D01*
X114180000Y-103135000D02*
X118177013Y-97330000D01*
X114200000Y-100545000D02*
X116907218Y-96730000D01*
X114260000Y-98005000D02*
X115652218Y-96069201D01*
X115255000Y-65665000D02*
X115652218Y-96069201D01*
X116510000Y-63560000D02*
X116907218Y-96730000D01*
X117700000Y-61140000D02*
X118177013Y-97330000D01*
X118865628Y-131460000D02*
G75*
G02*
X116674372Y-131460000I-1095628J0D01*
G01*
X116674372Y-131460000D02*
G75*
G02*
X118865628Y-131460000I1095628J0D01*
G01*
X118925628Y-117534372D02*
G75*
G02*
X116734372Y-117534372I-1095628J0D01*
G01*
X116734372Y-117534372D02*
G75*
G02*
X118925628Y-117534372I1095628J0D01*
G01*
X117830000Y-118630000D02*
X117770000Y-130364372D01*
X118930000Y-137310000D02*
G75*
G02*
X116738744Y-137310000I-1095628J0D01*
G01*
X116738744Y-137310000D02*
G75*
G02*
X118930000Y-137310000I1095628J0D01*
G01*
D14*
X117860000Y-138610000D02*
X117860000Y-143020000D01*
D12*
X119160000Y-53180000D02*
G75*
G02*
X116968744Y-53180000I-1095628J0D01*
G01*
X116968744Y-53180000D02*
G75*
G02*
X119160000Y-53180000I1095628J0D01*
G01*
X125275628Y-137264372D02*
G75*
G02*
X123084372Y-137264372I-1095628J0D01*
G01*
X123084372Y-137264372D02*
G75*
G02*
X125275628Y-137264372I1095628J0D01*
G01*
D14*
X124210000Y-138570000D02*
X124210000Y-142980000D01*
D12*
X127289857Y-100881537D02*
X130750000Y-103150000D01*
X127470000Y-73750000D02*
X127290000Y-100860000D01*
X127470913Y-73661757D02*
X131020000Y-71315000D01*
X128650000Y-99317883D02*
X130720000Y-100675000D01*
X128830000Y-75899549D02*
X130905000Y-74527500D01*
X128834438Y-75896615D02*
X128650000Y-99290000D01*
X130049601Y-97662366D02*
X130740000Y-98115000D01*
X130230000Y-78203340D02*
X130995000Y-77697500D01*
X130230000Y-78512182D02*
X130050000Y-97620000D01*
D11*
X132301091Y-98658909D02*
G75*
G02*
X130718909Y-98658909I-791091J0D01*
G01*
X130718909Y-98658909D02*
G75*
G02*
X132301091Y-98658909I791091J0D01*
G01*
X132301091Y-101198909D02*
G75*
G02*
X130718909Y-101198909I-791091J0D01*
G01*
X130718909Y-101198909D02*
G75*
G02*
X132301091Y-101198909I791091J0D01*
G01*
X132301091Y-103708909D02*
G75*
G02*
X130718909Y-103708909I-791091J0D01*
G01*
X130718909Y-103708909D02*
G75*
G02*
X132301091Y-103708909I791091J0D01*
G01*
X132321091Y-96078909D02*
G75*
G02*
X130738909Y-96078909I-791091J0D01*
G01*
X130738909Y-96078909D02*
G75*
G02*
X132321091Y-96078909I791091J0D01*
G01*
X132441091Y-70538909D02*
G75*
G02*
X130858909Y-70538909I-791091J0D01*
G01*
X130858909Y-70538909D02*
G75*
G02*
X132441091Y-70538909I791091J0D01*
G01*
X132441091Y-74008909D02*
G75*
G02*
X130858909Y-74008909I-791091J0D01*
G01*
X130858909Y-74008909D02*
G75*
G02*
X132441091Y-74008909I791091J0D01*
G01*
X132441091Y-80058909D02*
G75*
G02*
X130858909Y-80058909I-791091J0D01*
G01*
X130858909Y-80058909D02*
G75*
G02*
X132441091Y-80058909I791091J0D01*
G01*
D12*
X131650000Y-80960000D02*
X131530000Y-95170000D01*
D11*
X132451091Y-76998909D02*
G75*
G02*
X130868909Y-76998909I-791091J0D01*
G01*
X130868909Y-76998909D02*
G75*
G02*
X132451091Y-76998909I791091J0D01*
G01*
X138140000Y-131390000D02*
G75*
G02*
X136557818Y-131390000I-791091J0D01*
G01*
X136557818Y-131390000D02*
G75*
G02*
X138140000Y-131390000I791091J0D01*
G01*
X145671091Y-131461091D02*
G75*
G02*
X144088909Y-131461091I-791091J0D01*
G01*
X144088909Y-131461091D02*
G75*
G02*
X145671091Y-131461091I791091J0D01*
G01*
D12*
X149265628Y-107570000D02*
G75*
G02*
X147074372Y-107570000I-1095628J0D01*
G01*
X147074372Y-107570000D02*
G75*
G02*
X149265628Y-107570000I1095628J0D01*
G01*
X149265628Y-126520000D02*
G75*
G02*
X147074372Y-126520000I-1095628J0D01*
G01*
X147074372Y-126520000D02*
G75*
G02*
X149265628Y-126520000I1095628J0D01*
G01*
X149745628Y-96130000D02*
G75*
G02*
X147554372Y-96130000I-1095628J0D01*
G01*
X147554372Y-96130000D02*
G75*
G02*
X149745628Y-96130000I1095628J0D01*
G01*
X149765628Y-93610000D02*
G75*
G02*
X147574372Y-93610000I-1095628J0D01*
G01*
X147574372Y-93610000D02*
G75*
G02*
X149765628Y-93610000I1095628J0D01*
G01*
X152295628Y-93600000D02*
G75*
G02*
X150104372Y-93600000I-1095628J0D01*
G01*
X150104372Y-93600000D02*
G75*
G02*
X152295628Y-93600000I1095628J0D01*
G01*
X152355628Y-83030000D02*
G75*
G02*
X150164372Y-83030000I-1095628J0D01*
G01*
X150164372Y-83030000D02*
G75*
G02*
X152355628Y-83030000I1095628J0D01*
G01*
X151295000Y-84155000D02*
X151200000Y-92504372D01*
D15*
X152190000Y-55867500D02*
X157740000Y-55867500D01*
X157740000Y-81532500D01*
X152190000Y-81532500D01*
X152190000Y-55867500D01*
X152220000Y-96320000D02*
X157820000Y-96320000D01*
X157820000Y-129015000D01*
X152220000Y-129015000D01*
X152220000Y-96320000D01*
D12*
X157555628Y-85010000D02*
G75*
G02*
X155364372Y-85010000I-1095628J0D01*
G01*
X155364372Y-85010000D02*
G75*
G02*
X157555628Y-85010000I1095628J0D01*
G01*
X157555628Y-85010000D02*
X175704372Y-84860000D01*
D11*
X176491091Y-71708909D02*
G75*
G02*
X174908909Y-71708909I-791091J0D01*
G01*
X174908909Y-71708909D02*
G75*
G02*
X176491091Y-71708909I791091J0D01*
G01*
D16*
X176428320Y-47900000D02*
G75*
G02*
X174991974Y-47900000I-718173J0D01*
G01*
X174991974Y-47900000D02*
G75*
G02*
X176428320Y-47900000I718173J0D01*
G01*
X176428320Y-51900000D02*
G75*
G02*
X174991974Y-51900000I-718173J0D01*
G01*
X174991974Y-51900000D02*
G75*
G02*
X176428320Y-51900000I718173J0D01*
G01*
X176468173Y-49900000D02*
G75*
G02*
X175031827Y-49900000I-718173J0D01*
G01*
X175031827Y-49900000D02*
G75*
G02*
X176468173Y-49900000I718173J0D01*
G01*
D11*
X176561091Y-64438909D02*
G75*
G02*
X174978909Y-64438909I-791091J0D01*
G01*
X174978909Y-64438909D02*
G75*
G02*
X176561091Y-64438909I791091J0D01*
G01*
D12*
X177895628Y-84860000D02*
G75*
G02*
X175704372Y-84860000I-1095628J0D01*
G01*
X175704372Y-84860000D02*
G75*
G02*
X177895628Y-84860000I1095628J0D01*
G01*
D11*
X178371091Y-142610000D02*
G75*
G02*
X176788909Y-142610000I-791091J0D01*
G01*
X176788909Y-142610000D02*
G75*
G02*
X178371091Y-142610000I791091J0D01*
G01*
D16*
X178403320Y-132590546D02*
G75*
G02*
X176966974Y-132590546I-718173J0D01*
G01*
X176966974Y-132590546D02*
G75*
G02*
X178403320Y-132590546I718173J0D01*
G01*
X178403320Y-136590546D02*
G75*
G02*
X176966974Y-136590546I-718173J0D01*
G01*
X176966974Y-136590546D02*
G75*
G02*
X178403320Y-136590546I718173J0D01*
G01*
X178428173Y-71659853D02*
G75*
G02*
X176991827Y-71659853I-718173J0D01*
G01*
X176991827Y-71659853D02*
G75*
G02*
X178428173Y-71659853I718173J0D01*
G01*
X178443173Y-134590546D02*
G75*
G02*
X177006827Y-134590546I-718173J0D01*
G01*
X177006827Y-134590546D02*
G75*
G02*
X178443173Y-134590546I718173J0D01*
G01*
X178548173Y-64519853D02*
G75*
G02*
X177111827Y-64519853I-718173J0D01*
G01*
X177111827Y-64519853D02*
G75*
G02*
X178548173Y-64519853I718173J0D01*
G01*
D11*
X178661091Y-126740000D02*
G75*
G02*
X177078909Y-126740000I-791091J0D01*
G01*
X177078909Y-126740000D02*
G75*
G02*
X178661091Y-126740000I791091J0D01*
G01*
D12*
X177870000Y-127640000D02*
X177580000Y-141650000D01*
D16*
X179468173Y-64529853D02*
G75*
G02*
X178031827Y-64529853I-718173J0D01*
G01*
X178031827Y-64529853D02*
G75*
G02*
X179468173Y-64529853I718173J0D01*
G01*
X179558173Y-71679853D02*
G75*
G02*
X178121827Y-71679853I-718173J0D01*
G01*
X178121827Y-71679853D02*
G75*
G02*
X179558173Y-71679853I718173J0D01*
G01*
D12*
X180680000Y-137750000D02*
X180710000Y-146490000D01*
D16*
X181418173Y-139800000D02*
G75*
G02*
X179981827Y-139800000I-718173J0D01*
G01*
X179981827Y-139800000D02*
G75*
G02*
X181418173Y-139800000I718173J0D01*
G01*
X181418173Y-143800000D02*
G75*
G02*
X179981827Y-143800000I-718173J0D01*
G01*
X179981827Y-143800000D02*
G75*
G02*
X181418173Y-143800000I718173J0D01*
G01*
D11*
X181501091Y-136810000D02*
G75*
G02*
X179918909Y-136810000I-791091J0D01*
G01*
X179918909Y-136810000D02*
G75*
G02*
X181501091Y-136810000I791091J0D01*
G01*
X181511091Y-147410000D02*
G75*
G02*
X179928909Y-147410000I-791091J0D01*
G01*
X179928909Y-147410000D02*
G75*
G02*
X181511091Y-147410000I791091J0D01*
G01*
D16*
X181458026Y-141800000D02*
G75*
G02*
X180021680Y-141800000I-718173J0D01*
G01*
X180021680Y-141800000D02*
G75*
G02*
X181458026Y-141800000I718173J0D01*
G01*
D11*
X181571091Y-64440000D02*
G75*
G02*
X179988909Y-64440000I-791091J0D01*
G01*
X179988909Y-64440000D02*
G75*
G02*
X181571091Y-64440000I791091J0D01*
G01*
X181571091Y-71710000D02*
G75*
G02*
X179988909Y-71710000I-791091J0D01*
G01*
X179988909Y-71710000D02*
G75*
G02*
X181571091Y-71710000I791091J0D01*
G01*
D12*
X182665628Y-120370000D02*
G75*
G02*
X180474372Y-120370000I-1095628J0D01*
G01*
X180474372Y-120370000D02*
G75*
G02*
X182665628Y-120370000I1095628J0D01*
G01*
D11*
X185291091Y-136860000D02*
G75*
G02*
X183708909Y-136860000I-791091J0D01*
G01*
X183708909Y-136860000D02*
G75*
G02*
X185291091Y-136860000I791091J0D01*
G01*
D12*
X184500000Y-137770000D02*
X184530000Y-146440000D01*
D11*
X185331091Y-147360000D02*
G75*
G02*
X183748909Y-147360000I-791091J0D01*
G01*
X183748909Y-147360000D02*
G75*
G02*
X185331091Y-147360000I791091J0D01*
G01*
D16*
X185318173Y-139800000D02*
G75*
G02*
X183881827Y-139800000I-718173J0D01*
G01*
X183881827Y-139800000D02*
G75*
G02*
X185318173Y-139800000I718173J0D01*
G01*
X185358026Y-141800000D02*
G75*
G02*
X183921680Y-141800000I-718173J0D01*
G01*
X183921680Y-141800000D02*
G75*
G02*
X185358026Y-141800000I718173J0D01*
G01*
X185368173Y-144050000D02*
G75*
G02*
X183931827Y-144050000I-718173J0D01*
G01*
X183931827Y-144050000D02*
G75*
G02*
X185368173Y-144050000I718173J0D01*
G01*
D12*
X189015628Y-139040000D02*
G75*
G02*
X186824372Y-139040000I-1095628J0D01*
G01*
X186824372Y-139040000D02*
G75*
G02*
X189015628Y-139040000I1095628J0D01*
G01*
X189055628Y-134260000D02*
G75*
G02*
X186864372Y-134260000I-1095628J0D01*
G01*
X186864372Y-134260000D02*
G75*
G02*
X189055628Y-134260000I1095628J0D01*
G01*
D11*
X213701091Y-111150000D02*
G75*
G02*
X212118909Y-111150000I-791091J0D01*
G01*
X212118909Y-111150000D02*
G75*
G02*
X213701091Y-111150000I791091J0D01*
G01*
D12*
X213830000Y-111110000D02*
X219780000Y-111130000D01*
D16*
X216418173Y-111050000D02*
G75*
G02*
X214981827Y-111050000I-718173J0D01*
G01*
X214981827Y-111050000D02*
G75*
G02*
X216418173Y-111050000I718173J0D01*
G01*
X218218173Y-111050000D02*
G75*
G02*
X216781827Y-111050000I-718173J0D01*
G01*
X216781827Y-111050000D02*
G75*
G02*
X218218173Y-111050000I718173J0D01*
G01*
D11*
X220011091Y-134510000D02*
G75*
G02*
X218428909Y-134510000I-791091J0D01*
G01*
X218428909Y-134510000D02*
G75*
G02*
X220011091Y-134510000I791091J0D01*
G01*
D12*
X219220000Y-135410000D02*
X219230000Y-140860000D01*
D16*
X219938173Y-137070000D02*
G75*
G02*
X218501827Y-137070000I-718173J0D01*
G01*
X218501827Y-137070000D02*
G75*
G02*
X219938173Y-137070000I718173J0D01*
G01*
D11*
X220021091Y-141780000D02*
G75*
G02*
X218438909Y-141780000I-791091J0D01*
G01*
X218438909Y-141780000D02*
G75*
G02*
X220021091Y-141780000I791091J0D01*
G01*
D16*
X219978026Y-139070000D02*
G75*
G02*
X218541680Y-139070000I-718173J0D01*
G01*
X218541680Y-139070000D02*
G75*
G02*
X219978026Y-139070000I718173J0D01*
G01*
D11*
X221471091Y-111130000D02*
G75*
G02*
X219888909Y-111130000I-791091J0D01*
G01*
X219888909Y-111130000D02*
G75*
G02*
X221471091Y-111130000I791091J0D01*
G01*
X221841091Y-147470000D02*
G75*
G02*
X220258909Y-147470000I-791091J0D01*
G01*
X220258909Y-147470000D02*
G75*
G02*
X221841091Y-147470000I791091J0D01*
G01*
D16*
X221778320Y-143600000D02*
G75*
G02*
X220341974Y-143600000I-718173J0D01*
G01*
X220341974Y-143600000D02*
G75*
G02*
X221778320Y-143600000I718173J0D01*
G01*
X221818173Y-145600000D02*
G75*
G02*
X220381827Y-145600000I-718173J0D01*
G01*
X220381827Y-145600000D02*
G75*
G02*
X221818173Y-145600000I718173J0D01*
G01*
D11*
X221901091Y-141740000D02*
G75*
G02*
X220318909Y-141740000I-791091J0D01*
G01*
X220318909Y-141740000D02*
G75*
G02*
X221901091Y-141740000I791091J0D01*
G01*
X224901091Y-128860000D02*
G75*
G02*
X223318909Y-128860000I-791091J0D01*
G01*
X223318909Y-128860000D02*
G75*
G02*
X224901091Y-128860000I791091J0D01*
G01*
X226901091Y-123938909D02*
G75*
G02*
X225318909Y-123938909I-791091J0D01*
G01*
X225318909Y-123938909D02*
G75*
G02*
X226901091Y-123938909I791091J0D01*
G01*
X234631091Y-147290000D02*
G75*
G02*
X233048909Y-147290000I-791091J0D01*
G01*
X233048909Y-147290000D02*
G75*
G02*
X234631091Y-147290000I791091J0D01*
G01*
D16*
X234578173Y-142020000D02*
G75*
G02*
X233141827Y-142020000I-718173J0D01*
G01*
X233141827Y-142020000D02*
G75*
G02*
X234578173Y-142020000I718173J0D01*
G01*
D12*
X233880000Y-139670000D02*
X233840000Y-146360000D01*
D11*
X234681091Y-138740000D02*
G75*
G02*
X233098909Y-138740000I-791091J0D01*
G01*
X233098909Y-138740000D02*
G75*
G02*
X234681091Y-138740000I791091J0D01*
G01*
D16*
X234618026Y-144020000D02*
G75*
G02*
X233181680Y-144020000I-718173J0D01*
G01*
X233181680Y-144020000D02*
G75*
G02*
X234618026Y-144020000I718173J0D01*
G01*
D12*
X237435628Y-151180000D02*
G75*
G02*
X235244372Y-151180000I-1095628J0D01*
G01*
X235244372Y-151180000D02*
G75*
G02*
X237435628Y-151180000I1095628J0D01*
G01*
X237465628Y-143780000D02*
G75*
G02*
X235274372Y-143780000I-1095628J0D01*
G01*
X235274372Y-143780000D02*
G75*
G02*
X237465628Y-143780000I1095628J0D01*
G01*
X236370000Y-144875628D02*
X236340000Y-150084372D01*
D11*
X239301091Y-106650000D02*
G75*
G02*
X237718909Y-106650000I-791091J0D01*
G01*
X237718909Y-106650000D02*
G75*
G02*
X239301091Y-106650000I791091J0D01*
G01*
D16*
X239143320Y-109990000D02*
G75*
G02*
X237706974Y-109990000I-718173J0D01*
G01*
X237706974Y-109990000D02*
G75*
G02*
X239143320Y-109990000I718173J0D01*
G01*
D12*
X238447406Y-106650000D02*
X238433447Y-114830000D01*
D16*
X239183173Y-111990000D02*
G75*
G02*
X237746827Y-111990000I-718173J0D01*
G01*
X237746827Y-111990000D02*
G75*
G02*
X239183173Y-111990000I718173J0D01*
G01*
D11*
X239256091Y-114830000D02*
G75*
G02*
X237673909Y-114830000I-791091J0D01*
G01*
X237673909Y-114830000D02*
G75*
G02*
X239256091Y-114830000I791091J0D01*
G01*
D10*
X110186415Y-134034780D02*
X110034034Y-133958590D01*
X110034034Y-133958590D02*
X109805463Y-133958590D01*
X109805463Y-133958590D02*
X109576891Y-134034780D01*
X109576891Y-134034780D02*
X109424510Y-134187161D01*
X109424510Y-134187161D02*
X109348320Y-134339542D01*
X109348320Y-134339542D02*
X109272129Y-134644304D01*
X109272129Y-134644304D02*
X109272129Y-134872876D01*
X109272129Y-134872876D02*
X109348320Y-135177638D01*
X109348320Y-135177638D02*
X109424510Y-135330019D01*
X109424510Y-135330019D02*
X109576891Y-135482400D01*
X109576891Y-135482400D02*
X109805463Y-135558590D01*
X109805463Y-135558590D02*
X109957844Y-135558590D01*
X109957844Y-135558590D02*
X110186415Y-135482400D01*
X110186415Y-135482400D02*
X110262606Y-135406209D01*
X110262606Y-135406209D02*
X110262606Y-134872876D01*
X110262606Y-134872876D02*
X109957844Y-134872876D01*
X110948320Y-135558590D02*
X110948320Y-133958590D01*
X110948320Y-133958590D02*
X111862606Y-135558590D01*
X111862606Y-135558590D02*
X111862606Y-133958590D01*
X112624510Y-135558590D02*
X112624510Y-133958590D01*
X112624510Y-133958590D02*
X113005462Y-133958590D01*
X113005462Y-133958590D02*
X113234034Y-134034780D01*
X113234034Y-134034780D02*
X113386415Y-134187161D01*
X113386415Y-134187161D02*
X113462605Y-134339542D01*
X113462605Y-134339542D02*
X113538796Y-134644304D01*
X113538796Y-134644304D02*
X113538796Y-134872876D01*
X113538796Y-134872876D02*
X113462605Y-135177638D01*
X113462605Y-135177638D02*
X113386415Y-135330019D01*
X113386415Y-135330019D02*
X113234034Y-135482400D01*
X113234034Y-135482400D02*
X113005462Y-135558590D01*
X113005462Y-135558590D02*
X112624510Y-135558590D01*
X115238320Y-134849066D02*
X116457368Y-134849066D01*
X115847844Y-135458590D02*
X115847844Y-134239542D01*
X117981177Y-133858590D02*
X117219272Y-133858590D01*
X117219272Y-133858590D02*
X117143081Y-134620495D01*
X117143081Y-134620495D02*
X117219272Y-134544304D01*
X117219272Y-134544304D02*
X117371653Y-134468114D01*
X117371653Y-134468114D02*
X117752605Y-134468114D01*
X117752605Y-134468114D02*
X117904986Y-134544304D01*
X117904986Y-134544304D02*
X117981177Y-134620495D01*
X117981177Y-134620495D02*
X118057367Y-134772876D01*
X118057367Y-134772876D02*
X118057367Y-135153828D01*
X118057367Y-135153828D02*
X117981177Y-135306209D01*
X117981177Y-135306209D02*
X117904986Y-135382400D01*
X117904986Y-135382400D02*
X117752605Y-135458590D01*
X117752605Y-135458590D02*
X117371653Y-135458590D01*
X117371653Y-135458590D02*
X117219272Y-135382400D01*
X117219272Y-135382400D02*
X117143081Y-135306209D01*
X118514510Y-133858590D02*
X119047844Y-135458590D01*
X119047844Y-135458590D02*
X119581177Y-133858590D01*
X121778320Y-134779066D02*
X122997368Y-134779066D01*
X123606891Y-133788590D02*
X124673558Y-133788590D01*
X124673558Y-133788590D02*
X123987843Y-135388590D01*
X125054510Y-133788590D02*
X125587844Y-135388590D01*
X125587844Y-135388590D02*
X126121177Y-133788590D01*
D11*
X114308395Y-150503247D02*
X114308395Y-148003247D01*
X114308395Y-148003247D02*
X115260776Y-148003247D01*
X115260776Y-148003247D02*
X115498871Y-148122295D01*
X115498871Y-148122295D02*
X115617918Y-148241342D01*
X115617918Y-148241342D02*
X115736966Y-148479438D01*
X115736966Y-148479438D02*
X115736966Y-148836580D01*
X115736966Y-148836580D02*
X115617918Y-149074676D01*
X115617918Y-149074676D02*
X115498871Y-149193723D01*
X115498871Y-149193723D02*
X115260776Y-149312771D01*
X115260776Y-149312771D02*
X114308395Y-149312771D01*
X118236966Y-150265152D02*
X118117918Y-150384200D01*
X118117918Y-150384200D02*
X117760776Y-150503247D01*
X117760776Y-150503247D02*
X117522680Y-150503247D01*
X117522680Y-150503247D02*
X117165537Y-150384200D01*
X117165537Y-150384200D02*
X116927442Y-150146104D01*
X116927442Y-150146104D02*
X116808395Y-149908009D01*
X116808395Y-149908009D02*
X116689347Y-149431819D01*
X116689347Y-149431819D02*
X116689347Y-149074676D01*
X116689347Y-149074676D02*
X116808395Y-148598485D01*
X116808395Y-148598485D02*
X116927442Y-148360390D01*
X116927442Y-148360390D02*
X117165537Y-148122295D01*
X117165537Y-148122295D02*
X117522680Y-148003247D01*
X117522680Y-148003247D02*
X117760776Y-148003247D01*
X117760776Y-148003247D02*
X118117918Y-148122295D01*
X118117918Y-148122295D02*
X118236966Y-148241342D01*
X120141728Y-149193723D02*
X120498871Y-149312771D01*
X120498871Y-149312771D02*
X120617918Y-149431819D01*
X120617918Y-149431819D02*
X120736966Y-149669914D01*
X120736966Y-149669914D02*
X120736966Y-150027057D01*
X120736966Y-150027057D02*
X120617918Y-150265152D01*
X120617918Y-150265152D02*
X120498871Y-150384200D01*
X120498871Y-150384200D02*
X120260776Y-150503247D01*
X120260776Y-150503247D02*
X119308395Y-150503247D01*
X119308395Y-150503247D02*
X119308395Y-148003247D01*
X119308395Y-148003247D02*
X120141728Y-148003247D01*
X120141728Y-148003247D02*
X120379823Y-148122295D01*
X120379823Y-148122295D02*
X120498871Y-148241342D01*
X120498871Y-148241342D02*
X120617918Y-148479438D01*
X120617918Y-148479438D02*
X120617918Y-148717533D01*
X120617918Y-148717533D02*
X120498871Y-148955628D01*
X120498871Y-148955628D02*
X120379823Y-149074676D01*
X120379823Y-149074676D02*
X120141728Y-149193723D01*
X120141728Y-149193723D02*
X119308395Y-149193723D01*
X121808395Y-149550866D02*
X123713157Y-149550866D01*
X125617918Y-148003247D02*
X125617918Y-149788961D01*
X125617918Y-149788961D02*
X125498871Y-150146104D01*
X125498871Y-150146104D02*
X125260775Y-150384200D01*
X125260775Y-150384200D02*
X124903633Y-150503247D01*
X124903633Y-150503247D02*
X124665537Y-150503247D01*
X128117918Y-150503247D02*
X126689347Y-150503247D01*
X127403633Y-150503247D02*
X127403633Y-148003247D01*
X127403633Y-148003247D02*
X127165537Y-148360390D01*
X127165537Y-148360390D02*
X126927442Y-148598485D01*
X126927442Y-148598485D02*
X126689347Y-148717533D01*
X79471580Y-96886843D02*
X80185866Y-98791604D01*
X80185866Y-98791604D02*
X80900152Y-96886843D01*
X81138247Y-94505890D02*
X81138247Y-95696366D01*
X81138247Y-95696366D02*
X78638247Y-95696366D01*
X79828723Y-93672556D02*
X79828723Y-92839223D01*
X81138247Y-92482080D02*
X81138247Y-93672556D01*
X81138247Y-93672556D02*
X78638247Y-93672556D01*
X78638247Y-93672556D02*
X78638247Y-92482080D01*
X81138247Y-91410651D02*
X78638247Y-91410651D01*
X78638247Y-91410651D02*
X78638247Y-90815413D01*
X78638247Y-90815413D02*
X78757295Y-90458270D01*
X78757295Y-90458270D02*
X78995390Y-90220175D01*
X78995390Y-90220175D02*
X79233485Y-90101128D01*
X79233485Y-90101128D02*
X79709676Y-89982080D01*
X79709676Y-89982080D02*
X80066819Y-89982080D01*
X80066819Y-89982080D02*
X80543009Y-90101128D01*
X80543009Y-90101128D02*
X80781104Y-90220175D01*
X80781104Y-90220175D02*
X81019200Y-90458270D01*
X81019200Y-90458270D02*
X81138247Y-90815413D01*
X81138247Y-90815413D02*
X81138247Y-91410651D01*
X81019200Y-89029699D02*
X81138247Y-88672556D01*
X81138247Y-88672556D02*
X81138247Y-88077318D01*
X81138247Y-88077318D02*
X81019200Y-87839223D01*
X81019200Y-87839223D02*
X80900152Y-87720175D01*
X80900152Y-87720175D02*
X80662057Y-87601128D01*
X80662057Y-87601128D02*
X80423961Y-87601128D01*
X80423961Y-87601128D02*
X80185866Y-87720175D01*
X80185866Y-87720175D02*
X80066819Y-87839223D01*
X80066819Y-87839223D02*
X79947771Y-88077318D01*
X79947771Y-88077318D02*
X79828723Y-88553509D01*
X79828723Y-88553509D02*
X79709676Y-88791604D01*
X79709676Y-88791604D02*
X79590628Y-88910651D01*
X79590628Y-88910651D02*
X79352533Y-89029699D01*
X79352533Y-89029699D02*
X79114438Y-89029699D01*
X79114438Y-89029699D02*
X78876342Y-88910651D01*
X78876342Y-88910651D02*
X78757295Y-88791604D01*
X78757295Y-88791604D02*
X78638247Y-88553509D01*
X78638247Y-88553509D02*
X78638247Y-87958270D01*
X78638247Y-87958270D02*
X78757295Y-87601128D01*
X79471580Y-86529699D02*
X80185866Y-84624938D01*
X80185866Y-84624938D02*
X80900152Y-86529699D01*
D17*
X77682906Y-150103600D02*
X78397192Y-150341695D01*
X78397192Y-150341695D02*
X79587668Y-150341695D01*
X79587668Y-150341695D02*
X80063859Y-150103600D01*
X80063859Y-150103600D02*
X80301954Y-149865504D01*
X80301954Y-149865504D02*
X80540049Y-149389314D01*
X80540049Y-149389314D02*
X80540049Y-148913123D01*
X80540049Y-148913123D02*
X80301954Y-148436933D01*
X80301954Y-148436933D02*
X80063859Y-148198838D01*
X80063859Y-148198838D02*
X79587668Y-147960742D01*
X79587668Y-147960742D02*
X78635287Y-147722647D01*
X78635287Y-147722647D02*
X78159097Y-147484552D01*
X78159097Y-147484552D02*
X77921002Y-147246457D01*
X77921002Y-147246457D02*
X77682906Y-146770266D01*
X77682906Y-146770266D02*
X77682906Y-146294076D01*
X77682906Y-146294076D02*
X77921002Y-145817885D01*
X77921002Y-145817885D02*
X78159097Y-145579790D01*
X78159097Y-145579790D02*
X78635287Y-145341695D01*
X78635287Y-145341695D02*
X79825764Y-145341695D01*
X79825764Y-145341695D02*
X80540049Y-145579790D01*
X85540050Y-149865504D02*
X85301954Y-150103600D01*
X85301954Y-150103600D02*
X84587669Y-150341695D01*
X84587669Y-150341695D02*
X84111478Y-150341695D01*
X84111478Y-150341695D02*
X83397192Y-150103600D01*
X83397192Y-150103600D02*
X82921002Y-149627409D01*
X82921002Y-149627409D02*
X82682907Y-149151219D01*
X82682907Y-149151219D02*
X82444811Y-148198838D01*
X82444811Y-148198838D02*
X82444811Y-147484552D01*
X82444811Y-147484552D02*
X82682907Y-146532171D01*
X82682907Y-146532171D02*
X82921002Y-146055980D01*
X82921002Y-146055980D02*
X83397192Y-145579790D01*
X83397192Y-145579790D02*
X84111478Y-145341695D01*
X84111478Y-145341695D02*
X84587669Y-145341695D01*
X84587669Y-145341695D02*
X85301954Y-145579790D01*
X85301954Y-145579790D02*
X85540050Y-145817885D01*
X90540050Y-150341695D02*
X88873383Y-147960742D01*
X87682907Y-150341695D02*
X87682907Y-145341695D01*
X87682907Y-145341695D02*
X89587669Y-145341695D01*
X89587669Y-145341695D02*
X90063859Y-145579790D01*
X90063859Y-145579790D02*
X90301954Y-145817885D01*
X90301954Y-145817885D02*
X90540050Y-146294076D01*
X90540050Y-146294076D02*
X90540050Y-147008361D01*
X90540050Y-147008361D02*
X90301954Y-147484552D01*
X90301954Y-147484552D02*
X90063859Y-147722647D01*
X90063859Y-147722647D02*
X89587669Y-147960742D01*
X89587669Y-147960742D02*
X87682907Y-147960742D01*
X92682907Y-145341695D02*
X92682907Y-149389314D01*
X92682907Y-149389314D02*
X92921002Y-149865504D01*
X92921002Y-149865504D02*
X93159097Y-150103600D01*
X93159097Y-150103600D02*
X93635288Y-150341695D01*
X93635288Y-150341695D02*
X94587669Y-150341695D01*
X94587669Y-150341695D02*
X95063859Y-150103600D01*
X95063859Y-150103600D02*
X95301954Y-149865504D01*
X95301954Y-149865504D02*
X95540050Y-149389314D01*
X95540050Y-149389314D02*
X95540050Y-145341695D01*
X97921002Y-150341695D02*
X97921002Y-145341695D01*
X97921002Y-145341695D02*
X99587668Y-148913123D01*
X99587668Y-148913123D02*
X101254335Y-145341695D01*
X101254335Y-145341695D02*
X101254335Y-150341695D01*
X103635288Y-150341695D02*
X103635288Y-145341695D01*
X103635288Y-145341695D02*
X105540050Y-145341695D01*
X105540050Y-145341695D02*
X106016240Y-145579790D01*
X106016240Y-145579790D02*
X106254335Y-145817885D01*
X106254335Y-145817885D02*
X106492431Y-146294076D01*
X106492431Y-146294076D02*
X106492431Y-147008361D01*
X106492431Y-147008361D02*
X106254335Y-147484552D01*
X106254335Y-147484552D02*
X106016240Y-147722647D01*
X106016240Y-147722647D02*
X105540050Y-147960742D01*
X105540050Y-147960742D02*
X103635288Y-147960742D01*
X108635288Y-150341695D02*
X108635288Y-145341695D01*
D15*
X189150000Y-101950000D02*
X203700000Y-101950000D01*
X203700000Y-109550000D01*
X189150000Y-109550000D01*
X189150000Y-101950000D01*
D18*
X140610000Y-29810000D02*
X140610000Y-50250000D01*
X140610000Y-50250000D02*
X141860000Y-50250000D01*
X143860000Y-50250000D02*
X145110000Y-50250000D01*
X145110000Y-29810000D02*
X140610000Y-29810000D01*
X145110000Y-50250000D02*
X145110000Y-29810000D01*
X141860000Y-50250000D02*
G75*
G02*
X143860000Y-50250000I1000000J0D01*
G01*
D19*
X145110000Y-50250000D02*
X143860000Y-50250000D01*
X143820000Y-49820000D01*
X143720000Y-49620000D01*
X143520000Y-49420000D01*
X143170000Y-49220000D01*
X142670000Y-49250000D01*
X142220000Y-49420000D01*
X141870000Y-49870000D01*
X141860000Y-50250000D01*
X140610000Y-50250000D01*
X140610000Y-29810000D01*
X145110000Y-29810000D01*
X145110000Y-50250000D01*
G36*
X145110000Y-50250000D02*
G01*
X143860000Y-50250000D01*
X143820000Y-49820000D01*
X143720000Y-49620000D01*
X143520000Y-49420000D01*
X143170000Y-49220000D01*
X142670000Y-49250000D01*
X142220000Y-49420000D01*
X141870000Y-49870000D01*
X141860000Y-50250000D01*
X140610000Y-50250000D01*
X140610000Y-29810000D01*
X145110000Y-29810000D01*
X145110000Y-50250000D01*
G37*
D15*
X218780000Y-91150000D02*
X233330000Y-91150000D01*
X233330000Y-98750000D01*
X218780000Y-98750000D01*
X218780000Y-91150000D01*
X188900000Y-43750000D02*
X203450000Y-43750000D01*
X203450000Y-51350000D01*
X188900000Y-51350000D01*
X188900000Y-43750000D01*
D18*
X95850000Y-43480000D02*
X95850000Y-61380000D01*
X95850000Y-61380000D02*
X97100000Y-61380000D01*
X99100000Y-61380000D02*
X100350000Y-61380000D01*
X100350000Y-43480000D02*
X95850000Y-43480000D01*
X100350000Y-61380000D02*
X100350000Y-43480000D01*
X97100000Y-61380000D02*
G75*
G02*
X99100000Y-61380000I1000000J0D01*
G01*
D19*
X100350000Y-61380000D02*
X99100000Y-61380000D01*
X99110000Y-61100000D01*
X98960000Y-60850000D01*
X98910000Y-60650000D01*
X98760000Y-60550000D01*
X98410000Y-60400000D01*
X98100000Y-60330000D01*
X97510000Y-60450000D01*
X97260000Y-60700000D01*
X97060000Y-61050000D01*
X97100000Y-61380000D01*
X95850000Y-61380000D01*
X95850000Y-43480000D01*
X100350000Y-43480000D01*
X100350000Y-61380000D01*
G36*
X100350000Y-61380000D02*
G01*
X99100000Y-61380000D01*
X99110000Y-61100000D01*
X98960000Y-60850000D01*
X98910000Y-60650000D01*
X98760000Y-60550000D01*
X98410000Y-60400000D01*
X98100000Y-60330000D01*
X97510000Y-60450000D01*
X97260000Y-60700000D01*
X97060000Y-61050000D01*
X97100000Y-61380000D01*
X95850000Y-61380000D01*
X95850000Y-43480000D01*
X100350000Y-43480000D01*
X100350000Y-61380000D01*
G37*
D15*
X218770000Y-54140000D02*
X233320000Y-54140000D01*
X233320000Y-61740000D01*
X218770000Y-61740000D01*
X218770000Y-54140000D01*
X218640000Y-112700000D02*
X233190000Y-112700000D01*
X233190000Y-120300000D01*
X218640000Y-120300000D01*
X218640000Y-112700000D01*
X218790000Y-32560000D02*
X233340000Y-32560000D01*
X233340000Y-40160000D01*
X218790000Y-40160000D01*
X218790000Y-32560000D01*
D18*
X137150000Y-94780000D02*
X137150000Y-115220000D01*
X137150000Y-115220000D02*
X138400000Y-115220000D01*
X140400000Y-115220000D02*
X141650000Y-115220000D01*
X141650000Y-94780000D02*
X137150000Y-94780000D01*
X141650000Y-115220000D02*
X141650000Y-94780000D01*
X138400000Y-115220000D02*
G75*
G02*
X140400000Y-115220000I1000000J0D01*
G01*
D19*
X141650000Y-115220000D02*
X140400000Y-115220000D01*
X140360000Y-114890000D01*
X140210000Y-114590000D01*
X139960000Y-114390000D01*
X139660000Y-114240000D01*
X139210000Y-114220000D01*
X138710000Y-114390000D01*
X138510000Y-114640000D01*
X138410000Y-114940000D01*
X138400000Y-115220000D01*
X137150000Y-115220000D01*
X137150000Y-94780000D01*
X141650000Y-94780000D01*
X141650000Y-115220000D01*
G36*
X141650000Y-115220000D02*
G01*
X140400000Y-115220000D01*
X140360000Y-114890000D01*
X140210000Y-114590000D01*
X139960000Y-114390000D01*
X139660000Y-114240000D01*
X139210000Y-114220000D01*
X138710000Y-114390000D01*
X138510000Y-114640000D01*
X138410000Y-114940000D01*
X138400000Y-115220000D01*
X137150000Y-115220000D01*
X137150000Y-94780000D01*
X141650000Y-94780000D01*
X141650000Y-115220000D01*
G37*
D18*
X121330000Y-32360000D02*
X121330000Y-50260000D01*
X121330000Y-50260000D02*
X122580000Y-50260000D01*
X124580000Y-50260000D02*
X125830000Y-50260000D01*
X125830000Y-32360000D02*
X121330000Y-32360000D01*
X125830000Y-50260000D02*
X125830000Y-32360000D01*
X122580000Y-50260000D02*
G75*
G02*
X124580000Y-50260000I1000000J0D01*
G01*
D19*
X125830000Y-50260000D02*
X124580000Y-50260000D01*
X124590000Y-49930000D01*
X124440000Y-49680000D01*
X124190000Y-49380000D01*
X123840000Y-49230000D01*
X123190000Y-49260000D01*
X122840000Y-49480000D01*
X122590000Y-49880000D01*
X122540000Y-50080000D01*
X122580000Y-50260000D01*
X121330000Y-50260000D01*
X121330000Y-32360000D01*
X125830000Y-32360000D01*
X125830000Y-50260000D01*
G36*
X125830000Y-50260000D02*
G01*
X124580000Y-50260000D01*
X124590000Y-49930000D01*
X124440000Y-49680000D01*
X124190000Y-49380000D01*
X123840000Y-49230000D01*
X123190000Y-49260000D01*
X122840000Y-49480000D01*
X122590000Y-49880000D01*
X122540000Y-50080000D01*
X122580000Y-50260000D01*
X121330000Y-50260000D01*
X121330000Y-32360000D01*
X125830000Y-32360000D01*
X125830000Y-50260000D01*
G37*
D18*
X209230000Y-127290000D02*
X209230000Y-145190000D01*
X209230000Y-145190000D02*
X210480000Y-145190000D01*
X212480000Y-145190000D02*
X213730000Y-145190000D01*
X213730000Y-127290000D02*
X209230000Y-127290000D01*
X213730000Y-145190000D02*
X213730000Y-127290000D01*
D19*
X213740000Y-144160000D02*
X209230000Y-144160000D01*
X209230000Y-127290000D01*
X213740000Y-127290000D01*
X213740000Y-144160000D01*
G36*
X213740000Y-144160000D02*
G01*
X209230000Y-144160000D01*
X209230000Y-127290000D01*
X213740000Y-127290000D01*
X213740000Y-144160000D01*
G37*
D18*
X210480000Y-145190000D02*
G75*
G02*
X212480000Y-145190000I1000000J0D01*
G01*
D19*
X213730000Y-144160000D02*
X213730000Y-145190000D01*
X212530000Y-145190000D01*
X212390000Y-144660000D01*
X212040000Y-144310000D01*
X211640000Y-144110000D01*
X213730000Y-144160000D01*
G36*
X213730000Y-144160000D02*
G01*
X213730000Y-145190000D01*
X212530000Y-145190000D01*
X212390000Y-144660000D01*
X212040000Y-144310000D01*
X211640000Y-144110000D01*
X213730000Y-144160000D01*
G37*
X211090000Y-144210000D02*
X210890000Y-144310000D01*
X210690000Y-144510000D01*
X210390000Y-145110000D01*
X209940000Y-145110000D01*
X209290000Y-145110000D01*
X209290000Y-143960000D01*
X209940000Y-143960000D01*
X211190000Y-143960000D01*
X211090000Y-144210000D01*
G36*
X211090000Y-144210000D02*
G01*
X210890000Y-144310000D01*
X210690000Y-144510000D01*
X210390000Y-145110000D01*
X209940000Y-145110000D01*
X209290000Y-145110000D01*
X209290000Y-143960000D01*
X209940000Y-143960000D01*
X211190000Y-143960000D01*
X211090000Y-144210000D01*
G37*
D15*
X188950000Y-65750000D02*
X203500000Y-65750000D01*
X203500000Y-73350000D01*
X188950000Y-73350000D01*
X188950000Y-65750000D01*
D18*
X194040000Y-127350000D02*
X194040000Y-145250000D01*
X194040000Y-145250000D02*
X195290000Y-145250000D01*
X197290000Y-145250000D02*
X198540000Y-145250000D01*
D19*
X198481250Y-144204966D02*
X194018750Y-144235033D01*
D18*
X198540000Y-127350000D02*
X194040000Y-127350000D01*
X198540000Y-145250000D02*
X198540000Y-127350000D01*
D19*
X195270000Y-145260000D02*
X194030000Y-145260000D01*
X194030000Y-143980000D01*
X195270000Y-143980000D01*
X195270000Y-145260000D01*
G36*
X195270000Y-145260000D02*
G01*
X194030000Y-145260000D01*
X194030000Y-143980000D01*
X195270000Y-143980000D01*
X195270000Y-145260000D01*
G37*
X198540000Y-145250000D02*
X197300000Y-145250000D01*
X197300000Y-143970000D01*
X198540000Y-143970000D01*
X198540000Y-145250000D01*
G36*
X198540000Y-145250000D02*
G01*
X197300000Y-145250000D01*
X197300000Y-143970000D01*
X198540000Y-143970000D01*
X198540000Y-145250000D01*
G37*
X198540024Y-144204570D02*
X194040000Y-144204570D01*
X194040000Y-127350000D01*
X198540024Y-127350000D01*
X198540024Y-144204570D01*
G36*
X198540024Y-144204570D02*
G01*
X194040000Y-144204570D01*
X194040000Y-127350000D01*
X198540024Y-127350000D01*
X198540024Y-144204570D01*
G37*
D18*
X195290000Y-145250000D02*
G75*
G02*
X197290000Y-145250000I1000000J0D01*
G01*
D19*
X197400000Y-144920000D02*
X196650000Y-144170000D01*
X197300000Y-144170000D01*
X197400000Y-144920000D01*
G36*
X197400000Y-144920000D02*
G01*
X196650000Y-144170000D01*
X197300000Y-144170000D01*
X197400000Y-144920000D01*
G37*
X195220000Y-144870000D02*
X195270067Y-144226602D01*
X195270000Y-144226602D01*
X195950000Y-144120000D01*
X195220000Y-144870000D01*
G36*
X195220000Y-144870000D02*
G01*
X195270067Y-144226602D01*
X195270000Y-144226602D01*
X195950000Y-144120000D01*
X195220000Y-144870000D01*
G37*
D15*
X188900000Y-32550000D02*
X203450000Y-32550000D01*
X203450000Y-40150000D01*
X188900000Y-40150000D01*
X188900000Y-32550000D01*
D18*
X95970000Y-111710000D02*
X95970000Y-129610000D01*
X95970000Y-129610000D02*
X97220000Y-129610000D01*
X99220000Y-129610000D02*
X100470000Y-129610000D01*
X100470000Y-111710000D02*
X95970000Y-111710000D01*
X100470000Y-129610000D02*
X100470000Y-111710000D01*
X97220000Y-129610000D02*
G75*
G02*
X99220000Y-129610000I1000000J0D01*
G01*
D19*
X100470000Y-129610000D02*
X99220000Y-129610000D01*
X99130000Y-129130000D01*
X98980000Y-128880000D01*
X98830000Y-128730000D01*
X98530000Y-128580000D01*
X97880000Y-128610000D01*
X97530000Y-128780000D01*
X97180000Y-129280000D01*
X97220000Y-129610000D01*
X95970000Y-129610000D01*
X95970000Y-111710000D01*
X100470000Y-111710000D01*
X100470000Y-129610000D01*
G36*
X100470000Y-129610000D02*
G01*
X99220000Y-129610000D01*
X99130000Y-129130000D01*
X98980000Y-128880000D01*
X98830000Y-128730000D01*
X98530000Y-128580000D01*
X97880000Y-128610000D01*
X97530000Y-128780000D01*
X97180000Y-129280000D01*
X97220000Y-129610000D01*
X95970000Y-129610000D01*
X95970000Y-111710000D01*
X100470000Y-111710000D01*
X100470000Y-129610000D01*
G37*
D15*
X189150000Y-91150000D02*
X203700000Y-91150000D01*
X203700000Y-98750000D01*
X189150000Y-98750000D01*
X189150000Y-91150000D01*
X218830000Y-65730000D02*
X233380000Y-65730000D01*
X233380000Y-73330000D01*
X218830000Y-73330000D01*
X218830000Y-65730000D01*
D18*
X95980000Y-91210000D02*
X95980000Y-109110000D01*
X95980000Y-109110000D02*
X97230000Y-109110000D01*
X99230000Y-109110000D02*
X100480000Y-109110000D01*
X100480000Y-91210000D02*
X95980000Y-91210000D01*
X100480000Y-109110000D02*
X100480000Y-91210000D01*
X97230000Y-109110000D02*
G75*
G02*
X99230000Y-109110000I1000000J0D01*
G01*
D19*
X100480000Y-109110000D02*
X99230000Y-109110000D01*
X99190000Y-108730000D01*
X98990000Y-108430000D01*
X98790000Y-108180000D01*
X98090000Y-108060000D01*
X97490000Y-108330000D01*
X97290000Y-108580000D01*
X97230000Y-109110000D01*
X95980000Y-109110000D01*
X95980000Y-91210000D01*
X100480000Y-91210000D01*
X100480000Y-109110000D01*
G36*
X100480000Y-109110000D02*
G01*
X99230000Y-109110000D01*
X99190000Y-108730000D01*
X98990000Y-108430000D01*
X98790000Y-108180000D01*
X98090000Y-108060000D01*
X97490000Y-108330000D01*
X97290000Y-108580000D01*
X97230000Y-109110000D01*
X95980000Y-109110000D01*
X95980000Y-91210000D01*
X100480000Y-91210000D01*
X100480000Y-109110000D01*
G37*
D15*
X189150000Y-112750000D02*
X203700000Y-112750000D01*
X203700000Y-120350000D01*
X189150000Y-120350000D01*
X189150000Y-112750000D01*
X218750000Y-43690000D02*
X233300000Y-43690000D01*
X233300000Y-51290000D01*
X218750000Y-51290000D01*
X218750000Y-43690000D01*
D18*
X119260000Y-94820000D02*
X119260000Y-115260000D01*
X119260000Y-115260000D02*
X120510000Y-115260000D01*
X122510000Y-115260000D02*
X123760000Y-115260000D01*
X123760000Y-94820000D02*
X119260000Y-94820000D01*
X123760000Y-115260000D02*
X123760000Y-94820000D01*
X120510000Y-115260000D02*
G75*
G02*
X122510000Y-115260000I1000000J0D01*
G01*
D19*
X123760000Y-115260000D02*
X122510000Y-115260000D01*
X122470000Y-114880000D01*
X122420000Y-114630000D01*
X122170000Y-114480000D01*
X122020000Y-114330000D01*
X121510000Y-114180000D01*
X120970000Y-114330000D01*
X120720000Y-114630000D01*
X120570000Y-114880000D01*
X120470000Y-115080000D01*
X120510000Y-115260000D01*
X119260000Y-115260000D01*
X119260000Y-94820000D01*
X123760000Y-94820000D01*
X123760000Y-115260000D01*
G36*
X123760000Y-115260000D02*
G01*
X122510000Y-115260000D01*
X122470000Y-114880000D01*
X122420000Y-114630000D01*
X122170000Y-114480000D01*
X122020000Y-114330000D01*
X121510000Y-114180000D01*
X120970000Y-114330000D01*
X120720000Y-114630000D01*
X120570000Y-114880000D01*
X120470000Y-115080000D01*
X120510000Y-115260000D01*
X119260000Y-115260000D01*
X119260000Y-94820000D01*
X123760000Y-94820000D01*
X123760000Y-115260000D01*
G37*
D18*
X95870000Y-69840000D02*
X95870000Y-87740000D01*
X95870000Y-87740000D02*
X97120000Y-87740000D01*
X99120000Y-87740000D02*
X100370000Y-87740000D01*
X100370000Y-69840000D02*
X95870000Y-69840000D01*
X100370000Y-87740000D02*
X100370000Y-69840000D01*
X97120000Y-87740000D02*
G75*
G02*
X99120000Y-87740000I1000000J0D01*
G01*
D19*
X100370000Y-87740000D02*
X99120000Y-87740000D01*
X99080000Y-87360000D01*
X98980000Y-87160000D01*
X98780000Y-86910000D01*
X98530000Y-86760000D01*
X98120000Y-86710000D01*
X98120000Y-86660000D01*
X97480000Y-86860000D01*
X97230000Y-87260000D01*
X97130000Y-87560000D01*
X97120000Y-87740000D01*
X95870000Y-87740000D01*
X95870000Y-69840000D01*
X100370000Y-69840000D01*
X100370000Y-87740000D01*
G36*
X100370000Y-87740000D02*
G01*
X99120000Y-87740000D01*
X99080000Y-87360000D01*
X98980000Y-87160000D01*
X98780000Y-86910000D01*
X98530000Y-86760000D01*
X98120000Y-86710000D01*
X98120000Y-86660000D01*
X97480000Y-86860000D01*
X97230000Y-87260000D01*
X97130000Y-87560000D01*
X97120000Y-87740000D01*
X95870000Y-87740000D01*
X95870000Y-69840000D01*
X100370000Y-69840000D01*
X100370000Y-87740000D01*
G37*
D15*
X218780000Y-102060000D02*
X233330000Y-102060000D01*
X233330000Y-109660000D01*
X218780000Y-109660000D01*
X218780000Y-102060000D01*
D18*
X224555000Y-134810000D02*
X224555000Y-145090000D01*
X224555000Y-145090000D02*
X226205000Y-145090000D01*
X228205000Y-145090000D02*
X229855000Y-145090000D01*
X229855000Y-134810000D02*
X224555000Y-134810000D01*
X229855000Y-145090000D02*
X229855000Y-134810000D01*
X226205000Y-145090000D02*
G75*
G02*
X228205000Y-145090000I1000000J0D01*
G01*
D19*
X229815000Y-145010000D02*
X228265000Y-145010000D01*
X228165000Y-144610000D01*
X227915000Y-144310000D01*
X227615000Y-144060000D01*
X227215000Y-144010000D01*
X226865000Y-144110000D01*
X226515000Y-144260000D01*
X226265000Y-144510000D01*
X226165000Y-144810000D01*
X226205000Y-145090000D01*
X224615000Y-145090000D01*
X224555000Y-134810000D01*
X229855000Y-134810000D01*
X229815000Y-145010000D01*
G36*
X229815000Y-145010000D02*
G01*
X228265000Y-145010000D01*
X228165000Y-144610000D01*
X227915000Y-144310000D01*
X227615000Y-144060000D01*
X227215000Y-144010000D01*
X226865000Y-144110000D01*
X226515000Y-144260000D01*
X226265000Y-144510000D01*
X226165000Y-144810000D01*
X226205000Y-145090000D01*
X224615000Y-145090000D01*
X224555000Y-134810000D01*
X229855000Y-134810000D01*
X229815000Y-145010000D01*
G37*
D15*
X188950000Y-54750000D02*
X203500000Y-54750000D01*
X203500000Y-62350000D01*
X188950000Y-62350000D01*
X188950000Y-54750000D01*
X189150000Y-79950000D02*
X203700000Y-79950000D01*
X203700000Y-87550000D01*
X189150000Y-87550000D01*
X189150000Y-79950000D01*
D18*
X158850000Y-29870000D02*
X158850000Y-50310000D01*
X158850000Y-50310000D02*
X160100000Y-50310000D01*
X162100000Y-50310000D02*
X163350000Y-50310000D01*
X163350000Y-29870000D02*
X158850000Y-29870000D01*
X163350000Y-50310000D02*
X163350000Y-29870000D01*
X160100000Y-50310000D02*
G75*
G02*
X162100000Y-50310000I1000000J0D01*
G01*
D19*
X163350000Y-50310000D02*
X162150000Y-50310000D01*
X162110000Y-49980000D01*
X161960000Y-49630000D01*
X161710000Y-49480000D01*
X161460000Y-49280000D01*
X161010000Y-49280000D01*
X160610000Y-49330000D01*
X160310000Y-49630000D01*
X160160000Y-49830000D01*
X160060000Y-50080000D01*
X160100000Y-50310000D01*
X158850000Y-50310000D01*
X158850000Y-29870000D01*
X163350000Y-29870000D01*
X163350000Y-50310000D01*
G36*
X163350000Y-50310000D02*
G01*
X162150000Y-50310000D01*
X162110000Y-49980000D01*
X161960000Y-49630000D01*
X161710000Y-49480000D01*
X161460000Y-49280000D01*
X161010000Y-49280000D01*
X160610000Y-49330000D01*
X160310000Y-49630000D01*
X160160000Y-49830000D01*
X160060000Y-50080000D01*
X160100000Y-50310000D01*
X158850000Y-50310000D01*
X158850000Y-29870000D01*
X163350000Y-29870000D01*
X163350000Y-50310000D01*
G37*
D15*
X218670000Y-80100000D02*
X233220000Y-80100000D01*
X233220000Y-87700000D01*
X218670000Y-87700000D01*
X218670000Y-80100000D01*
D19*
X172580000Y-138210000D02*
X167520000Y-138210000D01*
X167500000Y-137830000D01*
X167250000Y-137330000D01*
X166500000Y-137080000D01*
X165750000Y-137380000D01*
X165470000Y-138160000D01*
X160460000Y-138210000D01*
X160460000Y-87290000D01*
X172580000Y-87290000D01*
X172580000Y-138210000D01*
G36*
X172580000Y-138210000D02*
G01*
X167520000Y-138210000D01*
X167500000Y-137830000D01*
X167250000Y-137330000D01*
X166500000Y-137080000D01*
X165750000Y-137380000D01*
X165470000Y-138160000D01*
X160460000Y-138210000D01*
X160460000Y-87290000D01*
X172580000Y-87290000D01*
X172580000Y-138210000D01*
G37*
%LPC*%
X76175000Y-25950000D02*
X242850000Y-25950000D01*
X242850000Y-154350000D01*
X76175000Y-154350000D01*
X76175000Y-25950000D01*
G36*
X76175000Y-25950000D02*
G01*
X242850000Y-25950000D01*
X242850000Y-154350000D01*
X76175000Y-154350000D01*
X76175000Y-25950000D01*
G37*
D20*
X191700000Y-105800000D03*
X196400000Y-105800000D03*
X201100000Y-105800000D03*
D21*
X184500000Y-136870000D03*
X187960000Y-134250000D03*
D22*
X146670000Y-48920000D03*
X146670000Y-46380000D03*
X146670000Y-43840000D03*
X146670000Y-41300000D03*
X146670000Y-38760000D03*
X146670000Y-36220000D03*
X146670000Y-33680000D03*
X146670000Y-31140000D03*
X139050000Y-31140000D03*
X139050000Y-33680000D03*
X139050000Y-36220000D03*
X139050000Y-38760000D03*
X139050000Y-41300000D03*
X139050000Y-43840000D03*
X139050000Y-46380000D03*
X139050000Y-48920000D03*
D23*
X236340000Y-151180000D03*
D21*
X84320000Y-68350000D03*
X180700000Y-136830000D03*
X153800000Y-113920000D03*
X107100000Y-113050000D03*
X83530000Y-39700000D03*
D23*
X111600000Y-137300000D03*
D21*
X131500000Y-98650000D03*
D23*
X153877453Y-60578983D03*
D21*
X151260000Y-83050000D03*
X135600000Y-31200000D03*
X153800000Y-106320000D03*
D23*
X153840000Y-73820000D03*
D21*
X117780000Y-131460000D03*
X154070000Y-31300000D03*
X148660000Y-93600000D03*
X86100000Y-39700000D03*
X149810000Y-48960000D03*
D20*
X221330000Y-95000000D03*
X226030000Y-95000000D03*
X230730000Y-95000000D03*
D21*
X148650000Y-96150000D03*
D23*
X153780000Y-119020000D03*
D21*
X83420000Y-128940000D03*
D23*
X153890000Y-80000000D03*
D21*
X124200000Y-137250000D03*
X221130000Y-141760000D03*
D23*
X154100000Y-46400000D03*
D21*
X85990000Y-111350000D03*
X113250000Y-57500000D03*
D23*
X233840000Y-147280000D03*
X104547453Y-71300000D03*
D21*
X154100000Y-38890000D03*
D20*
X191450000Y-47600000D03*
X196150000Y-47600000D03*
X200850000Y-47600000D03*
D21*
X83430000Y-97990000D03*
X135600000Y-46500000D03*
X131500000Y-96100000D03*
X168000000Y-36240000D03*
D23*
X102150000Y-134720000D03*
D21*
X84320000Y-76350000D03*
X144920000Y-131590000D03*
X153780000Y-116520000D03*
D22*
X101910000Y-60050000D03*
X101910000Y-57510000D03*
X101910000Y-54970000D03*
X101910000Y-52430000D03*
X101910000Y-49890000D03*
X101910000Y-47350000D03*
X101910000Y-44810000D03*
X94290000Y-44810000D03*
X94290000Y-47350000D03*
X94290000Y-49890000D03*
X94290000Y-52430000D03*
X94290000Y-54970000D03*
X94290000Y-57510000D03*
X94290000Y-60050000D03*
D20*
X221320000Y-57990000D03*
X226020000Y-57990000D03*
X230720000Y-57990000D03*
D21*
X212900000Y-111100000D03*
X176797453Y-84850000D03*
D20*
X221190000Y-116550000D03*
X225890000Y-116550000D03*
X230590000Y-116550000D03*
D23*
X117850000Y-137300000D03*
D21*
X83380000Y-103340000D03*
X86900000Y-68350000D03*
X83500000Y-50230000D03*
D20*
X221340000Y-36410000D03*
X226040000Y-36410000D03*
X230740000Y-36410000D03*
D21*
X224100000Y-128820000D03*
D23*
X94350000Y-134700000D03*
D21*
X154100000Y-41390000D03*
D23*
X181560000Y-120350000D03*
D21*
X86050000Y-62200000D03*
X153850000Y-98610000D03*
D22*
X143210000Y-113890000D03*
X143210000Y-111350000D03*
X143210000Y-108810000D03*
X143210000Y-106270000D03*
X143210000Y-103730000D03*
X143210000Y-101190000D03*
X143210000Y-98650000D03*
X143210000Y-96110000D03*
X135590000Y-96110000D03*
X135590000Y-98650000D03*
X135590000Y-101190000D03*
X135590000Y-103730000D03*
X135590000Y-106270000D03*
X135590000Y-108810000D03*
X135590000Y-111350000D03*
X135590000Y-113890000D03*
D21*
X149800000Y-43840000D03*
X83470000Y-58230000D03*
X177880000Y-126740000D03*
X149800000Y-38740000D03*
X83380000Y-115340000D03*
X168000000Y-43840000D03*
X85990000Y-115350000D03*
D23*
X153780000Y-121560000D03*
D22*
X127390000Y-48930000D03*
X127390000Y-46390000D03*
X127390000Y-43850000D03*
X127390000Y-41310000D03*
X127390000Y-38770000D03*
X127390000Y-36230000D03*
X127390000Y-33690000D03*
X119770000Y-33690000D03*
X119770000Y-36230000D03*
X119770000Y-38770000D03*
X119770000Y-41310000D03*
X119770000Y-43850000D03*
X119770000Y-46390000D03*
X119770000Y-48930000D03*
X215290000Y-143860000D03*
X215290000Y-141320000D03*
X215290000Y-138780000D03*
X215290000Y-136240000D03*
X215290000Y-133700000D03*
X215290000Y-131160000D03*
X215290000Y-128620000D03*
X207670000Y-128620000D03*
X207670000Y-131160000D03*
X207670000Y-133700000D03*
X207670000Y-136240000D03*
X207670000Y-138780000D03*
X207670000Y-141320000D03*
X207670000Y-143860000D03*
D23*
X153850000Y-70530000D03*
D21*
X180770000Y-71690000D03*
X86050000Y-50200000D03*
X180750000Y-64450000D03*
D23*
X104500000Y-92600000D03*
D21*
X220700000Y-111100000D03*
X180750000Y-147400000D03*
D23*
X236350000Y-143800000D03*
D21*
X175800000Y-64450000D03*
X130900000Y-49000000D03*
X148170000Y-107570000D03*
X113250000Y-64000000D03*
D20*
X191500000Y-69600000D03*
X196200000Y-69600000D03*
X200900000Y-69600000D03*
D21*
X153840000Y-101220000D03*
X153810000Y-108830000D03*
D23*
X168000000Y-49050000D03*
X131000000Y-36400000D03*
D21*
X135599998Y-38740000D03*
X83430000Y-89990000D03*
X137190000Y-131350000D03*
X86030000Y-132950000D03*
X135599998Y-43790000D03*
D23*
X153890000Y-67260000D03*
D21*
X118080441Y-53182440D03*
D23*
X107200000Y-44800000D03*
D21*
X83380000Y-111340000D03*
D22*
X200100000Y-143920000D03*
X200100000Y-141380000D03*
X200100000Y-138840000D03*
X200100000Y-136300000D03*
X200100000Y-133760000D03*
X200100000Y-131220000D03*
X200100000Y-128680000D03*
X192480000Y-128680000D03*
X192480000Y-131220000D03*
X192480000Y-133760000D03*
X192480000Y-136300000D03*
X192480000Y-138840000D03*
X192480000Y-141380000D03*
X192480000Y-143920000D03*
D21*
X151200000Y-93600000D03*
X94550000Y-35550000D03*
X175790000Y-45310000D03*
D23*
X107047453Y-71300000D03*
D21*
X86900000Y-72350000D03*
X153800000Y-111400000D03*
X168000000Y-41340000D03*
X238480000Y-106560000D03*
D20*
X191450000Y-36400000D03*
X196150000Y-36400000D03*
X200850000Y-36400000D03*
D21*
X86010000Y-98020000D03*
D23*
X153890000Y-77060000D03*
D21*
X113250000Y-61000000D03*
X184550000Y-147350000D03*
X135599998Y-41290000D03*
D24*
X210000000Y-76600000D03*
D21*
X219220000Y-134470000D03*
X148180000Y-126630000D03*
D22*
X102030000Y-128280000D03*
X102030000Y-125740000D03*
X102030000Y-123200000D03*
X102030000Y-120660000D03*
X102030000Y-118120000D03*
X102030000Y-115580000D03*
X102030000Y-113040000D03*
X94410000Y-113040000D03*
X94410000Y-115580000D03*
X94410000Y-118120000D03*
X94410000Y-120660000D03*
X94410000Y-123200000D03*
X94410000Y-125740000D03*
X94410000Y-128280000D03*
D23*
X101950000Y-35550000D03*
D21*
X113600000Y-98700000D03*
X177590000Y-142590000D03*
D20*
X191700000Y-95000000D03*
X196400000Y-95000000D03*
X201100000Y-95000000D03*
X221380000Y-69580000D03*
X226080000Y-69580000D03*
X230780000Y-69580000D03*
D21*
X149800000Y-41340000D03*
X154100000Y-43890000D03*
X86050000Y-58200000D03*
X219200000Y-141750000D03*
X83380000Y-107340000D03*
X86100000Y-35700000D03*
D23*
X153860000Y-57550000D03*
D21*
X149870000Y-33720000D03*
D22*
X102040000Y-107780000D03*
X102040000Y-105240000D03*
X102040000Y-102700000D03*
X102040000Y-100160000D03*
X102040000Y-97620000D03*
X102040000Y-95080000D03*
X102040000Y-92540000D03*
X94420000Y-92540000D03*
X94420000Y-95080000D03*
X94420000Y-97620000D03*
X94420000Y-100160000D03*
X94420000Y-102700000D03*
X94420000Y-105240000D03*
X94420000Y-107780000D03*
D21*
X116200000Y-33800000D03*
X131650000Y-77000000D03*
X131500000Y-103700000D03*
D23*
X153800000Y-126730000D03*
D21*
X86000000Y-90000000D03*
X83470000Y-62200000D03*
X226090000Y-123950000D03*
D20*
X191700000Y-116600000D03*
X196400000Y-116600000D03*
X201100000Y-116600000D03*
D21*
X131650000Y-74000000D03*
X130900000Y-46500000D03*
X83510000Y-54180000D03*
X131650000Y-80050000D03*
X83420000Y-132940000D03*
D23*
X153770000Y-124120000D03*
D20*
X221300000Y-47540000D03*
X226000000Y-47540000D03*
X230700000Y-47540000D03*
D21*
X83530000Y-35710000D03*
X85990000Y-94030000D03*
X86900000Y-80350000D03*
X238480000Y-114850000D03*
X131650000Y-70550000D03*
D22*
X125320000Y-113930000D03*
X125320000Y-111390000D03*
X125320000Y-108850000D03*
X125320000Y-106310000D03*
X125320000Y-103770000D03*
X125320000Y-101230000D03*
X125320000Y-98690000D03*
X125320000Y-96150000D03*
X117700000Y-96150000D03*
X117700000Y-98690000D03*
X117700000Y-101230000D03*
X117700000Y-103770000D03*
X117700000Y-106310000D03*
X117700000Y-108850000D03*
X117700000Y-111390000D03*
X117700000Y-113930000D03*
D21*
X85990000Y-107350000D03*
X86100000Y-43700000D03*
X113600000Y-96150000D03*
X117842547Y-117533983D03*
X83420000Y-120940000D03*
X233860000Y-138750000D03*
X113600000Y-103800000D03*
D23*
X153860000Y-64010000D03*
X187930000Y-139020000D03*
D21*
X86030000Y-128950000D03*
X168000000Y-38740000D03*
D22*
X101930000Y-86410000D03*
X101930000Y-83870000D03*
X101930000Y-81330000D03*
X101930000Y-78790000D03*
X101930000Y-76250000D03*
X101930000Y-73710000D03*
X101930000Y-71170000D03*
X94310000Y-71170000D03*
X94310000Y-73710000D03*
X94310000Y-76250000D03*
X94310000Y-78790000D03*
X94310000Y-81330000D03*
X94310000Y-83870000D03*
X94310000Y-86410000D03*
D23*
X107100000Y-92600000D03*
D20*
X221330000Y-105910000D03*
X226030000Y-105910000D03*
X230730000Y-105910000D03*
D23*
X104560000Y-30360000D03*
D24*
X94040000Y-139880000D03*
D21*
X86030000Y-124950000D03*
X86030000Y-120950000D03*
X116140000Y-43730000D03*
X231015000Y-143760000D03*
X231015000Y-141220000D03*
X231015000Y-138680000D03*
X231015000Y-136140000D03*
X223395000Y-136140000D03*
X223395000Y-138680000D03*
X223395000Y-141220000D03*
X223395000Y-143760000D03*
X86030000Y-86080000D03*
X221050000Y-147450000D03*
X83470000Y-86080000D03*
X149800000Y-36240000D03*
D20*
X191500000Y-58600000D03*
X196200000Y-58600000D03*
X200900000Y-58600000D03*
D21*
X83550000Y-31690000D03*
D20*
X191700000Y-83800000D03*
X196400000Y-83800000D03*
X201100000Y-83800000D03*
D21*
X135599998Y-36190000D03*
X110150000Y-108800000D03*
D24*
X98200000Y-40200000D03*
D21*
X175850000Y-54940000D03*
X86100000Y-31700000D03*
X84320000Y-72350000D03*
X83420000Y-124940000D03*
X113600000Y-101250000D03*
X154100000Y-36290000D03*
D22*
X164910000Y-48980000D03*
X164910000Y-46440000D03*
X164910000Y-43900000D03*
X164910000Y-41360000D03*
X164910000Y-38820000D03*
X164910000Y-36280000D03*
X164910000Y-33740000D03*
X164910000Y-31200000D03*
X157290000Y-31200000D03*
X157290000Y-33740000D03*
X157290000Y-36280000D03*
X157290000Y-38820000D03*
X157290000Y-41360000D03*
X157290000Y-43900000D03*
X157290000Y-46440000D03*
X157290000Y-48980000D03*
D20*
X221220000Y-83950000D03*
X225920000Y-83950000D03*
X230620000Y-83950000D03*
D21*
X131500000Y-101200000D03*
X113250000Y-67500000D03*
X175797453Y-71686017D03*
X153810000Y-103750000D03*
X86900000Y-76350000D03*
D23*
X104550000Y-44800000D03*
D21*
X168100000Y-33800000D03*
X86050000Y-54200000D03*
X85990000Y-103350000D03*
X83530000Y-43660000D03*
X83430000Y-93990000D03*
X84322547Y-80353983D03*
D23*
X156460000Y-85000000D03*
D22*
X158900000Y-136830000D03*
X158900000Y-134290000D03*
X158900000Y-131750000D03*
X158900000Y-129210000D03*
X158900000Y-126670000D03*
X158900000Y-124130000D03*
X158900000Y-121590000D03*
X158900000Y-119050000D03*
X158900000Y-116510000D03*
X158900000Y-113970000D03*
X158900000Y-111430000D03*
X158900000Y-108890000D03*
X158900000Y-106350000D03*
X158900000Y-103810000D03*
X158900000Y-101270000D03*
X158900000Y-98730000D03*
X158900000Y-96190000D03*
X158900000Y-93650000D03*
X158900000Y-91110000D03*
X158900000Y-88570000D03*
X174140000Y-88570000D03*
X174140000Y-91110000D03*
X174140000Y-93650000D03*
X174140000Y-96190000D03*
X174140000Y-98730000D03*
X174140000Y-101270000D03*
X174140000Y-103810000D03*
X174140000Y-106350000D03*
X174140000Y-108890000D03*
X174140000Y-111430000D03*
X174140000Y-113970000D03*
X174140000Y-116510000D03*
X174140000Y-119050000D03*
X174140000Y-121590000D03*
X174140000Y-124130000D03*
X174140000Y-126670000D03*
X174140000Y-129210000D03*
X174140000Y-131750000D03*
X174140000Y-134290000D03*
X174140000Y-136830000D03*
%LPD*%
M02*
