M48
; DRILL file {KiCad 9.0.8-1.fc43} date 2026-04-15T12:42:20+0100
; FORMAT={-:-/ absolute / metric / decimal}
; #@! TF.CreationDate,2026-04-15T12:42:20+01:00
; #@! TF.GenerationSoftware,Kicad,Pcbnew,9.0.8-1.fc43
; #@! TF.FileFunction,Plated,1,4,PTH
FMAT,2
METRIC
; #@! TA.AperFunction,Plated,PTH,ComponentDrill
T1C0.800
; #@! TA.AperFunction,Plated,PTH,ComponentDrill
T2C2.000
%
G90
G05
T1
X79.303Y-64.389
X79.353Y-72.039
X82.253Y-28.389
X82.303Y-35.789
X85.103Y-40.839
X85.103Y-32.289
X87.683Y-35.789
X87.683Y-38.329
X87.683Y-40.869
X87.683Y-43.409
X92.553Y-55.539
X94.553Y-50.789
X95.303Y-35.789
X95.303Y-38.329
X95.303Y-40.869
X95.303Y-43.409
X97.553Y-32.239
X97.553Y-37.689
X97.953Y-68.889
X99.453Y-45.389
X99.753Y-37.689
X103.183Y-35.669
X103.183Y-38.209
X103.183Y-40.749
X103.183Y-43.289
X103.183Y-45.829
X103.183Y-48.369
X103.183Y-50.909
X105.653Y-68.889
X110.803Y-35.669
X110.803Y-38.209
X110.803Y-40.749
X110.803Y-43.289
X110.803Y-45.829
X110.803Y-48.369
X110.803Y-50.909
X118.493Y-35.669
X118.493Y-38.209
X118.493Y-40.749
X118.493Y-43.289
X118.493Y-45.829
X118.493Y-48.369
X118.493Y-50.909
X126.113Y-35.669
X126.113Y-38.209
X126.113Y-40.749
X126.113Y-43.289
X126.113Y-45.829
X126.113Y-48.369
X126.113Y-50.909
X130.803Y-40.539
X130.803Y-45.289
X134.153Y-42.739
X134.303Y-32.189
X137.053Y-59.289
X137.803Y-42.689
X137.853Y-107.889
X137.853Y-115.089
X138.203Y-32.189
X140.853Y-52.839
X141.103Y-36.989
X141.803Y-94.739
X142.803Y-107.889
X142.803Y-115.139
X142.803Y-124.639
X142.803Y-135.289
X144.713Y-42.759
X144.713Y-45.299
X144.713Y-47.839
X144.713Y-50.379
X144.713Y-52.919
X144.713Y-55.459
X144.713Y-57.999
X144.713Y-60.539
X144.713Y-63.079
X144.713Y-65.619
X144.713Y-68.159
X144.713Y-70.699
X144.713Y-73.239
X144.713Y-75.779
X144.713Y-78.319
X144.713Y-80.859
X144.713Y-83.399
X144.713Y-85.939
X144.713Y-88.479
X144.713Y-91.019
X150.453Y-130.489
X150.553Y-135.639
X150.553Y-138.139
X150.553Y-140.739
X150.553Y-143.239
X150.553Y-145.739
X153.683Y-130.539
X153.683Y-133.079
X153.683Y-135.619
X153.683Y-138.159
X153.683Y-140.699
X153.683Y-143.239
X153.683Y-145.779
X153.683Y-148.319
X159.953Y-42.759
X159.953Y-45.299
X159.953Y-47.839
X159.953Y-50.379
X159.953Y-52.919
X159.953Y-55.459
X159.953Y-57.999
X159.953Y-60.539
X159.953Y-63.079
X159.953Y-65.619
X159.953Y-68.159
X159.953Y-70.699
X159.953Y-73.239
X159.953Y-75.779
X159.953Y-78.319
X159.953Y-80.859
X159.953Y-83.399
X159.953Y-85.939
X159.953Y-88.479
X159.953Y-91.019
X161.303Y-130.539
X161.303Y-133.079
X161.303Y-135.619
X161.303Y-138.159
X161.303Y-140.699
X161.303Y-143.239
X161.303Y-145.779
X161.303Y-148.319
X162.303Y-94.539
X164.053Y-99.539
X164.053Y-102.539
X164.053Y-105.789
X164.053Y-109.039
X164.053Y-112.289
X164.053Y-115.539
X164.053Y-118.789
X164.053Y-122.039
X164.453Y-133.189
X164.453Y-135.689
X164.453Y-138.289
X164.453Y-140.789
X164.453Y-143.289
X164.503Y-148.339
X164.723Y-55.489
X164.723Y-58.039
X164.723Y-60.579
X164.723Y-63.119
X164.723Y-65.659
X164.723Y-68.199
X164.723Y-70.739
X164.723Y-73.279
X164.723Y-75.819
X164.723Y-78.359
X164.723Y-80.899
X164.753Y-52.889
X167.263Y-85.979
X167.303Y-96.539
X168.753Y-130.539
X168.753Y-135.639
X168.753Y-138.139
X168.753Y-140.739
X168.753Y-143.239
X168.753Y-145.739
X169.803Y-83.439
X169.803Y-85.979
X170.053Y-72.039
X170.753Y-52.889
X171.933Y-130.539
X171.933Y-133.079
X171.933Y-135.619
X171.933Y-138.159
X171.933Y-140.699
X171.933Y-143.239
X171.933Y-145.779
X171.933Y-148.319
X173.553Y-48.039
X175.903Y-65.649
X175.903Y-68.189
X175.903Y-70.729
X175.903Y-73.269
X175.903Y-75.809
X175.903Y-78.349
X175.903Y-80.889
X175.903Y-83.429
X179.553Y-130.539
X179.553Y-133.079
X179.553Y-135.619
X179.553Y-138.159
X179.553Y-140.699
X179.553Y-143.239
X179.553Y-145.779
X179.553Y-148.319
X181.303Y-48.039
X182.953Y-133.089
X182.953Y-135.589
X182.953Y-138.139
X182.953Y-140.689
X182.953Y-143.189
X182.953Y-148.339
X183.523Y-65.649
X183.523Y-68.189
X183.523Y-70.729
X183.523Y-73.269
X183.523Y-75.809
X183.523Y-78.349
X183.523Y-80.889
X183.523Y-83.429
X186.803Y-99.539
X186.803Y-102.539
X186.803Y-105.539
X186.803Y-109.039
X186.903Y-75.789
X186.903Y-78.339
X186.903Y-80.889
X186.903Y-83.389
X187.803Y-130.539
X187.803Y-133.039
X187.803Y-143.189
X190.933Y-130.539
X190.933Y-133.079
X190.933Y-135.619
X190.933Y-138.159
X190.933Y-140.699
X190.933Y-143.239
X190.933Y-145.779
X192.503Y-65.639
X192.503Y-68.179
X192.503Y-70.719
X192.503Y-73.259
X192.503Y-75.799
X192.503Y-78.339
X192.503Y-80.879
X192.503Y-83.419
X194.303Y-42.289
X198.553Y-130.539
X198.553Y-133.079
X198.553Y-135.619
X198.553Y-138.159
X198.553Y-140.699
X198.553Y-143.239
X198.553Y-145.779
X200.123Y-65.639
X200.123Y-68.179
X200.123Y-70.719
X200.123Y-73.259
X200.123Y-75.799
X200.123Y-78.339
X200.123Y-80.879
X200.123Y-83.419
X200.153Y-62.189
X200.52Y-126.393
X200.803Y-42.289
X200.903Y-48.189
X202.303Y-135.589
X202.303Y-145.789
X205.053Y-75.789
X205.053Y-78.339
X205.053Y-80.889
X205.053Y-83.439
X205.303Y-112.039
X205.303Y-115.539
X205.303Y-118.539
X205.303Y-122.039
X207.053Y-42.289
X208.303Y-70.789
X211.403Y-134.639
X211.453Y-108.239
X211.553Y-66.539
X211.553Y-87.039
X213.553Y-149.789
X214.053Y-87.039
X214.053Y-108.239
X214.053Y-134.739
X216.553Y-45.039
X216.653Y-144.239
X216.683Y-51.289
X216.683Y-53.829
X216.683Y-56.369
X216.683Y-58.909
X216.683Y-61.449
X216.683Y-63.989
X216.683Y-66.529
X216.683Y-71.789
X216.683Y-74.329
X216.683Y-76.869
X216.683Y-79.409
X216.683Y-81.949
X216.683Y-84.489
X216.683Y-87.029
X216.683Y-93.039
X216.683Y-95.579
X216.683Y-98.119
X216.683Y-100.659
X216.683Y-103.199
X216.683Y-105.739
X216.683Y-108.279
X216.683Y-119.539
X216.683Y-122.079
X216.683Y-124.619
X216.683Y-127.159
X216.683Y-129.699
X216.683Y-132.239
X216.683Y-134.779
X224.053Y-144.289
X224.303Y-45.039
X224.303Y-51.289
X224.303Y-53.829
X224.303Y-56.369
X224.303Y-58.909
X224.303Y-61.449
X224.303Y-63.989
X224.303Y-66.529
X224.303Y-71.789
X224.303Y-74.329
X224.303Y-76.869
X224.303Y-79.409
X224.303Y-81.949
X224.303Y-84.489
X224.303Y-87.029
X224.303Y-93.039
X224.303Y-95.579
X224.303Y-98.119
X224.303Y-100.659
X224.303Y-103.199
X224.303Y-105.739
X224.303Y-108.279
X224.303Y-119.539
X224.303Y-122.079
X224.303Y-124.619
X224.303Y-127.159
X224.303Y-129.699
X224.303Y-132.239
X224.303Y-134.779
X231.693Y-99.409
X231.693Y-103.409
X231.693Y-107.409
X231.693Y-111.409
X232.513Y-135.519
X232.513Y-139.519
X232.513Y-143.519
X232.513Y-147.519
X232.553Y-117.499
X232.553Y-121.499
X232.553Y-125.499
X232.553Y-129.499
X233.753Y-81.649
X233.753Y-85.649
X233.753Y-89.649
X233.753Y-93.649
X233.803Y-46.539
X233.803Y-50.539
X233.803Y-54.539
X233.803Y-58.539
X233.823Y-64.249
X233.823Y-68.249
X233.823Y-72.249
X233.823Y-76.249
X234.693Y-99.409
X234.693Y-103.409
X234.693Y-107.409
X234.693Y-111.409
X235.513Y-135.519
X235.513Y-139.519
X235.513Y-143.519
X235.513Y-147.519
X235.553Y-117.499
X235.553Y-121.499
X235.553Y-125.499
X235.553Y-129.499
X236.753Y-81.649
X236.753Y-85.649
X236.753Y-89.649
X236.753Y-93.649
X236.803Y-46.539
X236.803Y-50.539
X236.803Y-54.539
X236.803Y-58.539
X236.823Y-64.249
X236.823Y-68.249
X236.823Y-72.249
X236.823Y-76.249
T2
X87.853Y-63.139
X87.853Y-74.339
X87.853Y-85.339
X87.853Y-96.339
X87.853Y-110.539
X87.853Y-121.739
X87.853Y-132.539
X87.853Y-143.339
X92.553Y-63.139
X92.553Y-74.339
X92.553Y-85.339
X92.553Y-96.339
X92.553Y-110.539
X92.553Y-121.739
X92.553Y-132.539
X92.553Y-143.339
X97.253Y-63.139
X97.253Y-74.339
X97.253Y-85.339
X97.253Y-96.339
X97.253Y-110.539
X97.253Y-121.739
X97.253Y-132.539
X97.253Y-143.339
X117.253Y-110.539
X117.253Y-121.739
X117.253Y-132.539
X117.253Y-143.339
X117.453Y-85.339
X117.453Y-96.339
X117.503Y-63.139
X117.503Y-74.339
X121.953Y-110.539
X121.953Y-121.739
X121.953Y-132.539
X121.953Y-143.339
X122.153Y-85.339
X122.153Y-96.339
X122.203Y-63.139
X122.203Y-74.339
X126.653Y-110.539
X126.653Y-121.739
X126.653Y-132.539
X126.653Y-143.339
X126.853Y-85.339
X126.853Y-96.339
X126.903Y-63.139
X126.903Y-74.339
M30
