%TF.GenerationSoftware,KiCad,Pcbnew,9.0.8-1.fc43*%
%TF.CreationDate,2026-04-14T07:55:46+01:00*%
%TF.ProjectId,Scrumpi_JN,53637275-6d70-4695-9f4a-4e2e6b696361,rev?*%
%TF.SameCoordinates,Original*%
%TF.FileFunction,Copper,L4,Bot*%
%TF.FilePolarity,Positive*%
%FSLAX46Y46*%
G04 Gerber Fmt 4.6, Leading zero omitted, Abs format (unit mm)*
G04 Created by KiCad (PCBNEW 9.0.8-1.fc43) date 2026-04-14 07:55:46*
%MOMM*%
%LPD*%
G01*
G04 APERTURE LIST*
%TA.AperFunction,ComponentPad*%
%ADD10O,3.000000X5.000000*%
%TD*%
%TA.AperFunction,ComponentPad*%
%ADD11C,1.600000*%
%TD*%
%TA.AperFunction,ComponentPad*%
%ADD12O,2.400000X1.600000*%
%TD*%
%TA.AperFunction,ComponentPad*%
%ADD13C,2.000000*%
%TD*%
%TA.AperFunction,Conductor*%
%ADD14C,0.400000*%
%TD*%
G04 APERTURE END LIST*
D10*
%TO.P,REF\u002A\u002A,*%
%TO.N,*%
X170150000Y-138000000D03*
X174850000Y-138000000D03*
X179550000Y-138000000D03*
%TD*%
D11*
%TO.P,,*%
%TO.N,*%
X80150000Y-149700000D03*
%TD*%
%TO.P,,*%
%TO.N,*%
X94400000Y-151200000D03*
%TD*%
D12*
%TO.P,REF\u002A\u002A,1*%
%TO.N,N/C*%
X117250000Y-136000000D03*
%TO.P,REF\u002A\u002A,2*%
X117250000Y-138540000D03*
%TO.P,REF\u002A\u002A,3*%
X117250000Y-141080000D03*
%TO.P,REF\u002A\u002A,4*%
X117250000Y-143620000D03*
%TO.P,REF\u002A\u002A,5*%
X117250000Y-146160000D03*
%TO.P,REF\u002A\u002A,6*%
X117250000Y-148700000D03*
%TO.P,REF\u002A\u002A,7*%
X117250000Y-151240000D03*
%TO.P,REF\u002A\u002A,8*%
X117250000Y-153780000D03*
%TO.P,REF\u002A\u002A,9*%
X124870000Y-153780000D03*
%TO.P,REF\u002A\u002A,10*%
X124870000Y-151240000D03*
%TO.P,REF\u002A\u002A,11*%
X124870000Y-148700000D03*
%TO.P,REF\u002A\u002A,12*%
X124870000Y-146160000D03*
%TO.P,REF\u002A\u002A,13*%
X124870000Y-143620000D03*
%TO.P,REF\u002A\u002A,14*%
X124870000Y-141080000D03*
%TO.P,REF\u002A\u002A,15*%
X124870000Y-138540000D03*
%TO.P,REF\u002A\u002A,16*%
X124870000Y-136000000D03*
%TD*%
D11*
%TO.P,,*%
%TO.N,*%
X158600000Y-37650000D03*
%TD*%
%TO.P,,*%
%TO.N,*%
X60050000Y-87110000D03*
%TD*%
%TO.P,,*%
%TO.N,*%
X202250000Y-56250000D03*
%TD*%
%TO.P,,*%
%TO.N,*%
X132750000Y-124250000D03*
%TD*%
%TO.P,,*%
%TO.N,*%
X85250000Y-72000000D03*
%TD*%
%TO.P,,*%
%TO.N,*%
X60000000Y-60000000D03*
%TD*%
D13*
%TO.P,,*%
%TO.N,*%
X89750000Y-47750000D03*
%TD*%
D11*
%TO.P,,*%
%TO.N,*%
X109900000Y-83800000D03*
%TD*%
D13*
%TO.P,,*%
%TO.N,*%
X132080000Y-66040000D03*
%TD*%
D11*
%TO.P,,*%
%TO.N,*%
X127000000Y-88900000D03*
%TD*%
%TO.P,,*%
%TO.N,*%
X132750000Y-114500000D03*
%TD*%
D13*
%TO.P,,*%
%TO.N,*%
X132080000Y-78740000D03*
%TD*%
D11*
%TO.P,,*%
%TO.N,*%
X94500000Y-141050000D03*
%TD*%
%TO.P,,*%
%TO.N,*%
X132350000Y-138650000D03*
%TD*%
%TO.P,,*%
%TO.N,*%
X127000000Y-91440000D03*
%TD*%
%TO.P,,*%
%TO.N,*%
X63000000Y-60000000D03*
%TD*%
%TO.P,,*%
%TO.N,*%
X128050000Y-151200000D03*
%TD*%
D10*
%TO.P,REF\u002A\u002A,*%
%TO.N,*%
X199550000Y-127200000D03*
X204250000Y-127200000D03*
X208950000Y-127200000D03*
%TD*%
D11*
%TO.P,,*%
%TO.N,*%
X129500000Y-102000000D03*
%TD*%
D13*
%TO.P,,*%
%TO.N,*%
X132080000Y-60950000D03*
%TD*%
D11*
%TO.P,,*%
%TO.N,*%
X61290000Y-148980000D03*
%TD*%
D13*
%TO.P,,*%
%TO.N,*%
X132080000Y-83820000D03*
%TD*%
D11*
%TO.P,,*%
%TO.N,*%
X96282988Y-131853577D03*
%TD*%
%TO.P,,*%
%TO.N,*%
X154000000Y-130100000D03*
%TD*%
D13*
%TO.P,,*%
%TO.N,*%
X123250000Y-53500000D03*
%TD*%
D11*
%TO.P,,*%
%TO.N,*%
X64250000Y-130960000D03*
%TD*%
%TO.P,,*%
%TO.N,*%
X91500000Y-117500000D03*
%TD*%
%TO.P,,*%
%TO.N,*%
X199250000Y-37700000D03*
%TD*%
%TO.P,,*%
%TO.N,*%
X82750000Y-92500000D03*
%TD*%
%TO.P,,*%
%TO.N,*%
X132350000Y-143750000D03*
%TD*%
D10*
%TO.P,REF\u002A\u002A,*%
%TO.N,*%
X169900000Y-79800000D03*
X174600000Y-79800000D03*
X179300000Y-79800000D03*
%TD*%
D11*
%TO.P,,*%
%TO.N,*%
X62110000Y-116870000D03*
%TD*%
%TO.P,,*%
%TO.N,*%
X113400000Y-138650000D03*
%TD*%
%TO.P,,*%
%TO.N,*%
X109900000Y-81250000D03*
%TD*%
%TO.P,,*%
%TO.N,*%
X146250000Y-141100000D03*
%TD*%
%TO.P,,*%
%TO.N,*%
X162500000Y-37650000D03*
%TD*%
%TO.P,,*%
%TO.N,*%
X60050000Y-95110000D03*
%TD*%
%TO.P,,*%
%TO.N,*%
X166000000Y-46000000D03*
%TD*%
%TO.P,,*%
%TO.N,*%
X134500000Y-100000000D03*
%TD*%
D12*
%TO.P,REF\u002A\u002A,1*%
%TO.N,N/C*%
X72500000Y-56750000D03*
%TO.P,REF\u002A\u002A,2*%
X72500000Y-59290000D03*
%TO.P,REF\u002A\u002A,3*%
X72500000Y-61830000D03*
%TO.P,REF\u002A\u002A,4*%
X72500000Y-64370000D03*
%TO.P,REF\u002A\u002A,5*%
X72500000Y-66910000D03*
%TO.P,REF\u002A\u002A,6*%
X72500000Y-69450000D03*
%TO.P,REF\u002A\u002A,7*%
X72500000Y-71990000D03*
%TO.P,REF\u002A\u002A,8*%
X80120000Y-71990000D03*
%TO.P,REF\u002A\u002A,9*%
X80120000Y-69450000D03*
%TO.P,REF\u002A\u002A,10*%
X80120000Y-66910000D03*
%TO.P,REF\u002A\u002A,11*%
X80120000Y-64370000D03*
%TO.P,REF\u002A\u002A,12*%
X80120000Y-61830000D03*
%TO.P,REF\u002A\u002A,13*%
X80120000Y-59290000D03*
%TO.P,REF\u002A\u002A,14*%
X80120000Y-56750000D03*
%TD*%
D10*
%TO.P,REF\u002A\u002A,*%
%TO.N,*%
X199550000Y-90800000D03*
X204250000Y-90800000D03*
X208950000Y-90800000D03*
%TD*%
D11*
%TO.P,,*%
%TO.N,*%
X191150000Y-74350000D03*
%TD*%
%TO.P,,*%
%TO.N,*%
X155000000Y-100200000D03*
%TD*%
D10*
%TO.P,REF\u002A\u002A,*%
%TO.N,*%
X199550000Y-148800000D03*
X204250000Y-148800000D03*
X208950000Y-148800000D03*
%TD*%
D13*
%TO.P,,*%
%TO.N,*%
X96000000Y-47750000D03*
%TD*%
D11*
%TO.P,,*%
%TO.N,*%
X61250000Y-122960000D03*
%TD*%
%TO.P,,*%
%TO.N,*%
X63050000Y-87110000D03*
%TD*%
%TO.P,,*%
%TO.N,*%
X59980000Y-69710000D03*
%TD*%
D10*
%TO.P,REF\u002A\u002A,*%
%TO.N,*%
X199550000Y-68600000D03*
X204250000Y-68600000D03*
X208950000Y-68600000D03*
%TD*%
D11*
%TO.P,,*%
%TO.N,*%
X217500000Y-69850000D03*
%TD*%
D13*
%TO.P,,*%
%TO.N,*%
X72500000Y-50500000D03*
%TD*%
D11*
%TO.P,,*%
%TO.N,*%
X132350000Y-146250000D03*
%TD*%
%TO.P,,*%
%TO.N,*%
X214550000Y-33850000D03*
%TD*%
%TO.P,,*%
%TO.N,*%
X62980000Y-81710000D03*
%TD*%
%TO.P,,*%
%TO.N,*%
X132750000Y-105000000D03*
%TD*%
D12*
%TO.P,REF\u002A\u002A,1*%
%TO.N,N/C*%
X113280000Y-71110000D03*
%TO.P,REF\u002A\u002A,2*%
X113280000Y-73650000D03*
%TO.P,REF\u002A\u002A,3*%
X113280000Y-76190000D03*
%TO.P,REF\u002A\u002A,4*%
X113280000Y-78730000D03*
%TO.P,REF\u002A\u002A,5*%
X113280000Y-81270000D03*
%TO.P,REF\u002A\u002A,6*%
X113280000Y-83810000D03*
%TO.P,REF\u002A\u002A,7*%
X113280000Y-86350000D03*
%TO.P,REF\u002A\u002A,8*%
X113280000Y-88890000D03*
%TO.P,REF\u002A\u002A,9*%
X120900000Y-88890000D03*
%TO.P,REF\u002A\u002A,10*%
X120900000Y-86350000D03*
%TO.P,REF\u002A\u002A,11*%
X120900000Y-83810000D03*
%TO.P,REF\u002A\u002A,12*%
X120900000Y-81270000D03*
%TO.P,REF\u002A\u002A,13*%
X120900000Y-78730000D03*
%TO.P,REF\u002A\u002A,14*%
X120900000Y-76190000D03*
%TO.P,REF\u002A\u002A,15*%
X120900000Y-73650000D03*
%TO.P,REF\u002A\u002A,16*%
X120900000Y-71110000D03*
%TD*%
D11*
%TO.P,,*%
%TO.N,*%
X128050000Y-148700000D03*
%TD*%
%TO.P,,*%
%TO.N,*%
X59980000Y-77710000D03*
%TD*%
%TO.P,,*%
%TO.N,*%
X158950000Y-120550000D03*
%TD*%
%TO.P,,*%
%TO.N,*%
X128050000Y-143600000D03*
%TD*%
%TO.P,,*%
%TO.N,*%
X61250000Y-134960000D03*
%TD*%
%TO.P,,*%
%TO.N,*%
X146250000Y-148700000D03*
%TD*%
%TO.P,,*%
%TO.N,*%
X64250000Y-134960000D03*
%TD*%
%TO.P,,*%
%TO.N,*%
X132750000Y-127500000D03*
%TD*%
D12*
%TO.P,REF\u002A\u002A,1*%
%TO.N,N/C*%
X98250000Y-136000000D03*
%TO.P,REF\u002A\u002A,2*%
X98250000Y-138540000D03*
%TO.P,REF\u002A\u002A,3*%
X98250000Y-141080000D03*
%TO.P,REF\u002A\u002A,4*%
X98250000Y-143620000D03*
%TO.P,REF\u002A\u002A,5*%
X98250000Y-146160000D03*
%TO.P,REF\u002A\u002A,6*%
X98250000Y-148700000D03*
%TO.P,REF\u002A\u002A,7*%
X98250000Y-151240000D03*
%TO.P,REF\u002A\u002A,8*%
X105870000Y-151240000D03*
%TO.P,REF\u002A\u002A,9*%
X105870000Y-148700000D03*
%TO.P,REF\u002A\u002A,10*%
X105870000Y-146160000D03*
%TO.P,REF\u002A\u002A,11*%
X105870000Y-143620000D03*
%TO.P,REF\u002A\u002A,12*%
X105870000Y-141080000D03*
%TO.P,REF\u002A\u002A,13*%
X105870000Y-138540000D03*
%TO.P,REF\u002A\u002A,14*%
X105870000Y-136000000D03*
%TD*%
%TO.P,REF\u002A\u002A,1*%
%TO.N,N/C*%
X170690000Y-41130000D03*
%TO.P,REF\u002A\u002A,2*%
X170690000Y-43670000D03*
%TO.P,REF\u002A\u002A,3*%
X170690000Y-46210000D03*
%TO.P,REF\u002A\u002A,4*%
X170690000Y-48750000D03*
%TO.P,REF\u002A\u002A,5*%
X170690000Y-51290000D03*
%TO.P,REF\u002A\u002A,6*%
X170690000Y-53830000D03*
%TO.P,REF\u002A\u002A,7*%
X170690000Y-56370000D03*
%TO.P,REF\u002A\u002A,8*%
X178310000Y-56370000D03*
%TO.P,REF\u002A\u002A,9*%
X178310000Y-53830000D03*
%TO.P,REF\u002A\u002A,10*%
X178310000Y-51290000D03*
%TO.P,REF\u002A\u002A,11*%
X178310000Y-48750000D03*
%TO.P,REF\u002A\u002A,12*%
X178310000Y-46210000D03*
%TO.P,REF\u002A\u002A,13*%
X178310000Y-43670000D03*
%TO.P,REF\u002A\u002A,14*%
X178310000Y-41130000D03*
%TD*%
D13*
%TO.P,,*%
%TO.N,*%
X132080000Y-76200000D03*
%TD*%
D11*
%TO.P,,*%
%TO.N,*%
X155950000Y-58300000D03*
%TD*%
%TO.P,,*%
%TO.N,*%
X62980000Y-69710000D03*
%TD*%
%TO.P,,*%
%TO.N,*%
X83000000Y-113750000D03*
%TD*%
%TO.P,,*%
%TO.N,*%
X166000000Y-50750000D03*
%TD*%
%TO.P,,*%
%TO.N,*%
X154000000Y-113350000D03*
%TD*%
%TO.P,,*%
%TO.N,*%
X217450000Y-77500000D03*
%TD*%
%TO.P,,*%
%TO.N,*%
X155700000Y-42450000D03*
%TD*%
%TO.P,,*%
%TO.N,*%
X109000000Y-138500000D03*
%TD*%
%TO.P,,*%
%TO.N,*%
X126750000Y-77500000D03*
%TD*%
%TO.P,,*%
%TO.N,*%
X91500000Y-124000000D03*
%TD*%
D10*
%TO.P,REF\u002A\u002A,*%
%TO.N,*%
X169950000Y-101800000D03*
X174650000Y-101800000D03*
X179350000Y-101800000D03*
%TD*%
D11*
%TO.P,,*%
%TO.N,*%
X132750000Y-108000000D03*
%TD*%
%TO.P,,*%
%TO.N,*%
X132750000Y-117750000D03*
%TD*%
D13*
%TO.P,,*%
%TO.N,*%
X126050000Y-58350000D03*
%TD*%
%TO.P,,*%
%TO.N,*%
X102500000Y-47750000D03*
%TD*%
D11*
%TO.P,,*%
%TO.N,*%
X113400000Y-143750000D03*
%TD*%
%TO.P,,*%
%TO.N,*%
X62110000Y-108870000D03*
%TD*%
%TO.P,,*%
%TO.N,*%
X146250000Y-151200000D03*
%TD*%
%TO.P,,*%
%TO.N,*%
X64290000Y-152980000D03*
%TD*%
%TO.P,,*%
%TO.N,*%
X113400000Y-148750000D03*
%TD*%
D13*
%TO.P,,*%
%TO.N,*%
X132080000Y-71120000D03*
%TD*%
D11*
%TO.P,,*%
%TO.N,*%
X158950000Y-113350000D03*
%TD*%
%TO.P,,*%
%TO.N,*%
X85500000Y-140250000D03*
%TD*%
D13*
%TO.P,,*%
%TO.N,*%
X159750000Y-64750000D03*
%TD*%
D11*
%TO.P,,*%
%TO.N,*%
X61250000Y-130960000D03*
%TD*%
D12*
%TO.P,REF\u002A\u002A,1*%
%TO.N,N/C*%
X186000000Y-41130000D03*
%TO.P,REF\u002A\u002A,2*%
X186000000Y-43670000D03*
%TO.P,REF\u002A\u002A,3*%
X186000000Y-46210000D03*
%TO.P,REF\u002A\u002A,4*%
X186000000Y-48750000D03*
%TO.P,REF\u002A\u002A,5*%
X186000000Y-51290000D03*
%TO.P,REF\u002A\u002A,6*%
X186000000Y-53830000D03*
%TO.P,REF\u002A\u002A,7*%
X186000000Y-56370000D03*
%TO.P,REF\u002A\u002A,8*%
X193620000Y-56370000D03*
%TO.P,REF\u002A\u002A,9*%
X193620000Y-53830000D03*
%TO.P,REF\u002A\u002A,10*%
X193620000Y-51290000D03*
%TO.P,REF\u002A\u002A,11*%
X193620000Y-48750000D03*
%TO.P,REF\u002A\u002A,12*%
X193620000Y-46210000D03*
%TO.P,REF\u002A\u002A,13*%
X193620000Y-43670000D03*
%TO.P,REF\u002A\u002A,14*%
X193620000Y-41130000D03*
%TD*%
D11*
%TO.P,,*%
%TO.N,*%
X129540000Y-91440000D03*
%TD*%
%TO.P,,*%
%TO.N,*%
X72750000Y-149750000D03*
%TD*%
%TO.P,,*%
%TO.N,*%
X88500000Y-76250000D03*
%TD*%
%TO.P,,*%
%TO.N,*%
X85250000Y-92500000D03*
%TD*%
%TO.P,,*%
%TO.N,*%
X63050000Y-91110000D03*
%TD*%
%TO.P,,*%
%TO.N,*%
X132750000Y-121000000D03*
%TD*%
%TO.P,,*%
%TO.N,*%
X146250000Y-146200000D03*
%TD*%
D10*
%TO.P,REF\u002A\u002A,*%
%TO.N,*%
X169900000Y-68600000D03*
X174600000Y-68600000D03*
X179300000Y-68600000D03*
%TD*%
D11*
%TO.P,,*%
%TO.N,*%
X65110000Y-116870000D03*
%TD*%
D13*
%TO.P,,*%
%TO.N,*%
X132080000Y-81280000D03*
%TD*%
D11*
%TO.P,,*%
%TO.N,*%
X91500000Y-121000000D03*
%TD*%
%TO.P,,*%
%TO.N,*%
X113400000Y-146250000D03*
%TD*%
%TO.P,,*%
%TO.N,*%
X204250000Y-61000000D03*
%TD*%
D13*
%TO.P,,*%
%TO.N,*%
X115500000Y-53500000D03*
%TD*%
D12*
%TO.P,REF\u002A\u002A,1*%
%TO.N,N/C*%
X72500000Y-125000000D03*
%TO.P,REF\u002A\u002A,2*%
X72500000Y-127540000D03*
%TO.P,REF\u002A\u002A,3*%
X72500000Y-130080000D03*
%TO.P,REF\u002A\u002A,4*%
X72500000Y-132620000D03*
%TO.P,REF\u002A\u002A,5*%
X72500000Y-135160000D03*
%TO.P,REF\u002A\u002A,6*%
X72500000Y-137700000D03*
%TO.P,REF\u002A\u002A,7*%
X72500000Y-140240000D03*
%TO.P,REF\u002A\u002A,8*%
X80120000Y-140240000D03*
%TO.P,REF\u002A\u002A,9*%
X80120000Y-137700000D03*
%TO.P,REF\u002A\u002A,10*%
X80120000Y-135160000D03*
%TO.P,REF\u002A\u002A,11*%
X80120000Y-132620000D03*
%TO.P,REF\u002A\u002A,12*%
X80120000Y-130080000D03*
%TO.P,REF\u002A\u002A,13*%
X80120000Y-127540000D03*
%TO.P,REF\u002A\u002A,14*%
X80120000Y-125000000D03*
%TD*%
D13*
%TO.P,,*%
%TO.N,*%
X80250000Y-50500000D03*
%TD*%
D11*
%TO.P,,*%
%TO.N,*%
X91750000Y-83800000D03*
%TD*%
%TO.P,,*%
%TO.N,*%
X154000000Y-140750000D03*
%TD*%
D10*
%TO.P,REF\u002A\u002A,*%
%TO.N,*%
X170150000Y-127200000D03*
X174850000Y-127200000D03*
X179550000Y-127200000D03*
%TD*%
%TO.P,REF\u002A\u002A,*%
%TO.N,*%
X199550000Y-101800000D03*
X204250000Y-101800000D03*
X208950000Y-101800000D03*
%TD*%
D11*
%TO.P,,*%
%TO.N,*%
X128050000Y-146200000D03*
%TD*%
%TO.P,,*%
%TO.N,*%
X132350000Y-148750000D03*
%TD*%
%TO.P,,*%
%TO.N,*%
X62980000Y-77710000D03*
%TD*%
%TO.P,,*%
%TO.N,*%
X159000000Y-48150000D03*
%TD*%
%TO.P,,*%
%TO.N,*%
X61250000Y-126960000D03*
%TD*%
%TO.P,,*%
%TO.N,*%
X63000000Y-56000000D03*
%TD*%
D13*
%TO.P,,*%
%TO.N,*%
X132080000Y-63500000D03*
%TD*%
D11*
%TO.P,,*%
%TO.N,*%
X128050000Y-136000000D03*
%TD*%
D12*
%TO.P,REF\u002A\u002A,1*%
%TO.N,N/C*%
X72500000Y-98500000D03*
%TO.P,REF\u002A\u002A,2*%
X72500000Y-101040000D03*
%TO.P,REF\u002A\u002A,3*%
X72500000Y-103580000D03*
%TO.P,REF\u002A\u002A,4*%
X72500000Y-106120000D03*
%TO.P,REF\u002A\u002A,5*%
X72500000Y-108660000D03*
%TO.P,REF\u002A\u002A,6*%
X72500000Y-111200000D03*
%TO.P,REF\u002A\u002A,7*%
X72500000Y-113740000D03*
%TO.P,REF\u002A\u002A,8*%
X80120000Y-113740000D03*
%TO.P,REF\u002A\u002A,9*%
X80120000Y-111200000D03*
%TO.P,REF\u002A\u002A,10*%
X80120000Y-108660000D03*
%TO.P,REF\u002A\u002A,11*%
X80120000Y-106120000D03*
%TO.P,REF\u002A\u002A,12*%
X80120000Y-103580000D03*
%TO.P,REF\u002A\u002A,13*%
X80120000Y-101040000D03*
%TO.P,REF\u002A\u002A,14*%
X80120000Y-98500000D03*
%TD*%
D11*
%TO.P,,*%
%TO.N,*%
X109000000Y-148650000D03*
%TD*%
%TO.P,,*%
%TO.N,*%
X110000000Y-111000000D03*
%TD*%
%TO.P,,*%
%TO.N,*%
X109900000Y-88850000D03*
%TD*%
D13*
%TO.P,,*%
%TO.N,*%
X132080000Y-73660000D03*
%TD*%
D11*
%TO.P,,*%
%TO.N,*%
X65110000Y-108870000D03*
%TD*%
%TO.P,,*%
%TO.N,*%
X59980000Y-81710000D03*
%TD*%
%TO.P,,*%
%TO.N,*%
X162650000Y-48200000D03*
%TD*%
D10*
%TO.P,REF\u002A\u002A,*%
%TO.N,*%
X170150000Y-148800000D03*
X174850000Y-148800000D03*
X179550000Y-148800000D03*
%TD*%
D11*
%TO.P,,*%
%TO.N,*%
X110000000Y-108000000D03*
%TD*%
%TO.P,,*%
%TO.N,*%
X109000000Y-136000000D03*
%TD*%
%TO.P,,*%
%TO.N,*%
X59980000Y-73710000D03*
%TD*%
%TO.P,,*%
%TO.N,*%
X110000000Y-114500000D03*
%TD*%
%TO.P,,*%
%TO.N,*%
X61290000Y-152980000D03*
%TD*%
D13*
%TO.P,,*%
%TO.N,*%
X132080000Y-86360000D03*
%TD*%
D10*
%TO.P,REF\u002A\u002A,*%
%TO.N,*%
X199550000Y-79800000D03*
X204250000Y-79800000D03*
X208950000Y-79800000D03*
%TD*%
D11*
%TO.P,,*%
%TO.N,*%
X60000000Y-56000000D03*
%TD*%
%TO.P,,*%
%TO.N,*%
X65110000Y-112870000D03*
%TD*%
%TO.P,,*%
%TO.N,*%
X63050000Y-99110000D03*
%TD*%
%TO.P,,*%
%TO.N,*%
X214500000Y-41250000D03*
%TD*%
%TO.P,,*%
%TO.N,*%
X110000000Y-105000000D03*
%TD*%
D12*
%TO.P,REF\u002A\u002A,1*%
%TO.N,N/C*%
X96680000Y-71100000D03*
%TO.P,REF\u002A\u002A,2*%
X96680000Y-73640000D03*
%TO.P,REF\u002A\u002A,3*%
X96680000Y-76180000D03*
%TO.P,REF\u002A\u002A,4*%
X96680000Y-78720000D03*
%TO.P,REF\u002A\u002A,5*%
X96680000Y-81260000D03*
%TO.P,REF\u002A\u002A,6*%
X96680000Y-83800000D03*
%TO.P,REF\u002A\u002A,7*%
X96680000Y-86340000D03*
%TO.P,REF\u002A\u002A,8*%
X96680000Y-88880000D03*
%TO.P,REF\u002A\u002A,9*%
X104300000Y-88880000D03*
%TO.P,REF\u002A\u002A,10*%
X104300000Y-86340000D03*
%TO.P,REF\u002A\u002A,11*%
X104300000Y-83800000D03*
%TO.P,REF\u002A\u002A,12*%
X104300000Y-81260000D03*
%TO.P,REF\u002A\u002A,13*%
X104300000Y-78720000D03*
%TO.P,REF\u002A\u002A,14*%
X104300000Y-76180000D03*
%TO.P,REF\u002A\u002A,15*%
X104300000Y-73640000D03*
%TO.P,REF\u002A\u002A,16*%
X104300000Y-71100000D03*
%TD*%
D11*
%TO.P,,*%
%TO.N,*%
X64250000Y-126960000D03*
%TD*%
%TO.P,,*%
%TO.N,*%
X63000000Y-64000000D03*
%TD*%
%TO.P,,*%
%TO.N,*%
X91750000Y-81250000D03*
%TD*%
%TO.P,,*%
%TO.N,*%
X198850000Y-74350000D03*
%TD*%
%TO.P,,*%
%TO.N,*%
X61290000Y-140980000D03*
%TD*%
%TO.P,,*%
%TO.N,*%
X197350000Y-50850000D03*
%TD*%
%TO.P,,*%
%TO.N,*%
X91750000Y-88900000D03*
%TD*%
D13*
%TO.P,,*%
%TO.N,*%
X132080000Y-68580000D03*
%TD*%
D11*
%TO.P,,*%
%TO.N,*%
X83250000Y-155250000D03*
%TD*%
%TO.P,,*%
%TO.N,*%
X64290000Y-148980000D03*
%TD*%
%TO.P,,*%
%TO.N,*%
X146250000Y-143600000D03*
%TD*%
D12*
%TO.P,REF\u002A\u002A,1*%
%TO.N,N/C*%
X72500000Y-77250000D03*
%TO.P,REF\u002A\u002A,2*%
X72500000Y-79790000D03*
%TO.P,REF\u002A\u002A,3*%
X72500000Y-82330000D03*
%TO.P,REF\u002A\u002A,4*%
X72500000Y-84870000D03*
%TO.P,REF\u002A\u002A,5*%
X72500000Y-87410000D03*
%TO.P,REF\u002A\u002A,6*%
X72500000Y-89950000D03*
%TO.P,REF\u002A\u002A,7*%
X72500000Y-92490000D03*
%TO.P,REF\u002A\u002A,8*%
X80120000Y-92490000D03*
%TO.P,REF\u002A\u002A,9*%
X80120000Y-89950000D03*
%TO.P,REF\u002A\u002A,10*%
X80120000Y-87410000D03*
%TO.P,REF\u002A\u002A,11*%
X80120000Y-84870000D03*
%TO.P,REF\u002A\u002A,12*%
X80120000Y-82330000D03*
%TO.P,REF\u002A\u002A,13*%
X80120000Y-79790000D03*
%TO.P,REF\u002A\u002A,14*%
X80120000Y-77250000D03*
%TD*%
D11*
%TO.P,,*%
%TO.N,*%
X85500000Y-113750000D03*
%TD*%
D10*
%TO.P,REF\u002A\u002A,*%
%TO.N,*%
X199550000Y-138000000D03*
X204250000Y-138000000D03*
X208950000Y-138000000D03*
%TD*%
D13*
%TO.P,,*%
%TO.N,*%
X95900000Y-53650000D03*
%TD*%
D11*
%TO.P,,*%
%TO.N,*%
X64290000Y-144980000D03*
%TD*%
%TO.P,,*%
%TO.N,*%
X64290000Y-140980000D03*
%TD*%
%TO.P,,*%
%TO.N,*%
X211700000Y-46300000D03*
%TD*%
%TO.P,REF\u002A\u002A,1*%
%TO.N,N/C*%
X201500000Y-41250000D03*
%TO.P,REF\u002A\u002A,2*%
X201500000Y-43790000D03*
%TO.P,REF\u002A\u002A,3*%
X201500000Y-46330000D03*
%TO.P,REF\u002A\u002A,4*%
X201500000Y-48870000D03*
%TO.P,REF\u002A\u002A,5*%
X209120000Y-48870000D03*
%TO.P,REF\u002A\u002A,6*%
X209120000Y-46330000D03*
%TO.P,REF\u002A\u002A,7*%
X209120000Y-43790000D03*
%TO.P,REF\u002A\u002A,8*%
X209120000Y-41250000D03*
%TD*%
%TO.P,,*%
%TO.N,*%
X65110000Y-104870000D03*
%TD*%
%TO.P,,*%
%TO.N,*%
X154000000Y-120600000D03*
%TD*%
%TO.P,,*%
%TO.N,*%
X62110000Y-104870000D03*
%TD*%
%TO.P,,*%
%TO.N,*%
X128050000Y-141100000D03*
%TD*%
D10*
%TO.P,REF\u002A\u002A,*%
%TO.N,*%
X169950000Y-90800000D03*
X174650000Y-90800000D03*
X179350000Y-90800000D03*
%TD*%
D11*
%TO.P,,*%
%TO.N,*%
X60000000Y-52000000D03*
%TD*%
D10*
%TO.P,REF\u002A\u002A,*%
%TO.N,*%
X170150000Y-116000000D03*
X174850000Y-116000000D03*
X179550000Y-116000000D03*
%TD*%
D11*
%TO.P,,*%
%TO.N,*%
X113400000Y-141150000D03*
%TD*%
%TO.P,,*%
%TO.N,*%
X96650000Y-67650000D03*
%TD*%
%TO.P,,*%
%TO.N,*%
X197050000Y-43150000D03*
%TD*%
%TO.P,,*%
%TO.N,*%
X63000000Y-52000000D03*
%TD*%
%TO.P,,*%
%TO.N,*%
X60050000Y-91110000D03*
%TD*%
%TO.P,,*%
%TO.N,*%
X61290000Y-144980000D03*
%TD*%
%TO.P,,*%
%TO.N,*%
X91750000Y-86350000D03*
%TD*%
%TO.P,,*%
%TO.N,*%
X132350000Y-141150000D03*
%TD*%
D12*
%TO.P,REF\u002A\u002A,1*%
%TO.N,N/C*%
X135500000Y-136000000D03*
%TO.P,REF\u002A\u002A,2*%
X135500000Y-138540000D03*
%TO.P,REF\u002A\u002A,3*%
X135500000Y-141080000D03*
%TO.P,REF\u002A\u002A,4*%
X135500000Y-143620000D03*
%TO.P,REF\u002A\u002A,5*%
X135500000Y-146160000D03*
%TO.P,REF\u002A\u002A,6*%
X135500000Y-148700000D03*
%TO.P,REF\u002A\u002A,7*%
X135500000Y-151240000D03*
%TO.P,REF\u002A\u002A,8*%
X135500000Y-153780000D03*
%TO.P,REF\u002A\u002A,9*%
X143120000Y-153780000D03*
%TO.P,REF\u002A\u002A,10*%
X143120000Y-151240000D03*
%TO.P,REF\u002A\u002A,11*%
X143120000Y-148700000D03*
%TO.P,REF\u002A\u002A,12*%
X143120000Y-146160000D03*
%TO.P,REF\u002A\u002A,13*%
X143120000Y-143620000D03*
%TO.P,REF\u002A\u002A,14*%
X143120000Y-141080000D03*
%TO.P,REF\u002A\u002A,15*%
X143120000Y-138540000D03*
%TO.P,REF\u002A\u002A,16*%
X143120000Y-136000000D03*
%TD*%
D10*
%TO.P,REF\u002A\u002A,*%
%TO.N,*%
X199550000Y-116000000D03*
X204250000Y-116000000D03*
X208950000Y-116000000D03*
%TD*%
D11*
%TO.P,,*%
%TO.N,*%
X109900000Y-86350000D03*
%TD*%
%TO.P,,*%
%TO.N,*%
X91500000Y-127500000D03*
%TD*%
%TO.P,,*%
%TO.N,*%
X199250000Y-43150000D03*
%TD*%
%TO.P,,*%
%TO.N,*%
X132750000Y-111250000D03*
%TD*%
%TO.P,,*%
%TO.N,*%
X63050000Y-95110000D03*
%TD*%
%TO.P,,*%
%TO.N,*%
X83000000Y-140250000D03*
%TD*%
%TO.P,,*%
%TO.N,*%
X146350000Y-135950000D03*
%TD*%
%TO.P,,*%
%TO.N,*%
X62980000Y-73710000D03*
%TD*%
%TO.P,,*%
%TO.N,*%
X64250000Y-122960000D03*
%TD*%
%TO.P,,*%
%TO.N,*%
X60000000Y-64000000D03*
%TD*%
%TO.P,,*%
%TO.N,*%
X62110000Y-112870000D03*
%TD*%
%TO.P,,*%
%TO.N,*%
X60050000Y-99110000D03*
%TD*%
D13*
%TO.P,,*%
%TO.N,*%
X132050000Y-58350000D03*
%TD*%
D12*
%TO.P,REF\u002A\u002A,1*%
%TO.N,N/C*%
X152090000Y-48220000D03*
%TO.P,REF\u002A\u002A,2*%
X152090000Y-50760000D03*
%TO.P,REF\u002A\u002A,3*%
X152090000Y-53300000D03*
%TO.P,REF\u002A\u002A,4*%
X152090000Y-55840000D03*
%TO.P,REF\u002A\u002A,5*%
X152090000Y-58380000D03*
%TO.P,REF\u002A\u002A,6*%
X152090000Y-60920000D03*
%TO.P,REF\u002A\u002A,7*%
X152090000Y-63460000D03*
%TO.P,REF\u002A\u002A,8*%
X152090000Y-66000000D03*
%TO.P,REF\u002A\u002A,9*%
X152090000Y-68540000D03*
%TO.P,REF\u002A\u002A,10*%
X152090000Y-71080000D03*
%TO.P,REF\u002A\u002A,11*%
X152090000Y-73620000D03*
%TO.P,REF\u002A\u002A,12*%
X152090000Y-76160000D03*
%TO.P,REF\u002A\u002A,13*%
X152090000Y-78700000D03*
%TO.P,REF\u002A\u002A,14*%
X152090000Y-81240000D03*
%TO.P,REF\u002A\u002A,15*%
X152090000Y-83780000D03*
%TO.P,REF\u002A\u002A,16*%
X152090000Y-86320000D03*
%TO.P,REF\u002A\u002A,17*%
X152090000Y-88860000D03*
%TO.P,REF\u002A\u002A,18*%
X152090000Y-91400000D03*
%TO.P,REF\u002A\u002A,19*%
X152090000Y-93940000D03*
%TO.P,REF\u002A\u002A,20*%
X152090000Y-96480000D03*
%TO.P,REF\u002A\u002A,21*%
X136850000Y-96480000D03*
%TO.P,REF\u002A\u002A,22*%
X136850000Y-93940000D03*
%TO.P,REF\u002A\u002A,23*%
X136850000Y-91400000D03*
%TO.P,REF\u002A\u002A,24*%
X136850000Y-88860000D03*
%TO.P,REF\u002A\u002A,25*%
X136850000Y-86320000D03*
%TO.P,REF\u002A\u002A,26*%
X136850000Y-83780000D03*
%TO.P,REF\u002A\u002A,27*%
X136850000Y-81240000D03*
%TO.P,REF\u002A\u002A,28*%
X136850000Y-78700000D03*
%TO.P,REF\u002A\u002A,29*%
X136850000Y-76160000D03*
%TO.P,REF\u002A\u002A,30*%
X136850000Y-73620000D03*
%TO.P,REF\u002A\u002A,31*%
X136850000Y-71080000D03*
%TO.P,REF\u002A\u002A,32*%
X136850000Y-68540000D03*
%TO.P,REF\u002A\u002A,33*%
X136850000Y-66000000D03*
%TO.P,REF\u002A\u002A,34*%
X136850000Y-63460000D03*
%TO.P,REF\u002A\u002A,35*%
X136850000Y-60920000D03*
%TO.P,REF\u002A\u002A,36*%
X136850000Y-58380000D03*
%TO.P,REF\u002A\u002A,37*%
X136850000Y-55840000D03*
%TO.P,REF\u002A\u002A,38*%
X136850000Y-53300000D03*
%TO.P,REF\u002A\u002A,39*%
X136850000Y-50760000D03*
%TO.P,REF\u002A\u002A,40*%
X136850000Y-48220000D03*
%TD*%
D14*
%TO.N,*%
X148550000Y-63300000D02*
X148550000Y-55600000D01*
X156450000Y-63200000D02*
X156450000Y-63800000D01*
X149650000Y-54600000D02*
X154950000Y-54550000D01*
X148550000Y-55600000D02*
X148650000Y-55250000D01*
X156550000Y-62850000D02*
X156450000Y-63200000D01*
X148650000Y-55250000D02*
X148850000Y-54950000D01*
X157650000Y-62250000D02*
X157200000Y-62300000D01*
X156900000Y-62400000D02*
X156700000Y-62600000D01*
X149800000Y-64700000D02*
X149550000Y-64600000D01*
X156700000Y-62600000D02*
X156550000Y-62850000D01*
X188800000Y-62250000D02*
X157650000Y-62250000D01*
X156150000Y-64550000D02*
X155850000Y-64700000D01*
X148600000Y-63550000D02*
X148550000Y-63300000D01*
X149300000Y-64450000D02*
X149050000Y-64250000D01*
X157200000Y-62300000D02*
X156900000Y-62400000D01*
X150200000Y-64750000D02*
X149800000Y-64700000D01*
X149550000Y-64600000D02*
X149300000Y-64450000D01*
X149350000Y-54650000D02*
X149650000Y-54600000D01*
X168900000Y-54550000D02*
X169300000Y-54450000D01*
X191150000Y-74350000D02*
X188800000Y-62250000D01*
X149050000Y-54750000D02*
X149350000Y-54650000D01*
X156450000Y-63800000D02*
X156400000Y-64100000D01*
X155500000Y-64750000D02*
X150200000Y-64750000D01*
X154950000Y-54550000D02*
X168900000Y-54550000D01*
X156300000Y-64350000D02*
X156150000Y-64550000D01*
X149050000Y-64250000D02*
X148850000Y-64050000D01*
X148850000Y-64050000D02*
X148700000Y-63800000D01*
X156400000Y-64100000D02*
X156300000Y-64350000D01*
X169300000Y-54450000D02*
X170690000Y-53830000D01*
X148850000Y-54950000D02*
X149050000Y-54750000D01*
X155850000Y-64700000D02*
X155500000Y-64750000D01*
X148700000Y-63800000D02*
X148600000Y-63550000D01*
X196237415Y-93140359D02*
G75*
G03*
X196472430Y-93554047I8809685J4731159D01*
G01*
X200669846Y-97309021D02*
G75*
G02*
X199566904Y-96721935I4138054J9103621D01*
G01*
X201908378Y-97704958D02*
G75*
G03*
X203712199Y-97930397I2136922J9769058D01*
G01*
X197256789Y-94718147D02*
G75*
G03*
X198212274Y-95715704I7682111J6401747D01*
G01*
X191426390Y-76929639D02*
G75*
G02*
X191463824Y-77371190I-9943590J-1065361D01*
G01*
X191716620Y-80164906D02*
G75*
G02*
X191560954Y-78925352I9825080J1863406D01*
G01*
X192078384Y-82072387D02*
G75*
G03*
X192250389Y-82821001I9825516J1863487D01*
G01*
X193526667Y-87259585D02*
G75*
G02*
X193142309Y-86117206I9268533J3754285D01*
G01*
X194697120Y-90149141D02*
G75*
G03*
X195155670Y-91126081I9268780J3754441D01*
G01*
X192078384Y-82072387D02*
X191716620Y-80164906D01*
X194697120Y-90149141D02*
X193526667Y-87259585D01*
X193142303Y-86117208D02*
X192250388Y-82821001D01*
X196950000Y-94350000D02*
X196472429Y-93554048D01*
X201200000Y-97550000D02*
X200669846Y-97309021D01*
X191560959Y-78925352D02*
X191463824Y-77371190D01*
X201908378Y-97704958D02*
X201200000Y-97550000D01*
X204300000Y-97950000D02*
X203712199Y-97930407D01*
X197256789Y-94718147D02*
X196950000Y-94350000D01*
X204250000Y-101800000D02*
X204300000Y-97950000D01*
X191426390Y-76929639D02*
X191150000Y-74350000D01*
X198800000Y-96250000D02*
X198212274Y-95715704D01*
X196237415Y-93140359D02*
X195155672Y-91126080D01*
X199566902Y-96721939D02*
X198800000Y-96250000D01*
X203900000Y-96200000D02*
X202100000Y-95900000D01*
X209400000Y-97950000D02*
X209100000Y-97750000D01*
X200700000Y-95600000D02*
X199500000Y-95350000D01*
X208000000Y-97300000D02*
X205700000Y-96600000D01*
X209450000Y-99650000D02*
X209500000Y-98350000D01*
X208950000Y-101800000D02*
X209450000Y-99650000D01*
X202100000Y-95900000D02*
X200700000Y-95600000D01*
X209500000Y-98350000D02*
X209400000Y-97950000D01*
X209100000Y-97750000D02*
X208000000Y-97300000D01*
X205700000Y-96600000D02*
X203900000Y-96200000D01*
X199500000Y-95350000D02*
X199550000Y-90800000D01*
X213400000Y-79650000D02*
X213750000Y-79550000D01*
X212650000Y-79800000D02*
X213000000Y-79750000D01*
X213000000Y-79750000D02*
X213400000Y-79650000D01*
X214050000Y-79450000D02*
X214350000Y-79300000D01*
X213750000Y-79550000D02*
X214050000Y-79450000D01*
X214350000Y-79300000D02*
X215114766Y-78874379D01*
X211024475Y-79876832D02*
G75*
G03*
X212273530Y-79844984I370125J9993432D01*
G01*
X208950000Y-79800000D02*
X211024475Y-79876832D01*
X212273530Y-79844983D02*
X212650000Y-79800000D01*
X196928567Y-78745255D02*
G75*
G03*
X196894572Y-78958435I964733J-263145D01*
G01*
X197002522Y-87884702D02*
G75*
G03*
X197319047Y-88504277I9058078J4236902D01*
G01*
X195927339Y-85586036D02*
G75*
G02*
X195525969Y-84592430I9058161J4236936D01*
G01*
X194350000Y-78300637D02*
G75*
G03*
X194381849Y-79098092I10000300J37D01*
G01*
X194350000Y-76615947D02*
G75*
G02*
X194384541Y-75785490I9999300J47D01*
G01*
X194634169Y-73332398D02*
G75*
G03*
X194510540Y-74273476I9842031J-1771602D01*
G01*
X194813813Y-72334375D02*
G75*
G02*
X195397160Y-70326932I9841987J-1771525D01*
G01*
X195000995Y-82962980D02*
G75*
G03*
X195229565Y-83727888I9687705J2478280D01*
G01*
X194761932Y-82028462D02*
G75*
G02*
X194481800Y-80347583I9687968J2478362D01*
G01*
X197400000Y-88650000D02*
X197750000Y-89100000D01*
X197319044Y-88504279D02*
X197400000Y-88650000D01*
X197750000Y-89100000D02*
X199550000Y-90800000D01*
X195927339Y-85586036D02*
X197002522Y-87884702D01*
X194350000Y-76615947D02*
X194350000Y-78300637D01*
X194813813Y-72334375D02*
X194634169Y-73332398D01*
X195229562Y-83727889D02*
X195525975Y-84592428D01*
X199650000Y-68850000D02*
X196000000Y-68850000D01*
X199550000Y-68600000D02*
X199650000Y-68850000D01*
X194761932Y-82028462D02*
X195000995Y-82962980D01*
X196000000Y-68850000D02*
X195397169Y-70326935D01*
X194510544Y-74273476D02*
X194384543Y-75785490D01*
X194381847Y-79098092D02*
X194481807Y-80347582D01*
X200636843Y-87764036D02*
G75*
G03*
X201606173Y-88477524I6401857J7682236D01*
G01*
X196881951Y-80393168D02*
G75*
G02*
X196877166Y-79306572I9982549J587268D01*
G01*
X219095213Y-79777165D02*
G75*
G02*
X219089902Y-80322690I-9999313J-175435D01*
G01*
X219051539Y-77287699D02*
G75*
G02*
X219049999Y-77112287I10002161J175499D01*
G01*
X197318490Y-83029167D02*
G75*
G02*
X197111962Y-82262628I9544910J2982767D01*
G01*
X197662286Y-76779523D02*
G75*
G03*
X197925237Y-76313437I-8574386J5144623D01*
G01*
X218861903Y-75174198D02*
G75*
G02*
X219000806Y-76031843I-9792203J-2026002D01*
G01*
X198389513Y-75386097D02*
G75*
G02*
X198089276Y-76003589I-9137513J4061097D01*
G01*
X214223915Y-93838466D02*
G75*
G02*
X213752874Y-94443462I-8120415J5836566D01*
G01*
X214837548Y-92984716D02*
G75*
G03*
X215414251Y-92084408I-8120148J5836316D01*
G01*
X198176845Y-84960305D02*
G75*
G02*
X197598274Y-83802168I8637855J5038805D01*
G01*
X217897154Y-71190394D02*
G75*
G02*
X217902827Y-71209612I-10463754J-3099306D01*
G01*
X197017315Y-78419846D02*
G75*
G02*
X197473499Y-77111825I9647685J-2631154D01*
G01*
X216259119Y-90589473D02*
G75*
G02*
X216138130Y-90809009I-8822519J4719073D01*
G01*
X217044332Y-89121465D02*
G75*
G03*
X217579344Y-87943860I-8818032J4716565D01*
G01*
X218882405Y-83421973D02*
G75*
G03*
X219025246Y-82068284I-9850205J1723773D01*
G01*
X218143007Y-86397729D02*
G75*
G02*
X217938080Y-86995790I-9556807J2940529D01*
G01*
X218465583Y-85349356D02*
G75*
G03*
X218758095Y-84132301I-9557883J2940856D01*
G01*
X199864054Y-87083815D02*
G75*
G02*
X198909011Y-86048767I6853746J7282115D01*
G01*
X199980140Y-87193073D02*
G75*
G03*
X200431943Y-87593286I6853260J7281573D01*
G01*
X218643507Y-74117533D02*
G75*
G03*
X218656708Y-74182423I9840493J1968133D01*
G01*
X218486991Y-73334957D02*
G75*
G03*
X218274836Y-72474456I-9805991J-1961243D01*
G01*
X197598280Y-83802165D02*
X197450000Y-83450000D01*
X214837548Y-92984716D02*
X214223915Y-93838466D01*
X198550000Y-85600000D02*
X198176845Y-84960305D01*
X216138130Y-90809009D02*
X215414254Y-92084410D01*
X197450000Y-83450000D02*
X197318490Y-83029167D01*
X213752874Y-94443462D02*
X213200000Y-95100000D01*
X217044332Y-89121465D02*
X216259119Y-90589473D01*
X201850000Y-94600000D02*
X201950000Y-88700000D01*
X217938079Y-86995790D02*
X217579350Y-87943862D01*
X201950000Y-88700000D02*
X201606173Y-88477524D01*
X198389513Y-75386097D02*
X198850000Y-74350000D01*
X213200000Y-95100000D02*
X201850000Y-94600000D01*
X218882405Y-83421973D02*
X218758097Y-84132301D01*
X218465583Y-85349356D02*
X218143007Y-86397729D01*
X197111961Y-82262628D02*
X196950000Y-81550000D01*
X197925239Y-76313438D02*
X198089276Y-76003589D01*
X200636843Y-87764036D02*
X200431943Y-87593286D01*
X196950000Y-81550000D02*
X196881951Y-80393168D01*
X219089900Y-80322690D02*
X219025249Y-82068284D01*
X219051539Y-77287699D02*
X219095213Y-79777165D01*
X218656708Y-74182423D02*
X218861903Y-75174198D01*
X196928567Y-78745255D02*
X197017315Y-78419846D01*
X219000805Y-76031843D02*
X219050000Y-76450000D01*
X218486991Y-73334957D02*
X218643507Y-74117533D01*
X199980140Y-87193073D02*
X199864054Y-87083815D01*
X196877171Y-79306572D02*
X196894578Y-78958435D01*
X219050000Y-76450000D02*
X219050000Y-77112287D01*
X197500000Y-77050000D02*
X197662286Y-76779523D01*
X198909013Y-86048766D02*
X198550000Y-85600000D01*
X217902827Y-71209612D02*
X218274840Y-72474455D01*
X197473503Y-77111827D02*
X197500000Y-77050000D01*
X217500000Y-69850000D02*
X217897154Y-71190394D01*
X184400000Y-68550000D02*
X184300000Y-64850000D01*
X184300000Y-64850000D02*
X169850000Y-64850000D01*
X184550000Y-70950000D02*
X184400000Y-68550000D01*
X187950000Y-86600000D02*
X186850000Y-83100000D01*
X190900000Y-93750000D02*
X189750000Y-91350000D01*
X186850000Y-83100000D02*
X185450000Y-77650000D01*
X189750000Y-91350000D02*
X188650000Y-88700000D01*
X194900000Y-99200000D02*
X193950000Y-98250000D01*
X195850000Y-99950000D02*
X194900000Y-99200000D01*
X188650000Y-88700000D02*
X187950000Y-86600000D01*
X197550000Y-101000000D02*
X196350000Y-100350000D01*
X192450000Y-96350000D02*
X191550000Y-94950000D01*
X185450000Y-77650000D02*
X185100000Y-75350000D01*
X191550000Y-94950000D02*
X190900000Y-93750000D01*
X193150000Y-97250000D02*
X192450000Y-96350000D01*
X185100000Y-75350000D02*
X184850000Y-73300000D01*
X199550000Y-101800000D02*
X197550000Y-101000000D01*
X193950000Y-98250000D02*
X193150000Y-97250000D01*
X169850000Y-64850000D02*
X169900000Y-68600000D01*
X196350000Y-100350000D02*
X195850000Y-99950000D01*
X184850000Y-73300000D02*
X184550000Y-70950000D01*
X98850000Y-72250000D02*
X99100000Y-72200000D01*
X88800000Y-69650000D02*
X89550000Y-70300000D01*
X88250000Y-69150000D02*
X88800000Y-69650000D01*
X91050000Y-71400000D02*
X91500000Y-71650000D01*
X89550000Y-70300000D02*
X90200000Y-70800000D01*
X90200000Y-70800000D02*
X91050000Y-71400000D01*
X92750000Y-72100000D02*
X93200000Y-72200000D01*
X93200000Y-72200000D02*
X93600000Y-72300000D01*
X93600000Y-72300000D02*
X94400000Y-72400000D01*
X98250000Y-72350000D02*
X98850000Y-72250000D01*
X99100000Y-72200000D02*
X99800000Y-72000000D01*
X99800000Y-72000000D02*
X101550000Y-71350000D01*
X101550000Y-71350000D02*
X101900000Y-71250000D01*
X101900000Y-71250000D02*
X102500000Y-71150000D01*
X86600000Y-67750000D02*
X87000000Y-68050000D01*
X86100000Y-67450000D02*
X86600000Y-67750000D01*
X94400000Y-72400000D02*
X98250000Y-72350000D01*
X92400000Y-72000000D02*
X92750000Y-72100000D01*
X85000000Y-67000000D02*
X85500000Y-67150000D01*
X87650000Y-68600000D02*
X88250000Y-69150000D01*
X84600000Y-66950000D02*
X85000000Y-67000000D01*
X91950000Y-71850000D02*
X92400000Y-72000000D01*
X83800000Y-66900000D02*
X84600000Y-66950000D01*
X102500000Y-71150000D02*
X104300000Y-71100000D01*
X87000000Y-68050000D02*
X87650000Y-68600000D01*
X82700000Y-66900000D02*
X83800000Y-66900000D01*
X91500000Y-71650000D02*
X91950000Y-71850000D01*
X85500000Y-67150000D02*
X86100000Y-67450000D01*
X80120000Y-66910000D02*
X82700000Y-66900000D01*
X105950000Y-72450000D02*
X106700000Y-72550000D01*
X96680000Y-73640000D02*
X99600000Y-72850000D01*
X99600000Y-72850000D02*
X101150000Y-72400000D01*
X101150000Y-72400000D02*
X102200000Y-72250000D01*
X103050000Y-72250000D02*
X103700000Y-72300000D01*
X107200000Y-72600000D02*
X107750000Y-72700000D01*
X102200000Y-72250000D02*
X103050000Y-72250000D01*
X103700000Y-72300000D02*
X105950000Y-72450000D01*
X106700000Y-72550000D02*
X107200000Y-72600000D01*
X107750000Y-72700000D02*
X113280000Y-73650000D01*
X121963404Y-72298660D02*
G75*
G03*
X122929526Y-72154097I-995004J9950260D01*
G01*
X120951244Y-72350000D02*
G75*
G03*
X121946281Y-72300369I-44J10000200D01*
G01*
X120301861Y-72374814D02*
G75*
G02*
X120799377Y-72349996I497539J-4974886D01*
G01*
X117365055Y-72773449D02*
G75*
G02*
X118445242Y-72585850I2248645J-9743951D01*
G01*
X118785944Y-72545507D02*
X119427516Y-72465311D01*
X123771432Y-71938735D02*
X124630965Y-71641204D01*
X120799377Y-72350000D02*
X120951244Y-72350000D01*
X121946281Y-72300372D02*
X121963404Y-72298660D01*
X122929526Y-72154095D02*
X123116460Y-72116708D01*
X125993051Y-71209128D02*
X126200000Y-71150000D01*
X126200000Y-71150000D02*
X126550000Y-71100000D01*
X126550000Y-71100000D02*
X127350000Y-71050000D01*
X127350000Y-71050000D02*
X128350000Y-71050000D01*
X117172370Y-72816621D02*
X117327356Y-72782149D01*
X123116460Y-72116708D02*
G75*
G03*
X123771433Y-71938738I-980560J4902908D01*
G01*
X119672826Y-72437717D02*
X120301861Y-72374814D01*
X125708229Y-71295109D02*
G75*
G02*
X125993051Y-71209129I3031371J-9527091D01*
G01*
X124870034Y-71561807D02*
X125708229Y-71295109D01*
X124630965Y-71641204D02*
G75*
G02*
X124870034Y-71561807I3271735J-9451696D01*
G01*
X113280000Y-73650000D02*
X117172370Y-72816621D01*
X117327356Y-72782149D02*
X117365055Y-72773449D01*
X118445243Y-72585854D02*
X118714024Y-72554232D01*
X119427516Y-72465311D02*
G75*
G02*
X119672826Y-72437717I1240384J-9922789D01*
G01*
X118714024Y-72554232D02*
X118785944Y-72545507D01*
X128350000Y-71050000D02*
X132080000Y-71120000D01*
X115300000Y-74700000D02*
X116800000Y-74400000D01*
X110950000Y-74850000D02*
X111250000Y-74900000D01*
X106050000Y-73900000D02*
X109500000Y-74500000D01*
X104300000Y-73640000D02*
X106050000Y-73900000D01*
X111550000Y-74900000D02*
X114650000Y-74850000D01*
X109500000Y-74500000D02*
X110950000Y-74850000D01*
X111250000Y-74900000D02*
X111550000Y-74900000D01*
X114650000Y-74850000D02*
X115300000Y-74700000D01*
X116800000Y-74400000D02*
X120900000Y-73650000D01*
X110170300Y-72087738D02*
G75*
G03*
X110223448Y-72095769I1531800J9957238D01*
G01*
X106189174Y-71407318D02*
G75*
G02*
X106267752Y-71421027I-1674874J-9832382D01*
G01*
X106110599Y-71393933D02*
G75*
G03*
X106031941Y-71380855I-1687799J-9907967D01*
G01*
X110329835Y-72111405D02*
G75*
G02*
X110276628Y-72103658I1422865J9958905D01*
G01*
X115350000Y-72100000D02*
X115500000Y-71900000D01*
X115500000Y-71900000D02*
X115950000Y-71400000D01*
X111177297Y-72232471D02*
G75*
G03*
X111423099Y-72264483I1414503J9901571D01*
G01*
X110329835Y-72111405D02*
X111177297Y-72232471D01*
X106267752Y-71421027D02*
X108831569Y-71878852D01*
X115050000Y-72250000D02*
X115350000Y-72100000D01*
X108831569Y-71878852D02*
G75*
G03*
X109068905Y-71918292I1756131J9833852D01*
G01*
X112736215Y-72350000D02*
X114750000Y-72350000D01*
X111567799Y-72281506D02*
G75*
G03*
X112736215Y-72349999I1168401J9931406D01*
G01*
X114750000Y-72350000D02*
X115050000Y-72250000D01*
X116250000Y-71250000D02*
X116550000Y-71150000D01*
X115950000Y-71400000D02*
X116250000Y-71250000D01*
X116550000Y-71150000D02*
X116850000Y-71100000D01*
X111423099Y-72264482D02*
X111567799Y-72281506D01*
X106110599Y-71393933D02*
X106189174Y-71407318D01*
X110223448Y-72095769D02*
X110276628Y-72103658D01*
X109068905Y-71918293D02*
X110170300Y-72087738D01*
X116850000Y-71100000D02*
X120900000Y-71110000D01*
X104300000Y-71100000D02*
X106031941Y-71380855D01*
X115444149Y-77478989D02*
G75*
G02*
X114855125Y-77503638I-712449J9974789D01*
G01*
X105918754Y-76487501D02*
G75*
G03*
X105580050Y-76418353I-2169554J-9762899D01*
G01*
X118514292Y-76745534D02*
G75*
G03*
X118485721Y-76754509I3021708J-9669266D01*
G01*
X119847919Y-76393841D02*
G75*
G03*
X118767295Y-76666467I1902181J-9817759D01*
G01*
X117254497Y-77123876D02*
G75*
G03*
X117840458Y-76958276I-2425697J9702576D01*
G01*
X116714383Y-77258904D02*
G75*
G02*
X116384318Y-77335502I-2424683J9698604D01*
G01*
X111038274Y-77550000D02*
G75*
G03*
X111161721Y-77549238I126J9973500D01*
G01*
X108723423Y-77131982D02*
G75*
G03*
X108876850Y-77166811I2292077J9741482D01*
G01*
X107160458Y-76764225D02*
G75*
G03*
X107039370Y-76736527I-2290558J-9734975D01*
G01*
X116714383Y-77258904D02*
X117254497Y-77123876D01*
X110750000Y-77550000D02*
X111038274Y-77550000D01*
X108876850Y-77166811D02*
X110400000Y-77500000D01*
X105918754Y-76487501D02*
X107039370Y-76736527D01*
X118514292Y-76745534D02*
X118767296Y-76666470D01*
X104300000Y-76180000D02*
X105580050Y-76418354D01*
X111161721Y-77549238D02*
X114855125Y-77503640D01*
X107160458Y-76764225D02*
X108723423Y-77131982D01*
X115444149Y-77478989D02*
X115850000Y-77450000D01*
X110400000Y-77500000D02*
X110750000Y-77550000D01*
X115850000Y-77450000D02*
X116384318Y-77335503D01*
X117840458Y-76958277D02*
X118485721Y-76754509D01*
X119847919Y-76393841D02*
X120900000Y-76190000D01*
X83510185Y-76176543D02*
G75*
G03*
X84170209Y-75696501I-5547185J8320743D01*
G01*
X100967743Y-73955847D02*
G75*
G02*
X101538120Y-73761348I3511257J-9363353D01*
G01*
X86675622Y-73991459D02*
G75*
G03*
X86326666Y-74114999I3162678J-9488041D01*
G01*
X92059350Y-74900000D02*
G75*
G02*
X92140648Y-74900330I-250J-10075500D01*
G01*
X88247381Y-74072013D02*
G75*
G03*
X88453190Y-74125797I2630719J9646013D01*
G01*
X85284870Y-74788617D02*
G75*
G02*
X84802255Y-75196135I-6689170J7432317D01*
G01*
X89405829Y-74378716D02*
G75*
G03*
X88890326Y-74235080I-2940729J-9557284D01*
G01*
X85652005Y-74481997D02*
G75*
G02*
X86054049Y-74227569I5547295J-8320903D01*
G01*
X90536765Y-74681933D02*
G75*
G03*
X89958862Y-74535304I-2747065J-9614767D01*
G01*
X100238002Y-74240856D02*
G75*
G02*
X100665963Y-74069014I3938498J-9189744D01*
G01*
X99461274Y-74573740D02*
G75*
G03*
X99339082Y-74627075I3940726J-9194960D01*
G01*
X90658116Y-74715850D02*
G75*
G02*
X90542079Y-74683451I2635884J9664450D01*
G01*
X83095204Y-76445259D02*
G75*
G03*
X83401232Y-76249179I-5242104J8518359D01*
G01*
X92140648Y-74900330D02*
X98250000Y-74950000D01*
X101538120Y-73761348D02*
X101900000Y-73650000D01*
X89800000Y-74500000D02*
X89958862Y-74535303D01*
X84170209Y-75696501D02*
X84802253Y-75196133D01*
X83401232Y-76249179D02*
X83510185Y-76176543D01*
X100665963Y-74069014D02*
X100967743Y-73955847D01*
X87500000Y-73900000D02*
X87800000Y-73950000D01*
X87100000Y-73900000D02*
X87500000Y-73900000D01*
X101900000Y-73650000D02*
X102300000Y-73600000D01*
X86800000Y-73950000D02*
X87100000Y-73900000D01*
X91700000Y-74900000D02*
X92059350Y-74900000D01*
X89405829Y-74378716D02*
X89800000Y-74500000D01*
X85550000Y-74550000D02*
X85652005Y-74481997D01*
X98250000Y-74950000D02*
X98600000Y-74900000D01*
X80120000Y-77250000D02*
X81400000Y-77150000D01*
X99461274Y-74573740D02*
X100238002Y-74240856D01*
X90658116Y-74715850D02*
X91150000Y-74850000D01*
X98600000Y-74900000D02*
X98950000Y-74800000D01*
X82600000Y-76750000D02*
X83095204Y-76445259D01*
X81400000Y-77150000D02*
X82000000Y-77000000D01*
X90536765Y-74681933D02*
X90542079Y-74683451D01*
X98950000Y-74800000D02*
X99339082Y-74627075D01*
X86054049Y-74227570D02*
X86100000Y-74200000D01*
X86100000Y-74200000D02*
X86326666Y-74115000D01*
X86675622Y-73991459D02*
X86800000Y-73950000D01*
X87800000Y-73950000D02*
X88247381Y-74072013D01*
X91150000Y-74850000D02*
X91700000Y-74900000D01*
X88453190Y-74125798D02*
X88890326Y-74235082D01*
X85284870Y-74788617D02*
X85550000Y-74550000D01*
X82000000Y-77000000D02*
X82600000Y-76750000D01*
X102300000Y-73600000D02*
X104300000Y-73640000D01*
X85050000Y-69100000D02*
X86000000Y-69700000D01*
X88150000Y-71500000D02*
X89150000Y-72300000D01*
X74250000Y-69250000D02*
X75250000Y-69050000D01*
X89150000Y-72300000D02*
X90150000Y-72850000D01*
X84000000Y-68600000D02*
X85050000Y-69100000D01*
X91000000Y-73150000D02*
X91950000Y-73250000D01*
X78100000Y-68300000D02*
X78800000Y-68200000D01*
X72500000Y-69450000D02*
X74250000Y-69250000D01*
X78800000Y-68200000D02*
X81900000Y-68200000D01*
X75250000Y-69050000D02*
X76400000Y-68750000D01*
X92950000Y-73300000D02*
X94850000Y-73300000D01*
X83300000Y-68400000D02*
X84000000Y-68600000D01*
X81900000Y-68200000D02*
X82600000Y-68250000D01*
X76400000Y-68750000D02*
X77150000Y-68500000D01*
X90150000Y-72850000D02*
X91000000Y-73150000D01*
X91950000Y-73250000D02*
X92950000Y-73300000D01*
X87150000Y-70650000D02*
X88150000Y-71500000D01*
X86000000Y-69700000D02*
X87150000Y-70650000D01*
X94850000Y-73300000D02*
X95450000Y-73350000D01*
X77150000Y-68500000D02*
X77550000Y-68400000D01*
X77550000Y-68400000D02*
X78100000Y-68300000D01*
X82600000Y-68250000D02*
X83300000Y-68400000D01*
X95450000Y-73350000D02*
X96680000Y-73640000D01*
X76053302Y-63669229D02*
G75*
G02*
X76146889Y-63631244I3830698J-9303771D01*
G01*
X88328199Y-65132926D02*
G75*
G02*
X88172371Y-65065752I3878001J9210426D01*
G01*
X88926979Y-65385044D02*
G75*
G03*
X89479348Y-65598593I3880021J9214944D01*
G01*
X83961288Y-63408064D02*
G75*
G03*
X83435980Y-63305995I-2169588J-9763136D01*
G01*
X74845782Y-64127648D02*
G75*
G03*
X75641966Y-63838602I-3011182J9535448D01*
G01*
X85847785Y-64030811D02*
G75*
G03*
X85037959Y-63704578I-4137785J-9103189D01*
G01*
X86499313Y-64326960D02*
G75*
G03*
X86600940Y-64372474I4147487J9124660D01*
G01*
X79047370Y-63107895D02*
G75*
G03*
X77757016Y-63175641I-121970J-9999305D01*
G01*
X81733792Y-63140656D02*
G75*
G02*
X83255839Y-63275980I-121992J-9999344D01*
G01*
X91929106Y-66000374D02*
G75*
G02*
X91172010Y-65970921I9894J9999874D01*
G01*
X86499313Y-64326960D02*
X85847785Y-64030811D01*
X81733792Y-63140656D02*
X79047370Y-63107895D01*
X91172010Y-65970924D02*
X90900000Y-65950000D01*
X132080000Y-66040000D02*
X91929106Y-66000374D01*
X85037960Y-63704574D02*
X84600000Y-63550000D01*
X90050000Y-65800000D02*
X89479348Y-65598593D01*
X90900000Y-65950000D02*
X90050000Y-65800000D01*
X88926979Y-65385044D02*
X88328199Y-65132926D01*
X84600000Y-63550000D02*
X83961288Y-63408064D01*
X77550000Y-63200000D02*
X76850000Y-63350000D01*
X76053302Y-63669229D02*
X75641966Y-63838602D01*
X83435980Y-63305996D02*
X83255840Y-63275973D01*
X88172371Y-65065752D02*
X86600940Y-64372474D01*
X74845782Y-64127648D02*
X74300000Y-64300000D01*
X76850000Y-63350000D02*
X76146889Y-63631244D01*
X77757016Y-63175645D02*
X77550000Y-63200000D01*
X74300000Y-64300000D02*
X72500000Y-64370000D01*
X80120000Y-61830000D02*
X130350000Y-61750000D01*
X130350000Y-61750000D02*
X132080000Y-63500000D01*
X84277001Y-58155063D02*
G75*
G03*
X84222970Y-58145086I-1827501J-9745837D01*
G01*
X88323052Y-59862966D02*
G75*
G03*
X88276881Y-59837156I-4816952J-8562734D01*
G01*
X89820607Y-60570228D02*
G75*
G02*
X88429231Y-59922687I3511193J9363128D01*
G01*
X78245451Y-58000413D02*
G75*
G03*
X78154546Y-58000000I-90751J-9980087D01*
G01*
X76390382Y-58082452D02*
G75*
G03*
X76110171Y-58121512I1240318J-9922448D01*
G01*
X76432230Y-58077221D02*
G75*
G02*
X77672577Y-57999998I1240370J-9922879D01*
G01*
X90090491Y-60643959D02*
G75*
G03*
X91017448Y-60812331I2248709J9744259D01*
G01*
X86585648Y-58917823D02*
G75*
G03*
X85275794Y-58375264I-4472048J-8944077D01*
G01*
X86755651Y-59002825D02*
G75*
G02*
X87139944Y-59205524I-4470451J-8941075D01*
G01*
X76432230Y-58077221D02*
X76390382Y-58082452D01*
X76110171Y-58121512D02*
X75600000Y-58200000D01*
X85275794Y-58375265D02*
X85050000Y-58300000D01*
X88276881Y-59837156D02*
X87139944Y-59205525D01*
X89900000Y-60600000D02*
X89820607Y-60570228D01*
X83700000Y-58050000D02*
X78245451Y-58000413D01*
X91300000Y-60850000D02*
X91017449Y-60812327D01*
X90090491Y-60643959D02*
X89900000Y-60600000D01*
X132080000Y-60950000D02*
X91300000Y-60850000D01*
X86755651Y-59002825D02*
X86585648Y-58917823D01*
X85050000Y-58300000D02*
X84277001Y-58155063D01*
X88429229Y-59922691D02*
X88323052Y-59862966D01*
X78154546Y-58000000D02*
X77672577Y-58000000D01*
X84222970Y-58145086D02*
X83700000Y-58050000D01*
X75600000Y-58200000D02*
X72500000Y-59290000D01*
X71400000Y-60500000D02*
X72300000Y-60600000D01*
X94550000Y-87600000D02*
X98350000Y-87550000D01*
X83873345Y-56356333D02*
X83649579Y-56367521D01*
X104950000Y-74950000D02*
X108450000Y-75450000D01*
X184050000Y-155300000D02*
X184850000Y-155150000D01*
X199550000Y-148800000D02*
X200000000Y-151350000D01*
X76200000Y-138950000D02*
X75050000Y-139000000D01*
X194386680Y-49962227D02*
X194350000Y-49950000D01*
X97000000Y-102650000D02*
X99100000Y-102400000D01*
X63700000Y-154850000D02*
X63300000Y-154800000D01*
X64450000Y-151950000D02*
X64290000Y-152980000D01*
X132080000Y-83820000D02*
X120900000Y-83810000D01*
X93800000Y-79950000D02*
X93803719Y-79950372D01*
X76000000Y-126250000D02*
X76350000Y-126200000D01*
X208010806Y-64536792D02*
X208421478Y-64034860D01*
X89123023Y-101482452D02*
X87931133Y-101901224D01*
X180800000Y-39700000D02*
X181450000Y-40050000D01*
X201900000Y-153850000D02*
X202600000Y-154250000D01*
X72500000Y-140240000D02*
X71450000Y-142700000D01*
X152090000Y-83780000D02*
X148550000Y-83850000D01*
X202150000Y-109800000D02*
X202050000Y-109450000D01*
X96282988Y-131853577D02*
X154000000Y-132050000D01*
X120900000Y-78730000D02*
X122528407Y-79193849D01*
X152090000Y-96480000D02*
X152050000Y-111850000D01*
X80120000Y-108660000D02*
X83737516Y-108696357D01*
X87300000Y-82800000D02*
X88450000Y-82600000D01*
X205400000Y-73700000D02*
X208850000Y-73200000D01*
X70100000Y-81100000D02*
X73400000Y-81050000D01*
X65100000Y-128700000D02*
X64450000Y-128900000D01*
X66250000Y-146050000D02*
X65450000Y-147000000D01*
X200000000Y-151350000D02*
X200350000Y-152150000D01*
X65300000Y-92300000D02*
X65650000Y-92100000D01*
X176750000Y-55050000D02*
X185200000Y-55150000D01*
X70360657Y-103749851D02*
X70710858Y-103670260D01*
X122165944Y-77400000D02*
X122818444Y-77400000D01*
X131542663Y-50726606D02*
X130852871Y-50512004D01*
X88199743Y-85182872D02*
X89312936Y-85119261D01*
X178310000Y-53830000D02*
X181500000Y-53850000D01*
X98350000Y-87550000D02*
X99550000Y-87400000D01*
X73900000Y-60600000D02*
X74900000Y-60450000D01*
X148000000Y-67200000D02*
X147550000Y-66900000D01*
X67850000Y-99400000D02*
X68850000Y-99000000D01*
X152250000Y-58350000D02*
X155950000Y-58300000D01*
X119901935Y-77576243D02*
X120381310Y-77519846D01*
X162500000Y-37650000D02*
X170700000Y-37661157D01*
X73183479Y-70749070D02*
X74950000Y-70700000D01*
X123081511Y-77403461D02*
X126750000Y-77500000D01*
X63000000Y-52000000D02*
X64000000Y-53350000D01*
X76679105Y-133471288D02*
X76823149Y-133433382D01*
X100156138Y-77081287D02*
X100856295Y-76847902D01*
X160350000Y-84050000D02*
X168250000Y-135150000D01*
X152090000Y-81240000D02*
X147000000Y-81250000D01*
X143120000Y-141080000D02*
X146250000Y-141100000D01*
X59980000Y-81710000D02*
X60050000Y-87110000D01*
X95963795Y-105231034D02*
X97003648Y-105057725D01*
X91500000Y-79400000D02*
X91800000Y-79350000D01*
X132750000Y-127500000D02*
X91500000Y-127500000D01*
X150150000Y-63100000D02*
X150000000Y-62750000D01*
X152090000Y-66000000D02*
X154250000Y-66000000D01*
X183600000Y-153450000D02*
X183748955Y-153390418D01*
X78312668Y-112675857D02*
X78748190Y-112582531D01*
X65450000Y-147000000D02*
X64450000Y-148000000D01*
X182950000Y-49200000D02*
X182900000Y-48850000D01*
X194350000Y-49950000D02*
X184100000Y-50050000D01*
X77700000Y-106450000D02*
X78050000Y-106350000D01*
X213500000Y-151100000D02*
X213650000Y-150300000D01*
X66274029Y-154842914D02*
X64925785Y-154849867D01*
X204298529Y-123441174D02*
X204204671Y-122878027D01*
X72500000Y-56750000D02*
X73438074Y-55539582D01*
X190350000Y-44750000D02*
X190400000Y-37687959D01*
X120900000Y-76190000D02*
X122750000Y-75700000D01*
X204400000Y-121150000D02*
X204200000Y-120850000D01*
X182650000Y-53100000D02*
X182750000Y-52750000D01*
X97873958Y-99612131D02*
X96057826Y-99876984D01*
X60050000Y-91110000D02*
X60050000Y-95110000D01*
X105870000Y-151240000D02*
X105850000Y-157315148D01*
X174650000Y-90800000D02*
X174650000Y-101800000D01*
X67986009Y-129082798D02*
X68563992Y-128967201D01*
X62980000Y-69710000D02*
X64109599Y-70121397D01*
X152050000Y-111850000D02*
X154000000Y-113350000D01*
X178483451Y-57642079D02*
X178400000Y-57350000D01*
X98250000Y-141080000D02*
X94500000Y-141050000D01*
X93250000Y-111300000D02*
X93750000Y-111250000D01*
X100602545Y-79415818D02*
X100857456Y-79330848D01*
X159250000Y-151100000D02*
X159250000Y-152200000D01*
X182900000Y-155400000D02*
X184050000Y-155300000D01*
X124870000Y-136000000D02*
X128050000Y-136000000D01*
X197350000Y-45800000D02*
X197850000Y-45500000D01*
X186000000Y-41130000D02*
X186050000Y-37682041D01*
X72841720Y-112601683D02*
X78084793Y-112697886D01*
X208950000Y-79800000D02*
X208950000Y-90800000D01*
X63550000Y-75850000D02*
X59980000Y-75800000D01*
X64250000Y-134960000D02*
X72500000Y-130080000D01*
X87854906Y-57369094D02*
X86482709Y-56923130D01*
X66900000Y-105500000D02*
X66959021Y-105448848D01*
X129540000Y-91440000D02*
X127000000Y-91440000D01*
X159450000Y-153550000D02*
X159900000Y-154200000D01*
X182850000Y-45150000D02*
X182600000Y-44600000D01*
X86571833Y-121184502D02*
X86891459Y-120225623D01*
X60150000Y-101750000D02*
X60250000Y-102200000D01*
X82750000Y-126100000D02*
X83350000Y-125800000D01*
X156550000Y-113150000D02*
X156650000Y-113750000D01*
X78900000Y-85350000D02*
X80120000Y-84870000D01*
X71100000Y-102250000D02*
X73600000Y-102300000D01*
X183000000Y-51450000D02*
X183250000Y-51300000D01*
X152023838Y-42494831D02*
X155700000Y-42450000D01*
X197950000Y-54650000D02*
X198250000Y-54950000D01*
X60050000Y-100700000D02*
X60100000Y-101200000D01*
X132080000Y-76200000D02*
X136850000Y-76160000D01*
X187650000Y-148650000D02*
X187993225Y-130459061D01*
X123754667Y-49984797D02*
X123138384Y-50059953D01*
X71711105Y-70799617D02*
X73116528Y-70751154D01*
X99219387Y-77354082D02*
X99250000Y-77350000D01*
X183150000Y-49550000D02*
X182950000Y-49200000D01*
X198250000Y-54950000D02*
X198700000Y-55300000D01*
X86323091Y-108510987D02*
X87100000Y-108400000D01*
X182750000Y-52400000D02*
X182850000Y-51700000D01*
X76827225Y-70523386D02*
X76950000Y-70500000D01*
X70550000Y-66800000D02*
X72500000Y-66910000D01*
X195250000Y-96100000D02*
X194100000Y-95000000D01*
X150000000Y-62750000D02*
X150000000Y-61450000D01*
X195900000Y-51100000D02*
X195800000Y-50750000D01*
X165750000Y-67000000D02*
X165150000Y-67300000D01*
X117250000Y-136000000D02*
X117250000Y-133875740D01*
X95825038Y-98289991D02*
X94493956Y-98594239D01*
X186000000Y-46210000D02*
X188500000Y-46300000D01*
X150700000Y-63450000D02*
X150400000Y-63300000D01*
X67150000Y-144800000D02*
X66250000Y-146050000D01*
X95242736Y-105365669D02*
X95736672Y-105271586D01*
X206950000Y-123750000D02*
X206850000Y-123200000D01*
X78400000Y-88800000D02*
X79450000Y-88800000D01*
X70950000Y-125050000D02*
X70250000Y-125150000D01*
X76350000Y-126200000D02*
X77030857Y-126169052D01*
X188500000Y-46300000D02*
X189400000Y-46300000D01*
X80120000Y-135160000D02*
X91500000Y-124000000D01*
X132080000Y-83820000D02*
X136850000Y-83780000D01*
X96680000Y-88880000D02*
X91750000Y-88900000D01*
X92581928Y-106263952D02*
X93750000Y-105750000D01*
X90907577Y-79607743D02*
X91150000Y-79500000D01*
X80400000Y-53000000D02*
X79700000Y-52400000D01*
X213450000Y-146150000D02*
X213050000Y-144850000D01*
X187618236Y-148904109D02*
X187650000Y-148650000D01*
X67300000Y-60000000D02*
X68400000Y-60900000D01*
X161650000Y-155250000D02*
X162450000Y-155350000D01*
X86277878Y-127237693D02*
X87330191Y-125902065D01*
X195750000Y-61018931D02*
X181800000Y-61050000D01*
X68900000Y-147200000D02*
X67650000Y-148800000D01*
X126780829Y-49943164D02*
X125150364Y-49912970D01*
X200950000Y-98550000D02*
X199300000Y-98200000D01*
X99000000Y-82400000D02*
X100100000Y-82150000D01*
X98600000Y-134800000D02*
X98250000Y-136000000D01*
X66200000Y-127950000D02*
X65700000Y-128350000D01*
X193650000Y-59300000D02*
X193850000Y-59800000D01*
X124870000Y-148700000D02*
X128050000Y-148700000D01*
X64250000Y-122960000D02*
X65356339Y-122259319D01*
X199600000Y-61010356D02*
X195750000Y-61018931D01*
X189450000Y-139950000D02*
X189600000Y-139550000D01*
X65110000Y-108870000D02*
X65621961Y-107681209D01*
X209550000Y-56250000D02*
X209200000Y-56200000D01*
X162950000Y-79500000D02*
X168700000Y-113800000D01*
X206150000Y-123550000D02*
X205900000Y-123100000D01*
X124870000Y-146160000D02*
X128050000Y-146200000D01*
X154910578Y-94922120D02*
X154964764Y-95120800D01*
X189800000Y-139100000D02*
X190050000Y-138800000D01*
X68920768Y-116278272D02*
X69067483Y-115948164D01*
X56850000Y-155150000D02*
X57050000Y-155500000D01*
X78850000Y-138300000D02*
X78100000Y-138550000D01*
X170690000Y-41130000D02*
X170700000Y-37661157D01*
X83953646Y-129846354D02*
X84378437Y-129421563D01*
X84150000Y-83500000D02*
X85550000Y-83250000D01*
X132050000Y-58350000D02*
X126050000Y-58350000D01*
X152250000Y-60890000D02*
X173050000Y-61100000D01*
X143120000Y-146160000D02*
X146250000Y-146200000D01*
X75600000Y-128750000D02*
X75774507Y-128706373D01*
X85300000Y-88100000D02*
X86450000Y-87800000D01*
X184113991Y-51209171D02*
X186000000Y-51290000D01*
X214200000Y-153200000D02*
X214500000Y-152250000D01*
X77994365Y-70168120D02*
X80120000Y-69450000D01*
X214900000Y-43800000D02*
X214900000Y-47600000D01*
X166850000Y-63800000D02*
X166350000Y-64050000D01*
X189300000Y-149750000D02*
X189350000Y-148900000D01*
X76772484Y-110034689D02*
X77163221Y-109985847D01*
X212100000Y-58400000D02*
X211850000Y-58000000D01*
X211550000Y-73750000D02*
X212050000Y-73300000D01*
X68068653Y-96386755D02*
X68247237Y-96319786D01*
X83250000Y-155250000D02*
X83250000Y-157206005D01*
X93750000Y-111250000D02*
X94650000Y-111150000D01*
X152090000Y-86320000D02*
X150100000Y-86350000D01*
X85950000Y-119100000D02*
X86150000Y-117650000D01*
X188050000Y-129550000D02*
X188150000Y-128900000D01*
X176450000Y-53800000D02*
X178310000Y-53830000D01*
X116930928Y-52546048D02*
X115500000Y-53500000D01*
X64450000Y-138750000D02*
X64800000Y-137700000D01*
X217950000Y-156700000D02*
X217650000Y-157200000D01*
X201500000Y-46330000D02*
X204150000Y-46350000D01*
X102500000Y-47750000D02*
X136850000Y-48220000D01*
X74250000Y-81050000D02*
X75250000Y-81000000D01*
X65850000Y-55600000D02*
X67550000Y-57550000D01*
X94696851Y-77403048D02*
X97774303Y-77441041D01*
X206400000Y-51550000D02*
X214800000Y-51550000D01*
X217550000Y-37850000D02*
X217532813Y-48850000D01*
X155000000Y-95383918D02*
X155000000Y-100200000D01*
X78842096Y-106276478D02*
X80120000Y-106120000D01*
X187100000Y-150950000D02*
X187198413Y-150753174D01*
X82250000Y-126200000D02*
X82750000Y-126100000D01*
X73650000Y-131950000D02*
X74350000Y-131700000D01*
X187850000Y-71750000D02*
X187550000Y-68100000D01*
X152090000Y-76160000D02*
X143850000Y-76200000D01*
X113650000Y-138300000D02*
X113400000Y-138650000D01*
X85600000Y-120300000D02*
X85950000Y-119100000D01*
X71596768Y-112600000D02*
X72658265Y-112600000D01*
X71550000Y-65600000D02*
X72600000Y-65650000D01*
X190150000Y-127200000D02*
X199550000Y-127200000D01*
X202050000Y-109100000D02*
X202000000Y-99000000D01*
X131508432Y-55664744D02*
X137010000Y-55810000D01*
X108450000Y-75450000D02*
X113280000Y-76190000D01*
X206500000Y-122450000D02*
X206350000Y-122150000D01*
X77050000Y-138850000D02*
X76200000Y-138950000D01*
X140850000Y-108100000D02*
X132750000Y-108000000D01*
X74197613Y-136751085D02*
X74200000Y-136750000D01*
X94650000Y-111150000D02*
X95300000Y-111100000D01*
X76911092Y-91042363D02*
X77250000Y-91000000D01*
X206000000Y-143350000D02*
X206200000Y-142950000D01*
X63650000Y-125400000D02*
X64800000Y-124550000D01*
X68271849Y-154721723D02*
X68750000Y-154650000D01*
X85850000Y-122850000D02*
X86250000Y-122050000D01*
X162100000Y-152850000D02*
X162450000Y-153400000D01*
X174600000Y-79800000D02*
X174650000Y-90800000D01*
X180050000Y-39450000D02*
X180800000Y-39700000D01*
X158750000Y-65200000D02*
X159750000Y-64750000D01*
X67850000Y-63800000D02*
X69100000Y-64750000D01*
X60050000Y-95110000D02*
X60050000Y-99110000D01*
X197500000Y-53850000D02*
X197700000Y-54300000D01*
X68700000Y-53900000D02*
X69250000Y-54400000D01*
X158150000Y-120050000D02*
X158950000Y-120550000D01*
X210900000Y-156200000D02*
X211700000Y-155950000D01*
X71000000Y-139150000D02*
X70400000Y-139450000D01*
X158100000Y-110700000D02*
X157650000Y-111150000D01*
X74150000Y-102300000D02*
X74600000Y-102250000D01*
X70400000Y-139450000D02*
X69800000Y-139950000D01*
X196550000Y-96950000D02*
X195250000Y-96100000D01*
X187150000Y-153900000D02*
X187750000Y-153350000D01*
X165150000Y-67300000D02*
X164750000Y-67300000D01*
X81300000Y-53400000D02*
X80400000Y-53000000D01*
X101950000Y-102150000D02*
X104650000Y-102150000D01*
X82250000Y-128900000D02*
X82811446Y-128456753D01*
X186800000Y-151400000D02*
X187100000Y-150950000D01*
X77250000Y-105050000D02*
X78400000Y-105000000D01*
X183425689Y-153502293D02*
X183600000Y-153450000D01*
X200300000Y-77300000D02*
X200950000Y-76650000D01*
X207400000Y-74900000D02*
X208400000Y-74700000D01*
X140800000Y-71150000D02*
X140850000Y-108100000D01*
X83950000Y-125300000D02*
X84358433Y-124769037D01*
X129262706Y-55415654D02*
X130396685Y-55573151D01*
X150100000Y-86350000D02*
X150200000Y-127450000D01*
X188032514Y-129742350D02*
X188050000Y-129550000D01*
X154100000Y-154700000D02*
X154300000Y-155200000D01*
X186515891Y-151655698D02*
X186800000Y-151400000D01*
X91600000Y-111650000D02*
X92350000Y-111450000D01*
X188250000Y-75150000D02*
X187850000Y-71750000D01*
X106678441Y-96350000D02*
X105258243Y-96350000D01*
X132750000Y-105000000D02*
X110000000Y-105000000D01*
X137010000Y-48190000D02*
X138227925Y-47160414D01*
X95900000Y-53650000D02*
X83400000Y-53450000D01*
X204350000Y-145050000D02*
X204750000Y-144600000D01*
X79034800Y-112472972D02*
X79072195Y-112451603D01*
X75150000Y-53800000D02*
X75797799Y-53346540D01*
X69850000Y-54950000D02*
X70850000Y-55650000D01*
X67502679Y-119649909D02*
X67669049Y-119333806D01*
X64727546Y-98000653D02*
X65038774Y-97802598D01*
X76939335Y-136418283D02*
X79037833Y-136489418D01*
X65110000Y-116870000D02*
X66600000Y-115100000D01*
X202600000Y-154250000D02*
X203950000Y-154800000D01*
X103524998Y-76251539D02*
X104300000Y-76180000D01*
X63300000Y-154800000D02*
X62900000Y-154700000D01*
X196250000Y-57000000D02*
X195950000Y-56250000D01*
X168200000Y-45550000D02*
X168500000Y-45750000D01*
X114450000Y-85100000D02*
X120900000Y-81270000D01*
X119450000Y-88900000D02*
X120900000Y-88890000D01*
X203234040Y-122045744D02*
X202512573Y-121853353D01*
X66850000Y-99950000D02*
X67850000Y-99400000D01*
X208800000Y-145000000D02*
X208600000Y-144650000D01*
X78200000Y-80400000D02*
X78900000Y-80150000D01*
X142400000Y-73700000D02*
X142400000Y-111250000D01*
X70250000Y-125150000D02*
X69650000Y-125300000D01*
X205250000Y-154950000D02*
X209700000Y-154950000D01*
X209200000Y-63100000D02*
X209387630Y-62778349D01*
X147350000Y-48350000D02*
X147600000Y-48200000D01*
X71850000Y-116050000D02*
X72450000Y-114650000D01*
X66925741Y-154835837D02*
X67222812Y-154822921D01*
X132750000Y-124250000D02*
X91500000Y-124000000D01*
X94609320Y-114452934D02*
X110000000Y-114500000D01*
X78532961Y-109900000D02*
X88101244Y-109900000D01*
X94003560Y-98693489D02*
X92735191Y-98917319D01*
X181450000Y-40050000D02*
X182000000Y-40400000D01*
X66328876Y-141524755D02*
X66815267Y-140833567D01*
X158600000Y-37650000D02*
X96100000Y-37650000D01*
X190000000Y-45950000D02*
X190150000Y-45700000D01*
X204250000Y-61000000D02*
X199600000Y-61010356D01*
X209850000Y-60550000D02*
X209700000Y-60200000D01*
X95300000Y-111100000D02*
X110000000Y-111000000D01*
X98918307Y-104904468D02*
X110000000Y-105000000D01*
X126969861Y-79950000D02*
X127646391Y-79950000D01*
X158350000Y-65350000D02*
X158750000Y-65200000D01*
X83400000Y-88550000D02*
X84450000Y-88350000D01*
X89800000Y-87650000D02*
X92250000Y-87600000D01*
X67205957Y-135196029D02*
X67650000Y-134900000D01*
X124870000Y-153780000D02*
X124950000Y-157407389D01*
X74508931Y-126640306D02*
X75102349Y-126470758D01*
X109725076Y-78396567D02*
X110878265Y-78635158D01*
X71150000Y-94400000D02*
X72500000Y-92490000D01*
X204700000Y-73800000D02*
X205400000Y-73700000D01*
X68500000Y-81000000D02*
X70100000Y-81100000D01*
X193620000Y-56370000D02*
X193650000Y-58100000D01*
X89127091Y-98068576D02*
X88232581Y-98143118D01*
X72500000Y-50500000D02*
X72500000Y-47725427D01*
X99605291Y-133940428D02*
X99500000Y-133950000D01*
X86300000Y-83000000D02*
X87300000Y-82800000D01*
X73550000Y-126950000D02*
X74093858Y-126768714D01*
X59980000Y-69710000D02*
X59980000Y-73710000D01*
X77329318Y-128052409D02*
X77500000Y-127950000D01*
X213700000Y-147100000D02*
X213450000Y-146150000D01*
X77300000Y-80650000D02*
X78200000Y-80400000D01*
X85021143Y-108639466D02*
X85775173Y-108573898D01*
X202900000Y-110700000D02*
X202500000Y-110300000D01*
X81586862Y-152123502D02*
X72750000Y-152100000D01*
X69200000Y-128850000D02*
X69703272Y-128850000D01*
X61250000Y-122960000D02*
X61250000Y-126960000D01*
X186000000Y-48750000D02*
X193620000Y-48750000D01*
X190350000Y-45050000D02*
X190350000Y-44750000D01*
X209694113Y-62211775D02*
X209750000Y-62100000D01*
X60050000Y-87110000D02*
X60050000Y-91110000D01*
X130700000Y-76000000D02*
X132080000Y-76200000D01*
X212050000Y-73300000D02*
X212300000Y-72950000D01*
X132080000Y-78740000D02*
X136850000Y-78700000D01*
X89593836Y-78403425D02*
X89950000Y-78350000D01*
X69000000Y-141150000D02*
X67950000Y-143350000D01*
X86728695Y-85337801D02*
X87601825Y-85235080D01*
X190850000Y-138250000D02*
X191250000Y-138200000D01*
X65400000Y-80100000D02*
X66100000Y-80400000D01*
X167550000Y-43700000D02*
X167700000Y-43900000D01*
X159250000Y-152200000D02*
X159300000Y-152950000D01*
X201500000Y-76150000D02*
X202100000Y-75850000D01*
X125899534Y-79898114D02*
X126231149Y-79922678D01*
X156900000Y-111800000D02*
X156700000Y-112200000D01*
X193100000Y-93500000D02*
X191800000Y-90900000D01*
X155100000Y-156050000D02*
X155550000Y-156250000D01*
X178828248Y-58706497D02*
X178800000Y-58650000D01*
X189350000Y-140450000D02*
X189450000Y-139950000D01*
X196000000Y-48800000D02*
X196000000Y-47950000D01*
X82250000Y-131050000D02*
X82750000Y-130850000D01*
X196938975Y-57524758D02*
X196719234Y-57353848D01*
X76350000Y-78600000D02*
X76694218Y-78575413D01*
X79116472Y-90387585D02*
X80120000Y-89950000D01*
X103778381Y-77484779D02*
X104240087Y-77472629D01*
X72300000Y-60600000D02*
X73900000Y-60600000D01*
X207050000Y-142950000D02*
X206850000Y-142800000D01*
X164750000Y-67300000D02*
X148350000Y-67250000D01*
X98750000Y-134450000D02*
X98600000Y-134800000D01*
X122750000Y-75700000D02*
X124200000Y-75450000D01*
X80120000Y-71990000D02*
X80500000Y-72000000D01*
X182000000Y-53800000D02*
X182300000Y-53650000D01*
X61650000Y-120500000D02*
X61500000Y-121150000D01*
X128550000Y-75550000D02*
X129800000Y-75800000D01*
X186700000Y-154300000D02*
X187150000Y-153900000D01*
X187750000Y-153350000D02*
X188200000Y-152850000D01*
X191250000Y-138200000D02*
X199550000Y-138000000D01*
X128551746Y-79908932D02*
X128980046Y-79869996D01*
X74600000Y-110350000D02*
X74941881Y-110281624D01*
X158750000Y-110150000D02*
X158100000Y-110700000D01*
X62980000Y-81710000D02*
X72500000Y-82330000D01*
X102324058Y-77625135D02*
X102627233Y-77581824D01*
X64659471Y-47714258D02*
X56650000Y-47700000D01*
X166200000Y-64400000D02*
X166200000Y-64750000D01*
X99500000Y-133950000D02*
X99100000Y-134150000D01*
X158050000Y-44450000D02*
X158050000Y-43450000D01*
X76950000Y-99950000D02*
X77300000Y-99850000D01*
X71013012Y-112731096D02*
X71309421Y-112642174D01*
X100100000Y-82150000D02*
X101250000Y-81850000D01*
X75427619Y-100218095D02*
X75451821Y-100212045D01*
X76522060Y-52884597D02*
X77100000Y-52550000D01*
X204000000Y-56237410D02*
X202250000Y-56250000D01*
X199550000Y-148800000D02*
X199450000Y-145150000D01*
X78500000Y-59550000D02*
X80120000Y-59290000D01*
X82492633Y-98453110D02*
X80120000Y-98500000D01*
X102374280Y-95209508D02*
X97106066Y-96598401D01*
X69250000Y-54400000D02*
X69850000Y-54950000D01*
X89750000Y-112450000D02*
X90850000Y-111950000D01*
X69880961Y-95531423D02*
X70100000Y-95400000D01*
X148350000Y-67250000D02*
X148000000Y-67200000D01*
X137010000Y-71050000D02*
X132080000Y-71120000D01*
X130500045Y-79612489D02*
X130779922Y-79542520D01*
X126103387Y-69006911D02*
X125766523Y-69084649D01*
X174600000Y-68600000D02*
X174600000Y-79800000D01*
X211850000Y-58000000D02*
X211500000Y-57550000D01*
X99100000Y-102400000D02*
X101950000Y-102150000D01*
X85250000Y-92500000D02*
X104250000Y-92527859D01*
X157450000Y-118900000D02*
X157750000Y-119550000D01*
X198500000Y-45150000D02*
X198800000Y-45100000D01*
X150200000Y-127450000D02*
X132750000Y-127500000D01*
X63000000Y-64000000D02*
X66750000Y-65600000D01*
X213850000Y-74300000D02*
X213300000Y-74650000D01*
X94700000Y-103050000D02*
X97000000Y-102650000D01*
X203550000Y-75400000D02*
X204600000Y-75250000D01*
X189350000Y-148900000D02*
X189350000Y-140450000D01*
X214250000Y-73900000D02*
X213850000Y-74300000D01*
X198800000Y-45100000D02*
X204750000Y-45000000D01*
X187392257Y-150342423D02*
X187500000Y-150100000D01*
X69100000Y-64750000D02*
X70300000Y-65350000D01*
X58250000Y-156550000D02*
X58950000Y-156850000D01*
X102350000Y-78950000D02*
X104300000Y-78720000D01*
X152090000Y-68540000D02*
X139300000Y-68600000D01*
X137010000Y-50730000D02*
X138637039Y-49556154D01*
X86980812Y-124187662D02*
X88130348Y-122704390D01*
X150050000Y-60500000D02*
X150000000Y-61850000D01*
X206300000Y-124600000D02*
X206300000Y-124150000D01*
X92655158Y-131730407D02*
X92350000Y-132150000D01*
X92350000Y-132150000D02*
X92050000Y-132800000D01*
X132750000Y-117750000D02*
X91500000Y-117500000D01*
X174650000Y-101800000D02*
X174850000Y-116000000D01*
X132080000Y-73660000D02*
X120900000Y-73650000D01*
X209900000Y-61650000D02*
X209950000Y-61200000D01*
X96650000Y-67650000D02*
X96680000Y-71100000D01*
X71184585Y-136097233D02*
X72500000Y-135160000D01*
X152090000Y-78700000D02*
X145400000Y-78800000D01*
X75236601Y-133739812D02*
X75302584Y-133732049D01*
X92706745Y-100503776D02*
X89886343Y-101248048D01*
X182900000Y-48850000D02*
X182950000Y-45800000D01*
X107657540Y-77879585D02*
X109277301Y-78293141D01*
X99043784Y-79809628D02*
X99479809Y-79718790D01*
X153753993Y-93973109D02*
X153932465Y-94012770D01*
X67650000Y-148800000D02*
X66600000Y-150000000D01*
X75700000Y-101800000D02*
X76050000Y-101550000D01*
X83200000Y-130550000D02*
X83639824Y-130146828D01*
X66880171Y-105525931D02*
X66900000Y-105500000D01*
X66300000Y-123350000D02*
X67550000Y-122050000D01*
X77524866Y-131300000D02*
X77583380Y-131300000D01*
X189100000Y-81900000D02*
X188600000Y-78050000D01*
X57300000Y-155850000D02*
X57700000Y-156200000D01*
X163500000Y-153900000D02*
X180171643Y-153996090D01*
X182700000Y-40950000D02*
X186000000Y-43670000D01*
X160400000Y-154700000D02*
X161150000Y-155100000D01*
X69318329Y-108075241D02*
X69450000Y-108000000D01*
X75450000Y-65550000D02*
X76750000Y-65250000D01*
X202750000Y-75550000D02*
X203550000Y-75400000D01*
X155700000Y-65950000D02*
X156850000Y-65850000D01*
X170700000Y-37661157D02*
X186050000Y-37682041D01*
X69800000Y-139950000D02*
X69350000Y-140550000D01*
X173050000Y-61100000D02*
X176750000Y-55050000D01*
X202486988Y-121849976D02*
X174850000Y-121800000D01*
X206443394Y-66407707D02*
X207264384Y-65449886D01*
X74600000Y-102250000D02*
X75100000Y-102100000D01*
X79416620Y-131350000D02*
X80046149Y-131350000D01*
X65400000Y-151150000D02*
X64450000Y-151950000D01*
X70626374Y-136525339D02*
X70630262Y-136522137D01*
X154000000Y-154200000D02*
X154100000Y-154700000D01*
X75050000Y-136500000D02*
X75861830Y-136439864D01*
X82360101Y-56516345D02*
X81947155Y-56591426D01*
X94250000Y-130450000D02*
X93863078Y-130696223D01*
X91150000Y-79500000D02*
X91500000Y-79400000D01*
X80250000Y-50500000D02*
X79420000Y-52080000D01*
X75171586Y-100278536D02*
X74473806Y-100433599D01*
X64874215Y-154850000D02*
X63700000Y-154850000D01*
X101145090Y-76756473D02*
X101549196Y-76635241D01*
X134500000Y-100000000D02*
X105210119Y-99354630D01*
X67550000Y-57550000D02*
X69600000Y-59650000D01*
X75301500Y-131518184D02*
X75794490Y-131440344D01*
X75259057Y-110223491D02*
X75431183Y-110194803D01*
X206950000Y-105000000D02*
X206950000Y-119950000D01*
X201500000Y-37718443D02*
X217550000Y-37850000D01*
X188650000Y-127950000D02*
X188850609Y-127816261D01*
X132750000Y-111250000D02*
X110000000Y-111000000D01*
X97207782Y-107975749D02*
X97562430Y-107960329D01*
X188850000Y-151650000D02*
X189050000Y-151000000D01*
X89987596Y-85103517D02*
X94336194Y-85148815D01*
X60050000Y-99110000D02*
X60050000Y-100700000D01*
X62110000Y-104870000D02*
X62110000Y-108870000D01*
X113400000Y-146250000D02*
X117250000Y-146160000D01*
X176800000Y-39300000D02*
X178850000Y-39300000D01*
X65250000Y-130050000D02*
X65314925Y-130015628D01*
X197850000Y-45500000D02*
X198500000Y-45150000D01*
X70900000Y-133900000D02*
X73728374Y-133856487D01*
X209400000Y-59750000D02*
X209050000Y-59500000D01*
X152090000Y-76160000D02*
X164200000Y-77250000D01*
X150250000Y-59950000D02*
X150150000Y-60200000D01*
X85401289Y-56637444D02*
X84124226Y-56375482D01*
X200950000Y-56150000D02*
X201350000Y-56250000D01*
X97750000Y-82550000D02*
X99000000Y-82400000D01*
X62900000Y-154700000D02*
X62550000Y-154500000D01*
X72500000Y-106120000D02*
X74350000Y-105500000D01*
X182000000Y-40400000D02*
X182700000Y-40950000D01*
X72500000Y-79790000D02*
X73880791Y-79367133D01*
X214500000Y-152250000D02*
X214600000Y-151600000D01*
X99806517Y-99461381D02*
X98729805Y-99524717D01*
X67050000Y-103400000D02*
X68050000Y-102900000D01*
X89966532Y-120084989D02*
X91500000Y-117500000D01*
X114450000Y-82600000D02*
X120900000Y-78730000D01*
X181800000Y-61050000D02*
X181350000Y-61000000D01*
X213950000Y-119400000D02*
X213550000Y-118900000D01*
X145774414Y-43446139D02*
X147202273Y-43063677D01*
X164200000Y-77250000D02*
X168700000Y-99750000D01*
X81852241Y-56604025D02*
X80120000Y-56750000D01*
X70100000Y-95400000D02*
X70500000Y-95100000D01*
X89427219Y-116574447D02*
X89723837Y-116324664D01*
X217950000Y-109950000D02*
X218100000Y-110750000D01*
X217532813Y-48850000D02*
X217500000Y-69850000D01*
X60750000Y-103200000D02*
X62110000Y-104870000D01*
X74200000Y-136750000D02*
X75050000Y-136500000D01*
X208850000Y-73200000D02*
X208950000Y-68600000D01*
X179800000Y-60150000D02*
X179550000Y-59900000D01*
X82031817Y-86633482D02*
X83402979Y-86131837D01*
X208478835Y-63965398D02*
X209200000Y-63100000D01*
X168700000Y-113800000D02*
X170150000Y-116000000D01*
X70150000Y-118850000D02*
X71050000Y-117450000D01*
X101726940Y-84208647D02*
X101750000Y-84200000D01*
X150900000Y-59600000D02*
X150600000Y-59700000D01*
X89100000Y-109850000D02*
X90106891Y-109634238D01*
X66750000Y-65600000D02*
X69100000Y-66500000D01*
X77916528Y-131305551D02*
X79083472Y-131344449D01*
X80120000Y-87410000D02*
X81670895Y-86773506D01*
X114700000Y-87550000D02*
X120900000Y-83810000D01*
X101959625Y-79032184D02*
X102350000Y-78950000D01*
X99603204Y-97289146D02*
X96173414Y-98203756D01*
X67350000Y-129200000D02*
X67813702Y-129115690D01*
X183750000Y-49950000D02*
X183350000Y-49800000D01*
X63050000Y-99110000D02*
X64573375Y-98100764D01*
X82750000Y-130850000D02*
X83200000Y-130550000D01*
X92050000Y-132800000D02*
X91944257Y-133265269D01*
X75970858Y-110119905D02*
X76095383Y-110106069D01*
X199250000Y-43150000D02*
X201500000Y-43790000D01*
X207750000Y-45550000D02*
X208200000Y-45750000D01*
X179400000Y-39350000D02*
X180050000Y-39450000D01*
X77800000Y-52300000D02*
X78100000Y-52250000D01*
X74300000Y-89500000D02*
X75300000Y-89200000D01*
X80120000Y-130080000D02*
X82250000Y-128900000D01*
X60000000Y-56000000D02*
X60000000Y-60000000D01*
X156200000Y-156450000D02*
X156750000Y-156550000D01*
X191800000Y-90900000D02*
X190550000Y-87950000D01*
X80120000Y-140240000D02*
X83000000Y-140250000D01*
X199550000Y-79800000D02*
X200300000Y-77300000D01*
X69796727Y-128849563D02*
X74648097Y-128804223D01*
X71900000Y-139000000D02*
X71500000Y-139050000D01*
X99550000Y-87400000D02*
X101100000Y-87050000D01*
X80120000Y-140240000D02*
X80150000Y-149700000D01*
X172750000Y-56350000D02*
X172800000Y-41050000D01*
X194750000Y-60450000D02*
X195750000Y-61018931D01*
X157650000Y-111150000D02*
X156900000Y-111800000D01*
X102704151Y-83999308D02*
X102752007Y-83991332D01*
X123250000Y-53500000D02*
X126294071Y-54702596D01*
X87885317Y-81020375D02*
X88524591Y-80733804D01*
X86250000Y-122050000D02*
X86418456Y-121612015D01*
X62650000Y-128650000D02*
X62250000Y-128350000D01*
X132080000Y-68580000D02*
X137010000Y-68510000D01*
X216600000Y-157850000D02*
X143200000Y-157495525D01*
X66600000Y-150000000D02*
X65400000Y-151150000D01*
X150400000Y-63300000D02*
X150150000Y-63100000D01*
X203700000Y-111000000D02*
X203250000Y-110900000D01*
X161400000Y-111500000D02*
X158950000Y-113350000D01*
X66946045Y-129329266D02*
X67350000Y-129200000D01*
X77250000Y-91000000D02*
X77643688Y-90897299D01*
X212500000Y-72200000D02*
X212500000Y-60050000D01*
X68050000Y-102900000D02*
X69000000Y-102600000D01*
X167250000Y-43550000D02*
X167550000Y-43700000D01*
X71500000Y-139050000D02*
X71000000Y-139150000D01*
X197400000Y-53400000D02*
X197500000Y-53850000D01*
X62550000Y-154500000D02*
X61900000Y-153950000D01*
X206850000Y-142800000D02*
X206950000Y-123750000D01*
X208950000Y-148800000D02*
X208900000Y-145350000D01*
X111400000Y-78750000D02*
X113280000Y-78730000D01*
X182600000Y-44600000D02*
X182300000Y-44200000D01*
X204250000Y-148800000D02*
X204150000Y-145750000D01*
X199450000Y-145150000D02*
X204150000Y-140750000D01*
X124870000Y-151240000D02*
X128050000Y-151200000D01*
X86394313Y-78548221D02*
X88299077Y-78512282D01*
X152250000Y-48190000D02*
X159000000Y-48150000D01*
X188500000Y-152350000D02*
X188850000Y-151650000D01*
X70450000Y-110150000D02*
X71050000Y-109650000D01*
X196000000Y-47950000D02*
X196200000Y-47300000D01*
X143120000Y-143620000D02*
X146250000Y-143600000D01*
X212300000Y-72950000D02*
X212400000Y-72550000D01*
X124870000Y-143620000D02*
X128050000Y-143600000D01*
X193650000Y-58100000D02*
X193650000Y-59300000D01*
X66772120Y-91696435D02*
X67100000Y-91600000D01*
X82311880Y-136107973D02*
X83350000Y-135750000D01*
X113400000Y-141150000D02*
X117250000Y-141080000D01*
X87250000Y-119250000D02*
X87443633Y-118911142D01*
X147200000Y-48600000D02*
X147350000Y-48350000D01*
X115192797Y-93950681D02*
X111328997Y-93996679D01*
X148821973Y-42770086D02*
X151178120Y-42541016D01*
X66000000Y-104100000D02*
X67050000Y-103400000D01*
X76204680Y-110094532D02*
X76527174Y-110062283D01*
X74900000Y-60450000D02*
X77100000Y-59950000D01*
X162450000Y-153400000D02*
X162950000Y-153800000D01*
X152090000Y-71080000D02*
X140800000Y-71150000D01*
X67950000Y-143350000D02*
X67150000Y-144800000D01*
X189400000Y-46300000D02*
X189650000Y-46200000D01*
X78400000Y-105000000D02*
X79600000Y-104950000D01*
X92350000Y-111450000D02*
X93250000Y-111300000D01*
X92363710Y-98975695D02*
X91153286Y-99142650D01*
X210750000Y-75400000D02*
X209800000Y-75550000D01*
X206150000Y-77100000D02*
X205600000Y-77550000D01*
X198700000Y-55300000D02*
X199100000Y-55550000D01*
X132050000Y-58350000D02*
X137010000Y-58350000D01*
X77800000Y-85800000D02*
X78350000Y-85600000D01*
X75300000Y-89200000D02*
X76700000Y-88950000D01*
X97093932Y-96601592D02*
X94492199Y-97284013D01*
X168300000Y-71900000D02*
X169900000Y-79800000D01*
X66100000Y-80400000D02*
X67250000Y-80800000D01*
X68074282Y-139271303D02*
X69051296Y-138116650D01*
X68450000Y-112700000D02*
X69150000Y-111750000D01*
X117250000Y-151240000D02*
X117250000Y-153780000D01*
X186100000Y-154700000D02*
X186700000Y-154300000D01*
X156739850Y-44493672D02*
X158050000Y-44450000D01*
X196550000Y-46750000D02*
X196900000Y-46250000D01*
X204250000Y-138000000D02*
X204250000Y-127200000D01*
X132750000Y-108000000D02*
X110000000Y-108000000D01*
X57050000Y-155500000D02*
X57300000Y-155850000D01*
X182300000Y-44200000D02*
X182000000Y-43900000D01*
X76100000Y-105150000D02*
X77250000Y-105050000D01*
X90000000Y-80100000D02*
X90200000Y-79950000D01*
X188350000Y-128400000D02*
X188650000Y-127950000D01*
X114700000Y-90400000D02*
X120900000Y-86350000D01*
X113280000Y-83810000D02*
X109900000Y-83800000D01*
X204200000Y-73850000D02*
X204700000Y-73800000D01*
X105850000Y-157315148D02*
X83250000Y-157206005D01*
X73600000Y-102300000D02*
X74150000Y-102300000D01*
X67750000Y-51550000D02*
X67800000Y-52100000D01*
X68359145Y-117725612D02*
X68695591Y-116828423D01*
X210900000Y-57000000D02*
X210500000Y-56700000D01*
X209000000Y-124200000D02*
X208950000Y-127200000D01*
X209700000Y-154950000D02*
X211000000Y-154650000D01*
X73441658Y-100721785D02*
X72500000Y-101040000D01*
X99533248Y-84865171D02*
X99600000Y-84850000D01*
X85550000Y-83250000D02*
X86300000Y-83000000D01*
X65106330Y-70426582D02*
X65771029Y-70592757D01*
X132080000Y-81280000D02*
X136850000Y-81240000D01*
X205900000Y-123100000D02*
X205500000Y-122600000D01*
X189800000Y-85400000D02*
X189100000Y-81900000D01*
X105870000Y-138540000D02*
X109000000Y-138500000D01*
X76400000Y-83850000D02*
X78900000Y-83600000D01*
X122571620Y-79206054D02*
X123467692Y-79456954D01*
X80120000Y-92490000D02*
X82750000Y-92500000D01*
X84947239Y-102735644D02*
X83791110Y-103005408D01*
X206800000Y-76650000D02*
X206150000Y-77100000D01*
X210500000Y-56700000D02*
X210100000Y-56450000D01*
X72500000Y-111200000D02*
X73599889Y-110723382D01*
X137010000Y-53270000D02*
X135103589Y-52260724D01*
X208050000Y-120950000D02*
X208400000Y-121350000D01*
X189050000Y-151000000D02*
X189200000Y-150450000D01*
X168900000Y-45950000D02*
X169127358Y-45975262D01*
X63050000Y-95110000D02*
X63799680Y-93996190D01*
X159000000Y-48150000D02*
X160800000Y-46100000D01*
X84300000Y-104750000D02*
X90400000Y-103900000D01*
X209050000Y-59500000D02*
X208350000Y-59200000D01*
X208600000Y-144650000D02*
X208300000Y-144250000D01*
X90400000Y-103900000D02*
X94700000Y-103050000D01*
X166200000Y-64750000D02*
X166250000Y-66250000D01*
X209900000Y-60950000D02*
X209850000Y-60550000D01*
X87575605Y-125602686D02*
X91500000Y-121000000D01*
X150150000Y-60200000D02*
X150050000Y-60500000D01*
X83000000Y-140250000D02*
X85500000Y-140250000D01*
X199550000Y-68600000D02*
X199600000Y-61010356D01*
X203250000Y-110900000D02*
X202900000Y-110700000D01*
X139300000Y-68600000D02*
X139350000Y-105000000D01*
X202282810Y-58429101D02*
X200736782Y-58235848D01*
X60000000Y-60000000D02*
X60000000Y-64000000D01*
X185450000Y-155000000D02*
X186100000Y-154700000D01*
X154000000Y-130100000D02*
X97258584Y-130149773D01*
X72500000Y-132620000D02*
X73650000Y-131950000D01*
X62110000Y-104870000D02*
X63450000Y-102950000D01*
X64386221Y-139324014D02*
X64450000Y-138750000D01*
X132080000Y-60950000D02*
X137010000Y-60880000D01*
X111950000Y-70000000D02*
X113280000Y-71110000D01*
X211500000Y-57550000D02*
X211200000Y-57250000D01*
X74350000Y-131700000D02*
X74899965Y-131590007D01*
X77400000Y-101050000D02*
X78250000Y-101000000D01*
X201350000Y-56250000D02*
X202250000Y-56250000D01*
X94101796Y-77412896D02*
X94203299Y-77409137D01*
X77150000Y-106700000D02*
X77700000Y-106450000D01*
X135500000Y-157458339D02*
X124950000Y-157407389D01*
X104300000Y-78720000D02*
X108650000Y-82600000D01*
X212550000Y-75000000D02*
X211650000Y-75250000D01*
X189200000Y-150450000D02*
X189300000Y-149750000D01*
X204750000Y-45000000D02*
X206100000Y-45100000D01*
X85100000Y-121200000D02*
X85600000Y-120300000D01*
X56700000Y-154600000D02*
X56850000Y-155150000D01*
X78900000Y-83600000D02*
X81900000Y-83600000D01*
X75050000Y-139000000D02*
X71900000Y-139000000D01*
X179550000Y-59900000D02*
X179300000Y-59550000D01*
X147250000Y-66300000D02*
X147200000Y-48600000D01*
X152090000Y-71080000D02*
X168300000Y-71900000D01*
X64800000Y-137700000D02*
X65500000Y-136600000D01*
X166350000Y-64050000D02*
X166200000Y-64400000D01*
X168000000Y-44850000D02*
X168200000Y-45550000D01*
X62980000Y-73710000D02*
X72500000Y-71990000D01*
X147550000Y-66900000D02*
X147300000Y-66550000D01*
X102300000Y-86700000D02*
X102850000Y-86600000D01*
X214700000Y-72950000D02*
X214550000Y-73400000D01*
X76690389Y-99982451D02*
X76950000Y-99950000D01*
X189600000Y-139550000D02*
X189800000Y-139100000D01*
X180550000Y-43500000D02*
X180281796Y-43500000D01*
X70250000Y-144950000D02*
X68900000Y-147200000D01*
X68550810Y-134508490D02*
X69300000Y-134200000D01*
X214600000Y-151600000D02*
X214550000Y-121150000D01*
X96014238Y-130201626D02*
X94950000Y-130250000D01*
X132080000Y-81280000D02*
X120900000Y-81270000D01*
X206100000Y-45100000D02*
X207100000Y-45250000D01*
X64650000Y-101600000D02*
X65450000Y-100850000D01*
X217473481Y-108826776D02*
X217950000Y-109950000D01*
X208650000Y-121950000D02*
X208850000Y-122600000D01*
X113280000Y-88890000D02*
X109900000Y-88850000D01*
X195800000Y-50750000D02*
X195500000Y-50450000D01*
X64290000Y-144980000D02*
X65413875Y-143013218D01*
X217650000Y-157200000D02*
X217171096Y-157610489D01*
X91800000Y-79350000D02*
X92200000Y-79350000D01*
X199250000Y-37700000D02*
X201500000Y-37718443D01*
X79662219Y-136491079D02*
X81100000Y-136450000D01*
X69700000Y-61600000D02*
X70750000Y-61800000D01*
X156850000Y-65850000D02*
X157750000Y-65600000D01*
X93026632Y-79611652D02*
X93800000Y-79950000D01*
X174850000Y-138000000D02*
X174850000Y-148800000D01*
X104997982Y-94636147D02*
X102828250Y-95101089D01*
X61250000Y-130960000D02*
X61250000Y-134960000D01*
X104250000Y-92527859D02*
X119350000Y-92550000D01*
X69850000Y-102400000D02*
X70500000Y-102300000D01*
X144131874Y-46629593D02*
X146204407Y-45844543D01*
X155900000Y-91750000D02*
X158750000Y-110150000D01*
X209120000Y-41250000D02*
X214500000Y-41250000D01*
X77100000Y-59950000D02*
X78500000Y-59550000D01*
X172850000Y-40550000D02*
X173050000Y-40200000D01*
X212050000Y-117550000D02*
X211300000Y-117000000D01*
X212450000Y-59400000D02*
X212300000Y-58850000D01*
X101250000Y-81850000D02*
X102700000Y-81450000D01*
X78900000Y-80150000D02*
X80120000Y-79790000D01*
X82092315Y-126217521D02*
X82250000Y-126200000D01*
X214550000Y-121150000D02*
X214350000Y-120100000D01*
X86560971Y-98254343D02*
X84612462Y-98349392D01*
X88067316Y-98155512D02*
X86738937Y-98244071D01*
X206300000Y-124150000D02*
X206150000Y-123550000D01*
X207900000Y-143800000D02*
X207450000Y-143400000D01*
X188600000Y-78050000D02*
X188250000Y-75150000D01*
X84899935Y-128858409D02*
X86015527Y-127556885D01*
X197450000Y-57900000D02*
X197265999Y-57768571D01*
X68500000Y-104350000D02*
X69065634Y-104137887D01*
X77738371Y-109930775D02*
X77867777Y-109922148D01*
X92600000Y-114650000D02*
X92707618Y-114629501D01*
X74350000Y-105500000D02*
X75150000Y-105300000D01*
X69189961Y-91337918D02*
X70049261Y-91302114D01*
X147300000Y-66550000D02*
X147250000Y-66300000D01*
X203950000Y-154800000D02*
X205250000Y-154950000D01*
X182850000Y-51700000D02*
X183000000Y-51450000D01*
X113400000Y-143750000D02*
X117250000Y-143620000D01*
X182950000Y-45800000D02*
X182850000Y-45150000D01*
X174850000Y-121800000D02*
X174850000Y-127200000D01*
X139350000Y-105000000D02*
X132750000Y-105000000D01*
X205500000Y-122600000D02*
X205150000Y-122250000D01*
X93141684Y-108761987D02*
X94532184Y-108388926D01*
X66957491Y-110065636D02*
X67450000Y-109450000D01*
X196900000Y-46250000D02*
X197350000Y-45800000D01*
X189700000Y-127300000D02*
X190150000Y-127200000D01*
X67050000Y-114500000D02*
X68000000Y-113250000D01*
X72600000Y-65650000D02*
X74000000Y-65650000D01*
X79600000Y-104950000D02*
X81250000Y-104900000D01*
X182000000Y-43900000D02*
X181600000Y-43700000D01*
X152090000Y-88860000D02*
X157700000Y-89050000D01*
X102700000Y-81450000D02*
X104300000Y-81260000D01*
X110771623Y-94018873D02*
X108405484Y-94179289D01*
X61900000Y-119000000D02*
X61800000Y-119750000D01*
X88599928Y-57596948D02*
X88045693Y-57428998D01*
X96000000Y-47750000D02*
X95900000Y-53650000D01*
X157700000Y-89050000D02*
X161400000Y-111500000D01*
X181600000Y-43700000D02*
X181200000Y-43600000D01*
X167900000Y-44250000D02*
X167950000Y-44500000D01*
X212500000Y-153250000D02*
X213150000Y-152050000D01*
X83250000Y-157206005D02*
X61620242Y-157101547D01*
X185374978Y-152560540D02*
X185550000Y-152450000D01*
X61900000Y-127800000D02*
X61250000Y-126960000D01*
X211300000Y-117000000D02*
X210600000Y-116450000D01*
X81150464Y-131288837D02*
X81500000Y-131250000D01*
X212550000Y-143850000D02*
X208950000Y-138000000D01*
X90885078Y-109434477D02*
X92859491Y-108842153D01*
X151250000Y-59550000D02*
X171800000Y-59750000D01*
X136850000Y-91400000D02*
X129540000Y-91440000D01*
X211700000Y-155950000D02*
X212650000Y-155450000D01*
X168250000Y-135150000D02*
X170150000Y-138000000D01*
X197700000Y-54300000D02*
X197950000Y-54650000D01*
X154300000Y-155200000D02*
X154700000Y-155750000D01*
X90775675Y-78076103D02*
X91320739Y-77903977D01*
X95579702Y-108167234D02*
X96098385Y-108086190D01*
X197900000Y-97550000D02*
X196550000Y-96950000D01*
X68850000Y-120550000D02*
X70150000Y-118850000D01*
X211200000Y-74000000D02*
X211550000Y-73750000D01*
X70296832Y-133995237D02*
X70900000Y-133900000D01*
X167950000Y-44500000D02*
X168000000Y-44850000D01*
X218150000Y-155100000D02*
X218140771Y-155256887D01*
X168450000Y-146650000D02*
X170150000Y-148800000D01*
X208950000Y-127200000D02*
X208950000Y-138000000D01*
X75549680Y-128755032D02*
X75600000Y-128750000D01*
X76850000Y-106900000D02*
X77150000Y-106700000D01*
X123172940Y-70079085D02*
X120750000Y-71420000D01*
X77500000Y-127950000D02*
X77774378Y-127858541D01*
X163750000Y-155350000D02*
X182900000Y-155400000D01*
X195500000Y-50450000D02*
X195200000Y-50200000D01*
X181522671Y-153912260D02*
X181534724Y-153910688D01*
X61500000Y-121150000D02*
X61350000Y-121900000D01*
X76850000Y-101200000D02*
X77400000Y-101050000D01*
X136850000Y-96480000D02*
X106721558Y-96350093D01*
X67100000Y-91600000D02*
X67478684Y-91528997D01*
X69600000Y-59650000D02*
X70550000Y-60200000D01*
X124870000Y-136000000D02*
X124870000Y-138540000D01*
X152090000Y-68540000D02*
X169900000Y-68600000D01*
X69950000Y-98650000D02*
X70850000Y-98500000D01*
X94924182Y-58198484D02*
X92830039Y-58156601D01*
X204250000Y-68600000D02*
X205826995Y-67064505D01*
X62110000Y-112870000D02*
X62110000Y-116870000D01*
X189650000Y-46200000D02*
X190000000Y-45950000D01*
X174850000Y-127200000D02*
X174850000Y-138000000D01*
X150600000Y-59700000D02*
X150250000Y-59950000D01*
X62110000Y-108870000D02*
X62110000Y-112870000D01*
X85540366Y-123283488D02*
X85850000Y-122850000D01*
X143120000Y-148700000D02*
X146250000Y-148700000D01*
X83171218Y-99796839D02*
X78846937Y-99755259D01*
X204181290Y-122828617D02*
X203858742Y-122459990D01*
X70300000Y-65350000D02*
X71550000Y-65600000D01*
X206200000Y-142950000D02*
X206300000Y-124600000D01*
X59980000Y-75800000D02*
X59980000Y-77710000D01*
X182300000Y-53650000D02*
X182550000Y-53350000D01*
X197350000Y-50850000D02*
X197400000Y-53400000D01*
X61290000Y-152980000D02*
X61900000Y-153950000D01*
X202500000Y-110300000D02*
X202150000Y-109800000D01*
X82600000Y-104850000D02*
X84300000Y-104750000D01*
X83996964Y-82043873D02*
X85232972Y-81824138D01*
X159100000Y-86650000D02*
X168450000Y-146650000D01*
X78100000Y-138550000D02*
X77050000Y-138850000D01*
X69630397Y-114507048D02*
X69659475Y-114437260D01*
X61350000Y-121900000D02*
X61250000Y-122960000D01*
X62980000Y-77710000D02*
X64150000Y-79150000D01*
X104300000Y-86340000D02*
X108600000Y-90450000D01*
X129800000Y-75800000D02*
X130700000Y-76000000D01*
X205600000Y-77550000D02*
X204250000Y-79800000D01*
X83407288Y-103087060D02*
X82605735Y-103241205D01*
X152090000Y-93940000D02*
X153543472Y-93949317D01*
X213150000Y-152050000D02*
X213500000Y-151100000D01*
X135500000Y-153780000D02*
X135500000Y-157458339D01*
X76222630Y-128583211D02*
X76500000Y-128500000D01*
X74569583Y-133808042D02*
X75063234Y-133758677D01*
X63000000Y-60000000D02*
X67850000Y-63800000D01*
X184850000Y-155150000D02*
X185450000Y-155000000D01*
X208950000Y-101800000D02*
X210296883Y-102227060D01*
X161350000Y-115600000D02*
X161500000Y-116250000D01*
X159900000Y-154200000D02*
X160400000Y-154700000D01*
X147523072Y-45446492D02*
X148895768Y-45133421D01*
X68164746Y-118236291D02*
X68340728Y-117774339D01*
X91739243Y-134548076D02*
X91693658Y-135034318D01*
X109050000Y-87550000D02*
X114700000Y-87550000D01*
X154245535Y-94140959D02*
X154374713Y-94221696D01*
X71050000Y-117450000D02*
X71850000Y-116050000D01*
X190150000Y-45700000D02*
X190250000Y-45400000D01*
X61290000Y-140980000D02*
X61290000Y-144980000D01*
X169571310Y-46034683D02*
X170690000Y-46210000D01*
X69915539Y-113753384D02*
X69975349Y-113573954D01*
X216852645Y-107598784D02*
X216967889Y-107802155D01*
X85182648Y-134317352D02*
X85211946Y-134288054D01*
X83556358Y-127806369D02*
X84410461Y-126982770D01*
X100496543Y-133899370D02*
X117250000Y-133875740D01*
X209120000Y-48870000D02*
X217532813Y-48850000D01*
X113400000Y-138650000D02*
X113750000Y-138550000D01*
X190050000Y-138800000D02*
X190450000Y-138450000D01*
X179300000Y-59550000D02*
X179197591Y-59379318D01*
X152090000Y-91400000D02*
X155900000Y-91750000D01*
X152090000Y-73620000D02*
X165500000Y-74450000D01*
X208200000Y-45750000D02*
X209120000Y-46330000D01*
X65450000Y-100850000D02*
X66100000Y-100400000D01*
X66600000Y-115100000D02*
X67050000Y-114500000D01*
X127500000Y-75400000D02*
X128550000Y-75550000D01*
X60450000Y-102750000D02*
X60750000Y-103200000D01*
X208850000Y-75800000D02*
X207950000Y-76100000D01*
X204150000Y-46350000D02*
X204000000Y-56237410D01*
X81900000Y-83600000D02*
X84150000Y-83500000D01*
X74873723Y-79022354D02*
X75200000Y-78900000D01*
X76000000Y-107300000D02*
X76400000Y-107150000D01*
X158050000Y-43450000D02*
X166800000Y-43500000D01*
X199300000Y-98200000D02*
X197900000Y-97550000D01*
X124950000Y-157407389D02*
X105850000Y-157315148D01*
X76400000Y-107150000D02*
X76850000Y-106900000D01*
X158950000Y-113350000D02*
X160150000Y-113950000D01*
X143120000Y-153780000D02*
X143200000Y-157495525D01*
X205750000Y-143700000D02*
X206000000Y-143350000D01*
X69000000Y-102600000D02*
X69850000Y-102400000D01*
X104650000Y-102150000D02*
X129500000Y-102000000D01*
X166100000Y-66650000D02*
X165750000Y-67000000D01*
X88450000Y-82600000D02*
X90050000Y-82550000D01*
X68000000Y-113250000D02*
X68450000Y-112700000D01*
X72500000Y-137700000D02*
X73136173Y-137312764D01*
X87450000Y-87750000D02*
X88700000Y-87700000D01*
X147000000Y-81250000D02*
X147000000Y-121000000D01*
X75400000Y-86100000D02*
X76950000Y-85950000D01*
X200950000Y-76650000D02*
X201500000Y-76150000D01*
X75936766Y-78718067D02*
X76350000Y-78600000D01*
X70550000Y-60200000D02*
X71400000Y-60500000D01*
X64290000Y-140980000D02*
X64335218Y-139977660D01*
X65110000Y-112870000D02*
X65956157Y-111519951D01*
X98037792Y-107950975D02*
X110000000Y-108000000D01*
X94950000Y-130250000D02*
X94250000Y-130450000D01*
X70500000Y-95100000D02*
X70900000Y-94700000D01*
X108650000Y-82600000D02*
X114450000Y-82600000D01*
X101100000Y-87050000D02*
X102300000Y-86700000D01*
X187400000Y-65850000D02*
X187200000Y-63650000D01*
X88850000Y-113100000D02*
X89750000Y-112450000D01*
X214800000Y-51550000D02*
X214800000Y-72450000D01*
X63050000Y-91110000D02*
X72500000Y-87410000D01*
X202000000Y-99000000D02*
X200950000Y-98550000D01*
X91046637Y-99156776D02*
X88298284Y-99505773D01*
X213800000Y-148150000D02*
X213700000Y-147100000D01*
X190450000Y-138450000D02*
X190850000Y-138250000D01*
X86150000Y-117650000D02*
X86400000Y-116700000D01*
X61250000Y-126960000D02*
X61250000Y-130960000D01*
X183250000Y-51300000D02*
X183600000Y-51200000D01*
X69252222Y-137886420D02*
X69550506Y-137554994D01*
X124870000Y-141080000D02*
X128050000Y-141100000D01*
X92200000Y-79350000D02*
X92550000Y-79400000D01*
X136850000Y-73620000D02*
X132080000Y-73660000D01*
X194450000Y-60300000D02*
X194750000Y-60450000D01*
X161050000Y-45950000D02*
X166000000Y-46000000D01*
X66100000Y-100400000D02*
X66850000Y-99950000D01*
X70216926Y-113183074D02*
X70267925Y-113132075D01*
X200161625Y-58180775D02*
X199091613Y-58109441D01*
X215382875Y-78721483D02*
X217450000Y-77500000D01*
X152090000Y-78700000D02*
X162950000Y-79500000D01*
X154000000Y-140750000D02*
X154000000Y-154200000D01*
X182457549Y-153746012D02*
X182768427Y-153675358D01*
X117597909Y-77934423D02*
X119499198Y-77631946D01*
X212500000Y-60050000D02*
X212450000Y-59400000D01*
X99600000Y-84850000D02*
X100962917Y-84460595D01*
X64450000Y-148000000D02*
X64290000Y-148980000D01*
X190550000Y-87950000D02*
X189800000Y-85400000D01*
X70900000Y-94700000D02*
X71150000Y-94400000D01*
X65700000Y-128350000D02*
X65100000Y-128700000D01*
X168500000Y-45750000D02*
X168900000Y-45950000D01*
X217963834Y-156630828D02*
X217950000Y-156700000D01*
X113400000Y-138650000D02*
X117250000Y-138540000D01*
X105951145Y-77574558D02*
X106631699Y-77674151D01*
X182550000Y-53350000D02*
X182650000Y-53100000D01*
X87363484Y-102081862D02*
X86685082Y-102275691D01*
X207100000Y-45250000D02*
X207750000Y-45550000D01*
X69750000Y-110950000D02*
X70450000Y-110150000D01*
X60000000Y-64000000D02*
X59980000Y-69710000D01*
X70450000Y-153800000D02*
X70815735Y-153543985D01*
X81991200Y-103339662D02*
X80120000Y-103580000D01*
X148550000Y-83850000D02*
X148650000Y-124200000D01*
X159300000Y-152950000D02*
X159450000Y-153550000D01*
X63000000Y-56000000D02*
X67300000Y-60000000D01*
X170690000Y-56370000D02*
X172750000Y-56350000D01*
X208300000Y-144250000D02*
X207900000Y-143800000D01*
X211650000Y-75250000D02*
X210750000Y-75400000D01*
X67800000Y-50300000D02*
X67750000Y-51550000D01*
X97699547Y-104966710D02*
X97884009Y-104949142D01*
X62250000Y-128350000D02*
X61900000Y-127800000D01*
X83350000Y-123150000D02*
X84150000Y-122450000D01*
X152090000Y-83780000D02*
X160350000Y-84050000D01*
X78250000Y-101000000D02*
X80120000Y-101040000D01*
X213857396Y-104014470D02*
X214250000Y-104300000D01*
X145400000Y-117750000D02*
X132750000Y-117750000D01*
X72500000Y-125000000D02*
X70950000Y-125050000D01*
X88384446Y-107995510D02*
X90172623Y-107338628D01*
X204750000Y-144600000D02*
X205300000Y-144050000D01*
X161950000Y-81850000D02*
X168450000Y-125000000D01*
X63450000Y-102950000D02*
X64650000Y-101600000D01*
X78123334Y-127735000D02*
X78350000Y-127650000D01*
X147000000Y-121000000D02*
X132750000Y-121000000D01*
X86450000Y-87800000D02*
X87450000Y-87750000D01*
X64450000Y-128900000D02*
X63850000Y-128900000D01*
X68326530Y-91407347D02*
X68611229Y-91378877D01*
X76500000Y-128500000D02*
X76656497Y-128421752D01*
X83350000Y-135750000D02*
X83700000Y-135550000D01*
X67250000Y-80800000D02*
X68500000Y-81000000D01*
X90200000Y-79950000D02*
X90496826Y-79801587D01*
X207250000Y-104250000D02*
X206950000Y-105000000D01*
X156650000Y-113750000D02*
X157250000Y-118100000D01*
X61290000Y-148980000D02*
X61290000Y-152980000D01*
X206200000Y-121950000D02*
X206250000Y-111000000D01*
X181350000Y-61000000D02*
X180950000Y-60900000D01*
X175150000Y-39350000D02*
X176800000Y-39300000D01*
X68438126Y-104386397D02*
X68500000Y-104350000D01*
X90850000Y-111950000D02*
X91600000Y-111650000D01*
X210600000Y-116450000D02*
X208950000Y-116000000D01*
X92665104Y-97623772D02*
X89571856Y-98021476D01*
X174300000Y-39450000D02*
X175150000Y-39350000D01*
X211000000Y-154650000D02*
X211700000Y-154050000D01*
X67150000Y-70850000D02*
X69988752Y-70850000D01*
X196579833Y-57247375D02*
X196250000Y-57000000D01*
X204250000Y-90800000D02*
X208950000Y-90800000D01*
X113280000Y-86350000D02*
X109900000Y-86350000D01*
X143200000Y-157495525D02*
X135500000Y-157458339D01*
X200600000Y-56100000D02*
X200950000Y-56150000D01*
X152250000Y-63430000D02*
X150700000Y-63450000D01*
X161912486Y-152250167D02*
X161900000Y-152400000D01*
X56650000Y-47700000D02*
X56700000Y-154600000D01*
X214800000Y-72450000D02*
X214700000Y-72950000D01*
X157250000Y-118100000D02*
X157450000Y-118900000D01*
X113280000Y-78730000D02*
X115502776Y-78308946D01*
X208400000Y-74700000D02*
X209350000Y-74550000D01*
X64900000Y-92600000D02*
X65300000Y-92300000D01*
X178650000Y-58250000D02*
X178515850Y-57758116D01*
X162450000Y-155350000D02*
X163750000Y-155350000D01*
X205150000Y-122250000D02*
X204850000Y-121800000D01*
X64659471Y-47714258D02*
X72500000Y-47725427D01*
X209200000Y-56200000D02*
X204000000Y-56237410D01*
X212400000Y-72550000D02*
X212500000Y-72200000D01*
X96680000Y-86340000D02*
X91750000Y-86350000D01*
X88500000Y-76250000D02*
X96680000Y-76180000D01*
X81100000Y-136450000D02*
X81477329Y-136355668D01*
X66044992Y-111380781D02*
X66381743Y-110862703D01*
X161100000Y-115150000D02*
X161350000Y-115600000D01*
X125350000Y-75350000D02*
X126700000Y-75350000D01*
X75150000Y-107450000D02*
X76000000Y-107300000D01*
X69100000Y-66500000D02*
X70550000Y-66800000D01*
X154700000Y-155750000D02*
X155100000Y-156050000D01*
X77869265Y-126166126D02*
X80603669Y-126271295D01*
X87599471Y-99569693D02*
X83828279Y-99781557D01*
X76050000Y-101550000D02*
X76850000Y-101200000D01*
X162950000Y-153800000D02*
X163500000Y-153900000D01*
X160800000Y-46100000D02*
X161050000Y-45950000D01*
X206850000Y-123200000D02*
X206500000Y-122450000D01*
X68200000Y-126250000D02*
X67150000Y-127150000D01*
X70891338Y-103646239D02*
X72500000Y-103580000D01*
X88675956Y-80667447D02*
X90000000Y-80100000D01*
X158950000Y-120550000D02*
X159250000Y-151100000D01*
X72750000Y-152100000D02*
X72750000Y-149750000D01*
X126700000Y-75350000D02*
X127500000Y-75400000D01*
X204150000Y-145750000D02*
X204350000Y-145050000D01*
X195200000Y-50200000D02*
X194917784Y-50123032D01*
X74413685Y-110412105D02*
X74600000Y-110350000D01*
X161900000Y-152400000D02*
X162100000Y-152850000D01*
X132080000Y-63500000D02*
X137010000Y-63430000D01*
X72100000Y-86200000D02*
X75400000Y-86100000D01*
X210850000Y-74200000D02*
X211200000Y-74000000D01*
X152090000Y-81240000D02*
X161950000Y-81850000D01*
X96680000Y-81260000D02*
X91750000Y-81250000D01*
X209750000Y-62100000D02*
X209900000Y-61650000D01*
X63850000Y-128900000D02*
X63250000Y-128850000D01*
X99100000Y-134150000D02*
X98750000Y-134450000D01*
X207250000Y-143200000D02*
X207050000Y-142950000D01*
X212650000Y-155450000D02*
X213300000Y-154900000D01*
X142400000Y-111250000D02*
X132750000Y-111250000D01*
X67150000Y-127150000D02*
X66200000Y-127950000D01*
X88000000Y-113950000D02*
X88850000Y-113100000D01*
X65785125Y-107322011D02*
X65802407Y-107285877D01*
X161500000Y-116250000D02*
X161700000Y-116800000D01*
X213650000Y-150300000D02*
X213700000Y-149650000D01*
X178800000Y-58650000D02*
X178650000Y-58250000D01*
X72500000Y-127540000D02*
X73550000Y-126950000D01*
X96741773Y-130163591D02*
X96085749Y-130198118D01*
X104841938Y-96358669D02*
X104194910Y-96385629D01*
X132750000Y-114500000D02*
X110000000Y-114500000D01*
X75250000Y-81000000D02*
X76550000Y-80850000D01*
X197050000Y-43150000D02*
X199250000Y-43150000D01*
X80500000Y-72000000D02*
X85250000Y-72000000D01*
X160150000Y-113950000D02*
X160950000Y-114750000D01*
X66425966Y-121214344D02*
X66867510Y-120738835D01*
X86514501Y-102322800D02*
X85251568Y-102659582D01*
X73400000Y-81050000D02*
X74250000Y-81050000D01*
X143900000Y-114500000D02*
X132750000Y-114500000D01*
X103506903Y-96438122D02*
X102950000Y-96500000D01*
X167750000Y-63700000D02*
X167250000Y-63700000D01*
X158600000Y-37650000D02*
X162500000Y-37650000D01*
X198808712Y-58086544D02*
X197900000Y-58000000D01*
X69300000Y-134200000D02*
X69607863Y-134128955D01*
X101750000Y-84200000D02*
X102099550Y-84119335D01*
X173300000Y-39850000D02*
X173750000Y-39600000D01*
X206959184Y-58987728D02*
X205205976Y-58750808D01*
X72500000Y-89950000D02*
X74300000Y-89500000D01*
X91649798Y-136431745D02*
X91613257Y-142187029D01*
X168700000Y-99750000D02*
X169950000Y-101800000D01*
X180500000Y-60650000D02*
X179800000Y-60150000D01*
X70334847Y-113070960D02*
X70437690Y-112985258D01*
X90050000Y-82550000D02*
X97750000Y-82550000D01*
X166250000Y-66250000D02*
X166100000Y-66650000D01*
X132350000Y-146250000D02*
X135500000Y-146160000D01*
X210350000Y-74350000D02*
X210850000Y-74200000D01*
X75200000Y-78900000D02*
X75358860Y-78864698D01*
X101325214Y-77738370D02*
X101975176Y-77668731D01*
X139773687Y-46085740D02*
X141120941Y-45326379D01*
X64250000Y-130960000D02*
X65250000Y-130050000D01*
X60250000Y-102200000D02*
X60450000Y-102750000D01*
X181200000Y-43600000D02*
X180550000Y-43500000D01*
X206350000Y-122150000D02*
X206200000Y-121950000D01*
X213750000Y-154200000D02*
X214200000Y-153200000D01*
X69000000Y-125650000D02*
X68200000Y-126250000D01*
X81250000Y-104900000D02*
X82600000Y-104850000D01*
X147600000Y-48200000D02*
X147950000Y-48200000D01*
X187500000Y-150100000D02*
X187586060Y-149196365D01*
X67311118Y-140186658D02*
X68025934Y-139328879D01*
X182750000Y-52750000D02*
X182750000Y-52400000D01*
X190400000Y-37687959D02*
X199250000Y-37700000D01*
X152090000Y-73620000D02*
X142400000Y-73700000D01*
X121683064Y-50348301D02*
X121160842Y-50492746D01*
X64800000Y-124550000D02*
X66300000Y-123350000D01*
X80120000Y-137700000D02*
X78850000Y-138300000D01*
X87400000Y-114700000D02*
X88000000Y-113950000D01*
X207950000Y-76100000D02*
X206800000Y-76650000D01*
X102950000Y-96500000D02*
X99897917Y-97215332D01*
X185550000Y-152450000D02*
X186073195Y-152031444D01*
X61250000Y-126960000D02*
X63650000Y-125400000D01*
X189358901Y-127498975D02*
X189700000Y-127300000D01*
X151250000Y-59550000D02*
X150900000Y-59600000D01*
X67800000Y-52100000D02*
X67950000Y-52700000D01*
X84150000Y-122450000D02*
X85100000Y-121200000D01*
X89096281Y-109850372D02*
X89100000Y-109850000D01*
X124137932Y-79619917D02*
X124612195Y-79718040D01*
X102950000Y-74900000D02*
X104950000Y-74950000D01*
X199100000Y-55550000D02*
X199550000Y-55750000D01*
X178400000Y-57350000D02*
X178310000Y-56370000D01*
X214900000Y-47600000D02*
X206350000Y-47650000D01*
X60000000Y-52000000D02*
X60050000Y-50300000D01*
X58950000Y-156850000D02*
X59800000Y-157050000D01*
X74700000Y-84150000D02*
X76400000Y-83850000D01*
X204150000Y-140750000D02*
X204250000Y-138000000D01*
X104300000Y-83800000D02*
X109050000Y-87550000D01*
X68736297Y-128934310D02*
X69200000Y-128850000D01*
X69964171Y-154069905D02*
X70450000Y-153800000D01*
X99250000Y-77350000D02*
X99741071Y-77209694D01*
X79700000Y-52400000D02*
X79420000Y-52080000D01*
X208950000Y-101800000D02*
X207250000Y-104250000D01*
X84587539Y-98350639D02*
X82807191Y-98441939D01*
X213550000Y-118900000D02*
X212850000Y-118200000D01*
X63050000Y-87110000D02*
X66250000Y-86650000D01*
X103249756Y-83921182D02*
X104300000Y-83800000D01*
X62000000Y-118150000D02*
X61900000Y-119000000D01*
X71081112Y-153351666D02*
X72750000Y-152100000D01*
X98250000Y-80000000D02*
X98657967Y-79898008D01*
X71450000Y-142700000D02*
X70250000Y-144950000D01*
X202100000Y-75850000D02*
X202750000Y-75550000D01*
X162700000Y-50745200D02*
X166000000Y-50750000D01*
X128367637Y-55273131D02*
X129037678Y-55381786D01*
X135500000Y-151240000D02*
X135500000Y-153780000D01*
X113400000Y-148750000D02*
X117250000Y-148700000D01*
X72500000Y-77250000D02*
X69400000Y-76350000D01*
X153108235Y-44745840D02*
X156360527Y-44513534D01*
X70500000Y-102300000D02*
X71100000Y-102250000D01*
X76950000Y-70500000D02*
X77805019Y-70229994D01*
X206350000Y-47650000D02*
X206400000Y-51550000D01*
X115597308Y-78291509D02*
X117402419Y-77967514D01*
X102461514Y-76407697D02*
X102483009Y-76403398D01*
X61250000Y-134960000D02*
X61290000Y-140980000D01*
X92171116Y-58121648D02*
X90641118Y-57989752D01*
X69650000Y-125300000D02*
X69000000Y-125650000D01*
X90398361Y-115804098D02*
X90900000Y-115450000D01*
X91650000Y-135967725D02*
X91650000Y-136368254D01*
X132750000Y-121000000D02*
X91500000Y-121000000D01*
X204250000Y-127200000D02*
X204299881Y-123458947D01*
X75600965Y-126342085D02*
X76000000Y-126250000D01*
X179023227Y-43579516D02*
X178310000Y-43670000D01*
X66250000Y-86650000D02*
X69500000Y-86300000D01*
X98250000Y-136000000D02*
X91650000Y-135967725D01*
X82750000Y-92500000D02*
X85250000Y-92500000D01*
X67750000Y-76050000D02*
X65700000Y-75900000D01*
X92360487Y-114743144D02*
X92600000Y-114650000D01*
X86059266Y-81640863D02*
X86371389Y-81557630D01*
X61290000Y-144980000D02*
X61290000Y-148980000D01*
X92550000Y-79400000D02*
X92973436Y-79588194D01*
X78100000Y-52250000D02*
X78372886Y-52222711D01*
X168450000Y-125000000D02*
X170150000Y-127200000D01*
X104300000Y-88880000D02*
X104250000Y-92527859D01*
X216661726Y-157841182D02*
X216600000Y-157850000D01*
X78825841Y-52166950D02*
X79420000Y-52080000D01*
X188200000Y-152850000D02*
X188500000Y-152350000D01*
X69500000Y-86300000D02*
X72100000Y-86200000D01*
X68850000Y-99000000D02*
X69950000Y-98650000D01*
X76750000Y-65250000D02*
X77650000Y-64900000D01*
X70803151Y-112791957D02*
X70886744Y-112768073D01*
X135500000Y-133850000D02*
X135500000Y-136000000D01*
X74806025Y-54097069D02*
X75150000Y-53800000D01*
X77450000Y-52400000D02*
X77800000Y-52300000D01*
X96680000Y-76180000D02*
X101750000Y-75050000D01*
X90900000Y-115450000D02*
X91082337Y-115347435D01*
X143850000Y-76200000D02*
X143900000Y-114500000D01*
X65528394Y-122121606D02*
X66169099Y-121480901D01*
X208900000Y-145350000D02*
X208800000Y-145000000D01*
X104300000Y-81260000D02*
X108450000Y-85100000D01*
X120719267Y-77485894D02*
X121335493Y-77434542D01*
X70750000Y-61800000D02*
X72500000Y-61830000D01*
X87885646Y-118207243D02*
X88200000Y-117750000D01*
X74315903Y-79222892D02*
X74725852Y-79076481D01*
X139813680Y-48825525D02*
X142999937Y-47140838D01*
X154250000Y-66000000D02*
X155700000Y-65950000D01*
X132350000Y-148750000D02*
X135500000Y-148700000D01*
X200350000Y-152150000D02*
X200950000Y-152950000D01*
X76950000Y-85950000D02*
X77800000Y-85800000D01*
X60100000Y-101200000D02*
X60150000Y-101750000D01*
X154000000Y-132050000D02*
X154000000Y-140750000D01*
X96100000Y-37650000D02*
X96000000Y-47750000D01*
X167250000Y-63700000D02*
X166850000Y-63800000D01*
X173050000Y-40200000D02*
X173300000Y-39850000D01*
X171800000Y-59750000D02*
X176450000Y-53800000D01*
X74950000Y-70700000D02*
X74956104Y-70700000D01*
X195900000Y-55850000D02*
X195900000Y-51100000D01*
X65650000Y-92100000D02*
X65747629Y-92059321D01*
X92250000Y-87600000D02*
X94550000Y-87600000D01*
X68400000Y-60900000D02*
X69700000Y-61600000D01*
X77100000Y-52550000D02*
X77450000Y-52400000D01*
X90915030Y-107031525D02*
X92418730Y-106337509D01*
X209700000Y-60200000D02*
X209400000Y-59750000D01*
X66799576Y-135480862D02*
X66898049Y-135409743D01*
X94563803Y-85148595D02*
X97440484Y-85113080D01*
X108450000Y-85100000D02*
X114450000Y-85100000D01*
X60050000Y-50300000D02*
X67800000Y-50300000D01*
X209200000Y-156450000D02*
X210100000Y-156400000D01*
X104789873Y-99354203D02*
X100193778Y-99446124D01*
X108600000Y-90450000D02*
X114700000Y-90400000D01*
X72145828Y-107450000D02*
X75150000Y-107450000D01*
X64000000Y-53350000D02*
X65850000Y-55600000D01*
X209800000Y-75550000D02*
X208850000Y-75800000D01*
X81100000Y-88650000D02*
X83400000Y-88550000D01*
X209950000Y-61200000D02*
X209900000Y-60950000D01*
X77650000Y-64900000D02*
X78400000Y-64600000D01*
X76356601Y-100029754D02*
X76410164Y-100021513D01*
X96680000Y-78720000D02*
X100185730Y-77927550D01*
X76307254Y-131372920D02*
X76478018Y-131354945D01*
X210100000Y-56450000D02*
X209550000Y-56250000D01*
X213700000Y-149650000D02*
X213800000Y-148150000D01*
X65487041Y-142887315D02*
X65897676Y-142192395D01*
X68750000Y-154650000D02*
X69115930Y-154489906D01*
X65110000Y-104870000D02*
X66000000Y-104100000D01*
X59980000Y-77710000D02*
X59980000Y-81710000D01*
X190250000Y-45400000D02*
X190350000Y-45050000D01*
X91985648Y-77718982D02*
X92125504Y-77685224D01*
X183350000Y-49800000D02*
X183150000Y-49550000D01*
X208850000Y-122600000D02*
X208900000Y-123300000D01*
X211200000Y-57250000D02*
X210900000Y-57000000D01*
X154597291Y-94411189D02*
X154698392Y-94526733D01*
X93750000Y-105750000D02*
X94366646Y-105573816D01*
X66717213Y-96942828D02*
X67733733Y-96519278D01*
X132080000Y-86360000D02*
X136850000Y-86320000D01*
X81700000Y-124150000D02*
X83350000Y-123150000D01*
X111021510Y-78665891D02*
X111400000Y-78750000D01*
X210100000Y-156400000D02*
X210900000Y-156200000D01*
X88700000Y-87700000D02*
X89800000Y-87650000D01*
X207432959Y-65247897D02*
X207989239Y-64563244D01*
X165500000Y-74450000D02*
X169950000Y-90800000D01*
X93533033Y-130897397D02*
X93100000Y-131150000D01*
X161700000Y-116800000D02*
X161946773Y-151348285D01*
X95742989Y-99928038D02*
X93500383Y-100328503D01*
X173750000Y-39600000D02*
X174300000Y-39450000D01*
X136850000Y-93940000D02*
X115307207Y-93949974D01*
X70850000Y-55650000D02*
X72500000Y-56750000D01*
X215423955Y-105638041D02*
X215809473Y-106096992D01*
X183600000Y-51200000D02*
X183685813Y-51200000D01*
X195950000Y-56250000D02*
X195900000Y-55850000D01*
X66636763Y-70768963D02*
X67150000Y-70850000D01*
X70311165Y-70844801D02*
X71688894Y-70800358D01*
X69150000Y-111750000D02*
X69750000Y-110950000D01*
X83350000Y-125800000D02*
X83950000Y-125300000D01*
X76550000Y-80850000D02*
X77300000Y-80650000D01*
X63250000Y-128850000D02*
X62650000Y-128650000D01*
X71050000Y-109650000D02*
X72500000Y-108660000D01*
X59980000Y-73710000D02*
X59980000Y-75800000D01*
X207800000Y-120600000D02*
X208050000Y-120950000D01*
X127000000Y-88900000D02*
X136850000Y-88860000D01*
X67450000Y-109450000D02*
X67611769Y-109305259D01*
X84461796Y-108677388D02*
X84778636Y-108657585D01*
X156600000Y-112700000D02*
X156550000Y-113150000D01*
X198850000Y-74350000D02*
X204200000Y-73850000D01*
X202050000Y-109450000D02*
X202050000Y-109100000D01*
X64150000Y-79150000D02*
X64750000Y-79700000D01*
X72500000Y-84870000D02*
X74700000Y-84150000D01*
X213300000Y-74650000D02*
X212550000Y-75000000D01*
X86400000Y-116700000D02*
X86900000Y-115500000D01*
X211700000Y-154050000D02*
X212500000Y-153250000D01*
X87100000Y-108400000D02*
X87809749Y-108187075D01*
X84779658Y-126607510D02*
X86387215Y-124885127D01*
X132350000Y-143750000D02*
X135500000Y-143620000D01*
X67950000Y-52700000D02*
X68350000Y-53400000D01*
X80120000Y-125000000D02*
X81700000Y-124150000D01*
X89950000Y-78350000D02*
X90624714Y-78125095D01*
X152250000Y-50730000D02*
X162700000Y-50745200D01*
X67650000Y-134900000D02*
X68350120Y-134593698D01*
X203876548Y-58579686D02*
X202617799Y-58465254D01*
X205950000Y-75100000D02*
X207400000Y-74900000D01*
X77406688Y-78550000D02*
X86205670Y-78550000D01*
X132350000Y-141150000D02*
X135500000Y-141080000D01*
X88363532Y-122391055D02*
X89503320Y-120795352D01*
X70400000Y-107600000D02*
X70662423Y-107560636D01*
X109000000Y-148650000D02*
X105870000Y-148700000D01*
X154000000Y-120600000D02*
X154000000Y-130100000D01*
X128804189Y-50103166D02*
X127517661Y-49984043D01*
X174850000Y-116000000D02*
X174850000Y-121800000D01*
X213300000Y-154900000D02*
X213750000Y-154200000D01*
X196200000Y-47300000D02*
X196550000Y-46750000D01*
X172800000Y-41050000D02*
X172850000Y-40550000D01*
X60000000Y-52000000D02*
X60000000Y-56000000D01*
X87015001Y-119876664D02*
X87250000Y-119250000D01*
X197900000Y-58000000D02*
X197450000Y-57900000D01*
X132350000Y-138650000D02*
X135500000Y-138540000D01*
X77755751Y-99804425D02*
X77300000Y-99850000D01*
X218100007Y-111605747D02*
X218150000Y-155100000D01*
X180950000Y-60900000D02*
X180500000Y-60650000D01*
X167700000Y-43900000D02*
X167900000Y-44250000D01*
X74000000Y-65650000D02*
X75450000Y-65550000D01*
X81500000Y-131250000D02*
X82250000Y-131050000D01*
X68350000Y-53400000D02*
X68700000Y-53900000D01*
X76700000Y-88950000D02*
X78400000Y-88800000D01*
X70150758Y-91298401D02*
X75985549Y-91114628D01*
X84545100Y-124533766D02*
X85142604Y-123803484D01*
X211662797Y-102773692D02*
X212364030Y-103116154D01*
X148650000Y-124200000D02*
X132750000Y-124250000D01*
X200950000Y-152950000D02*
X201900000Y-153850000D01*
X187550000Y-68100000D02*
X187400000Y-65850000D01*
X124200000Y-75450000D02*
X125350000Y-75350000D01*
X188150000Y-128900000D02*
X188350000Y-128400000D01*
X79450000Y-88800000D02*
X81100000Y-88650000D01*
X57700000Y-156200000D02*
X58250000Y-156550000D01*
X132080000Y-68580000D02*
X127919317Y-68760187D01*
X204200000Y-120850000D02*
X204250000Y-116000000D01*
X187200000Y-63650000D02*
X167750000Y-63700000D01*
X147950000Y-48200000D02*
X152090000Y-48220000D01*
X203838954Y-122442636D02*
X203263744Y-122059162D01*
X157750000Y-65600000D02*
X158350000Y-65350000D01*
X78400000Y-64600000D02*
X78750000Y-64500000D01*
X69400000Y-76350000D02*
X67750000Y-76050000D01*
X213050000Y-144850000D02*
X212550000Y-143850000D01*
X132080000Y-66040000D02*
X137010000Y-65970000D01*
X65500000Y-136600000D02*
X65583414Y-136516586D01*
X206950000Y-119950000D02*
X207800000Y-120600000D01*
X88200000Y-117750000D02*
X88797509Y-117152491D01*
X85482560Y-134006662D02*
X91500000Y-127500000D01*
X66526959Y-97022859D02*
X66682814Y-96957236D01*
X142317164Y-44753134D02*
X144647869Y-43820852D01*
X145400000Y-78800000D02*
X145400000Y-117750000D01*
X156750000Y-156550000D02*
X209200000Y-156450000D01*
X64750000Y-79700000D02*
X65400000Y-80100000D01*
X78350000Y-127650000D02*
X80120000Y-127540000D01*
X132080000Y-86360000D02*
X120900000Y-86350000D01*
X185200000Y-55150000D02*
X186000000Y-53830000D01*
X117250000Y-133875740D02*
X135500000Y-133850000D01*
X101750000Y-75050000D02*
X102950000Y-74900000D01*
X208900000Y-123300000D02*
X209000000Y-124200000D01*
X209120000Y-43790000D02*
X214900000Y-43800000D01*
X80120000Y-82330000D02*
X82794587Y-82183224D01*
X184100000Y-50050000D02*
X183750000Y-49950000D01*
X157750000Y-119550000D02*
X158150000Y-120050000D01*
X86900000Y-115500000D02*
X87400000Y-114700000D01*
X212300000Y-58850000D02*
X212100000Y-58400000D01*
X64446445Y-93138597D02*
X64900000Y-92600000D01*
X69350000Y-140550000D02*
X69000000Y-141150000D01*
X204600000Y-75250000D02*
X205950000Y-75100000D01*
X160950000Y-114750000D02*
X161100000Y-115150000D01*
X119038181Y-51351901D02*
X117689408Y-52087596D01*
X154000000Y-113350000D02*
X154000000Y-120600000D01*
X107796357Y-94239361D02*
X105807732Y-94497146D01*
X75150000Y-105300000D02*
X76100000Y-105150000D01*
X83400000Y-53450000D02*
X81300000Y-53400000D01*
X72500000Y-47725427D02*
X89750000Y-47750000D01*
X143120000Y-151240000D02*
X146250000Y-151200000D01*
X67008874Y-120544027D02*
X67395070Y-119848874D01*
X150523417Y-44900841D02*
X152991720Y-44753479D01*
X161150000Y-155100000D02*
X161650000Y-155250000D01*
X126050000Y-58350000D02*
X95075832Y-58200366D01*
X134486097Y-51960487D02*
X132633380Y-51137058D01*
X96650000Y-67650000D02*
X111950000Y-70000000D01*
X205300000Y-144050000D02*
X205750000Y-143700000D01*
X102850000Y-86600000D02*
X104300000Y-86340000D01*
X206250000Y-111000000D02*
X203700000Y-111000000D01*
X77867366Y-133183158D02*
X80120000Y-132620000D01*
X209350000Y-74550000D02*
X210350000Y-74350000D01*
X72450000Y-114650000D02*
X72500000Y-113740000D01*
X62110000Y-116870000D02*
X62000000Y-118150000D01*
X218100000Y-110750000D02*
X218100000Y-111594253D01*
X85204842Y-85626172D02*
X85680897Y-85517978D01*
X59800000Y-157050000D02*
X60980514Y-157077966D01*
X214550000Y-73400000D02*
X214250000Y-73900000D01*
X113280000Y-81270000D02*
X109900000Y-81250000D01*
X214350000Y-120100000D02*
X213950000Y-119400000D01*
X61800000Y-119750000D02*
X61650000Y-120500000D01*
X204850000Y-121800000D02*
X204400000Y-121150000D01*
X119350000Y-92550000D02*
X119450000Y-88900000D01*
X93599062Y-97475156D02*
X93033881Y-97569353D01*
X181500000Y-53850000D02*
X182000000Y-53800000D01*
X69450000Y-108000000D02*
X70400000Y-107600000D01*
X162650000Y-48200000D02*
X162700000Y-50745200D01*
X155550000Y-156250000D02*
X156200000Y-156450000D01*
X208350000Y-59200000D02*
X207140577Y-59013935D01*
X207450000Y-143400000D02*
X207250000Y-143200000D01*
X67550000Y-122050000D02*
X68850000Y-120550000D01*
X79373553Y-112186683D02*
X80120000Y-111200000D01*
X75100000Y-102100000D02*
X75700000Y-101800000D01*
X131095471Y-79402161D02*
X132080000Y-78740000D01*
X69312798Y-115343833D02*
X69477736Y-114896144D01*
X84413438Y-85821641D02*
X84995696Y-85676076D01*
X212850000Y-118200000D02*
X212050000Y-117550000D01*
X105870000Y-136000000D02*
X109000000Y-136000000D01*
X93100000Y-131150000D02*
X92848997Y-131472718D01*
X214250000Y-104300000D02*
X215274041Y-105463683D01*
X70850000Y-98500000D02*
X72500000Y-98500000D01*
X96680000Y-83800000D02*
X91750000Y-83800000D01*
X83700000Y-135550000D02*
X84043570Y-135296843D01*
X208400000Y-121350000D02*
X208650000Y-121950000D01*
X193620000Y-48750000D02*
X196000000Y-48800000D01*
X78750000Y-64500000D02*
X80120000Y-64370000D01*
X77077684Y-133369957D02*
X77732407Y-133215904D01*
X193850000Y-59800000D02*
X194450000Y-60300000D01*
X65700000Y-75900000D02*
X63550000Y-75850000D01*
X200050000Y-55950000D02*
X200600000Y-56100000D01*
X205194025Y-58749185D02*
X204322317Y-58630316D01*
X199550000Y-55750000D02*
X200050000Y-55950000D01*
X201500000Y-41250000D02*
X201500000Y-37718443D01*
X166800000Y-43500000D02*
X167250000Y-43550000D01*
X152090000Y-86320000D02*
X159100000Y-86650000D01*
X194100000Y-95000000D02*
X193100000Y-93500000D01*
X186050000Y-37682041D02*
X190400000Y-37687959D01*
X94798756Y-80000000D02*
X98250000Y-80000000D01*
X84450000Y-88350000D02*
X85300000Y-88100000D01*
X156700000Y-112200000D02*
X156600000Y-112700000D01*
X78050000Y-106350000D02*
X78457139Y-106316072D01*
X78350000Y-85600000D02*
X78900000Y-85350000D01*
X178850000Y-39300000D02*
X179400000Y-39350000D01*
X66044992Y-111380781D02*
G75*
G03*
X65956156Y-111519951I8383308J-5449219D01*
G01*
X86323091Y-108510987D02*
G75*
G02*
X85775173Y-108573899I-1414091J9898287D01*
G01*
X69630397Y-114507048D02*
G75*
G03*
X69477735Y-114896144I9232703J-3846952D01*
G01*
X90641118Y-57989752D02*
G75*
G02*
X88599928Y-57596949I858882J9963052D01*
G01*
X94003560Y-98693489D02*
G75*
G03*
X94493956Y-98594239I-1738160J9849389D01*
G01*
X89593836Y-78403425D02*
G75*
G02*
X88299077Y-78512288I-1483436J9889225D01*
G01*
X78825841Y-52166950D02*
G75*
G02*
X78372886Y-52222710I-1447841J9893650D01*
G01*
X73116528Y-70751154D02*
G75*
G02*
X73183479Y-70749070I344972J-10005746D01*
G01*
X208421478Y-64034860D02*
G75*
G02*
X208478835Y-63965398I7703022J-6302240D01*
G01*
X203263744Y-122059162D02*
G75*
G03*
X203234040Y-122045742I-55444J-83138D01*
G01*
X74315903Y-79222892D02*
G75*
G02*
X73880791Y-79367132I-3363203J9416992D01*
G01*
X81150464Y-131288837D02*
G75*
G02*
X80046149Y-131350003I-1104364J9939137D01*
G01*
X91739243Y-134548076D02*
G75*
G02*
X91944259Y-133265269I9956357J-933424D01*
G01*
X88298284Y-99505773D02*
G75*
G02*
X87599471Y-99569690I-1259784J9921373D01*
G01*
X66425966Y-121214344D02*
G75*
G02*
X66169098Y-121480900I-7328566J6805144D01*
G01*
X212364030Y-103116154D02*
G75*
G02*
X213857397Y-104014469I-4388330J-8985646D01*
G01*
X204181290Y-122828617D02*
G75*
G02*
X204204680Y-122878025I-75290J-65883D01*
G01*
X76356601Y-100029754D02*
G75*
G03*
X75451821Y-100212047I1520699J-9884246D01*
G01*
X211662797Y-102773692D02*
G75*
G03*
X210296883Y-102227059I-4388497J-8986008D01*
G01*
X70626374Y-136525339D02*
G75*
G03*
X69550512Y-137555000I6356926J-7719061D01*
G01*
X100602545Y-79415818D02*
G75*
G02*
X99479808Y-79718783I-3162245J9486918D01*
G01*
X130852871Y-50512004D02*
G75*
G03*
X128804189Y-50103165I-2970671J-9548596D01*
G01*
X93803719Y-79950372D02*
G75*
G03*
X94798756Y-80000003I995081J9950572D01*
G01*
X91650000Y-135967725D02*
G75*
G02*
X91693658Y-135034318I9999500J25D01*
G01*
X76823149Y-133433382D02*
G75*
G02*
X77077684Y-133369957I2545651J-9673718D01*
G01*
X182768427Y-153675358D02*
G75*
G03*
X183425689Y-153502293I-2216227J9751358D01*
G01*
X66799576Y-135480862D02*
G75*
G03*
X65583412Y-136516584I5854924J-8106838D01*
G01*
X93863078Y-130696223D02*
G75*
G02*
X93533033Y-130897397I-5367578J8434723D01*
G01*
X70334847Y-113070960D02*
G75*
G03*
X70267926Y-113132076I640053J-768040D01*
G01*
X86059266Y-81640863D02*
G75*
G02*
X85232972Y-81824138I-2576466J9661663D01*
G01*
X69189961Y-91337918D02*
G75*
G03*
X68611229Y-91378878I416239J-9990182D01*
G01*
X70437690Y-112985258D02*
G75*
G02*
X70803149Y-112791951I640210J-768242D01*
G01*
X202486988Y-121849976D02*
G75*
G02*
X202512572Y-121853357I-188J-99924D01*
G01*
X92360487Y-114743144D02*
G75*
G03*
X91082337Y-115347435I3624413J-9319956D01*
G01*
X147202273Y-43063677D02*
G75*
G02*
X148821972Y-42770080I2587427J-9659623D01*
G01*
X84124226Y-56375482D02*
G75*
G03*
X83873345Y-56356335I-200926J-979518D01*
G01*
X64727546Y-98000653D02*
G75*
G03*
X64573375Y-98100764I5369954J-8438447D01*
G01*
X66946045Y-129329266D02*
G75*
G03*
X65314922Y-130015622I3047755J-9524334D01*
G01*
X67478684Y-91528997D02*
G75*
G02*
X68326530Y-91407349I1842816J-9828403D01*
G01*
X91613257Y-142187029D02*
G75*
G02*
X81586862Y-152123503I-9999797J63489D01*
G01*
X92171116Y-58121648D02*
G75*
G03*
X92830039Y-58156602I858884J9962748D01*
G01*
X126103387Y-69006911D02*
G75*
G02*
X127919317Y-68760186I2248613J-9743989D01*
G01*
X77524866Y-131300000D02*
G75*
G03*
X76478018Y-131354947I34J-10000300D01*
G01*
X89571856Y-98021476D02*
G75*
G02*
X89127091Y-98068577I-1275156J9917676D01*
G01*
X102374280Y-95209508D02*
G75*
G02*
X102828250Y-95101090I2549520J-9670792D01*
G01*
X94532184Y-108388926D02*
G75*
G02*
X95579702Y-108167232I2591316J-9658474D01*
G01*
X92848997Y-131472718D02*
G75*
G03*
X92655157Y-131730407I7894103J-6139882D01*
G01*
X77732407Y-133215904D02*
G75*
G03*
X77867366Y-133183158I-2293907J9748604D01*
G01*
X86277878Y-127237693D02*
G75*
G02*
X86015526Y-127556884I-7855678J6189393D01*
G01*
X152023838Y-42494831D02*
G75*
G03*
X151178120Y-42541016I121962J-9999669D01*
G01*
X67395070Y-119848874D02*
G75*
G03*
X67502680Y-119649909I-8741270J4856274D01*
G01*
X85211946Y-134288054D02*
G75*
G03*
X85482561Y-134006663I-7068546J7068654D01*
G01*
X130779922Y-79542520D02*
G75*
G03*
X131095472Y-79402162I-242522J970120D01*
G01*
X74197613Y-136751085D02*
G75*
G03*
X73136172Y-137312762I4138087J-9103815D01*
G01*
X69915539Y-113753384D02*
G75*
G02*
X69659473Y-114437259I-9486239J3162084D01*
G01*
X128551746Y-79908932D02*
G75*
G02*
X127646391Y-79950000I-905346J9958632D01*
G01*
X84778636Y-108657585D02*
G75*
G03*
X85021143Y-108639466I-624436J9989485D01*
G01*
X75549680Y-128755032D02*
G75*
G02*
X74648097Y-128804221I-994980J9949832D01*
G01*
X64109599Y-70121397D02*
G75*
G03*
X65106331Y-70426578I3422001J9396097D01*
G01*
X76939335Y-136418283D02*
G75*
G03*
X75861830Y-136439859I-338835J-9994717D01*
G01*
X65413875Y-143013218D02*
G75*
G02*
X65487042Y-142887315I8682125J-4961282D01*
G01*
X84358433Y-124769037D02*
G75*
G02*
X84545099Y-124533766I7926367J-6097163D01*
G01*
X207264384Y-65449886D02*
G75*
G03*
X207432958Y-65247896I-7590684J6506286D01*
G01*
X188850609Y-127816261D02*
G75*
G02*
X189358901Y-127498975I5546891J-8320339D01*
G01*
X122818444Y-77400000D02*
G75*
G02*
X123081511Y-77403461I56J-9996100D01*
G01*
X73728374Y-133856487D02*
G75*
G03*
X74569583Y-133808044I-153774J9998287D01*
G01*
X154597291Y-94411189D02*
G75*
G03*
X154374713Y-94221697I-752491J-658411D01*
G01*
X86371389Y-81557630D02*
G75*
G03*
X87885319Y-81020380I-2576589J9662330D01*
G01*
X89503320Y-120795352D02*
G75*
G03*
X89966537Y-120084992I-8137020J5812252D01*
G01*
X71081112Y-153351666D02*
G75*
G02*
X70815735Y-153543984I-5997612J7996766D01*
G01*
X216967889Y-107802155D02*
G75*
G02*
X217473485Y-108826774I-8700189J-4930145D01*
G01*
X216661726Y-157841182D02*
G75*
G03*
X217171099Y-157610493I-141426J989982D01*
G01*
X97884009Y-104949142D02*
G75*
G02*
X98918307Y-104904467I948091J-9954658D01*
G01*
X86387215Y-124885127D02*
G75*
G03*
X86980808Y-124187659I-7310215J6822827D01*
G01*
X83171218Y-99796839D02*
G75*
G03*
X83828279Y-99781559I96182J9998639D01*
G01*
X75427619Y-100218095D02*
G75*
G02*
X75171586Y-100278536I-2426719J9707295D01*
G01*
X102483009Y-76403398D02*
G75*
G02*
X103524998Y-76251537I1961191J-9805902D01*
G01*
X72145828Y-107450000D02*
G75*
G03*
X70662423Y-107560634I-28J-9999900D01*
G01*
X65528394Y-122121606D02*
G75*
G02*
X65356345Y-122259328I-707094J707006D01*
G01*
X92418730Y-106337509D02*
G75*
G02*
X92581928Y-106263952I4185870J-9069191D01*
G01*
X76772484Y-110034689D02*
G75*
G02*
X76527174Y-110062283I-1240384J9922789D01*
G01*
X92125504Y-77685224D02*
G75*
G02*
X94101796Y-77412901I2346396J-9720876D01*
G01*
X161946773Y-151348285D02*
G75*
G02*
X161912486Y-152250167I-10000173J-71415D01*
G01*
X83791110Y-103005408D02*
G75*
G02*
X83407288Y-103087062I-2272110J9737308D01*
G01*
X87363484Y-102081862D02*
G75*
G03*
X87931132Y-101901221I-2747084J9614662D01*
G01*
X84612462Y-98349392D02*
G75*
G03*
X84587539Y-98350639I505138J-10344608D01*
G01*
X82360101Y-56516345D02*
G75*
G02*
X83649579Y-56367524I1788799J-9838455D01*
G01*
X180171643Y-153996090D02*
G75*
G03*
X181522671Y-153912263I57657J9999890D01*
G01*
X87601825Y-85235080D02*
G75*
G02*
X88199743Y-85182873I1168375J-9931120D01*
G01*
X79373553Y-112186683D02*
G75*
G02*
X79072194Y-112451601I-797453J603283D01*
G01*
X76694218Y-78575413D02*
G75*
G02*
X77406688Y-78549998I712482J-9974087D01*
G01*
X109277301Y-78293141D02*
G75*
G03*
X109725076Y-78396565I2473399J9687541D01*
G01*
X215423955Y-105638041D02*
G75*
G03*
X215274041Y-105463683I-7657955J-6432759D01*
G01*
X134486097Y-51960487D02*
G75*
G02*
X135103589Y-52260724I-4061097J-9137513D01*
G01*
X206443394Y-66407707D02*
G75*
G02*
X205826996Y-67064507I-7592594J6507907D01*
G01*
X123754667Y-49984797D02*
G75*
G02*
X125150364Y-49912972I1210533J-9926503D01*
G01*
X69703272Y-128850000D02*
G75*
G03*
X69796727Y-128849563I128J9970300D01*
G01*
X100496543Y-133899370D02*
G75*
G03*
X99605291Y-133940425I14057J-9999630D01*
G01*
X76679105Y-133471288D02*
G75*
G02*
X75302585Y-133732055I-2545005J9670888D01*
G01*
X93141684Y-108761987D02*
G75*
G03*
X92859491Y-108842154I2590616J-9655913D01*
G01*
X120719267Y-77485894D02*
G75*
G03*
X120381310Y-77519846I830433J-9965106D01*
G01*
X117689408Y-52087596D02*
G75*
G03*
X116930930Y-52546051I4788592J-8779004D01*
G01*
X90915030Y-107031525D02*
G75*
G02*
X90172622Y-107338626I-4190230J9078825D01*
G01*
X71596768Y-112600000D02*
G75*
G03*
X71309423Y-112642182I32J-1000000D01*
G01*
X77755751Y-99804425D02*
G75*
G02*
X78846937Y-99755257I995049J-9950275D01*
G01*
X88384446Y-107995510D02*
G75*
G02*
X87809749Y-108187074I-3447546J9384910D01*
G01*
X66682814Y-96957236D02*
G75*
G02*
X66717213Y-96942828I3906686J-9278964D01*
G01*
X60980514Y-157077966D02*
G75*
G03*
X61620242Y-157101546I688086J9978066D01*
G01*
X68359145Y-117725612D02*
G75*
G02*
X68340728Y-117774339I-9471445J3552012D01*
G01*
X122571620Y-79206054D02*
G75*
G02*
X122528407Y-79193849I2681380J9576354D01*
G01*
X91046637Y-99156776D02*
G75*
G03*
X91153286Y-99142650I-1264037J9953276D01*
G01*
X89723837Y-116324664D02*
G75*
G02*
X90398361Y-115804098I6441463J-7649236D01*
G01*
X64386221Y-139324014D02*
G75*
G03*
X64335219Y-139977660I9938579J-1104286D01*
G01*
X100856295Y-76847902D02*
G75*
G02*
X101145090Y-76756473I3162305J-9486898D01*
G01*
X196579833Y-57247375D02*
G75*
G02*
X196719234Y-57353848I-6001633J-8002225D01*
G01*
X76222630Y-128583211D02*
G75*
G02*
X75774507Y-128706373I-2873130J9577011D01*
G01*
X119499198Y-77631946D02*
G75*
G02*
X119901935Y-77576244I1571402J-9877854D01*
G01*
X68074282Y-139271303D02*
G75*
G03*
X68025934Y-139328879I7673618J-6492797D01*
G01*
X74806025Y-54097069D02*
G75*
G03*
X73438082Y-55539589I6536175J-7568131D01*
G01*
X204298529Y-123441174D02*
G75*
G02*
X204299880Y-123458947I-98529J-16426D01*
G01*
X67008874Y-120544027D02*
G75*
G02*
X66867504Y-120738829I-874074J485627D01*
G01*
X84378437Y-129421563D02*
G75*
G03*
X84899936Y-128858410I-7071137J7071163D01*
G01*
X68438126Y-104386397D02*
G75*
G03*
X66959015Y-105448841I5070174J-8619403D01*
G01*
X152991720Y-44753479D02*
G75*
G03*
X153108235Y-44745840I-594220J9955379D01*
G01*
X105210119Y-99354630D02*
G75*
G03*
X104789873Y-99354201I-220319J-9999070D01*
G01*
X86571833Y-121184502D02*
G75*
G02*
X86418457Y-121612015I-9487233J3162402D01*
G01*
X187618236Y-148904109D02*
G75*
G03*
X187586059Y-149196365I9924664J-1240591D01*
G01*
X86685082Y-102275691D02*
G75*
G02*
X86514501Y-102322800I-2745682J9609691D01*
G01*
X111021510Y-78665891D02*
G75*
G03*
X110878265Y-78635159I-2167610J-9754109D01*
G01*
X139773687Y-46085740D02*
G75*
G03*
X138227931Y-47160421I4910213J-8711560D01*
G01*
X68550810Y-134508490D02*
G75*
G03*
X68350120Y-134593698I3807890J-9247710D01*
G01*
X105951145Y-77574558D02*
G75*
G03*
X104240087Y-77472622I-1448045J-9894742D01*
G01*
X94563803Y-85148595D02*
G75*
G02*
X94336194Y-85148816I-123503J10008395D01*
G01*
X74941881Y-110281624D02*
G75*
G02*
X75259057Y-110223490I1961319J-9806576D01*
G01*
X81947155Y-56591426D02*
G75*
G02*
X81852241Y-56604021I-178855J983926D01*
G01*
X100857456Y-79330848D02*
G75*
G02*
X101959624Y-79032180I3162344J-9486952D01*
G01*
X215114766Y-78874379D02*
G75*
G03*
X215382876Y-78721484I-4817966J8760079D01*
G01*
X84043570Y-135296843D02*
G75*
G03*
X85182649Y-134317353I-5931970J8050543D01*
G01*
X88101244Y-109900000D02*
G75*
G03*
X89096281Y-109850369I-44J10000200D01*
G01*
X70710858Y-103670260D02*
G75*
G02*
X70891338Y-103646238I221642J-975240D01*
G01*
X95736672Y-105271586D02*
G75*
G02*
X95963795Y-105231033I1871428J-9825014D01*
G01*
X77805019Y-70229994D02*
G75*
G03*
X77994365Y-70168120I-3014319J9544994D01*
G01*
X82794587Y-82183224D02*
G75*
G03*
X83996965Y-82043878I-547887J9984724D01*
G01*
X65771029Y-70592757D02*
G75*
G03*
X66636763Y-70768965I2425471J9701857D01*
G01*
X66328876Y-141524755D02*
G75*
G03*
X65897676Y-142192395I8177324J-5754445D01*
G01*
X85401289Y-56637444D02*
G75*
G02*
X86482709Y-56923131I-2009589J-9796556D01*
G01*
X102099550Y-84119335D02*
G75*
G02*
X102704151Y-83999309I2248650J-9744265D01*
G01*
X95075832Y-58200366D02*
G75*
G02*
X94924182Y-58198484I48468J10017066D01*
G01*
X84779658Y-126607510D02*
G75*
G02*
X84410461Y-126982770I-7310758J6823410D01*
G01*
X144131874Y-46629593D02*
G75*
G03*
X142999940Y-47140843I3542326J-9351607D01*
G01*
X183748955Y-153390418D02*
G75*
G03*
X185374980Y-152560544I-3713855J9284718D01*
G01*
X218100007Y-111605747D02*
X218100000Y-111594253D01*
X92363710Y-98975695D02*
G75*
G03*
X92735191Y-98917319I-1366610J9907795D01*
G01*
X77774378Y-127858541D02*
G75*
G03*
X78123334Y-127735001I-3162678J9488041D01*
G01*
X110771623Y-94018873D02*
G75*
G02*
X111328997Y-93996681I676377J-9977427D01*
G01*
X145774414Y-43446139D02*
G75*
G03*
X144647869Y-43820852I2587486J-9659861D01*
G01*
X199091613Y-58109441D02*
G75*
G02*
X198808712Y-58086543I665387J9979941D01*
G01*
X97562430Y-107960329D02*
G75*
G02*
X98037792Y-107950973I434370J-9988971D01*
G01*
X178828248Y-58706497D02*
G75*
G03*
X179197594Y-59379316I8944452J4472297D01*
G01*
X88130348Y-122704390D02*
G75*
G03*
X88363532Y-122391055I-7904148J6125690D01*
G01*
X121335493Y-77434542D02*
G75*
G02*
X122165944Y-77400003I830407J-9965158D01*
G01*
X99897917Y-97215332D02*
G75*
G03*
X99603204Y-97289147I2282483J-9738268D01*
G01*
X70630262Y-136522137D02*
G75*
G02*
X71184584Y-136097231I6357238J-7719463D01*
G01*
X66957491Y-110065636D02*
G75*
G03*
X66381747Y-110862705I7808509J-6246764D01*
G01*
X138637039Y-49556154D02*
G75*
G02*
X139813680Y-48825525I5850861J-8109746D01*
G01*
X76095383Y-110106069D02*
G75*
G02*
X76204680Y-110094532I1109117J-9984231D01*
G01*
X84413438Y-85821641D02*
G75*
G03*
X83402980Y-86131840I2425362J-9701359D01*
G01*
X154245535Y-94140959D02*
G75*
G03*
X153932469Y-94012752I-530035J-847941D01*
G01*
X89427219Y-116574447D02*
G75*
G03*
X88797509Y-117152491I6441681J-7649453D01*
G01*
X99219387Y-77354082D02*
G75*
G02*
X97774303Y-77441047I-1321687J9912382D01*
G01*
X107657540Y-77879585D02*
G75*
G03*
X106631700Y-77674147I-2473840J-9689015D01*
G01*
X106678441Y-96350000D02*
G75*
G02*
X106721558Y-96350093I259J-9888300D01*
G01*
X64874215Y-154850000D02*
G75*
G03*
X64925785Y-154849867I185J9923500D01*
G01*
X76911092Y-91042363D02*
G75*
G02*
X75985549Y-91114624I-1240292J9922563D01*
G01*
X119038181Y-51351901D02*
G75*
G02*
X121160841Y-50492741I4788519J-8778899D01*
G01*
X69318329Y-108075241D02*
G75*
G03*
X67611777Y-109305267I4961471J-8682459D01*
G01*
X99533248Y-84865171D02*
G75*
G02*
X97440484Y-85113090I-2216248J9751271D01*
G01*
X76656497Y-128421752D02*
G75*
G03*
X77329316Y-128052406I-4472297J8944452D01*
G01*
X100193778Y-99446124D02*
G75*
G03*
X99806517Y-99461381I199922J-9996876D01*
G01*
X95242736Y-105365669D02*
G75*
G03*
X94366646Y-105573815I1871064J-9823131D01*
G01*
X93500383Y-100328503D02*
G75*
G03*
X92706745Y-100503778I1757917J-9844197D01*
G01*
X203876548Y-58579686D02*
G75*
G02*
X204322317Y-58630315I-905448J-9959814D01*
G01*
X206959184Y-58987728D02*
G75*
G02*
X207140577Y-59013935I-1339184J-9910072D01*
G01*
X102324058Y-77625135D02*
G75*
G02*
X101975176Y-77668732I-1413758J9895635D01*
G01*
X75358860Y-78864698D02*
G75*
G03*
X75936766Y-78718066I-2169560J9762798D01*
G01*
X87854906Y-57369094D02*
G75*
G03*
X88045693Y-57428998I3090794J9510094D01*
G01*
X95825038Y-98289991D02*
G75*
G03*
X96173414Y-98203755I-2228938J9751291D01*
G01*
X123467692Y-79456954D02*
G75*
G03*
X124137932Y-79619919I2696308J9629554D01*
G01*
X77583380Y-131300000D02*
G75*
G02*
X77916528Y-131305550I20J-10001000D01*
G01*
X126231149Y-79922678D02*
G75*
G03*
X126969861Y-79950002I738751J9972978D01*
G01*
X66898049Y-135409743D02*
G75*
G02*
X67205958Y-135196031I5854751J-8106657D01*
G01*
X76690389Y-99982451D02*
G75*
G03*
X76410164Y-100021512I1240411J-9923449D01*
G01*
X146204407Y-45844543D02*
G75*
G02*
X147523072Y-45446492I3542293J-9351657D01*
G01*
X205205976Y-58750808D02*
X205194025Y-58749185D01*
X115307207Y-93949974D02*
G75*
G03*
X115192797Y-93950681I4593J-10007626D01*
G01*
X83737516Y-108696357D02*
G75*
G03*
X84461796Y-108677387I100484J9999757D01*
G01*
X96014238Y-130201626D02*
G75*
G03*
X96085749Y-130198118I-454038J9986926D01*
G01*
X66526959Y-97022859D02*
G75*
G03*
X65038776Y-97802601I3880641J-9216441D01*
G01*
X76827225Y-70523386D02*
G75*
G02*
X74956104Y-70700003I-1871125J9823286D01*
G01*
X75970858Y-110119905D02*
G75*
G03*
X75431183Y-110194802I1104342J-9939195D01*
G01*
X98657967Y-79898008D02*
G75*
G02*
X99043784Y-79809626I2425433J-9701492D01*
G01*
X93026632Y-79611652D02*
G75*
G02*
X92973436Y-79588194I3980468J9098652D01*
G01*
X84947239Y-102735644D02*
G75*
G03*
X85251568Y-102659581I-2272939J9740944D01*
G01*
X91650000Y-136368254D02*
G75*
G02*
X91649798Y-136431745I-9880000J-346D01*
G01*
X178515850Y-57758116D02*
G75*
G03*
X178483451Y-57642079I-9664450J-2635884D01*
G01*
X77867777Y-109922148D02*
G75*
G02*
X78532961Y-109899999I665223J-9978752D01*
G01*
X187198413Y-150753174D02*
G75*
G03*
X187392259Y-150342424I-8945513J4472774D01*
G01*
X188032514Y-129742350D02*
G75*
G03*
X187993227Y-130459061I9959186J-905350D01*
G01*
X102627233Y-77581824D02*
G75*
G02*
X103778381Y-77484775I1414267J-9899676D01*
G01*
X67813702Y-129115690D02*
G75*
G03*
X67986009Y-129082798I-1787702J9832690D01*
G01*
X69975349Y-113573954D02*
G75*
G02*
X70216937Y-113183085I948651J-316246D01*
G01*
X181534724Y-153910688D02*
G75*
G03*
X182457549Y-153746011I-1293424J9916188D01*
G01*
X73441658Y-100721785D02*
G75*
G02*
X74473806Y-100433598I3201442J-9473615D01*
G01*
X86738937Y-98244071D02*
G75*
G02*
X86560971Y-98254343I-664537J9966771D01*
G01*
X78457139Y-106316072D02*
G75*
G03*
X78842096Y-106276478I-830639J9967272D01*
G01*
X203858742Y-122459990D02*
G75*
G03*
X203838957Y-122442632I-75242J-65810D01*
G01*
X83556358Y-127806369D02*
G75*
G02*
X82811444Y-128456751I-6941258J7198369D01*
G01*
X65621961Y-107681209D02*
G75*
G02*
X65785125Y-107322011I9186339J-3956191D01*
G01*
X208010806Y-64536792D02*
G75*
G03*
X207989239Y-64563244I7718594J-6315208D01*
G01*
X97873958Y-99612131D02*
G75*
G02*
X98729805Y-99524718I1443042J-9895169D01*
G01*
X66274029Y-154842914D02*
G75*
G03*
X66925741Y-154835839I217371J9996414D01*
G01*
X75301500Y-131518184D02*
G75*
G03*
X74899965Y-131590008I1559700J-9877816D01*
G01*
X102461514Y-76407697D02*
G75*
G03*
X101549196Y-76635241I1961086J-9805503D01*
G01*
X69067483Y-115948164D02*
G75*
G03*
X69312799Y-115343834I-9137783J4061264D01*
G01*
X77163221Y-109985847D02*
G75*
G02*
X77738371Y-109930775I1240279J-9922153D01*
G01*
X85540366Y-123283488D02*
G75*
G02*
X85142602Y-123803483I-8136766J5811988D01*
G01*
X209387630Y-62778349D02*
G75*
G03*
X209694111Y-62211774I-8637730J5038649D01*
G01*
X78748190Y-112582531D02*
G75*
G03*
X79034807Y-112472984I-209490J977831D01*
G01*
X153753993Y-93973109D02*
G75*
G03*
X153543472Y-93949325I-216893J-976191D01*
G01*
X79083472Y-131344449D02*
G75*
G03*
X79416620Y-131349999I333128J9995449D01*
G01*
X180281796Y-43500000D02*
G75*
G03*
X179023227Y-43579516I4J-10000100D01*
G01*
X90624714Y-78125095D02*
G75*
G02*
X90775675Y-78076104I3156586J-9469605D01*
G01*
X154698392Y-94526733D02*
G75*
G02*
X154910562Y-94922124I-752592J-658467D01*
G01*
X71013012Y-112731096D02*
G75*
G02*
X70886744Y-112768073I-2874912J9583096D01*
G01*
X215809473Y-106096992D02*
G75*
G02*
X216852645Y-107598784I-7657173J-6432008D01*
G01*
X105258243Y-96350000D02*
G75*
G03*
X104841938Y-96358669I57J-10002600D01*
G01*
X123138384Y-50059953D02*
G75*
G03*
X121683062Y-50348295I1210516J-9926547D01*
G01*
X68920768Y-116278272D02*
G75*
G03*
X68695591Y-116828423I9138932J-4061728D01*
G01*
X117597909Y-77934423D02*
G75*
G03*
X117402419Y-77967514I1571191J-9876077D01*
G01*
X125766523Y-69084649D02*
G75*
G03*
X123172941Y-70079087I2248577J-9743851D01*
G01*
X74873723Y-79022354D02*
G75*
G02*
X74725852Y-79076481I-3506823J9351354D01*
G01*
X75600965Y-126342085D02*
G75*
G03*
X75102348Y-126470756I2248335J-9743015D01*
G01*
X90106891Y-109634238D02*
G75*
G03*
X90885078Y-109434475I-2095291J9777938D01*
G01*
X79662219Y-136491079D02*
G75*
G02*
X79037833Y-136489419I-285619J9995779D01*
G01*
X75797799Y-53346540D02*
G75*
G02*
X76522062Y-52884601I5734701J-8192560D01*
G01*
X87330191Y-125902065D02*
G75*
G02*
X87575606Y-125602687I7854609J-6188535D01*
G01*
X132633380Y-51137058D02*
G75*
G03*
X131542664Y-50726601I-4061480J-9138242D01*
G01*
X71688894Y-70800358D02*
G75*
G03*
X71711105Y-70799617I-304894J9473658D01*
G01*
X68736297Y-128934310D02*
G75*
G03*
X68563992Y-128967201I1790003J-9844990D01*
G01*
X85204842Y-85626172D02*
G75*
G03*
X84995696Y-85676075I2216858J-9754128D01*
G01*
X129262706Y-55415654D02*
G75*
G02*
X129037678Y-55381786I1376094J9907554D01*
G01*
X82092315Y-126217521D02*
G75*
G02*
X80603669Y-126271297I-1104315J9938621D01*
G01*
X91985648Y-77718982D02*
G75*
G03*
X91320739Y-77903976I2346552J-9721418D01*
G01*
X72658265Y-112600000D02*
G75*
G02*
X72841720Y-112601683I-65J-10005400D01*
G01*
X169571310Y-46034683D02*
G75*
G03*
X169127358Y-45975261I-1548510J-9881017D01*
G01*
X89312936Y-85119261D02*
G75*
G02*
X89987596Y-85103518I570464J-9983239D01*
G01*
X81670895Y-86773506D02*
G75*
G02*
X82031817Y-86633482I3796005J-9249294D01*
G01*
X93599062Y-97475156D02*
G75*
G03*
X94492199Y-97284012I-1643962J9863756D01*
G01*
X82492633Y-98453110D02*
G75*
G03*
X82807191Y-98441939I-197633J9999610D01*
G01*
X130500045Y-79612489D02*
G75*
G02*
X128980046Y-79869998I-2425345J9701289D01*
G01*
X87885646Y-118207243D02*
G75*
G03*
X87443629Y-118911140I8240254J-5665257D01*
G01*
X63799680Y-93996190D02*
G75*
G02*
X64446441Y-93138594I8296020J-5583810D01*
G01*
X94609320Y-114452934D02*
G75*
G03*
X92707617Y-114629496I-30620J-9999866D01*
G01*
X115502776Y-78308946D02*
G75*
G02*
X115597308Y-78291509I1862424J-9831954D01*
G01*
X68271849Y-154721723D02*
G75*
G02*
X67222812Y-154822920I-1483349J9888923D01*
G01*
X97207782Y-107975749D02*
G75*
G03*
X96098386Y-108086194I434418J-9990651D01*
G01*
X97106066Y-96598401D02*
X97093932Y-96601592D01*
X101726940Y-84208647D02*
G75*
G02*
X100962917Y-84460594I-3511340J9363647D01*
G01*
X100185730Y-77927550D02*
G75*
G02*
X101325214Y-77738366I2204870J-9754050D01*
G01*
X88524591Y-80733804D02*
G75*
G02*
X88675956Y-80667447I4090909J-9125796D01*
G01*
X81991200Y-103339662D02*
G75*
G03*
X82605735Y-103241204I-1274100J9919462D01*
G01*
X202282810Y-58429101D02*
G75*
G03*
X202617799Y-58465253I1239890J9918901D01*
G01*
X194917784Y-50123032D02*
G75*
G02*
X194386680Y-49962228I2631216J9647832D01*
G01*
X70311165Y-70844801D02*
G75*
G02*
X69988752Y-70850001I-322465J9995901D01*
G01*
X150523417Y-44900841D02*
G75*
G03*
X148895768Y-45133423I595983J-9982359D01*
G01*
X70296832Y-133995237D02*
G75*
G03*
X69607863Y-134128957I1559668J-9877663D01*
G01*
X77869265Y-126166126D02*
G75*
G03*
X77030857Y-126169049I-384365J-9993174D01*
G01*
X99741071Y-77209694D02*
G75*
G03*
X100156138Y-77081287I-2747171J9615094D01*
G01*
X75794490Y-131440344D02*
G75*
G02*
X76307254Y-131372919I1559810J-9878856D01*
G01*
X156739850Y-44493672D02*
G75*
G03*
X156360527Y-44513536I333250J-9995528D01*
G01*
X141120941Y-45326379D02*
G75*
G02*
X142317163Y-44753131I4910159J-8711521D01*
G01*
X79116472Y-90387585D02*
G75*
G02*
X77643690Y-90897307I-3997072J9166485D01*
G01*
X86394313Y-78548221D02*
G75*
G02*
X86205670Y-78550001I-188513J9983721D01*
G01*
X75236601Y-133739812D02*
G75*
G02*
X75063234Y-133758677I-1169501J9941512D01*
G01*
X90496826Y-79801587D02*
G75*
G02*
X90907576Y-79607741I4472774J-8945513D01*
G01*
X86728695Y-85337801D02*
G75*
G03*
X85680896Y-85517974I1168405J-9931699D01*
G01*
X184113991Y-51209171D02*
G75*
G03*
X183685813Y-51199999I-428191J-9990829D01*
G01*
X65747629Y-92059321D02*
G75*
G02*
X66772119Y-91696430I3846171J-9230679D01*
G01*
X66880171Y-105525931D02*
G75*
G03*
X65802401Y-107285874I7943629J-6074569D01*
G01*
X74508931Y-126640306D02*
G75*
G03*
X74093859Y-126768716I2747869J-9617294D01*
G01*
X103249756Y-83921182D02*
G75*
G03*
X102752007Y-83991331I1146244J-9934318D01*
G01*
X67669049Y-119333806D02*
G75*
G03*
X68164746Y-118236291I-8849049J4657406D01*
G01*
X130396685Y-55573151D02*
G75*
G03*
X131508432Y-55664738I1375615J9904751D01*
G01*
X103506903Y-96438122D02*
G75*
G02*
X104194910Y-96385632I1104197J-9937878D01*
G01*
X70360657Y-103749851D02*
G75*
G03*
X69065633Y-104137883I2216243J-9751549D01*
G01*
X155000000Y-95383918D02*
G75*
G03*
X154964768Y-95120799I-1000000J18D01*
G01*
X105807732Y-94497146D02*
G75*
G03*
X104997982Y-94636147I1285568J-9917154D01*
G01*
X83953646Y-129846354D02*
G75*
G02*
X83639825Y-130146829I-7070246J7070154D01*
G01*
X89123023Y-101482452D02*
G75*
G02*
X89886344Y-101248051I3314877J-9434748D01*
G01*
X126780829Y-49943164D02*
G75*
G02*
X127517661Y-49984043I-185129J-9997936D01*
G01*
X69115930Y-154489906D02*
G75*
G03*
X69964172Y-154069907I-4008130J9161506D01*
G01*
X200161625Y-58180775D02*
G75*
G02*
X200736782Y-58235851I-665325J-9978725D01*
G01*
X68247237Y-96319786D02*
G75*
G03*
X69880956Y-95531415I-3511237J9363186D01*
G01*
X197265999Y-57768571D02*
G75*
G02*
X196938976Y-57524757I5813201J8138371D01*
G01*
X69051296Y-138116650D02*
G75*
G02*
X69252222Y-137886420I7634104J-6459650D01*
G01*
X78084793Y-112697886D02*
G75*
G03*
X78312666Y-112675849I18307J999886D01*
G01*
X70049261Y-91302114D02*
G75*
G02*
X70150758Y-91298401I417339J-10019686D01*
G01*
X217963834Y-156630828D02*
G75*
G03*
X218140778Y-155256887I-9805934J1961228D01*
G01*
X66815267Y-140833567D02*
G75*
G02*
X67311119Y-140186659I8178033J-5754933D01*
G01*
X97258584Y-130149773D02*
G75*
G03*
X96741773Y-130163590I8716J-9998227D01*
G01*
X186515891Y-151655698D02*
G75*
G02*
X186073193Y-152031442I-6689291J7432598D01*
G01*
X94203299Y-77409137D02*
G75*
G02*
X94696851Y-77403048I370101J-9993463D01*
G01*
X125899534Y-79898114D02*
G75*
G02*
X124612195Y-79718041I738666J9972314D01*
G01*
X88067316Y-98155512D02*
G75*
G03*
X88232581Y-98143118I-666016J9989012D01*
G01*
X95742989Y-99928038D02*
G75*
G02*
X96057826Y-99876983I1758311J-9846562D01*
G01*
X82311880Y-136107973D02*
G75*
G02*
X81477330Y-136355671I-3259980J9453873D01*
G01*
X73599889Y-110723382D02*
G75*
G02*
X74413685Y-110412106I3976011J-9175418D01*
G01*
X97699547Y-104966710D02*
G75*
G03*
X97003648Y-105057724I948153J-9955590D01*
G01*
X68068653Y-96386755D02*
G75*
G03*
X67733733Y-96519278I3510047J-9360245D01*
G01*
X86891459Y-120225623D02*
G75*
G02*
X87015001Y-119876664I9486541J-3162177D01*
G01*
X93033881Y-97569353D02*
G75*
G02*
X92665104Y-97623771I-1643981J9864053D01*
G01*
X108405484Y-94179289D02*
G75*
G03*
X107796357Y-94239360I676316J-9976211D01*
G01*
X126294071Y-54702596D02*
G75*
G03*
X128367639Y-55273122I3674229J9300496D01*
G01*
%TD*%
M02*
